<svg id="Capa_1" enable-background="new 0 0 512.019 512.019" height="512" viewBox="0 0 512.019 512.019" width="512" xmlns="http://www.w3.org/2000/svg"><g><g><path d="m227.96 63.58 33.536-22.478c14.274-9.567 31.576-13.532 48.592-11.135l23.801 3.354c12.329 1.737 22.012 11.439 23.724 23.772l5.634 40.584c1.729 12.457-5.095 24.529-16.66 29.47l-80.187 38.936z" fill="#fe646f"/><path d="m363.248 97.677-5.634-40.584c-1.712-12.333-11.395-22.035-23.724-23.772l-23.801-3.354c-6.603-.93-13.248-.891-19.744.051l23.442 3.303c12.329 1.737 22.012 11.44 23.724 23.772l5.634 40.584c1.729 12.457-5.095 24.529-16.66 29.47l-63.182 30.679 3.097 8.258 80.188-38.937c11.564-4.942 18.389-17.014 16.66-29.47z" fill="#fd4755"/><path d="m143.943 126.77-7.694-35.446c-4.516-20.319 5.31-41.115 23.875-50.528l59.987-30.417c9.551-4.843 21.08-3.449 29.201 3.53l34.351 29.519-74.252 117.722z" fill="#fe646f"/><path d="m263.56 96.264c.3 15.426-1.414 30.888-5.41 45.785-10.934 45.74-78.832 42.18-85.596-4.202-6.98-27.587-11.443-73.127 28.148-74.266 26.725-.728 61.178-3.615 62.858 32.683z" fill="#fd4755"/><path d="m249.312 13.909c-7.591-6.523-18.158-8.164-27.305-4.396 2.576 1.057 5.015 2.517 7.203 4.396l34.351 29.519-69.25 109.792 15.101 7.93 74.252-117.722z" fill="#fd4755"/><g><path d="m246.523 504.519h-29.719v-58.858c0-21.858 6.553-42.927 18.952-60.929l1.579-2.292c8.967-13.02 13.707-28.261 13.707-44.071v-80.34h29.719v80.34c0 21.857-6.553 42.926-18.952 60.929l-1.579 2.292c-8.967 13.02-13.707 28.26-13.707 44.07z" fill="#6fd7a3"/></g><path d="m264.645 258.03v80.34c0 21.857-6.553 42.926-18.952 60.929l-1.579 2.292c-8.967 13.02-13.707 28.26-13.707 44.07v58.858h16.116v-58.858c0-15.81 4.74-31.05 13.707-44.07l1.579-2.292c12.398-18.003 18.952-39.072 18.952-60.929v-80.34z" fill="#3ec3a4"/><path d="m293.578 359.616-12.817-15.563 12.817-15.563c5.91-7.176 14.719-11.334 24.016-11.334h7.026c9.297 0 18.106 4.157 24.016 11.334l5.891 7.153c4.023 4.885 4.023 11.935 0 16.82l-5.891 7.153c-5.91 7.176-14.719 11.334-24.016 11.334h-7.026c-9.297 0-18.106-4.157-24.016-11.334z" fill="#6fd7a3"/><path d="m354.526 335.643-5.891-7.153c-5.91-7.176-14.719-11.334-24.016-11.334h-7.025c-2.219 0-4.408.244-6.539.702 6.796 1.461 12.978 5.168 17.477 10.632l5.891 7.153c4.023 4.885 4.023 11.935 0 16.82l-5.891 7.153c-4.499 5.464-10.681 9.17-17.477 10.632 2.131.458 4.32.702 6.539.702h7.025c9.297 0 18.106-4.157 24.016-11.334l5.891-7.153c4.023-4.885 4.023-11.935 0-16.82z" fill="#3ec3a4"/><path d="m203.985 449.477 12.817-15.563-12.817-15.563c-5.91-7.176-14.719-11.334-24.016-11.334h-7.025c-9.297 0-18.106 4.157-24.016 11.334l-5.891 7.153c-4.023 4.885-4.023 11.935 0 16.82l5.891 7.153c5.91 7.176 14.719 11.334 24.016 11.334h7.025c9.296 0 18.106-4.157 24.016-11.334z" fill="#6fd7a3"/><path d="m203.985 418.351c-5.91-7.176-14.719-11.334-24.016-11.334h-7.026c-2.219 0-4.408.244-6.539.702 6.796 1.461 12.978 5.168 17.477 10.632l12.817 15.563-12.817 15.563c-4.499 5.464-10.681 9.17-17.477 10.632 2.131.458 4.32.702 6.539.702h7.026c9.297 0 18.106-4.157 24.016-11.334l12.817-15.563z" fill="#3ec3a4"/><path d="m283.663 96.264v4.646c0 11.11-1.164 22.183-3.482 33.029-.373 1.755-.773 3.5-1.209 5.237l-.718 2.873c-4.837 19.419-22.274 33.048-42.284 33.048-20.083 0-37.566-13.719-42.33-33.229l-.982-4.018c-3.009-12.31-4.537-24.938-4.537-37.611v-3.973c0-18.047 14.637-32.684 32.684-32.684h30.184c18.046-.002 32.674 14.635 32.674 32.682z" fill="#fc8b96"/><path d="m250.988 63.58h-23.53c18.693 1.453 34.961 8.025 36.102 32.684.3 15.426-1.414 30.888-5.409 45.785-4.391 18.368-17.969 28.778-33.083 31.666 3.5.903 7.156 1.382 10.902 1.382 20.01 0 37.448-13.628 42.284-33.048l.718-2.873c.436-1.736.836-3.482 1.209-5.237 2.318-10.846 3.482-21.919 3.482-33.029v-4.646c0-18.047-14.628-32.684-32.675-32.684z" fill="#fe646f"/><path d="m283.663 96.264v4.646c0 11.11-1.164 22.183-3.482 33.029h-24.592c-3.664 0-7.3-.264-10.892-.773-14.919-2.118-28.975-8.555-40.384-18.628l-16.192-14.301v-3.973c0-18.047 14.637-32.684 32.684-32.684h30.184c18.046 0 32.674 14.637 32.674 32.684z" fill="#fc8b96"/><path d="m250.988 63.58h-23.518c18.689 1.459 34.96 8.043 36.091 32.684.202 12.635-.794 25.337-3.482 37.675h20.103c2.318-10.846 3.482-21.919 3.482-33.029v-4.646c-.001-18.047-14.629-32.684-32.676-32.684z" fill="#fe646f"/><path d="m346.588 127.146 25.355-4.66c6.938-1.275 12.261 6.054 8.902 12.257l-22.233 41.058c-3.146 5.81-5.605 11.968-7.326 18.347l-7.397 27.415c-8.726 32.338-38.057 54.803-71.551 54.803h-32.61c-33.482 0-62.805-22.449-71.542-54.77l-7.172-26.53c-1.888-6.984-4.659-13.699-8.247-19.982l-21.521-37.692c-3.745-6.559 2.398-14.342 9.647-12.224l62.666 32.907c20.495 10.762 44.76 11.667 66 2.46z" fill="#fe646f"/><g><path d="m371.942 122.486-12.653 2.326c2.445 2.463 3.377 6.379 1.453 9.932l-22.232 41.058c-6.3 10.914-11.302 33.507-14.723 45.763-9.874 36.904-38.718 51.503-71.391 54.803h19.943c33.494 0 62.825-22.466 71.551-54.803l7.397-27.415c1.721-6.379 4.18-12.537 7.326-18.347l22.233-41.058c3.357-6.204-1.966-13.534-8.904-12.259z" fill="#fd4755"/></g></g><g><path d="m243.511 386.694c4.208-6.108 7.6-12.72 10.079-19.649 1.396-3.9-.635-8.193-4.535-9.588-3.901-1.396-8.192.635-9.588 4.535-1.812 5.235-5.759 12.843-9.889 18.484-7.789 11.314-13.403 23.763-16.726 36.844l-3.078-3.737c-7.362-8.939-18.226-14.065-29.806-14.065h-7.025c-11.58 0-22.444 5.126-29.806 14.066l-5.89 7.153c-6.29 7.636-6.29 18.72 0 26.356l5.891 7.152c7.362 8.939 18.226 14.066 29.806 14.066h7.025c11.341 0 21.986-4.927 29.336-13.528v49.736c0 4.142 3.358 7.5 7.5 7.5s7.5-3.358 7.5-7.5v-58.86c-.151-20.514 6.893-42.012 19.206-58.965zm-45.316 58.015c0 .001 0 .001 0 0-4.502 5.467-11.145 8.602-18.227 8.602h-7.025c-7.082 0-13.725-3.135-18.227-8.602l-5.891-7.153c-1.738-2.11-1.738-5.174 0-7.285l5.891-7.153c4.501-5.466 11.145-8.602 18.227-8.602h7.025c7.082 0 13.725 3.135 18.227 8.601l8.891 10.796z"/><path d="m386.322 121.403c-3.417-4.974-11.398-7.845-18.25-5.831 2.526-5.816 3.517-12.334 2.602-18.923l-5.63-40.59c-2.158-15.564-14.54-27.969-30.114-30.167l-23.797-3.349c-12.271-1.731-24.64-.467-36.148 3.535l-20.78-17.856c-10.459-8.991-25.17-10.771-37.481-4.532l-59.988 30.419c-21.145 10.715-32.681 34.434-28.055 57.68.577 2.833 4.241 6.808 8.82 5.892 4.062-.809 6.7-4.757 5.892-8.82-3.318-16.674 4.957-33.687 20.125-41.374l59.989-30.419c6.871-3.482 15.083-2.49 20.921 2.529l15.694 13.485c.108-.245-33.888 22.65-34.447 22.996-22.881-2.361-45.209 15.837-45.053 40.184-.271 13.574 1.346 29.829 4.867 43.852l-41.109-21.587c-12.588-5.749-27.26 9.54-19.647 22.583l21.521 37.692c6.418 9.937 11.397 33.363 14.691 44.751 9.6 35.512 41.996 60.313 78.782 60.313h3.818l-.002 32.429-8.403-5.558c-3.455-2.286-8.108-1.337-10.393 2.118s-1.337 8.108 2.118 10.393l19.977 13.214c4.078 3.103 11.995.123 11.7-6.292l.003-46.304c1.578-.015 13.609.031 14.72-.02v54.521c.158 20.506-6.904 41.987-19.206 58.965-9.835 14.276-15.034 30.986-15.034 48.325v58.86c0 4.142 3.358 7.5 7.5 7.5s7.5-3.358 7.5-7.5v-39.325l15.557-8.763c3.609-2.033 4.887-6.606 2.854-10.215s-6.607-4.887-10.216-2.854l-8.196 4.616c-.52-14.054 3.97-30.069 12.397-42.149 8.955-12.332 16.268-28.538 19.388-43.847 6.742 9.508 19.328 16.603 31.784 16.469h7.025c11.58 0 22.444-5.127 29.807-14.066l5.891-7.153c6.287-7.636 6.287-18.719 0-26.355l-5.892-7.154c-7.361-8.939-18.226-14.066-29.806-14.066h-7.025c-11.337 0-21.979 4.925-29.329 13.52v-40.895c29.93-5.977 54.69-28.469 62.864-58.763 3.54-12.005 7.664-32.828 14.078-44.145l22.233-41.058c2.943-5.433 2.514-11.912-1.117-16.911zm-86.955 211.855c4.503-5.467 11.146-8.602 18.227-8.602h7.025c7.081 0 13.725 3.135 18.227 8.602l5.891 7.153c1.738 2.11 1.738 5.174 0 7.285l-5.89 7.153c-4.503 5.467-11.146 8.602-18.228 8.602h-7.025c-11.572.951-20.898-11.33-27.117-19.397zm-33.696-285.928c12.759-8.552 28.159-12.08 43.369-9.934l23.797 3.349c8.972 1.267 16.106 8.411 17.35 17.374l5.63 40.592c1.262 9.083-3.745 17.941-12.177 21.541-.003.001-.006.003-.009.005-.008.003-.017.006-.025.009l-58.581 25.393c4.451-16.889 8.381-39.551 4.872-59.436 10.543 1.848 21.094 9.395 25.888 19.883 1.355 2.514 3.938 3.942 6.608 3.942 1.201 0 2.42-.29 3.552-.899 3.646-1.966 5.009-6.515 3.043-10.161-10.343-22.102-31.132-26.705-49.412-30.924-6.844-6.653-15.834-11.445-27.018-11.943zm-19.921 78.41c-19.515-1.839-36.622-16.049-50.125-28.882-.205-14.929 12.516-27.031 28.091-25.778 5.084 7.807 9.862 18.327 11.894 28.485.829 4.058 4.795 6.677 8.85 5.847 4.058-.829 6.676-4.791 5.847-8.85-1.824-8.93-4.92-17.482-9.218-25.482 19.186-1.995 33.416 6.297 35.042 23.89.107 10.017.036 18.429-2.152 31.469-8.252-.164-19.487.509-28.229-.699zm-44.828 14.353c-1.657-6.429-3.315-14.321-4.266-22.312 19.583 19.394 47.083 25.384 73.981 23.658-1.421 4.958-3.901 9.574-7.256 13.496-18.307 7.062-40.414 5.488-58.081-4.416-1.998-3.218-3.471-6.719-4.378-10.426zm173.328-8.92-22.232 41.058c-6.571 10.821-11.881 35.123-15.371 47.38-7.825 29.002-34.271 49.257-64.31 49.257h-32.61c-30.025 0-56.467-20.243-64.302-49.228-4.069-14.198-8.225-35.162-16.146-48.274l-21.521-37.692c.074.056-.402-.873.62-1.354 25.751 11.762 70.536 43.362 99.762 42.062-11.365 11.721-23.057 29.072-28.649 53.709-.917 4.04 1.615 8.057 5.654 8.974 3.13.718 7.502-.98 8.974-5.654 10.712-47.196 46.806-63.294 48.384-63.977.003-.001.006-.003.009-.004.009-.004.019-.008.028-.012l76.245-33.049 24.514-4.505c-.097.079 1.376-.041.951 1.309z"/></g></g></svg>