<svg id="Capa_1" enable-background="new 0 0 512 512" height="512" viewBox="0 0 512 512" width="512" xmlns="http://www.w3.org/2000/svg"><g><g><path d="m53.03 209.121 17.416 11.671c9.64 6.46 75.488 36.346 114.347 53.794 16.798 7.542 26.414 25.439 23.434 43.61-7.13 43.463-19.198 101.465-19.198 113.174v20.964c0 28.811 23.356 52.167 52.167 52.167h29.61c28.811 0 52.167-23.356 52.167-52.167v-20.964c0-11.751-11.04-68.457-17.508-110.791-2.69-17.608 6.406-34.908 22.438-42.672 38.055-18.429 103.924-50.595 113.652-57.115l17.416-11.671c23.934-16.039 30.334-48.443 14.295-72.376l-16.484-24.598c-16.039-23.934-48.443-30.334-72.377-14.296l-17.416 11.671c-8.921 5.978-51.869 47.782-81.139 76.611-15.597 15.362-40.56 15.587-56.442.52-30.404-28.844-75.423-71.117-84.398-77.131l-17.416-11.671c-23.934-16.039-56.338-9.638-72.377 14.296l-16.484 24.598c-16.037 23.933-9.637 56.337 14.297 72.376z" fill="#c2bce0"/><g fill="#aca6d6"><path d="m129.183 109.518c74.669 64.601 93.419 95.117 119.649 87.376-7.065-1.512-13.812-4.917-19.423-10.241-30.404-28.844-75.423-71.117-84.398-77.131l-17.416-11.671c-11.784-7.897-25.62-10.343-38.547-7.946 13.932 2.117 27.966 9.327 40.135 19.613z"/><path d="m473.266 136.744-16.484-24.598c-11.428-17.054-31.166-25.196-50.227-22.671 19.412 3.457 35.548 20.3 50.886 47.271 42.807 76.282-78.608 102.428-145.365 141.16-16.032 7.764-25.128 25.063-22.438 42.672 6.467 42.334 17.508 99.04 17.505 110.791 4.049 36.727-10.863 71.997-52.164 73.129-.012.001-.023.002-.035.003h15.861c28.811 0 52.167-23.356 52.167-52.167v-20.964c0-11.751-11.04-68.457-17.508-110.791-2.69-17.608 6.406-34.908 22.438-42.672 38.055-18.429 103.924-50.595 113.652-57.115l17.416-11.671c23.934-16.039 30.334-48.443 14.296-72.377z"/></g><path d="m98.602 116.311c4.911 0 9.682 1.458 13.798 4.216l17.333 11.615c1.833 1.312 14.027 10.881 80.89 74.313 12.674 12.025 29.274 18.647 46.741 18.647 17.941 0 34.861-6.933 47.642-19.521 63.23-62.278 75.4-72.073 77.304-73.466l17.291-11.587c4.116-2.758 8.887-4.216 13.799-4.216 8.338 0 16.079 4.124 20.708 11.03l16.483 24.598c3.699 5.519 5.026 12.147 3.739 18.665-1.287 6.517-5.035 12.143-10.554 15.841l-17.416 11.671c-1.758 1.143-15.534 9.305-110.354 55.224-26.969 13.059-42.049 41.737-37.523 71.36 16.043 105.018 17.142 104.405 17.195 106.731v20.903c0 13.714-11.157 24.871-24.871 24.871h-29.611c-13.714 0-24.871-11.157-24.871-24.871v-20.864c.076-2.446 1.368-2.37 18.838-108.855 4.978-30.345-11.137-60.335-39.19-72.93-93.757-42.097-108.381-50.353-110.421-51.628l-17.327-11.611c-11.392-7.634-14.449-23.114-6.815-34.506l16.484-24.598c4.628-6.908 12.37-11.032 20.708-11.032z" fill="#8379c1"/><g fill="#6e61b6"><path d="m91.572 120.527c35.837 24.814 10.663 4.619 98.225 85.928 15.017 14.806 36.585 20.714 56.853 17.789-13.459-2.134-25.979-8.255-36.028-17.789-66.862-63.432-79.057-73.001-80.89-74.313l-17.333-11.615c-4.116-2.758-8.887-4.216-13.798-4.216-3.677 0-7.237.804-10.465 2.293 1.185.548 2.335 1.185 3.436 1.923z"/><path d="m450.59 151.94-16.483-24.598c-4.629-6.907-12.37-11.03-20.708-11.03-3.692 0-7.304.825-10.618 2.405 3.579 1.783 7.053 4.622 10.499 8.623 5.52 11.129 24.886 29.236 20.221 43.265-1.176 12.951-18.901 20.835-27.969 27.512-1.758 1.143-15.534 9.305-110.354 55.224-26.969 13.059-42.049 41.737-37.523 71.36 16.043 105.018 17.142 104.405 17.195 106.731v20.903c-.628 18.756-13.468 23.744-28.098 24.871h24.054c13.714 0 24.871-11.157 24.871-24.871v-20.905c-.053-2.325-1.152-1.713-17.195-106.731-4.526-29.623 10.554-58.301 37.523-71.36 94.82-45.919 108.596-54.081 110.354-55.224l17.416-11.671c5.518-3.698 9.266-9.323 10.554-15.841 1.287-6.516-.04-13.145-3.739-18.663z"/></g><path d="m458.97 302.879-17.416-11.671c-9.64-6.46-75.488-36.346-114.347-53.794-16.798-7.542-26.414-25.439-23.434-43.61 7.13-43.463 19.198-101.465 19.198-113.174v-20.963c0-28.811-23.356-52.167-52.167-52.167h-29.61c-28.811 0-52.167 23.356-52.167 52.167v20.964c0 11.751 11.04 68.457 17.508 110.791 2.69 17.608-6.406 34.908-22.438 42.672-38.055 18.429-103.924 50.595-113.652 57.115l-17.415 11.67c-23.934 16.039-30.334 48.443-14.295 72.376l16.484 24.598c16.039 23.934 48.443 30.334 72.377 14.296l17.416-11.671c8.921-5.978 51.869-47.782 81.139-76.611 15.597-15.362 40.56-15.587 56.442-.52 30.404 28.844 75.423 71.117 84.398 77.131l17.416 11.671c23.934 16.039 56.338 9.638 72.377-14.296l16.484-24.598c16.036-23.933 9.636-56.337-14.298-72.376z" fill="#c2bce0"/><g fill="#aca6d6"><path d="m129.184 402.477c-14.386 11.206-27.197 17.64-38.838 19.842 12.551 2.003 25.858-.537 37.249-8.17l17.416-11.671c8.921-5.978 51.869-47.782 81.139-76.611 5.858-5.77 13.038-9.404 20.561-10.894-24.872-7.001-45.011 20.911-117.527 87.504z"/><path d="m458.97 302.879-17.416-11.671c-9.64-6.46-75.487-36.346-114.347-53.794-16.798-7.542-26.414-25.439-23.434-43.61 7.13-43.463 19.198-101.465 19.198-113.174v-20.963c0-28.811-23.356-52.167-52.167-52.167h-16.977c28.416 2.928 51.691 16.274 53.316 52.167 1.987 34.253-9.482 72.917-19.198 134.138-2.981 18.171 6.636 36.068 23.435 43.61 54.8 25.33 105.357 45.509 131.762 65.465 38.253 27.953 22.512 66.177-2.188 96.972-9.91 14.055-22.285 20.965-35.379 22.534 19.362 2.941 39.581-5.186 51.206-22.532l16.484-24.598c16.039-23.934 9.639-56.338-14.295-72.377z"/></g><path d="m413.398 395.689c-4.911 0-9.682-1.458-13.798-4.216l-17.333-11.615c-1.833-1.312-14.027-10.881-80.89-74.313-12.674-12.025-29.274-18.647-46.741-18.647-17.941 0-34.861 6.933-47.642 19.521-63.23 62.278-75.4 72.073-77.304 73.466l-17.29 11.588c-4.116 2.758-8.887 4.216-13.799 4.216-8.338 0-16.079-4.124-20.708-11.03l-16.483-24.599c-3.699-5.519-5.026-12.147-3.739-18.665 1.287-6.517 5.035-12.143 10.554-15.841l17.416-11.671c1.758-1.143 15.534-9.305 110.354-55.224 26.969-13.059 42.049-41.737 37.524-71.36-16.043-105.016-17.142-104.404-17.195-106.729v-20.903c0-13.714 11.157-24.871 24.871-24.871h29.611c13.714 0 24.871 11.157 24.871 24.871v20.864c-.076 2.446-1.368 2.37-18.838 108.855-4.978 30.345 11.137 60.335 39.19 72.93 93.757 42.097 108.381 50.353 110.421 51.628l17.327 11.611c11.392 7.634 14.449 23.114 6.815 34.506l-16.484 24.598c-4.63 6.906-12.372 11.03-20.71 11.03z" fill="#978ecb"/><g fill="#8379c1"><path d="m443.775 325.555-17.327-11.611c-2.04-1.275-16.665-9.531-110.421-51.628-28.053-12.595-44.168-42.585-39.19-72.93 17.47-106.485 18.763-106.409 18.838-108.855v-20.864c0-13.714-11.157-24.871-24.871-24.871h-22.832c.679.005 1.348.006 2.005.001 26.58 1.372 25.687 25.568 24.869 45.734-.074 2.446-1.367 2.369-18.837 108.855-4.978 30.345 11.137 60.335 39.19 72.93 101.464 48.706 153.901 58.757 134.565 97.743-7.299 8.79-14.817 26.956-26.597 33.394 3.209 1.464 6.681 2.236 10.231 2.236 8.338 0 16.08-4.124 20.708-11.03l16.484-24.598c7.634-11.393 4.577-26.872-6.815-34.506z"/><path d="m186.168 306.42c-46.992 44.205-75.944 78.058-98.175 86.906 3.267 1.532 6.877 2.364 10.608 2.364 4.911 0 9.682-1.458 13.799-4.216l17.291-11.587c1.904-1.393 14.074-11.188 77.304-73.466 10.189-10.035 23.012-16.462 36.882-18.662-20.674-2.966-42.685 3.264-57.709 18.661z"/></g><path d="m280.5 224.8v36.27c0 14.266-11.564 25.83-25.83 25.83h-.03c-14.266 0-25.83-11.564-25.83-25.83v-36.59l8.942 6.218c10.177 7.076 23.666 7.133 33.902.143z" fill="#eaf6ff"/><g><path d="m271.654 230.841c-3.675 2.51-7.772 4.095-11.982 4.79v25.44c0 10.565-6.346 19.643-15.431 23.644 3.182 1.402 6.698 2.186 10.399 2.186h.03c14.266 0 25.83-11.564 25.83-25.83v-36.271z" fill="#c8effe"/></g></g><g><path d="m463.146 296.648-17.416-11.67c-7.914-5.303-48.982-24.353-89.688-42.79 60.663-29.688 72.248-36.387 74.387-37.769.035-.022.07-.046.104-.068l17.427-11.675c13.892-8.958 19.107-30.045 8.86-44.91l-16.48-24.602c-6.023-8.989-16.094-14.355-26.941-14.355-11.47-1.063-26.53 11.47-35.538 17.262-2.442 1.799-14.173 11.474-65.483 61.745 1.143-6.736 2.373-13.698 3.642-20.745 41.182-40.072 52.241-49.374 55.143-51.321l17.422-11.672c9.91-6.641 21.811-9.028 33.514-6.714 11.704 2.312 21.807 9.046 28.451 18.962l16.487 24.586c13.703 20.464 8.21 48.267-12.242 61.976l-17.422 11.672c-2.347 1.573-10.334 6.053-35.058 18.459-3.702 1.857-5.197 6.364-3.34 10.066 1.697 2.673 5.411 5.514 10.067 3.34 30.755-15.433 35.217-18.423 36.681-19.404l17.422-11.672c27.321-18.312 34.658-55.449 16.353-82.786l-16.488-24.588c-8.873-13.242-22.369-22.237-38.003-25.326-15.631-3.088-31.535.097-44.771 8.969l-17.424 11.673c-1.952 1.309-7.392 4.957-42.153 38.411.023-.124.046-.248.069-.372 6.041-32.778 9.744-53.246 9.744-60.699v-20.964c0-32.9-26.766-59.667-59.667-59.667h-29.61c-32.9 0-59.667 26.767-59.667 59.667v20.964c0 7.395 3.343 27.252 8.805 59.004-34-31.555-39.262-35.082-41.149-36.347l-17.418-11.668c-5.907-3.96-12.378-6.805-19.235-8.456-4.029-.968-8.078 1.509-9.047 5.536s1.509 8.078 5.536 9.048c5.125 1.233 9.968 3.364 14.397 6.333l17.418 11.669c2.828 1.896 13.593 10.732 53.668 48.289 1.141 6.771 2.246 13.46 3.279 19.949-50.479-47.579-61.473-56.373-63.704-57.96-.057-.041-.115-.081-.173-.12l-17.33-11.608c-13.268-9.493-35.46-6.102-44.916 8.866l-16.48 24.6c-9.934 14.828-5.952 34.977 8.875 44.914l17.32 11.609c.068.046.137.091.207.135 2.272 1.416 14.187 8.013 73.943 35.214-4.78 2.331-9.565 4.669-14.302 6.99-51.312-23.479-63.768-30.173-66.598-32.07l-17.419-11.668c-20.454-13.711-25.946-41.514-12.247-61.974l16.492-24.592c4.496-6.711 10.707-12.072 17.961-15.505 3.745-1.771 5.344-6.242 3.573-9.986-1.771-3.745-6.243-5.344-9.987-3.572-9.703 4.59-18.005 11.753-24.007 20.712l-16.493 24.594c-18.302 27.333-10.965 64.47 16.357 82.784l17.419 11.669c1.986 1.331 7.705 5.163 57.592 28.146-28.165 13.915-51.783 25.916-57.596 29.812l-17.416 11.67c-27.331 18.315-34.666 55.452-16.351 82.782l16.483 24.598c18.316 27.331 55.451 34.666 82.783 16.352l17.416-11.671c4.944-3.313 19.085-16.201 42.161-38.414-5.828 31.395-9.903 54.384-9.817 61.075v20.96c0 32.902 26.764 59.67 59.66 59.67h29.62c32.896 0 59.66-26.768 59.66-59.67v-20.96c0-7.396-3.342-27.253-8.803-58.996 22.583 20.954 36.379 33.14 41.147 36.335l17.416 11.671c10.176 6.818 21.708 10.082 33.125 10.082 19.248 0 38.161-9.278 49.657-26.434l16.484-24.598c18.317-27.329 10.982-64.466-16.348-82.782zm-76.502-158.414c6.684-3.746 18.132-14.536 26.756-14.425 5.834 0 11.247 2.88 14.479 7.704l3.806 5.682-68.661 47.22c-3.413 2.348-4.277 7.017-1.93 10.43 1.455 2.114 3.8 3.251 6.187 3.251 1.465 0 2.945-.429 4.243-1.321l68.51-47.116 4.326 6.458c4.615 6.562 3.716 18.679-4.755 24.103l-17.358 11.629c-1.155.735-11.901 7.191-83.967 42.323-10.426-3.545-23.626-12.436-26.318-24.919 60.994-60.041 73.082-69.803 74.682-71.019zm-297.038 53.515-17.2-11.529c-7.958-5.334-10.096-16.147-4.765-24.105l4.324-6.455 68.508 47.115c1.298.893 2.778 1.321 4.243 1.321 2.386 0 4.732-1.137 6.187-3.251 2.347-3.413 1.483-8.082-1.93-10.43l-68.659-47.219 3.806-5.682c4.862-7.077 15.432-10.41 24.104-4.753l17.228 11.54c1.318.961 12.231 9.427 73.128 67.077-2.264 9.402-8.597 17.531-17.752 21.965-2.566 1.242-5.166 2.503-7.787 3.775-70.346-31.863-82.015-38.507-83.435-39.369zm225.864 239.621v20.96c0 24.631-20.035 44.67-44.66 44.67h-29.62c-24.625 0-44.66-20.039-44.66-44.67v-20.96c0-6.445 12.063-71.899 13.362-79.058 6.655-6.492 13.823-13.52 21.52-21.101 10.857-10.694 27.07-12.434 39.689-5.148 8.097 53.005 13.749 88.037 16.8 104.121.543.282.181 21.665.279 22.146 0 9.578-7.792 17.37-17.37 17.37h-7.335v-84.562c0-4.143-3.358-7.5-7.5-7.5s-7.5 3.357-7.5 7.5v84.562h-7.285c-9.578 0-17.37-7.792-17.37-17.37.25-4.646-.518-18.542.332-22.242.977-4.821 3.949-19.494 12.753-72.101.684-4.086-2.074-7.952-6.159-8.636-4.087-.678-7.952 2.074-8.635 6.159-8.762 52.355-11.696 66.84-12.66 71.6-1.063 2.103-.506 22.627-.63 25.22 0 17.849 14.521 32.37 32.37 32.37h29.62c17.849 0 32.37-14.521 32.37-32.37-.275-6.677.643-19.194-.542-24.94-2.67-14.073-7.378-42.978-14.01-85.996 5.239 4.951 10.218 9.643 14.921 14.06 1.067 6.283 11.92 69.36 11.92 75.916zm151.565-60.289-16.484 24.598c-13.711 20.459-41.511 25.949-61.971 12.24l-17.416-11.671c-6.364-4.265-36.766-32.09-83.412-76.342-18.246-17.367-48.032-17.991-66.867.617-63.306 62.352-77.072 73.728-80.052 75.725l-17.415 11.671c-20.46 13.71-48.261 8.219-61.972-12.24l-16.483-24.598c-13.711-20.46-8.22-48.261 12.24-61.972l17.416-11.67c6.817-4.569 47.912-25.197 112.746-56.596 19.106-9.252 29.789-29.568 26.583-50.555-2.523-16.519-17.421-103.113-17.421-109.658v-20.963c0-24.63 20.037-44.667 44.667-44.667h29.61c24.629 0 44.667 20.037 44.667 44.667v20.964c0 6.461-17.501 102.219-19.099 111.96-3.59 19.784 7.711 43.1 27.762 51.666 65.249 29.296 106.525 48.68 113.245 53.183l17.415 11.67c20.461 13.71 25.952 41.511 12.241 61.971z"/><path d="m447.95 319.324c-.344-.226-16.902-11.336-17.526-11.74-2.829-1.769-19.217-10.753-111.325-52.11-24.954-11.204-39.289-37.881-34.861-64.874 8.762-53.407 14.921-88.965 18.304-105.683 1.066-2.12.509-22.639.633-25.25 0-17.85-14.521-32.371-32.371-32.371h-29.61c-17.849 0-32.371 14.521-32.371 32.371.279 6.788-.652 19.103.548 24.999 3.043 16.093 8.672 51.006 16.732 103.768 4.026 26.351-9.388 51.86-33.378 63.477-92.812 44.946-108.558 53.985-111.172 55.686-.029.019-.059.038-.088.058l-17.417 11.671c-13.909 8.945-19.11 30.051-8.87 44.911l16.483 24.6c9.25 14.232 29.986 18.91 44.912 8.868.279-.194 16.962-11.352 17.547-11.766 2.584-1.893 15.858-12.835 78.136-74.175 21.622-22.246 61.171-23.258 83.958-.776 65.73 62.357 79.141 73.148 81.686 74.97.063.046.127.09.191.133l17.332 11.613c13.262 9.489 35.458 6.098 44.912-8.868l7.876-11.753c.002-.003.005-.006.007-.009.004-.006.008-.013.012-.019l8.589-12.817c9.938-14.829 5.959-34.976-8.869-44.914zm-174.95-58.254c0 10.099-8.209 18.315-18.334 18.329-.009.001-.01-.002-.052 0-10.095-.015-18.303-8.23-18.303-18.329v-22.427c11.299 6.415 25.333 6.479 36.69.171v22.256zm-48.889-179.191c-.548-.085-.192-21.846-.287-22.212 0-9.578 7.792-17.371 17.371-17.371h7.331v84.565c0 4.143 3.358 7.5 7.5 7.5s7.5-3.357 7.5-7.5v-84.565h7.28c9.578 0 17.371 7.793 17.371 17.371-.254 4.634.525 18.427-.335 22.274-3.42 16.899-9.612 52.641-18.404 106.23-1.889 11.513-1.04 22.978 2.134 33.644-9.69 8.711-23.953 8.482-33.655-.139 3.734-11.128 4.89-23.245 3.017-35.509-8.088-52.934-13.747-88.021-16.823-104.288zm-22.379 219.196c-62.76 61.815-74.813 71.509-76.366 72.682l-17.142 11.485c-6.549 4.751-18.702 3.564-24.1-4.758l-3.807-5.681 68.658-47.218c3.413-2.348 4.277-7.017 1.93-10.43-2.347-3.412-7.017-4.276-10.43-1.93l-68.509 47.116-4.326-6.456c-4.605-6.557-3.729-18.68 4.76-24.1l17.364-11.636c1.279-.821 14.087-8.533 109.5-54.739 8.47-4.101 15.882-9.591 22.046-16.099v11.759c0 8.634 3.301 16.511 8.709 22.437-10.503 3.619-20.152 9.556-28.287 17.568zm211.666 87.114c-3.419 0-6.746-1.019-9.623-2.947l-17.221-11.539c-1.437-1.055-13.345-10.35-80.015-73.6-7.909-7.503-17.196-13.112-27.255-16.586 5.41-5.928 8.715-13.809 8.715-22.447v-10.048c6.826 7.539 15.246 13.776 24.955 18.134 93.645 42.048 107.823 50.112 109.434 51.094l17.211 11.534c7.957 5.332 10.092 16.144 4.76 24.101l-4.325 6.454-68.508-47.115c-3.413-2.347-8.083-1.482-10.43 1.93-2.347 3.413-1.483 8.082 1.93 10.43l68.657 47.217-3.807 5.681c-3.233 4.827-8.646 7.707-14.478 7.707z"/></g></g></svg>