<svg id="Capa_1" enable-background="new 0 0 512 512" height="512" viewBox="0 0 512 512" width="512" xmlns="http://www.w3.org/2000/svg"><g><g><path d="m109.891 249.846c-1.478-6.755-7.487-11.816-14.686-11.816-8.307 0-15.042 6.734-15.042 15.042 0 7.441 5.409 13.604 12.506 14.812 2.866-8.215 9.185-14.806 17.222-18.038z" fill="#883f2e"/><path d="m206.559 324.03v-41.356c-2.415.623-4.943.956-7.546.956h-6.653c-16.702 0-30.367-13.665-30.367-30.367v-3.127c0-.83.043-1.65.109-2.463h-40.971c-16.649 0-30.146 13.497-30.146 30.146v46.213h115.574z" fill="#bb5d4c"/><path d="m116 324.03v-46.213c0-16.649 13.497-30.146 30.146-30.146h-25.015c-16.649 0-30.146 13.497-30.146 30.146v46.213z" fill="#a44f3e"/><g fill="#bb5d4c"><path d="m166.794 233.813c4.616-7.188 12.167-12.333 20.932-13.69 0-.051.008-.099.008-.15 0-8.307-6.735-15.042-15.042-15.042s-15.042 6.735-15.042 15.042c0 6.214 3.769 11.546 9.144 13.84z"/><path d="m219.237 204.931c-8.307 0-15.042 6.735-15.042 15.042 0 .085.011.167.013.251 8.593 1.498 15.972 6.636 20.479 13.757 5.61-2.185 9.592-7.625 9.592-14.008 0-8.307-6.735-15.042-15.042-15.042z"/></g><g><path d="m199.013 283.629h-6.653c-16.702 0-30.367-13.665-30.367-30.368v-3.127c0-16.702 13.665-30.367 30.367-30.367h6.653c16.702 0 30.367 13.665 30.367 30.367v3.127c0 16.703-13.665 30.368-30.367 30.368z" fill="#883f2e"/></g></g><g><g><path d="m371.082 273.453 7.355 12.739c.77 1.333-.192 3-1.732 3h-16.423v34.838h24.134v-50.577z" fill="#ffbd86"/><path d="m435.832 270.453-21.747-37.666c-.77-1.333.192-3 1.732-3h9.999c1.54 0 2.502-1.667 1.732-3l-26.898-46.589c-.77-1.333.192-3 1.732-3h8.676c1.54 0 2.502-1.667 1.732-3l-38.709-67.046c-.77-1.333-2.694-1.333-3.464 0l-31.509 54.575 16.287 28.21c.77 1.333-.192 3-1.732 3h-8.676c-1.54 0-2.502 1.667-1.732 3l26.898 46.589c.77 1.333-.192 3-1.732 3h-9.999c-1.54 0-2.502 1.667-1.732 3l14.392 24.927h63.018c1.539 0 2.502-1.667 1.732-3z" fill="#00c285"/><g><path d="m355.396 189.936c.77 1.333-.192 3-1.732 3h-8.676c-1.54 0-2.502 1.667-1.732 3l12.801 22.172 21.888-37.912c.77-1.333-.192-3-1.732-3h-8.676c-1.54 0-2.502-1.667-1.732-3l23.492-40.69-15.217-26.356c-.77-1.333-2.694-1.333-3.464 0l-31.509 54.575z" fill="#07b27b"/></g></g><g><path d="m302.888 289.192h24.134v34.838h-24.134z" fill="#ffbd86"/><g><path d="m378.437 286.192-21.747-37.666c-.77-1.333.192-3 1.732-3h9.999c1.54 0 2.502-1.667 1.732-3l-26.898-46.589c-.77-1.333.192-3 1.732-3h8.676c1.54 0 2.502-1.667 1.732-3l-38.709-67.046c-.77-1.333-2.694-1.333-3.464 0l-38.709 67.046c-.77 1.333.192 3 1.732 3h8.676c1.54 0 2.502 1.667 1.732 3l-26.898 46.589c-.77 1.333.192 3 1.732 3h9.999c1.54 0 2.502 1.667 1.732 3l-21.747 37.666c-.77 1.333.192 3 1.732 3h123.501c1.541 0 2.503-1.667 1.733-3z" fill="#1ee6a6"/></g><g><path d="m285.271 286.192 21.747-37.666c.77-1.333-.192-3-1.732-3h-9.999c-1.54 0-2.502-1.667-1.732-3l26.898-46.589c.77-1.333-.192-3-1.732-3h-8.676c-1.54 0-2.502-1.667-1.732-3l23.541-40.775-15.167-26.271c-.77-1.333-2.694-1.333-3.464 0l-38.709 67.046c-.77 1.333.193 3 1.732 3h8.676c1.54 0 2.502 1.667 1.732 3l-26.898 46.589c-.77 1.333.192 3 1.732 3h9.999c1.54 0 2.502 1.667 1.732 3l-21.747 37.666c-.77 1.333.192 3 1.732 3h33.799c-1.54 0-2.502-1.667-1.732-3z" fill="#0ed290"/></g></g></g><path d="m100.546 93.577h5.637c-.016-.363-.028-.727-.028-1.094 0-13.289 10.773-24.063 24.063-24.063 5.726 0 10.981 2.003 15.112 5.342 3.34-8.972 10.627-16.018 19.747-19.042-1.689-21.708-19.826-38.801-41.968-38.801-23.257 0-42.11 18.853-42.11 42.11 0 14.953 7.8 28.076 19.547 35.548z" fill="#fbd74c"/><path d="m100.546 93.577h5.637c-.016-.363-.028-.727-.028-1.094 0-5.449 1.813-10.473 4.866-14.506-3.2-5.938-5.021-12.729-5.021-19.947 0-18.904 12.457-34.898 29.609-40.223-3.95-1.226-8.148-1.887-12.501-1.887-23.257 0-42.11 18.853-42.11 42.11.001 14.952 7.801 28.075 19.548 35.547z" fill="#fac600"/><g><path d="m216.078 93.577h-10.529c.797-2.781 1.232-5.714 1.232-8.75 0-17.518-14.201-31.719-31.719-31.719-13.626 0-25.242 8.593-29.732 20.655-4.131-3.339-9.387-5.342-15.112-5.342-13.289 0-24.063 10.773-24.063 24.063 0 .367.011.731.028 1.094h-14.794c-9.324 0-16.953 7.629-16.953 16.953s7.629 16.953 16.953 16.953h124.689c9.324 0 16.953-7.629 16.953-16.953s-7.629-16.954-16.953-16.954z" fill="#b3dafe"/></g><g><path d="m175.062 53.108c-13.626 0-25.242 8.593-29.732 20.655-4.131-3.339-9.387-5.342-15.112-5.342-13.289 0-24.063 10.773-24.063 24.063 0 .367.011.731.028 1.094h-14.341c-8.943 0-16.683 6.739-17.357 15.657-.542 7.17 3.456 13.503 9.398 16.466 2.254-6.722 8.614-11.606 16.07-11.606h10.196c2.428 0 4.513-1.743 4.918-4.137 1.947-11.519 11.824-21.02 23.714-21.02 3.875 0 7.535.918 10.777 2.546 2.395 1.203 5.267.291 6.612-2.028 5.488-9.465 15.727-15.831 27.455-15.831 9.122 0 17.339 3.856 23.125 10.021-.622-16.97-14.566-30.538-31.688-30.538z" fill="#8ac9fe"/></g><g><path d="m325.084 39.637h8.362c-.633-2.208-.979-4.537-.979-6.949 0-13.911 11.277-25.189 25.189-25.189 10.82 0 20.045 6.824 23.611 16.402 3.281-2.652 7.454-4.242 12.001-4.242 10.553 0 19.109 8.555 19.109 19.109 0 .291-.009.58-.022.869h11.748c7.405 0 13.463 6.058 13.463 13.463s-6.058 13.463-13.463 13.463h-99.017c-7.405 0-13.463-6.058-13.463-13.463s6.056-13.463 13.461-13.463z" fill="#b3dafe"/></g><g><g><path d="m337.151 59.53c1.006-6.672 7.004-11.456 13.752-11.456h2.012c2.902 0 5.165-2.459 4.981-5.355-.033-.527-.051-1.058-.051-1.594 0-11.851 8.187-21.786 19.213-24.469-5-6.046-12.753-9.731-21.351-9.083-11.454.864-21.032 9.617-22.898 20.951-.642 3.901-.355 7.655.636 11.113h-8.006c-6.869 0-12.901 5.001-13.72 11.821-.976 8.129 5.419 15.105 13.364 15.105h12.904c-.865-2.133-1.214-4.527-.836-7.033z" fill="#8ac9fe"/></g></g><g><g><path d="m76.624 324.03c0 99.671 80.799 180.47 180.47 180.47s180.47-80.799 180.47-180.47z" fill="#1e9efd"/></g><g><path d="m222.629 487.355c-61.241-28.858-103.629-91.137-103.629-163.325h-42.376c0 99.671 80.799 180.47 180.47 180.47-12.327 0-24.008-6.155-34.465-17.145z" fill="#0182fc"/></g><g><path d="m176.156 324.03c0 99.671 36.237 180.47 80.938 180.47s80.938-80.799 80.938-180.47z" fill="#1ee6a6"/></g><g><path d="m210.124 324.03h-33.968c0 99.671 36.237 180.47 80.938 180.47 5.826 0 11.507-1.385 16.984-3.993-36.546-17.402-63.954-89.797-63.954-176.477z" fill="#0ed290"/></g></g><g><path d="m241.781 22.24h19.688c4.142 0 7.5-3.358 7.5-7.5s-3.358-7.5-7.5-7.5h-19.688c-4.142 0-7.5 3.358-7.5 7.5s3.358 7.5 7.5 7.5z"/><path d="m264.906 81.973c0 4.142 3.358 7.5 7.5 7.5h19.688c4.142 0 7.5-3.358 7.5-7.5s-3.358-7.5-7.5-7.5h-19.688c-4.142 0-7.5 3.358-7.5 7.5z"/><path d="m406.938 89.028c-4.142 0-7.5 3.358-7.5 7.5s3.358 7.5 7.5 7.5h19.688c4.142 0 7.5-3.358 7.5-7.5s-3.358-7.5-7.5-7.5z"/><path d="m66.936 110.53c0 13.483 10.97 24.453 24.453 24.453h45.611c4.142 0 7.5-3.358 7.5-7.5s-3.358-7.5-7.5-7.5h-45.611c-5.212 0-9.453-4.241-9.453-9.453 0-5.213 4.241-9.454 9.453-9.454h14.793c2.047 0 4.005-.836 5.419-2.316 1.415-1.479 2.164-3.472 2.073-5.517-.011-.252-.02-.506-.02-.761 0-9.133 7.43-16.563 16.563-16.563 3.827 0 7.423 1.271 10.398 3.675 1.876 1.517 4.369 2.039 6.696 1.4 2.327-.637 4.206-2.355 5.047-4.617 3.512-9.434 12.635-15.771 22.703-15.771 13.354 0 24.219 10.864 24.219 24.219 0 2.253-.317 4.502-.942 6.685-.648 2.264-.196 4.7 1.221 6.58s3.635 2.985 5.989 2.985h10.529c5.212 0 9.453 4.241 9.453 9.454 0 5.212-4.241 9.453-9.453 9.453h-44.077c-4.142 0-7.5 3.358-7.5 7.5s3.358 7.5 7.5 7.5h44.078c13.483 0 24.453-10.97 24.453-24.453 0-13.484-10.97-24.454-24.453-24.454h-1.817c.013-.417.02-.833.02-1.25 0-21.625-17.593-39.219-39.219-39.219-1.305 0-2.597.085-3.879.214-5.454-21.467-24.933-37.4-48.075-37.4-27.355 0-49.61 22.255-49.61 49.61 0 11.025 3.633 21.206 9.742 29.448-9.488 3.364-16.304 12.425-16.304 23.052zm56.172-87.11c16.378 0 30.126 11.439 33.698 26.745-5.827 3.079-10.861 7.586-14.533 13.156-3.802-1.571-7.903-2.4-12.056-2.4-14.344 0-26.48 9.62-30.305 22.746-6.998-6.337-11.413-15.475-11.413-25.637 0-19.084 15.525-34.61 34.609-34.61z"/><path d="m325.084 74.063h45.916c4.142 0 7.5-3.358 7.5-7.5s-3.358-7.5-7.5-7.5h-45.916c-3.288 0-5.963-2.675-5.963-5.963s2.675-5.963 5.963-5.963h8.361c2.354 0 4.572-1.105 5.989-2.986 1.417-1.88 1.869-4.317 1.221-6.581-.457-1.593-.688-3.236-.688-4.882 0-9.753 7.935-17.688 17.688-17.688 7.353 0 14.017 4.629 16.582 11.519.842 2.261 2.721 3.979 5.048 4.617 2.327.639 4.819.116 6.695-1.4 2.084-1.685 4.604-2.575 7.286-2.575 6.401 0 11.609 5.208 11.609 11.608 0 .181-.007.36-.015.539-.09 2.044.659 4.037 2.074 5.515 1.415 1.479 3.373 2.315 5.419 2.315h11.748c3.288 0 5.963 2.675 5.963 5.963s-2.675 5.963-5.963 5.963h-18.101c-4.142 0-7.5 3.358-7.5 7.5s3.358 7.5 7.5 7.5h18.101c11.559 0 20.963-9.404 20.963-20.963s-9.404-20.963-20.963-20.963h-5.062c-2.955-11.474-13.389-19.977-25.772-19.977-3.078 0-6.123.541-8.992 1.571-6.046-8.446-15.94-13.732-26.62-13.732-17.841 0-32.389 14.366-32.684 32.138-11.507.061-20.85 9.441-20.85 20.962 0 11.559 9.404 20.963 20.963 20.963z"/><path d="m437.564 316.53h-45.648v-35.577h42.184c3.383 0 6.535-1.82 8.227-4.749 1.692-2.93 1.692-6.57.001-9.5 0 0 0-.001-.001-.001l-16.984-29.417h.473c3.383 0 6.536-1.82 8.228-4.75 1.691-2.93 1.691-6.57 0-9.5l-22.156-38.376c3.062-.27 5.845-2.024 7.397-4.712 1.692-2.93 1.692-6.569 0-9.501l-38.708-67.044c-1.691-2.931-4.844-4.751-8.228-4.751s-6.537 1.82-8.227 4.75l-25.014 43.325-15.926-27.585c-1.692-2.93-4.844-4.75-8.228-4.75s-6.536 1.82-8.227 4.75l-38.709 67.046c-1.691 2.93-1.691 6.57 0 9.5 1.553 2.688 4.335 4.443 7.398 4.713l-22.155 38.375c-1.692 2.93-1.693 6.57-.001 9.5s4.844 4.751 8.228 4.751h.473l-16.985 29.417c-1.691 2.93-1.69 6.57.001 9.5 1.692 2.929 4.844 4.749 8.227 4.749h42.184v19.838h-81.329v-28.526c13.415-5.832 22.822-19.206 22.822-34.742v-3.127c0-4.755-.889-9.303-2.496-13.5 4.535-4.126 7.395-10.062 7.395-16.662 0-12.43-10.112-22.542-22.542-22.542-9.724 0-18.023 6.191-21.177 14.836h-4.191c-3.154-8.645-11.454-14.836-21.177-14.836-12.43 0-22.542 10.112-22.542 22.542 0 6.401 2.688 12.179 6.988 16.285-.503 1.273-.941 2.578-1.306 3.914h-34.701c-2.399 0-4.743.235-7.018.666-4.02-6.195-10.989-10.307-18.909-10.307-12.43 0-22.542 10.112-22.542 22.542 0 8.296 4.508 15.554 11.2 19.466-.243 1.726-.378 3.487-.378 5.279v38.712h-6.861c-4.142 0-7.5 3.358-7.5 7.5 0 103.647 84.323 187.97 187.97 187.97 27.992 0 54.942-6.019 80.103-17.888 3.746-1.768 5.35-6.237 3.583-9.983-1.768-3.747-6.239-5.35-9.983-3.583-10.897 5.141-22.164 9.073-33.723 11.811 11.086-11.675 20.785-28.119 28.531-48.169h55.861c-6.74 6.981-14.054 13.411-21.862 19.166-3.334 2.458-4.045 7.153-1.587 10.487s7.153 4.046 10.487 1.587c23.221-17.115 42.477-39.673 55.687-65.234 13.656-26.425 20.874-56.22 20.874-86.163-.001-4.144-3.359-7.502-7.501-7.502zm-218.327-104.099c4.159 0 7.542 3.383 7.542 7.542 0 1.274-.32 2.473-.88 3.526-3.524-3.557-7.746-6.417-12.442-8.363 1.385-1.651 3.461-2.705 5.78-2.705zm-26.877 14.836h6.653c12.609 0 22.868 10.258 22.868 22.868v3.127c0 11.183-8.072 20.511-18.694 22.479v-8.81c3.777-.389 6.723-3.58 6.723-7.46 0-4.142-3.358-7.5-7.5-7.5h-13.446c-4.142 0-7.5 3.358-7.5 7.5 0 3.88 2.946 7.071 6.723 7.46v8.81c-10.622-1.968-18.694-11.296-18.694-22.479v-3.127c-.001-12.61 10.257-22.868 22.867-22.868zm-19.669-14.836c2.241 0 4.25.988 5.633 2.544-4.692 1.88-8.923 4.668-12.473 8.152-.446-.961-.702-2.026-.702-3.154 0-4.159 3.384-7.542 7.542-7.542zm-51.56 42.74h33.41c.998 19.996 17.579 35.958 37.819 35.958h6.653c.015 0 .031-.001.046-.001v25.402h-18.211v-13.78c0-4.142-3.358-7.5-7.5-7.5s-7.5 3.358-7.5 7.5v13.78h-36.809v-13.78c0-4.142-3.358-7.5-7.5-7.5s-7.5 3.358-7.5 7.5v13.78h-15.554v-38.712c0-12.487 10.159-22.647 22.646-22.647zm-25.927-9.641c1.643 0 3.16.534 4.401 1.43-4.109 2.875-7.618 6.547-10.304 10.793-1.023-1.287-1.639-2.912-1.639-4.68 0-4.159 3.383-7.543 7.542-7.543zm-10.92 86h84.446c.214 12.129.937 23.934 2.139 35.313h-81.37c-2.906-11.368-4.694-23.179-5.215-35.313zm35.578 97.657c-10.915-14.211-19.677-30.154-25.792-47.344h78.696c2.503 17.012 6.09 32.91 10.6 47.344zm12.941 15h55.78c7.735 20.021 17.415 36.451 28.481 48.124-32.621-7.759-61.687-24.78-84.261-48.124zm115.697 51.518c-15.293-4.587-30.164-21.199-41.795-47.132-.645-1.439-1.274-2.905-1.893-4.385h43.688zm0-66.518h-49.313c-4.839-14.474-8.61-30.418-11.224-47.344h60.537zm0-62.344h-62.521c-1.269-11.457-2.031-23.272-2.254-35.313h64.775zm123.849-247.692 29.204 50.582c-3.062.271-5.845 2.024-7.397 4.713-1.692 2.93-1.692 6.57 0 9.5l22.135 38.339h-.473c-3.383 0-6.536 1.82-8.227 4.75-1.692 2.93-1.692 6.57 0 9.5l16.984 29.417h-49.161l-7.463-12.927h.473c3.384 0 6.536-1.82 8.228-4.751s1.691-6.571 0-9.499l-22.159-38.375c3.063-.27 5.846-2.025 7.399-4.714 1.691-2.931 1.69-6.571-.001-9.499l-14.122-24.46zm4.567 177.527v19.852h-9.134v-19.838h8.923c.071 0 .14-.013.211-.014zm-114.186-14.986 16.985-29.417c1.691-2.93 1.69-6.57-.001-9.499-1.692-2.93-4.844-4.75-8.227-4.75h-.473l22.136-38.341c1.691-2.93 1.69-6.57-.001-9.5-1.553-2.688-4.335-4.442-7.397-4.712l29.204-50.583 29.204 50.583c-3.062.271-5.845 2.024-7.397 4.713-1.691 2.929-1.692 6.569 0 9.5l22.135 38.339h-.473c-3.383 0-6.536 1.82-8.228 4.75-1.691 2.93-1.691 6.57 0 9.5l16.983 29.416h-104.45zm90.052 15v19.838h-18.261v-19.838zm-33.261 0v19.838h-9.134v-19.838zm-12.039 151.88c-12.185 27.168-27.925 44.099-43.982 47.698v-52.083h45.876c-.62 1.48-1.248 2.947-1.894 4.385zm7.518-19.385h-51.5v-47.344h62.724c-2.614 16.926-6.385 32.87-11.224 47.344zm13.208-62.344h-64.708v-35.313h66.962c-.222 12.041-.985 23.856-2.254 35.313zm82.656 36.463c-4.694 9.084-10.227 17.75-16.471 25.881h-63.572c4.51-14.434 8.097-30.333 10.6-47.344h78.768c-2.6 7.306-5.709 14.466-9.325 21.463zm13.881-36.463h-81.426c1.202-11.379 1.925-23.184 2.139-35.313h84.45c-.504 12.046-2.24 23.835-5.163 35.313z"/></g></g></svg>