<svg id="Capa_1" enable-background="new 0 0 512.001 512.001" height="512" viewBox="0 0 512.001 512.001" width="512" xmlns="http://www.w3.org/2000/svg"><g><g><path d="m501.776 210.71-40.107 10.338c-3.521.908-4.378 5.521-1.419 7.634l24.656 17.574c3.143 2.245 1.082 7.205-2.735 6.542l-14.971-2.582c-16.665-2.878-33.708-2.643-50.282.714l-49.078 12.777-58.854 15.318c-3.49.898-4.409 5.409-1.561 7.613l44.363 34.31 40.709 31.484c14.053 9.389 29.728 16.094 46.23 19.758l14.839 3.296c3.776.837 3.807 6.215.041 7.093l-29.473 6.889c-3.551.827-4.511 5.419-1.592 7.603l33.157 24.799c3.123 2.327.898 7.256-2.909 6.47l-38.066-7.838c-3.868-.796-6.664 3.613-4.286 6.766l20.543 27.258c2.368 3.143-1.255 7.286-4.684 5.358l-26.146-14.665c-3.409-1.908-7.378 1.368-6.164 5.072l9.358 28.483c1.225 3.745-3.541 6.49-6.164 3.562l-22.789-25.401c-2.633-2.939-7.511-1.051-7.47 2.898l.367 38.872c.041 3.878-5.235 5.113-6.919 1.602l-17.951-37.311c-1.572-3.286-6.266-3.225-7.756.092l-12.44 27.606c-1.582 3.521-6.858 2.46-6.95-1.408l-.378-15.196c-.418-16.9-3.98-33.576-10.491-49.169l-23.972-52.578-20.492-44.934c-1.541-3.378-6.337-3.378-7.879 0l-20.492 44.934-23.972 52.578c-6.511 15.594-10.073 32.269-10.491 49.169l-.378 15.196c-.092 3.868-5.368 4.929-6.95 1.408l-12.44-27.606c-1.49-3.317-6.184-3.378-7.756-.092l-17.951 37.311c-1.684 3.511-6.96 2.276-6.919-1.602l.367-38.872c.041-3.949-4.837-5.837-7.47-2.898l-22.789 25.401c-2.623 2.929-7.389.184-6.164-3.562l9.358-28.483c1.214-3.705-2.755-6.98-6.164-5.072l-26.146 14.665c-3.429 1.929-7.052-2.215-4.684-5.358l20.543-27.258c2.378-3.154-.418-7.562-4.286-6.766l-38.067 7.838c-3.807.786-6.031-4.143-2.909-6.47l33.157-24.799c2.919-2.184 1.959-6.776-1.592-7.603l-29.473-6.889c-3.766-.878-3.735-6.256.041-7.093l14.839-3.296c16.502-3.664 32.177-10.369 46.23-19.758l40.556-31.739 44.261-34.637c2.827-2.214 1.888-6.715-1.602-7.613l-58.568-14.971-49.068-12.542c-16.573-3.358-33.616-3.592-50.282-.714l-14.971 2.582c-3.817.663-5.878-4.297-2.735-6.542l24.656-17.574c2.96-2.113 2.102-6.725-1.419-7.634l-40.106-10.338c-3.756-.97-3.582-6.378.235-7.093l38.199-7.215c3.878-.735 4.786-5.878 1.388-7.889l-29.351-17.4c-3.388-2.011-1.623-7.215 2.286-6.746l29.759 3.633c3.878.469 6.307-4.062 3.776-7.032l-19.472-22.789c-2.562-3 .796-7.358 4.347-5.644l30.728 14.839c3.551 1.725 7.338-1.878 5.807-5.511l-15.104-35.821c-1.521-3.582 2.888-6.715 5.776-4.113l30.79 27.697c2.704 2.429 7.021.592 7.144-3.041l1.01-30.249c.133-3.868 5.409-4.888 6.97-1.347l6.123 13.91c6.807 15.471 16.431 29.545 28.391 41.505l30.83 30.841 38.974 38.984c3.143 3.143 8.409.082 7.246-4.205l-15.043-55.282-12.073-44.342c-4.888-16.186-12.736-31.33-23.146-44.648l-9.369-11.971c-2.378-3.041 1.01-7.215 4.48-5.501l27.136 13.41c3.266 1.613 6.919-1.317 6.062-4.848l-9.858-40.229c-.919-3.776 3.929-6.174 6.368-3.154l24.411 30.249c2.48 3.072 7.44 1.439 7.613-2.5l1.449-34.096c.173-3.939 5.603-4.837 7.032-1.163l10.869 27.932c1.419 3.633 6.562 3.633 7.981 0l10.869-27.932c1.429-3.674 6.858-2.776 7.031 1.163l1.449 34.096c.173 3.939 5.133 5.572 7.613 2.5l24.411-30.249c2.439-3.021 7.287-.623 6.368 3.154l-9.858 40.229c-.857 3.531 2.796 6.46 6.062 4.848l27.136-13.41c3.47-1.715 6.858 2.46 4.48 5.501l-9.369 11.971c-10.409 13.318-18.257 28.463-23.146 44.648l-12.073 44.342-15.043 55.282c-1.163 4.286 4.103 7.348 7.246 4.205l38.974-38.984 30.83-30.841c11.961-11.961 21.584-26.034 28.391-41.505l6.123-13.91c1.561-3.541 6.838-2.521 6.97 1.347l1.01 30.249c.122 3.633 4.439 5.47 7.144 3.041l30.79-27.697c2.888-2.602 7.297.531 5.776 4.113l-15.104 35.821c-1.531 3.633 2.255 7.236 5.807 5.511l30.728-14.839c3.552-1.715 6.909 2.643 4.348 5.644l-19.472 22.789c-2.531 2.97-.102 7.501 3.776 7.032l29.759-3.633c3.909-.469 5.674 4.735 2.286 6.746l-29.351 17.4c-3.398 2.01-2.49 7.154 1.388 7.889l38.199 7.215c3.821.715 3.995 6.124.239 7.093z" fill="#c365af"/><g fill="#b2529f"><path d="m36.326 165.997-13.344-1.629c-1.781-.214-3.108.754-3.715 2.057 6.34.774 12.907 1.576 12.907 1.576 1.836.222 3.338-.681 4.152-2.004z"/><path d="m128.462 150.407c16.961 16.97 52.661 52.677 69.804 69.825 3.143 3.143 8.409.082 7.246-4.205-1.409-4.231-2.738-8.622-4.014-13.134l-21.64-21.646-30.83-30.841c-11.961-11.961-21.584-26.034-28.391-41.505l-6.123-13.91c-1.561-3.541-6.838-2.521-6.97 1.347l-.848 25.384c5.977 10.493 13.056 20.307 21.766 28.685z"/><path d="m292.472 116.403c-6.603 24.276-20.453 75.107-27.116 99.624-1.163 4.286 4.103 7.348 7.246 4.204l16.73-16.734 11.633-42.753 12.073-44.342c4.888-16.186 12.736-31.33 23.146-44.648l9.368-11.971c2.378-3.041-1.01-7.215-4.48-5.501l-19.424 9.599c-12.587 15.705-23.707 33.074-29.176 52.522z"/><path d="m455.167 166.089c-.962-1.479-1.044-3.523.318-5.12l19.472-22.789c2.562-3-.796-7.358-4.347-5.644l-19.546 9.439c-23.286 26.565-23.807 27.72 4.103 24.114z"/><path d="m287.308 62.845c-.857 3.531 2.796 6.46 6.062 4.848 0 0 7.679-3.795 15.151-7.487l9.211-37.59c.919-3.776-3.929-6.174-6.368-3.154l-19.28 23.89c-2.385 9.737-4.776 19.493-4.776 19.493z"/><path d="m413.507 141.865c-1.531 3.633 2.255 7.236 5.807 5.511 0 0 7.81-3.771 15.615-7.541l14.248-33.791c1.521-3.582-2.888-6.715-5.776-4.113l-21.034 18.922c-4.297 10.191-8.86 21.012-8.86 21.012z"/><path d="m384.902 126.587c.122 3.633 4.439 5.47 7.144 3.041 0 0 6.707-6.033 13.13-11.811l-.717-21.479c-.133-3.868-5.409-4.888-6.97-1.347l-6.123 13.91c-1.971 4.48-4.185 8.838-6.617 13.065.038 1.197.153 4.621.153 4.621z"/><path d="m321.853 462.997c-1.553-3.248-6.151-3.22-7.697-.017.394 3.687.647 7.393.74 11.11l.378 15.196c.092 3.868 5.368 4.929 6.95 1.408l6.266-13.905c-3.094-6.427-6.637-13.792-6.637-13.792z"/><path d="m395.198 453.977c-7.512-4.213-15.613-8.757-15.613-8.757-3.409-1.908-7.378 1.368-6.164 5.072 0 0 1.654 5.033 2.883 8.773l20.878 23.271c2.623 2.929 7.389.184 6.164-3.562z"/><path d="m410.438 427.268c-.86-1.14-1.036-2.442-.737-3.605-24.116-5.425-28.415-6.191-4.34 24.478l20.936 11.743c3.429 1.929 7.052-2.215 4.684-5.358z"/><path d="m353.826 456.935c-2.633-2.939-7.511-1.051-7.47 2.898 0 0 .064 6.734.109 11.574l13.905 28.901c1.684 3.51 6.96 2.276 6.919-1.602l-.256-27.049c-6.435-7.175-13.207-14.722-13.207-14.722z"/><path d="m455.699 421.869-33.157-24.799c-2.919-2.184-1.959-6.776 1.592-7.603l29.473-6.889c3.766-.878 3.735-6.256-.041-7.093l-14.839-3.296c-16.502-3.664-32.177-10.369-46.23-19.758l-40.709-31.484-44.363-34.31c-2.847-2.204-1.929-6.715 1.561-7.613l58.854-15.318 49.078-12.777c5.259-1.065 10.566-1.814 15.893-2.251-12.223-.867-24.495-.412-36.459 2.251-26.465 6.903-81.254 21.143-107.932 28.095-3.49.898-4.409 5.409-1.561 7.613l44.363 34.31c33.468 26.426 57.284 47.991 101.779 54.535 3.775.839 3.806 6.217.04 7.095l-29.473 6.889c-3.551.827-4.511 5.419-1.592 7.603l33.157 24.799c1.124.838 1.547 2.011 1.461 3.135l16.197 3.335c3.806.788 6.031-4.142 2.908-6.469z"/><path d="m239.373 327.409c-1.541-3.378-6.337-3.378-7.879 0-16.023 41.316-48.402 89.914-54.105 135.796l12.388 27.49c1.582 3.521 6.858 2.459 6.95-1.408l.378-15.196c.418-16.9 3.98-33.575 10.491-49.169l23.972-52.578 14.148-31.024c-3.535-7.755-6.343-13.911-6.343-13.911z"/><path d="m501.541 203.617-38.199-7.215c-3.878-.735-4.786-5.878-1.388-7.889l29.351-17.4c3.388-2.01 1.623-7.215-2.286-6.746l-16.851 2.057c.724 1.557.416 3.594-1.429 4.688l-29.351 17.4c-3.398 2.01-2.49 7.154 1.388 7.889l38.199 7.215c3.817.715 3.99 6.123.235 7.093l-40.107 10.338c-3.521.908-4.378 5.521-1.419 7.634l24.656 17.574c1.349.964 1.734 2.426 1.439 3.731.474.077.948.147 1.421.229l14.971 2.582c3.817.663 5.878-4.296 2.735-6.542l-24.656-17.574c-2.96-2.113-2.102-6.725 1.419-7.634l40.107-10.338c3.756-.968 3.582-6.377-.235-7.092z"/></g><path d="m307.42 286.642 44.37 34.31c-15.54 25.71-41.14 44.67-71.36 51.39l-20.49-44.93c-.77-1.69-2.36-2.53-3.94-2.53s-3.17.84-3.94 2.53l-20.49 44.93c-6.16-1.37-12.12-3.25-17.85-5.59-.05-.02-.1-.04-.14-.06-22.42-9.18-41.19-25.45-53.52-46l44.26-34.64c2.83-2.21 1.89-6.71-1.6-7.61l-58.57-14.97v-.3c0-27.12 9.66-51.98 25.72-71.34.1-.13.21-.26.32-.39 3.01-3.6 6.24-7 9.67-10.19l38.97 38.98c.84.84 1.84 1.24 2.81 1.28.59.03 1.18-.06 1.73-.27.03-.01.04-.01.04-.01 1.92-.74 3.33-2.77 2.67-5.2l-15.04-55.29c10.77-4.75 22.44-7.84 34.68-8.94.01 0 .03 0 .04-.01 3.37-.31 6.79-.47 10.24-.47 15.99 0 31.21 3.36 44.96 9.42l-15.04 55.29c-.68 2.51.85 4.6 2.87 5.27 1.41.47 3.08.23 4.38-1.07l38.97-38.98c21.96 20.42 35.71 49.56 35.71 81.92 0 .18 0 .36-.01.54l-58.85 15.31c-3.49.9-4.41 5.41-1.57 7.62z" fill="#ffceec"/><g fill="#ffbee6"><path d="m288.79 221.302c-1.24-.05-24.57-1.1-23.43-5.27l15.04-55.29c-10.78-4.74-22.45-7.82-34.68-8.94.01 0 .03 0 .04-.01 3.37-.31 6.79-.47 10.24-.47 15.99 0 31.21 3.36 44.96 9.42l-15.04 55.29c-.68 2.51.85 4.6 2.87 5.27z"/><path d="m221.64 221.512c-4.97.75-18.85 2.58-21.42.01l-30.35-29.69c.1-.13.21-.26.32-.39 3.01-3.6 6.24-7 9.67-10.19l38.97 38.98c.84.84 1.84 1.24 2.81 1.28z"/><path d="m256 324.872v.01c-1.58 0-3.17.84-3.94 2.53l-20.49 44.93c-6.16-1.37-12.12-3.25-17.85-5.59-.05-.02-.1-.04-.14-.06l17.91-39.28c1.55-3.38 24.51-2.54 24.51-2.54z"/><path d="m308.986 279.025 58.854-15.318c.01-.174.01-.357.01-.531 0-32.361-13.747-61.508-35.709-81.929l-10.577 10.58c16.058 19.362 25.719 44.225 25.719 71.349 0 .173 0 .357-.01.531l-58.854 15.318c-3.49.898-4.409 5.409-1.561 7.613l44.363 34.31c-12.342 20.434-31.047 36.589-53.368 45.741l2.578 5.653c30.218-6.725 55.823-25.677 71.356-51.394l-44.363-34.31c-2.846-2.204-1.928-6.715 1.562-7.613z"/></g></g><g><path d="m502.933 196.248-29.817-5.632 22.017-13.052c4.577-2.717 6.578-8.132 4.866-13.169-1.71-5.035-6.593-8.105-11.888-7.472l-21.552 2.631 14.102-16.504c3.459-4.051 3.604-9.824.354-14.04-3.25-4.215-8.869-5.542-13.667-3.228l-23.045 11.129 11.78-27.937c2.055-4.843.5-10.357-3.782-13.41-4.286-3.058-10.008-2.729-13.915.791l-25.652 23.076-.78-23.351c-.18-5.227-3.892-9.568-9.027-10.559-5.133-.991-10.192 1.661-12.303 6.448l-6.124 13.911c-6.461 14.684-15.488 27.88-26.831 39.223l-61.383 61.401c11.707-39.34 24.067-112.801 55.175-142.104 3.22-4.119 3.163-9.83-.14-13.888-3.301-4.058-8.882-5.274-13.572-2.955l-20.943 10.349 8.214-33.521c1.242-5.104-1.181-10.295-5.893-12.623-4.707-2.325-10.3-1.099-13.6 2.987l-19.057 23.614-1.087-25.583c-.235-5.319-4.067-9.64-9.32-10.506-5.248-.867-10.266 1.994-12.194 6.954l-7.869 20.227-7.869-20.223c-1.929-4.961-6.944-7.824-12.195-6.955-5.253.866-9.085 5.187-9.32 10.519l-1.087 25.57-19.058-23.616c-3.298-4.084-8.891-5.311-13.598-2.985-4.711 2.328-7.134 7.52-5.89 12.636l8.211 33.509-20.943-10.35c-4.69-2.317-10.27-1.103-13.572 2.955-3.303 4.058-3.36 9.769-.138 13.891 35.055 36.613 41.606 99.795 55.173 142.1l-61.384-61.401c-14.643-13.879-25.34-34.205-32.955-53.138-2.109-4.783-7.168-7.438-12.301-6.444-5.136.99-8.848 5.332-9.027 10.566l-.78 23.343-25.647-23.072c-3.911-3.523-9.634-3.852-13.919-.796-4.282 3.053-5.837 8.567-3.789 13.395l11.787 27.953-23.048-11.13c-4.795-2.312-10.414-.985-13.664 3.229-3.251 4.216-3.105 9.989.355 14.042l14.1 16.502-21.566-2.633c-5.282-.632-10.164 2.439-11.875 7.474-1.712 5.037.289 10.452 4.869 13.17l22.014 13.051-29.804 5.63c-5.164.966-8.896 5.31-9.074 10.563-.178 5.258 3.252 9.849 8.346 11.164l33.417 8.613-19.034 13.566c-4.257 3.04-5.819 8.535-3.801 13.362 2.018 4.824 7.031 7.571 12.169 6.673 50.379-11.246 73.788 2.065 111.189 10.551 4.341 1.211 9.656-2.333 9.357-7.562 0-26.474 10.199-52.085 28.197-71.332l33.683 33.691c3.847 3.847 9.593 4.598 14.297 1.871 3.503-2.487 7.244-6.73 5.488-13.35l-15.043-55.282c-7.688-28.382-15.892-67.131-35.486-90.268l11.957 5.909c4.152 2.051 8.974 1.527 12.586-1.364s5.177-7.481 4.082-11.993l-5.738-23.414 13.539 16.776c3.106 3.85 8.15 5.335 12.849 3.793 4.699-1.545 7.875-5.735 8.093-10.687l.668-15.717 4.202 10.799c1.778 4.555 6.087 7.498 10.977 7.498s9.199-2.943 10.98-7.506l4.199-10.791.668 15.729c.217 4.939 3.394 9.13 8.092 10.675 4.699 1.542 9.742.056 12.85-3.794l13.538-16.775-5.741 23.43c-1.092 4.496.474 9.086 4.085 11.978s8.433 3.415 12.587 1.363l11.956-5.907c-9.875 12.848-18.596 29.575-23.414 45.923l-9.867 36.251c-15.876-5.635-33.703-8.01-51.658-6.288-4.123.403-7.138 4.072-6.735 8.194.403 4.123 4.074 7.132 8.194 6.735 14.131-1.505 31.845.433 46.245 5.874l-13.297 48.865c-1.425 5.252.781 10.614 5.49 13.344 4.706 2.727 10.452 1.975 14.299-1.872l33.681-33.69c16.809 17.975 26.815 41.5 28.064 66.095l-53.099 13.822c-3.855.991-6.869 3.772-8.179 7.434-1.421 3.878-.548 9.7 3.896 13.376l38.905 30.09c-13.737 19.751-34.039 34.293-57.083 40.874l-17.895-39.239c-2.429-3.783-4.132-6.391-10.763-6.92-4.691 0-8.815 2.651-10.763 6.921l-17.895 39.239c-23.157-6.61-43.533-21.256-57.273-41.151l38.877-30.424c3.572-2.799 5.213-7.297 4.284-11.739-.93-4.444-4.241-7.909-8.642-9.042-.003-.001-.006-.001-.009-.002-.001 0-.002-.001-.003-.001l-23.369-5.974c-4.011-1.022-8.098 1.396-9.124 5.409s1.396 8.098 5.409 9.124l17.137 4.381-39.191 30.67c-26.713 22.644-62.256 50.035-98.626 53.377-5.109 1.133-8.697 5.579-8.726 10.813-.028 5.233 3.51 9.718 8.601 10.904l22.751 5.318-27.616 20.655c-4.219 3.143-5.662 8.688-3.509 13.484 2.155 4.8 7.26 7.412 12.41 6.346l29.716-6.118-15.41 20.447c-3.204 4.253-2.992 10.024.516 14.033 3.506 4.008 9.197 4.983 13.828 2.378l18.935-10.62-6.78 20.638c-1.655 5.061.41 10.453 5.021 13.112 4.609 2.66 10.309 1.746 13.853-2.211l17.096-19.056-.287 30.339c-.055 5.256 3.485 9.76 8.609 10.954 3.926.959 9.937-.745 12.568-6.022l14.954-31.081 9.594 21.289c2.145 4.772 7.228 7.378 12.359 6.346 5.133-1.037 8.805-5.416 8.929-10.641-.129-20.259 1.819-42.281 10.247-61.552l41.531-91.074 41.529 91.075c6.153 14.772 9.473 30.367 9.869 46.356l.377 15.187c.125 5.233 3.796 9.612 8.93 10.649 5.135 1.031 10.215-1.573 12.356-6.338l9.597-21.297 14.95 31.073c2.275 4.743 7.442 7.221 12.572 6.03 5.124-1.194 8.665-5.698 8.609-10.947l-.287-30.346 17.091 19.049c3.549 3.967 9.248 4.879 13.858 2.218 4.612-2.659 6.677-8.052 5.019-13.122l-6.777-20.628 18.927 10.616c4.64 2.607 10.33 1.633 13.836-2.374 3.508-4.009 3.72-9.78.515-14.035l-15.409-20.445 29.711 6.117c5.155 1.065 10.259-1.544 12.414-6.345 2.153-4.797.71-10.342-3.497-13.476l-27.628-20.663 22.748-5.317c5.095-1.188 8.633-5.672 8.604-10.905-.029-5.234-3.617-9.681-8.722-10.812-25.138-4.268-51.319-14.037-70.877-31.541-3.276-2.534-7.988-1.932-10.521 1.345-2.534 3.276-1.932 7.986 1.344 10.521 16.848 14.424 38.19 25.635 60.282 30.639l-12.986 3.035c-4.515 1.05-7.911 4.52-8.863 9.054-.952 4.536.763 9.08 4.478 11.859l19.285 14.424-21.098-4.344c-4.852-1.001-9.693 1.061-12.338 5.243-2.644 4.181-2.427 9.434.551 13.383l9.463 12.557-10.097-5.663c-4.269-2.391-9.467-1.926-13.244 1.183-3.778 3.109-5.234 8.121-3.709 12.774l3.613 10.997-10.496-11.698c-3.305-3.688-8.424-4.913-13.042-3.121-4.616 1.793-7.565 6.149-7.515 11.095l.204 21.558-10.441-21.702c-2.002-4.185-6.142-6.729-10.763-6.693-4.638.056-8.7 2.718-10.597 6.94l-5.485 12.172c-.633-17.29-4.336-34.152-11.015-50.148-.031-.074-.063-.148-.097-.222l-20.288-44.493c27.841-8.536 51.995-27.262 67.207-52.392 1.89-3.014 1.413-7.569-1.771-9.908l-39.253-30.359c51.046-10.754 110.922-38.904 163.765-24.47 5.15.896 10.161-1.85 12.179-6.672 2.019-4.827.456-10.322-3.807-13.367l-19.028-13.562 33.419-8.614c5.09-1.314 8.521-5.905 8.343-11.163s-3.91-9.601-9.061-10.565zm-365.919 57.659c-27.641-7.538-62.752-17.509-91.786-11.366l10.881-7.755c3.768-2.69 5.583-7.19 4.736-11.743-.846-4.554-4.157-8.1-8.641-9.257l-23.331-6.014 21.181-4.001c4.864-.921 8.56-4.667 9.415-9.543.854-4.873-1.345-9.649-5.598-12.166l-13.527-8.02 11.494 1.403c4.859.595 9.488-1.814 11.8-6.122 2.313-4.308 1.758-9.497-1.42-13.227l-7.527-8.81 14.153 6.835c4.453 2.159 9.65 1.357 13.243-2.048 3.595-3.408 4.675-8.559 2.751-13.124l-8.372-19.855 17.912 16.113c3.444 3.093 8.231 3.887 12.491 2.072s7.004-5.815 7.16-10.443l.445-13.344c10.607 26.118 35.67 48.713 54.771 67.744-18.678 19.808-30.099 45.57-32.231 72.671zm63.758 167.902c-6.325 14.871-10.571 33.37-11.112 50.37l-5.482-12.164c-1.9-4.23-5.962-6.893-10.6-6.948-.049 0-.099-.001-.147-.001-4.577 0-8.635 2.555-10.608 6.679l-10.449 21.718.204-21.552c.051-4.951-2.899-9.308-7.515-11.101-4.62-1.793-9.738-.567-13.038 3.116l-10.5 11.703 3.615-11.002c1.523-4.648.067-9.66-3.711-12.77-3.777-3.108-8.976-3.573-13.249-1.18l-10.091 5.66 9.462-12.556c2.978-3.95 3.195-9.203.551-13.384-2.646-4.184-7.488-6.238-12.339-5.243l-21.096 4.346 19.286-14.425c3.713-2.778 5.429-7.322 4.477-11.858-.952-4.534-4.348-8.004-8.855-9.052l-12.994-3.037c38.061-8.607 57.481-29.172 81.664-47.489 15.269 21.752 37.51 37.923 62.817 45.679zm259.023-208.023c-4.482 1.157-7.793 4.703-8.639 9.257-.847 4.553.968 9.053 4.741 11.747l10.875 7.751c-35.247-6.258-63.296 4.393-91.774 11.551-2.095-27.168-13.523-53.003-32.243-72.854l25.52-25.528c12.257-12.257 22.092-26.453 29.25-42.216l.446 13.347c.156 4.625 2.899 8.626 7.16 10.44 4.26 1.815 9.047 1.021 12.496-2.076l17.907-16.109-8.373 19.857c-1.923 4.563-.843 9.714 2.752 13.122 3.593 3.405 8.791 4.209 13.228 2.055l14.167-6.842-7.534 8.817c-3.172 3.722-3.727 8.911-1.414 13.219 2.312 4.308 6.941 6.712 11.807 6.121l11.487-1.402-13.521 8.017c-4.258 2.52-6.458 7.296-5.603 12.169.855 4.876 4.551 8.622 9.418 9.544l21.177 4z"/><path d="m256 218.946c-4.142 0-7.5 3.357-7.5 7.5v25.426l-33.559-9.652c-3.982-1.146-8.136 1.154-9.281 5.135s1.154 8.136 5.135 9.281l33.249 9.562-11.638 17.356c-2.307 3.44-1.388 8.1 2.053 10.406 1.282.859 2.734 1.271 4.17 1.271 2.417 0 4.789-1.166 6.236-3.324l11.135-16.606 11.135 16.608c1.447 2.158 3.819 3.324 6.236 3.324 1.436 0 2.888-.412 4.17-1.271 3.44-2.307 4.359-6.966 2.053-10.406l-11.638-17.356 33.249-9.562c3.98-1.146 6.279-5.3 5.135-9.281-1.145-3.98-5.298-6.283-9.281-5.135l-33.559 9.652v-25.426c0-4.144-3.358-7.502-7.5-7.502z"/><path d="m327.126 382.58c-3.59 2.066-4.826 6.651-2.76 10.242l14.883 25.863c1.388 2.411 3.912 3.76 6.507 3.76 1.269 0 2.555-.322 3.734-1 3.59-2.066 4.826-6.651 2.76-10.242l-14.883-25.863c-2.066-3.591-6.651-4.826-10.241-2.76z"/><path d="m378.52 397.389c2.206 0 4.392-.969 5.873-2.829 2.58-3.241 2.043-7.959-1.197-10.539l-23.347-18.583c-3.242-2.579-7.959-2.043-10.539 1.197-2.58 3.241-2.043 7.959 1.197 10.539l23.347 18.583c1.381 1.099 3.029 1.632 4.666 1.632z"/><path d="m184.935 382.581c-3.59-2.067-8.175-.832-10.241 2.759l-14.884 25.863c-2.066 3.591-.831 8.176 2.76 10.241 1.179.679 2.465 1.001 3.734 1.001 2.596 0 5.12-1.349 6.507-3.76l14.884-25.863c2.066-3.591.831-8.176-2.76-10.241z"/><path d="m162.752 366.636c-2.58-3.241-7.298-3.777-10.539-1.197l-23.347 18.583c-3.241 2.58-3.777 7.298-1.197 10.539 1.481 1.86 3.667 2.829 5.873 2.829 1.637 0 3.286-.533 4.666-1.632l23.347-18.583c3.241-2.58 3.777-7.298 1.197-10.539z"/><path d="m119.994 207.739-28.301-6.458c-4.037-.92-8.059 1.605-8.98 5.644s1.605 8.06 5.644 8.981l28.301 6.458c.562.128 1.123.189 1.675.189 3.421 0 6.512-2.356 7.305-5.833.921-4.039-1.605-8.059-5.644-8.981z"/><path d="m134.209 180.543-21.845-15.198c-3.399-2.364-8.073-1.526-10.44 1.873-2.365 3.4-1.527 8.074 1.874 10.439l21.845 15.198c1.306.908 2.798 1.345 4.277 1.345 2.372 0 4.706-1.123 6.163-3.218 2.365-3.4 1.527-8.074-1.874-10.439z"/><path d="m418.515 201.342-28.301 7.458c-4.005 1.055-6.397 5.158-5.341 9.163.887 3.365 3.924 5.591 7.248 5.591.632 0 1.276-.081 1.916-.25l28.301-7.458c4.005-1.055 6.397-5.158 5.341-9.163-1.056-4.006-5.16-6.4-9.164-5.341z"/><path d="m408.361 166.99c-2.491-3.31-7.193-3.972-10.502-1.481l-22.845 17.198c-3.309 2.491-3.972 7.193-1.481 10.503 1.474 1.958 3.722 2.989 5.998 2.989 1.57 0 3.154-.491 4.505-1.508l22.845-17.198c3.308-2.491 3.971-7.193 1.48-10.503z"/><path d="m241.738 127.405c4.097-.609 6.925-4.424 6.316-8.521l-4.202-28.278c-.608-4.098-4.425-6.919-8.521-6.316-4.097.609-6.925 4.424-6.316 8.521l4.202 28.278c.553 3.724 3.754 6.398 7.409 6.398.367 0 .738-.027 1.112-.082z"/><path d="m273.288 127.487c3.655 0 6.856-2.675 7.409-6.398l4.201-28.278c.609-4.098-2.219-7.912-6.316-8.521-4.098-.604-7.912 2.219-8.521 6.316l-4.201 28.278c-.609 4.098 2.219 7.912 6.316 8.521.374.055.745.082 1.112.082z"/></g></g></svg>