<svg height="512pt" viewBox="0 0 512 512.00065" width="512pt" xmlns="http://www.w3.org/2000/svg"><g fill="#ff637b"><path d="m502 491.144531c0-12.976562 0-36.796875 0-67.144531h-188v65.144531l14.503906 8.285157c9.1875-3.953126 19.746094-8.429688 19.746094-8.429688l5.5 3.144531 9-5.144531 20.75 11.859375 17.25-9.859375 5.5 3.144531 9-5.144531 20.75 11.855469 17.25-9.855469 5.5 3.144531 9-5.144531s13.546875 5.789062 23.640625 10.203125zm0 0"/><path d="m488.839844 15.910156c-9.679688 4.210938-21.089844 9.089844-21.089844 9.089844l-7.75-4.429688-7.75 4.429688-18.5-10.570312-18.5 10.570312-7.75-4.429688-7.75 4.429688-18.5-10.570312-18.5 10.570312-7.75-4.429688-7.75 4.429688s-11.410156-4.878906-21.089844-9.09375l-13.160156 7.523438v66.570312h189c0-29.390625 0-52.839844 0-66.570312zm0 0"/><path d="m373 150h66v212h-66zm0 0"/></g><path d="m314 90v331h188c0-91.59375 0-239.820312 0-331zm125 270h-100v-212h100zm0 0" fill="#fff4ca"/><path d="m236 489c0-13.515625 0-36.785156 0-66h-190v65l14.722656 8.414062c9.300782-4.042968 19.527344-8.414062 19.527344-8.414062l7.375 4.214844 9.125-5.214844 18.875 10.785156 17.125-9.785156 7.375 4.214844 9.125-5.214844 18.875 10.785156 17.125-9.785156 7.375 4.214844 9.125-5.214844s11.75 5.019531 21.515625 9.277344zm0 0" fill="#7fe881"/><path d="m45 24.570312v65.429688h191c0-27.910156 0-50.464844 0-64.429688l-15.289062-8.734374c-9.144532 3.96875-18.960938 8.164062-18.960938 8.164062l-7.875-4.5-9.625 5.5-18.375-10.5-16.625 9.5-7.875-4.5-9.625 5.5-18.375-10.5-16.625 9.5-7.875-4.5-9.625 5.5s-11.570312-4.90625-21.03125-8.984375zm0 0" fill="#7fe881"/><path d="m108 150h65v210h-65zm0 0" fill="#7fe881"/><path d="m47 90v331h189c0-91.59375 0-239.820312 0-331zm126 270h-100v-212h100zm0 0" fill="#fff4ca"/><path d="m4.984375 510.652344c3.046875 1.765625 6.792969 1.796875 9.863281.09375 1.976563-1.015625 15.402344-6.863282 28.761719-12.59375l21.929687 12.53125c3.074219 1.753906 6.847657 1.753906 9.921876 0l21.289062-12.164063 21.289062 12.164063c3.074219 1.753906 6.851563 1.753906 9.925782 0l21.289062-12.164063 21.289063 12.164063c1.535156.878906 3.25 1.316406 4.960937 1.316406 1.710938 0 3.421875-.4375 4.960938-1.316406l21.925781-12.53125c13.359375 5.730468 26.789063 11.578125 28.761719 12.59375 3.074218 1.703125 6.824218 1.671875 9.867187-.09375 3.082031-1.789063 4.980469-5.085938 4.980469-8.652344v-492c0-3.566406-1.898438-6.859375-4.980469-8.648438-3.046875-1.769531-6.792969-1.800781-9.867187-.097656-1.976563 1.015625-15.402344 6.863282-28.761719 12.59375l-21.929687-12.53125c-3.074219-1.753906-6.847657-1.753906-9.921876 0l-21.289062 12.167969-21.289062-12.167969c-3.074219-1.753906-6.847657-1.753906-9.921876 0l-21.289062 12.167969-21.289062-12.167969c-3.074219-1.753906-6.847657-1.753906-9.921876 0l-21.945312 12.542969c-11.445312-4.871094-25.367188-10.847656-27.535156-11.914063-.230469-.070312-5.523438-3.851562-11.121094-.570312-3.058594 1.796875-4.9375 5.078125-4.9375 8.625v492c0 3.566406 1.898438 6.863281 4.984375 8.652344zm200.695313-32.847656c-2.882813-1.230469-6.171876-1.042969-8.890626.511718l-21.289062 12.167969-21.289062-12.167969c-1.535157-.875-3.25-1.316406-4.960938-1.316406s-3.421875.441406-4.960938 1.316406l-21.289062 12.167969-21.289062-12.167969c-3.074219-1.753906-6.847657-1.753906-9.921876 0l-21.289062 12.167969-21.289062-12.167969c-2.71875-1.554687-6.011719-1.742187-8.890626-.511718-5.78125 2.472656-13.53125 5.796874-20.320312 8.753906v-54.558594h206v54.558594c-6.789062-2.957032-14.539062-6.28125-20.320312-8.753906zm-165.332032-443.597657c2.875 1.21875 6.152344 1.023438 8.863282-.523437l21.289062-12.164063 21.289062 12.164063c3.074219 1.757812 6.847657 1.757812 9.921876 0l21.289062-12.164063 21.289062 12.164063c3.074219 1.757812 6.847657 1.757812 9.921876 0l21.289062-12.164063 21.289062 12.164063c2.71875 1.554687 6.011719 1.742187 8.890626.511718 5.78125-2.46875 13.53125-5.796874 20.320312-8.753906v54.558594h-58c-5.523438 0-10 4.476562-10 10s4.476562 10 10 10h58v312h-206v-312h58c5.523438 0 10-4.476562 10-10s-4.476562-10-10-10h-58v-54.476562c5.292969 2.28125 12.078125 5.179687 20.347656 8.683593zm0 0"/><path d="m507.019531 1.351562c-3.046875-1.769531-6.792969-1.800781-9.867187-.097656-1.976563 1.015625-15.402344 6.863282-28.761719 12.59375l-21.929687-12.53125c-3.074219-1.753906-6.847657-1.753906-9.921876 0l-21.289062 12.167969-21.289062-12.167969c-3.074219-1.753906-6.847657-1.753906-9.921876 0l-21.289062 12.167969-21.289062-12.167969c-3.074219-1.753906-6.847657-1.753906-9.921876 0l-21.929687 12.53125c-13.355469-5.730468-26.785156-11.578125-28.757813-12.59375-3.074218-1.703125-6.820312-1.671875-9.867187.097656-3.085937 1.789063-4.984375 5.082032-4.984375 8.648438v492c0 3.546875 1.878906 6.828125 4.941406 8.625 1.5625.914062 3.308594 1.375 5.058594 1.375 2.335938 0 3.890625-.691406 5.648438-1.710938l.410156-.234374c2.171875-1.066407 16.089844-7.042969 27.535156-11.910157l21.945312 12.539063c3.074219 1.753906 6.847657 1.753906 9.921876 0l21.289062-12.164063 21.289062 12.164063c3.074219 1.753906 6.847657 1.753906 9.921876 0l21.289062-12.164063 21.289062 12.164063c3.074219 1.753906 6.847657 1.753906 9.921876 0l21.929687-12.53125c13.359375 5.730468 26.785156 11.578125 28.761719 12.59375 3.070312 1.703125 6.820312 1.671875 9.863281-.09375 3.085937-1.789063 4.984375-5.085938 4.984375-8.652344v-492c0-3.566406-1.898438-6.859375-4.980469-8.648438zm-200.699219 32.84375c2.878907 1.230469 6.171876 1.042969 8.890626-.511718l21.289062-12.164063 21.289062 12.164063c3.074219 1.757812 6.847657 1.757812 9.921876 0l21.289062-12.164063 21.289062 12.164063c3.074219 1.757812 6.847657 1.757812 9.921876 0l21.289062-12.164063 21.289062 12.164063c2.722657 1.554687 6.011719 1.742187 8.890626.511718 5.78125-2.46875 13.53125-5.796874 20.320312-8.753906v54.558594h-58c-5.519531 0-10 4.476562-10 10s4.480469 10 10 10h58v312h-206v-312h58c5.519531 0 10-4.476562 10-10s-4.480469-10-10-10h-58v-54.558594c6.789062 2.957032 14.539062 6.285156 20.320312 8.753906zm165.359376 443.609376c-2.882813-1.230469-6.171876-1.042969-8.890626.511718l-21.289062 12.167969-21.289062-12.167969c-1.535157-.875-3.25-1.316406-4.960938-1.316406s-3.421875.441406-4.960938 1.316406l-21.289062 12.167969-21.289062-12.167969c-3.074219-1.753906-6.847657-1.753906-9.921876 0l-21.289062 12.167969-21.289062-12.167969c-2.710938-1.546875-5.992188-1.742187-8.863282-.523437-8.269531 3.507812-15.058594 6.40625-20.347656 8.683593v-54.476562h206v54.558594c-6.789062-2.957032-14.539062-6.28125-20.320312-8.753906zm0 0"/><path d="m63 150v212c0 5.523438 4.476562 10 10 10h100c5.523438 0 10-4.476562 10-10v-212c0-5.523438-4.476562-10-10-10h-100c-5.523438 0-10 4.476562-10 10zm20 10h80v192h-80zm0 0"/><path d="m329 150v212c0 5.523438 4.476562 10 10 10h100c5.523438 0 10-4.476562 10-10v-212c0-5.523438-4.476562-10-10-10h-100c-5.523438 0-10 4.476562-10 10zm20 10h80v192h-80zm0 0"/><path d="m133 90c0 5.523438-4.476562 10-10 10s-10-4.476562-10-10 4.476562-10 10-10 10 4.476562 10 10zm0 0"/><path d="m399 90c0 5.523438-4.476562 10-10 10s-10-4.476562-10-10 4.476562-10 10-10 10 4.476562 10 10zm0 0"/></svg>