<svg id="Capa_1" enable-background="new 0 0 512 512" height="512" viewBox="0 0 512 512" width="512" xmlns="http://www.w3.org/2000/svg"><g><g><path d="m214.583 401.668c15.692.205 30.083 5.786 41.417 14.993 11.334-9.207 25.725-14.785 41.417-14.99v-142.544c-15.694-.205-30.088-5.782-41.418-14.994 0 0 .001.001.001.001-11.334 9.207-25.725 14.788-41.417 14.993z" fill="#fff3de"/></g><g><path d="m240 407.018v-153.24c-7.822 3.338-16.403 5.232-25.417 5.349v142.541c9.014.118 17.595 2.012 25.417 5.35z" fill="#ffe5c2"/></g><g><path d="m256 416.661c-11.549-9.382-26.268-15.012-42.306-15.012h-11.535c-2.287 0-4.142 1.854-4.142 4.142v45.666c0 14.427 11.696 26.123 26.123 26.123h7.011v-8.774c-.001-21.052 9.691-39.832 24.849-52.145z" fill="#bb5d4c"/><path d="m215 451.456v-45.666c0-1.915 1.306-3.51 3.071-3.984-1.449-.093-2.905-.157-4.377-.157h-11.535c-2.287 0-4.142 1.854-4.142 4.142v45.666c0 14.427 11.696 26.123 26.123 26.123h7.011v-1.976c-9.48-3.92-16.151-13.253-16.151-24.148z" fill="#a44f3e"/><g><path d="m231.15 477.579h56.711c14.427 0 26.123-11.696 26.123-26.123v-45.666c0-2.287-1.854-4.142-4.142-4.142h-11.535c-37.09 0-67.156 30.067-67.156 67.156v8.775z" fill="#883f2e"/></g><g><path d="m256.167 477.156c0-33.918 25.15-61.948 57.817-66.495v-4.871c0-2.287-1.854-4.142-4.142-4.142h-11.535c-37.089 0-67.156 30.067-67.156 67.156v8.774h25.017v-.422z" fill="#6d3326"/></g></g><g><path d="m235.704 216.296h-37.688v38.708c0 2.287 1.854 4.142 4.142 4.142h11.535c16.039 0 30.758-5.631 42.306-15.012-8.982-7.297-16.032-16.869-20.295-27.838z" fill="#ffbd86"/><g fill="#f6a96c"><path d="m223.167 255.005v-38.708h-25.15v38.708c0 2.287 1.854 4.142 4.142 4.142h11.535c3.763 0 7.448-.324 11.042-.919-.949-.76-1.569-1.914-1.569-3.223z"/><path d="m235.704 216.296c9.742 25.07 34.088 42.85 62.602 42.85h11.535c2.287 0 4.142-1.854 4.142-4.142v-38.708z"/></g></g><g><g><g><circle cx="375.073" cy="308.014" fill="#ffbd86" r="29.235"/></g><g><path d="m371 308.014c0-11.641 6.806-21.692 16.654-26.395-3.811-1.82-8.076-2.841-12.581-2.841-16.146 0-29.235 13.089-29.235 29.235s13.089 29.235 29.235 29.235c4.505 0 8.77-1.021 12.581-2.841-9.848-4.701-16.654-14.751-16.654-26.393z" fill="#f6a96c"/></g></g><g><g><circle cx="136.927" cy="308.014" fill="#ffbd86" r="29.235"/></g><g><path d="m133 308.014c0-11.613 6.771-21.644 16.581-26.362-3.829-1.841-8.121-2.874-12.654-2.874-16.146 0-29.235 13.089-29.235 29.235s13.089 29.235 29.235 29.235c4.533 0 8.825-1.032 12.654-2.874-9.81-4.715-16.581-14.746-16.581-26.36z" fill="#f6a96c"/></g></g></g><g><g><g><circle cx="460.927" cy="364.617" fill="#ffbd86" r="29.235"/></g><g><path d="m453.529 364.617c0-12.285 7.581-22.793 18.316-27.12-3.375-1.36-7.057-2.116-10.919-2.116-16.146 0-29.235 13.089-29.235 29.235s13.089 29.235 29.235 29.235c3.861 0 7.544-.756 10.919-2.116-10.735-4.325-18.316-14.833-18.316-27.118z" fill="#f6a96c"/></g></g><g><g><circle cx="51.073" cy="364.617" fill="#ffbd86" r="29.235"/></g><g><path d="m47 364.617c0-11.642 6.806-21.692 16.654-26.395-3.811-1.82-8.076-2.841-12.581-2.841-16.146 0-29.235 13.089-29.235 29.235s13.089 29.235 29.235 29.235c4.505 0 8.77-1.021 12.581-2.841-9.848-4.701-16.654-14.751-16.654-26.393z" fill="#f6a96c"/></g></g></g><g><path d="m470.353 193.336-92.008-103.853c-65.042-73.416-179.647-73.416-244.689 0l-92.009 103.853c-7.892 8.908-1.568 22.961 10.334 22.961h296.429c1.793 0 3.516-.698 4.804-1.946l8.489-8.227c2.677-2.594 6.931-2.594 9.608 0l8.489 8.227c1.288 1.248 3.011 1.946 4.804 1.946h75.415c11.902-.001 18.226-14.053 10.334-22.961z" fill="#fe653b"/></g><g><path d="m383.701 144.865c12.404 0 23.461-5.746 30.673-14.715l-36.03-40.668c-5.295-5.977-10.923-11.458-16.822-16.461-10.363 7.086-17.167 18.996-17.167 32.498.001 21.731 17.616 39.346 39.346 39.346z" fill="#fff"/></g><g><g><path d="m88.499 193.336 92.008-103.853c26.851-30.307 62.149-48.09 98.919-53.375-52.3-7.517-107.579 10.266-145.77 53.375l-92.009 103.853c-7.892 8.908-1.568 22.961 10.333 22.961h46.852c-11.901-.001-18.225-14.053-10.333-22.961z" fill="#ef4424"/></g></g><g><path d="m121.396 153.149c21.73 0 39.346-17.616 39.346-39.346 0-14.054-7.374-26.379-18.458-33.338-2.96 2.875-5.842 5.874-8.628 9.018l-43.137 48.691c7.205 9.117 18.353 14.975 30.877 14.975z" fill="#fff"/></g><circle cx="235.54" cy="160.04" fill="#fff" r="25.54"/><circle cx="284.5" cy="88" fill="#fff" r="17.5"/><g><path d="m504.5 470.079h-36.073v-69.499c16.671-3.472 29.235-18.277 29.235-35.963 0-20.256-16.479-36.735-36.735-36.735s-36.735 16.479-36.735 36.735c0 17.686 12.564 32.491 29.235 35.963v69.499h-70.854v-126.101c16.671-3.472 29.235-18.277 29.235-35.963 0-20.256-16.479-36.735-36.735-36.735s-36.735 16.479-36.735 36.735c0 17.686 12.564 32.491 29.235 35.963v126.101h-51.735c3.563-5.335 5.645-11.74 5.645-18.623v-45.666c0-6.419-5.222-11.642-11.642-11.642h-4.925v-22.148c0-4.142-3.358-7.5-7.5-7.5s-7.5 3.358-7.5 7.5v22.623c-12.499 1.407-24.072 5.914-33.936 12.729-9.856-6.808-21.412-11.318-33.897-12.728v-128.454c12.488-1.41 24.046-5.922 33.904-12.733 9.861 6.818 21.431 11.326 33.929 12.734v70.829c0 4.142 3.358 7.5 7.5 7.5s7.5-3.358 7.5-7.5v-70.354h4.925c6.419 0 11.642-5.223 11.642-11.642v-31.208h26.927c3.763 0 7.322-1.442 10.023-4.06l8.074-7.824 8.073 7.824c2.701 2.619 6.261 4.061 10.023 4.061h75.415c8.497 0 15.942-4.813 19.429-12.562 3.487-7.748 2.153-16.512-3.481-22.872l-92.008-103.854c-32.423-36.598-79.062-57.588-127.958-57.588s-95.535 20.99-127.958 57.588l-92.008 103.853c-5.635 6.36-6.969 15.124-3.481 22.872 3.487 7.749 10.932 12.562 19.429 12.562h58.018c4.142 0 7.5-3.358 7.5-7.5s-3.358-7.5-7.5-7.5h-58.019c-3.783 0-5.358-2.846-5.75-3.718s-1.478-3.938 1.031-6.769l43.497-49.097c8.438 7.339 19.214 11.436 30.637 11.436 25.831 0 46.846-21.015 46.846-46.846 0-12.96-5.272-25.017-14.406-33.751 28.181-24.428 64.435-38.13 102.164-38.13 34.079 0 66.949 11.188 93.759 31.353-8.194 8.619-12.904 20.113-12.904 32.245 0 25.831 21.015 46.846 46.846 46.846 11.295 0 21.985-4.019 30.391-11.222l50.646 57.167c2.509 2.832 1.423 5.897 1.031 6.769-.393.872-1.967 3.718-5.75 3.718h-75.173l-8.316-8.059c-5.621-5.446-14.426-5.446-20.047 0l-8.315 8.059h-203.168c-4.142 0-7.5 3.358-7.5 7.5s3.358 7.5 7.5 7.5h45.517v31.208c0 6.419 5.222 11.642 11.642 11.642h4.925v127.502h-4.925c-6.419 0-11.642 5.223-11.642 11.642v45.666c0 6.883 2.082 13.287 5.645 18.623h-51.735v-65.08c0-4.142-3.358-7.5-7.5-7.5s-7.5 3.358-7.5 7.5v65.079h-70.854v-69.499c16.671-3.472 29.235-18.277 29.235-35.963 0-20.256-16.479-36.735-36.735-36.735s-36.735 16.479-36.735 36.735c0 17.686 12.564 32.491 29.235 35.963v69.499h-36.073c-4.142 0-7.5 3.358-7.5 7.5s3.358 7.5 7.5 7.5h497c4.142 0 7.5-3.358 7.5-7.5s-3.358-7.5-7.5-7.5zm-383.104-324.431c-7.703 0-14.982-2.734-20.702-7.65s41.045-46.262 42.308-47.59c6.494 5.973 10.24 14.371 10.24 23.395 0 17.559-14.286 31.845-31.846 31.845zm262.305-8.283c-17.56 0-31.846-14.286-31.846-31.846 0-8.588 3.462-16.718 9.468-22.652 3.982 3.646 7.793 7.509 11.407 11.589l31.424 35.47c-5.684 4.782-12.872 7.439-20.453 7.439zm-354.363 227.252c0-11.985 9.75-21.735 21.735-21.735s21.735 9.75 21.735 21.735-9.75 21.735-21.735 21.735-21.735-9.75-21.735-21.735zm277.145-140.821v27.85h-8.177c-21.207 0-39.854-11.13-50.432-27.85zm-100.966 27.85v-27.85h25.279c3.402 7.191 7.917 13.755 13.323 19.469-8.914 5.315-19.315 8.381-30.426 8.381zm18.133 218.408c-10.041-.263-18.133-8.494-18.133-18.598v-42.308h8.177c11.111 0 21.513 3.067 30.427 8.382-12.673 13.385-20.47 31.431-20.47 51.275v1.249zm82.833-18.597c0 10.269-8.354 18.623-18.623 18.623h-49.21v-1.274c0-32.895 26.762-59.657 59.657-59.657h8.177v42.308zm46.854-143.442c0-11.985 9.75-21.735 21.735-21.735s21.735 9.75 21.735 21.735-9.75 21.735-21.735 21.735-21.735-9.75-21.735-21.735zm85.854 56.602c0-11.985 9.75-21.735 21.735-21.735s21.735 9.75 21.735 21.735-9.75 21.735-21.735 21.735-21.735-9.75-21.735-21.735z"/><path d="m136.927 377.5c4.142 0 7.5-3.358 7.5-7.5v-26.022c16.671-3.472 29.235-18.277 29.235-35.963 0-20.256-16.479-36.735-36.735-36.735s-36.735 16.479-36.735 36.735c0 17.686 12.564 32.491 29.235 35.963v26.022c0 4.142 3.358 7.5 7.5 7.5zm-21.735-69.485c0-11.985 9.75-21.735 21.735-21.735s21.735 9.75 21.735 21.735-9.75 21.735-21.735 21.735-21.735-9.75-21.735-21.735z"/><path d="m238.146 291.204v16.567c0 4.142 3.358 7.5 7.5 7.5s7.5-3.358 7.5-7.5v-16.567c0-4.142-3.358-7.5-7.5-7.5s-7.5 3.358-7.5 7.5z"/><path d="m258.854 345.046v16.566c0 4.142 3.358 7.5 7.5 7.5s7.5-3.358 7.5-7.5v-16.566c0-4.142-3.358-7.5-7.5-7.5s-7.5 3.358-7.5 7.5z"/><path d="m235.54 127c-18.218 0-33.04 14.822-33.04 33.041 0 18.218 14.822 33.04 33.04 33.04 18.219 0 33.041-14.822 33.041-33.04 0-18.219-14.822-33.041-33.041-33.041zm0 51.081c-9.947 0-18.04-8.093-18.04-18.04 0-9.948 8.093-18.041 18.04-18.041 9.948 0 18.041 8.093 18.041 18.041 0 9.947-8.093 18.04-18.041 18.04z"/><path d="m309.5 88c0-13.785-11.215-25-25-25s-25 11.215-25 25 11.215 25 25 25 25-11.215 25-25zm-35 0c0-5.514 4.486-10 10-10s10 4.486 10 10-4.486 10-10 10-10-4.486-10-10z"/><circle cx="205.54" cy="83.96" r="7.5"/><circle cx="339.5" cy="170" r="7.5"/><circle cx="410.5" cy="170" r="7.5"/><circle cx="153.5" cy="179" r="7.5"/></g></g></svg>