<svg id="Capa_1" enable-background="new 0 0 512 512" height="512" viewBox="0 0 512 512" width="512" xmlns="http://www.w3.org/2000/svg"><g><path d="m499.5 90.781h-25.5v46.704c0 2.206-1.794 4-4 4h-163c-2.206 0-4-1.794-4-4v-46.704h-290.5c-2.761 0-5 2.239-5 5v325c0 2.761 2.239 5 5 5h25.667v-61c0-2.206 1.794-4 4-4h178c2.206 0 4 1.794 4 4v61h275.333c2.761 0 5-2.239 5-5v-325c0-2.761-2.239-5-5-5z" fill="#eaf6ff"/><path d="m38.167 364.781c0-1.406.733-2.64 1.833-3.353v-265.647c0-2.761 2.239-5 5-5h-32.5c-2.761 0-5 2.239-5 5v325c0 2.761 2.239 5 5 5h25.667z" fill="#d8ecfe"/><g><path d="m240.037 210.353c18.292-2.378 37.183-3.65 56.07-3.65 6.449 0 12.754.154 18.924.443-9.536-22.653-27.113-52.106-57.404-67.057-2.027-1-4.378.571-4.291 2.829.458 11.89.153 42.938-13.299 67.435z" fill="#54469c"/><path d="m240.037 210.353c8.716-1.133 17.566-2.017 26.489-2.629 9.158-18.209 11.542-39.423 11.963-53.631-6.173-5.38-13.098-10.171-20.863-14.003-2.027-1-4.378.571-4.291 2.829.459 11.889.154 42.937-13.298 67.434z" fill="#463b84"/><path d="m152.007 232.472c11.17-4.536 23.363-8.567 36.293-12.016-7.791-9.619-17.574-18.393-29.772-24.413-1.731-.854-3.739.487-3.665 2.417.252 6.524.233 19.801-2.856 34.012z" fill="#54469c"/><path d="m296.106 315.532c-5.703 0-11.34-.191-16.922-.519-5.08 9.016-12.151 16.761-20.623 22.632-1.869 1.295-1.656 4.137.384 5.14 9.045 4.45 19.218 6.957 29.98 6.957 26.792 0 49.958-15.485 61.064-37.988-16.713 2.456-34.679 3.778-53.883 3.778z" fill="#54469c"/><path d="m296.106 315.532c-5.703 0-11.34-.191-16.922-.519-5.08 9.016-12.151 16.761-20.623 22.632-1.869 1.295-1.656 4.137.384 5.14 7.256 3.569 15.237 5.885 23.666 6.663-.606-1.254-.329-2.872.959-3.764 10.794-7.48 19.316-18.001 24.337-30.321-3.881.112-7.814.169-11.801.169z" fill="#463b84"/><path d="m103.68 261.117c5.015-4.638 10.929-9.062 17.606-13.241-15.908-20.68-39.745-34.942-66.968-38.234 10.136 14.136 18.628 31.616 24.899 51.471.001.002.001.005 0 .007-6.271 19.855-14.763 37.335-24.899 51.471 28.842-3.488 53.885-19.286 69.723-41.989-7.167-3.294-13.972-6.497-20.361-9.485z" fill="#54469c"/><g><path d="m54.318 312.592c6.822-.825 13.428-2.348 19.754-4.479 8.784-13.29 16.201-29.181 21.827-46.993.001-.002.001-.005 0-.007-5.625-17.812-13.043-33.703-21.827-46.993-6.326-2.131-12.932-3.653-19.754-4.478 10.136 14.136 18.628 31.616 24.899 51.471.001.002.001.005 0 .007-6.271 19.856-14.763 37.336-24.899 51.472z" fill="#463b84"/></g><g><path d="m458.328 253.02c-35.628-27.922-90.32-46.318-162.222-46.318-78.643 0-157.386 22.006-192.426 54.415 46.32 21.664 113.783 54.415 192.426 54.415 32.178 0 60.906-3.686 86.023-10.26 13.668-3.578 27.715-5.491 41.844-5.491h8.734c4.713 0 8.843-3.501 9.257-8.196.317-3.588-1.513-6.793-4.337-8.502 7.489-4.296 14.404-8.932 20.709-13.875 5.271-4.131 5.263-12.057-.008-16.188z" fill="#8379c1"/></g><g><path d="m304.426 231.951c65.26 0 116.341 15.155 151.86 38.832.689-.522 1.375-1.046 2.05-1.575 5.271-4.131 5.263-12.058-.008-16.189-35.628-27.922-90.32-46.318-162.222-46.318-78.643 0-157.386 22.006-192.426 54.415 8.016 3.749 16.679 7.833 25.91 12.018 39.973-25.019 107.44-41.183 174.836-41.183z" fill="#6e61b6"/></g></g><g><path d="m220.167 481.781h-178c-2.761 0-5-2.239-5-5v-112c0-2.761 2.239-5 5-5h178c2.761 0 5 2.239 5 5v112c0 2.762-2.239 5-5 5z" fill="#fff3de"/></g><g><path d="m62 476.781v-112c0-2.761 2.239-5 5-5h-24.833c-2.761 0-5 2.239-5 5v112c0 2.761 2.239 5 5 5h24.833c-2.761 0-5-2.238-5-5z" fill="#ffe5c2"/></g><g><g><path d="m470 142.485h-163c-2.761 0-5-2.239-5-5v-102.266c0-2.761 2.239-5 5-5h163c2.761 0 5 2.239 5 5v102.266c0 2.761-2.239 5-5 5z" fill="#fbd74c"/></g><g><path d="m326 137.485v-102.266c0-2.761 2.239-5 5-5h-24c-2.761 0-5 2.239-5 5v102.266c0 2.761 2.239 5 5 5h24c-2.761 0-5-2.239-5-5z" fill="#fac600"/></g></g><g><path d="m504.5 325.281c4.143 0 7.5-3.358 7.5-7.5v-222c0-6.893-5.607-12.5-12.5-12.5h-17v-48.062c0-6.893-5.607-12.5-12.5-12.5h-163c-6.893 0-12.5 5.607-12.5 12.5v48.063h-282c-6.893 0-12.5 5.607-12.5 12.5v325c0 6.893 5.607 12.5 12.5 12.5h17.167v43.5c0 6.893 5.607 12.5 12.5 12.5h178c6.893 0 12.5-5.607 12.5-12.5v-43.5h266.833c6.893 0 12.5-5.607 12.5-12.5v-68c0-4.142-3.357-7.5-7.5-7.5s-7.5 3.358-7.5 7.5v65.5h-264.333v-31.5h216.833v2c0 4.142 3.357 7.5 7.5 7.5s7.5-3.358 7.5-7.5v-19c0-4.142-3.357-7.5-7.5-7.5s-7.5 3.358-7.5 7.5v2h-216.833v-7c0-6.893-5.607-12.5-12.5-12.5h-26.167c-4.142 0-7.5 3.358-7.5 7.5s3.358 7.5 7.5 7.5h23.667v107h-173v-107h114.333c4.142 0 7.5-3.358 7.5-7.5s-3.358-7.5-7.5-7.5h-116.833c-6.893 0-12.5 5.607-12.5 12.5v53.5h-14.667v-320h279.5v39.203c0 6.893 5.607 12.5 12.5 12.5h103c4.143 0 7.5-3.358 7.5-7.5s-3.357-7.5-7.5-7.5h-100.5v-97.266h158v97.266h-22.5c-4.143 0-7.5 3.358-7.5 7.5s3.357 7.5 7.5 7.5h25c6.893 0 12.5-5.607 12.5-12.5v-39.204h14.5v219.5c0 4.142 3.357 7.5 7.5 7.5z"/><path d="m469.785 261.119c0-5.497-2.49-10.601-6.831-14.002-35.268-27.64-84.304-43.783-142.82-47.215-10.382-23.13-28.635-51.458-59.189-66.538-3.332-1.646-7.188-1.417-10.313.609-3.144 2.039-4.936 5.491-4.792 9.235.383 9.906.278 37.637-10.659 60.168-15.336 2.114-30.185 4.991-44.237 8.546-7.841-8.849-17.427-16.844-29.096-22.603-3.197-1.578-6.894-1.359-9.889.583-2.967 1.925-4.727 5.315-4.591 8.849.188 4.872.269 15.989-1.933 28.266-8.065 3.437-15.588 7.142-22.464 11.089-17.239-19.718-41.321-32.711-67.753-35.908-2.956-.356-5.839 1.065-7.354 3.625-1.516 2.56-1.375 5.773.358 8.191 9.4 13.11 17.172 28.947 23.118 47.104-5.945 18.156-13.717 33.993-23.117 47.104-1.733 2.417-1.874 5.631-.358 8.191 1.36 2.298 3.825 3.679 6.452 3.679.299 0 .601-.018.902-.054 28.256-3.417 53.819-18.036 71.213-40.092 38.179 17.343 85.195 36.076 139.054 41.514-3.266 3.749-7.016 7.124-11.197 10.022-3.039 2.105-4.756 5.708-4.481 9.4.275 3.693 2.507 7.001 5.826 8.634 10.423 5.127 21.623 7.727 33.29 7.727 28.26 0 52.927-15.605 65.886-38.64 10.08-1.599 19.837-3.619 29.22-6.075 13.299-3.481 26.738-5.246 39.944-5.246h8.733c8.636 0 15.983-6.604 16.729-15.038.214-2.425-.103-4.8-.882-6.991 5.081-3.216 9.905-6.611 14.409-10.141 4.336-3.4 6.823-8.5 6.822-13.993zm-212.417-77.009c2.761-12.792 3.501-24.926 3.574-33.641 19.897 12.137 33.352 31.352 42.133 48.794-2.311-.038-4.632-.06-6.969-.06-14.737 0-29.399.742-43.748 2.15 2.005-5.349 3.682-11.093 5.01-17.243zm-94.938 22.762c4.4 2.844 8.407 6.105 12.063 9.631-4.434 1.354-8.768 2.777-12.988 4.268.577-5.101.841-9.832.925-13.899zm-92.241 94.622c6.359-11.419 11.777-24.174 16.18-38.114.082-.259.149-.522.203-.788.218-1.089.191-2.219-.079-3.296-.037-.148-.078-.294-.124-.44-4.403-13.939-9.821-26.697-16.18-38.115 15.315 4.878 29.088 13.725 39.946 25.55-4.214 3-8.076 6.11-11.547 9.321-1.833 1.695-2.703 4.192-2.318 6.66s1.971 4.582 4.233 5.64l4.246 1.988c2.484 1.164 5.027 2.354 7.605 3.556-11.17 13.079-25.79 22.823-42.165 28.038zm218.735 40.748c-6.831 0-13.459-1.11-19.789-3.309 5.495-4.734 10.209-10.205 14.084-16.194 4.259.183 8.551.293 12.888.293 13.289 0 26.198-.629 38.679-1.864-11.114 12.893-27.546 21.074-45.862 21.074zm164.785-78.936c-6.018 4.717-12.684 9.183-19.813 13.271-2.304 1.322-3.737 3.763-3.768 6.418-.031 2.656 1.345 5.13 3.617 6.504.194.118.823.568.748 1.425-.065.735-.884 1.356-1.787 1.356h-8.733c-14.487 0-29.204 1.93-43.743 5.735-25.392 6.646-53.694 10.016-84.124 10.016-71.176 0-132.522-27.208-178.467-48.662 36.882-26.938 107.718-45.168 178.467-45.168 83.092 0 131.563 24.319 157.596 44.721.942.739 1.083 1.693 1.083 2.197 0 .502-.139 1.453-1.076 2.187z"/><path d="m381.085 241.004c-3.594-2.061-8.177-.816-10.236 2.777-5.256 9.171-5.256 20.121 0 29.292 1.386 2.418 3.913 3.772 6.514 3.772 1.265 0 2.547-.321 3.723-.995 3.594-2.06 4.837-6.643 2.777-10.236-2.656-4.635-2.656-9.739 0-14.374 2.059-3.594.816-8.177-2.778-10.236z"/><path d="m359.362 233.286c-3.593-2.06-8.177-.816-10.236 2.777-8.147 14.213-8.147 30.516 0 44.729 1.386 2.418 3.913 3.772 6.514 3.772 1.265 0 2.547-.321 3.723-.995 3.594-2.06 4.837-6.643 2.777-10.236-5.43-9.473-5.43-20.338 0-29.81 2.059-3.594.816-8.177-2.778-10.237z"/><path d="m337.639 225.567c-3.594-2.061-8.177-.816-10.236 2.777-10.957 19.118-10.957 41.047 0 60.165 1.386 2.418 3.913 3.772 6.514 3.772 1.265 0 2.547-.32 3.723-.995 3.594-2.06 4.837-6.643 2.777-10.236-8.24-14.377-8.24-30.869 0-45.247 2.059-3.593.815-8.176-2.778-10.236z"/><circle cx="408.875" cy="261.673" r="7.5"/><circle cx="65.5" cy="385.281" r="7.5"/><circle cx="85.5" cy="385.281" r="7.5"/><circle cx="105.5" cy="385.281" r="7.5"/><path d="m42 132.281h74c4.142 0 7.5-3.358 7.5-7.5s-3.358-7.5-7.5-7.5h-74c-4.142 0-7.5 3.358-7.5 7.5s3.358 7.5 7.5 7.5z"/><path d="m42 158.281h74c4.142 0 7.5-3.358 7.5-7.5s-3.358-7.5-7.5-7.5h-74c-4.142 0-7.5 3.358-7.5 7.5s3.358 7.5 7.5 7.5z"/><path d="m42 184.281h42c4.142 0 7.5-3.358 7.5-7.5s-3.358-7.5-7.5-7.5h-42c-4.142 0-7.5 3.358-7.5 7.5s3.358 7.5 7.5 7.5z"/><path d="m324.761 115.425c1.448 2.155 3.818 3.318 6.232 3.318 1.438 0 2.893-.413 4.176-1.276l14.991-10.072 14.99 10.072c2.529 1.7 5.835 1.7 8.366 0l14.987-10.072 14.986 10.072c2.529 1.7 5.836 1.7 8.367 0l14.986-10.072 14.986 10.072c3.44 2.311 8.099 1.396 10.408-2.042 2.311-3.438 1.396-8.098-2.041-10.409l-19.17-12.883c-2.531-1.7-5.836-1.7-8.367 0l-14.986 10.072-14.986-10.072c-2.531-1.7-5.838-1.699-8.367 0l-14.987 10.072-14.99-10.072c-2.529-1.7-5.836-1.7-8.365 0l-19.174 12.883c-3.438 2.312-4.352 6.971-2.042 10.409z"/><path d="m330.993 81.845c1.438 0 2.893-.413 4.176-1.276l14.991-10.072 14.99 10.072c2.529 1.7 5.835 1.7 8.366 0l14.987-10.072 14.986 10.072c2.529 1.7 5.836 1.7 8.367 0l14.986-10.072 14.986 10.072c3.44 2.312 8.099 1.396 10.408-2.042 2.311-3.438 1.396-8.098-2.041-10.409l-19.17-12.883c-2.531-1.7-5.836-1.7-8.367 0l-14.986 10.072-14.986-10.072c-2.531-1.7-5.838-1.699-8.367 0l-14.987 10.072-14.99-10.072c-2.529-1.7-5.836-1.7-8.365 0l-19.174 12.883c-3.438 2.31-4.353 6.97-2.043 10.408 1.449 2.155 3.819 3.319 6.233 3.319z"/><path d="m179.167 419.281c-4.142 0-7.5 3.358-7.5 7.5v19.5h-9v-49.5c0-4.142-3.358-7.5-7.5-7.5s-7.5 3.358-7.5 7.5v49.5h-9v-35.5c0-4.142-3.358-7.5-7.5-7.5s-7.5 3.358-7.5 7.5v35.5h-9v-19.5c0-4.142-3.358-7.5-7.5-7.5s-7.5 3.358-7.5 7.5v19.5h-9v-13.5c0-4.142-3.358-7.5-7.5-7.5s-7.5 3.358-7.5 7.5v13.5h-3c-4.142 0-7.5 3.358-7.5 7.5s3.358 7.5 7.5 7.5h117c4.142 0 7.5-3.358 7.5-7.5s-3.358-7.5-7.5-7.5h-3v-19.5c0-4.142-3.358-7.5-7.5-7.5z"/></g></g></svg>