<svg id="Capa_1" enable-background="new 0 0 511.26 511.26" height="512" viewBox="0 0 511.26 511.26" width="512" xmlns="http://www.w3.org/2000/svg"><g><g><g><g><path d="m263.203 10.532-7.814-3.412-7.814 3.412c-22.84 9.972-49.659 39.633-62.29 56.424-10.542 14.013-11.513 33.081-4.854 49.303l23.555 57.379c8.559 20.85 28.865 34.464 51.403 34.464 22.538 0 42.844-13.614 51.403-34.464l23.555-57.379c6.66-16.222 5.688-35.289-4.854-49.303-12.63-16.791-39.449-46.452-62.29-56.424z" fill="#ffd15b"/><path d="m325.494 66.956c-12.631-16.791-39.45-46.452-62.29-56.424l-7.814-3.412-7.814 3.412c-1.102.481-2.215 1.021-3.334 1.59 22.063 11.227 46.935 38.853 58.957 54.834 10.542 14.013 11.513 33.081 4.854 49.303l-23.555 57.379c-7.118 17.339-22.362 29.665-40.255 33.327 3.623.742 7.353 1.136 11.148 1.136 22.538 0 42.844-13.614 51.403-34.464l23.555-57.379c6.658-16.222 5.686-35.289-4.855-49.302z" fill="#ffc344"/><path d="m263.203 500.708-7.814 3.412-7.814-3.412c-22.84-9.972-49.659-39.633-62.29-56.424-10.542-14.013-11.513-33.081-4.854-49.303l23.555-57.379c8.559-20.85 28.865-34.464 51.403-34.464 22.538 0 42.844 13.614 51.403 34.464l23.555 57.379c6.66 16.222 5.688 35.289-4.854 49.303-12.63 16.791-39.449 46.452-62.29 56.424z" fill="#ffd15b"/><path d="m330.347 394.981-23.555-57.379c-8.559-20.849-28.865-34.464-51.403-34.464-3.795 0-7.525.395-11.148 1.136 17.893 3.663 33.137 15.989 40.255 33.327l23.555 57.379c6.66 16.222 5.688 35.289-4.854 49.303-12.022 15.981-36.893 43.607-58.957 54.834 1.118.569 2.232 1.109 3.334 1.59l7.814 3.412 7.814-3.412c22.84-9.972 49.659-39.633 62.29-56.424 10.543-14.013 11.515-33.08 4.855-49.302z" fill="#ffc344"/></g><g><path d="m500.477 263.434 3.412-7.814-3.412-7.814c-9.972-22.84-39.633-49.659-56.424-62.29-14.013-10.542-33.081-11.513-49.303-4.854l-57.379 23.555c-20.85 8.559-34.464 28.865-34.464 51.403 0 22.538 13.614 42.844 34.464 51.403l57.379 23.555c16.222 6.66 35.289 5.688 49.303-4.854 16.791-12.631 46.452-39.45 56.424-62.29z" fill="#ffd15b"/><path d="m500.477 247.805c-9.972-22.84-39.633-49.659-56.424-62.29-11.274-8.481-25.818-10.757-39.52-7.859 6.166 1.379 12.042 3.961 17.224 7.859 16.791 12.631 46.452 39.45 56.424 62.29l3.412 7.814-3.412 7.814c-9.972 22.84-39.633 49.659-56.424 62.29-5.183 3.899-11.059 6.481-17.224 7.859 13.703 2.898 28.246.622 39.52-7.859 16.791-12.631 46.452-39.45 56.424-62.29l3.412-7.814z" fill="#ffc344"/><path d="m207.869 255.62c0 11.27-3.4 21.98-9.41 30.94-4.8 7.15-11.26 13.2-18.98 17.52-1.94 1.1-3.97 2.08-6.07 2.94l-57.38 23.56c-16.22 6.66-35.29 5.69-49.3-4.86-16.8-12.63-46.46-39.45-56.43-62.29l-3.41-7.81 3.41-7.81c9.97-22.84 39.63-49.66 56.43-62.29 14.01-10.55 33.08-11.52 49.3-4.86l57.38 23.56c2.1.86 4.13 1.84 6.07 2.94 17.38 9.73 28.39 28.19 28.39 48.46z" fill="#ffd15b"/><path d="m207.869 255.62c0 11.27-3.4 21.98-9.41 30.94-4.8 7.15-11.26 13.2-18.98 17.52-8.05-9.25-12.92-21.33-12.92-34.55v-27.82c0-13.22 4.87-25.3 12.92-34.55 17.38 9.73 28.39 28.19 28.39 48.46z" fill="#ffc344"/></g></g><path d="m269.303 322.158h-27.828c-29.063 0-52.624-23.56-52.624-52.624v-27.828c0-29.063 23.56-52.624 52.624-52.624h27.828c29.063 0 52.624 23.56 52.624 52.624v27.828c0 29.063-23.561 52.624-52.624 52.624z" fill="#fea95c"/><path d="m269.303 189.082h-22.296c29.063 0 52.624 23.56 52.624 52.624v27.828c0 29.063-23.561 52.624-52.624 52.624h22.296c29.063 0 52.624-23.56 52.624-52.624v-27.828c0-29.063-23.561-52.624-52.624-52.624z" fill="#fe9738"/></g><g><path d="m223.511 67.814c-3.129-2.712-7.867-2.375-10.58.754-3.51 4.049-6.759 8.057-9.657 11.912-2.489 3.312-1.822 8.013 1.488 10.502 1.351 1.016 2.933 1.505 4.501 1.505 2.277 0 4.527-1.033 6.001-2.993 2.689-3.578 5.718-7.313 9.001-11.1 2.713-3.13 2.376-7.867-.754-10.58z"/><path d="m248.356 54.465c2.501-2.071 4.853-3.869 7.029-5.374 11.86 8.222 28.332 24.711 40.145 40.424 1.475 1.961 3.724 2.993 6.001 2.993 1.568 0 3.15-.49 4.501-1.505 3.311-2.489 3.978-7.191 1.488-10.502-12.347-16.423-32.918-37.768-48.345-46.789-2.339-1.366-5.231-1.367-7.572 0-3.848 2.25-8.159 5.345-12.813 9.198-3.19 2.642-3.636 7.37-.994 10.561 2.643 3.19 7.37 3.634 10.56.994z"/><path d="m251.603 477.528c1.532.616 3.588 1.886 7.572 0 15.43-9.024 35.992-30.358 48.329-46.769 2.489-3.311 1.822-8.013-1.488-10.502-3.312-2.488-8.014-1.821-10.502 1.488-11.802 15.699-28.265 32.178-40.125 40.401-11.859-8.223-28.328-24.71-40.141-40.422-2.489-3.312-7.189-3.976-10.502-1.488-3.311 2.489-3.978 7.191-1.488 10.502 12.347 16.424 32.918 37.769 48.345 46.79z"/><path d="m510.762 252.619-3.409-7.809c-10.812-24.771-42.046-52.691-58.792-65.281-15.409-11.604-37.12-13.829-56.66-5.807l-57.382 23.56c-5.835 2.399-11.297 5.705-16.165 9.719-3.94-5.552-8.794-10.406-14.346-14.346 4.014-4.868 7.321-10.331 9.719-16.167l23.56-57.38c8.023-19.539 5.799-41.25-5.803-56.655-12.594-16.751-40.515-47.985-65.284-58.796-6.996-4.655-14.39-4.48-21.62-.001-24.771 10.812-52.691 42.046-65.281 58.792-11.605 15.41-13.83 37.121-5.807 56.66l23.56 57.382c2.399 5.836 5.705 11.297 9.719 16.165-3.654 2.593-7.013 5.575-10.001 8.899-12.955-18.341-29.714-39.689-49.946-60.574-2.881-2.975-7.629-3.051-10.605-.168-2.975 2.882-3.05 7.63-.168 10.605 14.688 15.163 27.565 30.722 38.426 45.132l-55.597-22.828c-19.538-8.024-41.25-5.799-56.655 5.803-16.751 12.594-47.984 40.515-58.796 65.284-4.655 6.996-4.48 14.39-.001 21.62 10.812 24.771 42.046 52.691 58.792 65.281 9.274 6.984 20.831 10.571 32.823 10.571 7.933 0 16.058-1.57 23.837-4.765l57.382-23.56c5.835-2.399 11.297-5.705 16.165-9.719 3.94 5.552 8.794 10.406 14.346 14.346-4.014 4.868-7.321 10.331-9.719 16.167l-23.56 57.38c-1.573 3.832.257 8.213 4.089 9.786.933.383 1.896.564 2.846.564 2.952 0 5.75-1.754 6.94-4.653l23.56-57.378c2.218-5.398 5.453-10.376 9.442-14.627 6.571 2.472 13.682 3.834 21.106 3.834h27.828c7.425 0 14.535-1.362 21.107-3.834 3.989 4.251 7.224 9.228 9.442 14.625l23.56 57.38c6.022 14.667 4.522 30.737-3.918 41.944-10.906 14.508-37.336 44.478-59.296 54.063l-4.809 2.1-4.81-2.101c-21.959-9.585-48.389-39.555-59.299-54.067-2.663-3.535-4.658-7.558-5.933-11.956-1.153-3.979-5.312-6.264-9.291-5.117-3.979 1.153-6.27 5.312-5.117 9.291 1.784 6.156 4.596 11.811 8.354 16.801 12.594 16.751 40.515 47.984 65.284 58.796 6.65 4.425 13.643 4.762 21.62.001 24.771-10.812 52.691-42.046 65.281-58.792 11.605-15.41 13.83-37.121 5.807-56.66l-23.56-57.382c-2.399-5.836-5.705-11.297-9.719-16.165 15.364-10.903 25.419-28.819 25.419-49.05v-27.828c0-7.425-1.362-14.535-3.834-21.107 4.251-3.989 9.228-7.224 14.625-9.442l57.38-23.56c14.667-6.021 30.738-4.523 41.944 3.918 14.508 10.906 44.478 37.336 54.063 59.296l2.1 4.809-2.101 4.81c-9.585 21.959-39.555 48.389-54.067 59.299-11.202 8.437-27.271 9.937-41.939 3.914l-47.851-19.647c-3.831-1.572-8.213.257-9.786 4.089s.257 8.213 4.089 9.786l47.851 19.647c7.78 3.195 15.904 4.765 23.839 4.765 11.99 0 23.546-3.586 32.816-10.567 16.751-12.594 47.984-40.515 58.796-65.284 1.399-4.187 5.275-8.55 3.41-13.811zm-299.836-81.828-23.56-57.38c-6.022-14.667-4.522-30.737 3.918-41.944 10.906-14.508 37.336-44.478 59.296-54.063l4.809-2.1 4.81 2.101c21.959 9.585 48.389 39.555 59.299 54.067 8.437 11.202 9.937 27.272 3.914 41.939l-23.56 57.378c-2.218 5.398-5.453 10.376-9.442 14.627-6.293-2.48-16.126-4.155-24.497-3.834 2.03-16.26 4.313-30.229 6.082-40.091.731-4.077-1.98-7.975-6.058-8.706-4.076-.737-7.976 1.98-8.706 6.058-1.87 10.426-4.304 25.355-6.43 42.739-9.677-.254-20.6.029-30.432 3.834-3.99-4.251-7.224-9.228-9.443-14.625zm-40.366 129.292-57.38 23.56c-14.665 6.021-30.737 4.524-41.944-3.918-14.508-10.906-44.478-37.336-54.063-59.296l-2.1-4.809 2.101-4.81c9.585-21.959 39.555-48.389 54.067-59.299 11.203-8.436 27.271-9.935 41.939-3.914l57.378 23.56c5.398 2.218 10.376 5.453 14.627 9.442-2.472 6.571-3.834 13.682-3.834 21.107v27.828c0 7.425 1.362 14.535 3.834 21.107-4.251 3.989-9.228 7.223-14.625 9.442zm143.867-30.549c0 24.882-20.242 45.124-45.124 45.124h-27.828c-24.882 0-45.124-20.242-45.124-45.124v-27.828c0-3.995.528-7.868 1.507-11.559 11.028 17.195 16.973 28.65 17.102 28.901 1.329 2.587 3.955 4.074 6.677 4.074 1.153 0 2.323-.268 3.42-.83 3.685-1.892 5.138-6.413 3.246-10.098-.615-1.199-8.435-16.284-22.726-37.787 9.029-12.822 27.015-19.309 43.543-17.825-1.833 18.049-3.149 37.883-3.149 57.651 0 4.143 3.357 7.5 7.5 7.5s7.5-3.357 7.5-7.5c0-19.773 1.357-39.647 3.225-57.651 11.131-.821 24.37 2.552 33.204 9.854-17.202 25.2-19.413 46.138-19.504 47.074-.398 4.11 2.603 7.755 6.712 8.17.256.026.509.039.76.039 3.793 0 7.05-2.879 7.455-6.731.019-.183 1.891-16.537 14.889-36.931 4.253 6.882 6.714 14.982 6.714 23.65v27.827z"/><path d="m421.495 295.76c-3.311 2.489-3.978 7.191-1.488 10.502 1.475 1.961 3.724 2.993 6.001 2.993 1.568 0 3.15-.49 4.501-1.505 16.423-12.347 37.768-32.918 46.789-48.345 1.367-2.339 1.367-5.233 0-7.572-9.024-15.43-30.358-35.992-46.769-48.329-3.312-2.488-8.014-1.821-10.502 1.488-2.489 3.311-1.822 8.013 1.488 10.502 15.699 11.802 32.178 28.265 40.401 40.125-8.222 11.86-24.709 28.329-40.421 40.141z"/><path d="m89.284 215.479c3.311-2.489 3.978-7.191 1.488-10.502-2.489-3.312-7.189-3.976-10.502-1.488-16.423 12.347-37.768 32.918-46.789 48.345-1.367 2.339-1.367 5.233 0 7.572 9.024 15.43 30.358 35.992 46.769 48.329 1.351 1.015 2.933 1.506 4.501 1.505 2.277 0 4.527-1.033 6.001-2.993 2.489-3.311 1.822-8.013-1.488-10.502-15.699-11.802-32.178-28.265-40.401-40.125 8.221-11.86 24.709-28.328 40.421-40.141z"/><path d="m332.517 169.924c0 4.251 3.446 7.697 7.697 7.697s7.697-3.446 7.697-7.697-3.446-7.697-7.697-7.697-7.697 3.446-7.697 7.697z"/><path d="m255.471 282.77c-4.251 0-7.697 3.446-7.697 7.697s3.446 7.697 7.697 7.697 7.697-3.446 7.697-7.697-3.446-7.697-7.697-7.697z"/><circle cx="285.362" cy="284.7" r="7.697"/><circle cx="225.19" cy="284.7" r="7.697"/><circle cx="270.865" cy="107.61" r="7.697"/><path d="m117.322 128.781c4.251 0 7.697-3.446 7.697-7.697s-3.446-7.697-7.697-7.697-7.697 3.446-7.697 7.697 3.446 7.697 7.697 7.697z"/></g></g></svg>