<svg height="512pt" viewBox="-77 0 512 512.00104" width="512pt" xmlns="http://www.w3.org/2000/svg"><path d="m344.730469 38.054688c-4.0625-5.023438-10.851563-6.910157-16.921875-4.710938-9.328125 3.390625-19.910156 1.5-30.730469-12.070312-2.859375-3.582032-6.335937-6.300782-10.136719-8.175782-1.109375 1.046875-20.96875-2.339844-21.941406-1.09375-9.097656 11.648438-5.871094 18.96875-18.09375 12.9375-12.558594 11.820313-33.070312 10.6875-44.085938-3.417968-2.894531-3.703126-6.445312-6.507813-10.332031-8.425782-1.109375 1.046875-22.515625-2.339844-23.488281-1.09375-9.105469 11.644532-4.320312 18.96875-16.546875 12.941406-12.5625 11.816407-33.066406 10.683594-44.09375-3.421874-2.890625-3.707032-6.441406-6.507813-10.324219-8.425782-1.035156.976563-19.117187-2.246094-20.035156-1.09375l-22.921875 15.882813c-2.628906 2.277343-5.230469 3.933593-7.792969 5.046875-7.378906 9.078125-1.96875 17.535156 5.21875 26.398437l100.257813 129.671875h91.074219l95.792968-124.820312c7.109375-8.789063 12.410156-17.082032 5.101563-26.128906zm0 0" fill="#ffa2c3"/><path d="m230 355h-76.871094c-17.820312 4.039062-31.128906 19.960938-31.128906 39 0 22.089844 17.910156 40 40 40h76.871094c17.820312-4.035156 31.128906-19.960938 31.128906-39 0-22.089844-17.910156-40-40-40zm0 0" fill="#fff4ca"/><path d="m262.585938 264.003906h-105.253907c-54.148437 18.046875-90.917969 68.929688-90.917969 126.007813v81.988281c0 11.949219 5.246094 22.671875 13.558594 30h210.355469c22.089844 0 39.671875-17.910156 39.671875-40v-81.988281c0-48.703125-26.113281-92.875-67.414062-116.007813zm-30.585938 170.996094h-100c-22.089844 0-40-17.910156-40-40s17.910156-40 40-40h100c22.089844 0 40 17.910156 40 40s-17.910156 40-40 40zm0 0" fill="#ffa2c3"/><path d="m149 253.003906h91v-59c-9.121094 0-57.773438 0-91 0zm0 0" fill="#ff637b"/><path d="m347.484375 70.371094c5.488281-6.785156 18.050781-22.472656 5.019531-38.605469-6.738281-8.328125-18.03125-11.472656-28.109375-7.820313-2.875 1.042969-9.613281 3.492188-19.5-8.910156-7.632812-9.5625-19.003906-15.03124975-31.234375-15.03124975-.070312 0-.140625 0-.210937 0-12.304688.06249995-23.707031 5.66406275-31.289063 15.36328175-3.808594 4.875-9.542968 7.667968-15.730468 7.667968s-11.921876-2.792968-15.730469-7.667968c-7.625-9.765626-19.105469-15.36328175-31.492188-15.36328175-12.390625 0-23.871093 5.59765575-31.496093 15.35937475-3.808594 4.875-9.546876 7.671875-15.734376 7.671875-6.191406 0-11.925781-2.796875-15.734374-7.667968-7.574219-9.703126-18.976563-15.304688-31.285157-15.367188-12.324219-.0859375-23.773437 5.417969-31.445312 15.039062-9.902344 12.417969-16.695313 9.929688-19.585938 8.867188-10.058593-3.699219-21.367187-.605469-28.148437 7.703125-13.1875 16.203125-.433594 32.074219 5.125 38.933594l98.097656 126.875v49.578125c-54.671875 21.332031-90.917969 73.894531-90.917969 133.015625v81.988281c0 27.570312 22.429688 50 50 50h222.25c27.386719 0 49.667969-22.429688 49.667969-50v-81.988281c0-59.273438-35.875-111.824219-90-133.011719v-49.601562zm-218.484375 173.632812v-40h101v40zm-102.492188-185.96875c-8.210937-10.128906-6.890624-11.75-5.230468-13.789062 1.382812-1.695313 3.6875-2.324219 5.75-1.5625 10.597656 3.882812 26.507812 4.40625 42.121094-15.175782 3.808593-4.773437 9.488281-7.503906 15.597656-7.503906h.105468c6.148438.03125 11.839844 2.828125 15.628907 7.679688 7.628906 9.757812 19.105469 15.351562 31.492187 15.351562 12.386719 0 23.867188-5.59375 31.496094-15.355468 3.8125-4.878907 9.546875-7.675782 15.734375-7.675782s11.921875 2.796875 15.734375 7.675782c7.625 9.757812 19.101562 15.355468 31.492188 15.355468 12.390624 0 23.867187-5.597656 31.488281-15.351562 3.789062-4.851563 9.488281-7.648438 15.632812-7.679688h.105469c6.109375 0 11.792969 2.734375 15.605469 7.507813 15.574219 19.53125 31.414062 19.0625 41.953125 15.234375 2.058594-.746094 4.363281-.101563 5.734375 1.59375 1.703125 2.105468 2.933593 3.632812-5.097657 13.558594-.050781.0625-96.785156 126.105468-96.785156 126.105468h-38.199218l42.183593-89.746094c2.347657-4.996093.199219-10.953124-4.796875-13.304687-5-2.347656-10.957031-.199219-13.304687 4.796875l-40.949219 87.128906-40.949219-87.128906c-2.351562-4.996094-8.308593-7.144531-13.304687-4.796875-5 2.351563-7.148438 8.308594-4.796875 13.304687l42.179687 89.746094h-39.222656s-97.351562-125.910156-97.398438-125.96875zm293.492188 321.976563v81.988281c0 16.542969-13.3125 30-29.671875 30h-222.246094c-16.542969 0-30.082031-13.457031-30.082031-30v-81.988281c0-52.421875 33.230469-98.832031 82.71875-116.007813h117.5625c48.9375 17 81.71875 63.410156 81.71875 116.007813zm0 0"/><path d="m190 356c0 5.523438-4.476562 10-10 10s-10-4.476562-10-10c0-5.519531 4.476562-10 10-10s10 4.480469 10 10zm0 0"/><path d="m230 346h-5c-5.523438 0-10 4.480469-10 10 0 5.523438 4.476562 10 10 10h5c16.542969 0 30 13.460938 30 30 0 16.542969-13.457031 30-30 30h-100c-16.542969 0-30-13.457031-30-30 0-16.539062 13.457031-30 30-30h5c5.523438 0 10-4.476562 10-10 0-5.519531-4.476562-10-10-10h-5c-27.570312 0-50 22.429688-50 50s22.429688 50 50 50h100c27.570312 0 50-22.429688 50-50s-22.429688-50-50-50zm0 0"/></svg>