<svg id="Capa_1" enable-background="new 0 0 512.004 512.004" height="512" viewBox="0 0 512.004 512.004" width="512" xmlns="http://www.w3.org/2000/svg"><g><g><g><g><path d="m216.19 181.424-34.72 34.71-28.39-23.42-46.37-38.24c-4.07-3.35-7.69-7.21-10.79-11.47l-18.55-25.55c-8.3-11.42-7.06-27.18 2.92-37.16 5.56-5.56 12.91-8.4 20.3-8.4 5.91 0 11.85 1.82 16.93 5.53l26.55 19.42c4.23 3.08 8.04 6.69 11.37 10.73l42.66 51.86z" fill="#fea95c"/><path d="m198.1 159.434-42.66-51.86c-3.33-4.04-7.14-7.65-11.37-10.73l-26.55-19.42c-5.08-3.71-11.02-5.53-16.93-5.53-3.505 0-6.998.647-10.298 1.911 2.331.893 4.583 2.085 6.684 3.619l26.55 19.42c4.23 3.08 8.04 6.69 11.37 10.73l42.66 51.86 18.09 21.99-25.432 25.425 11.256 9.286 34.72-34.71z" fill="#fe9738"/><path d="m216.19 181.424-34.72 34.71-28.39-23.42c11.56-14.88 27.1-26.5 45.02-33.28z" fill="#fe9738"/><path d="m330.604 295.838-34.714 34.714 61.655 74.759c3.354 4.067 7.21 7.693 11.476 10.791l25.548 18.555c11.42 8.294 27.176 7.053 37.157-2.927 10.005-10.005 11.225-25.81 2.873-37.232l-19.414-26.549c-3.087-4.222-6.693-8.039-10.732-11.362z" fill="#fea95c"/><path d="m434.598 394.498-19.414-26.549c-3.087-4.222-6.693-8.039-10.733-11.362l-73.848-60.749-9.217 9.217 62.643 51.532c4.039 3.323 7.645 7.14 10.732 11.362l19.414 26.549c8.352 11.422 7.133 27.227-2.873 37.232-2.948 2.948-6.407 5.113-10.102 6.515 10.353 3.954 22.367 1.642 30.524-6.515 10.006-10.005 11.226-25.81 2.874-37.232z" fill="#fe9738"/></g><g><path d="m258.21 171.464-13.19 3.63-34.14 9.4-34.53-90.55c-1.88-4.92-3.12-10.07-3.71-15.31l-3.5-31.38c-1.57-14.02 7.29-27.11 20.9-30.85 2.54-.7 5.1-1.04 7.63-1.04 4.88 0 9.64 1.26 13.83 3.58 5.3 2.9 9.7 7.5 12.33 13.36l13.49 30c2.14 4.77 3.68 9.79 4.57 14.94z" fill="#fea95c"/><path d="m258.21 171.464-13.19 3.63h-35.09l-9.27-96.46c-.5-5.24-.34-10.53.49-15.74l4.94-31.19c.76-4.77 2.66-9.11 5.41-12.76 5.3 2.9 9.7 7.5 12.33 13.36l13.49 30c2.14 4.77 3.68 9.79 4.57 14.94z" fill="#fe9738"/><path d="m301.181 327.441-47.334 13.025 16.658 95.461c.906 5.193 2.467 10.251 4.644 15.052l13.041 28.756c5.83 12.854 20.141 19.561 33.75 15.817 13.643-3.754 22.513-16.892 20.896-30.949l-3.758-32.674c-.598-5.196-1.846-10.297-3.716-15.182z" fill="#fea95c"/><path d="m342.836 464.603-3.758-32.674c-.598-5.196-1.846-10.297-3.716-15.182l-34.181-89.306-18.476 5.084 32.235 84.222c1.87 4.885 3.118 9.985 3.716 15.182l3.758 32.674c1.511 13.141-6.143 25.477-18.293 30.096 5.536 2.109 11.747 2.524 17.819.853 13.643-3.755 22.513-16.892 20.896-30.949z" fill="#fe9738"/></g></g><g><g><path d="m330.566 216.17-34.714-34.714 61.655-74.759c3.354-4.067 7.21-7.693 11.476-10.791l25.548-18.555c11.42-8.295 27.176-7.053 37.157 2.927 10.005 10.005 11.225 25.81 2.873 37.232l-19.414 26.549c-3.087 4.222-6.693 8.039-10.732 11.362z" fill="#fea95c"/><path d="m431.687 80.278c-8.157-8.157-20.171-10.469-30.524-6.515 3.695 1.403 7.154 3.567 10.102 6.515 10.005 10.005 11.225 25.81 2.873 37.232l-19.414 26.549c-3.087 4.222-6.693 8.039-10.732 11.362l-62.643 51.532 9.217 9.217 73.848-60.749c4.039-3.323 7.645-7.14 10.732-11.362l19.414-26.549c8.352-11.421 7.132-27.226-2.873-37.232z" fill="#fe9738"/><path d="m216.15 330.584-4.44 5.4-13.64 16.58-42.67 51.87c-3.32 4.04-7.14 7.65-11.36 10.73l-26.55 19.42c-5.08 3.71-11.02 5.53-16.93 5.53-.78 0-1.55-.03-2.33-.1-6.59-.53-13-3.32-17.98-8.3-9.98-9.98-11.22-25.74-2.92-37.16l18.55-25.55c3.1-4.26 6.73-8.12 10.79-11.47l46.39-38.26 28.37-23.4z" fill="#fea95c"/><g fill="#fe9738"><path d="m211.71 335.984-13.64 16.58-42.67 51.87c-3.32 4.04-7.14 7.65-11.36 10.73l-26.55 19.42c-5.08 3.71-11.02 5.53-16.93 5.53-.78 0-1.55-.03-2.33-.1.25-1.03.57-2.05.95-3.06l11.12-29.55c1.85-4.94 4.33-9.62 7.36-13.93l55.72-79.28z"/><path d="m216.15 330.584-18.08 21.98c-17.91-6.78-33.45-18.41-45.01-33.29l28.37-23.4z"/></g></g><g><path d="m340.52 258.197-13.025-47.334 90.544-34.526c4.926-1.878 10.07-3.125 15.309-3.711l31.38-3.507c14.027-1.568 27.112 7.298 30.857 20.906 3.754 13.643-2.996 27.985-15.901 33.788l-29.997 13.487c-4.77 2.145-9.792 3.682-14.945 4.574z" fill="#fea95c"/><path d="m495.584 190.027c-3.745-13.609-16.829-22.474-30.857-20.906l-9.052 1.011c9.248 2.755 16.789 10.095 19.486 19.895 3.754 13.643-2.996 27.985-15.901 33.788l-29.997 13.487c-4.77 2.145-9.792 3.682-14.945 4.574l-74.728 12.944.929 3.377 94.221-16.321c5.154-.893 10.175-2.43 14.945-4.574l29.997-13.487c12.906-5.803 19.656-20.145 15.902-33.788z" fill="#fe9738"/><path d="m184.54 301.164-34.93 13.37-54.37 20.81c-4.89 1.87-9.99 3.12-15.18 3.72l-32.68 3.76c-1.1.13-2.2.19-3.29.19-12.76 0-24.2-8.52-27.66-21.09-3.74-13.61 2.97-27.92 15.82-33.75l28.76-13.04c4.8-2.18 9.86-3.74 15.05-4.64l55.46-9.68 40-6.98z" fill="#fea95c"/><path d="m184.54 301.164-34.93 13.37c-10.63-15.4-17.18-33.83-18.09-53.72l40-6.98z" fill="#fe9738"/></g></g><g><g><path d="m280.573 175.098h-49.093l-9.266-96.459c-.504-5.248-.341-10.538.484-15.745l4.944-31.185c2.21-13.94 14.229-24.204 28.344-24.204 14.15 0 26.188 10.313 28.358 24.296l5.045 32.5c.802 5.169.952 10.417.445 15.623z" fill="#ffd15b"/><path d="m289.389 64.3-5.045-32.5c-2.171-13.982-14.209-24.296-28.358-24.296-3.759 0-7.366.734-10.681 2.065 9.165 3.679 16.083 11.962 17.677 22.23l5.045 32.5c.802 5.168.952 10.417.445 15.623l-9.262 95.174h21.363l9.262-95.174c.506-5.204.357-10.453-.446-15.622z" fill="#ffc344"/><path d="m280.573 336.911h-49.093l-9.266 96.459c-.504 5.248-.341 10.538.484 15.745l4.944 31.185c2.21 13.94 14.229 24.204 28.344 24.204 14.15 0 26.188-10.313 28.358-24.296l5.045-32.5c.802-5.169.952-10.417.445-15.623z" fill="#ffd15b"/><path d="m289.835 432.085-9.262-95.174h-21.363l9.262 95.174c.507 5.206.357 10.455-.445 15.623l-5.045 32.5c-1.594 10.268-8.512 18.551-17.677 22.23 3.316 1.331 6.923 2.065 10.681 2.065 14.15 0 26.188-10.313 28.358-24.296l5.045-32.5c.803-5.167.952-10.416.446-15.622z" fill="#ffc344"/></g><g><path d="m317.328 197.777-42.68-24.26 39.611-88.438c2.155-4.811 4.911-9.33 8.202-13.449l19.709-24.668c8.81-11.027 24.331-14.011 36.602-7.036 12.301 6.992 17.67 21.907 12.648 35.135l-11.674 30.748c-1.857 4.89-4.32 9.527-7.333 13.803z" fill="#ffd15b"/><path d="m378.772 39.926c-7.825-4.448-16.97-4.84-24.855-1.685 1.187.477 2.353 1.038 3.492 1.685 12.301 6.992 17.67 21.907 12.648 35.136l-11.674 30.748c-1.857 4.89-4.32 9.527-7.333 13.802l-48.974 69.495 15.253 8.67 55.084-78.165c3.013-4.275 5.477-8.913 7.333-13.802l11.674-30.748c5.022-13.228-.347-28.143-12.648-35.136z" fill="#ffc344"/><path d="m237.421 338.452-42.68-24.26-55.722 79.28c-3.032 4.313-5.504 8.993-7.36 13.928l-11.112 29.555c-4.967 13.212.41 28.074 12.681 35.049 12.301 6.992 27.863 3.975 36.66-7.108l20.447-25.762c3.252-4.097 5.976-8.586 8.108-13.362z" fill="#ffd15b"/><path d="m194.741 314.192-6.098 8.677 27.416 15.583-38.979 87.319c-2.132 4.776-4.856 9.266-8.108 13.362l-20.447 25.762c-3.2 4.031-7.297 6.99-11.804 8.793 11.632 4.678 25.185 1.264 33.167-8.793l20.447-25.762c3.252-4.097 5.976-8.586 8.108-13.362l38.979-87.319z" fill="#ffc344"/></g></g><g><g><path d="m336.906 280.577v-49.093l96.459-9.266c5.248-.504 10.538-.341 15.745.484l31.185 4.944c13.94 2.21 24.204 14.229 24.204 28.344 0 14.15-10.313 26.188-24.296 28.358l-32.5 5.045c-5.169.802-10.417.952-15.623.445z" fill="#ffd15b"/><path d="m480.296 227.646-31.185-4.944c-5.207-.826-10.497-.988-15.745-.484l-5.399.519 30.967 4.91c13.94 2.21 24.204 14.229 24.204 28.344 0 14.15-10.313 26.188-24.296 28.358l-32.052 4.976 5.292.515c5.206.507 10.455.357 15.623-.445l32.5-5.045c13.982-2.171 24.296-14.209 24.296-28.358-.001-14.116-10.265-26.136-24.205-28.346z" fill="#ffc344"/><path d="m175.09 231.484v49.09l-39.72 3.86-55.45 5.4c-5.21.51-10.46.36-15.62-.44l-32.5-5.05c-7-1.08-13.07-4.64-17.4-9.68-4.32-5.05-6.9-11.6-6.9-18.67 0-14.12 10.26-26.14 24.2-28.35l31.19-4.94c5.21-.83 10.5-.99 15.74-.49l56.71 5.45z" fill="#ffd15b"/><path d="m175.09 231.484v49.09l-39.72 3.86c-2.58-9.03-3.96-18.57-3.96-28.43 0-9.83 1.37-19.33 3.93-28.34z" fill="#ffc344"/></g><g><path d="m314.227 317.333 24.26-42.68 88.438 39.611c4.811 2.155 9.33 4.911 13.449 8.202l24.668 19.709c11.027 8.81 14.011 24.331 7.036 36.602-6.992 12.301-21.907 17.67-35.135 12.648l-30.748-11.674c-4.89-1.857-9.527-4.32-13.803-7.333z" fill="#ffd15b"/><path d="m465.042 342.174-24.668-19.709c-4.119-3.291-8.638-6.047-13.449-8.202l-88.438-39.611-4.335 7.627 71.41 31.984c4.811 2.155 9.33 4.911 13.449 8.202l24.668 19.709c11.027 8.81 14.011 24.331 7.036 36.602-3.318 5.837-8.421 10.109-14.28 12.455l.507.193c13.228 5.022 28.143-.346 35.135-12.648 6.976-12.271 3.992-27.792-7.035-36.602z" fill="#ffc344"/><path d="m197.81 194.744-24.26 42.68-36.15-16.14-51.17-22.84c-4.77-2.13-9.26-4.85-13.36-8.11l-25.76-20.44c-7.07-5.62-10.86-13.98-10.86-22.5 0-4.83 1.22-9.71 3.75-14.16 6.98-12.27 21.84-17.65 35.05-12.68l29.55 11.11c4.94 1.85 9.62 4.33 13.93 7.36l51.68 36.32z" fill="#ffd15b"/><path d="m197.81 194.744-24.26 42.68-36.15-16.14c6.5-18.23 17.99-34.09 32.81-45.94z" fill="#ffc344"/></g></g><circle cx="256" cy="256.004" fill="#fe646f" r="103.23"/><path d="m256 152.774c-3.607 0-7.17.187-10.681.547 51.993 5.345 92.549 49.277 92.549 102.683s-40.555 97.338-92.549 102.683c3.511.361 7.075.547 10.681.547 57.012 0 103.23-46.218 103.23-103.23s-46.218-103.23-103.23-103.23z" fill="#fd4755"/></g><g><path d="m492.727 223.963c7.129-6.726 11.393-16.189 11.393-26.309.516-20.456-19.369-38.927-40.221-35.983l-31.389 3.5c-5.856.66-11.621 2.057-17.143 4.155l-29.919 11.407 23.731-19.522c4.541-3.743 8.587-8.027 12.023-12.73l19.412-26.544c9.898-12.934 9.25-34.668-3.623-46.966-9.764-9.764-23.71-12.914-36.227-9.027.58-12.546-6.861-26.146-18.292-32.542-15.57-8.846-34.987-5.111-46.163 8.88l-19.706 24.665c-3.697 4.619-6.79 9.693-9.189 15.071l-13.099 29.245 2.978-30.609c.57-5.828.404-11.716-.493-17.502l-5.049-32.492c-2.234-16.339-17.886-30.947-35.762-30.656-13.816 0-25.914 7.639-32.017 19.247-8.855-9.048-22.039-13.791-35.92-10.079-17.271 4.746-28.359 21.113-26.367 38.914l3.501 31.389c.666 5.9 2.064 11.669 4.155 17.143l11.412 29.917-19.526-23.731c-3.753-4.553-8.04-8.598-12.729-12.013l-26.555-19.422c-30.138-21.071-65.686 8.871-55.986 39.841-13.075-.402-25.659 6.334-32.477 18.319-8.41 14.001-5.164 35.567 8.968 46.242l25.754 20.436c4.575 3.638 9.612 6.695 14.971 9.088l28.042 12.517-31.873-3.062c-5.883-.561-11.817-.376-17.625.549l-31.19 4.94c-17.689 2.802-30.527 17.84-30.527 35.756 0 8.625 3.09 16.986 8.712 23.558 2.978 3.467 6.565 6.304 10.539 8.41-9.557 8.963-13.708 22.643-10.052 35.952 4.568 16.587 21.254 28.471 39.039 26.36l32.684-3.76c5.807-.671 11.525-2.073 17-4.166l28.686-10.98-24.711 20.381c-4.542 3.748-8.606 8.068-12.086 12.849l-18.548 25.547c-10.532 14.493-8.983 34.206 3.684 46.873 6.833 6.833 15.93 10.597 25.613 10.597 3.655 0 7.228-.558 10.646-1.611-.418 13.091 6.32 25.696 18.318 32.521 14.001 8.409 35.565 5.164 46.241-8.968l20.437-25.754c3.636-4.574 6.693-9.61 9.088-14.97l12.517-28.042-3.062 31.872c-.562 5.885-.377 11.818.549 17.625l4.939 31.191c2.804 17.688 17.842 30.526 35.758 30.526 12.652-.002 25.482-7.075 31.99-19.291 6.781 7.236 16.253 11.39 26.236 11.39 20.65.339 39.001-19.328 36.075-40.357l-3.761-32.684c-.671-5.807-2.072-11.526-4.165-17l-10.972-28.664 20.369 24.697c3.779 4.566 8.103 8.629 12.851 12.077l25.548 18.547c13.454 9.909 33.961 9.355 46.873-3.684 8.98-9.067 13.026-22.925 8.982-36.268 12.553.596 26.186-6.846 32.586-18.291 8.847-15.574 5.111-34.989-8.881-46.165-3.236-2.585-7.956-2.057-10.541 1.18-2.585 3.236-2.057 7.956 1.18 10.541 8.193 6.544 10.38 17.915 5.201 27.033-4.925 8.218-15.495 13.257-25.959 9.344l-30.745-11.668c-4.304-1.637-8.39-3.81-12.146-6.46l-55.78-39.314c8.423-10.063 15.091-21.639 19.538-34.256l63.397 28.399c3.259 1.454 6.39 3.241 9.307 5.312 1.318.936 2.834 1.385 4.335 1.385 2.348 0 4.66-1.099 6.122-3.159 2.398-3.377 1.604-8.059-1.773-10.457-3.723-2.642-7.719-4.923-11.868-6.774l-29.24-13.098 30.603 2.978c2.259.221 4.526.332 6.795.332 3.581 0 7.163-.275 10.707-.825l32.492-5.049c16.338-2.233 30.947-17.887 30.656-35.762-.003-13.827-7.654-25.934-19.276-32.032zm-72.022-40.618c4.34-1.65 8.876-2.749 13.476-3.267l31.385-3.5c11.863-1.074 23.445 7.68 23.555 21.076.257 9.314-7.249 18.128-16.615 21.162l-22.215-3.519c-5.812-.926-11.743-1.11-17.638-.549l-71.398 6.86c-1.523-4.649-3.339-9.166-5.439-13.522zm5.682-97.767c6.78 6.72 8.491 18.515 2.119 27.509l-19.411 26.542c-2.699 3.694-5.88 7.061-9.449 10.003l-52.668 43.328c-2.775-3.992-5.799-7.798-9.061-11.385l40.622-57.637c3.372-4.779 6.138-9.979 8.224-15.461l8.492-22.376c8.192-7.8 22.384-9.387 31.132-.523zm-105.278 2.562c1.883-4.222 4.308-8.198 7.21-11.824l19.711-24.67c6.545-8.194 17.912-10.382 27.033-5.201 8.219 4.926 13.259 15.496 9.343 25.962l-11.666 30.741c-1.638 4.304-3.811 8.39-6.461 12.146l-39.314 55.781c-10.062-8.422-21.636-15.089-34.251-19.536zm-144.516-41.72c-1.166-10.423 5.324-20.005 15.439-22.785 10.167-3.415 23.735 4.358 26.788 15.812l-3.526 22.268c-.927 5.814-1.111 11.747-.55 17.638l4.042 42.044c.396 4.124 4.055 7.145 8.184 6.748 4.123-.396 7.145-4.061 6.748-8.184l-4.042-42.039c-.441-4.625-.296-9.284.432-13.854l3.853-24.331c.192-12.268 8.529-24.872 22.03-24.733 9.156-.084 19.349 7.115 20.938 17.951l5.05 32.499c.704 4.542.835 9.164.387 13.744l-6.6 67.845c-21.009-4.131-48.066-.775-67.652 9.131l-24.758-64.906c-1.642-4.297-2.739-8.83-3.262-13.465zm-90.999 39.178c6.718-6.777 18.505-8.494 27.498-2.12l26.563 19.429c3.683 2.682 7.047 5.857 9.993 9.433l43.336 52.668c-4.021 2.793-7.852 5.839-11.462 9.126l-58.68-41.244c-4.853-3.411-10.105-6.186-15.603-8.244l-21.151-7.953c-7.787-8.187-9.34-22.367-.494-31.095zm-8.062 98.861-25.755-20.436c-7.497-6.104-10.627-17.228-5.259-27.081 5.189-9.12 16.077-13.062 25.896-9.367l29.555 11.112c4.316 1.616 8.437 3.793 12.248 6.472l56.809 39.929c-8.419 10.071-15.082 21.655-19.521 34.28l-62.218-27.773c-4.207-1.878-8.16-4.278-11.755-7.136zm-44.659 50.593 31.196-4.941c4.564-.727 9.224-.871 13.843-.431l69.111 6.64c-1.151 6.39-1.753 12.968-1.753 19.684 0 6.704.594 13.312 1.748 19.767l-67.828 6.599c-4.572.447-9.196.318-13.738-.387l-25.756-4.002c-6.736-.742-14.277-2.108-19.596-8.192-3.288-3.844-5.1-8.743-5.1-13.794 0-10.494 7.518-19.301 17.873-20.943zm59.689 93.287c-4.304 1.646-8.8 2.748-13.359 3.275l-32.705 3.763c-8.974 1.236-20.311-5.267-22.835-15.439-3.347-11.335 4.323-23.156 15.825-26.809l23.664 3.677c3.543.549 7.124.824 10.704.824 2.267 0 4.534-.11 6.791-.331l70.067-6.816c1.508 4.625 3.316 9.141 5.425 13.52zm-7.009 98.072c-7.417-7.417-8.323-18.96-2.153-27.451l18.544-25.542c2.733-3.754 5.93-7.152 9.499-10.098l53.559-44.175c2.762 3.959 5.797 7.76 9.098 11.378l-41.216 58.639c-3.41 4.851-6.185 10.104-8.244 15.603l-7.932 21.097c-7.816 7.59-22.191 9.597-31.155.549zm106.04-3.696c-1.881 4.209-4.28 8.163-7.138 11.757l-20.437 25.755c-6.104 7.496-17.229 10.627-27.08 5.258-9.12-5.188-13.061-16.077-9.368-25.892l11.113-29.559c1.616-4.316 3.794-8.437 6.472-12.247l44.78-63.71c2.209-3.144 1.663-7.394-1.132-9.894-17.652-17.341-28.612-41.929-28.534-68.179 0-52.786 42.944-95.73 95.73-95.73s95.73 42.944 95.73 95.73-42.944 95.73-95.73 95.73c-13.263-.036-26.684-2.697-40.01-8.735-3.765-1.734-8.219-.088-9.95 3.674-1.733 3.762-.089 8.217 3.673 9.95 3.167 1.459 6.384 2.752 9.642 3.897zm78.192 69.19c-3.844 3.288-8.743 5.099-13.795 5.099-10.493 0-19.301-7.517-20.943-17.874l-4.94-31.197c-.727-4.563-.872-9.223-.431-13.842l6.639-69.101c6.443 1.154 13.014 1.744 19.685 1.744 6.745 0 13.35-.608 19.765-1.769l6.601 67.849c.447 4.576.316 9.198-.388 13.739l-5.051 32.507c-.769 4.987-3.31 9.553-7.142 12.845zm65.607-26.421c1.239 8.976-5.266 20.313-15.438 22.838-11.314 3.384-23.224-4.409-26.822-15.854l3.669-23.614c.897-5.784 1.063-11.672.494-17.496l-6.822-70.125c4.649-1.527 9.167-3.347 13.524-5.451l24.359 63.641c1.646 4.302 2.747 8.798 3.273 13.358zm68.137-78.718 22.321 8.471c7.596 7.822 9.648 22.209.58 31.191-7.424 7.416-18.968 8.324-27.453 2.157l-25.551-18.549c-3.729-2.708-7.131-5.906-10.1-9.493l-44.213-53.609c3.967-2.762 7.75-5.77 11.316-9.013l57.636 40.622c4.781 3.372 9.982 6.139 15.464 8.223zm88.382-116.989c-3.304 3.845-7.868 6.386-12.862 7.156l-32.497 5.05c-4.546.704-9.168.834-13.745.387l-67.845-6.601c1.161-6.415 1.769-13.02 1.769-19.764 0-6.716-.602-13.294-1.753-19.684l69.105-6.64c4.626-.441 9.285-.297 13.854.432l24.537 3.886c12.671.349 24.467 8.54 24.527 21.996-.001 5.051-1.813 9.95-5.09 13.782z"/><path d="m219.759 318.035c4.251 0 7.697-3.446 7.697-7.697s-3.446-7.697-7.697-7.697-7.697 3.446-7.697 7.697 3.446 7.697 7.697 7.697z"/><path d="m256 318.035c4.251 0 7.697-3.446 7.697-7.697s-3.446-7.697-7.697-7.697-7.697 3.446-7.697 7.697 3.446 7.697 7.697 7.697z"/><path d="m292.241 318.035c4.251 0 7.697-3.446 7.697-7.697s-3.446-7.697-7.697-7.697-7.697 3.446-7.697 7.697 3.446 7.697 7.697 7.697z"/><circle cx="185.518" cy="274.116" r="7.697"/><path d="m219.759 281.812c4.251 0 7.697-3.446 7.697-7.697s-3.446-7.697-7.697-7.697-7.697 3.446-7.697 7.697 3.446 7.697 7.697 7.697z"/><circle cx="256" cy="274.116" r="7.697"/><path d="m292.241 281.812c4.251 0 7.697-3.446 7.697-7.697s-3.446-7.697-7.697-7.697-7.697 3.446-7.697 7.697 3.446 7.697 7.697 7.697z"/><circle cx="326.482" cy="274.116" r="7.697"/><circle cx="185.518" cy="237.893" r="7.697"/><path d="m219.759 245.589c4.251 0 7.697-3.446 7.697-7.697s-3.446-7.697-7.697-7.697-7.697 3.446-7.697 7.697 3.446 7.697 7.697 7.697z"/><circle cx="256" cy="237.893" r="7.697"/><path d="m292.241 245.589c4.251 0 7.697-3.446 7.697-7.697s-3.446-7.697-7.697-7.697-7.697 3.446-7.697 7.697 3.446 7.697 7.697 7.697z"/><circle cx="326.482" cy="237.893" r="7.697"/><path d="m219.759 209.367c4.251 0 7.697-3.446 7.697-7.697s-3.446-7.697-7.697-7.697-7.697 3.446-7.697 7.697 3.446 7.697 7.697 7.697z"/><path d="m256 209.367c4.251 0 7.697-3.446 7.697-7.697s-3.446-7.697-7.697-7.697-7.697 3.446-7.697 7.697 3.446 7.697 7.697 7.697z"/><path d="m292.241 209.367c4.251 0 7.697-3.446 7.697-7.697s-3.446-7.697-7.697-7.697-7.697 3.446-7.697 7.697 3.446 7.697 7.697 7.697z"/></g></g></svg>