<svg id="Capa_1" enable-background="new 0 0 512 512" height="512" viewBox="0 0 512 512" width="512" xmlns="http://www.w3.org/2000/svg"><g><g><path d="m266.302 39.583c-4.469 8.727-16.941 8.727-21.411 0-6.178-12.064-18.59-19.652-32.144-19.652-19.946 0-36.115 16.169-36.115 36.115v48.083c0 26.978 7.059 53.487 20.474 76.892l26.686 46.56c14.083 24.572 49.525 24.572 63.608 0l26.686-46.56c13.415-23.406 20.474-49.915 20.474-76.892v-48.083c0-19.946-16.169-36.115-36.115-36.115-13.553.001-25.965 7.59-32.143 19.652z" fill="#ffceec"/><g><path d="m298.447 19.932c-3.624 0-7.161.558-10.523 1.584 14.772 4.529 25.515 18.274 25.515 34.53v48.083c0 26.978-7.059 53.487-20.474 76.892l-26.686 46.56c-5.014 8.749-12.741 14.365-21.242 16.884 15.376 4.555 33.297-1.061 42.366-16.884l26.686-46.56c13.415-23.406 20.474-49.915 20.474-76.892v-48.083c-.003-19.945-16.172-36.114-36.116-36.114z" fill="#ffbee6"/></g><path d="m471.773 196.302c-9.761-.92-14.379-12.506-7.928-19.889 8.918-10.206 11.372-24.546 6.353-37.136-7.386-18.527-28.393-27.56-46.92-20.175l-44.666 17.805c-25.06 9.989-47.071 26.362-63.845 47.49l-33.369 42.03c-17.61 22.181-4.487 55.103 23.554 59.087l53.133 7.548c26.709 3.795 53.948.535 79.008-9.454l44.666-17.805c18.527-7.386 27.56-28.393 20.175-46.92-5.021-12.588-16.666-21.308-30.161-22.581z" fill="#ffceec"/><path d="m501.932 218.885c-5.019-12.59-16.664-21.31-30.158-22.582-9.761-.92-14.379-12.506-7.928-19.889 8.918-10.206 11.371-24.546 6.353-37.136-7.014-17.595-26.311-26.615-44.104-21.154 10.102 3.099 18.764 10.575 22.981 21.154 5.018 12.59 2.566 26.93-6.353 37.136-6.452 7.383-1.833 18.968 7.928 19.889 13.493 1.272 25.139 9.992 30.158 22.582 7.386 18.527-1.646 39.534-20.175 46.92l-44.666 17.805c-14.993 5.976-30.766 9.524-46.739 10.614 23.083 1.587 46.281-2.01 67.862-10.614l44.666-17.805c18.528-7.386 27.56-28.393 20.175-46.92z" fill="#ffbee6"/><path d="m206.948 285.515-30.917 4.391-22.215 3.161c-26.706 3.791-53.953.53-79.009-9.462l-44.661-17.804c-18.534-7.382-27.566-28.387-20.175-46.921 2.501-6.291 6.672-11.623 11.903-15.534 5.221-3.911 11.503-6.412 18.254-7.042 9.762-.92 14.373-12.503 7.922-19.895-5.851-6.692-8.922-15.174-8.922-23.766 0-4.501.84-9.042 2.571-13.363 5.641-14.143 19.215-22.755 33.558-22.755 4.451 0 8.972.83 13.363 2.581l44.671 17.804c25.056 9.982 47.071 26.356 63.845 47.491l14.213 17.904 19.155 24.126c17.604 22.176 4.481 55.104-23.556 59.084z" fill="#ffceec"/><path d="m299.6 262.7c0 35.778-28.997 64.785-64.775 64.785-26.066 0-48.521-15.394-58.794-37.579l30.917-4.391c28.037-3.981 41.16-36.909 23.556-59.084l-19.155-24.126c7.282-2.831 15.194-4.381 23.476-4.381 35.778.001 64.775 29.008 64.775 64.776z" fill="#ffd15b"/><path d="m206.948 285.515-30.917 4.391c-3.841-8.272-5.981-17.484-5.981-27.206 0-27.486 17.124-50.992 41.3-60.394l19.155 24.126c17.603 22.175 4.48 55.103-23.557 59.083z" fill="#ffbee6"/><path d="m230.5 226.429-33.369-42.03c-16.775-21.129-38.785-37.501-63.845-47.49l-44.666-17.805c-7.948-3.168-16.349-3.308-23.939-.98.943.289 1.882.608 2.815.98l44.666 17.805c25.06 9.989 47.071 26.362 63.845 47.49l33.369 42.03c17.61 22.181 4.487 55.103-23.554 59.087l-53.132 7.549c-3.707.527-7.425.903-11.146 1.159 10.725.731 21.539.365 32.269-1.159l53.132-7.549c28.043-3.984 41.166-36.906 23.555-59.087z" fill="#ffbee6"/><path d="m389.025 448.565c-1.999-9.598 7.709-17.428 16.666-13.441 12.382 5.511 26.808 3.627 37.358-4.882 15.526-12.521 17.961-35.257 5.439-50.783l-30.185-37.428c-16.936-21-39.071-37.203-64.207-47l-50.002-19.49c-26.388-10.285-53.976 11.964-49.513 39.931l8.457 52.995c4.251 26.641 15.399 51.706 32.335 72.705l30.185 37.428c12.521 15.526 35.257 17.961 50.783 5.439 10.55-8.507 15.449-22.206 12.684-35.474z" fill="#ffceec"/><g><path d="m392.347 437.562c-2.644-.515-5.255-1.315-7.779-2.439-8.957-3.987-18.665 3.843-16.666 13.441 2.764 13.268-2.133 26.967-12.684 35.476-3.706 2.989-7.824 5.115-12.114 6.424 11.066 3.375 23.554 1.384 33.237-6.424 10.549-8.508 15.448-22.207 12.684-35.476-.904-4.339.59-8.314 3.322-11.002z" fill="#ffceec"/><path d="m448.489 379.459-30.185-37.428c-16.936-21-39.071-37.203-64.207-47l-50.002-19.49c-8.199-3.196-16.512-3.247-23.946-.965.941.285 1.882.599 2.822.965l50.002 19.49c25.136 9.797 47.271 26 64.207 47l30.185 37.428c12.521 15.526 10.085 38.262-5.439 50.783-3.654 2.947-7.779 5.079-12.117 6.406 11.367 3.483 23.841 1.175 33.241-6.406 15.524-12.521 17.96-35.258 5.439-50.783z" fill="#ffbee6"/></g><path d="m258.41 315.473-1.29 8.072-7.172 44.921c-4.251 26.646-15.394 51.712-32.328 72.707l-30.187 37.429c-12.523 15.524-35.258 17.964-50.782 5.441-8.602-6.932-13.443-17.314-13.443-28.097 0-2.451.25-4.921.76-7.382 2-9.602-7.712-17.424-16.674-13.443-4.711 2.1-9.712 3.121-14.683 3.121-8.112 0-16.134-2.731-22.665-8.002-8.852-7.132-13.453-17.584-13.453-28.127 0-7.962 2.621-15.974 8.012-22.655l30.177-37.429c16.944-20.995 39.079-37.199 64.215-47.001l16.534-6.442 33.468-13.043c26.386-10.282 53.972 11.963 49.511 39.93z" fill="#ffceec"/><path d="m258.41 315.473-1.29 8.072c-6.952 2.551-14.463 3.941-22.295 3.941-26.576 0-49.412-16.004-59.394-38.899l33.468-13.043c26.386-10.283 53.972 11.962 49.511 39.929z" fill="#ffbee6"/><g><path d="m211.717 274.577c16.49 5.061 28.643 21.618 25.567 40.897l-8.457 52.995c-4.251 26.641-15.399 51.706-32.335 72.705l-30.185 37.428c-4.711 5.842-10.87 9.829-17.545 11.865 13.685 4.178 29.136-.045 38.669-11.865l30.185-37.428c16.936-21 28.084-46.065 32.335-72.705l8.457-52.995c4.304-26.973-21.2-48.615-46.691-40.897z" fill="#ffbee6"/></g><circle cx="255.596" cy="262.704" fill="#ffd15b" r="64.777"/><path d="m255.596 197.927c-3.536 0-7.003.294-10.385.839 30.836 4.971 54.392 31.698 54.392 63.938s-23.556 58.967-54.392 63.938c3.383.545 6.849.839 10.385.839 35.775 0 64.777-29.002 64.777-64.777.001-35.775-29.001-64.777-64.777-64.777z" fill="#ffc344"/><ellipse cx="255.596" cy="262.704" fill="#ffead9" rx="31.805" ry="31.805" transform="matrix(.16 -.987 .987 .16 -44.658 472.92)"/><path d="m255.596 230.901c-3.638 0-7.13.619-10.385 1.743 12.463 4.306 21.419 16.134 21.419 30.06 0 13.927-8.955 25.755-21.419 30.06 3.256 1.124 6.748 1.743 10.385 1.743 17.565 0 31.805-14.239 31.805-31.805s-14.239-31.801-31.805-31.801z" fill="#fedba6"/></g><g><path d="m508.899 216.109c-2.967-7.464-7.94-13.954-14.377-18.766-6.434-4.819-14.059-7.761-22.047-8.506-3.337-.981-5.298-2.81-2.98-7.488 6.95-7.947 10.777-18.14 10.777-28.704.142-31.092-31.997-51.739-59.77-40.507l-44.67 17.804c-15.118 6.022-29.201 14.303-41.789 24.463 5.273-16.175 8.017-33.152 8.017-50.271v-48.091c0-24.047-19.564-43.61-43.61-43.61-14.909-.173-31.546 8.976-38.824 23.735-2.141 2.731-4.579 3.882-8.058.009-3.648-7.143-9.204-13.138-16.07-17.34-30.545-18.396-66.568 5.215-66.369 37.207v48.091c0 16.839 2.661 33.544 7.772 49.49-12.343-9.807-26.101-17.811-40.833-23.681-12.059-3.976-48.222-21.769-60.811-20.918-39.052.254-56.234 45.682-32.859 72.318 1.746 3.003 1.929 5.7-2.967 7.493-7.995.746-15.622 3.688-22.049 8.503-28.388 21.536-19.841 63.814 9.985 75.432l44.66 17.803c18.004 7.181 37.146 11.047 56.426 11.483-14.991 9.477-28.409 21.382-39.613 35.264l-30.175 37.427c-14.547 17.193-12.311 46.862 6.569 61.331 12.094 9.821 29.789 12.625 45.106 5.898 3.391-.78 6.018-.159 6.283 5.064-3.315 14.279 2.552 33.166 15.319 42.841 17.24 14.606 46.68 12.326 61.331-6.571l30.187-37.429c16.687-20.689 28.048-45.266 33.035-71.35 4.987 26.086 16.349 50.663 33.035 71.35l30.187 37.429c31.257 36.334 85.297 6.519 76.65-36.27-.047-3.478 1.125-5.903 6.272-5.069 5.612 2.502 11.581 3.771 17.738 3.771 47.512-3.039 55.377-53.821 25.735-81.18-2.602-3.225-7.324-3.733-10.549-1.131-3.226 2.601-3.731 7.323-1.131 10.548 26.092 25.025 13.748 54.858-14.054 56.759-4.039 0-7.951-.831-11.638-2.475-18.968-6.617-30.995 9.41-26.461 27.681-.163 27.496-34.657 38.088-50.884 17.945l-30.187-37.429c-16.084-19.941-26.72-43.862-30.759-69.18l-5.256-32.938c4.51-.598 8.908-1.615 13.149-3.016l41.856 72.787c1.388 2.414 3.913 3.764 6.511 3.764 1.269 0 2.555-.322 3.733-1 3.591-2.064 4.828-6.651 2.764-10.242l-41.115-71.501c6.481-3.785 12.345-8.577 17.379-14.208l59.71 57.699c1.456 1.407 3.336 2.106 5.212 2.106 1.964 0 3.924-.766 5.396-2.29 2.879-2.98 2.798-7.729-.182-10.608l-61.277-59.213c1.455-2.549 2.768-5.203 3.922-7.958 6.632 2.589 22.575 8.8 29.119 11.35 23.875 9.311 45.004 24.776 61.101 44.724 1.482 1.836 3.653 2.791 5.843 2.791 1.653 0 3.319-.545 4.706-1.664 3.225-2.603 3.729-7.325 1.127-10.549-11.216-13.897-24.652-25.812-39.663-35.294 18.928-.549 37.708-4.398 55.388-11.45l44.659-17.803c21.299-7.968 33.588-34.568 24.368-56.66zm-324.766-160.068c.748-30.888 40.564-38.651 54.079-13.032 6.3 13.37 27.648 14.241 34.767 0 4.302-8.457 14.233-15.653 25.472-15.574 15.774 0 28.607 12.833 28.607 28.607v48.091c0 25.637-6.736 50.934-19.484 73.162-3.102 5.88-10.497 18.38-15.168 23.208-3.423-2.035-6.985-3.774-10.66-5.203l11.856-83.643c.581-4.102-2.273-7.899-6.375-8.481-4.104-.579-7.899 2.273-8.481 6.375l-11.593 81.785c-3.788-.606-7.648-.914-11.554-.914-3.67 0-7.299.279-10.868.815l-4.081-28.788c-.582-4.102-4.374-6.957-8.481-6.375-4.102.582-6.957 4.378-6.375 8.481l4.321 30.487c-3.739 1.41-7.363 3.142-10.847 5.175-22.154-26.236-35.151-61.412-35.138-96.087zm-151.211 202.79c-19.844-7.287-24.572-36.302-6.55-49.482 4.217-3.159 9.215-5.087 14.46-5.577 14.78-.939 23.416-20.254 12.865-32.302-16.539-19.042-1.814-47.549 21.559-47.444 7.19-1.17 48.058 17.634 55.257 19.852 23.807 9.484 44.812 25.11 60.746 45.187l15.887 20.012c-2.759 2.488-5.296 5.165-7.611 7.998l-76.519-36.562c-3.74-1.786-8.218-.204-10.002 3.535-1.786 3.738-.204 8.217 3.535 10.002l74.692 35.688c-3.42 6.67-5.782 13.867-6.989 21.362l-81.384-13.558c-4.085-.684-7.952 2.08-8.632 6.167-.681 4.087 2.08 7.952 6.167 8.632l83.012 13.83c.172 3.616.613 7.203 1.317 10.736-7.59 3.691-23.42 8.535-31.971 8.732-25.38 3.604-51.374.489-75.177-9.003zm178.859 177.632-30.186 37.428c-8.914 11.44-27.805 14.542-40.237 4.31-7.716-6.659-12.343-16.651-10.045-28.107 3.46-14.4-12.446-28.351-27.072-21.825-8.158 3.877-21.148 3.165-29.588-3.871-11.682-9.094-14.37-27.8-4.308-40.232l30.174-37.426c16.1-19.948 37.229-35.413 61.101-44.723l27.589-10.753c1.091 2.541 2.314 4.993 3.659 7.354l-61.283 59.218c-2.98 2.879-3.061 7.628-.182 10.608 1.472 1.523 3.433 2.29 5.396 2.29 1.876 0 3.756-.7 5.211-2.106l59.702-57.69c5.033 5.642 10.903 10.428 17.382 14.212l-41.11 71.488c-2.065 3.592-.828 8.177 2.764 10.242 1.178.678 2.464 1 3.733 1 2.597 0 5.122-1.351 6.51-3.764l41.851-72.777c4.793 1.579 9.786 2.672 14.921 3.223l-5.221 32.721c-4.041 25.317-14.677 49.238-30.761 69.18zm67.564-121.604c-5.781 2.624-14.05 4.912-22.657 5.108-30.303 1.062-58.902-24.994-58.362-57.268-.392-30.544 25.562-57.42 57.274-57.274 29.365-1.009 58.223 26.469 57.274 57.274.492 20.467-13.139 43.402-33.529 52.16zm215.325-71.299c-3.019 7.021-8.591 12.444-15.695 15.274l-44.662 17.804c-23.8 9.492-49.796 12.607-75.173 9.003-8.881.014-25.346-6.188-32.545-9.382.631-3.318 1.028-6.688 1.189-10.087l83.003-13.828c4.087-.681 6.849-4.545 6.167-8.632-.681-4.087-4.545-6.846-8.633-6.167l-81.4 13.561c-1.225-7.46-3.612-14.66-7.033-21.336l74.751-35.717c3.738-1.786 5.32-6.264 3.535-10.002-1.787-3.739-6.267-5.32-10.003-3.535l-76.549 36.577c-2.194-2.703-4.588-5.255-7.171-7.631 3.914-4.925 12.131-15.296 16.188-20.394 15.933-20.076 36.939-35.7 60.745-45.187l44.672-17.804c28.562-10.825 51.094 23.184 32.14 45.403-9.988 10.666-3.068 31.012 12.876 32.298 5.238.488 10.236 2.418 14.46 5.58 9.585 6.898 14.612 21.855 9.138 34.202z"/><path d="m255.596 238.402c8.878 0 17.048 4.84 21.324 12.633 1.992 3.633 6.553 4.96 10.186 2.968 3.632-1.993 4.96-6.554 2.968-10.185-6.911-12.595-20.122-20.419-34.477-20.419-21.673 0-39.305 17.632-39.305 39.305s17.632 39.305 39.305 39.305c12.937 0 25.046-6.367 32.39-17.033 2.351-3.413 1.488-8.084-1.923-10.433-3.413-2.351-8.085-1.488-10.433 1.923-4.545 6.6-12.034 10.539-20.034 10.539-13.4 0-24.302-10.902-24.302-24.302 0-13.399 10.901-24.301 24.301-24.301z"/><path d="m220.812 129.394c.531 3.746 3.742 6.451 7.419 6.451.35 0 .705-.024 1.062-.075 4.103-.581 6.957-4.378 6.376-8.48l-2.514-17.736c-.582-4.102-4.379-6.959-8.48-6.376-4.103.581-6.957 4.378-6.376 8.48z"/></g></g></svg>