<svg id="Capa_1" enable-background="new 0 0 511.994 511.994" height="512" viewBox="0 0 511.994 511.994" width="512" xmlns="http://www.w3.org/2000/svg"><g><g><path d="m88.4 415.605 97.583 5.848c16.956 1.016 33.468 5.827 48.317 14.078l57.746 32.087c4.05 2.25 1.905 8.439-2.669 7.7l-83.679-13.516-163.845-20.353z" fill="#bbf49b"/><path d="m292.045 467.618-57.745-32.087c-14.849-8.25-31.36-13.062-48.317-14.078l-97.583-5.848-2.015 1.119 78.914 4.729c16.956 1.016 33.468 5.827 48.317 14.078l57.746 32.087c2.072 1.151 2.515 3.331 1.848 5.089l16.167 2.611c4.573.739 6.718-5.45 2.668-7.7z" fill="#9be69d"/><path d="m84.681 382.162 43.082-56.981c8.794-11.631 14.474-25.314 16.503-39.754l13.677-97.34c.659-4.69-5.802-6.628-7.834-2.35l-103.239 217.418z" fill="#bbf49b"/><path d="m150.109 185.737-25.256 53.189c1.922.432 3.562 2.128 3.214 4.604l-4.485 41.897c-2.029 14.44-7.709 28.122-16.503 39.754l-43.082 56.981-9.72 5.397-7.406 15.596 37.81-20.993 43.082-56.981c8.794-11.631 14.474-25.314 16.503-39.754l13.677-97.34c.659-4.69-5.803-6.628-7.834-2.35z" fill="#9be69d"/><path d="m234.464 311.457 49.086 9.416c14.889 2.861 20.522 21.21 9.804 31.929-2.663 2.663-5.992 4.412-9.519 5.143-3.541.732-7.287.454-10.792-.929l-61.48-23.434z" fill="#aca6d6"/><path d="m283.55 320.873-49.086-9.416-3.427 3.311 31.828 6.106c14.889 2.861 20.522 21.21 9.804 31.929-1.065 1.065-2.24 1.976-3.488 2.742l3.862 1.472c3.505 1.383 7.251 1.661 10.792.929 3.526-.732 6.855-2.48 9.519-5.143 10.718-10.72 5.084-29.069-9.804-31.93z" fill="#978ecb"/><path d="m285.866 260.059 49.083 9.42c14.89 2.858 20.522 21.203 9.802 31.924-5.325 5.325-13.302 6.98-20.306 4.214l-60.315-23.822z" fill="#978ecb"/><g fill="#8379c1"><path d="m334.949 269.479-49.083-9.42-3.33 3.33 31.729 6.089c14.89 2.858 20.523 21.204 9.802 31.924-1.049 1.049-2.205 1.95-3.432 2.709l3.811 1.505c7.004 2.766 14.981 1.111 20.306-4.214 10.72-10.719 5.087-29.065-9.803-31.923z"/><path d="m337.266 208.66 49.083 9.42c14.89 2.858 20.522 21.203 9.802 31.924-5.325 5.325-13.302 6.98-20.306 4.214l-60.315-23.822z"/><path d="m386.349 218.08-49.083-9.42-3.33 3.33 31.729 6.089c14.89 2.857 20.522 21.203 9.802 31.924-1.049 1.049-2.205 1.95-3.432 2.709l3.811 1.505c7.004 2.766 14.982 1.111 20.306-4.214 10.719-10.72 5.086-29.066-9.803-31.923z"/></g><path d="m388.665 157.26 49.083 9.42c14.89 2.858 20.522 21.204 9.802 31.924-5.325 5.325-13.302 6.98-20.306 4.214l-60.315-23.822z" fill="#aca6d6"/><path d="m437.748 166.68-49.083-9.42-3.331 3.331 31.729 6.089c14.89 2.858 20.522 21.203 9.802 31.924-1.049 1.05-2.205 1.951-3.433 2.709l3.811 1.505c7.004 2.766 14.982 1.111 20.306-4.214 10.722-10.721 5.089-29.066-9.801-31.924z" fill="#978ecb"/><path d="m440.065 105.861 49.083 9.42c14.89 2.858 20.522 21.204 9.802 31.924-5.325 5.325-13.302 6.98-20.306 4.214l-60.315-23.822z" fill="#978ecb"/><path d="m489.148 115.28-49.083-9.42-3.33 3.33 31.729 6.089c14.89 2.858 20.522 21.204 9.802 31.924-1.049 1.049-2.205 1.95-3.432 2.709l3.811 1.505c7.004 2.766 14.981 1.111 20.306-4.214 10.719-10.719 5.086-29.065-9.803-31.923z" fill="#8379c1"/><path d="m219.834 282.194-23.219-60.915c-1.383-3.505-1.661-7.251-.929-10.792.732-3.527 2.48-6.855 5.143-9.519 10.719-10.719 29.068-5.085 31.929 9.804l9.416 49.086" fill="#8379c1"/><path d="m232.757 210.772c-2.607-13.569-18.076-19.444-28.912-12.268 4.059 2.622 7.181 6.822 8.228 12.268l9.416 49.086-7.363 7.362 5.708 14.974 22.34-22.336z" fill="#6e61b6"/><path d="m293.571 208.455-9.42-49.083c-2.858-14.89-21.204-20.522-31.924-9.802-5.325 5.325-6.98 13.302-4.214 20.306l23.822 60.315z" fill="#aca6d6"/><path d="m284.151 159.372c-2.604-13.569-18.069-19.444-28.906-12.267 4.057 2.622 7.177 6.822 8.222 12.267l9.42 49.083-6.909 6.908 5.856 14.828 21.737-21.737z" fill="#978ecb"/><path d="m344.971 157.056-9.42-49.083c-2.858-14.89-21.203-20.522-31.924-9.802-5.325 5.325-6.98 13.302-4.214 20.306l23.822 60.315z" fill="#8379c1"/><path d="m335.551 107.973c-2.604-13.57-18.07-19.445-28.906-12.267 4.057 2.622 7.177 6.822 8.222 12.267l9.42 49.083-6.909 6.909 5.856 14.828 21.737-21.737z" fill="#6e61b6"/><path d="m396.37 105.656-9.42-49.083c-2.858-14.89-21.203-20.522-31.924-9.802-5.325 5.325-6.98 13.302-4.214 20.306l23.822 60.315z" fill="#aca6d6"/><path d="m386.95 56.573c-2.604-13.569-18.069-19.444-28.906-12.266 4.057 2.622 7.177 6.822 8.222 12.266l9.42 49.083-6.909 6.909 5.856 14.828 21.737-21.737z" fill="#978ecb"/><path d="m418.328 127.597-21.949-21.949 53.397-62.856c6.833-8.044 19.078-8.541 26.542-1.078l5.945 5.945c7.463 7.463 6.966 19.708-1.078 26.542z" fill="#8379c1"/><path d="m482.262 47.659-5.945-5.945c-6.868-6.868-17.776-6.977-24.799-.684.254.227.516.44.761.684l5.945 5.945c7.463 7.463 6.966 19.708-1.078 26.542l-49.859 42.355 11.041 11.041 62.856-53.397c8.044-6.833 8.541-19.078 1.078-26.541z" fill="#6e61b6"/><g><path d="m420.045 125.882-1.718 1.718-29.665 29.665-21.729 21.729h-.01l-29.654 29.665-21.739 21.739-29.665 29.665-21.739 21.739-29.665 29.654-6.839 6.839c-5.225 5.225-10.575 10.326-16.048 15.282h-.01c-25.743 23.363-54.084 43.674-84.524 60.571l-38.636 21.46-46.551 25.836-34.352 19.08v-35.511l39.37-21.863 37.808-20.984v-.01l27.295-15.148c34.373-19.08 65.9-42.857 93.702-70.659l14.155-14.155 22.339-22.339 29.665-29.665 21.739-21.739 29.665-29.654v-.01l73.143-73.143 1.718-1.718c6.063-6.053 15.883-6.053 21.946 0 6.062 6.064 6.062 15.893-.001 21.956z" fill="#6fd7a3"/></g><path d="m420.045 103.926c-6.063-6.053-15.883-6.053-21.946 0l-1.303 1.303c4.677 5.53 5.904 13.903-.79 20.654-13.419 13.42-39.834 39.834-53.111 53.111h-.01c-50.638 50.084-104.063 105.265-155.349 154.583h-.01c-51.284 47.385-118.424 79.16-180.024 113.284v13.663l34.352-19.08 46.551-25.836 38.636-21.46c30.441-16.897 58.781-37.208 84.524-60.571h.01c5.474-4.956 10.823-10.057 16.048-15.282l6.839-6.839 29.665-29.654 21.739-21.739 29.665-29.665 21.739-21.739 29.654-29.665h.01l21.729-21.729 29.665-29.665 1.718-1.718c6.062-6.063 6.062-15.892-.001-21.956z" fill="#3ec3a4"/></g><path d="m510.826 126.094c-2.875-9.365-10.637-16.33-20.26-18.179l-30.573-5.87 26.041-22.125c10.45-8.51 12.437-26.969 1.536-37.558l-5.948-5.958c-9.347-9.706-27.882-10.196-37.566 1.532l-23.671 27.869c-2.682 3.157-2.296 7.89.861 10.572s7.89 2.296 10.572-.861l23.667-27.865c3.211-3.74 10.525-5.521 15.53-.641l5.944 5.954c3.466 3.505 4.654 10.926-.632 15.521l-45.586 38.732c-1.108-3.139-2.889-6.092-5.396-8.599-6.41-6.399-15.683-8.201-23.734-5.456l-7.293-38.003c-1.847-9.622-8.812-17.385-18.177-20.261-9.366-2.877-19.488-.358-26.416 6.569-7.442 7.442-9.752 18.575-5.886 28.364l22.013 55.736-16.18 16.18-6.753-35.189c-1.847-9.622-8.812-17.385-18.178-20.261s-19.488-.359-26.416 6.569c-7.442 7.442-9.752 18.575-5.886 28.364l22.016 55.744-16.181 16.179-6.755-35.197c-1.847-9.622-8.812-17.385-18.178-20.261-9.366-2.877-19.488-.359-26.416 6.569-7.442 7.442-9.753 18.576-5.887 28.364l22.015 55.74-16.179 16.177-6.751-35.193c-1.849-9.622-8.817-17.385-18.185-20.26-9.369-2.876-19.487-.357-26.412 6.568-6.591 6.663-9.964 17.748-5.919 28.285l21.489 56.375-10.721 10.72c-26.29 26.29-55.969 48.894-88.253 67.26l21.625-28.601c9.541-12.619 15.747-27.568 17.948-43.233l13.677-97.34c.806-5.733-2.634-11.102-8.18-12.766-5.545-1.663-11.374.924-13.856 6.155l-102.211 215.253-37.265 20.688c-3.621 2.011-4.927 6.577-2.916 10.198 2.01 3.621 6.577 4.927 10.198 2.916l104.472-58.004c34.977-19.415 67.062-43.61 95.365-71.914l192.418-192.417c3.128-3.125 8.219-3.124 11.344-.004 3.129 3.129 3.129 8.221 0 11.35 0 0-202.756 202.5-207.966 207.225-.034.028-.067.058-.1.087-.001.001-.002.001-.003.002-.05.043-.1.085-.149.13-25.278 22.941-53.245 42.982-83.125 59.568l-119.538 66.374c-3.621 2.011-4.926 6.577-2.915 10.198 1.371 2.468 3.927 3.86 6.563 3.86 1.232 0 2.481-.304 3.635-.945l32.213-17.887 161.28 20.034 83.544 13.495c4.515.805 10.702-1.754 12.851-7.677 1.885-5.438-.312-11.188-5.343-13.983l-57.746-32.086c-15.733-8.742-33.545-13.932-51.51-15.008l-5.894-.354c-4.149-.256-7.688 2.903-7.936 7.037-.248 4.135 2.902 7.688 7.037 7.936l5.894.354c15.738.943 31.341 5.489 45.123 13.146l40.975 22.768c-.255-.036-64.594-10.444-65.01-10.496l-141.018-17.517 24.529-13.619 53.435 3.203c4.141.241 7.688-2.904 7.936-7.038.248-4.135-2.903-7.688-7.038-7.935l-29.91-1.792 16.126-8.954c29.536-16.394 57.256-36.063 82.475-58.49l57.135 21.777c8.364 3.494 20.585 1.99 28.366-5.887 6.926-6.926 9.443-17.047 6.568-26.413-2.875-9.368-10.639-16.335-20.262-18.185l-35.195-6.752 16.179-16.179 55.743 22.016c8.444 3.528 20.699 1.857 28.364-5.887 6.928-6.928 9.445-17.049 6.569-26.415s-10.639-16.331-20.261-18.178l-35.198-6.755 16.181-16.181 55.743 22.016c8.444 3.528 20.699 1.857 28.364-5.887 6.928-6.928 9.445-17.049 6.569-26.415s-10.639-16.331-20.261-18.178l-35.198-6.755 16.181-16.181 55.743 22.016c8.444 3.528 20.699 1.857 28.364-5.887 6.928-6.928 9.445-17.05 6.569-26.416-2.875-9.366-10.639-16.331-20.261-18.177l-35.189-6.753 16.178-16.178 55.732 22.012c8.349 3.546 20.923 1.794 28.373-5.891 6.93-6.927 9.448-17.046 6.574-26.41zm-253.296 28.78c2.195-2.195 5.03-3.357 7.984-3.357 4.226-.276 10.313 3.701 11.271 9.269l8.67 45.178-10.844 10.844-19.624-49.686c-1.668-4.227-.67-9.035 2.543-12.248zm-110.072 53.93-10.62 75.58c-1.847 13.143-7.054 25.687-15.059 36.273l-42.126 55.716-15.977 8.871zm210.33-144.481c-1.669-4.227-.672-9.035 2.542-12.248 2.195-2.195 5.031-3.357 7.985-3.357 4.226-.276 10.313 3.702 11.271 9.27l8.67 45.177-10.844 10.844zm-48.858 39.151c2.195-2.195 5.03-3.357 7.984-3.357 4.226-.276 10.313 3.701 11.271 9.269l8.67 45.177-10.844 10.844-19.623-49.685c-1.669-4.227-.672-9.034 2.542-12.248zm-105.339 115.051c-1.195-3.287-1.252-8.18 2.541-12.254 3.036-3.035 7.298-4.096 11.405-2.835 4.108 1.261 7.045 4.532 7.855 8.749l8.667 45.179-11.34 11.339zm138.693 66.169c1.261 4.105.2 8.37-2.836 11.406-3.213 3.214-8.021 4.212-12.248 2.542l-49.686-19.624 10.844-10.844 45.178 8.67c4.217.81 7.488 3.744 8.748 7.85zm51.4-51.4c1.261 4.105.2 8.37-2.836 11.406-3.214 3.214-8.02 4.211-12.248 2.542l-49.686-19.624 10.844-10.844 45.178 8.67c4.217.811 7.487 3.745 8.748 7.85zm-111.549 94.944c4.218.811 7.49 3.747 8.75 7.855 1.26 4.106.2 8.37-2.835 11.405-2.588 2.424-6.908 4.401-12.335 2.509l-50.225-19.144c2.496-2.387 11.463-11.292 11.463-11.292zm154.199-154.192c4.218.809 7.488 3.743 8.749 7.849 1.261 4.105.2 8.37-2.836 11.407-3.213 3.214-8.02 4.211-12.248 2.542l-49.684-19.623 10.844-10.844zm57.314-32.148c-3.124 2.457-6.548 4.475-12.252 2.548l-48.679-19.226 12.611-10.715 42.409 8.141c4.218.811 7.489 3.745 8.749 7.849s.199 8.367-2.838 11.403z"/></g></svg>