<svg height="512pt" viewBox="0 0 512 512.00175" width="512pt" xmlns="http://www.w3.org/2000/svg"><path d="m458.148438 138.753906 19.707031-19.703125c-3.195313-5.246093-.074219-14.960937 1.960937-23.90625-8.21875 1.984375-16.28125 3.757813-20.277344-.234375-3.492187-3.492187-2.5625-10.109375-.945312-17.21875-8.851562 2.140625 4.984375-19.667968.6875-23.96875-4.800781-4.796875-24.140625 8.726563-21.917969-1.03125-7.398437 1.789063-14.660156 3.386719-18.949219.78125l-25.84375 25.84375c-17.488281 17.488282-21.921874 43.070313-13.332031 64.667969 23.539063 18.042969 57.371094 16.3125 78.910157-5.230469zm0 0" fill="#ff637b"/><path d="m415.695312 181.210938-21.425781-21.421876h-122.183593l-63.957032 63.957032.078125.082031h207.316407l.171874-.171875c11.726563-11.714844 11.726563-30.726562 0-42.445312zm0 0" fill="#ff637b"/><path d="m146.089844 286.625h206.644531l62.789063-62.796875h-206.625zm0 0" fill="#ffda2d"/><path d="m267.863281 159.789062h126.40625l-49.785156-49.785156c-10.96875-4.75-24.191406-2.648437-33.152344 6.316406zm0 0" fill="#ffda2d"/><path d="m141.347656 294.871094-.46875.46875c-11.726562 11.726562-11.726562 30.738281 0 42.457031l13.105469 13.105469h134.363281l.050782.050781 56.089843-56.082031zm0 0" fill="#ff637b"/><path d="m288.398438 350.953125-63.730469 63.738281c-11.726563 11.730469-30.738281 11.730469-42.453125 0-1.625-1.625 11.925781 11.929688-63.730469-63.726562l.050781-.0625h169.8125zm0 0" fill="#ffda2d"/><path d="m76.871094 390.503906-25.636719 25.636719c.4375.273437.859375.582031 1.230469.953125 3.664062 3.664062 2.464844 10.769531.703125 18.273438 8.566406-2.082032-7.296875 19.441406-3.136719 23.601562 4.621094 4.621094 25.953125-8.90625 23.734375.554688 8.515625-2.066407 17.015625-4.113282 21.144531.015624 3.667969 3.667969 2.46875 10.777344.710938 18.28125 8.566406-2.078124 17.148437-4.179687 21.300781-.023437.375.371094.679687.792969.957031 1.230469l21.878906-21.878906c21.324219-21.324219 23.246094-54.699219 5.773438-78.207032-22.367188-10.855468-50.078125-7.019531-68.660156 11.5625zm0 0" fill="#ff637b"/><path d="m2.945312 424.179688c8.113282 8.101562 20.082032 5.199218 30.640626 2.636718 3.308593-.800781 8.449218-2.050781 11.289062-2.136718-.089844 2.835937-1.335938 7.96875-2.136719 11.273437-2.5625 10.566406-5.472656 22.550781 2.648438 30.65625 8.117187 8.128906 20.09375 5.222656 30.664062 2.65625 3.304688-.800781 8.4375-2.046875 11.273438-2.136719-.085938 2.839844-1.332031 7.984375-2.136719 11.289063-2.5625 10.558593-5.464844 22.527343 2.636719 30.640625.003906.003906.007812.007812.011719.011718 1.707031 1.710938 3.882812 2.671876 6.117187 2.886719.316406.03125.636719.042969.957031.042969.320313 0 .640625-.011719.957032-.042969 2.234374-.214843 4.40625-1.175781 6.117187-2.886719l44.847656-44.847656c13.226563-13.226562 20.515625-30.816406 20.515625-49.527344 0-.246093-.015625-.488281-.019531-.738281l7.804687 7.808594c15.636719 15.648437 40.960938 15.648437 56.609376 0 .101562-.101563 191.945312-191.921875 192.148437-192.210937 14.433594-15.617188 14.21875-40.089844-1.121094-55.417969l-7.839843-7.84375c.253906.003906.511718.019531.769531.019531 17.9375 0 35.871093-6.828125 49.527343-20.484375l43.84375-43.84375c3.910157-3.910156 3.910157-10.242187 0-14.152344-.003906-.003906-.007812-.007812-.011718-.011719-8.113282-8.101562-20.078125-5.195312-30.636719-2.636718-3.308594.804687-8.453125 2.054687-11.289063 2.136718.085938-2.832031 1.332032-7.96875 2.132813-11.269531 2.566406-10.570312 5.472656-22.550781-2.644531-30.660156-8.117188-8.128906-20.097656-5.21875-30.667969-2.65625-3.304687.804687-8.4375 2.046875-11.273437 2.136719.085937-2.835938 1.332031-7.980469 2.136718-11.289063 2.5625-10.558593 5.464844-22.523437-2.636718-30.640625-.003907-.003906-.007813-.007812-.011719-.011718-3.90625-3.90625-10.242188-3.90625-14.148438 0l-43.847656 43.847656c-13.234375 13.234375-20.519531 30.824218-20.519531 49.535156 0 .242188.015625.484375.019531.726562l-7.800781-7.800781c-15.632813-15.648437-40.960938-15.65625-56.601563-.003906-8.90625 8.902344-192.488281 192.363281-192.769531 192.886719-13.890625 15.734375-13.304688 39.71875 1.734375 54.746094l7.804687 7.804687c-.242187-.003906-.484374-.019531-.726562-.019531-.003906 0-.003906 0-.003906 0-18.707032 0-36.300782 7.289062-49.53125 20.519531l-44.847656 44.847656c-3.90625 3.90625-3.90625 10.242188 0 14.148438.007812.003906.011718.007812.015624.011719zm99.371094-127.308594h226.019532l-44.03125 44.027344h-161.734376l-18.1875-18.183594c-7.019531-7.015625-7.773437-17.960938-2.066406-25.84375zm62.652344-63.039063h77.882812c5.527344 0 10.007813-4.476562 10.007813-10.003906s-4.480469-10.007813-10.007813-10.007813h-57.871093l44.03125-44.027343h161.113281l18.496094 18.496093c6.9375 6.929688 7.746094 17.699219 2.292968 25.53125h-78.007812c-5.527344 0-10.007812 4.480469-10.007812 10.007813s4.480468 10.003906 10.007812 10.003906h58.464844l-43.019532 43.027344h-226.410156zm52.625 173.785157c-7.820312 7.824218-20.480469 7.832031-28.304688 0l-46.707031-46.707032h121.710938zm162.730469-346.6875 25.546875-25.546876c-1.789063 8.722657-2.335938 17.671876 4.148437 24.15625 8.117188 8.117188 20.089844 5.210938 30.652344 2.648438 3.304687-.804688 8.449219-2.050781 11.285156-2.136719-.085937 2.835938-1.335937 7.976563-2.136719 11.28125-2.566406 10.566407-5.46875 22.539063 2.644532 30.652344 4.015625 4.011719 8.96875 5.335937 14.230468 5.335937 3.242188 0 6.601563-.507812 9.929688-1.191406l-25.550781 25.550782c-17.082031 17.085937-43.546875 19.207031-62.960938 6.367187l13.433594-13.4375c3.90625-3.90625 3.90625-10.242187 0-14.152344-3.90625-3.90625-10.242187-3.90625-14.152344 0l-13.441406 13.445313c-12.546875-18.894532-11.164063-45.4375 6.371094-62.972656zm-84.898438 42.453124c7.808594-7.816406 20.46875-7.828124 28.289063.003907l46.398437 46.394531h-121.089843zm-233.496093 275.941407c17.542968-17.542969 44.082031-18.917969 62.972656-6.371094l-13.441406 13.441406c-3.910157 3.90625-3.910157 10.242188 0 14.152344 3.90625 3.90625 10.242187 3.90625 14.148437 0l13.441406-13.441406c12.765625 19.226562 10.90625 45.695312-6.367187 62.96875l-26.550782 26.546875c1.792969-8.722656 2.339844-17.667969-4.144531-24.15625-8.117187-8.113282-20.089843-5.210938-30.652343-2.648438-3.308594.804688-8.449219 2.050782-11.285157 2.136719.085938-2.832031 1.335938-7.976563 2.136719-11.28125 2.5625-10.566406 5.46875-22.535156-2.648438-30.652344-6.484374-6.484375-15.433593-5.9375-24.15625-4.148437zm0 0"/><path d="m297.886719 223.828125c0 5.523437-4.480469 10.003906-10.007813 10.003906s-10.007812-4.480469-10.007812-10.003906c0-5.527344 4.480468-10.007813 10.007812-10.007813s10.007813 4.480469 10.007813 10.007813zm0 0"/></svg>