<svg height="512pt" viewBox="-86 0 512 512" width="512pt" xmlns="http://www.w3.org/2000/svg"><path d="m300 10h-72.089844c-10.007812 4.859375-16.910156 15.121094-16.910156 27v272c0 16.570312 13.429688 30 30 30h72.089844c10.007812-4.859375 16.910156-15.121094 16.910156-27v-272c0-16.570312-13.429688-30-30-30zm0 0" fill="#7fe881"/><path d="m243 469c0 13.824219 9.351562 25.457031 22.074219 28.933594 8.921875-5.199219 14.925781-14.859375 14.925781-25.933594v-130h-37zm0 0" fill="#fff4ca"/><path d="m52 44v272c0 11.121094 6.054688 20.816406 15.039062 26h72.960938c16.570312 0 30-13.429688 30-30v-272c0-11.121094-6.054688-20.816406-15.039062-26h-72.960938c-16.570312 0-30 13.429688-30 30zm0 0" fill="#ff637b"/><path d="m84 470c0 13.171875 8.488281 24.347656 20.289062 28.386719 9.359376-5.078125 15.710938-14.992188 15.710938-26.386719v-130h-36zm0 0" fill="#fff4ca"/><path d="m250 512c22.054688 0 40-17.945312 40-40v-120h10c22.054688 0 40-17.945312 40-40v-272c0-22.054688-17.945312-40-40-40h-100c-11.9375 0-22.664062 5.265625-30 13.585938-7.335938-8.320313-18.0625-13.585938-30-13.585938h-100c-22.054688 0-40 17.945312-40 40v272c0 22.054688 17.945312 40 40 40h10v120c0 22.054688 17.945312 40 40 40s40-17.945312 40-40v-120h10c11.9375 0 22.664062-5.265625 30-13.585938 7.335938 8.320313 18.0625 13.585938 30 13.585938h10v120c0 22.054688 17.945312 40 40 40zm-140-40c0 11.027344-8.972656 20-20 20s-20-8.972656-20-20v-120h40zm70-160v-91c0-5.523438-4.476562-10-10-10s-10 4.476562-10 10v91c0 11.027344-8.972656 20-20 20h-100c-11.027344 0-20-8.972656-20-20v-272c0-11.027344 8.972656-20 20-20h100c11.027344 0 20 8.972656 20 20v91c0 5.523438 4.476562 10 10 10s10-4.476562 10-10v-91c0-11.027344 8.972656-20 20-20h100c11.027344 0 20 8.972656 20 20v272c0 11.027344-8.972656 20-20 20h-100c-11.027344 0-20-8.972656-20-20zm90 40v120c0 11.027344-8.972656 20-20 20s-20-8.972656-20-20v-120zm0 0"/><path d="m180 176c0 5.523438-4.476562 10-10 10s-10-4.476562-10-10 4.476562-10 10-10 10 4.476562 10 10zm0 0"/></svg>