<svg id="Capa_1" enable-background="new 0 0 512 512" height="512" viewBox="0 0 512 512" width="512" xmlns="http://www.w3.org/2000/svg"><g><g><path d="m383.012 44.983-33.589 33.589c10.67 4.195 19.029 13.01 22.6 23.975l34.276-34.276z" fill="#6e61b6"/><path d="m262.503 121.669h100.797v29.118h-100.797z" fill="#6e61b6"/><path d="m262.503 121.669h33.699v29.118h-33.699z" fill="#54469c"/><g><path d="m442.323 43.608-26.807 26.807c-1.953 1.953-5.118 1.953-7.071 0l-27.578-27.578c-1.953-1.953-1.953-5.118 0-7.071l26.807-26.807c1.953-1.953 5.118-1.953 7.071 0l27.578 27.578c1.953 1.953 1.953 5.119 0 7.071z" fill="#54469c"/></g><g><path d="m406.079 42.837c-1.953-1.953-1.953-5.118 0-7.071l17.737-17.737-9.071-9.071c-1.953-1.953-5.118-1.953-7.071 0l-26.807 26.807c-1.953 1.953-1.953 5.118 0 7.071l27.578 27.578c1.953 1.953 5.118 1.953 7.071 0l9.071-9.071z" fill="#463b84"/></g><g><path d="m371.914 121.669h-118.024c-1.657 0-3-1.343-3-3v-40.763c0-1.657 1.343-3 3-3h81.476c21.841 0 39.547 17.706 39.547 39.547v4.216c.001 1.657-1.342 3-2.999 3z" fill="#eaf6ff"/></g><g><path d="m284 118.669v-40.763c0-1.657 1.343-3 3-3h-33.11c-1.657 0-3 1.343-3 3v40.763c0 1.657 1.343 3 3 3h33.11c-1.657 0-3-1.343-3-3z" fill="#d8ecfe"/></g></g><g><path d="m15.173 432.966c-2.761 0-5 2.239-5 5v25.657h213.466v-20.438c0-3.84 1.286-7.37 3.43-10.219z" fill="#dcfcee"/><path d="m44.173 437.966c0-2.761 2.239-5 5-5h-34c-2.761 0-5 2.239-5 5v25.657h34z" fill="#c2fae3"/><g><g><ellipse cx="50.609" cy="420.244" fill="#0ed290" rx="15.389" ry="24.985" transform="matrix(.707 -.707 .707 .707 -282.335 158.873)"/></g><g><ellipse cx="88.752" cy="420.244" fill="#1ee6a6" rx="24.985" ry="15.389" transform="matrix(.707 -.707 .707 .707 -271.163 185.844)"/></g></g><g><g><ellipse cx="147.332" cy="420.244" fill="#0ed290" rx="15.389" ry="24.985" transform="matrix(.707 -.707 .707 .707 -254.005 227.266)"/></g><g><ellipse cx="185.474" cy="420.244" fill="#1ee6a6" rx="24.985" ry="15.389" transform="matrix(.707 -.707 .707 .707 -242.834 254.237)"/></g></g><path d="m10.173 463.624v30.876c0 5.523 4.477 10 10 10h203.466v-40.876z" fill="#bb5d4c"/><g><path d="m44.173 494.5v-30.876h-34v30.876c0 5.523 4.477 10 10 10h34c-5.523 0-10-4.477-10-10z" fill="#a44f3e"/></g><g><path d="m289.327 255.803v27.282c0 3.135 2.542 5.677 5.677 5.677h17.111c3.135 0 5.677-2.542 5.677-5.677v-27.282z" fill="#6e61b6"/></g><g><path d="m266.529 196.55h74.063v32.657h-74.063z" fill="#6e61b6"/></g><g><path d="m266.529 196.55h25.408v32.657h-25.408z" fill="#54469c"/></g><g><path d="m355.669 256.803h-104.218c-3.135 0-5.677-2.542-5.677-5.677v-17.241c0-3.135 2.542-5.677 5.677-5.677h104.217c3.135 0 5.677 2.542 5.677 5.677v17.241c.001 3.136-2.541 5.677-5.676 5.677z" fill="#eaf6ff"/></g><g><path d="m279.428 251.126v-17.241c0-3.135 2.542-5.677 5.677-5.677h-33.654c-3.135 0-5.677 2.542-5.677 5.677v17.241c0 3.135 2.542 5.677 5.677 5.677h33.654c-3.135 0-5.677-2.541-5.677-5.677z" fill="#d8ecfe"/></g><path d="m476.936 247.437-70.932-87.404c-4.747-5.849-11.879-9.246-19.412-9.246h-145.637c-2.761 0-5 2.239-5 5v36.763c0 2.761 2.239 5 5 5h129.357l38.01 56.773v41.838h74.203v-32.97c-.001-5.737-1.974-11.299-5.589-15.754z" fill="#eaf6ff"/><g><g><path d="m265.431 192.55v-36.763c0-2.761 2.239-5 5-5h-29.476c-2.761 0-5 2.239-5 5v36.763c0 2.761 2.239 5 5 5h29.476c-2.762 0-5-2.238-5-5z" fill="#d8ecfe"/></g></g><path d="m373.52 357.838h34.801v68.316h-34.801z" fill="#6e61b6"/><path d="m408.321 325.683h-172.191c-3.135 0-5.677 2.542-5.677 5.677v20.8c0 3.135 2.542 5.677 5.677 5.677h172.192v-32.154z" fill="#eaf6ff"/><g><path d="m264 352.16v-20.8c0-3.135 2.542-5.677 5.677-5.677h-33.547c-3.135 0-5.677 2.542-5.677 5.677v20.8c0 3.135 2.542 5.677 5.677 5.677h33.548c-3.136.001-5.678-2.541-5.678-5.677z" fill="#d8ecfe"/></g><g><path d="m223.639 477.63v26.87h42.819c2.761 0 5-2.239 5-5v-21.87z" fill="#6e61b6"/></g><g><path d="m223.639 477.63h25.361v26.87h-25.361z" fill="#54469c"/></g><g><path d="m434.704 477.63v21.87c0 2.761 2.239 5 5 5h37.819c2.761 0 5-2.239 5-5v-21.87z" fill="#6e61b6"/></g><g><path d="m458.524 499.5v-21.87h-23.819v21.87c0 2.761 2.239 5 5 5h23.819c-2.761 0-5-2.239-5-5z" fill="#54469c"/></g><path d="m468.898 327.369c4.861 0 9.472 1.062 13.626 2.953v-34.16h-74.203v129.992h74.203v-35.881c-4.153 1.891-8.764 2.953-13.626 2.953-18.186 0-32.928-14.742-32.928-32.928s14.743-32.929 32.928-32.929z" fill="#d8ecfe"/><path d="m338.321 426.153v-23.845c0-3.135-2.542-5.677-5.677-5.677h-58.306c-3.135 0-5.677 2.542-5.677 5.677v23.845z" fill="#6e61b6"/><path d="m294 426.153v-23.845c0-3.135 2.542-5.677 5.677-5.677h-25.34c-3.135 0-5.677 2.542-5.677 5.677v23.845z" fill="#54469c"/><g><path d="m482.524 478.63h-258.885v-35.445c0-9.406 7.625-17.032 17.032-17.032h241.853z" fill="#eaf6ff"/></g><g><path d="m270.147 426.153h-29.476c-9.406 0-17.032 7.625-17.032 17.032v35.445h29.476v-35.445c.001-9.406 7.626-17.032 17.032-17.032z" fill="#d8ecfe"/></g><g><circle cx="468.898" cy="360.297" fill="#6e61b6" r="32.928"/></g><g><path d="m463.143 360.297c0-13.34 7.937-24.818 19.342-29.993-4.143-1.88-8.74-2.936-13.587-2.936-18.186 0-32.928 14.742-32.928 32.928s14.742 32.928 32.928 32.928c4.846 0 9.443-1.055 13.587-2.936-11.405-5.173-19.342-16.652-19.342-29.991z" fill="#54469c"/></g><g><path d="m26.07 180.323v97.209c0 1.786.953 3.437 2.5 4.33l84.186 48.605c1.547.893 3.453.893 5 0l84.186-48.605c1.547-.893 2.5-2.544 2.5-4.33v-97.209c0-1.786-.953-3.437-2.5-4.33l-84.186-48.605c-1.547-.893-3.453-.893-5 0l-84.186 48.605c-1.547.893-2.5 2.543-2.5 4.33z" fill="#b3dafe"/></g><g><path d="m55.314 194.819c0-1.899 1.013-3.654 2.658-4.604l84.302-48.672-24.519-14.156c-1.547-.893-3.453-.893-5 0l-84.185 48.605c-1.547.893-2.5 2.544-2.5 4.33v97.209c0 1.786.953 3.437 2.5 4.33l26.744 15.441z" fill="#8ac9fe"/></g><g><circle cx="125.131" cy="225.865" fill="#1ee6a6" r="17.032"/></g><g><path d="m152.737 147.584c-4.553 3.955-7.445 9.773-7.445 16.278 0 11.915 9.659 21.574 21.574 21.574 10.51 0 19.255-7.52 21.173-17.47z" fill="#1ee6a6"/></g></g><g><path d="m149.663 225.865c0-13.527-11.005-24.532-24.532-24.532s-24.532 11.005-24.532 24.532 11.005 24.532 24.532 24.532c13.527-.001 24.532-11.005 24.532-24.532zm-24.532 9.531c-5.256 0-9.532-4.276-9.532-9.532s4.276-9.532 9.532-9.532 9.532 4.276 9.532 9.532-4.276 9.532-9.532 9.532z"/><path d="m24.82 288.357 84.185 48.604c1.928 1.114 4.09 1.671 6.251 1.671s4.322-.557 6.25-1.67l58.349-33.688 21.449 21.45c1.464 1.465 3.384 2.197 5.303 2.197s3.839-.732 5.303-2.197c2.929-2.929 2.929-7.678 0-10.606l-18.607-18.608 12.388-7.152c3.855-2.226 6.25-6.374 6.25-10.825v-35.533c0-4.142-3.358-7.5-7.5-7.5s-7.5 3.358-7.5 7.5v34.089l-14.619 8.44-10.153-10.153c-2.928-2.929-7.677-2.929-10.606 0s-2.929 7.678 0 10.606l7.311 7.311-53.618 30.957-81.686-47.161v-94.323l81.686-47.162 26.226 15.142c-2.387 4.274-3.689 9.12-3.689 14.117 0 16.031 13.042 29.073 29.074 29.073 10.438 0 19.79-5.589 24.924-14.144l5.151 2.974v25.234c0 4.142 3.358 7.5 7.5 7.5s7.5-3.358 7.5-7.5v-26.677c0-4.452-2.395-8.6-6.25-10.825l-84.187-48.605c-3.855-2.226-8.645-2.225-12.499 0l-84.186 48.605c-3.855 2.226-6.25 6.374-6.25 10.825v97.209c0 4.452 2.395 8.6 6.25 10.825zm129.642-131.116 24.35 14.058c-2.508 4.024-6.975 6.637-11.945 6.637-7.76 0-14.074-6.313-14.074-14.073 0-2.334.585-4.604 1.669-6.622z"/><path d="m57.377 244.406c-2.929 2.929-2.929 7.678 0 10.606l13.625 13.625c1.464 1.464 3.384 2.197 5.303 2.197s3.839-.732 5.303-2.197c2.929-2.929 2.929-7.678 0-10.606l-13.625-13.625c-2.928-2.928-7.677-2.928-10.606 0z"/><path d="m85.875 186.946c-2.929-2.929-7.678-2.929-10.606 0l-13.625 13.625c-2.929 2.929-2.929 7.678 0 10.606 1.464 1.464 3.384 2.197 5.303 2.197s3.839-.732 5.303-2.197l13.625-13.625c2.929-2.928 2.929-7.677 0-10.606z"/><path d="m166.673 240.88-7.948 7.948c-2.929 2.929-2.929 7.678 0 10.606 1.464 1.464 3.384 2.197 5.303 2.197s3.839-.732 5.303-2.197l7.948-7.948c2.929-2.929 2.929-7.678 0-10.606-2.928-2.929-7.677-2.929-10.606 0z"/><circle cx="122.016" cy="287.06" r="8.516"/><circle cx="104.984" cy="162.159" r="8.516"/><path d="m490.024 325.844v-62.653c0-7.434-2.58-14.707-7.264-20.479l-23.515-28.976c-2.611-3.217-7.334-3.707-10.55-1.098-3.216 2.61-3.708 7.333-1.098 10.55l23.515 28.976c2.522 3.108 3.912 7.025 3.912 11.027v25.47h-59.203v-34.338c0-1.486-.441-2.938-1.268-4.172l-38.009-56.773c-1.393-2.08-3.73-3.328-6.232-3.328h-126.857v-31.763h143.137c5.297 0 10.25 2.359 13.588 6.472l25.361 31.251c2.611 3.217 7.334 3.707 10.55 1.098 3.216-2.61 3.708-7.333 1.098-10.55l-25.362-31.251c-6.199-7.639-15.397-12.02-25.235-12.02h-15.791v-14.118h1.113c5.79 0 10.5-4.71 10.5-10.5v-4.216c0-3.608-.422-7.118-1.195-10.496l25.668-25.668c1.583.708 3.307 1.091 5.094 1.091 3.338 0 6.478-1.3 8.838-3.661l26.808-26.807c2.361-2.361 3.661-5.5 3.661-8.839s-1.3-6.478-3.661-8.839l-27.579-27.578c-4.874-4.875-12.805-4.874-17.677 0l-26.807 26.808c-2.361 2.361-3.661 5.5-3.661 8.839 0 1.786.383 3.51 1.091 5.093l-24.802 24.802c-4.08-1.158-8.379-1.791-12.825-1.791h-81.476c-5.79 0-10.5 4.71-10.5 10.5v40.763c0 5.79 4.71 10.5 10.5 10.5h1.113v14.118h-14.049c-6.893 0-12.5 5.607-12.5 12.5v36.763c0 6.893 5.607 12.5 12.5 12.5h18.074v15.657h-7.577c-7.266 0-13.178 5.911-13.178 13.177v17.241c0 7.266 5.912 13.177 13.178 13.177h5.564v19.918c0 4.142 3.358 7.5 7.5 7.5s7.5-3.358 7.5-7.5v-19.918h9.811v18.782c0 7.266 5.911 13.178 13.177 13.178h17.111c7.266 0 13.177-5.912 13.177-13.178v-18.782h10.069v19.918c0 4.142 3.358 7.5 7.5 7.5s7.5-3.358 7.5-7.5v-19.918h5.307c7.266 0 13.177-5.911 13.177-13.177v-17.241c0-7.266-5.911-13.177-13.177-13.177h-7.577v-15.658h18.216l34.514 51.552v61.581h-164.692c-7.266 0-13.177 5.911-13.177 13.177v20.8c0 7.266 5.911 13.177 13.177 13.177h129.891v53.316h-20.199v-16.345c0-7.266-5.911-13.177-13.177-13.177h-58.306c-7.266 0-13.177 5.911-13.177 13.177v16.345h-20.489c-6.566 0-12.532 2.598-16.94 6.813h-14.611c3.413-7.835 3.931-16.763 1.145-25.233-.744-2.262-2.519-4.037-4.781-4.781-10.866-3.573-22.49-1.722-31.582 4.734v-1.284c0-4.142-3.358-7.5-7.5-7.5s-7.5 3.358-7.5 7.5v1.284c-9.092-6.456-20.715-8.308-31.583-4.734-2.262.744-4.037 2.519-4.781 4.781-2.786 8.47-2.267 17.398 1.145 25.233h-11.287c3.413-7.835 3.931-16.763 1.145-25.233-.744-2.262-2.519-4.037-4.781-4.781-10.867-3.573-22.49-1.722-31.582 4.734v-1.284c0-4.142-3.358-7.5-7.5-7.5s-7.5 3.358-7.5 7.5v1.284c-9.092-6.456-20.714-8.308-31.583-4.734-2.262.744-4.037 2.519-4.781 4.781-2.786 8.47-2.267 17.398 1.145 25.233h-11.787c-6.893 0-12.5 5.607-12.5 12.5v56.534c0 9.649 7.851 17.5 17.5 17.5h246.286c6.893 0 12.5-5.607 12.5-12.5v-13.37h21.041c4.142 0 7.5-3.358 7.5-7.5s-3.358-7.5-7.5-7.5h-68.86v-27.945c0-5.256 4.276-9.532 9.532-9.532h234.353v37.477h-140.025c-4.142 0-7.5 3.358-7.5 7.5s3.358 7.5 7.5 7.5h92.205v13.37c0 6.893 5.607 12.5 12.5 12.5h37.819c6.893 0 12.5-5.607 12.5-12.5v-104.75c11.57-7.121 19.303-19.899 19.303-34.453s-7.733-27.332-19.303-34.453zm-134.223-182.557h-85.797v-14.118h85.797zm55.408-127.257 24.043 24.042-23.272 23.272-24.042-24.042zm-28.197 39.559 12.681 12.681-20.767 20.767c-3.27-5.072-7.485-9.475-12.399-12.963zm-124.621 26.817h76.976c17.576 0 31.893 14.223 32.046 31.763h-109.022zm15.637 122.644h59.063v15.657h-59.063zm36.265 76.213h-13.466v-16.96h13.466zm43.553-45.555v13.596h-100.572v-13.596zm-173.95 178.958c4.54-4.54 10.794-6.629 17.002-5.845.782 6.208-1.306 12.462-5.845 17.002-4.539 4.539-10.793 6.629-17.001 5.844-.783-6.207 1.304-12.462 5.844-17.001zm-43.987-5.845c6.205-.782 12.462 1.306 17.002 5.845s6.627 10.793 5.845 17.001c-6.209.785-12.463-1.305-17.001-5.844-4.541-4.539-6.629-10.794-5.846-17.002zm.066 31.645c5.965 4.168 12.997 6.371 20.187 6.371.912 0 1.826-.042 2.741-.114v9.4h-81.722v-9.394c.915.071 1.829.107 2.741.107 7.189 0 14.221-2.203 20.186-6.371h35.867zm-52.802-25.8c4.541-4.54 10.796-6.629 17.002-5.845.782 6.208-1.306 12.462-5.845 17.002-4.539 4.539-10.792 6.629-17.001 5.844-.783-6.207 1.305-12.462 5.844-17.001zm-43.987-5.845c6.204-.782 12.462 1.305 17.002 5.845 4.539 4.54 6.627 10.794 5.845 17.001-6.207.785-12.463-1.305-17.001-5.844-4.54-4.539-6.628-10.794-5.846-17.002zm-21.513 31.645h21.579c5.965 4.168 12.997 6.371 20.187 6.371.912 0 1.826-.036 2.741-.107v9.394h-44.507zm198.467 56.534h-195.967c-1.378 0-2.5-1.122-2.5-2.5v-23.376h198.467zm0-53.815v12.938h-42.236v-9.4c.915.072 1.829.114 2.741.114 7.189 0 14.221-2.203 20.186-6.371h19.463c-.099.894-.154 1.8-.154 2.719zm47.819 42.945v10.87h-32.819v-10.87zm66.862-67.477h-54.661v-14.522h54.661zm70 0h-19.801v-53.316h19.801zm0-68.316h-162.869v-17.154h162.869zm74.203 146.663h-32.819v-10.87h32.819zm0-78.347h-59.203v-114.992h59.203v16.671c-1.998-.305-4.044-.464-6.125-.464-22.292 0-40.428 18.136-40.428 40.428s18.136 40.428 40.428 40.428c2.082 0 4.127-.159 6.125-.464zm-6.126-32.928c-14.021 0-25.428-11.407-25.428-25.428s11.407-25.428 25.428-25.428 25.428 11.407 25.428 25.428-11.407 25.428-25.428 25.428z"/></g></g></svg>