<svg height="512pt" viewBox="-126 0 512 512.001" width="512pt" xmlns="http://www.w3.org/2000/svg"><path d="m186.253906 335.621094 21.210938-59.769532-29.808594-7.851562h-71.960938l-22.660156 7.46875 21.480469 60.53125 1.078125-.378906zm0 0" fill="#ffda2d"/><path d="m229.476562 197.210938c31.628907-46.691407 26.769532-110.710938-14.589843-152.0625-7.589844-7.585938-15.941407-13.9375-24.808594-19.070313-38.964844-8.976563-81.539063 1.710937-111.894531 32.070313-41.359375 41.351562-46.21875 105.371093-14.589844 152.0625-26.359375 17.082031-25.683594 51.074218-7.40625 69.746093 15.007812-.398437 28.359375-8.054687 36.347656-20.078125 6.949219 10.449219 17.164063 16.804688 28.101563 19.113282 1.789062-1.886719 3.441406-3.917969 4.898437-6.113282 1.738282 2.617188 3.6875 4.96875 5.796875 7.074219 13.855469-.390625 27.558594-7.070313 36.203125-20.074219 6.507813 9.792969 16.554688 16.660156 28.121094 19.113282 1.753906-1.859376 3.398438-3.882813 4.878906-6.113282 1.710938 2.574219 3.667969 4.941406 5.828125 7.085938.828125-.023438 1.652344-.046875 2.484375-.113282 41.957032-3.203124 56.929688-59.121093 20.628906-82.640624zm0 0" fill="#ffa2c3"/><path d="m101.609375 340 22.734375 64.101562.273438-.101562h40.183593l22.566407-63.621094-1.082032-.378906zm0 0" fill="#8c4a37"/><path d="m143.222656 464.824219 20.832032-58.722657-.269532-.101562h-41.429687zm0 0" fill="#ffda2d"/><path d="m200.035156 130c0-5.519531-4.480468-10-10-10-5.519531 0-10 4.480469-10 10s4.480469 10 10 10c5.519532 0 10-4.480469 10-10zm0 0"/><path d="m170.035156 70c0-5.519531-4.480468-10-10-10-5.519531 0-10 4.480469-10 10s4.480469 10 10 10c5.519532 0 10-4.480469 10-10zm0 0"/><path d="m130.035156 140c5.519532 0 10-4.480469 10-10s-4.480468-10-10-10c-5.519531 0-10 4.480469-10 10s4.480469 10 10 10zm0 0"/><path d="m100.035156 80c5.519532 0 10-4.480469 10-10s-4.480468-10-10-10c-5.519531 0-10 4.480469-10 10s4.480469 10 10 10zm0 0"/><path d="m60.035156 130c0 5.519531 4.480469 10 10 10 5.519532 0 10-4.480469 10-10s-4.480468-10-10-10c-5.519531 0-10 4.480469-10 10zm0 0"/><path d="m140.035156 10c0 5.523438-4.476562 10-10 10-5.523437 0-10-4.476562-10-10s4.476563-10 10-10c5.523438 0 10 4.476562 10 10zm0 0"/><path d="m177.925781 9.109375c-5.132812-2.03125-10.945312.484375-12.976562 5.621094-2.03125 5.132812.484375 10.945312 5.621093 12.976562 64.816407 25.648438 90.179688 105.507813 50.625 163.894531-1.507812 2.226563-2.054687 4.964844-1.519531 7.597657.535157 2.636719 2.105469 4.941406 4.363281 6.40625 15.488282 10.035156 17.804688 26.199219 14.800782 37.980469-7.871094 30.910156-46.90625 34.945312-62.976563 10.761718-1.855469-2.789062-4.980469-4.464844-8.328125-4.464844s-6.472656 1.675782-8.328125 4.460938c-6.609375 9.945312-17.242187 15.648438-29.164062 15.648438-11.929688 0-22.566407-5.703126-29.179688-15.648438-1.855469-2.789062-4.980469-4.464844-8.332031-4.460938-3.347656 0-6.472656 1.675782-8.324219 4.464844-15.824219 23.808594-55.007812 20.605469-63.003906-10.792968-2.996094-11.757813-.671875-27.902344 14.832031-37.953126 2.253906-1.460937 3.828125-3.769531 4.359375-6.402343.535157-2.632813-.011719-5.371094-1.519531-7.597657-39.539062-58.363281-14.21875-138.234374 50.628906-163.894531 5.132813-2.03125 7.648438-7.84375 5.617188-12.976562-2.03125-5.136719-7.839844-7.652344-12.976563-5.621094-73.117187 28.933594-104.535156 116.921875-64.792969 185.78125-14.5625 13.523437-20.613281 33.632813-15.527343 53.597656 5.371093 21.089844 21.515625 36.378907 42.007812 40.429688l76.78125 216.425781c1.414063 3.992188 5.1875 6.65625 9.421875 6.65625s8.011719-2.664062 9.425782-6.65625l76.78125-216.429688c20.492187-4.058593 36.617187-19.328124 41.984374-40.390624 5.089844-19.992188-.953124-40.109376-15.507812-53.632813 39.773438-68.910156 8.261719-156.875-64.792969-185.78125zm-85.386719 266.132813c10.070313 9.390624 23.398438 14.75 37.503907 14.75 14.101562-.003907 27.425781-5.363282 37.492187-14.75 7.628906 7.121093 17.132813 11.917968 27.429688 13.828124l-14.519532 40.929688h-100.816406l-14.523437-40.929688c10.296875-1.910156 19.804687-6.707031 27.433593-13.828124zm64.492188 120.757812h-53.988281l-16.320313-46h86.625zm-26.996094 76.089844-19.898437-56.089844h39.796875zm0 0"/></svg>