<svg height="512pt" viewBox="-96 0 512 512" width="512pt" xmlns="http://www.w3.org/2000/svg"><path d="m190 365.796875-33.96875-.046875-.03125.078125v107.171875c0 11.496094 6.46875 21.476562 15.960938 26.515625 10.617187-4.621094 18.039062-15.199219 18.039062-27.515625zm0 0" fill="#fff4ca"/><path d="m253.375 76.394531c-10.320312-4.125-21.582031-6.394531-33.375-6.394531 0-17.761719-7.722656-33.714844-19.984375-44.699219-1.980469-.195312-3.984375-.300781-6.015625-.300781-33.140625 0-60 26.859375-60 60-49.710938 0-90 40.289062-90 90 0 16.511719 4.640625 31.851562 12.398438 45.148438-8.972657 15.492187-12.398438 34.011718-12.398438 44.851562 0 29.09375 14.601562 56.058594 37.617188 72.648438 3.710937.773437 7.507812 1.347656 11.394531 1.652343 3.0625 3.492188 6.367187 6.726563 9.875 9.691407 7.574219 2.800781 15.648437 4.644531 24.125 5.308593 4.585937 5.230469 9.707031 9.886719 15.257812 13.898438 5.75 1.179687 11.679688 1.800781 17.730469 1.800781 26.230469 0 50.167969-11.527344 66.988281-30.699219 47.886719-3.757812 83.011719-44.210937 83.011719-89.300781 0-11.902344-4.054688-30.355469-12.269531-44.621094-.039063-.078125-.089844-.148437-.128907-.230468 7.757813-13.296876 12.398438-28.636719 12.398438-45.148438 0-30.105469-14.777344-56.75-37.472656-73.089844-5.980469-1.25-12.175782-1.910156-18.527344-1.910156 0-2.921875-.21875-5.792969-.625-8.605469zm0 0" fill="#ffa2c3"/><path d="m110.496094 165.359375c-3.902344 3.910156-3.898438 10.238281.007812 14.144531 13.226563 13.21875 30.804688 20.496094 49.496094 20.496094s36.269531-7.277344 49.496094-20.496094c3.90625-3.902344 3.910156-10.234375.007812-14.144531-3.902344-3.90625-10.234375-3.90625-14.144531-.003906-9.449219 9.445312-22.007813 14.644531-35.359375 14.644531s-25.910156-5.199219-35.359375-14.644531c-3.910156-3.902344-10.242187-3.902344-14.144531.003906zm0 0"/><path d="m170 10c0 5.523438-4.476562 10-10 10s-10-4.476562-10-10 4.476562-10 10-10 10 4.476562 10 10zm0 0"/><path d="m229.359375 60.433594c-2.09375-15.472656-9.253906-29.683594-20.6875-40.746094-3.972656-3.839844-10.300781-3.734375-14.140625.234375-3.84375 3.96875-3.738281 10.296875.230469 14.140625 9.828125 9.503906 15.238281 22.269531 15.238281 35.9375 0 5.523438 4.476562 10 10 10 44.113281 0 80 35.886719 80 80 0 43.492188-35.453125 80-80 80-5.523438 0-10 4.476562-10 10s4.476562 10 10 10c29.214844 0 56.855469-12.957031 75.675781-34.679688 2.628907 8.128907 4.324219 19.601563 4.324219 24.679688 0 39.710938-30.527344 75.9375-73.792969 79.328125-2.597656.207031-5.015625 1.417969-6.734375 3.375-15.09375 17.203125-36.367187 27.296875-59.472656 27.296875-23.085938 0-44.367188-10.082031-59.472656-27.296875-1.722656-1.957031-4.136719-3.167969-6.734375-3.375-43.839844-3.4375-73.792969-40.300781-73.792969-79.328125 0-5.09375 1.695312-16.53125 4.3125-24.644531 18.875 21.898437 46.296875 34.644531 75.6875 34.644531 5.523438 0 10-4.476562 10-10s-4.476562-10-10-10c-44.78125 0-80-36.398438-80-80 0-44.113281 35.886719-80 80-80 5.523438 0 10-4.476562 10-10 0-13.667969 5.410156-26.433594 15.234375-35.9375 3.96875-3.84375 4.074219-10.171875.234375-14.140625-3.839844-3.972656-10.171875-4.074219-14.140625-.234375-11.433594 11.0625-18.597656 25.273438-20.6875 40.746094-50.765625 4.738281-90.640625 47.582031-90.640625 99.566406 0 15.542969 3.796875 31.046875 11.019531 45.175781-7.496093 14.863281-11.019531 33.496094-11.019531 44.824219 0 48.964844 37.195312 92.773438 88.210938 98.871094 9.105468 9.59375 19.949218 17.28125 31.789062 22.589844v100.539062c0 22.054688 17.945312 40 40 40s40-17.945312 40-40v-100.539062c11.84375-5.3125 22.683594-13 31.789062-22.589844 51.242188-6.125 88.210938-50.121094 88.210938-98.871094 0-10.863281-3.210938-29.335938-11.019531-44.824219 7.222656-14.128906 11.019531-29.632812 11.019531-45.175781 0-51.984375-39.875-94.828125-90.640625-99.566406zm-69.359375 431.566406c-11.027344 0-20-8.972656-20-20v-94.0625c6.535156 1.359375 13.222656 2.0625 20 2.0625s13.464844-.703125 20-2.0625v94.0625c0 11.027344-8.972656 20-20 20zm0 0"/></svg>