<svg id="Capa_1" enable-background="new 0 0 511.915 511.915" height="512" viewBox="0 0 511.915 511.915" width="512" xmlns="http://www.w3.org/2000/svg"><g><g><path d="m258.735 274.763h42.859v229.642h-42.859z" fill="#9be69d"/><path d="m280.394 274.763h21.2v229.642h-21.2z" fill="#6fd7a3"/><path d="m258.735 504.405-135.089-247.376c-4.076-7.463-15.434-4.329-15.107 4.168l2.226 57.708c2.315 59.993 26.762 117.003 68.626 160.036l24.772 25.463h54.572z" fill="#bbf49b"/><path d="m123.646 257.029c-4.075-7.463-15.434-4.329-15.107 4.168l.823 21.319c3.212-.718 6.841.418 8.796 3.998l119.377 217.891h21.2z" fill="#9be69d"/><path d="m301.594 504.405 78.105-113.842c4.305-6.275 14.133-3.228 14.133 4.382v42.06c0 37.224-30.176 67.4-67.4 67.4z" fill="#bbf49b"/><path d="m379.699 390.563-10.076 14.686c1.778 1.34 3.009 3.456 3.009 6.146v25.61c0 37.224-30.176 67.4-67.4 67.4h21.2c37.224 0 67.4-30.176 67.4-67.4v-42.06c0-7.611-9.827-10.658-14.133-4.382z" fill="#9be69d"/><g><path d="m213.914 77.653 3.809-23.552c2.199-13.594 15.65-22.322 28.96-18.791l16.625 4.41c7.89 2.093 16.303.567 22.955-4.164l32.977-23.451c4.299-3.057 9.443-4.7 14.718-4.7 14.026 0 25.397 11.371 25.397 25.397v111.431h-145.441z" fill="#fe646f"/><g><path d="m333.96 7.405c-3.672 0-7.274.813-10.579 2.328 8.72 4.022 14.776 12.835 14.776 23.069v111.431h21.2v-111.431c0-14.026-11.371-25.397-25.397-25.397z" fill="#fd4755"/></g><path d="m297.067 310.724c62.544 0 111.575-53.725 105.873-116.008l-8.627-94.238c-2.211-24.147-22.462-42.629-46.71-42.629-15.304 0-29.645 7.466-38.423 20.002l-60.011 85.704c-15.489 22.12-23.797 48.47-23.797 75.474 0 39.596 32.099 71.695 71.695 71.695z" fill="#fc8b96"/><path d="m402.94 194.716-8.628-94.238c-2.211-24.147-22.462-42.629-46.71-42.629-3.597 0-7.136.427-10.567 1.221 19.303 4.481 34.2 20.898 36.077 41.408l8.627 94.238c5.34 58.328-37.323 109.148-94.132 115.368 3.097.409 6.25.641 9.459.641 62.545-.001 111.576-53.726 105.874-116.009z" fill="#fe646f"/><path d="m263.262 310.724c-62.544 0-111.575-53.725-105.873-116.008l8.627-94.238c2.211-24.147 22.462-42.629 46.71-42.629 15.304 0 29.645 7.466 38.423 20.002l60.011 85.704c15.489 22.12 23.797 48.47 23.797 75.474.001 39.596-32.099 71.695-71.695 71.695z" fill="#fc8b96"/><path d="m311.161 163.554-60.012-85.704c-8.778-12.536-23.119-20.002-38.423-20.002-3.652 0-7.21.426-10.633 1.221 11.166 2.583 21.141 9.191 27.855 18.781l60.011 85.704c15.489 22.12 23.797 48.47 23.797 75.474 0 36.387-27.114 66.422-62.236 71.055 3.852.422 7.769.641 11.74.641 39.596 0 71.696-32.099 71.696-71.695.002-27.004-8.307-53.355-23.795-75.475z" fill="#fe646f"/></g></g><g><path d="m184.769 473.712c-40.642-41.775-64.262-96.856-66.509-155.096l-2.227-57.708c-.011-.299-.017-.435.403-.551.419-.118.483.004.628.266l38.511 70.521c1.984 3.636 6.54 4.973 10.177 2.988 3.635-1.985 4.973-6.542 2.987-10.177l-38.511-70.521c-3.532-6.467-10.679-9.494-17.781-7.537-7.104 1.96-11.687 8.224-11.402 15.588l2.227 57.708c2.39 61.95 27.515 120.541 70.745 164.978l24.771 25.463c1.471 1.511 3.423 2.27 5.377 2.27 1.885 0 3.771-.706 5.229-2.124 2.97-2.889 3.034-7.637.146-10.606z"/><path d="m264.882 508.692c.768-1.305 1.328-2.173 1.35-4.391v-186.153l30.84.076c31.909 0 62.548-13.519 84.061-37.09 21.515-23.574 32.187-55.322 29.278-87.104l-8.631-94.24c-1.963-21.439-15.911-38.857-34.929-45.975v-21.01c.557-25.98-30.674-42.226-51.955-26.812l-32.982 23.451c-4.851 3.45-10.928 4.552-16.68 3.022l-16.63-4.41c-15.011-4.326-33.964 5.484-37.76 22.337-27.45.92-49.774 21.842-52.296 49.402l-8.628 94.238c-2.909 31.78 7.76 63.527 29.273 87.1 18.792 20.592 44.551 33.511 72.039 36.449v157.437l-65.913-120.7c-1.983-3.635-6.54-4.973-10.177-2.988-3.636 1.985-4.973 6.542-2.987 10.177l79.945 146.394c2.021 4.432 9.77 5.662 12.782.79zm-32.76-464.121c3.788-2.457 8.275-3.172 12.637-2.016l48.733 15.875c2.904.951 7.406.16 9.581-4.549 1.39-3.902-.647-8.192-4.55-9.582l-7.741-2.757 32.808-23.327c9.92-7.761 28.653-.524 28.261 14.589v17.716c-27.421-2.547-46.112 16.258-57.135 34.909-2.375 3.394-1.55 8.07 1.844 10.445 3.393 2.376 8.07 1.55 10.445-1.843 12.595-20.595 27.18-32.877 50.858-27.345 15.629 4.152 27.433 17.591 28.979 34.472l8.631 94.24c2.525 27.593-6.74 55.157-25.42 75.625-15.537 17.024-36.558 28-59.141 31.213 19.145-14.469 31.544-37.415 31.544-63.207 0-28.69-8.698-56.276-25.153-79.776l-60.011-85.704c-7.571-10.813-18.74-18.374-31.267-21.538 1.188-3.035 3.28-5.613 6.097-7.44zm-41.849 226.449c-18.678-20.466-27.941-48.029-25.415-75.621l8.628-94.238c1.868-20.417 18.738-35.813 39.241-35.813 12.845 0 24.911 6.282 32.279 16.803l60.011 85.704c14.681 20.966 22.44 45.577 22.44 71.173 0 35.397-28.798 64.195-64.195 64.195-27.708.001-54.311-11.737-72.989-32.203z"/><path d="m390.602 380.383c-6.419-1.989-13.284.395-17.087 5.937l-64.423 93.899v-133.906c0-4.142-3.357-7.5-7.5-7.5s-7.5 3.358-7.5 7.5v158.092c-.031 3.413 3.112 7.742 7.502 7.5h24.838c41.3 0 74.9-33.6 74.9-74.9v-42.06c0-6.72-4.312-12.572-10.73-14.562zm-4.27 56.622c0 33.029-26.871 59.9-59.9 59.9h-10.597l70.049-102.099c.052-.076.088-.113.09-.12.108-.018.299.048.342.085 0 0 .017.05.017.174v42.06z"/></g></g></svg>