<svg id="Capa_1" enable-background="new 0 0 512 512" height="512" viewBox="0 0 512 512" width="512" xmlns="http://www.w3.org/2000/svg"><g><g><path d="m240.821 7.5h-16.529c-2.761 0-5 2.239-5 5v186.276c0 10.5-8.512 19.012-19.012 19.012h-20.264c-2.215 4.39-4.904 8.5-8.018 12.247 2.612 4.379 4.583 9.183 5.793 14.282h22.489c25.152 0 45.541-20.389 45.541-45.541v-186.276c0-2.761-2.238-5-5-5z" fill="#ef4424"/><path d="m200.28 268.036h-22.523c-1.212 5.043-3.173 9.794-5.759 14.13 3.15 3.79 5.864 7.952 8.094 12.399h20.188c10.5 0 19.012 8.512 19.012 19.012v185.923c0 2.761 2.239 5 5 5h16.529c2.761 0 5-2.239 5-5v-185.923c0-25.151-20.389-45.541-45.541-45.541z" fill="#1e9efd"/></g><g><path d="m333.514 354.831v144.669c0 2.761 2.239 5 5 5h16.529c2.761 0 5-2.239 5-5v-118.719c-11.174-5.878-20.41-14.926-26.529-25.95z" fill="#ffbd86"/><path d="m152.292 380.781v118.719c0 2.761 2.239 5 5 5h16.529c2.761 0 5-2.239 5-5v-144.669c-6.118 11.024-15.355 20.072-26.529 25.95z" fill="#ffbd86"/><path d="m340.337 230.035c-3.114-3.747-5.803-7.857-8.018-12.247h-20.264c-10.5 0-19.012-8.512-19.012-19.012v-186.276c0-2.761-2.239-5-5-5h-16.529c-2.761 0-5 2.239-5 5v186.276c0 25.152 20.389 45.541 45.541 45.541h22.489c1.21-5.099 3.182-9.903 5.793-14.282z" fill="#ef4424"/><path d="m340.337 282.167c-2.586-4.336-4.546-9.088-5.759-14.13h-22.523c-25.152 0-45.541 20.389-45.541 45.541v185.922c0 2.761 2.239 5 5 5h16.529c2.761 0 5-2.239 5-5v-185.923c0-10.5 8.512-19.012 19.012-19.012h20.188c2.23-4.446 4.944-8.608 8.094-12.398z" fill="#1e9efd"/></g><g><path d="m179.168 256.101c0-9.526-2.62-18.438-7.169-26.066 9.315-11.209 14.928-25.603 14.928-41.318 0-34.322-26.717-62.389-60.487-64.578 0 0-3.71-.154-4.245-.154-7.435 0-14.569 1.27-21.219 3.577-48.378 13.816-84.367 66.119-84.367 128.539s35.989 114.723 84.367 128.539c6.65 2.307 13.784 3.577 21.219 3.577.535 0 4.245-.154 4.245-.154 33.769-2.188 60.487-30.255 60.487-64.578 0-15.716-5.613-30.11-14.928-41.318 4.548-7.628 7.169-16.54 7.169-26.066z" fill="#fe653b"/><g><path d="m134.535 384.639c-48.378-13.816-84.367-66.119-84.367-128.539s35.989-114.723 84.367-128.539c1.458-.506 2.944-.953 4.447-1.356-4.039-1.081-8.232-1.788-12.542-2.067 0 0-3.71-.154-4.245-.154-7.435 0-14.569 1.27-21.219 3.577-48.378 13.816-84.367 66.119-84.367 128.539s35.989 114.723 84.367 128.539c6.65 2.307 13.784 3.577 21.219 3.577.535 0 4.245-.154 4.245-.154 4.31-.279 8.502-.985 12.542-2.067-1.503-.403-2.989-.85-4.447-1.356z" fill="#ef4424"/></g><g><g><circle cx="127.668" cy="180.5" fill="#883f2e" r="22.5"/></g><g><path d="m126.168 180.5c0-8.633 4.865-16.127 12-19.9-3.135-1.658-6.707-2.6-10.5-2.6-12.426 0-22.5 10.074-22.5 22.5s10.074 22.5 22.5 22.5c3.793 0 7.365-.943 10.5-2.6-7.136-3.773-12-11.267-12-19.9z" fill="#6d3326"/></g><g><circle cx="75.668" cy="224.5" fill="#883f2e" r="22.5"/></g><g><path d="m74.168 224.5c0-8.633 4.865-16.127 12-19.9-3.135-1.658-6.707-2.6-10.5-2.6-12.426 0-22.5 10.074-22.5 22.5s10.074 22.5 22.5 22.5c3.793 0 7.365-.943 10.5-2.6-7.136-3.773-12-11.267-12-19.9z" fill="#6d3326"/></g><g><circle cx="75.668" cy="293.5" fill="#883f2e" r="22.5"/></g><g><path d="m74.168 293.5c0-8.633 4.865-16.127 12-19.9-3.135-1.658-6.707-2.6-10.5-2.6-12.426 0-22.5 10.074-22.5 22.5s10.074 22.5 22.5 22.5c3.793 0 7.365-.943 10.5-2.6-7.136-3.773-12-11.267-12-19.9z" fill="#6d3326"/></g><g><circle cx="132.668" cy="331.5" fill="#883f2e" r="22.5"/></g><g><path d="m131.168 331.5c0-8.633 4.865-16.127 12-19.9-3.135-1.658-6.707-2.6-10.5-2.6-12.426 0-22.5 10.074-22.5 22.5s10.074 22.5 22.5 22.5c3.793 0 7.365-.943 10.5-2.6-7.136-3.773-12-11.267-12-19.9z" fill="#6d3326"/></g></g></g><g><path d="m411.359 127.562c-6.65-2.307-13.784-3.577-21.219-3.577-.535 0-4.245.154-4.245.154-33.769 2.188-60.487 30.255-60.487 64.578 0 15.716 5.613 30.11 14.928 41.318-4.549 7.628-7.169 16.539-7.169 26.066s2.621 18.438 7.169 26.066c-9.315 11.209-14.928 25.603-14.928 41.318 0 34.322 26.717 62.389 60.487 64.578 0 0 3.71.154 4.245.154 7.435 0 14.569-1.27 21.219-3.577 48.378-13.816 84.367-66.119 84.367-128.539s-35.988-114.723-84.367-128.539z" fill="#fe653b"/><g fill="#ef4424"><path d="m362.429 209.98c-2.316-6.66-3.579-13.813-3.579-21.263 0-29.963 20.364-55.155 48.003-62.527-5.333-1.427-10.93-2.204-16.713-2.204-.535 0-4.245.154-4.245.154-33.769 2.188-60.487 30.255-60.487 64.578 0 15.716 5.613 30.11 14.928 41.318 5.186-8.695 12.883-15.713 22.093-20.056z"/><path d="m358.85 323.485c0-7.45 1.262-14.604 3.579-21.263-9.21-4.343-16.906-11.361-22.092-20.055-9.315 11.209-14.928 25.603-14.928 41.318 0 34.322 26.717 62.389 60.487 64.578 0 0 3.71.154 4.245.154 5.783 0 11.38-.777 16.712-2.204-27.64-7.373-48.003-32.565-48.003-62.528z"/></g><g><path d="m358.364 256.101c0-23.804 16.318-43.793 38.376-49.4-4.03-1.025-8.251-1.572-12.6-1.572-28.151 0-50.972 22.821-50.972 50.972s22.821 50.972 50.972 50.972c4.349 0 8.569-.547 12.599-1.572-22.058-5.608-38.375-25.597-38.375-49.4z" fill="#ef4424"/></g><g><g><circle cx="384.668" cy="180.5" fill="#883f2e" r="22.5"/></g><g><circle cx="436.668" cy="224.5" fill="#883f2e" r="22.5"/></g><g><circle cx="434.668" cy="293.5" fill="#883f2e" r="22.5"/></g><g><circle cx="379.668" cy="331.5" fill="#883f2e" r="22.5"/></g><g><path d="m383.168 180.5c0-8.633 4.865-16.127 12-19.9-3.135-1.658-6.707-2.6-10.5-2.6-12.426 0-22.5 10.074-22.5 22.5s10.074 22.5 22.5 22.5c3.793 0 7.365-.943 10.5-2.6-7.136-3.773-12-11.267-12-19.9z" fill="#6d3326"/></g><g><path d="m435.168 224.5c0-8.633 4.865-16.127 12-19.9-3.135-1.658-6.707-2.6-10.5-2.6-12.426 0-22.5 10.074-22.5 22.5s10.074 22.5 22.5 22.5c3.793 0 7.365-.943 10.5-2.6-7.136-3.773-12-11.267-12-19.9z" fill="#6d3326"/></g><g><path d="m433.168 293.5c0-8.633 4.865-16.127 12-19.9-3.135-1.658-6.707-2.6-10.5-2.6-12.426 0-22.5 10.074-22.5 22.5s10.074 22.5 22.5 22.5c3.793 0 7.365-.943 10.5-2.6-7.136-3.773-12-11.267-12-19.9z" fill="#6d3326"/></g><g><path d="m378.168 331.5c0-8.633 4.865-16.127 12-19.9-3.135-1.658-6.707-2.6-10.5-2.6-12.426 0-22.5 10.074-22.5 22.5s10.074 22.5 22.5 22.5c3.793 0 7.365-.943 10.5-2.6-7.136-3.773-12-11.267-12-19.9z" fill="#6d3326"/></g></g></g><g><path d="m240.821 0h-16.529c-6.893 0-12.5 5.607-12.5 12.5v186.276c0 6.348-5.164 11.512-11.512 11.512h-9.181c2.151-6.829 3.327-14.072 3.327-21.571 0-37.956-29.65-69.609-67.501-72.062-.059-.004-.116-.007-.175-.009-1.764-.073-3.985-.16-4.556-.16-8.009 0-15.906 1.319-23.478 3.922-25.264 7.272-48.096 24.682-64.309 49.042-16.55 24.867-25.298 54.831-25.298 86.651s8.748 61.784 25.298 86.651c16.213 24.36 39.045 41.77 64.31 49.042 7.572 2.603 15.47 3.922 23.479 3.922.57 0 2.792-.087 4.556-.16.059-.002.116-.005.175-.009 6.21-.402 12.193-1.605 17.866-3.478v107.431c0 6.893 5.607 12.5 12.5 12.5h16.529c6.893 0 12.5-5.607 12.5-12.5v-61.5c0-4.142-3.357-7.5-7.5-7.5s-7.5 3.358-7.5 7.5v59h-11.529v-111.887c4.14-2.537 7.996-5.484 11.529-8.773v26.66c0 4.142 3.357 7.5 7.5 7.5s7.5-3.358 7.5-7.5v-46.342c5.18-9.965 8.105-21.257 8.105-33.173 0-7.443-1.159-14.635-3.279-21.419h9.133c6.348 0 11.512 5.164 11.512 11.512v185.922c0 6.893 5.607 12.5 12.5 12.5h16.529c6.893 0 12.5-5.607 12.5-12.5v-185.923c0-29.247-23.794-53.041-53.041-53.041h-13.798c.111-1.466.185-2.942.185-4.436 0-1.442-.071-2.867-.174-4.283h13.786c29.247 0 53.041-23.794 53.041-53.041v-186.276c0-6.893-5.607-12.5-12.5-12.5zm-114.783 380.573c-.538.022-3.273.136-3.843.144-6.4 0-12.713-1.064-18.761-3.162-.131-.046-.265-.088-.398-.126-21.921-6.261-41.858-21.527-56.142-42.987-14.693-22.078-22.785-49.9-22.785-78.341s8.092-56.263 22.785-78.34c14.283-21.46 34.221-36.726 56.142-42.986.134-.039.268-.081.398-.126 6.048-2.098 12.36-3.162 18.724-3.162.603.008 3.342.121 3.88.144 29.944 1.983 53.389 27.043 53.389 57.088 0 10.328-2.781 20.059-7.635 28.473-6.164-6.899-13.936-12.325-22.722-15.695 5.313-5.415 8.598-12.827 8.598-20.995 0-16.542-13.458-30-30-30s-30 13.458-30 30c0 8.299 3.388 15.82 8.852 21.256-2.652 1.053-5.215 2.297-7.673 3.721-5.506-6.698-13.852-10.977-23.18-10.977-16.542 0-30 13.458-30 30s13.458 30 30 30 30-13.458 30-30c0-1.813-.171-3.586-.48-5.312 6.753-4.213 14.665-6.559 23.009-6.559 23.971 0 43.472 19.501 43.472 43.472s-19.501 43.472-43.472 43.472c-7.365 0-14.375-1.824-20.552-5.138.01-.311.024-.622.024-.935 0-16.542-13.458-30-30-30s-30 13.458-30 30 13.458 30 30 30c10.846 0 20.365-5.786 25.635-14.432 2.205 1.032 4.48 1.927 6.815 2.678-4.633 5.282-7.45 12.193-7.45 19.754 0 16.542 13.458 30 30 30s30-13.458 30-30c0-8.856-3.86-16.826-9.983-22.322 7.308-3.385 13.803-8.229 19.108-14.166 4.853 8.414 7.635 18.145 7.635 28.473-.001 30.042-23.446 55.102-53.39 57.086zm1.63-185.073c-8.271 0-15-6.729-15-15s6.729-15 15-15 15 6.729 15 15-6.729 15-15 15zm-37 29c0 8.271-6.729 15-15 15s-15-6.729-15-15 6.729-15 15-15 15 6.729 15 15zm42 92c8.271 0 15 6.729 15 15s-6.729 15-15 15-15-6.729-15-15 6.728-15 15-15zm-40-23c0 8.271-6.729 15-15 15s-15-6.729-15-15 6.729-15 15-15 15 6.729 15 15zm107.612-17.964c20.976 0 38.041 17.065 38.041 38.041v183.423h-11.529v-183.423c0-14.619-11.894-26.512-26.512-26.512h-15.781c-1.127-1.918-2.34-3.78-3.634-5.582.931-1.925 1.75-3.913 2.469-5.947zm38.041-76.76c0 20.976-17.065 38.041-38.041 38.041h-16.895c-.731-2.087-1.566-4.127-2.521-6.099 1.26-1.754 2.442-3.565 3.544-5.43h15.872c14.618 0 26.512-11.893 26.512-26.512v-183.776h11.529z"/><path d="m494.93 273.593c-4.084-.651-7.934 2.141-8.582 6.232-7.632 48.104-37.875 86.416-77.049 97.604-.134.038-.268.08-.398.126-6.048 2.098-12.36 3.162-18.724 3.162-.603-.008-3.342-.121-3.88-.144-29.944-1.983-53.389-27.043-53.389-57.088 0-10.328 2.781-20.059 7.635-28.473 5.304 5.937 11.8 10.781 19.107 14.166-6.123 5.496-9.983 13.466-9.983 22.322 0 16.542 13.458 30 30 30s30-13.458 30-30c0-7.561-2.818-14.472-7.45-19.754 2.334-.752 4.608-1.648 6.813-2.68 5.27 8.648 14.79 14.434 25.637 14.434 16.542 0 30-13.458 30-30s-13.458-30-30-30-30 13.458-30 30c0 .317.014.631.024.946-6.176 3.31-13.189 5.127-20.551 5.127-23.971 0-43.473-19.501-43.473-43.472 0-23.97 19.502-43.472 43.473-43.472 8.344 0 16.255 2.346 23.008 6.559-.31 1.726-.48 3.499-.48 5.312 0 16.542 13.458 30 30 30s30-13.458 30-30-13.458-30-30-30c-9.327 0-17.673 4.28-23.179 10.977-2.458-1.425-5.021-2.669-7.673-3.721 5.464-5.437 8.852-12.958 8.852-21.256 0-16.542-13.458-30-30-30s-30 13.458-30 30c0 8.168 3.285 15.58 8.598 20.995-8.786 3.37-16.558 8.796-22.722 15.695-4.853-8.414-7.635-18.145-7.635-28.473 0-30.045 23.444-55.104 53.389-57.088.538-.022 3.273-.136 3.843-.144 6.4 0 12.713 1.064 18.761 3.162.131.046.265.088.398.126 20.938 5.979 39.529 19.658 53.763 39.558 14.564 20.362 23.155 45.307 24.843 72.139.26 4.134 3.811 7.263 7.956 7.015 4.134-.26 7.274-3.822 7.015-7.956-1.864-29.639-11.413-57.276-27.613-79.924-16.183-22.623-37.494-38.248-61.645-45.197-7.571-2.603-15.47-3.922-23.478-3.922-.57 0-2.793.087-4.556.16-.059.002-.116.005-.175.009-37.851 2.453-67.501 34.106-67.501 72.062 0 7.499 1.177 14.743 3.327 21.571h-9.181c-6.348 0-11.513-5.164-11.513-11.512v-100.776c0-4.142-3.357-7.5-7.5-7.5s-7.5 3.358-7.5 7.5v100.776c0 14.619 11.894 26.512 26.513 26.512h15.872c1.102 1.865 2.284 3.676 3.544 5.43-.954 1.972-1.789 4.012-2.521 6.099h-16.895c-20.976 0-38.041-17.065-38.041-38.041v-183.776h11.528v48c0 4.142 3.357 7.5 7.5 7.5s7.5-3.358 7.5-7.5v-50.5c0-6.893-5.607-12.5-12.5-12.5h-16.528c-6.893 0-12.5 5.607-12.5 12.5v186.276c0 29.247 23.794 53.041 53.041 53.041h13.786c-.103 1.416-.174 2.841-.174 4.283 0 1.494.075 2.97.185 4.436h-13.798c-29.247 0-53.041 23.794-53.041 53.041v185.923c0 6.893 5.607 12.5 12.5 12.5h16.529c6.893 0 12.5-5.607 12.5-12.5v-185.923c0-6.348 5.164-11.512 11.512-11.512h9.133c-2.121 6.784-3.279 13.976-3.279 21.419 0 11.915 2.925 23.208 8.105 33.173v142.843c0 6.893 5.607 12.5 12.5 12.5h16.529c6.893 0 12.5-5.607 12.5-12.5v-107.431c5.674 1.873 11.656 3.076 17.866 3.478.059.004.116.007.175.009 1.763.073 3.985.16 4.556.16 8.008 0 15.905-1.319 23.477-3.922 44.665-12.853 79.017-55.855 87.546-109.619.65-4.091-2.14-7.933-6.232-8.582zm-60.262 4.907c8.271 0 15 6.729 15 15s-6.729 15-15 15-15-6.729-15-15 6.728-15 15-15zm-55 68c-8.271 0-15-6.729-15-15s6.729-15 15-15 15 6.729 15 15-6.729 15-15 15zm57-137c8.271 0 15 6.729 15 15s-6.729 15-15 15-15-6.729-15-15 6.728-15 15-15zm-52-44c8.271 0 15 6.729 15 15s-6.729 15-15 15-15-6.729-15-15 6.728-15 15-15zm-72.613 121.565c-14.618 0-26.512 11.893-26.512 26.512v183.423h-11.529v-183.423c0-20.976 17.065-38.041 38.041-38.041h16.946c.719 2.035 1.538 4.023 2.469 5.947-1.294 1.802-2.507 3.664-3.634 5.582zm40.489 209.935h-11.529v-120.659c3.533 3.289 7.389 6.236 11.529 8.773z"/></g></g></svg>