<svg id="Capa_1" enable-background="new 0 0 512 512" height="512" viewBox="0 0 512 512" width="512" xmlns="http://www.w3.org/2000/svg"><g><g><path d="m481.103 483.514-74.564-171.308c-.794-1.824-1.204-3.792-1.204-5.782v-88.66h-63.492v88.66c0 1.99-.41 3.958-1.204 5.782l-17.557 40.335c7.17 14.653 11.211 31.116 11.211 48.53 0 47.266-29.653 87.599-71.368 103.43h204.423c10.806-.001 18.067-11.08 13.755-20.987z" fill="#dcfcee"/><g><path d="m341.843 217.764v88.66c0 1.99-.41 3.958-1.204 5.782l-17.556 40.335c6.367 13.013 10.252 27.456 11.043 42.723l36.152-83.059c.794-1.824 1.204-3.792 1.204-5.782v-88.66h-29.639z" fill="#c2fae3"/></g><path d="m450.345 473.359-28.265-64.938c-.794-1.825-2.595-3.005-4.585-3.005h-83.287c-1.134 29.345-13.704 55.752-33.377 74.901.19.021.381.037.578.037h144.351c3.603 0 6.023-3.693 4.585-6.995z" fill="#1ee6a6"/></g><path d="m260.864 296.877c-3.857-1.376-6.446-5.006-6.446-9.101v-133.504h-61.443v133.504c0 4.095-2.59 7.725-6.446 9.101-6.286 2.242-12.3 5.051-18.002 8.34 3.818 8.815 5.945 18.533 5.945 28.75 0 36.208-26.574 66.206-61.283 71.562 1.754 44.205 29.453 81.733 68.289 97.786 1.858.768 3.843 1.184 5.853 1.184h75.595c41.715-15.831 71.368-56.164 71.368-103.43 0-48.04-30.633-88.924-73.43-104.192z" fill="#b3dafe"/><g fill="#8ac9fe"><path d="m138.807 409.57c0-4.641.293-9.212.848-13.703-7.946 4.837-16.897 8.186-26.466 9.662 1.754 44.205 29.453 81.733 68.289 97.786 1.858.768 3.843 1.184 5.853 1.184h5.313c-32.248-19.32-53.837-54.6-53.837-94.929z"/><path d="m192.974 154.272v133.504c0 4.095-2.59 7.725-6.446 9.101-6.286 2.242-12.3 5.051-18.002 8.34 3.126 7.216 5.099 15.042 5.716 23.248 10.868-10.076 23.752-18.007 37.996-23.089 3.857-1.376 6.446-5.006 6.446-9.101v-142.003z"/></g><path d="m294.466 351.566c-.944-1.35-2.478-2.166-4.125-2.166h-117.534c-4.461 20.546-17.636 37.832-35.468 47.803-.058 1.284-.096 2.573-.096 3.867 0 33.942 20.269 64.986 50.946 78.844.65.294 1.36.44 2.073.44h66.867c.714 0 1.423-.146 2.073-.44 30.677-13.858 50.946-44.903 50.946-78.844.001-18.113-5.743-35.297-15.682-49.504z" fill="#1e9efd"/><path d="m230.95 479.915c-30.677-13.858-50.946-44.903-50.946-78.844 0-18.113 5.744-35.297 15.683-49.504.944-1.35 2.478-2.166 4.125-2.166h-27.005c-4.461 20.546-17.636 37.832-35.468 47.803-.058 1.284-.096 2.573-.096 3.867 0 33.942 20.269 64.986 50.946 78.844.65.294 1.36.44 2.073.44h42.761c-.714-.001-1.423-.147-2.073-.44z" fill="#0182fc"/><g><path d="m255.903 245.413h-64.415c-2.761 0-5-2.239-5-5v-49.395c0-2.761 2.239-5 5-5h64.415c2.761 0 5 2.239 5 5v49.395c0 2.762-2.238 5-5 5z" fill="#eaf6ff"/></g><g><path d="m220.004 240.413v-49.395c0-2.761 2.239-5 5-5h-33.516c-2.761 0-5 2.239-5 5v49.395c0 2.761 2.239 5 5 5h33.516c-2.761 0-5-2.238-5-5z" fill="#d8ecfe"/></g><g><g><circle cx="102.057" cy="333.968" fill="#fbd74c" r="72.414"/></g><g><path d="m63.175 333.968c0-34.219 23.743-62.875 55.648-70.442-5.384-1.277-10.992-1.973-16.766-1.973-39.993 0-72.414 32.421-72.414 72.414s32.421 72.414 72.414 72.414c5.774 0 11.383-.696 16.766-1.973-31.905-7.565-55.648-36.22-55.648-70.44z" fill="#fac600"/></g><g><g><path d="m70.744 365.281c-8.448-8.449-8.448-22.273 0-30.722l31.903-31.903c8.448-8.448 22.273-8.448 30.722 0 8.448 8.448 8.448 22.273 0 30.722l-31.903 31.903c-8.448 8.448-22.273 8.448-30.722 0z" fill="#fe8a56"/></g><path d="m133.369 302.656c-8.448-8.448-22.273-8.448-30.722 0l-15.952 15.952 30.722 30.722 15.952-15.952c8.449-8.449 8.449-22.274 0-30.722z" fill="#fff"/></g></g><g><g><path d="m411.966 47.421h-76.754c-1.786 0-3.437.953-4.33 2.5l-38.377 66.471c-.893 1.547-.893 3.453 0 5l38.377 66.471c.893 1.547 2.544 2.5 4.33 2.5h76.754c1.786 0 3.437-.953 4.33-2.5l38.377-66.471c.893-1.547.893-3.453 0-5l-38.377-66.471c-.893-1.547-2.544-2.5-4.33-2.5z" fill="#fe8a56"/></g><g><path d="m364.543 187.862-38.377-66.471c-.893-1.547-.893-3.453 0-5l38.377-66.471c.893-1.547 2.544-2.5 4.33-2.5h-33.661c-1.786 0-3.437.953-4.33 2.5l-38.377 66.471c-.893 1.547-.893 3.453 0 5l38.377 66.471c.893 1.547 2.544 2.5 4.33 2.5h33.661c-1.786 0-3.436-.953-4.33-2.5z" fill="#fd6930"/></g></g><g><path d="m487.979 480.521-40.82-93.784c-1.654-3.798-6.072-5.537-9.87-3.884s-5.537 6.072-3.884 9.87l40.82 93.784c1.028 2.361.808 4.951-.604 7.104-1.411 2.153-3.697 3.389-6.272 3.389h-174.729c3.909-2.81 7.632-5.871 11.174-9.146h141.971c4.229 0 8.138-2.112 10.455-5.648 2.318-3.537 2.694-7.963 1.007-11.84l-28.266-64.94c-1.987-4.562-6.486-7.509-11.461-7.509h-75.768c-.428-15.984-4.074-31.39-10.439-45.446l16.224-37.273c1.213-2.786 1.827-5.738 1.827-8.775v-81.16h48.491v11.237h-15.896c-4.143 0-7.5 3.358-7.5 7.5s3.357 7.5 7.5 7.5h15.896v13.5h-15.896c-4.143 0-7.5 3.358-7.5 7.5s3.357 7.5 7.5 7.5h15.896v13.5h-15.896c-4.143 0-7.5 3.358-7.5 7.5s3.357 7.5 7.5 7.5h15.996c.217 2.309.792 4.555 1.726 6.698l19.768 45.417c1.652 3.797 6.071 5.536 9.87 3.884 3.798-1.653 5.537-6.072 3.884-9.87l-19.769-45.419c-.385-.883-.58-1.82-.58-2.786v-81.16h4.789c4.143 0 7.5-3.358 7.5-7.5s-3.357-7.5-7.5-7.5h-88.069c-4.143 0-7.5 3.358-7.5 7.5s3.357 7.5 7.5 7.5h4.789v81.16c0 .965-.195 1.903-.581 2.789l-11.628 26.716c-13.806-20.864-34.156-37.34-58.75-46.114-.877-.313-1.466-1.131-1.466-2.037v-36.411c3.862-2.129 6.485-6.239 6.485-10.952v-49.396c0-4.713-2.624-8.822-6.485-10.952v-18.294h5.813c4.143 0 7.5-3.358 7.5-7.5s-3.357-7.5-7.5-7.5h-88.069c-4.142 0-7.5 3.358-7.5 7.5s3.358 7.5 7.5 7.5h5.813v18.293c-3.862 2.129-6.486 6.239-6.486 10.952v49.396c0 4.713 2.624 8.823 6.486 10.952v36.411c0 .906-.589 1.724-1.466 2.037-4.207 1.501-8.269 3.258-12.212 5.197-13.692-24.413-39.813-40.957-69.739-40.957-44.065 0-79.915 35.85-79.915 79.915s35.85 79.915 79.915 79.915c1.423 0 2.836-.041 4.241-.114 4.561 42.734 31.916 79.779 72.315 96.479 2.813 1.163 5.747 1.753 8.719 1.753h280.017c7.611 0 14.646-3.801 18.818-10.167s4.85-14.335 1.811-21.314zm-146.791-67.604h74.674l26.088 59.938h-124.482c.997-1.302 1.975-2.622 2.922-3.969 11.722-16.683 18.798-35.837 20.798-55.969zm-140.714-251.145h46.443v16.746h-46.443zm-6.486 31.746h59.415v44.396h-59.415zm-91.931 205.365c-35.794 0-64.915-29.121-64.915-64.915s29.121-64.915 64.915-64.915 64.915 29.121 64.915 64.915-29.121 64.915-64.915 64.915zm85.274 98.117c-.996 0-2.001-.207-2.988-.615-35.457-14.657-59.414-47.263-63.204-84.822 3.05-.75 6.033-1.672 8.935-2.762 2.799 33.769 23.766 63.827 55.025 77.948 1.623.733 3.36 1.105 5.163 1.105h66.867c1.777 0 3.563-.382 5.162-1.105 33.628-15.191 55.357-48.822 55.357-85.679 0-19.265-5.892-37.87-17.037-53.804-2.352-3.36-6.19-5.367-10.27-5.367h-37.338c-4.142 0-7.5 3.358-7.5 7.5s3.358 7.5 7.5 7.5h36.028c8.912 13.167 13.616 28.412 13.616 44.171 0 30.793-18.053 58.909-46.039 71.784h-65.827c-27.863-12.819-45.875-40.748-46.032-71.383 16.07-10.2 28.266-25.964 33.851-44.572h39.402c4.142 0 7.5-3.358 7.5-7.5s-3.358-7.5-7.5-7.5h-36.429c.258-2.61.396-5.255.396-7.931 0-8.818-1.457-17.298-4.107-25.237 3.606-1.794 7.327-3.414 11.184-4.79 6.834-2.438 11.426-8.935 11.426-16.165v-34.863h46.443v34.863c0 7.23 4.591 13.727 11.425 16.165 40.943 14.606 68.451 53.639 68.451 97.129 0 21.334-6.459 41.802-18.678 59.191-11.692 16.639-27.78 29.319-46.591 36.739z"/><path d="m118.008 288.819c-7.823 0-15.162 3.03-20.664 8.533l-31.903 31.903c-11.394 11.394-11.394 29.934 0 41.328 5.697 5.697 13.181 8.545 20.664 8.545s14.967-2.848 20.664-8.545l31.903-31.903c5.503-5.502 8.533-12.841 8.533-20.664s-3.03-15.162-8.533-20.664c-5.502-5.502-12.84-8.533-20.664-8.533zm-21.845 71.159c-5.545 5.546-14.568 5.545-20.115 0-5.545-5.546-5.545-14.569 0-20.115l10.648-10.648 20.115 20.115zm31.903-31.904-10.648 10.648-20.115-20.115 10.648-10.648c2.67-2.669 6.242-4.14 10.058-4.14s7.388 1.47 10.058 4.14c2.669 2.669 4.14 6.241 4.14 10.058-.001 3.816-1.472 7.387-4.141 10.057z"/><path d="m324.388 191.613c2.227 3.854 6.374 6.249 10.825 6.249h76.753c4.45 0 8.598-2.395 10.825-6.25l38.377-66.47c2.227-3.856 2.227-8.646 0-12.5l-8.513-14.744c-2.072-3.588-6.66-4.817-10.245-2.745-3.587 2.071-4.816 6.658-2.745 10.245l7.791 13.494-36.934 63.97h-73.867l-36.933-63.97 36.933-63.971h4.16c1.209 9.061 6.027 17.423 13.414 22.963l6.861 5.146-6.861 5.146c-8.593 6.444-13.723 16.704-13.723 27.444v42.577c0 4.142 3.357 7.5 7.5 7.5s7.5-3.358 7.5-7.5v-5.888h36.166v5.888c0 4.142 3.357 7.5 7.5 7.5s7.5-3.358 7.5-7.5v-42.577c0-10.74-5.13-21-13.722-27.444l-6.861-5.146 6.861-5.146c7.386-5.54 12.203-13.902 13.413-22.962h4.16l11.643 20.166c2.07 3.588 6.659 4.816 10.245 2.745 3.587-2.071 4.816-6.658 2.745-10.245l-12.366-21.419c-2.227-3.854-6.374-6.249-10.824-6.249h-5.294v-32.42c0-4.142-3.357-7.5-7.5-7.5s-7.5 3.358-7.5 7.5v5.436h-36.166v-5.436c0-4.142-3.357-7.5-7.5-7.5s-7.5 3.358-7.5 7.5v32.421h-5.293c-4.451 0-8.599 2.394-10.826 6.25l-38.375 66.469c-2.228 3.855-2.228 8.646-.001 12.501zm31.118-54.305v-11.35h36.166v11.35zm28.444-37.133c3.568 2.676 6.07 6.523 7.139 10.784h-35.001c1.069-4.261 3.571-8.107 7.14-10.784l10.361-7.771zm0-34.291-10.361 7.771-10.361-7.771c-3.619-2.714-6.145-6.631-7.188-10.963h35.097c-1.042 4.332-3.569 8.249-7.187 10.963zm7.722-37.948v11.35h-36.166v-11.35z"/><circle cx="243.44" cy="384.5" r="7.5"/><circle cx="262.44" cy="411.5" r="7.5"/><circle cx="222.44" cy="435.5" r="7.5"/><circle cx="393.44" cy="428.5" r="7.5"/><circle cx="355.44" cy="443.5" r="7.5"/><circle cx="382.44" cy="454.5" r="7.5"/></g></g></svg>