<svg id="Capa_1" enable-background="new 0 0 511.999 511.999" height="512" viewBox="0 0 511.999 511.999" width="512" xmlns="http://www.w3.org/2000/svg"><g><g><path d="m320.388 310.34h-128.837v64.245c0 26.469 10.897 51.77 30.129 69.956l5.434 5.138c5.307 5.018 8.313 11.999 8.313 19.302v35.518h41.085v-35.518c0-7.303 3.007-14.284 8.313-19.302l5.434-5.138c19.232-18.186 30.129-43.487 30.129-69.956z" fill="#6fd7a3"/><path d="m301.538 310.341v64.245c0 26.469-10.897 51.77-30.129 69.956l-5.434 5.138c-5.307 5.018-8.313 11.999-8.313 19.302v35.518h18.85v-35.518c0-7.303 3.007-14.284 8.313-19.302l5.434-5.138c19.232-18.186 30.129-43.487 30.129-69.956v-64.245z" fill="#3ec3a4"/><path d="m223.585 156.759-41.83 31.13h-132.08c-16.64 0-27.81-17.06-21.15-32.31l7.4-16.96c9.36-21.44 28.48-37.04 51.36-41.9l11.25-2.39c11.2-2.38 22.82-2.07 33.88.91l15.31 4.12 61.51 16.54 5.06 1.36z" fill="#8379c1"/><path d="m209.235 115.899-4.5 40.86-57.01-57.4z" fill="#6e61b6"/><path d="m288.423 156.761 9.292-39.498 81.881-22.026c11.064-2.976 22.676-3.287 33.883-.906l11.243 2.388c22.879 4.86 42.006 20.463 51.362 41.9l7.403 16.963c6.653 15.243-4.517 32.306-21.149 32.306h-132.078z" fill="#8379c1"/><path d="m483.488 155.582-7.403-16.963c-9.356-21.437-28.483-37.041-51.362-41.9l-11.243-2.388c-8.069-1.714-16.347-2.025-24.48-.959 1.885.247 3.763.562 5.63.959l11.243 2.388c22.879 4.86 42.006 20.463 51.362 41.9l7.403 16.963c6.653 15.243-4.517 32.306-21.149 32.306h18.85c16.632 0 27.802-17.062 21.149-32.306z" fill="#6e61b6"/><path d="m234.685 55.949-11.1 100.81-25.66-25.83-37.34-37.6c-8.75-8.8-13.66-20.71-13.66-33.12 0-6.23 1.24-12.34 3.58-17.99 2.34-5.64 5.78-10.84 10.19-15.24l16.1-16.11c4.62-4.62 12.15-4.47 16.58.33l19.4 21.02z" fill="#978ecb"/><path d="m234.685 55.949-11.1 100.81h-19.58l-6.08-25.83-6.89-29.31c-4.65-19.75-.22-40.54 12.07-56.69l9.67-12.71z" fill="#8379c1"/><path d="m193.373 11.197c-4.428-4.797-11.958-4.947-16.574-.33l-5.203 5.204c3.625-.536 7.45.653 10.135 3.562l34.105 36.315-9.219 83.729 16.969 17.084 11.1-100.813z" fill="#8379c1"/><path d="m288.422 156.761 63.003-63.43c8.746-8.805 13.654-20.712 13.654-33.123 0-12.464-4.951-24.418-13.764-33.232l-16.105-16.109c-4.616-4.617-12.145-4.467-16.574.33l-41.314 44.751z" fill="#978ecb"/><path d="m351.316 26.976-16.106-16.109c-4.616-4.617-12.145-4.467-16.574.33l-.934 1.012 14.764 14.767c8.813 8.814 13.764 20.768 13.764 33.233 0 12.411-4.908 24.318-13.654 33.123l-46.034 46.346 1.881 17.084 63.003-63.43c8.746-8.805 13.654-20.712 13.654-33.123 0-12.465-4.951-24.419-13.764-33.233z" fill="#8379c1"/><g><path d="m223.585 156.759-22.43 127.76-60.38 14.93-20.49 5.06c-1.58.39-2.92 1.29-3.88 2.51-.94 1.22-1.5 2.74-1.5 4.37 0 6.97-2.83 13.29-7.4 17.86s-10.88 7.4-17.86 7.4c-13.95 0-25.26-11.31-25.26-25.26v-11.91c-8.82-12.58-13.55-27.57-13.55-42.93v-19.15c0-19.1 7.31-37.48 20.44-51.36l29.45-31.14c14.07-14.88 35.11-20.92 54.93-15.77z" fill="#978ecb"/><path d="m223.585 156.759-22.43 127.76-60.38 14.93c-.89-5.1-1.33-10.26-1.33-15.4 0-7.7.98-15.39 2.94-22.89l20.52-78.69c3.94-15.14 17.61-25.71 33.26-25.71z" fill="#8379c1"/><path d="m181.751 182.472-19.079-4.624c-15.189-3.681-31.022 2.819-39.244 16.11l-20.085 32.469c-3.867 6.252-2.116 14.442 3.97 18.565 4.595 3.113 10.613 3.149 15.244.092l51.778-34.178z" fill="#ffd15b"/><path d="m162.672 177.848c-6.039-1.464-12.178-1.312-17.902.23l18.131 4.394-7.415 28.434-49.737 32.831c.488.447 1.001.874 1.565 1.255 4.595 3.113 10.613 3.149 15.244.092l51.778-34.178 7.415-28.434z" fill="#ffc344"/></g><g><path d="m288.423 156.761 67.932-17.636c19.817-5.145 40.863.899 54.93 15.774l29.452 31.143c13.126 13.879 20.439 32.257 20.439 51.36v19.149c0 15.361-4.732 30.349-13.554 42.924v11.911c0 13.95-11.309 25.259-25.259 25.259-13.95 0-25.259-11.309-25.259-25.259 0-3.257-2.221-6.094-5.383-6.875l-80.867-19.987z" fill="#978ecb"/><path d="m440.738 186.042-29.452-31.143c-12.962-13.706-31.847-19.906-50.237-16.773 11.805 2.011 22.875 7.772 31.387 16.773l29.452 31.143c13.126 13.879 20.439 32.257 20.439 51.36v19.149c0 15.361-4.732 30.349-13.554 42.924v11.911c0 10.617-6.554 19.698-15.834 23.434 2.913 1.173 6.092 1.825 9.425 1.825 13.95 0 25.259-11.309 25.259-25.259v-11.911c8.821-12.576 13.553-27.563 13.553-42.924v-19.149c.001-19.103-7.313-37.48-20.438-51.36z" fill="#8379c1"/><path d="m330.26 182.472 19.079-4.624c15.189-3.681 31.022 2.819 39.244 16.11l20.085 32.469c3.867 6.252 2.116 14.442-3.97 18.565-4.595 3.113-10.613 3.149-15.244.092l-51.778-34.178z" fill="#ffd15b"/><path d="m408.667 226.427-20.085-32.469c-8.222-13.291-24.055-19.791-39.244-16.11l-.948.23c8.672 2.337 16.389 7.873 21.342 15.88l20.085 32.469c3.509 5.673 2.379 12.932-2.405 17.31l2.041 1.347c4.632 3.057 10.65 3.021 15.244-.092 6.086-4.123 7.838-12.313 3.97-18.565z" fill="#ffc344"/></g><path d="m288.423 156.761h-64.836l-12.972-55.145c-4.646-19.748-.22-40.538 12.066-56.682l24.178-31.77c4.6-6.044 13.693-6.044 18.293 0l24.178 31.77c12.286 16.144 16.712 36.934 12.066 56.682z" fill="#aca6d6"/><path d="m289.33 44.934-24.178-31.77c-4.6-6.044-13.693-6.044-18.293 0l-.278.366 23.899 31.404c12.286 16.144 16.712 36.934 12.066 56.682l-12.972 55.145h18.85l12.972-55.145c4.645-19.747.219-40.538-12.066-56.682z" fill="#978ecb"/><path d="m351.947 300.597-.204 1.037c-5.062 25.777-21.047 48.094-43.824 61.181l-16.612 9.546c-1.95 1.117-3.513 2.711-4.6 4.59-1.087 1.868-1.686 4.031-1.686 6.275 0 8.022-3.26 15.293-8.52 20.553s-12.52 8.509-20.542 8.509c-8.032 0-15.293-3.249-20.553-8.509s-8.509-12.531-8.509-20.553c0-4.488-2.396-8.631-6.286-10.865l-16.792-9.649c-22.673-13.028-38.621-35.205-43.757-60.845-2.701-13.484-2.301-27.405 1.169-40.712l20.519-78.683c3.94-15.14 17.618-25.711 33.266-25.711h81.946c15.618 0 29.275 10.53 33.256 25.63l20.438 77.625c3.491 13.255 3.932 27.13 1.291 40.581z" fill="#c2bce0"/><path d="m350.657 260.015-20.438-77.625c-3.981-15.1-17.638-25.63-33.256-25.63h-18.85c15.618 0 29.275 10.53 33.256 25.63l20.438 77.625c3.49 13.256 3.931 27.13 1.29 40.581l-.204 1.037c-5.062 25.777-21.047 48.094-43.824 61.181l-16.612 9.546c-1.95 1.117-3.513 2.711-4.6 4.59-1.087 1.868-1.686 4.031-1.686 6.275 0 8.022-3.26 15.293-8.52 20.553-3.097 3.097-6.891 5.489-11.121 6.939 2.957 1.013 6.126 1.57 9.429 1.57 8.022 0 15.282-3.249 20.542-8.509s8.52-12.531 8.52-20.553c0-2.244.599-4.407 1.686-6.275 1.087-1.879 2.65-3.473 4.6-4.59l16.612-9.546c22.776-13.088 38.762-35.405 43.824-61.181l.204-1.037c2.641-13.45 2.2-27.325-1.29-40.581z" fill="#aca6d6"/><path d="m288.423 156.761-9.271 72.889c-1.483 11.708-11.444 20.482-23.244 20.482-5.91 0-11.363-2.204-15.516-5.869-4.163-3.676-7.017-8.804-7.748-14.673l-9.058-72.828h64.837z" fill="#ffd15b"/><path d="m269.573 156.761-9.271 72.889c-1.062 8.391-6.491 15.253-13.818 18.481 2.897 1.275 6.083 2.001 9.425 2.001 11.799 0 21.761-8.774 23.244-20.482l9.271-72.889z" fill="#ffc344"/></g><g><path d="m490.359 152.58-7.4-16.961c-10.304-23.602-31.491-40.886-56.675-46.235l-11.25-2.39c-12.314-2.616-25.243-2.268-37.387 1.004l-15.394 4.138c6.698-9.227 10.322-20.298 10.322-31.926 0-7.191-1.396-14.209-4.148-20.854-2.75-6.658-6.726-12.609-11.809-17.68l-16.104-16.104c-3.685-3.692-8.579-5.665-13.803-5.568-5.22.102-10.045 2.271-13.587 6.109l-24.071 26.075-17.933-23.566c-3.623-4.761-9.132-7.491-15.115-7.491s-11.492 2.73-15.115 7.491l-17.934 23.565-24.07-26.074c-6.27-7-19.448-8.633-27.396-.545l-16.092 16.102c-9.493 9.461-15.987 23.571-15.973 38.54 0 11.625 3.627 22.696 10.33 31.925l-15.388-4.137c-12.147-3.274-25.077-3.621-37.391-1.005l-11.25 2.39c-25.185 5.35-46.372 22.634-56.676 46.237l-7.399 16.958c-5.047 11.558-2.561 24.827 6.336 33.805 2.327 2.169 6.708 3.435 10.606.049 2.942-2.916 2.964-7.664.049-10.606-4.543-4.585-5.817-11.354-3.244-17.247l7.399-16.959c8.372-19.175 25.584-33.218 46.045-37.564l11.25-2.39c10.003-2.125 20.504-1.843 30.375.816l39.069 10.503 29.438 29.639-41.434-10.753c-22.462-5.836-46.321 1.013-62.265 17.875l-29.449 31.14c-14.504 15.332-22.492 35.402-22.492 56.514v19.15c0 16.184 4.677 31.771 13.55 45.237v9.604c0 18.064 14.696 32.76 32.76 32.76 8.749 0 16.975-3.408 23.163-9.597 6.113-6.112 9.513-14.213 9.595-22.841l30.484-7.536c5.738 27.404 22.896 51.076 47.195 65.039l16.793 9.649c1.555.894 2.521 2.564 2.521 4.362 0 9.77 3.802 18.952 10.707 25.856 6.904 6.904 16.086 10.706 25.855 10.706 9.763 0 18.942-3.802 25.846-10.706 6.911-6.91 10.716-16.093 10.716-25.856.68-.865-1.432-.43 2.522-4.362 2.864-1.663 15.795-9.041 17.841-10.274 1.4 25.713-8.641 52.622-27.786 70.504-8.67 6.984-16.264 17.676-16.084 29.887v35.52c0 4.142 3.358 7.5 7.5 7.5s7.5-3.358 7.5-7.5v-35.52c-.575-6.729 5.763-14.486 11.391-18.989 27.795-26.29 34.104-58.807 32.479-92.352 15.627-13.751 27.557-34.113 31.421-55.597 2.843-14.477 2.36-29.669-1.396-43.936l-7.921-30.085 35.332 23.322c3.559 2.35 7.623 3.523 11.686 3.523 4.147 0 8.293-1.223 11.897-3.664 9.448-6.4 12.146-19.016 6.142-28.72l-20.085-32.47c-9.955-16.091-28.996-23.908-47.389-19.453l-12.574 3.047c-3.29-7.131-8.482-13.091-14.856-17.33l38.1-9.888c17.168-4.461 35.406.775 47.594 13.665l29.451 31.141c11.858 12.536 18.388 28.945 18.388 46.206v19.15c0 13.893-4.215 27.249-12.191 38.625-.884 1.262-1.359 2.765-1.359 4.306v11.91c0 9.793-7.967 17.76-17.76 17.76-4.742 0-9.201-1.848-12.557-5.203s-5.203-7.815-5.203-12.557c0-3.209-1.086-6.387-3.105-9.007-2.005-2.549-4.837-4.379-7.979-5.155l-4.503-1.11c-4.019-.992-8.086 1.464-9.077 5.486-.992 4.021 1.465 8.086 5.486 9.077l4.18 1.031c.083 8.628 3.482 16.729 9.595 22.841 6.188 6.188 14.415 9.597 23.163 9.597 18.064 0 32.76-14.696 32.76-32.76v-9.604c8.873-13.466 13.55-29.053 13.55-45.237v-19.15c0-14.969-4.034-29.406-11.542-42.01h5.202c10.355 0 19.921-5.17 25.589-13.832 5.671-8.661 6.581-19.495 2.438-28.98zm-166.212-136.294c1.006-1.09 2.222-1.273 2.857-1.286.634-.014 1.852.123 2.898 1.172l16.116 16.116c3.68 3.671 6.555 7.976 8.548 12.8 1.997 4.821 3.009 9.908 3.009 15.12 0 10.51-4.073 20.394-11.471 27.835l-44.304 44.607 6.897-29.317c4.797-20.394.95-41.585-10.533-58.9zm-71.32 1.42c1.043-1.37 2.439-1.575 3.178-1.575s2.135.205 3.178 1.575c17.22 22.565 44.423 50.773 34.912 82.193l-11.612 49.362h-18.978v-56.513c0-4.142-3.358-7.5-7.5-7.5s-7.5 3.358-7.5 7.5v56.513h-18.978l-11.612-49.362c-8.806-36.383 18.007-58.105 34.912-82.193zm-95.394 27.388c2.003-4.829 4.883-9.137 8.567-12.812l16.099-16.108c1.374-.86 2.448-2.18 5.766.114l25.983 28.147c-11.484 17.315-15.331 38.506-10.533 58.9l6.897 29.317-31.472-31.686c-.055-.055-.108-.113-.165-.166l-12.67-12.756c-7.402-7.445-11.479-17.329-11.479-27.832-.001-5.214 1.012-10.301 3.007-15.118zm-38.946 252.134c-3.139.775-5.971 2.605-8.023 5.215-1.973 2.56-3.059 5.738-3.059 8.947 0 4.742-1.848 9.201-5.203 12.557s-7.815 5.203-12.557 5.203c-9.793 0-17.76-7.967-17.76-17.76v-11.91c0-1.541-.475-3.044-1.359-4.306-7.976-11.375-12.191-24.731-12.191-38.625v-19.15c0-17.261 6.53-33.67 18.389-46.207l29.451-31.141c12.188-12.89 30.427-18.125 47.596-13.664l38.068 9.88c-6.374 4.238-11.562 10.2-14.848 17.333l-12.553-3.042c-18.39-4.458-37.434 3.36-47.389 19.453l-20.084 32.469c-6.004 9.705-3.306 22.32 6.142 28.72 6.283 4.149 15.715 5.29 23.583.142l35.453-23.402-8.168 31.321c-2.537 9.728-3.548 19.88-3.028 29.941zm49.317-90.997-49.379 32.594c-2.104 1.39-4.815 1.374-6.905-.042-2.767-1.874-3.557-5.568-1.798-8.41l20.085-32.469c5.31-8.583 14.559-13.579 24.316-13.579 3.027-.393 15.04 2.844 18.445 3.64zm176.784 92.921c-4.167 23.262-19.312 45.235-40.405 57.16l-16.605 9.542c-5.095 3.035-10.024 9.301-10.057 17.373 0 5.756-2.246 11.172-6.323 15.25-4.071 4.071-9.483 6.312-15.239 6.312-5.763 0-11.178-2.242-15.249-6.312-4.071-4.071-6.313-9.487-6.313-15.25 0-7.153-3.851-13.808-10.049-17.368l-16.792-9.649c-31.692-17.779-48.759-57.225-39.067-93.161l20.519-78.683c2.993-11.938 15.051-20.892 27.954-20.104l8.24 66.254c1.585 14.269 14.81 27.243 30.706 27.116 15.541 0 28.732-11.625 30.684-27.036l4.817-37.87c.523-4.109-2.385-7.864-6.494-8.386-4.111-.521-7.864 2.385-8.386 6.494l-4.817 37.874c-1.005 7.938-7.799 13.924-15.803 13.924-6.817.017-14.763-5.361-15.821-13.968l-8.01-64.402h64.885c12.2 0 22.893 8.241 26.003 20.04l20.438 77.625c3.183 12.086 3.592 24.959 1.184 37.225zm6.517-114.015c12.071-2.924 24.567 2.206 31.099 12.766l20.085 32.47c1.758 2.842.968 6.536-1.799 8.41-2.089 1.416-4.8 1.433-6.906.042l-49.324-32.558-4.818-18.303zm124.269-11.793c-2.931 4.478-7.683 7.046-13.039 7.046h-16.62l-28.98-30.643c-15.945-16.862-39.8-23.714-62.264-17.876l-41.436 10.754 29.438-29.639 39.073-10.504c9.866-2.659 20.368-2.941 30.37-.815l11.25 2.39c20.46 4.346 37.673 18.389 46.044 37.563l7.401 16.962c2.144 4.905 1.692 10.286-1.237 14.762z"/><path d="m232.271 444.233-5.435-5.145c-13.762-13.004-23.15-30.441-26.436-49.101-.718-4.08-4.606-6.803-8.687-6.085-4.079.718-6.804 4.607-6.085 8.687 3.841 21.812 14.817 42.198 30.901 57.396 5.435 4.69 11.283 10.383 11.396 18.994v35.52c0 4.142 3.358 7.5 7.5 7.5s7.5-3.358 7.5-7.5v-35.52c0-9.325-3.885-18.346-10.654-24.746z"/></g></g></svg>