<svg height="512pt" viewBox="-86 0 512 512" width="512pt" xmlns="http://www.w3.org/2000/svg"><g fill="#ff637b"><path d="m303.5 198.34375c-15.445312 5.539062-26.5 20.304688-26.5 37.65625v40c0 17.351562 11.054688 32.117188 26.5 37.65625 15.445312-5.539062 26.5-20.304688 26.5-37.65625v-40c0-17.351562-11.054688-32.117188-26.5-37.65625zm0 0"/><path d="m292.460938 386.347656c-26.296876 5.699219-47.460938 28.910156-47.460938 58.699219 0 25.191406 15.527344 46.738281 37.527344 55.632813 27.125-5.761719 47.472656-29.835938 47.472656-58.679688 0-25.199219-15.523438-46.757812-37.539062-55.652344zm0 0"/><path d="m187.972656 160.269531c-17.238281 4.449219-29.972656 20.101563-29.972656 38.730469 0 15.625 8.964844 29.148438 22.027344 35.730469 17.238281-4.449219 29.972656-20.101563 29.972656-38.730469 0-15.625-8.964844-29.148438-22.027344-35.730469zm0 0"/></g><path d="m287 196c1.011719 0 2.007812.050781 3 .125v-146.125c0-11.929688-5.230469-22.632812-13.511719-29.960938-21.390625.796876-38.488281 18.378907-38.488281 39.960938v31.089844c-8.511719-4.949219-17.925781-8.515625-28-10.125v.125c-.101562-.058594-.210938-.117188-.3125-.175782-3.804688-.59375-7.703125-.914062-11.6875-.914062-14.648438 0-20.191406-11.871094-32-5l-8-4.035156c-10.074219 1.609375-19.488281 5.175781-28 10.125v-31.089844c0-11.929688-5.230469-22.632812-13.511719-29.960938-21.390625.796876-38.488281 18.378907-38.488281 39.960938v442h212v-4.378906c-6.257812 2.210937-12.984375 3.425781-20 3.425781-33.140625 0-60-26.859375-60-60 0-41.539063 41.160156-70.300781 80-56.589844v-68.582031c-.992188.074219-1.988281.125-3 .125-22.089844 0-40-17.910156-40-40v-40c0-22.089844 17.910156-40 40-40zm-116 38c-22.089844 0-40-17.910156-40-40s17.910156-40 40-40 40 17.910156 40 40-17.910156 40-40 40zm0 0" fill="#ffa2c3"/><path d="m90 385.425781c-26.898438 5.941407-47 29.90625-47 58.574219 0 26.125 16.695312 48.335938 39.996094 56.570312 26.890625-5.9375 47.003906-29.894531 47.003906-58.570312 0-26.125-16.695312-48.335938-40-56.574219zm0 0" fill="#ff637b"/><path d="m65.347656 199.054688c-15.886718 5.296874-27.347656 20.28125-27.347656 37.945312v40c0 16.652344 10.179688 30.925781 24.652344 36.945312 15.886718-5.296874 27.347656-20.28125 27.347656-37.945312v-40c0-16.652344-10.179688-30.925781-24.652344-36.945312zm0 0" fill="#ff637b"/><path d="m220 196c0-27.570312-22.429688-50-50-50s-50 22.429688-50 50 22.429688 50 50 50 50-22.429688 50-50zm-50 30c-16.542969 0-30-13.457031-30-30s13.457031-30 30-30 30 13.457031 30 30-13.457031 30-30 30zm0 0"/><path d="m340 276v-40c0-24.144531-17.203125-44.347656-40-48.992188v-137.007812c0-27.570312-22.429688-50-50-50s-50 22.429688-50 50v15.351562c-9.691406-3.554687-19.734375-5.351562-30-5.351562s-20.308594 1.796875-30 5.351562v-15.351562c0-27.570312-22.429688-50-50-50s-50 22.429688-50 50v137.007812c-22.796875 4.644532-40 24.84375-40 48.992188v40c0 24.144531 17.203125 44.347656 40 48.992188v53.753906c-24.1875 11.484375-40 36.0625-40 63.253906 0 38.597656 31.402344 70 70 70h55c5.523438 0 10-4.476562 10-10s-4.476562-10-10-10h-6.078125c12.992187-12.714844 21.078125-30.429688 21.078125-50 0-38.597656-31.402344-70-70-70-3.367188 0-6.703125.253906-10 .722656v-47.730468c22.796875-4.644532 40-24.84375 40-48.992188v-40c0-24.144531-17.203125-44.347656-40-48.992188v-137.007812c0-16.542969 13.457031-30 30-30s30 13.457031 30 30v31.089844c0 3.578125 1.910156 6.882812 5.015625 8.667968 3.101563 1.785157 6.921875 1.773438 10.011719-.023437 11.105468-6.460937 22.871094-9.734375 34.972656-9.734375s23.867188 3.273438 34.972656 9.734375c3.09375 1.796875 6.910156 1.808594 10.015625.023437 3.101563-1.785156 5.011719-5.089843 5.011719-8.667968v-31.089844c0-16.542969 13.460938-30 30-30 16.542969 0 30 13.457031 30 30v137.007812c-22.792969 4.644532-40 24.84375-40 48.992188v40c0 24.144531 17.207031 44.347656 40 48.992188v47.730468c-3.296875-.472656-6.632812-.722656-10-.722656-38.597656 0-70 31.402344-70 70 0 19.570312 8.085938 37.285156 21.078125 50h-6.078125c-5.523438 0-10 4.476562-10 10s4.476562 10 10 10h55c38.597656 0 70-31.402344 70-70 0-27.191406-15.8125-51.769531-40-63.253906v-53.753906c22.796875-4.644532 40-24.847657 40-48.992188zm-220 166c0 27.570312-22.429688 50-50 50s-50-22.429688-50-50c0-27.273438 22.0625-50 50-50 27.570312 0 50 22.429688 50 50zm-40-206v40c0 16.542969-13.457031 30-30 30s-30-13.457031-30-30v-40c0-16.542969 13.457031-30 30-30s30 13.457031 30 30zm180 40v-40c0-16.542969 13.457031-30 30-30s30 13.457031 30 30v40c0 16.542969-13.457031 30-30 30s-30-13.457031-30-30zm60 166c0 27.570312-22.429688 50-50 50s-50-22.429688-50-50 22.429688-50 50-50c27.9375 0 50 22.726562 50 50zm0 0"/><path d="m180 502c0 5.523438-4.476562 10-10 10s-10-4.476562-10-10 4.476562-10 10-10 10 4.476562 10 10zm0 0"/></svg>