<svg id="Capa_1" enable-background="new 0 0 512 512" height="512" viewBox="0 0 512 512" width="512" xmlns="http://www.w3.org/2000/svg"><g><g><g><path d="m81.962 446.128c-56.376-56.376-56.376-148.627 0-205.002l175.254-175.254c56.376-56.376 148.626-56.376 205.002 0 56.376 56.376 56.376 148.626 0 205.002l-175.254 175.254c-56.375 56.376-148.626 56.376-205.002 0z" fill="#fe8a56"/></g><path d="m124.282 469.718c-16.294-16.294-27.868-35.588-34.743-56.143-14.805-20.077-22.807-44.356-22.807-69.948v-.221c.007-8.652 10.469-12.981 16.587-6.862l1.601 1.601c3.227-15.948 9.138-31.445 17.734-45.751-4.773-13.799-1.814-29.749 9.099-40.983l33.385-34.369c10.171-10.471 24.66-14.17 37.883-11.062l38.801-38.801c-3.345-13.213.145-27.799 10.483-38.137l33.833-32.057c9.955-9.433 23.517-12.755 36.019-10.045 14.344-13.644 30.848-23.777 48.41-30.393 1.421-3.335 4.645-5.904 8.932-5.904h.221c3.088 0 6.157.12 9.202.351 26.988-6.261 55.451-4.776 81.728 4.496-56.789-45.743-140.766-42.286-193.434 10.382l-175.254 175.254c-56.376 56.376-56.376 148.626 0 205.002 15.698 15.698 34.178 27.018 53.89 33.974-3.997-3.22-7.863-6.676-11.57-10.384z" fill="#fd6930"/><g><path d="m443.091 85c-22.157-22.156-51.766-34.359-83.373-34.359h-.221c-8.653 0-12.987 10.462-6.868 16.581l43.783 43.782c7.956 7.956 8.961 20.789 1.789 29.459-8.211 9.925-23.101 10.437-32.002 1.537l-44.266-44.266c-15.324-15.324-40.065-15.658-55.797-.751l-33.832 32.057c-15.621 15.621-15.621 40.948 0 56.569l50.872 50.872c7.956 7.956 8.961 20.79 1.789 29.459-8.211 9.925-23.101 10.437-32.002 1.536l-50.85-50.85c-15.782-15.782-41.426-15.595-56.976.414l-33.385 34.369c-15.732 16.196-14.95 42.195 1.728 57.416l38.098 34.77c7.956 7.956 8.961 20.79 1.789 29.459-8.211 9.925-23.101 10.437-32.002 1.536l-38.047-38.047c-6.118-6.118-16.58-1.79-16.587 6.862v.221c0 31.608 12.202 61.217 34.359 83.374 22.157 22.156 51.766 34.359 83.373 34.359 31.588 0 61.181-12.188 83.333-34.319 6.981-6.974 7.018-18.357.04-25.334l-57.72-57.72c-8.9-8.9-8.388-23.791 1.536-32.002 8.669-7.172 21.503-6.167 29.459 1.789l41.691 41.691c15.621 15.621 40.948 15.621 56.569 0l32.183-32.183c15.621-15.621 15.621-40.948 0-56.569l-58.523-58.523c-7.956-7.956-8.961-20.79-1.789-29.459 8.211-9.925 23.101-10.437 32.002-1.536l74.552 74.552c6.978 6.978 18.36 6.941 25.334-.04 22.131-22.152 34.319-51.745 34.319-83.333.001-31.608-12.202-61.217-34.358-83.373z" fill="#fe653b"/></g><g><g><path d="m283.176 236.481c6.214 6.214 8.165 15.396 5.314 23.253l7.742 7.742c8.9 8.9 23.791 8.388 32.002-1.536 7.172-8.669 6.167-21.503-1.789-29.459l-50.872-50.872c-15.621-15.621-15.621-40.948 0-56.569l33.833-32.057c1.844-1.747 3.816-3.277 5.878-4.606-15.167-9.772-35.53-8.297-49.147 4.606l-33.833 32.057c-15.621 15.621-15.621 40.948 0 56.569z" fill="#ef4424"/></g><g><path d="m396.411 111.004c6.214 6.214 8.164 15.396 5.314 23.253l7.742 7.742c8.901 8.9 23.791 8.388 32.002-1.537 7.172-8.669 6.167-21.503-1.789-29.459l-43.783-43.782c-3.349-3.349-3.562-7.997-1.653-11.521-11.033-3.333-22.638-5.06-34.527-5.06h-.221c-8.653 0-12.987 10.462-6.868 16.581z" fill="#ef4424"/></g><g><path d="m113.479 308.825 38.098 34.77c6.214 6.214 8.165 15.396 5.314 23.253l7.742 7.742c8.9 8.9 23.79 8.388 32.002-1.536 7.173-8.669 6.167-21.503-1.789-29.459l-38.098-34.77c-16.678-15.221-17.46-41.22-1.728-57.416l33.385-34.369c2.173-2.237 4.549-4.154 7.062-5.773-15.664-10.097-36.811-8.146-50.331 5.773l-33.385 34.369c-15.732 16.197-14.949 42.196 1.728 57.416z" fill="#ef4424"/></g><g><path d="m144.359 427c-17.033-17.033-28.175-38.473-32.421-61.837l-28.62-28.62c-6.118-6.118-16.58-1.79-16.587 6.862v.221c0 31.608 12.202 61.217 34.359 83.374 22.157 22.156 51.766 34.359 83.373 34.359 7.343 0 14.576-.667 21.635-1.956-23.326-4.259-44.73-15.393-61.739-32.403z" fill="#ef4424"/></g></g><g><path d="m206 246.23c0 8.964 7.267 16.23 16.23 16.23 6.956 0 12.873-4.385 15.182-10.534l-20.878-20.878c-6.149 2.309-10.534 8.226-10.534 15.182z" fill="#ffbd86"/></g><g><circle cx="283.23" cy="140.77" fill="#ffbd86" r="16.23"/></g><g><circle cx="420.52" cy="188.671" fill="#ffbd86" r="16.23"/></g><g><circle cx="195.23" cy="402.77" fill="#ffbd86" r="16.23"/></g><g><circle cx="307.77" cy="312.23" fill="#ffbd86" r="16.23"/></g></g><g><g><circle cx="72.421" cy="102.237" fill="#fe8a56" r="64.921"/></g><g><path d="m28.833 93.001c-8.452 0-16.054 3.637-21.328 9.431.057 19.169 8.424 36.377 21.686 48.226 15.758-.193 28.474-13.02 28.474-28.824 0-15.924-12.909-28.833-28.832-28.833z" fill="#ffbd86"/></g><g><circle cx="90.626" cy="83.626" fill="#ffbd86" r="14.626"/></g></g><g><path d="m467.521 60.569c-28.682-28.683-66.967-44.479-107.804-44.479s-79.122 15.796-107.804 44.479l-175.254 175.254c-28.682 28.682-44.479 66.968-44.479 107.804s15.796 79.122 44.479 107.804c28.682 28.683 66.968 44.479 107.804 44.479s79.122-15.796 107.804-44.479l18.708-18.708c2.929-2.929 2.929-7.678 0-10.606-2.929-2.929-7.678-2.929-10.606 0l-18.708 18.708c-25.849 25.849-60.368 40.085-97.198 40.085s-71.349-14.236-97.198-40.085-40.085-60.368-40.085-97.198 14.236-71.349 40.085-97.198l175.255-175.254c25.849-25.849 60.368-40.085 97.198-40.085s71.349 14.236 97.198 40.085 40.084 60.368 40.084 97.198-14.236 71.349-40.085 97.198l-131.798 131.798c-2.929 2.929-2.929 7.678 0 10.606 2.929 2.929 7.678 2.929 10.606 0l131.798-131.798c28.683-28.682 44.479-66.968 44.479-107.804s-15.796-79.122-44.479-107.804z"/><path d="m216.435 317.764c5.542-4.587 14.053-4.009 19.375 1.313l41.691 41.691c18.521 18.521 48.655 18.521 67.175 0l32.183-32.183c8.972-8.972 13.913-20.9 13.913-33.588s-4.941-24.616-13.913-33.587l-58.523-58.523c-5.322-5.322-5.899-13.833-1.313-19.375 2.571-3.107 6.208-4.923 10.241-5.113 3.994-.192 7.885 1.306 10.678 4.099l74.552 74.552c4.78 4.781 11.147 7.411 17.932 7.411h.055c6.791-.014 13.168-2.661 17.956-7.454 23.546-23.567 36.513-55.045 36.513-88.634 0-33.61-12.982-65.103-36.556-88.677-23.573-23.573-55.066-36.556-88.677-36.556h-.221c-6.987 0-13.229 4.171-15.903 10.626-2.673 6.455-1.209 13.818 3.731 18.758l43.783 43.783c5.322 5.322 5.899 13.832 1.313 19.375-2.571 3.107-6.208 4.923-10.241 5.114-4.001.179-7.886-1.306-10.679-4.099l-13.224-13.225c-2.928-2.929-7.677-2.929-10.606 0s-2.929 7.677 0 10.606l13.224 13.225c5.774 5.773 13.792 8.864 21.992 8.476 8.185-.386 15.873-4.226 21.092-10.536 9.464-11.439 8.47-28.809-2.265-39.542l-43.783-43.783c-.864-.864-.738-1.789-.479-2.412.258-.624.822-1.366 2.044-1.366h.221c29.604 0 57.33 11.422 78.07 32.162 20.74 20.741 32.162 48.466 32.162 78.07 0 29.585-11.409 57.297-32.125 78.032-1.963 1.964-4.582 3.049-7.375 3.055-.008 0-.015 0-.023 0-2.779 0-5.38-1.071-7.327-3.018l-74.552-74.552c-5.773-5.773-13.787-8.86-21.991-8.476-8.185.386-15.873 4.226-21.093 10.535-9.464 11.439-8.469 28.809 2.265 39.543l58.523 58.523c12.672 12.672 12.672 33.291 0 45.962l-32.183 32.183c-12.671 12.672-33.29 12.672-45.962 0l-41.691-41.691c-10.733-10.734-28.103-11.729-39.543-2.264-6.309 5.22-10.149 12.907-10.535 21.092-.387 8.203 2.703 16.218 8.477 21.992l57.719 57.72c1.952 1.952 3.024 4.562 3.018 7.35-.006 2.793-1.091 5.413-3.056 7.376-20.736 20.715-48.448 32.124-78.032 32.124-29.604 0-57.33-11.422-78.07-32.162s-32.162-48.466-32.162-78.07v-.214c.001-1.224.745-1.789 1.369-2.046.624-.259 1.55-.384 2.415.48l38.047 38.047c5.773 5.773 13.781 8.858 21.991 8.477 8.184-.386 15.872-4.226 21.092-10.535 9.464-11.44 8.47-28.809-2.264-39.543-.081-.081-.163-.16-.248-.236l-38.099-34.771c-6.554-5.981-10.31-14.16-10.577-23.028-.267-8.869 2.991-17.258 9.173-23.623l33.385-34.369c6.111-6.291 14.306-9.791 23.076-9.854 8.781-.075 17.015 3.317 23.217 9.519l8.114 8.114c-4.027 4.315-6.424 10.075-6.424 16.186 0 13.085 10.646 23.73 23.73 23.73 6.11 0 11.871-2.397 16.186-6.424l9.243 9.243c5.773 5.773 13.788 8.859 21.991 8.476 8.185-.386 15.873-4.226 21.092-10.535 9.464-11.439 8.47-28.809-2.264-39.542l-50.873-50.873c-12.649-12.649-12.672-33.217-.067-45.895l33.755-31.984c12.878-12.203 32.791-11.933 45.335.61l6.292 6.292c2.929 2.929 7.678 2.929 10.606 0 2.929-2.929 2.929-7.678 0-10.606l-6.292-6.292c-8.801-8.801-20.502-13.741-32.948-13.908-12.449-.174-24.275 4.455-33.311 13.016l-33.833 32.057c-.049.046-.097.093-.145.141-18.521 18.52-18.521 48.655 0 67.175l50.873 50.873c5.322 5.322 5.898 13.832 1.313 19.375-2.571 3.107-6.208 4.923-10.241 5.113-3.988.188-7.885-1.306-10.678-4.099l-15.549-15.549s-.001-.001-.001-.001l-20.878-20.878c-.001-.001-.002-.001-.003-.002l-14.419-14.419c-9.064-9.064-21.138-14.039-33.932-13.912-12.818.093-24.795 5.208-33.727 14.403l-33.385 34.369c-9.035 9.302-13.796 21.563-13.406 34.525.39 12.961 5.88 24.915 15.458 33.656l37.959 34.644c5.221 5.329 5.759 13.761 1.205 19.266-2.571 3.107-6.208 4.923-10.241 5.113-3.993.183-7.885-1.306-10.678-4.1l-38.043-38.048c-4.939-4.94-12.301-6.405-18.755-3.735-6.455 2.67-10.629 8.909-10.635 15.901v.221c0 33.611 12.982 65.104 36.556 88.677s55.066 36.556 88.677 36.556c33.588 0 65.065-12.967 88.634-36.513 4.792-4.788 7.439-11.165 7.454-17.956.015-6.806-2.618-13.194-7.411-17.987l-57.719-57.72c-2.793-2.793-4.288-6.686-4.1-10.679.189-4.033 2.005-7.671 5.113-10.241zm5.795-62.804c-4.814 0-8.73-3.917-8.73-8.73 0-2.072.752-4.036 2.035-5.574l12.27 12.27c-1.538 1.282-3.502 2.034-5.575 2.034z"/><path d="m306.96 140.77c0-13.085-10.645-23.73-23.73-23.73s-23.73 10.645-23.73 23.73 10.646 23.73 23.73 23.73 23.73-10.646 23.73-23.73zm-32.46 0c0-4.814 3.917-8.73 8.73-8.73s8.73 3.916 8.73 8.73-3.916 8.73-8.73 8.73-8.73-3.917-8.73-8.73z"/><path d="m396.79 188.671c0 13.085 10.645 23.73 23.73 23.73s23.73-10.646 23.73-23.73-10.646-23.73-23.73-23.73-23.73 10.645-23.73 23.73zm23.73-8.73c4.814 0 8.73 3.916 8.73 8.73s-3.917 8.73-8.73 8.73-8.73-3.917-8.73-8.73 3.917-8.73 8.73-8.73z"/><path d="m195.23 426.5c13.085 0 23.73-10.646 23.73-23.73s-10.645-23.73-23.73-23.73-23.73 10.645-23.73 23.73 10.646 23.73 23.73 23.73zm0-32.46c4.814 0 8.73 3.916 8.73 8.73s-3.916 8.73-8.73 8.73-8.73-3.917-8.73-8.73 3.917-8.73 8.73-8.73z"/><path d="m307.77 335.96c13.085 0 23.73-10.645 23.73-23.73s-10.646-23.73-23.73-23.73-23.73 10.646-23.73 23.73 10.645 23.73 23.73 23.73zm0-32.46c4.814 0 8.73 3.917 8.73 8.73s-3.917 8.73-8.73 8.73-8.73-3.916-8.73-8.73 3.916-8.73 8.73-8.73z"/><circle cx="435.822" cy="140.469" r="7.5"/><circle cx="420.5" cy="100.5" r="7.5"/><circle cx="351.661" cy="291.96" r="7.5"/><circle cx="270.5" cy="185.5" r="7.5"/><circle cx="329.5" cy="142.5" r="7.5"/><circle cx="168.801" cy="304.967" r="7.5"/><circle cx="138.962" cy="414.376" r="7.5"/><circle cx="243.5" cy="414.5" r="7.5"/><circle cx="159.5" cy="252.5" r="7.5"/><path d="m142.682 119.815c1.003-4.019-1.442-8.09-5.461-9.092-4.02-1.005-8.09 1.442-9.092 5.461-6.386 25.597-29.293 43.474-55.707 43.474-9.298 0-18.078-2.235-25.854-6.175 11.075-6.249 18.599-18.128 18.599-31.65 0-20.034-16.299-36.333-36.333-36.333-4.099 0-8.12.725-11.922 2.053 6.505-24.571 28.923-42.739 55.511-42.739 25.325 0 47.371 16.237 54.858 40.404 1.226 3.957 5.428 6.171 9.384 4.944 3.957-1.226 6.17-5.427 4.944-9.384-9.444-30.483-37.248-50.964-69.186-50.964-39.935.002-72.423 32.49-72.423 72.423s32.488 72.421 72.421 72.421c33.312 0 62.204-22.552 70.261-54.843zm-127.582-14.294c3.823-3.213 8.691-5.02 13.732-5.02 11.763 0 21.333 9.57 21.333 21.333 0 10.654-7.956 19.56-18.234 21.076-9.726-9.682-16.005-22.817-16.831-37.389z"/><path d="m112.753 83.626c0-12.201-9.926-22.126-22.126-22.126s-22.127 9.926-22.127 22.126 9.926 22.126 22.126 22.126 22.127-9.925 22.127-22.126zm-29.253 0c0-3.93 3.197-7.126 7.126-7.126s7.126 3.197 7.126 7.126-3.197 7.126-7.126 7.126-7.126-3.196-7.126-7.126z"/><circle cx="107.5" cy="118.5" r="7.5"/><circle cx="82.5" cy="139.5" r="7.5"/><circle cx="51.322" cy="71.399" r="7.5"/></g></g></svg>