<svg id="Capa_1" enable-background="new 0 0 511.888 511.888" height="512" viewBox="0 0 511.888 511.888" width="512" xmlns="http://www.w3.org/2000/svg"><g><g><path d="m141.046 181.873-4.824-37.304c-.679-5.254-.768-10.568-.265-15.842l8.337-87.324c.738-7.735 5.823-14.371 13.099-17.097l12.226-4.581c8.57-3.211 18.229-.296 23.593 7.119l32.68 45.179c8.864 12.254 15.38 26.046 19.217 40.675l29.156 111.153-41.582 43.743-57.236-33.657c-18.892-11.11-31.59-30.328-34.401-52.064z" fill="#fea95c"/><path d="m245.11 112.697c-3.837-14.629-10.353-28.421-19.217-40.675l-32.68-45.178c-5.364-7.415-15.023-10.33-23.593-7.119l-3.881 1.454c2.411 1.397 4.562 3.299 6.274 5.665l32.68 45.178c21.602 24.765 38.087 120.94 48.373 151.829l-33.98 35.746 13.599 7.997 41.582-43.743z" fill="#fe9738"/><path d="m240.42 294.331h31.16v206.9h-31.16z" fill="#6fd7a3"/><path d="m271.58 294.331v133.45c-10.38-8.98-18.14-20.81-22.19-34.25l-8.97-29.8v-69.4z" fill="#3ec3a4"/><path d="m256 294.329h15.579v206.905h-15.579z" fill="#3ec3a4"/><path d="m252.68 334.011-5.56 40.25c-1.22 8.88-3.78 17.47-7.53 25.5s-8.71 15.49-14.73 22.13c-6.51 7.16-14.14 13.21-22.59 17.91l-88.91 49.45c-4.67 2.6-9.85 3.9-15.04 3.9-4.7 0-9.4-1.07-13.74-3.22-13.8-6.85-20.46-22.81-15.62-37.44l7.01-21.14 11.82-62.07c3.23-16.94 10.71-32.78 21.75-46.02l25.02-30c12.75-15.3 31.51-24.32 51.42-24.72l46.7-.95z" fill="#fea95c"/><path d="m232.68 267.591-21.072.429 19.871 65.991c-4.086 28.544-5.639 66.547-27.822 87.879-12.135 16.892-93.667 55.662-111.497 67.363-1.438.799-2.927 1.463-4.447 2.017 3.429 1.253 7.017 1.882 10.607 1.882 5.19 0 10.37-1.3 15.04-3.9l88.91-49.45c8.45-4.7 16.08-10.75 22.59-17.91 6.02-6.64 10.98-14.1 14.73-22.13s6.31-16.62 7.53-25.5l5.56-40.25z" fill="#fe9738"/><path d="m447.315 256.863-55.721-37.336-104.452 12.237-54.458 35.829 122.851 68.609c12.763 7.128 27.068 11.034 41.682 11.373 15.868.369 36.727.982 50.065 1.871 9.958.663 19.726 3.009 28.901 6.936 6.94 2.971 14.955 1.849 20.813-2.912 8.07-6.56 9.885-18.154 4.206-26.866l-29.112-44.654c-6.485-9.944-14.912-18.478-24.775-25.087z" fill="#fea95c"/><path d="m501.201 326.605-29.112-44.654c-6.484-9.946-14.911-18.479-24.774-25.088l-55.721-37.336-18.046 2.114 52.565 35.222c20.688 11.74 40.381 50.988 53.886 69.742 5.68 8.712 3.865 20.306-4.206 26.867-.844.667-1.695 1.23-2.551 1.725.985.381 1.968.769 2.94 1.186 6.94 2.971 14.955 1.849 20.813-2.912 8.071-6.56 9.886-18.154 4.206-26.866z" fill="#fe9738"/><g><path d="m333.167 98.619 38.838-21.762c10.999-6.163 20.777-14.289 28.849-23.974l29.085-34.899c5.994-7.192 16.127-9.358 24.538-5.244l4.169 2.039c7.516 3.676 12.011 11.584 11.323 19.923l-9.661 117.157c-1.376 16.684-8.61 32.344-20.421 44.207-8.279 8.316-18.493 14.447-29.725 17.845l-177.477 53.682 48.144-111.029c10.633-24.523 29.02-44.879 52.338-57.945z" fill="#ffd15b"/><path d="m458.645 14.779-4.169-2.039c-6.29-3.076-13.542-2.639-19.307.785 8.323 3.785 14.578 11.591 13.598 21.178 0 0-9.661 117.157-9.661 117.157-1.376 16.684-8.609 32.344-20.421 44.207-10.793 17.407-128.271 47.723-182.543 63.552l-3.458 7.975 177.477-53.682c11.232-3.397 21.446-9.529 29.725-17.845 11.811-11.864 19.045-27.523 20.421-44.207l9.661-117.157c.688-8.34-3.806-16.248-11.323-19.924z" fill="#ffc344"/><path d="m232.684 267.593 93.995 15.399c20.182 3.306 38.788 12.951 53.123 27.537 10.883 11.074 18.928 24.614 23.449 39.468l29.639 97.38c3.289 10.806-2.865 22.219-13.701 25.409l-10.671 3.142c-4.525 1.332-9.372 1.049-13.71-.802l-82.782-35.307c-19.99-8.526-35.166-25.483-41.431-46.293z" fill="#ffd15b"/><path d="m432.891 447.378-29.639-97.38c-4.521-14.854-12.566-28.394-23.449-39.468-14.335-14.586-32.941-24.231-53.123-27.537l-93.995-15.399 1.176 3.907c59.021 8.718 128.314 10.598 148.189 78.498.001-.001 29.64 97.379 29.64 97.379 3.289 10.806-2.865 22.219-13.701 25.409-1.613.433-3.333.975-5.109 1.517l1.928.823c4.339 1.85 9.186 2.134 13.71.802l10.671-3.142c10.836-3.19 16.99-14.604 13.702-25.409z" fill="#ffc344"/><path d="m232.684 267.593-58.99 35.531c-13.537 8.153-29.04 12.462-44.842 12.462-17.805 0-35.18-5.468-49.776-15.666l-62.893-43.94c-5.441-3.801-8.682-10.02-8.682-16.657v-17.065c0-8.191 4.918-15.582 12.475-18.744l66.615-27.881c14.704-6.154 30.99-7.45 46.482-3.699 15.46 3.743 29.324 12.317 39.579 24.477z" fill="#ffd15b"/><path d="m172.651 196.411c-10.255-12.16-24.119-20.734-39.579-24.477-8.961-2.17-18.186-2.64-27.218-1.469 45.499 8.161 74.111 64.609 105.63 97.128-30.906 18.029-61.509 42.117-94.339 47.185 3.865.526 7.774.808 11.707.808 15.802 0 31.306-4.308 44.842-12.462l58.99-35.531z" fill="#ffc344"/></g></g><g><path d="m271.58 435.122c-4.143 0-7.5 3.358-7.5 7.5v58.609c0 4.142 3.357 7.5 7.5 7.5s7.5-3.358 7.5-7.5v-58.609c0-4.142-3.357-7.5-7.5-7.5z"/><path d="m507.482 322.505-29.11-44.651c-7.084-10.859-16.13-20.019-26.888-27.224l-42.555-28.51c31.307-7.629 56.536-36.85 58.852-69.644l3.27-39.641c.341-4.128-2.73-7.751-6.858-8.091-4.134-.334-7.751 2.73-8.091 6.858l-3.27 39.641c-1.818 24.733-19.921 48.226-44.843 55.49l-145.618 44.045 44.021-39.951c3.067-2.784 3.298-7.527.514-10.594-2.785-3.067-7.528-3.297-10.594-.513l-42.908 38.941 34.305-79.113c9.922-22.881 27.367-42.196 49.124-54.387 21.119-12.375 54.553-27.316 69.782-47.478l29.085-34.898c2.99-3.587 7.577-5.182 11.993-4.426l-54.583 89.751c-8.195 13.476-18.377 25.567-30.261 35.938l-8.239 7.19c-3.121 2.724-3.442 7.461-.719 10.583 1.482 1.699 3.562 2.568 5.653 2.568 1.75 0 3.507-.609 4.929-1.849l8.239-7.19c13.043-11.383 24.218-24.654 33.214-39.446l54.601-89.78c1.476 2.307 2.204 5.078 1.967 7.961l-3.495 42.375c-.341 4.128 2.73 7.751 6.858 8.091 4.125.336 7.75-2.73 8.091-6.858l3.495-42.375c1.318-12.685-7.443-24.742-19.672-29.316-11.552-5.65-25.364-2.696-33.595 7.18l-29.085 34.899c-12.966 17.706-47.243 33.078-65.591 43.995-24.604 13.787-44.334 35.629-55.554 61.505l-37.612 86.739-5.198-36.115c-.591-4.1-4.389-6.947-8.492-6.355-4.1.59-6.945 4.392-6.355 8.492l5.238 36.389-43.142-51.156c-8.611-10.209-19.348-18.023-31.495-23.017-1.059-10.245-4.655-28.409-3.464-39.115l8.33-87.328c.336-3.511 2.139-6.697 4.836-8.839l29.519 85.471c1.188 3.438 2.251 6.972 3.162 10.505.85 2.822 4.522 6.625 9.136 5.389 4.011-1.035 6.424-5.125 5.39-9.135-1.012-3.92-2.192-7.841-3.51-11.656l-29.85-86.428c4.697-2.515 12.787-1.546 16.693 3.813l32.681 45.181c8.35 11.541 14.42 24.389 18.042 38.187l10.083 38.441c1.051 4.006 5.146 6.404 9.158 5.352 4.006-1.051 6.402-5.151 5.352-9.157l-10.084-38.442c-4.095-15.599-10.958-30.125-20.397-43.171l-32.681-45.181c-7.32-10.12-20.602-14.127-32.296-9.748l-12.237 4.583c-9.885 3.712-16.923 12.899-17.929 23.409l-8.329 87.32c-1.345 9.109 1.469 26.491 2.66 35.839-16.002-3.123-32.333-1.465-47.461 4.867l-66.615 27.881c-10.375 4.342-17.079 14.415-17.079 25.662v17.065c0 9.08 4.444 17.605 11.887 22.805l62.894 43.941c8.681 6.065 18.186 10.559 28.179 13.405-11.367 13.973-19.158 30.675-22.537 48.403l-11.728 61.583-6.855 20.675c-4.979 15.05-.009 31.439 11.648 41.382 10.644 9.443 29.47 12.45 43.518 4.288l88.909-49.45c9.521-5.317 19.417-13.176 27.005-22.303v77.179c0 4.142 3.357 7.5 7.5 7.5s7.5-3.358 7.5-7.5v-101.763c3.655-8.243 6.422-20.425 7.486-30.379l8.008 26.601c6.926 23.005 23.571 41.604 45.67 51.03l82.783 35.307c8.497 4.462 21.593.793 31.296-2.669 6.334-2.349 11.537-6.854 14.775-12.86 3.55-6.583 4.305-14.149 2.127-21.304l-27.305-89.708c11.657.347 24.695.83 34.023 1.449 9.142.605 18.038 2.739 26.444 6.341 7.956 3.631 20.371 2.806 28.501-3.984 10.455-8.312 13.647-24.581 5.754-36.787zm-487.004-72.673c-2.421-1.706-5.326-5.705-5.478-10.563h85.348c8.21 0 16.358 1.202 24.219 3.571l33.303 10.039c2.99.906 7.669-.424 9.346-5.016 1.195-3.966-1.05-8.15-5.016-9.345l-33.303-10.039c-9.267-2.793-18.871-4.209-28.549-4.209h-85.348c-.621-4.753 2.294-11.557 7.87-13.836l66.615-27.881c25.282-11.182 59.101-3.839 77.433 18.694l54.363 64.46c-24.205 13.103-63.155 44.571-92.43 42.38-16.351 0-32.077-4.95-45.48-14.313zm55.601 205.02c.212-.834 7.033-20.83 7.258-22.098l11.82-62.069c3.005-17.281 12.612-34.802 24.664-48.043 38.827 4.589 66.955-19.425 93.768-34.792l-45.323 86.409c-3.289 6.27-7.396 12.081-12.207 17.273l-77.338 83.454c-3.765-5.817-4.933-13.209-2.642-20.134zm163.61-81.611c-3.14 23.955-18.493 47.721-41.065 60.006l-88.912 49.452c-4.915 2.547-11.796 4.143-19.182 1.613l76.531-82.583c5.711-6.163 10.586-13.06 14.488-20.501l49.247-93.888 14.23 47.269zm185.046 86.138c-.601 1.115-1.352 2.116-2.221 2.987-6.153-7.887-12.649-16.227-19.127-24.544-34.317-44.057-50.751-65.078-53.175-67.501-2.929-2.928-7.703-2.956-10.634-.027-2.929 2.929-2.955 7.65-.025 10.579 2.7 2.876 28.892 36.5 52 66.167 5.57 7.151 11.153 14.318 16.521 21.202-2.647.869-5.574 1.503-10.323-.013l-82.782-35.307c-17.996-7.675-31.552-22.822-37.191-41.556l-31.492-104.607 35.101 25.525c1.332.968 2.875 1.435 4.405 1.435 2.318 0 4.604-1.071 6.071-3.089 2.437-3.35 1.695-8.041-1.654-10.477l-27.573-20.053 62.83 10.293c32.295 4.934 61.077 29.64 70.61 61.788l29.64 97.38c1.003 3.297.655 6.784-.981 9.818zm54.399-109.892c-9.968-4.272-20.519-6.802-31.356-7.52-11.017-.732-26.98-1.274-39.958-1.629-12.518-33.005-44.145-59.36-79.928-64.748l-62.106-10.175 124.576-37.681 52.774 35.357c9.071 6.075 16.699 13.799 22.672 22.955l29.109 44.649c.98 1.969 2.48 4.545 1.938 8.831l-80.804-62.486c-12.771-9.876-27.227-16.72-42.962-20.34-4.037-.927-8.062 1.59-8.991 5.628-.928 4.037 1.592 8.062 5.628 8.99 13.606 3.13 26.105 9.047 37.149 17.588l79.44 61.432c-2.071.192-3.456.444-7.181-.851z"/><path d="m311.77 323.082c-4.251 0-7.697 3.446-7.697 7.697s3.446 7.697 7.697 7.697 7.697-3.446 7.697-7.697-3.446-7.697-7.697-7.697z"/><path d="m320.663 182.502c0 4.251 3.446 7.697 7.697 7.697s7.697-3.446 7.697-7.697-3.446-7.697-7.697-7.697-7.697 3.446-7.697 7.697z"/><circle cx="216.017" cy="169.833" r="7.697"/></g></g></svg>