<svg height="512pt" viewBox="-36 0 512 512" width="512pt" xmlns="http://www.w3.org/2000/svg"><path d="m95.058594 121-40.058594 52.578125c22.371094 52.609375 76.300781 105.699219 164.089844 164.179687 10.761718 7.144532 23.019531 10.46875 35.121094 10.21875 87.609374-58.398437 141.445312-111.425781 163.789062-163.976562l-45-63zm0 0" fill="#ff637b"/><path d="m403.027344 47.574219c-11.597656-14.332031-26.527344-25.414063-43.984375-31.714844-7.941407-2.511719-16.398438-3.859375-25.292969-3.859375-35.433594 0-59 21.558594-73.824219 43.578125-7.882812 11.699219-21.917969 14.683594-32.941406 8.957031-10.972656 2.617188-23.230469-1.027344-30.605469-10.957031-13.167968-17.746094-32.609375-35.1875-60.105468-41.289063-52.589844 4.25-88.273438 56.355469-88.273438 116.980469 0 18.300781 3.34375 36.445313 10.105469 54.648438 7.226562-5.480469 11.894531-14.152344 11.894531-23.917969 0-16.570312 13.429688-30 30-30 6.363281 0 12.261719 1.988281 17.117188 5.367188l17.882812 65.632812c0 11.167969 27.394531 11.902344 35.605469 17.066406 11.332031-4.285156 19.394531-15.230468 19.394531-28.066406v-30c0-16.570312 13.429688-30 30-30 4.46875 0 8.707031.984375 12.515625 2.734375l16.484375 21.265625 3 45c0 12.640625 20.804688 16.445312 30.839844 20.863281 15.238281-1.433593 27.160156-14.25 27.160156-29.863281v-30c0-16.570312 13.429688-30 30-30 4.179688 0 8.152344.855469 11.769531 2.398438 12.929688 2.324218 22.800781 14.6875 22.800781 29.601562 0 10.261719 4.679688 19.316406 11.808594 24.726562 4.089844 2.089844 8.714844 3.273438 13.621094 3.273438 6.75 0 12.988281-2.230469 18-6 2.675781-6.285156 4.886719-12.566406 6.664062-18.847656 2.894532-11.933594 4.335938-23.875 4.335938-35.882813 0-31.3125-9.523438-60.347656-25.972656-81.695312zm0 0" fill="#ffa2c3"/><path d="m250 349h-35v124c0 11.679688 6.675781 21.789062 16.414062 26.746094 10.90625-4.492188 18.585938-15.21875 18.585938-27.746094zm0 0" fill="#fff4ca"/><path d="m220 512c22.054688 0 40-17.945312 40-40v-115.863281c81.425781-54.308594 180-131.6875 180-228.867188 0-69.15625-47.546875-127.269531-115-127.269531-28.890625 0-54.304688 10.625-75.535156 31.574219-3.929688 3.878906-3.972656 10.210937-.09375 14.144531 3.878906 3.929688 10.210937 3.972656 14.144531.09375 17.351563-17.128906 38.039063-25.8125 61.484375-25.8125 54.160156 0 95 46.117188 95 107.269531 0 16.902344-3.304688 33.316407-10.074219 50.082031-3.003906 1.730469-6.386719 2.648438-9.925781 2.648438-11.027344 0-20-8.972656-20-20 0-22.054688-17.945312-40-40-40s-40 17.945312-40 40v30c0 11.027344-8.972656 20-20 20s-20-8.972656-20-20v-30c0-22.054688-17.945312-40-40-40s-40 17.945312-40 40v30c0 11.027344-8.972656 20-20 20s-20-8.972656-20-20v-30c0-22.054688-17.945312-40-40-40s-40 17.945312-40 40c0 11.027344-8.972656 20-20 20-3.539062 0-6.921875-.917969-9.925781-2.648438-6.769531-16.765624-10.074219-33.179687-10.074219-50.082031 0-61.152343 40.839844-107.269531 95-107.269531 23.445312 0 44.132812 8.683594 61.484375 25.8125 3.933594 3.878906 10.261719 3.835938 14.144531-.09375 3.878906-3.933594 3.835938-10.265625-.09375-14.144531-21.230468-20.949219-46.644531-31.574219-75.535156-31.574219-67.507812 0-115 58.175781-115 127.269531 0 97.183594 98.410156 174.449219 180 228.867188v115.863281c0 22.054688 17.945312 40 40 40zm0-20c-11.027344 0-20-8.972656-20-20v-106.460938c6.511719 1.886719 13.253906 2.828126 19.992188 2.828126 6.746093 0 13.488281-.945313 20.007812-2.832032v106.464844c0 11.027344-8.972656 20-20 20zm-178.730469-292.03125c21.46875-.675781 38.730469-18.335938 38.730469-39.96875 0-11.027344 8.972656-20 20-20s20 8.972656 20 20v30c0 22.054688 17.945312 40 40 40s40-17.945312 40-40v-30c0-11.027344 8.972656-20 20-20s20 8.972656 20 20v30c0 22.054688 17.945312 40 40 40s40-17.945312 40-40v-30c0-11.027344 8.972656-20 20-20s20 8.972656 20 20c0 21.632812 17.261719 39.292969 38.730469 39.96875-25.574219 43.726562-75.027344 89.707031-150.351563 139.878906-8.792968 5.839844-18.652344 8.542969-28.378906 8.542969-10.007812 0-19.804688-2.847656-28.367188-8.53125-75.332031-50.183594-124.789062-96.164063-150.363281-139.890625zm0 0"/><path d="m230 65c0 5.523438-4.476562 10-10 10s-10-4.476562-10-10 4.476562-10 10-10 10 4.476562 10 10zm0 0"/></svg>