<svg id="Capa_1" enable-background="new 0 0 511.988 511.988" height="512" viewBox="0 0 511.988 511.988" width="512" xmlns="http://www.w3.org/2000/svg"><g><g><path d="m170.305 215.058 7.561-39.723 39.723-7.561c18.877-3.593 38.308 2.389 51.896 15.977 9.639 9.639 15.578 22.364 16.776 35.943l2.265 25.678c2.049 23.232-17.392 42.673-40.624 40.624l-25.678-2.265c-13.579-1.198-26.303-7.137-35.943-16.776-13.587-13.588-19.569-33.02-15.976-51.897z" fill="#8ac9fe"/><path d="m288.526 245.371-2.265-25.678c-1.198-13.579-7.137-26.303-16.776-35.943-13.527-13.527-32.846-19.509-51.644-16.016 11.376 2.113 22.033 7.602 30.448 16.016 9.639 9.639 15.578 22.364 16.776 35.943l2.265 25.678c1.689 19.147-11.225 35.707-28.822 39.795l9.395.829c23.231 2.049 42.672-17.392 40.623-40.624z" fill="#60b7ff"/><path d="m262.514 405.024-59.36 31.23-21.55 11.33c-4.05 2.13-6.59 6.33-6.59 10.91v45.79h-30v-45.2c0-9.68-1.58-19.3-4.69-28.47l-59.85-176.72 28.41-9.62 56.97 168.19c1.43 4.24 6.31 6.19 10.27 4.1l28.3-14.88 44.12-23.21z" fill="#6fd7a3"/><path d="m262.514 405.024-59.36 31.23c-.83-3.68-1.11-7.56-.76-11.55l2.03-23.02 44.12-23.21z" fill="#3ec3a4"/><g fill="#3ec3a4"><path d="m148.454 412.463c1.435 4.237 6.317 6.187 10.276 4.104l7.239-3.808c-.039-.1-.085-.194-.119-.297l-56.963-168.19-15.606 5.285z"/><path d="m248.548 378.471-13.625 7.167 10.197 19.383-80.909 42.56c-4.054 2.133-6.592 6.336-6.592 10.917v45.787h17.396v-45.787c0-4.581 2.538-8.784 6.592-10.917l80.909-42.56z"/></g><path d="m379.468 293.635-6.781 39.863 34.584 20.952c16.435 9.957 36.732 11.134 54.208 3.145 12.398-5.668 22.405-15.518 28.268-27.825l11.086-23.272c10.03-21.055-1.401-46.059-23.887-52.249l-24.853-6.842c-13.143-3.618-27.14-2.495-39.538 3.173-17.476 7.991-29.865 24.112-33.087 43.055z" fill="#8ac9fe"/><path d="m476.946 254.25-24.853-6.841c-8.524-2.346-17.405-2.686-25.978-1.097 1.603.299 3.199.662 4.782 1.097l24.853 6.841c22.485 6.19 33.917 31.194 23.886 52.249l-11.086 23.272c-5.863 12.307-15.87 22.157-28.268 27.825-4.363 1.995-8.903 3.418-13.514 4.275 11.576 2.145 23.702.757 34.71-4.275 12.398-5.668 22.405-15.518 28.268-27.825l11.086-23.272c10.031-21.055-1.4-46.059-23.886-52.249z" fill="#60b7ff"/><path d="m312.854 333.494-34.58 20.96c-2.93 1.77-5.98 3.27-9.12 4.47-14.47 5.61-30.73 5.24-45.09-1.33-6.2-2.84-11.8-6.72-16.59-11.42-4.78-4.71-8.75-10.25-11.68-16.4l-11.09-23.27c-10.03-21.06 1.4-46.06 23.89-52.25l24.85-6.85c9.96-2.73 20.4-2.76 30.27-.14 3.16.84 6.26 1.94 9.27 3.32 8.74 3.99 16.21 10.02 21.89 17.42.45.59.89 1.18 1.32 1.79 4.98 7 8.4 15.12 9.88 23.84l4.62 27.14z" fill="#8ac9fe"/><path d="m310.694 320.774-22.49-15.3c-7.95-5.4-14.29-12.59-18.66-20.84-4.36-8.24-6.74-17.54-6.74-27.15 0-3.45.31-6.87.91-10.22 3.16.84 6.26 1.94 9.27 3.32 8.74 3.99 16.21 10.02 21.89 17.42 5.69 7.39 9.59 16.16 11.2 25.63z" fill="#60b7ff"/><path d="m309.398 305.478 33.435 22.742 33.435-22.742c15.889-10.807 25.399-28.777 25.399-47.993 0-13.632-4.798-26.829-13.553-37.278l-16.555-19.758c-14.978-17.876-42.472-17.876-57.45 0l-16.555 19.758c-8.755 10.449-13.553 23.646-13.553 37.278-.002 19.216 9.508 37.186 25.397 47.993z" fill="#8ac9fe"/><path d="m388.113 220.207-16.555-19.758c-10.01-11.946-25.605-15.897-39.323-11.876 6.809 1.996 13.158 5.946 18.127 11.876l16.556 19.758c8.755 10.449 13.553 23.646 13.553 37.278 0 19.216-9.51 37.186-25.399 47.993l-22.837 15.533 10.598 7.209 33.435-22.742c15.889-10.807 25.399-28.777 25.399-47.993-.001-13.632-4.799-26.829-13.554-37.278z" fill="#60b7ff"/><path d="m342.834 405.254c0 15.25-6.02 30.05-17 41.03-9.64 9.64-22.37 15.58-35.95 16.78l-25.67 2.26c-23.23 2.05-42.68-17.39-40.63-40.62l2.27-25.68c.6-6.79 2.38-13.37 5.22-19.45s6.73-11.67 11.55-16.49c2.24-2.24 4.64-4.27 7.17-6.09 12.81-9.21 28.96-12.89 44.73-9.89l39.72 7.57 6.33 33.24 1.23 6.48c.69 3.62 1.03 7.25 1.03 10.86z" fill="#8ac9fe"/><g fill="#60b7ff"><path d="m340.574 387.914c-5.62 1.43-10.45 5.83-11.86 12.24l-2.7 12.33c-1.03 4.7-7.73 4.7-8.76 0l-2.7-12.33c-2.54-11.61-16.31-16.62-25.72-9.36l-10 7.71c-3.8 2.93-8.93-1.37-6.7-5.63l5.85-11.19c5.52-10.53-1.81-23.21-13.68-23.7l-12.62-.52c-.71-.03-1.34-.2-1.89-.47 12.81-9.21 28.96-12.89 44.73-9.89l39.72 7.57z"/><path d="m341.808 394.392-7.561-39.723-39.723-7.561c-7.187-1.368-14.453-1.339-21.448-.04.084.016.168.024.252.04l39.723 7.561 7.561 39.723c3.593 18.877-2.389 38.308-15.977 51.896-9.639 9.639-22.364 15.578-35.943 16.776l-16.283 1.436c3.754.872 7.717 1.189 11.802.829l25.678-2.265c13.579-1.198 26.303-7.137 35.943-16.776 13.587-13.587 19.569-33.019 15.976-51.896z"/><path d="m312.854 333.494-34.58 20.96c-2.93 1.77-5.98 3.27-9.12 4.47-1.51-.54-3.13-.87-4.85-.94l-12.62-.52c-4.8-.2-5.96-6.79-1.52-8.62l11.68-4.81c10.99-4.52 13.53-18.94 4.75-26.95l-9.33-8.51c-3.55-3.24-.2-9.04 4.38-7.58l12.03 3.82c11.33 3.6 22.55-5.81 20.97-17.59l-1.68-12.51c-.34-2.52 1.26-4.35 3.23-4.92 4.98 7 8.4 15.12 9.88 23.84l4.62 27.14z"/></g><path d="m343.857 394.392 7.561-39.723 39.723-7.561c18.877-3.593 38.308 2.389 51.896 15.977 9.639 9.639 15.578 22.364 16.776 35.943l2.265 25.678c2.049 23.232-17.392 42.673-40.624 40.624l-25.678-2.265c-13.579-1.198-26.303-7.137-35.943-16.776-13.587-13.588-19.569-33.02-15.976-51.897z" fill="#8ac9fe"/><path d="m462.078 424.705-2.265-25.678c-1.198-13.579-7.137-26.303-16.776-35.943-13.527-13.527-32.846-19.509-51.644-16.017 11.377 2.113 22.034 7.602 30.448 16.017 9.639 9.639 15.578 22.364 16.776 35.943l2.265 25.678c1.689 19.147-11.224 35.707-28.822 39.795l9.395.829c23.231 2.049 42.672-17.392 40.623-40.624z" fill="#60b7ff"/><path d="m329.146 282.379-6.758-10.664c-2.573-4.06-8.865-1.77-8.227 2.994l1.678 12.513c1.579 11.78-9.641 21.196-20.969 17.595l-12.031-3.825c-4.581-1.456-7.929 4.342-4.377 7.582l9.328 8.507c8.782 8.009 6.239 22.434-4.753 26.957l-11.675 4.803c-4.446 1.829-3.283 8.423 1.52 8.622l12.614.521c11.876.49 19.2 13.175 13.686 23.705l-5.856 11.184c-2.23 4.259 2.9 8.563 6.706 5.627l9.997-7.709c9.412-7.258 23.177-2.248 25.722 9.362l2.703 12.332c1.029 4.696 7.725 4.696 8.755 0l2.703-12.332c2.545-11.61 16.309-16.62 25.722-9.362l9.997 7.709c3.807 2.935 8.936-1.369 6.706-5.627l-5.856-11.184c-5.513-10.53 1.81-23.215 13.686-23.705l12.614-.521c4.803-.198 5.966-6.793 1.52-8.622l-11.675-4.803c-10.992-4.522-13.535-18.947-4.753-26.957l9.328-8.507c3.552-3.239.204-9.038-4.377-7.582l-12.031 3.825c-11.327 3.601-22.548-5.814-20.969-17.595l1.678-12.513c.639-4.764-5.653-7.055-8.227-2.994l-6.758 10.664c-6.361 10.04-21.008 10.04-27.371 0z" fill="#ffead9"/><g fill="#fedba6"><path d="m369.598 304.817 6.947-2.209c-4.657-3.297-7.577-8.99-6.719-15.386l1.678-12.513c.639-4.764-5.653-7.055-8.227-2.994l-6.758 10.664c-2.017 3.182-4.867 5.352-8.021 6.517-.364 10.977 10.315 19.349 21.1 15.921z"/><path d="m414.303 348.841-11.675-4.803c-10.992-4.522-13.536-18.947-4.753-26.957l9.328-8.507c3.552-3.239.204-9.038-4.377-7.582l-12.031 3.825c-1.112.353-2.222.577-3.319.69-.047 1.08-.486 2.171-1.468 3.067l-9.328 8.507c-8.782 8.009-6.239 22.434 4.753 26.957l11.675 4.803c4.446 1.829 3.283 8.423-1.52 8.622l-12.614.521c-11.876.49-19.2 13.175-13.686 23.705l3.109 5.938c2.52.415 5.003 1.44 7.24 3.164l9.997 7.709c3.807 2.935 8.936-1.369 6.707-5.627l-5.856-11.184c-5.513-10.53 1.81-23.215 13.686-23.705l12.614-.521c4.801-.199 5.963-6.793 1.518-8.622z"/></g><circle cx="342.833" cy="342.812" fill="#ffd15b" r="21.266"/><path d="m342.833 321.546c-3.7 0-7.178.948-10.208 2.61 6.589 3.613 11.058 10.611 11.058 18.656s-4.469 15.043-11.058 18.656c3.031 1.662 6.508 2.61 10.208 2.61 11.745 0 21.266-9.521 21.266-21.266s-9.521-21.266-21.266-21.266z" fill="#ffc344"/><path d="m205.915 114.301-6.781 39.863 34.584 20.952c16.435 9.957 36.732 11.134 54.208 3.145 12.398-5.668 22.405-15.518 28.268-27.825l11.086-23.272c10.03-21.055-1.401-46.059-23.887-52.249l-24.853-6.842c-13.143-3.618-27.14-2.495-39.538 3.173-17.475 7.991-29.864 24.112-33.087 43.055z" fill="#8ac9fe"/><path d="m303.394 74.916-24.853-6.842c-8.524-2.346-17.405-2.686-25.978-1.097 1.603.299 3.199.662 4.782 1.097l24.853 6.842c22.486 6.19 33.917 31.194 23.887 52.249l-11.086 23.272c-5.863 12.307-15.87 22.157-28.268 27.825-4.363 1.995-8.903 3.418-13.514 4.275 11.576 2.145 23.702.757 34.71-4.275 12.398-5.668 22.405-15.518 28.268-27.825l11.086-23.272c10.03-21.054-1.401-46.059-23.887-52.249z" fill="#60b7ff"/><path d="m139.304 154.164-34.59 20.95c-2.92 1.77-5.97 3.27-9.1 4.48-14.46 5.61-30.74 5.24-45.1-1.33-6.2-2.83-11.8-6.71-16.59-11.43-4.78-4.7-8.75-10.24-11.68-16.4l-11.09-23.27c-10.03-21.05 1.4-46.06 23.89-52.25l24.85-6.84c9.95-2.74 20.4-2.76 30.27-.14 3.16.83 6.26 1.94 9.27 3.31 8.74 3.99 16.2 10.02 21.88 17.42.46.59.9 1.2 1.32 1.81 4.98 7 8.41 15.12 9.89 23.83l4.62 27.14z" fill="#8ac9fe"/><path d="m139.304 154.164-34.59 20.95c-2.92 1.77-5.97 3.27-9.1 4.48-1.51-.55-3.14-.88-4.87-.95l-12.61-.52c-4.8-.19-5.97-6.79-1.52-8.62l11.67-4.8c11-4.52 13.54-18.95 4.76-26.96l-9.33-8.5c-3.55-3.24-.2-9.04 4.38-7.59l12.03 3.83c11.33 3.6 22.55-5.82 20.97-17.6l-1.68-12.51c-.34-2.52 1.26-4.34 3.22-4.9 4.98 7 8.41 15.12 9.89 23.83l4.62 27.14z" fill="#60b7ff"/><path d="m137.144 141.444-22.49-15.3c-7.94-5.41-14.3-12.6-18.66-20.85-4.36-8.24-6.74-17.54-6.74-27.14 0-3.45.31-6.86.91-10.22 3.16.83 6.26 1.94 9.27 3.31 8.74 3.99 16.2 10.02 21.88 17.42 5.69 7.4 9.6 16.17 11.21 25.64z" fill="#60b7ff"/><path d="m135.846 126.144 33.435 22.742 33.435-22.742c15.889-10.807 25.399-28.777 25.399-47.993 0-13.632-4.798-26.829-13.553-37.278l-16.555-19.758c-14.978-17.876-42.472-17.876-57.45 0l-16.557 19.759c-8.755 10.449-13.553 23.646-13.553 37.278 0 19.215 9.51 37.185 25.399 47.992z" fill="#8ac9fe"/><path d="m214.561 40.874-16.555-19.758c-10.01-11.947-25.606-15.898-39.324-11.877 6.809 1.996 13.158 5.946 18.127 11.876l16.556 19.758c8.755 10.449 13.553 23.646 13.553 37.278 0 19.216-9.51 37.186-25.399 47.993l-22.837 15.533 10.598 7.209 33.435-22.742c15.889-10.807 25.399-28.777 25.399-47.993 0-13.632-4.798-26.829-13.553-37.277z" fill="#60b7ff"/><path d="m169.274 225.904c0 15.25-6.01 30.06-16.99 41.05-9.64 9.64-22.37 15.58-35.95 16.78l-25.68 2.26c-23.23 2.05-42.67-17.39-40.62-40.62l2.27-25.68c.59-6.79 2.38-13.36 5.22-19.45 2.83-6.08 6.73-11.67 11.55-16.49 2.24-2.24 4.64-4.28 7.18-6.1 12.81-9.2 28.96-12.88 44.72-9.88l39.72 7.56 6.33 33.24 1.23 6.48c.69 3.61 1.02 7.24 1.02 10.85z" fill="#8ac9fe"/><path d="m167.024 208.574c-5.62 1.43-10.45 5.83-11.86 12.24l-2.7 12.34c-1.03 4.69-7.73 4.69-8.76 0l-2.7-12.34c-2.55-11.61-16.31-16.62-25.72-9.36l-10 7.71c-3.81 2.94-8.94-1.37-6.71-5.63l5.86-11.18c5.51-10.53-1.81-23.21-13.69-23.71l-12.61-.52c-.71-.03-1.34-.2-1.88-.47 12.81-9.2 28.96-12.88 44.72-9.88l39.72 7.56z" fill="#60b7ff"/><path d="m168.256 215.058-7.561-39.723-39.723-7.561c-7.187-1.368-14.453-1.339-21.448-.04.084.016.168.024.252.04l39.723 7.561 7.561 39.723c3.593 18.877-2.389 38.308-15.977 51.896-9.639 9.639-22.364 15.578-35.943 16.776l-16.283 1.436c3.754.872 7.717 1.189 11.802.829l25.678-2.265c13.579-1.198 26.303-7.137 35.943-16.776 13.587-13.587 19.569-33.019 15.976-51.896z" fill="#60b7ff"/><path d="m155.594 103.045-6.758-10.664c-2.573-4.06-8.865-1.77-8.227 2.994l1.678 12.513c1.579 11.78-9.641 21.196-20.969 17.595l-12.031-3.825c-4.581-1.456-7.929 4.342-4.377 7.582l9.328 8.507c8.782 8.009 6.239 22.434-4.753 26.957l-11.675 4.803c-4.446 1.829-3.283 8.423 1.52 8.622l12.614.521c11.876.49 19.2 13.175 13.686 23.705l-5.856 11.184c-2.23 4.259 2.9 8.563 6.706 5.627l9.997-7.709c9.412-7.258 23.177-2.248 25.722 9.362l2.703 12.332c1.029 4.696 7.725 4.696 8.755 0l2.703-12.332c2.545-11.61 16.309-16.62 25.722-9.362l9.997 7.709c3.807 2.935 8.936-1.369 6.706-5.627l-5.856-11.184c-5.513-10.53 1.81-23.215 13.686-23.705l12.614-.521c4.803-.198 5.966-6.793 1.52-8.622l-11.675-4.803c-10.992-4.522-13.535-18.947-4.753-26.957l9.328-8.507c3.552-3.239.204-9.038-4.377-7.582l-12.031 3.825c-11.327 3.601-22.548-5.814-20.969-17.595l1.678-12.513c.639-4.764-5.653-7.055-8.227-2.994l-6.758 10.664c-6.361 10.04-21.008 10.04-27.371 0z" fill="#ffead9"/><g fill="#fedba6"><path d="m196.046 125.483 6.947-2.209c-4.657-3.297-7.577-8.99-6.719-15.386l1.678-12.513c.639-4.764-5.653-7.055-8.227-2.994l-6.758 10.664c-2.017 3.182-4.867 5.352-8.021 6.517-.364 10.977 10.315 19.35 21.1 15.921z"/><path d="m240.751 169.507-11.675-4.803c-10.992-4.522-13.536-18.948-4.753-26.957l9.328-8.507c3.552-3.239.204-9.038-4.377-7.582l-12.031 3.825c-1.112.353-2.222.577-3.319.69-.047 1.08-.486 2.171-1.468 3.067l-9.328 8.507c-8.782 8.009-6.239 22.434 4.753 26.957l11.675 4.803c4.446 1.829 3.283 8.423-1.52 8.622l-12.614.521c-11.876.49-19.2 13.175-13.686 23.705l3.109 5.938c2.519.415 5.002 1.44 7.239 3.164l9.997 7.709c3.807 2.935 8.936-1.369 6.706-5.627l-5.856-11.184c-5.513-10.53 1.81-23.215 13.686-23.705l12.614-.521c4.802-.199 5.965-6.793 1.52-8.622z"/></g><circle cx="169.28" cy="163.478" fill="#ffd15b" r="21.266"/><path d="m169.28 142.212c-3.7 0-7.178.948-10.208 2.61 6.589 3.613 11.058 10.611 11.058 18.656s-4.469 15.043-11.058 18.656c3.031 1.662 6.508 2.61 10.208 2.61 11.745 0 21.266-9.521 21.266-21.266.001-11.745-9.52-21.266-21.266-21.266z" fill="#ffc344"/></g><g><path d="m109.94 317.521c-1.329-3.924-5.586-6.025-9.51-4.698-3.923 1.329-6.026 5.586-4.697 9.509l37.488 110.691c2.848 8.396 4.292 17.165 4.292 26.061v45.2c0 4.142 3.357 7.5 7.5 7.5s7.5-3.358 7.5-7.5v-45.2c0-10.539-1.712-20.928-5.086-30.876z"/><path d="m507.904 271.683c-5.547-12.131-16.105-21.119-28.967-24.659l-24.856-6.852c-14.443-4.04-32.152-2.698-46.222 4.364-1.909-16.932-19.957-36.566-30.557-48.909-8.562-10.221-21.123-16.084-34.463-16.086-.002 0-.005 0-.007 0-13.342 0-25.907 5.862-34.479 16.086l-15.29 18.255c-1.421-8.2-4.71-17.467-10.268-25.687 16.167-4.737 32.418-17.67 40.168-34.535l11.09-23.271c2.966-6.225 4.443-12.842 4.39-19.668-.032-4.122-3.384-7.441-7.499-7.441-.02 0-.04 0-.06 0-4.143.033-7.474 3.417-7.441 7.559.036 4.535-.95 8.941-2.931 13.098l-11.092 23.274c-2.538 5.334-5.958 10.137-10.173 14.28-11.636 11.565-30.576 17.669-48.249 12.854.311-5.078-2.578-9.794-7.395-11.779-5.359-2.654-17.046-4.602-17.04-12.698l64.228-29.364c3.768-1.722 5.425-6.172 3.703-9.939-1.723-3.766-6.171-5.425-9.939-3.702l-41.93 19.169c.013-2.073-.509-4.171-1.615-6.089-2.956-5.347-10.726-7.443-17.119-4.447 6.848-9.896 10.945-21.608 11.62-33.772 10.621-7.267 27.4-10.396 41.042-6.419l24.852 6.841c3.279.902 6.338 2.322 9.09 4.22 1.3.897 2.783 1.327 4.251 1.327 2.383 0 4.726-1.133 6.181-3.242 2.352-3.41 1.494-8.081-1.916-10.432-4.138-2.854-8.723-4.985-13.626-6.334l-24.85-6.84c-14.423-4.044-32.14-2.709-46.229 4.354-.645-3.194-1.514-6.348-2.636-9.441-2.627-7.207-6.447-13.833-11.358-19.699l-16.56-19.759c-8.567-10.23-21.132-16.096-34.472-16.096-.001 0 0 0-.001 0-13.34 0-25.906 5.866-34.476 16.094l-16.548 19.759c-7.069 8.435-11.853 18.507-14.007 29.197-13.051-6.657-31.271-8.733-46.345-4.412l-24.851 6.84c-12.863 3.542-23.422 12.532-28.969 24.667-5.547 12.134-5.438 26 .301 38.042l11.088 23.265c7.679 15.98 21.93 29.019 40.267 34.569-11.074 14.063-11.781 39.713-13.175 56.491-1.173 13.289 3.564 26.32 12.998 35.753 8.487 8.487 19.887 13.173 31.766 13.173 1.323 0 29.537-2.425 29.537-2.425l41.884 123.644c2.864 7.602 11.395 12.824 20.867 8.341l38.356-20.175-1.572 17.785-38.285 20.134c-6.539 3.438-10.601 10.162-10.601 17.548v45.79c0 4.142 3.357 7.5 7.5 7.5s7.5-3.358 7.5-7.5v-45.79c0-1.797.989-3.434 2.582-4.271l31.86-16.755c1.797 8.362 5.954 16.124 12.157 22.326 17.886 18.466 41.108 12.192 61.432 10.742 15.312-1.353 29.729-8.083 40.593-18.947 4.721-4.721 8.648-10.067 11.696-15.873 3.049 5.81 6.976 11.156 11.698 15.872 10.866 10.866 25.279 17.595 40.586 18.948l25.678 2.26c11.868 1.308 26.748-3.706 35.752-12.997 9.434-9.433 14.171-22.464 12.998-35.751l-2.26-25.686c-.141-1.582-.34-3.173-.592-4.729-.662-4.088-4.509-6.87-8.603-6.204-4.089.662-6.866 4.514-6.204 8.603.194 1.202.349 2.433.457 3.651l2.26 25.682c.781 8.856-2.376 17.542-8.663 23.828-11.546 13.367-35.121 7.162-49.506 6.402-11.802-1.043-22.917-6.233-31.301-14.616-6.16-6.154-10.561-13.697-12.897-22.015 1.874-1.009 4.433-14.759 5.002-17.204.651-2.973 2.665-5.274 5.524-6.315 2.861-1.041 5.883-.571 8.291 1.286l9.998 7.71c3.329 2.568 7.582 3.158 11.331 1.809l22.578 22.569c1.465 1.464 3.384 2.196 5.303 2.196 1.92 0 3.84-.733 5.305-2.198 2.928-2.929 2.927-7.678-.002-10.606l-25.409-25.4c-1.217-7.105-10.813-14.658-6.858-22.989 1.521-2.636 4.138-4.219 7.179-4.345l11.057-.456c8.253 3.542 17.03 5.338 25.816 5.338 15.751.067 33.687-6.514 45.978-18.842 5.46-5.381 9.896-11.61 13.186-18.515l11.091-23.271c5.736-12.049 5.845-25.916.297-38.048zm-188.052-66.421c5.711-6.813 14.087-10.72 22.98-10.72h.005c8.891.001 17.262 3.908 22.968 10.72 12.172 14.59 29.248 30.815 28.358 52.223 0 13.81-5.758 27.083-15.637 36.537-1.084-1.693-1.549-3.704-1.267-5.803l1.677-12.511c.755-5.625-2.442-10.91-7.775-12.852-5.337-1.941-11.182.051-14.22 4.845l-6.607 10.426v-47.263c0-4.142-3.357-7.5-7.5-7.5s-7.5 3.358-7.5 7.5v47.268l-6.61-10.431c-3.037-4.793-8.881-6.787-14.218-4.846-5.333 1.941-8.531 7.226-7.777 12.851l1.678 12.513c.281 2.098-.183 4.109-1.268 5.802-3.912-3.738-7.244-8.114-9.775-12.895-3.84-7.256-5.869-15.431-5.869-23.642 0-11.85 4.193-23.379 11.81-32.464zm-48.746 94.01c-1.119 1.938-1.64 4.059-1.616 6.154l-42.058-19.223c-3.769-1.721-8.218-.063-9.939 3.704s-.063 8.217 3.703 9.939l64.373 29.422c1.003 6.818-12.351 10.636-17.06 12.637-4.806 1.977-7.697 6.683-7.396 11.753-11.222 2.976-23.197 2.026-33.925-2.882-19.093-7.171-28.035-31.218-35.712-47.496-3.824-8.03-3.897-17.272-.2-25.358 3.696-8.085 10.734-14.076 19.312-16.437l24.843-6.848c13.322-3.551 28.73-1.723 41.172 6.507.764 11.45 4.346 23.289 11.596 33.683-5.245-2.574-13.362-1.783-17.093 4.445zm-44.183-113.134 11.038-.455c7.938 3.354 18.285 5.7 28.019 5.28 10.727 10.254 13.659 29.819 14.181 44.971-.985 2.826-1.774 5.719-2.366 8.659-13.034-6.652-31.232-8.734-46.344-4.419l-24.848 6.85c-7.104 1.955-13.499 5.578-18.741 10.468-4.234-5.282-7.34-11.339-9.174-17.871 1.869-1.011 4.432-14.765 5.002-17.203 1.026-4.898 7.948-9.341 13.812-5.024l9.987 7.7c9.086 7.01 23.748-2.391 17.938-15.037l-5.853-11.185c-2.241-3.823.009-12.45 7.349-12.734zm-95.113-3.144c-3.905-6.768-10.766-11.114-18.507-11.777 14.072-6.53 18.685-26.391 6.745-38.29 14.62 4.476 31.476-8.668 29.786-25.002 8.318 12.83 29.687 13.607 38.891-.001-1.654 15.213 13.267 29.272 29.788 25.002-11.418 10.758-7.711 31.936 6.743 38.291-15.287.842-26.529 18.76-19.432 33.678-12.174-9.219-32.658-2.588-36.54 13.296-3.82-14.937-22.318-22.996-36.537-13.304 3.294-7.022 2.965-15.13-.937-21.893zm-13.866-105.112c.061-11.744 4.254-23.176 11.81-32.193l16.549-19.759c5.712-6.817 14.086-10.727 22.977-10.727s17.265 3.91 22.977 10.727l16.558 19.757c3.787 4.523 6.735 9.638 8.76 15.191 1.975 5.449 2.998 11.142 3.041 16.864v.41c0 13.801-5.758 27.073-15.637 36.534-1.086-1.694-1.551-3.707-1.269-5.806l1.68-12.509c.755-5.625-2.443-10.908-7.779-12.85-5.341-1.942-11.186.053-14.218 4.844l-6.606 10.417v-47.26c0-4.142-3.357-7.5-7.5-7.5s-7.5 3.358-7.5 7.5v47.277l-6.612-10.428c-3.036-4.796-8.878-6.789-14.215-4.85-5.334 1.94-8.532 7.225-7.776 12.843l1.67 12.515c.282 2.101-.184 4.115-1.271 5.81-9.161-8.544-15.771-22.648-15.639-36.807zm-78.761 83.605c-4.21-4.14-7.63-8.942-10.168-14.279l-11.09-23.27c-3.824-8.025-3.896-17.266-.2-25.353 3.697-8.088 10.735-14.08 19.31-16.44l24.853-6.841c13.292-3.556 28.731-1.733 41.165 6.502.764 11.449 4.347 23.289 11.6 33.685-7.779-3.685-18.534.133-18.715 10.601l-42.065-19.229c-3.768-1.723-8.217-.064-9.939 3.703s-.064 8.217 3.703 9.939l64.385 29.433c-.078 3.092-1.735 6.327-5.389 7.83l-11.669 4.8c-4.807 1.977-7.699 6.678-7.402 11.747-5.635 1.491-11.512 2.021-17.372 1.497-10.449-.913-22.285-5.667-31.007-14.325zm50.812 117.036c-8.869.777-17.542-2.377-23.827-8.662-6.287-6.287-9.444-14.971-8.663-23.827 1.813-18.065.85-40.488 15.07-55.068 8.101.336 18.909-1.379 27.907-5.288l11.147.459c3.046.128 5.666 1.715 7.188 4.353 1.521 2.634 1.583 5.691.175 8.382-1.895 4.127-6.047 10.28-7.035 14.593l-25.405 25.405c-2.929 2.929-2.929 7.678 0 10.606 1.465 1.464 3.385 2.197 5.304 2.197s3.839-.732 5.304-2.197l22.565-22.565c3.752 1.352 8.009.762 11.343-1.81l9.986-7.708c3.938-3.092 12.1-2.054 13.825 5.023 1.972 6.78 1.175 11.013 4.992 17.204-2.334 8.317-6.733 15.867-12.889 22.03-8.379 8.379-19.497 13.569-31.304 14.612zm82.876 131.278-41.2-121.629c9.705-3.19 18.616-8.614 25.92-15.918 4.719-4.724 8.642-10.075 11.689-15.886 2.518 4.802 5.644 9.281 9.314 13.358-6.017 11.216-6.822 27.595-.661 40.004 10.409 24.135 23.123 50.441 51.365 57.815-3.091 4.727-5.754 9.584-8.136 16.855zm147.659 31.18c-8.379 8.379-19.497 13.569-31.304 14.612-14.949.86-37.668 6.876-49.508-6.406-6.287-6.287-9.445-14.97-8.664-23.822 1.805-18.055.87-40.516 15.064-55.061 8.066.349 18.791-1.351 27.903-5.288l11.165.461c3.041.125 5.657 1.709 7.179 4.345 1.521 2.635 1.585 5.692.173 8.389-1.893 4.127-6.039 10.282-7.029 14.592l-25.409 25.409c-2.929 2.929-2.929 7.678 0 10.606 1.465 1.464 3.385 2.197 5.304 2.197s3.839-.732 5.304-2.197l22.57-22.57c6.648 3.469 16.459-5.756 21.332-9.518 2.412-1.857 5.434-2.326 8.292-1.286 2.859 1.041 4.873 3.342 5.524 6.315 1.98 6.798 1.171 10.993 5.004 17.207-2.335 8.308-6.736 15.852-12.9 22.015zm59.78-78.66c-3.908 6.769-4.237 14.883-.937 21.91-12.177-9.216-32.653-2.585-36.54 13.301-3.814-14.94-22.326-23.004-36.541-13.301 6.891-13.442-3.022-32.568-19.443-33.676 14.195-6.039 18.492-26.844 6.753-38.294 14.619 4.477 31.475-8.658 29.788-24.996 8.321 12.828 29.678 13.6 38.887-.001-1.872 15.178 13.989 29.492 29.789 24.997-10.983 9.713-8.366 31.881 6.751 38.295-7.736.654-14.6 4.996-18.507 11.765zm113.753-59.043-11.09 23.271c-9.047 20.419-35.427 33.755-58.423 27.139.315-5.082-2.579-9.802-7.395-11.783l-11.675-4.803c-2.073-.869-5.308-3.854-5.385-7.894l64.255-29.362c3.768-1.721 5.426-6.171 3.704-9.938-1.721-3.766-6.166-5.428-9.938-3.704l-41.941 19.165c.014-2.076-.509-4.176-1.617-6.096-2.838-4.915-8.597-7.149-14.007-5.428l-3.111.989c6.845-9.891 10.943-21.6 11.619-33.766 10.611-7.269 27.39-10.407 41.039-6.433l24.854 6.851c8.574 2.36 15.612 8.351 19.309 16.436 3.699 8.084 3.627 17.327-.198 25.356z"/><path d="m342.833 314.046c-15.862 0-28.767 12.905-28.767 28.767s12.904 28.766 28.767 28.766c15.861 0 28.766-12.904 28.766-28.766s-12.905-28.767-28.766-28.767zm0 42.532c-7.591 0-13.767-6.175-13.767-13.766s6.176-13.767 13.767-13.767 13.766 6.176 13.766 13.767-6.175 13.766-13.766 13.766z"/><path d="m169.28 192.245c6.415 0 12.485-2.066 17.555-5.977 3.28-2.53 3.889-7.239 1.359-10.519-2.531-3.28-7.238-3.89-10.52-1.359-2.422 1.867-5.324 2.854-8.395 2.854-7.591 0-13.767-6.176-13.767-13.767s6.176-13.766 13.767-13.766c3.127 0 6.072 1.02 8.517 2.95 3.251 2.566 7.968 2.01 10.534-1.241 2.565-3.252 2.01-7.968-1.241-10.534-5.046-3.982-11.37-6.175-17.81-6.175-15.862 0-28.767 12.904-28.767 28.766s12.906 28.768 28.768 28.768z"/></g></g></svg>