<svg id="Capa_1" enable-background="new 0 0 512 512" height="512" viewBox="0 0 512 512" width="512" xmlns="http://www.w3.org/2000/svg"><g><g><path d="m256 66.634c-23.868 0-46.698 4.434-67.727 12.502 14.127 5.09 24.474 18.093 25.686 33.663 2.908-.963 6.015-1.491 9.246-1.491 16.24 0 29.406 13.166 29.406 29.406 0 2.815-.404 5.534-1.142 8.112h9.761c8.644 0 15.717 7.073 15.717 15.717s-7.073 15.717-15.717 15.717h-115.596c-8.644 0-15.717-7.073-15.717-15.717s7.073-15.717 15.717-15.717h8.489c-10.89-6.927-18.122-19.093-18.122-32.955 0-2.312.212-4.573.598-6.775-42.545 34.679-69.723 87.493-69.723 146.662 0 104.45 84.674 189.124 189.124 189.124s189.124-84.674 189.124-189.124-84.674-189.124-189.124-189.124z" fill="#b3dafe"/><path d="m322.254 320.104h26.885v36.94h-26.885z" fill="#ffbd86"/><g><path d="m387.271 317.104-25.683-44.485h-51.783l-25.683 44.485c-.77 1.333.192 3 1.732 3h99.686c1.539 0 2.501-1.667 1.731-3z" fill="#00c285"/><path d="m309.271 317.104 25.683-44.485h-25.149l-25.683 44.485c-.77 1.333.192 3 1.732 3h25.149c-1.54 0-2.502-1.667-1.732-3z" fill="#07b27b"/><path d="m376.119 269.619-23.766-41.164h-33.313l-23.766 41.164c-.77 1.333.192 3 1.732 3h77.381c1.54 0 2.502-1.666 1.732-3z" fill="#0ed290"/><path d="m320.884 269.619 23.766-41.164h-25.61l-23.766 41.164c-.77 1.333.192 3 1.732 3h25.61c-1.54 0-2.502-1.666-1.732-3z" fill="#00c285"/><g><path d="m333.964 179.7-26.417 45.756c-.77 1.333.192 3 1.732 3h52.834c1.54 0 2.502-1.667 1.732-3l-26.417-45.756c-.769-1.333-2.694-1.333-3.464 0z" fill="#1ee6a6"/></g><g><path d="m328.271 225.456 17.787-30.808-8.63-14.947c-.77-1.333-2.694-1.333-3.464 0l-26.417 45.756c-.77 1.333.192 3 1.732 3h20.724c-1.54-.001-2.502-1.668-1.732-3.001z" fill="#0ed290"/></g></g><g fill="#8ac9fe"><path d="m205.168 91.043c21.669-12.253 45.989-20.365 71.894-23.236-6.917-.766-13.941-1.174-21.062-1.174-23.868 0-46.698 4.434-67.727 12.502 6.658 2.4 12.477 6.553 16.895 11.908z"/><path d="m109 255.758c0-42.442 13.984-81.613 37.592-113.168-6.563-6.985-10.59-16.379-10.59-26.719 0-2.312.212-4.573.598-6.775-42.545 34.679-69.723 87.493-69.723 146.662 0 104.45 84.674 189.124 189.124 189.124 7.121 0 14.146-.407 21.062-1.174-94.537-10.477-168.063-90.621-168.063-187.95z"/></g><g><path d="m96.266 357.044c33.549 52.798 92.547 87.837 159.734 87.837s126.185-35.04 159.734-87.837z" fill="#1ee6a6"/></g><g><path d="m96.266 357.045c.237.373.48.752.72 1.128 33.669 52.169 92.306 86.709 159.014 86.709 7.121 0 14.146-.407 21.062-1.174-58.34-6.466-108.668-39.469-138.663-86.664l-42.133.001c0-.001 0-.001 0 0z" fill="#0ed290"/></g><g><path d="m154.123 148.826h5.226c-.015-.336-.026-.674-.026-1.014 0-12.32 9.988-22.308 22.308-22.308 5.308 0 10.18 1.857 14.01 4.953 3.097-8.318 9.852-14.85 18.307-17.654-1.566-20.125-18.381-35.971-38.908-35.971-21.561 0-39.039 17.478-39.039 39.039 0 13.862 7.232 26.028 18.122 32.955z" fill="#fbd74c"/><path d="m154.123 148.826h5.226c-.015-.336-.026-.674-.026-1.014 0-6.007 2.379-11.455 6.24-15.465-2.335-5.005-3.641-10.587-3.641-16.476 0-17.016 10.89-31.481 26.079-36.827-4.056-1.428-8.416-2.212-12.96-2.212-21.561 0-39.039 17.478-39.039 39.039-.001 13.862 7.231 26.028 18.121 32.955z" fill="#fac600"/><g><path d="m261.23 148.826h-9.761c.739-2.578 1.142-5.297 1.142-8.112 0-16.24-13.165-29.406-29.406-29.406-12.632 0-23.401 7.967-27.564 19.149-3.83-3.096-8.702-4.953-14.01-4.953-12.32 0-22.308 9.988-22.308 22.308 0 .34.011.678.026 1.014h-13.715c-8.644 0-15.717 7.073-15.717 15.717s7.073 15.717 15.717 15.717h115.596c8.644 0 15.717-7.073 15.717-15.717 0-8.645-7.072-15.717-15.717-15.717z" fill="#fff"/></g><g><path d="m223.205 111.308c-12.632 0-23.401 7.967-27.564 19.149-3.83-3.096-8.702-4.953-14.01-4.953-12.32 0-22.308 9.988-22.308 22.308 0 .34.011.678.026 1.014h-13.299c-8.019 0-15.061 5.839-16.017 13.8-1.14 9.49 6.326 17.633 15.602 17.633h.405c.413-8.283 7.297-14.936 15.677-14.936h9.147c2.428 0 4.482-1.748 4.918-4.137 1.925-10.543 11.012-19.185 21.932-19.185 3.534 0 6.875.823 9.843 2.287 2.268 1.118 5.068.257 6.347-1.925 5.104-8.709 14.56-14.558 25.384-14.558 4.016 0 7.842.807 11.329 2.265-4.266-10.977-14.926-18.762-27.412-18.762z" fill="#eaf6ff"/></g></g></g><g><path d="m458.069 98.599h13.169c4.143 0 7.5-3.358 7.5-7.5s-3.357-7.5-7.5-7.5h-29.688c-4.143 0-7.5 3.358-7.5 7.5v29.688c0 4.142 3.357 7.5 7.5 7.5s7.5-3.358 7.5-7.5v-9.292c31.025 41.496 47.95 92.127 47.95 144.263 0 57.557-20.627 113.279-58.08 156.902-2.698 3.143-2.338 7.878.805 10.576 1.415 1.215 3.153 1.81 4.882 1.81 2.112 0 4.211-.887 5.694-2.614 39.787-46.342 61.699-105.534 61.699-166.674 0-57.033-19.074-112.366-53.931-157.159z"/><path d="m274.99 15.511c51.19 3.991 98.88 23.814 137.912 57.327 1.415 1.215 3.152 1.81 4.882 1.81 2.111 0 4.211-.887 5.694-2.614 2.698-3.143 2.338-7.878-.805-10.576-41.465-35.602-92.13-56.661-146.518-60.901-4.146-.322-7.739 2.765-8.061 6.895s2.766 7.736 6.896 8.059z"/><path d="m166.433 266.548c0-4.142-3.357-7.5-7.5-7.5s-7.5 3.358-7.5 7.5v12.717c0 4.142 3.357 7.5 7.5 7.5s7.5-3.358 7.5-7.5z"/><path d="m166.433 227.337c0-4.142-3.357-7.5-7.5-7.5s-7.5 3.358-7.5 7.5v12.717c0 4.142 3.357 7.5 7.5 7.5s7.5-3.358 7.5-7.5z"/><path d="m158.933 298.258c-4.143 0-7.5 3.358-7.5 7.5v6c0 4.142 3.357 7.5 7.5 7.5s7.5-3.358 7.5-7.5v-6c0-4.142-3.358-7.5-7.5-7.5z"/><path d="m196.1 266.548c0-4.142-3.357-7.5-7.5-7.5s-7.5 3.358-7.5 7.5v12.717c0 4.142 3.357 7.5 7.5 7.5s7.5-3.358 7.5-7.5z"/><path d="m196.1 227.337c0-4.142-3.357-7.5-7.5-7.5s-7.5 3.358-7.5 7.5v12.717c0 4.142 3.357 7.5 7.5 7.5s7.5-3.358 7.5-7.5z"/><path d="m188.6 298.258c-4.143 0-7.5 3.358-7.5 7.5v6c0 4.142 3.357 7.5 7.5 7.5s7.5-3.358 7.5-7.5v-6c0-4.142-3.358-7.5-7.5-7.5z"/><path d="m218.266 247.554c4.143 0 7.5-3.358 7.5-7.5v-12.717c0-4.142-3.357-7.5-7.5-7.5s-7.5 3.358-7.5 7.5v12.717c0 4.142 3.357 7.5 7.5 7.5z"/><path d="m210.766 279.265c0 4.142 3.357 7.5 7.5 7.5s7.5-3.358 7.5-7.5v-12.717c0-4.142-3.357-7.5-7.5-7.5s-7.5 3.358-7.5 7.5z"/><path d="m210.766 311.758c0 4.142 3.357 7.5 7.5 7.5s7.5-3.358 7.5-7.5v-6c0-4.142-3.357-7.5-7.5-7.5s-7.5 3.358-7.5 7.5z"/><path d="m255.432 266.548c0-4.142-3.357-7.5-7.5-7.5s-7.5 3.358-7.5 7.5v12.717c0 4.142 3.357 7.5 7.5 7.5s7.5-3.358 7.5-7.5z"/><path d="m255.432 227.337c0-4.142-3.357-7.5-7.5-7.5s-7.5 3.358-7.5 7.5v12.717c0 4.142 3.357 7.5 7.5 7.5s7.5-3.358 7.5-7.5z"/><path d="m247.932 298.258c-4.143 0-7.5 3.358-7.5 7.5v6c0 4.142 3.357 7.5 7.5 7.5s7.5-3.358 7.5-7.5v-6c0-4.142-3.358-7.5-7.5-7.5z"/><path d="m175.04 69.331c-21.976 0-40.43 15.316-45.282 35.831-42.992 36.096-70.382 90.198-70.382 150.595 0 108.419 88.205 196.624 196.624 196.624 99.857 0 183.815-74.701 195.293-173.761.477-4.115-2.473-7.837-6.587-8.313-4.104-.472-7.837 2.471-8.313 6.587-3.068 26.479-11.753 51.067-24.77 72.65h-54.984v-21.94h28.9c3.383 0 6.535-1.82 8.227-4.749 1.692-2.93 1.692-6.57.001-9.501l-19.195-33.247c3.312-.066 6.382-1.861 8.042-4.738 1.691-2.93 1.691-6.57 0-9.5l-17.554-30.406c2.192-.72 4.097-2.208 5.28-4.257 1.692-2.93 1.692-6.569.001-9.501l-26.418-45.758c-1.692-2.928-4.845-4.748-8.227-4.748s-6.534 1.819-8.227 4.748c0 .001-.001.001-.001.002l-26.418 45.757c-1.69 2.93-1.69 6.57.002 9.499 1.183 2.05 3.088 3.538 5.28 4.258l-17.555 30.406c-1.691 2.93-1.691 6.57 0 9.5 1.66 2.876 4.731 4.672 8.043 4.738l-19.196 33.248c-1.69 2.93-1.69 6.57.002 9.5 1.691 2.929 4.844 4.749 8.227 4.749h28.9v21.94h-76.753c-4.143 0-7.5 3.358-7.5 7.5s3.357 7.5 7.5 7.5h163.533c-33.289 44.472-86.392 72.837-145.533 72.837-59.378 0-112.191-28.644-145.351-72.837h92.351c4.143 0 7.5-3.358 7.5-7.5s-3.357-7.5-7.5-7.5h-7.5v-13.787c0-4.142-3.357-7.5-7.5-7.5s-7.5 3.358-7.5 7.5v13.787h-5.333v-13.787c0-4.142-3.357-7.5-7.5-7.5s-7.5 3.358-7.5 7.5v13.787h-5.334v-13.787c0-4.142-3.357-7.5-7.5-7.5s-7.5 3.358-7.5 7.5v13.787h-5.333v-13.787c0-4.142-3.357-7.5-7.5-7.5s-7.5 3.358-7.5 7.5v13.787h-18.982c-16.585-27.393-26.142-59.494-26.142-93.787 0-51.019 21.156-97.182 55.144-130.205 1.354 6.365 4.021 12.245 7.691 17.362-8.649 3.38-14.794 11.798-14.794 21.629 0 12.802 10.415 23.217 23.218 23.217h5.798v13.084c0 4.142 3.357 7.5 7.5 7.5s7.5-3.358 7.5-7.5v-13.084h14.667v13.084c0 4.142 3.357 7.5 7.5 7.5s7.5-3.358 7.5-7.5v-13.084h14.666v13.084c0 4.142 3.357 7.5 7.5 7.5s7.5-3.358 7.5-7.5v-13.084h14.666v13.084c0 4.142 3.357 7.5 7.5 7.5s7.5-3.358 7.5-7.5v-13.084h5.799c12.802 0 23.217-10.415 23.217-23.217s-10.415-23.217-23.217-23.217h-1.124c.003-.204.005-.408.005-.612 0-20.35-16.556-36.906-36.906-36.906-1.072 0-2.133.064-3.188.157-2.368-8.939-7.33-16.829-14.035-22.813 15.897-4.562 32.675-7.017 50.018-7.017 46.337 0 90.455 17.451 124.229 49.137 33.618 31.542 53.847 74.156 56.96 119.995.28 4.133 3.874 7.262 7.99 6.975 4.133-.281 7.256-3.858 6.975-7.991-3.37-49.634-25.269-95.773-61.661-129.917-36.566-34.307-84.33-53.2-134.494-53.2-23.836 0-46.689 4.274-67.847 12.08-4.161-1.224-8.561-1.883-13.113-1.883zm160.656 122.369 16.891 29.256h-33.781zm-12.326 44.256h24.654l16.838 29.164h-58.329zm-27.99 76.648 18.755-32.484h43.123l18.755 32.484zm46.259 36.94h-11.885v-21.94h11.885zm-96.528-208.83c0 2.037-.287 4.071-.853 6.047-.648 2.263-.196 4.699 1.221 6.58 1.417 1.88 3.635 2.985 5.989 2.985h9.762c4.53 0 8.217 3.686 8.217 8.217s-3.687 8.217-8.217 8.217h-115.595c-4.531 0-8.218-3.686-8.218-8.217s3.687-8.217 8.218-8.217h13.714c2.046 0 4.003-.835 5.417-2.313 1.415-1.478 2.165-3.469 2.076-5.513-.01-.229-.019-.457-.019-.688 0-8.165 6.644-14.808 14.809-14.808 3.422 0 6.636 1.136 9.295 3.286 1.877 1.517 4.369 2.039 6.696 1.4 2.327-.637 4.205-2.355 5.047-4.617 3.177-8.533 11.43-14.266 20.535-14.266 12.079.001 21.906 9.828 21.906 21.907zm-52.51-20.612c-3.473-1.374-7.198-2.098-10.969-2.098-13.241 0-24.491 8.681-28.365 20.649-6.011-5.745-9.766-13.831-9.766-22.783 0-17.391 14.148-31.539 31.539-31.539 14.777 0 27.208 10.218 30.612 23.957-5.196 2.822-9.7 6.862-13.051 11.814z"/><path d="m88.317 81.281h29.688c4.143 0 7.5-3.358 7.5-7.5s-3.357-7.5-7.5-7.5h-10.935c38.584-30.426 84.681-48.032 133.962-51.052 4.134-.253 7.28-3.81 7.027-7.944-.254-4.135-3.806-7.288-7.945-7.027-53.203 3.26-102.908 22.528-144.297 55.821v-11.986c0-4.142-3.357-7.5-7.5-7.5s-7.5 3.358-7.5 7.5v29.688c0 4.142 3.358 7.5 7.5 7.5z"/><path d="m70.725 384.053c-4.143 0-7.5 3.358-7.5 7.5v8.829c-31.198-41.563-48.225-92.335-48.225-144.624 0-57.557 20.627-113.279 58.08-156.902 2.698-3.143 2.338-7.878-.805-10.576-3.145-2.699-7.879-2.336-10.576.805-39.787 46.34-61.699 105.533-61.699 166.673 0 57.382 19.303 113.047 54.567 157.983h-13.531c-4.143 0-7.5 3.358-7.5 7.5s3.357 7.5 7.5 7.5h29.688c4.143 0 7.5-3.358 7.5-7.5v-29.688c.001-4.142-3.357-7.5-7.499-7.5z"/><path d="m425.332 429.685h-29.688c-4.143 0-7.5 3.358-7.5 7.5s3.357 7.5 7.5 7.5h9.959c-42.454 33.64-95.206 52.073-149.603 52.073-57.558 0-113.28-20.626-156.902-58.08-3.145-2.7-7.879-2.336-10.576.805-2.698 3.143-2.338 7.878.805 10.576 46.341 39.787 105.533 61.699 166.674 61.699 59.033 0 116.246-20.432 161.832-57.653v12.768c0 4.142 3.357 7.5 7.5 7.5s7.5-3.358 7.5-7.5v-29.688c-.001-4.142-3.358-7.5-7.501-7.5z"/><path d="m310 113.234c-5.119-3.858-11.372-5.976-18-5.976-4.143 0-7.5 3.358-7.5 7.5s3.357 7.5 7.5 7.5c4.762 0 9.137 2.188 12.004 6.004 1.417 1.886 3.638 2.995 5.996 2.995s4.579-1.109 5.996-2.995c2.867-3.816 7.242-6.004 12.004-6.004 4.143 0 7.5-3.358 7.5-7.5s-3.357-7.5-7.5-7.5c-6.628 0-12.881 2.118-18 5.976z"/><path d="m365 148.234c-5.119-3.858-11.372-5.976-18-5.976-4.143 0-7.5 3.358-7.5 7.5s3.357 7.5 7.5 7.5c4.762 0 9.137 2.188 12.004 6.004 1.417 1.886 3.638 2.995 5.996 2.995s4.579-1.109 5.996-2.995c2.867-3.816 7.242-6.004 12.004-6.004 4.143 0 7.5-3.358 7.5-7.5s-3.357-7.5-7.5-7.5c-6.628 0-12.881 2.118-18 5.976z"/><path d="m344 388.258c4.143 0 7.5-3.358 7.5-7.5s-3.357-7.5-7.5-7.5h-15c-4.143 0-7.5 3.358-7.5 7.5s3.357 7.5 7.5 7.5z"/><path d="m297 417.258c4.143 0 7.5-3.358 7.5-7.5s-3.357-7.5-7.5-7.5h-15c-4.143 0-7.5 3.358-7.5 7.5s3.357 7.5 7.5 7.5z"/><path d="m222 400.258h15c4.143 0 7.5-3.358 7.5-7.5s-3.357-7.5-7.5-7.5h-15c-4.143 0-7.5 3.358-7.5 7.5s3.357 7.5 7.5 7.5z"/><path d="m156 374.258c-4.143 0-7.5 3.358-7.5 7.5s3.357 7.5 7.5 7.5h15c4.143 0 7.5-3.358 7.5-7.5s-3.357-7.5-7.5-7.5z"/></g></g></svg>