<svg id="Capa_1" enable-background="new 0 0 512.028 512.028" height="512" viewBox="0 0 512.028 512.028" width="512" xmlns="http://www.w3.org/2000/svg"><g><g><path d="m160.219 271.64v62.156l-45.118 170.712h-58.093l16.283-114.542c3.96-36.289 20.512-70.055 46.782-95.415l28.752-27.749c4.271-4.126 11.394-1.097 11.394 4.838z" fill="#6fd7a3"/><path d="m148.826 266.801-7.946 7.669v59.325l-45.118 170.712h19.339l45.118-170.711v-62.156c0-5.935-7.123-8.964-11.393-4.839z" fill="#3ec3a4"/><path d="m471.36 218.127-75.948 51.61c-16.935 11.507-35.896 19.695-55.88 24.141l-179.313 39.917v-42.078l53.172-42.916 162.161-27.377 90.959-15.353c7.051-1.188 10.753 8.045 4.849 12.056z" fill="#8ac9fe"/><path d="m282.085 183.727-24.66 54.38-1.6 3.53-20.36 3.44-22.07 3.72-36.42-45.32 26.45-11.37 34.13-12.91 26.15 2.66 1.32.13z" fill="#ffead9"/><path d="m282.085 183.727-24.66 54.38-1.6 3.53-20.36 3.44 28.24-63.22z" fill="#fedba6"/><path d="m237.554 179.196-1.38-29.724c-.291-6.262.805-12.511 3.209-18.3l16.683-40.184c4.567-11.001 6.753-22.844 6.414-34.75l-1.193-41.894c-.176-6.172-8.103-8.574-11.675-3.538l-52.687 74.283 6.499 107.015z" fill="#fea95c"/><path d="m262.479 56.238-1.193-41.894c-.176-6.172-8.103-8.574-11.675-3.538l-7.466 10.526.994 34.906c.339 11.906-1.847 23.749-6.414 34.75l-16.683 40.184c-2.404 5.79-3.499 12.038-3.208 18.3l1.38 29.724-15.224 5.758.434 7.15 34.13-12.908-1.38-29.724c-.291-6.262.805-12.511 3.208-18.3l16.683-40.184c4.567-11.001 6.753-22.844 6.414-34.75z" fill="#fe9738"/><path d="m203.424 192.105-26.446 11.372-20.739-43.712-28.339-59.726 9.656-86.803c.672-6.028 8.55-7.868 11.817-2.75l47.547 74.604z" fill="#fea95c"/><path d="m196.921 85.089-47.547-74.604c-3.267-5.118-11.145-3.277-11.817 2.75l-1.369 12.307c1.792.188 3.533 1.112 4.692 2.928l35.113 56.618 6.503 107.015-9.064 3.898 3.547 7.475 26.446-11.372z" fill="#fe9738"/><path d="m176.978 203.477-54.96-14.888-3.898-1.055c-16.48-4.466-30.654-15.012-39.659-29.517l-39.721-63.985c-2.957-4.766 1.158-10.762 6.668-9.718l82.492 15.725z" fill="#fea95c"/><path d="m44.76 87.609 63.801 12.43 46.225 97.427 22.192 6.011-49.078-103.438-82.491-15.725c-4.41-.836-7.915 2.838-7.628 6.781 1.197-2.416 3.864-4.077 6.979-3.486z" fill="#fe9738"/><path d="m255.827 241.638 26.255-57.907 19.951-14.418c20.054-14.492 42.646-25.096 66.607-31.262l59.536-15.321c5.237-1.348 8.923 5.058 5.125 8.908l-37.103 37.615c-7.351 7.453-16.347 13.08-26.264 16.43l-29.682 10.027c-14.856 5.018-27.482 15.087-35.68 28.453l-6.325 10.312z" fill="#fea95c"/><path d="m428.176 122.731-13.001 3.346c.663 1.781.419 3.907-1.214 5.563l-37.103 37.615c-33.453 31.497-72.58 14.023-97.952 65.222l-21.477 3.626-1.603 3.536 42.419-7.161 6.325-10.312c8.198-13.367 20.824-23.435 35.68-28.454l29.682-10.027c9.918-3.35 18.913-8.977 26.264-16.43l37.103-37.615c3.8-3.851.114-10.257-5.123-8.909z" fill="#fe9738"/><path d="m203.425 192.107-26.45 11.37-3.54-7.47-17.2-36.24 21.86-40.12 18.83-34.56z" fill="#ffd15b"/><path d="m203.425 192.107-26.45 11.37-3.54-7.47 9.06-3.9-4.4-72.46 18.83-34.56z" fill="#ffc344"/><path d="m176.978 203.477-54.96-14.888 5.882-88.55z" fill="#ffd15b"/><path d="m154.787 197.466 22.191 6.011-49.078-103.438-2.375 35.754z" fill="#ffc344"/><path d="m471.36 218.127-75.948 51.61c-16.935 11.507-35.896 19.695-55.88 24.141l-179.313 39.917 146.622-68.897 68.711-43.474 90.959-15.353c7.051-1.188 10.753 8.045 4.849 12.056z" fill="#6fd7a3"/><path d="m466.511 206.072-13.161 2.221c2.297 2.766 2.366 7.322-1.329 9.833l-75.948 51.61c-16.935 11.507-35.896 19.695-55.88 24.141l-142.564 31.736-17.41 8.181 179.313-39.917c19.984-4.446 38.946-12.634 55.88-24.141l75.948-51.61c5.904-4.011 2.202-13.243-4.849-12.054z" fill="#3ec3a4"/><path d="m160.219 271.64v62.156l-45.118 170.712-4.707-92.03c-1.172-22.916 2.252-45.836 10.069-67.41l28.362-78.267c4.271-4.125 11.394-1.096 11.394 4.839z" fill="#bbf49b"/><path d="m148.826 266.801-7.946 21.928v45.066l-28.914 109.401 3.135 61.31 45.118-170.711v-62.155c0-5.935-7.123-8.964-11.393-4.839z" fill="#9be69d"/></g><path d="m480.753 207.354c-2.423-5.187-8.215-10.051-15.489-8.677l-55.624 9.389c-4.085.689-6.837 4.56-6.147 8.644.689 4.084 4.56 6.841 8.644 6.147l51.782-8.74-72.72 49.417c-16.215 11.018-34.146 18.764-53.296 23.024l-113.1 25.177c1.631-.833 84.528-39.592 86.049-40.498l68.688-43.46c5.772-3.09 4.244-14.93-5.25-13.745l-60.78 10.261c7.226-9.965 17.421-17.517 29.141-21.476l29.683-10.027c10.972-3.706 21.07-10.023 29.204-18.269l37.103-37.615c4.1-4.157 4.898-10.35 1.986-15.411-2.911-5.061-8.668-7.482-14.32-6.028l-59.536 15.321c-21.74 5.594-42.181 14.596-60.898 26.797l5.459-9.436c10.964-18.953 28.198-33.872 48.527-42.009l43.979-17.603c3.846-1.539 5.715-5.904 4.176-9.75-1.54-3.846-5.906-5.715-9.75-4.176l-43.979 17.603c-10.123 4.052-19.576 9.569-28.072 16.283-24.832 5.274-39.754-2.578-40.479-2.971-3.595-2.006-8.146-.733-10.178 2.857-2.04 3.605-.771 8.181 2.833 10.221.623.352 11.848 6.539 30.645 6.684-3.969 4.799-7.551 9.93-10.686 15.35l-20.329 35.14-33.272-3.389-1.08-23.266c-.238-5.125.676-10.338 2.644-15.077 8.519-21.977 25.677-53.472 23.667-78.023l-1.193-41.894c-.174-6.091-4.054-11.169-9.886-12.937-5.83-1.767-11.879.303-15.403 5.273l-31.512 44.428c-2.396 3.378-1.601 8.06 1.778 10.457 3.381 2.397 8.061 1.6 10.456-1.779l29.663-41.822 1.103 38.7c2.097 20.687-15.474 53.141-22.526 71.844-2.809 6.765-4.114 14.208-3.774 21.524l1.128 24.286-19.517 7.381-5.882-96.853c-.344-1.533.211-1.032-1.258-3.72l-47.46-74.462c-3.222-5.045-9.065-7.431-14.9-6.074-5.832 1.357-10.029 6.079-10.692 12.031l-8.76 78.747-74.538-14.207c-5.519-1.047-10.915 1.179-14.09 5.805s-3.308 10.464-.347 15.237l39.721 63.986c10.039 16.17 25.689 27.818 44.072 32.801l56.498 15.303 30.2 37.585-35.14 28.362c.704-6.145-1.202-14.146-8.669-17.482-4.033-1.569-10.469-1.847-15.443 2.873l-28.742 27.738c-27.444 26.494-44.849 61.96-49.016 99.875l-16.266 114.422c-.583 4.101 2.27 7.898 6.37 8.481 4.102.58 7.898-2.269 8.481-6.37l16.283-114.542c.011-.081.021-.161.03-.242 3.763-34.482 19.579-66.74 44.534-90.832l5.467-5.276-17.337 47.843c-1.411 3.894.603 8.195 4.496 9.606s8.196-.601 9.607-4.496l25.203-69.55v13.644 41.104l-32.583 123.285-2.251-44.012c-.53-10.375-.072-20.851 1.363-31.139.572-4.103-2.289-7.892-6.392-8.465-4.096-.572-7.892 2.289-8.464 6.392-1.566 11.226-2.067 22.658-1.488 33.979l4.703 91.942c.116 7.187 11.481 11.096 14.746 1.621l43.951-166.299 174.858-38.925c21.007-4.674 40.679-13.172 58.468-25.259l75.946-51.61c5.55-3.771 7.68-10.752 5.179-16.977zm-110.244-62.039 51.956-13.37-31.606 32.042c-6.496 6.586-14.562 11.632-23.325 14.592l-29.683 10.027c-18.963 5.953-34.805 21.415-44.214 39.042l-25.156 4.247 19.611-43.253c24.267-18.693 51.983-36.151 82.417-43.327zm-237.034-16.031 29.747 62.696-33.314-9.024zm57.543-17.682 4.6 75.695-14.962 6.435-16.004-33.732zm47.535 75.234 32.39 3.299-20.299 44.771-34.158 5.767-27.482-34.202zm-93.876-169.766 43.541 68.318-31.518 57.853-21.11-44.492zm-59.844 136.993-38.442-61.927 73.586 14.027-4.82 72.559c-12.563-4.586-23.209-13.198-30.324-24.659zm131.74 101.808 123.451-20.842-36.795 23.281-135.51 63.675v-26.683z"/></g></svg>