<svg height="512pt" viewBox="-58 0 512 512" width="512pt" xmlns="http://www.w3.org/2000/svg"><path d="m139.871094 139-71.566406-76.886719c-8.777344-1.007812-17.914063 1.847657-24.644532 8.578125-11.722656 11.707032-11.722656 30.707032 0 42.417969l52.320313 52.320313zm0 0" fill="#fff4ca"/><path d="m305.871094 482v-48.300781h-132v48.300781c0 11.050781 8.949218 20 20 20h92c11.046875 0 20-8.949219 20-20zm0 0" fill="#fff4ca"/><path d="m359.285156 159h-38.414062c8.242187 0 15.710937-3.328125 21.132812-8.710938-1.351562-.183593-2.730468-.289062-4.132812-.289062h-40c16.566406 0 30-13.429688 30-30 0-8.179688-3.277344-15.589844-8.585938-21h-48.414062c9.585937 0 18.378906-3.375 25.269531-9h-48.269531c22.089844 0 40-17.910156 40-40 0-12.457031-5.707032-23.585938-14.644532-30.925781-.777343-.042969-1.566406-.074219-2.355468-.074219h-20c0 11.050781-8.953125 20-20 20h-10c-16.570313 0-30 13.429688-30 30 0 16.558594 13.4375 30 30 30h-40c-16.648438 0-30 13.5-30 30 0 16.570312 13.429687 30 30 30h-40c-16.660156 0-30 13.535156-30 30 0 8.179688 3.273437 15.589844 8.582031 21h218.417969c16.566406 0 30-13.429688 30-30 0-8.179688-3.277344-15.589844-8.585938-21zm0 0" fill="#fed2a4"/><path d="m252.011719 281.023438c-27.210938.457031-49.144531 22.652343-49.144531 49.976562 0 17.601562 9.105468 33.066406 22.855468 41.976562 27.214844-.457031 49.144532-22.652343 49.144532-49.976562.003906-17.601562-9.105469-33.066406-22.855469-41.976562zm0 0" fill="#fff4ca"/><path d="m120.871094 212 34.027344 193.160156c2.683593 14.765625 13.261718 26.367188 26.867187 30.839844h104.722656c19.285157 0 35.886719-13.777344 39.351563-32.839844l33.675781-191.160156c-71.496094 0-205.847656 0-238.644531 0zm102.644531 159c-27.609375 0-50-22.390625-50-50s22.390625-50 50-50 50 22.390625 50 50-22.390625 50-50 50zm0 0" fill="#ff637b"/><path d="m120.949219 100.589844-52.660157-52.660156c-15.59375-15.59375-40.964843-15.59375-56.558593-.003907-15.636719 15.625-15.644531 40.9375-.003907 56.566407l65.4375 65.433593c-.851562 3.261719-1.292968 6.628907-1.292968 10.074219 0 7.28125 1.964844 14.113281 5.378906 20h-15.378906c-5.523438 0-10 4.476562-10 10s4.476562 10 10 10h11.605468l32.582032 184.949219c2.757812 15.164062 12.40625 28.121093 25.8125 35.230469v41.820312c0 16.542969 13.457031 30 30 30h120c16.539062 0 30-13.457031 30-30v-41.820312c13.402344-7.113282 23.054687-20.074219 25.816406-35.285157l32.574219-184.894531h11.605469c5.523437 0 10-4.476562 10-10s-4.476563-10-10-10h-15.378907c3.414063-5.886719 5.378907-12.71875 5.378907-20 0-22.054688-17.941407-40-40-40h-5.378907c3.414063-5.886719 5.378907-12.71875 5.378907-20 0-22.054688-17.941407-40-40-40h-10.027344c6.292968-8.363281 10.027344-18.753906 10.027344-30 0-27.625-22.375-50-50-50h-20c-5.519532 0-10 4.476562-10 10 0 5.515625-4.484376 10-10 10h-10c-22.054688 0-40 17.945312-40 40 0 7.136719 1.867187 13.984375 5.355468 20h-5.355468c-14.910157 0-28.042969 8.335938-34.917969 20.589844zm-95.078125-38.519532c7.792968-7.796874 20.480468-7.796874 28.277344 0l61.921874 61.921876c.574219 5.785156 2.398438 11.207031 5.179688 16.007812h-5.378906c-10.835938 0-21.042969 4.449219-28.4375 11.910156l-61.566406-61.5625c-7.816407-7.8125-7.820313-20.460937.003906-28.277344zm296.128906 339.300782c-2.546875 14.027344-14.804688 24.628906-29.511719 24.628906h-21.617187c-5.523438 0-10 4.476562-10 10s4.476562 10 10 10c0 0 23.875-.050781 25-.125v36.125c0 5.515625-4.488282 10-10 10h-120c-5.515625 0-10-4.484375-10-10v-36.125c1.121094.074219 2.246094.125 3.378906.125h21.621094c5.519531 0 10-4.476562 10-10s-4.480469-10-10-10h-21.621094c-14.570312 0-26.9375-10.472656-29.5-24.574219l-31.964844-181.425781h256.167969zm33.871094-221.371094c0 11.027344-8.972656 20-20 20h-220c-11.03125 0-20-8.972656-20-20 0-11.179688 9.132812-20 20-20h220c11.027344 0 20 8.972656 20 20zm-180-120c0-11.027344 8.96875-20 20-20h10c13.035156 0 24.15625-8.359375 28.285156-20h11.714844c16.570312 0 30 13.429688 30 30 0 16.542969-13.460938 30-30 30h-50c-11.046875 0-20-8.953125-20-20zm-40 59.917969c.003906-.089844.003906-.179688.007812-.269531.179688-10.835938 9.144532-19.648438 19.992188-19.648438h140c11.027344 0 20 8.972656 20 20s-8.972656 20-20 20h-140c-11.03125 0-20-8.972656-20-20zm0 0"/><path d="m225.871094 263c-33.085938 0-60 26.914062-60 60s26.914062 60 60 60c33.082031 0 60-26.914062 60-60s-26.917969-60-60-60zm0 100c-22.058594 0-40-17.945312-40-40s17.941406-40 40-40c22.054687 0 40 17.945312 40 40s-17.945313 40-40 40zm0 0"/><path d="m235.871094 436c0 5.523438-4.480469 10-10 10-5.523438 0-10-4.476562-10-10s4.476562-10 10-10c5.519531 0 10 4.476562 10 10zm0 0"/></svg>