<svg id="Capa_1" enable-background="new 0 0 512 512" height="512" viewBox="0 0 512 512" width="512" xmlns="http://www.w3.org/2000/svg"><g><path d="m345.24 79.452c1.914 21.726-14.954 42.608-39.077 42.608-30.166 0-49.02-32.656-33.937-58.78l1.546-2.677c-5.861-.485-11.786-.745-17.772-.745-30.857 0-60.175 6.582-86.638 18.405l7.385 12.791c11.418 19.777-2.855 44.498-25.691 44.498-16.558 0-28.604-12.998-29.629-27.684-47.636 38.991-78.045 98.245-78.045 164.607 0 94.959 62.257 175.368 148.177 202.664l18.778-15.187c26.631-21.538 64.692-21.538 91.323 0l18.778 15.187c85.92-27.296 148.177-107.705 148.177-202.664.002-85.552-50.533-159.289-123.375-193.023z" fill="#b3dafe"/><g><path d="m78 272.475c0-55.012 20.904-105.133 55.188-142.882-6.811-5.173-11.163-13.157-11.761-21.725-47.636 38.991-78.045 98.245-78.045 164.607 0 94.959 62.257 175.368 148.177 202.664l11.166-9.03c-73.565-33.443-124.725-107.556-124.725-193.634z" fill="#8ac9fe"/></g><path d="m341.415 99.971c-6.19 12.716-19.094 22.089-35.252 22.089-30.166 0-49.02-32.656-33.937-58.78l1.112-1.926c-5.687-.979-11.471-1.497-17.338-1.497-28.793 0-55.638 12.127-78.262 33.053 9.532 19.432-4.554 42.641-26.681 42.641-2.23 0-4.375-.243-6.425-.686-21.661 37.087-34.738 85.122-34.738 137.609 0 88.32 37.008 164.056 89.687 196.177l10.758-8.7c26.631-21.538 64.692-21.538 91.323 0l10.758 8.7c52.679-32.121 89.687-107.857 89.687-196.177-.001-71.015-23.931-133.889-60.692-172.503z" fill="#eaf6ff"/><path d="m290.741 452.652c18.428-37.609 30.68-104.238 30.68-180.177 0-117.425-29.29-212.617-65.421-212.617s-65.421 95.192-65.421 212.617c0 75.939 12.252 142.568 30.68 180.177 21.62-11.793 47.862-11.793 69.482 0z" fill="#b3dafe"/><g><g><g><ellipse cx="310.666" cy="317.302" fill="#1ee6a6" rx="75.496" ry="38.954" transform="matrix(.707 -.707 .707 .707 -133.374 312.61)"/></g><g><path d="m283.122 289.757c-22.027 22.028-30.623 52.38-25.84 80.928l106.768-106.767c-28.548-4.783-58.901 3.812-80.928 25.839z" fill="#0ed290"/></g><g><g><ellipse cx="201.334" cy="316.019" fill="#0ed290" rx="38.954" ry="75.496" transform="matrix(.707 -.707 .707 .707 -164.49 234.924)"/></g><g><path d="m228.878 288.475c-22.028-22.028-52.38-30.623-80.928-25.84l106.768 106.768c4.783-28.548-3.812-58.9-25.84-80.928z" fill="#1ee6a6"/></g></g></g><g><path d="m210.339 459.952-55.084 44.548h201.49l-55.084-44.548c-26.631-21.537-64.691-21.537-91.322 0z" fill="#bb5d4c"/></g><g><path d="m277.127 446.936c-22.498-6.833-47.608-2.496-66.789 13.016l-55.083 44.548h42.255l55.084-44.548c7.45-6.025 15.795-10.362 24.533-13.016z" fill="#a44f3e"/></g></g><g><path d="m253.402 161.627-22.48 38.936c-11.146 19.306 2.786 43.437 25.078 43.437 22.291 0 36.224-24.131 25.078-43.436l-22.48-38.936c-1.155-2.001-4.041-2.001-5.196-.001z" fill="#1e9efd"/></g><g><path d="m255.923 200.564 12.578-21.785-9.902-17.151c-1.155-2-4.041-2-5.196 0l-22.48 38.936c-11.147 19.305 2.785 43.436 25.077 43.436 4.569 0 8.778-1.027 12.5-2.805-14.44-6.897-21.439-25.283-12.577-40.631z" fill="#0182fc"/></g><g><path d="m303.565 9-31.339 54.28c-15.083 26.124 3.771 58.78 33.937 58.78 30.166 0 49.02-32.656 33.937-58.78l-31.339-54.28c-1.155-2-4.041-2-5.196 0z" fill="#1e9efd"/></g><g><path d="m305.818 63.28 17.141-29.689-14.198-24.591c-1.155-2-4.041-2-5.196 0l-31.339 54.28c-15.083 26.124 3.771 58.78 33.937 58.78 6.134 0 11.788-1.368 16.796-3.739-19.622-9.289-29.157-34.228-17.141-55.041z" fill="#0182fc"/></g><g><path d="m148.458 51.055-23.093 39.998c-11.418 19.777 2.855 44.498 25.691 44.498 22.837 0 37.109-24.721 25.691-44.498l-23.093-39.998c-1.154-2-4.041-2-5.196 0z" fill="#1e9efd"/></g><g><path d="m150.599 91.054 13.074-22.645-10.019-17.353c-1.155-2-4.041-2-5.196 0l-23.093 39.998c-11.418 19.777 2.855 44.498 25.691 44.498 4.603 0 8.85-1.018 12.617-2.784-14.921-6.995-22.191-25.924-13.074-41.714z" fill="#0182fc"/></g><path d="m407.738 421.586c3.054 2.797 7.799 2.591 10.596-.464 37.262-40.672 57.783-93.462 57.783-148.647 0-58.795-22.896-114.071-64.471-155.646-17.636-17.636-37.746-31.894-59.537-42.484-.967-5.106-2.797-10.108-5.515-14.814l-31.338-54.281c-1.87-3.238-5.354-5.25-9.093-5.25s-7.224 2.012-9.093 5.25l-27.445 47.537c-4.518-.274-9.059-.429-13.625-.429-29.109 0-57.346 5.637-83.493 16.351l-12.357-21.402c-1.869-3.238-5.353-5.251-9.092-5.251 0 0 0 0-.001 0-3.739 0-7.224 2.012-9.093 5.25l-23.094 39.998c-3.101 5.372-4.752 11.225-4.99 17.114-4.646 3.936-9.172 8.055-13.527 12.41-41.575 41.575-64.471 96.852-64.471 155.646s22.896 114.071 64.471 155.646c22.002 22.002 47.854 38.74 76.022 49.652l-23.774 19.228h-48.159c-4.142 0-7.5 3.357-7.5 7.5s3.358 7.5 7.5 7.5h50.813 201.49 50.813c4.142 0 7.5-3.357 7.5-7.5s-3.358-7.5-7.5-7.5h-48.159l-23.737-19.196c19.944-7.749 38.785-18.476 56.079-32.041 3.259-2.557 3.829-7.271 1.272-10.53s-7.271-3.829-10.53-1.272c-14.982 11.752-31.217 21.204-48.361 28.278 11.342-9.599 21.884-21.366 31.371-35.172 8.839-12.863 16.442-27.032 22.727-42.199h39.38c-6.021 9.175-12.806 17.915-20.326 26.123-2.798 3.052-2.59 7.797.464 10.595zm-120.64 21.029c-7.499-3.157-15.462-5.178-23.598-5.949v-57.634c3.033.277 6.066.427 9.09.427 11.417 0 22.697-1.955 33.353-5.7-2.887 16.995-6.518 32.768-10.852 46.853-2.494 8.108-5.178 15.463-7.993 22.003zm-81.476 11.505-6.571 5.315c-24.09-16.133-44.534-42.154-58.938-74.568h52.647c.017 0 .034-.003.051-.003 2.722 14.406 5.984 27.888 9.761 40.16 2.812 9.14 5.836 17.378 9.048 24.707-2.06 1.368-4.065 2.826-5.998 4.389zm-154.553-172.866 51.447-.276c.822 31.295 6.167 61.455 15.593 88.888h-42.585c-14.398-26.569-23.102-56.654-24.455-88.612zm24.456-106.171h42.613c-3.009 8.779-5.638 17.917-7.844 27.387-.94 4.034 1.568 8.066 5.603 9.007 4.029.936 8.066-1.568 9.006-5.603 2.503-10.743 5.571-21.024 9.138-30.791h56.184c-3.915 25.018-6.275 52.373-6.939 80.804-11.903-2.421-24.294-2.707-36.574-.648-3.156.528-5.629 3.001-6.158 6.157-.245 1.463-.446 2.929-.625 4.394l-22.444.106c.192-8.822.752-17.664 1.706-26.369.452-4.117-2.52-7.821-6.637-8.272-4.123-.447-7.821 2.52-8.273 6.638-1.017 9.272-1.619 18.691-1.812 28.084l-51.487.276c.984-32.909 9.76-63.893 24.543-91.17zm75.532-32.031c13.436 0 25.468-6.947 32.187-18.583 5.287-9.157 6.394-19.708 3.36-29.461 11.545-9.908 24.077-17.396 37.256-22.054-7.97 11.235-15.129 26.96-21.287 46.972-3.776 12.271-7.038 25.752-9.76 40.157h-52.724c2.637-5.949 5.489-11.643 8.506-17.111.815.052 1.635.08 2.462.08zm110.638-74.45c-4.049 12.418-2.715 25.922 4.036 37.615 6.761 11.711 17.811 19.626 30.616 22.317 2.856 9.807 5.387 20.371 7.576 31.549h-37.557l-1.273-2.205c-1.87-3.238-5.354-5.25-9.093-5.25s-7.224 2.012-9.093 5.25l-1.273 2.205h-37.557c2.506-12.791 5.457-24.778 8.832-35.746 10.978-35.679 25.591-56.98 39.091-56.98 1.881 0 3.784.433 5.695 1.245zm80.737 43.663c11.43 13.53 21.391 29.67 29.455 47.818h-52.699c-2.055-10.874-4.426-21.202-7.087-30.897 12.026-1.494 22.774-7.513 30.331-16.921zm-64.613 172.189c-5.514 5.514-10.298 11.607-14.319 18.12v-15.313c0-4.143-3.358-7.5-7.5-7.5s-7.5 3.357-7.5 7.5v14.031c-4.021-6.514-8.805-12.606-14.319-18.12-10.31-10.31-22.632-18.084-35.982-23.03.531-30.092 2.993-58.961 7.206-85.058h31.568l-12.546 21.73c-6.59 11.415-6.59 25.044 0 36.458s18.393 18.228 31.573 18.228 24.983-6.814 31.573-18.229c6.59-11.414 6.59-25.043 0-36.458l-12.546-21.73h31.568c4.272 26.465 6.743 55.781 7.226 86.333-13.358 4.945-25.687 12.722-36.002 23.038zm-98.726 53.806c-15.7-15.699-24.502-36.882-24.897-58.771l83.67 83.669c-21.89-.392-43.074-9.197-58.773-24.898zm44.482-44.482c15.7 15.7 24.502 36.883 24.897 58.772l-83.669-83.668c21.89.393 43.072 9.196 58.772 24.896zm32.425-121.65 18.583 32.186c3.878 6.718 3.878 14.74 0 21.458-3.879 6.717-10.826 10.728-18.583 10.728s-14.704-4.011-18.583-10.729-3.879-14.74 0-21.458zm-138.48 108.769 21.708-.117c.719 25.372 11.038 49.866 29.259 68.086 6.319 6.32 13.396 11.684 20.999 16.034.242 1.661.482 3.326.739 4.966h-56.183c-9.765-26.668-15.642-56.881-16.522-88.969zm107.382 161.718c-2.815-6.54-5.498-13.895-7.993-22.002-4.449-14.461-8.159-30.698-11.081-48.213 10.723 3.798 22.083 5.778 33.583 5.778 3.022 0 6.056-.151 9.089-.427v58.916c-8.137.77-16.099 2.791-23.598 5.948zm49.235-78.177 27.4-27.4c2.929-2.93 2.929-7.678 0-10.607-2.928-2.927-7.677-2.929-10.606 0l-27.402 27.402c.394-21.89 9.197-43.072 24.897-58.771 0 0 0 0 0-.001 15.699-15.7 36.88-24.498 58.77-24.895l-31.516 31.516c-2.929 2.93-2.929 7.678 0 10.607 1.464 1.464 3.384 2.196 5.303 2.196s3.839-.732 5.303-2.196l31.518-31.518c-.394 21.89-9.197 43.072-24.897 58.772-15.699 15.699-36.882 24.499-58.77 24.895zm97.31-101.759c-.529-3.156-3.002-5.629-6.158-6.157-12.269-2.057-24.65-1.772-36.543.642-.623-28.889-2.997-56.689-6.97-82.081h56.183c9.761 26.661 15.637 56.866 16.52 88.944l-22.811.108c-.073-.485-.139-.971-.221-1.456zm22.444-87.596h42.016c.187 0 .367-.027.55-.041 14.406 26.573 23.109 56.666 24.466 88.63l-51.44.275c-.824-31.286-6.169-61.438-15.592-88.864zm33.613-15h-39.283c-6.285-15.168-13.888-29.336-22.727-42.199-4.833-7.034-9.945-13.53-15.293-19.488.831-2.325 1.474-4.69 1.922-7.079 30.518 16.258 56.466 40.002 75.381 68.766zm-121.341-140.583 27.441 47.53c5.728 9.921 5.728 21.766 0 31.687s-15.986 15.844-27.441 15.844-21.714-5.923-27.441-15.844-5.728-21.766 0-31.687zm-174.303 75.304 19.196-33.248 19.196 33.248c4.006 6.939 4.007 15.226 0 22.165-4.006 6.939-11.183 11.083-19.196 11.083s-15.189-4.144-19.196-11.083c-4.006-6.94-4.006-15.226 0-22.165zm-14.519 26.69c.469 1.004.967 2 1.529 2.974 3.626 6.281 8.81 11.18 14.918 14.373-3.6 6.761-6.941 13.848-9.994 21.241h-39.28c9.329-14.183 20.372-27.14 32.827-38.588zm-32.837 263.372h39.275c6.285 15.168 13.888 29.336 22.727 42.199 9.402 13.682 19.839 25.367 31.065 34.918-38.195-15.864-70.594-42.947-93.067-77.117zm91.952 112.134 38.599-31.216c23.726-19.189 58.165-19.189 81.891 0l38.598 31.216zm136.493-37.565-6.571-5.314c-1.932-1.563-3.938-3.021-5.999-4.39 3.213-7.329 6.236-15.567 9.049-24.707 3.776-12.271 7.038-25.752 9.76-40.157h52.699c-14.404 32.413-34.847 58.436-58.938 74.568zm65.01-89.569h-56.183c.184-1.178.356-2.376.533-3.565 7.682-4.37 14.829-9.776 21.204-16.152 18.919-18.918 29.32-44.6 29.299-71.007l21.716-.116c-.699 32.785-6.616 63.654-16.569 90.84zm57.948 0h-42.016c9.63-28.027 15.005-58.899 15.644-90.919l51.478-.275c-.964 32.189-9.421 63.349-24.498 91.239-.202-.016-.401-.045-.608-.045z"/></g></svg>