<svg id="Capa_1" enable-background="new 0 0 512 512" height="512" viewBox="0 0 512 512" width="512" xmlns="http://www.w3.org/2000/svg"><g><g><g><circle cx="150.198" cy="288.555" fill="#fe653b" r="102.004"/></g><g><path d="m82 288.555c0-50.576 36.811-92.548 85.101-100.602-5.499-.917-11.144-1.402-16.903-1.402-56.335 0-102.004 45.669-102.004 102.004s45.669 102.004 102.004 102.004c5.759 0 11.405-.485 16.903-1.402-48.29-8.055-85.101-50.026-85.101-100.602z" fill="#ef4424"/></g><g><circle cx="150.198" cy="288.555" fill="#ef4424" r="53.172"/></g><g><path d="m131 288.555c0-23.423 15.153-43.295 36.185-50.384-5.336-1.799-11.045-2.788-16.987-2.788-29.366 0-53.172 23.806-53.172 53.172s23.806 53.172 53.172 53.172c5.943 0 11.651-.99 16.987-2.788-21.032-7.09-36.185-26.961-36.185-50.384z" fill="#d73d24"/></g></g><g><g><circle cx="343.355" cy="190.891" fill="#fe653b" r="74.876"/></g><g><path d="m294 190.891c0-37 26.845-67.711 62.115-73.77-4.149-.713-8.408-1.105-12.76-1.105-41.353 0-74.875 33.523-74.875 74.876s33.523 74.876 74.875 74.876c4.353 0 8.611-.392 12.76-1.105-35.27-6.061-62.115-36.772-62.115-73.772z" fill="#ef4424"/></g><g><circle cx="343.355" cy="190.891" fill="#ef4424" r="32.555"/></g><g><path d="m335.891 190.891c0-13.533 8.258-25.134 20.009-30.046-3.861-1.614-8.099-2.508-12.545-2.508-17.979 0-32.555 14.575-32.555 32.555 0 17.979 14.575 32.555 32.555 32.555 4.447 0 8.684-.894 12.545-2.508-11.751-4.914-20.009-16.516-20.009-30.048z" fill="#d73d24"/></g></g><g><g><circle cx="326.487" cy="57.487" fill="#ef4424" r="30.487"/></g><g><path d="m319.497 57.487c0-12.673 7.734-23.537 18.738-28.137-3.616-1.513-7.584-2.35-11.748-2.35-16.838 0-30.487 13.649-30.487 30.487 0 16.837 13.649 30.487 30.487 30.487 4.164 0 8.132-.837 11.748-2.349-11.004-4.601-18.738-15.465-18.738-28.138z" fill="#d73d24"/></g></g><g><g><circle cx="197.513" cy="447.487" fill="#fff3de" r="30.487"/></g><g><path d="m190.524 447.487c0-12.673 7.734-23.537 18.738-28.137-3.616-1.512-7.584-2.349-11.748-2.349-16.837 0-30.486 13.649-30.486 30.487 0 16.837 13.649 30.487 30.486 30.487 4.164 0 8.132-.837 11.748-2.349-11.005-4.602-18.738-15.466-18.738-28.139z" fill="#ffe5c2"/></g></g><g><g><circle cx="184.38" cy="87.259" fill="#fff3de" r="62.895"/></g><g><path d="m155.209 87.259c0-28.893 19.489-53.218 46.033-60.591-5.369-1.491-11.019-2.305-16.862-2.305-34.736 0-62.895 28.159-62.895 62.895s28.159 62.895 62.895 62.895c5.844 0 11.494-.814 16.862-2.305-26.544-7.371-46.033-31.697-46.033-60.589z" fill="#ffe5c2"/></g></g><g><g><circle cx="357.462" cy="398.155" fill="#fff3de" r="83.861"/></g><g><path d="m307.279 398.155c0-40.547 28.777-74.372 67.022-82.168-5.44-1.109-11.071-1.693-16.839-1.693-46.315 0-83.861 37.546-83.861 83.861s37.546 83.861 83.861 83.861c5.768 0 11.399-.584 16.839-1.693-38.245-7.796-67.022-41.621-67.022-82.168z" fill="#ffe5c2"/></g></g><g><path d="m259.702 288.555c0-25.049-8.683-49.54-24.448-68.963-2.61-3.216-7.334-3.706-10.55-1.097-3.216 2.61-3.707 7.334-1.097 10.55 13.603 16.758 21.095 37.893 21.095 59.51 0 52.109-42.395 94.504-94.504 94.504s-94.504-42.395-94.504-94.504c0-52.11 42.395-94.505 94.504-94.505 17.29 0 34.202 4.711 48.906 13.624 3.543 2.146 8.154 1.016 10.302-2.526 2.147-3.542 1.016-8.154-2.526-10.302-17.05-10.334-36.65-15.796-56.682-15.796-60.381 0-109.504 49.124-109.504 109.505s49.124 109.504 109.504 109.504 109.504-49.123 109.504-109.504z"/><path d="m195.373 317.573c3.765 1.733 8.217.086 9.949-3.676 3.682-7.996 5.548-16.522 5.548-25.343 0-33.455-27.217-60.673-60.672-60.673s-60.673 27.219-60.673 60.674 27.218 60.672 60.673 60.672c9.632 0 18.861-2.207 27.43-6.56 3.693-1.875 5.167-6.39 3.291-10.083-1.876-3.692-6.391-5.168-10.083-3.29-6.445 3.272-13.389 4.933-20.638 4.933-25.184 0-45.673-20.488-45.673-45.672 0-25.185 20.489-45.673 45.673-45.673s45.672 20.488 45.672 45.673c0 6.639-1.404 13.055-4.173 19.069-1.733 3.763-.087 8.217 3.676 9.949z"/><path d="m343.354 273.267c45.422 0 82.376-36.954 82.376-82.376s-36.954-82.375-82.376-82.375-82.375 36.953-82.375 82.375 36.954 82.376 82.375 82.376zm0-149.751c37.151 0 67.376 30.225 67.376 67.375 0 37.151-30.225 67.376-67.376 67.376-37.15 0-67.375-30.225-67.375-67.376s30.225-67.375 67.375-67.375z"/><path d="m343.354 230.945c12.355 0 23.831-5.579 31.485-15.308 2.562-3.256 1.998-7.971-1.257-10.532-3.256-2.561-7.971-1.999-10.532 1.257-4.791 6.09-11.971 9.583-19.696 9.583-13.815 0-25.055-11.239-25.055-25.055s11.239-25.055 25.055-25.055c9.418 0 17.955 5.212 22.28 13.601 1.897 3.683 6.423 5.129 10.103 3.229 3.682-1.897 5.128-6.421 3.229-10.103-6.908-13.402-20.555-21.728-35.612-21.728-22.086 0-40.055 17.969-40.055 40.055s17.97 40.056 40.055 40.056z"/><path d="m326.486 95.473c20.945 0 37.986-17.041 37.986-37.986s-17.04-37.987-37.986-37.987-37.986 17.041-37.986 37.986 17.041 37.987 37.986 37.987zm0-60.973c12.675 0 22.986 10.312 22.986 22.986s-10.312 22.986-22.986 22.986-22.986-10.311-22.986-22.986 10.312-22.986 22.986-22.986z"/><path d="m197.514 409.5c-20.946 0-37.987 17.041-37.987 37.986s17.041 37.986 37.987 37.986 37.986-17.041 37.986-37.986-17.041-37.986-37.986-37.986zm0 60.973c-12.675 0-22.987-10.312-22.987-22.986s10.312-22.986 22.987-22.986 22.986 10.312 22.986 22.986-10.312 22.986-22.986 22.986z"/><path d="m104.621 94.759h9.767c.787 7.399 2.736 14.453 5.642 20.991l-8.474 4.892c-3.587 2.071-4.816 6.658-2.745 10.245 1.389 2.406 3.91 3.751 6.502 3.751 1.272 0 2.562-.324 3.743-1.006l8.49-4.902c4.3 5.876 9.484 11.061 15.361 15.361l-4.902 8.49c-2.071 3.587-.842 8.174 2.745 10.245 1.181.682 2.471 1.006 3.743 1.006 2.592 0 5.113-1.345 6.502-3.751l4.893-8.474c6.539 2.907 13.592 4.855 20.992 5.642v9.767c0 4.143 3.358 7.5 7.5 7.5s7.5-3.357 7.5-7.5v-9.767c7.399-.787 14.453-2.736 20.992-5.642l4.893 8.474c1.389 2.406 3.91 3.751 6.502 3.751 1.272 0 2.562-.324 3.743-1.006 3.587-2.071 4.816-6.658 2.745-10.245l-4.902-8.49c5.876-4.3 11.061-9.485 15.361-15.361l8.49 4.902c1.181.682 2.471 1.006 3.743 1.006 2.592 0 5.113-1.345 6.502-3.751 2.071-3.587.842-8.174-2.745-10.245l-8.474-4.892c2.906-6.539 4.855-13.592 5.642-20.991h9.767c4.143 0 7.5-3.357 7.5-7.5s-3.357-7.5-7.5-7.5h-9.767c-.787-7.4-2.736-14.453-5.643-20.992l8.474-4.893c3.587-2.071 4.816-6.658 2.745-10.245-2.071-3.588-6.658-4.815-10.245-2.745l-8.49 4.902c-4.299-5.876-9.484-11.06-15.36-15.36l4.902-8.49c2.071-3.587.842-8.174-2.745-10.245-3.588-2.071-8.175-.843-10.245 2.745l-4.893 8.474c-6.539-2.907-13.592-4.855-20.992-5.642v-9.768c0-4.143-3.358-7.5-7.5-7.5s-7.5 3.357-7.5 7.5v9.767c-7.399.787-14.453 2.736-20.992 5.642l-4.893-8.474c-2.071-3.588-6.658-4.815-10.245-2.745-3.587 2.071-4.816 6.658-2.745 10.245l4.902 8.49c-5.876 4.299-11.061 9.484-15.36 15.36l-8.49-4.902c-3.588-2.07-8.174-.843-10.245 2.745-2.071 3.587-.842 8.174 2.745 10.245l8.474 4.893c-2.907 6.539-4.855 13.593-5.643 20.992h-9.767c-4.142 0-7.5 3.357-7.5 7.5s3.358 7.501 7.5 7.501zm79.759-62.896c30.545 0 55.396 24.851 55.396 55.396s-24.85 55.396-55.396 55.396-55.396-24.851-55.396-55.396 24.85-55.396 55.396-55.396z"/><path d="m209.049 70.09c1.919 0 3.839-.732 5.303-2.196l6.108-6.108c2.929-2.93 2.929-7.678 0-10.607-2.929-2.928-7.678-2.928-10.606 0l-6.108 6.108c-2.929 2.93-2.929 7.678 0 10.607 1.464 1.463 3.383 2.196 5.303 2.196z"/><path d="m154.408 106.624-6.109 6.108c-2.929 2.929-2.929 7.678 0 10.606 1.465 1.465 3.384 2.197 5.304 2.197s3.839-.732 5.303-2.196l6.109-6.108c2.929-2.929 2.929-7.678 0-10.606-2.929-2.93-7.678-2.929-10.607-.001z"/><path d="m211.767 87.259c0 4.143 3.358 7.5 7.5 7.5h8.639c4.142 0 7.5-3.357 7.5-7.5s-3.358-7.5-7.5-7.5h-8.639c-4.142 0-7.5 3.357-7.5 7.5z"/><path d="m140.854 94.759h8.639c4.142 0 7.5-3.357 7.5-7.5s-3.358-7.5-7.5-7.5h-8.639c-4.142 0-7.5 3.357-7.5 7.5s3.358 7.5 7.5 7.5z"/><path d="m184.38 114.646c-4.142 0-7.5 3.357-7.5 7.5v8.639c0 4.143 3.358 7.5 7.5 7.5s7.5-3.357 7.5-7.5v-8.639c0-4.143-3.358-7.5-7.5-7.5z"/><path d="m184.38 59.872c4.142 0 7.5-3.357 7.5-7.5v-8.639c0-4.143-3.358-7.5-7.5-7.5s-7.5 3.357-7.5 7.5v8.639c0 4.143 3.358 7.5 7.5 7.5z"/><path d="m154.408 67.894c1.465 1.464 3.384 2.196 5.303 2.196s3.839-.732 5.304-2.197c2.929-2.929 2.928-7.678 0-10.606l-6.109-6.108c-2.93-2.928-7.677-2.929-10.607.001-2.929 2.929-2.928 7.678 0 10.606z"/><path d="m214.352 106.624c-2.929-2.928-7.678-2.928-10.606 0-2.929 2.93-2.929 7.678 0 10.607l6.108 6.108c1.464 1.464 3.384 2.196 5.303 2.196s3.839-.732 5.303-2.196c2.929-2.93 2.929-7.678 0-10.607z"/><path d="m188.256 95.232c1.464 1.464 3.384 2.196 5.303 2.196s3.839-.732 5.303-2.196l5.341-5.341c2.929-2.93 2.929-7.678 0-10.607-2.929-2.928-7.678-2.928-10.606 0l-5.341 5.341c-2.929 2.93-2.929 7.678 0 10.607z"/><path d="m164.556 89.892 5.341 5.341c1.465 1.464 3.384 2.196 5.303 2.196s3.839-.732 5.304-2.197c2.929-2.929 2.928-7.678 0-10.606l-5.341-5.341c-2.93-2.928-7.678-2.929-10.607.001-2.929 2.928-2.929 7.677 0 10.606z"/><path d="m463.807 390.655h-15.294c-.914-11.197-3.856-21.827-8.457-31.526l13.254-7.652c3.587-2.071 4.816-6.658 2.745-10.245-2.07-3.587-6.66-4.815-10.245-2.745l-13.276 7.665c-6.25-8.996-14.073-16.818-23.068-23.069l7.665-13.276c2.071-3.587.842-8.174-2.745-10.245-3.589-2.071-8.175-.843-10.245 2.745l-7.652 13.253c-9.698-4.601-20.329-7.543-31.526-8.457v-15.293c0-4.143-3.357-7.5-7.5-7.5s-7.5 3.357-7.5 7.5v15.294c-11.197.914-21.828 3.856-31.526 8.457l-7.652-13.253c-2.071-3.587-6.66-4.815-10.245-2.745-3.587 2.071-4.816 6.658-2.745 10.245l7.665 13.276c-8.996 6.251-16.818 14.073-23.068 23.069l-13.276-7.665c-3.589-2.071-8.175-.843-10.245 2.745-2.071 3.587-.842 8.174 2.745 10.245l13.254 7.652c-4.601 9.698-7.543 20.329-8.457 31.526h-15.295c-4.142 0-7.5 3.357-7.5 7.5s3.358 7.5 7.5 7.5h15.295c.914 11.196 3.856 21.827 8.457 31.525l-13.254 7.652c-3.587 2.071-4.816 6.658-2.745 10.245 1.389 2.406 3.91 3.751 6.502 3.751 1.272 0 2.563-.324 3.743-1.006l13.276-7.665c6.25 8.996 14.073 16.819 23.069 23.069l-7.665 13.276c-2.071 3.587-.842 8.174 2.745 10.245 1.182.682 2.471 1.006 3.743 1.006 2.592 0 5.113-1.345 6.502-3.751l7.652-13.254c9.698 4.601 20.329 7.543 31.525 8.457v15.294c0 4.143 3.357 7.5 7.5 7.5s7.5-3.357 7.5-7.5v-15.294c11.197-.914 21.827-3.856 31.525-8.457l7.652 13.254c1.39 2.406 3.91 3.751 6.502 3.751 1.272 0 2.563-.324 3.743-1.006 3.587-2.071 4.816-6.658 2.745-10.245l-7.665-13.276c8.996-6.251 16.818-14.073 23.069-23.069l13.276 7.665c1.182.682 2.471 1.006 3.743 1.006 2.592 0 5.113-1.345 6.502-3.751 2.071-3.587.842-8.174-2.745-10.245l-13.254-7.652c4.601-9.698 7.543-20.328 8.457-31.525h15.294c4.143 0 7.5-3.357 7.5-7.5s-3.358-7.501-7.5-7.501zm-106.345 83.861c-42.105 0-76.36-34.255-76.36-76.36s34.255-76.361 76.36-76.361 76.36 34.256 76.36 76.361-34.255 76.36-76.36 76.36z"/><path d="m390.354 372.764c1.919 0 3.839-.732 5.304-2.196l8.145-8.145c2.929-2.93 2.929-7.678 0-10.607-2.93-2.928-7.678-2.928-10.607 0l-8.145 8.145c-2.929 2.93-2.929 7.678 0 10.607 1.464 1.463 3.384 2.196 5.303 2.196z"/><path d="m319.267 425.743-8.145 8.145c-2.929 2.93-2.929 7.678 0 10.607 1.465 1.464 3.385 2.196 5.304 2.196s3.839-.732 5.304-2.196l8.145-8.145c2.929-2.93 2.929-7.678 0-10.607-2.931-2.928-7.679-2.928-10.608 0z"/><path d="m415.496 390.655h-11.519c-4.143 0-7.5 3.357-7.5 7.5s3.357 7.5 7.5 7.5h11.519c4.143 0 7.5-3.357 7.5-7.5s-3.357-7.5-7.5-7.5z"/><path d="m318.446 398.155c0-4.143-3.357-7.5-7.5-7.5h-11.519c-4.143 0-7.5 3.357-7.5 7.5s3.357 7.5 7.5 7.5h11.519c4.143 0 7.5-3.357 7.5-7.5z"/><path d="m357.462 437.171c-4.143 0-7.5 3.357-7.5 7.5v11.519c0 4.143 3.357 7.5 7.5 7.5s7.5-3.357 7.5-7.5v-11.519c0-4.143-3.358-7.5-7.5-7.5z"/><path d="m357.462 359.14c4.143 0 7.5-3.357 7.5-7.5v-11.519c0-4.143-3.357-7.5-7.5-7.5s-7.5 3.357-7.5 7.5v11.519c0 4.142 3.357 7.5 7.5 7.5z"/><path d="m319.267 370.567c1.465 1.464 3.385 2.196 5.304 2.196s3.839-.732 5.304-2.196c2.929-2.93 2.929-7.678 0-10.607l-8.145-8.145c-2.93-2.928-7.678-2.928-10.607 0-2.929 2.93-2.929 7.678 0 10.607z"/><path d="m395.657 425.743c-2.93-2.928-7.678-2.928-10.607 0-2.929 2.93-2.929 7.678 0 10.607l8.145 8.145c1.465 1.464 3.385 2.196 5.304 2.196s3.839-.732 5.304-2.196c2.929-2.93 2.929-7.678 0-10.607z"/><path d="m382.126 389.291c-2.93-2.928-7.678-2.928-10.607 0l-7.121 7.121c-2.929 2.93-2.929 7.678 0 10.607 1.465 1.464 3.385 2.196 5.304 2.196s3.839-.732 5.304-2.196l7.121-7.121c2.928-2.929 2.928-7.677-.001-10.607z"/><path d="m350.526 396.412-7.121-7.121c-2.93-2.928-7.678-2.928-10.607 0-2.929 2.93-2.929 7.678 0 10.607l7.121 7.121c1.465 1.464 3.385 2.196 5.304 2.196s3.839-.732 5.304-2.196c2.928-2.929 2.928-7.677-.001-10.607z"/></g></g></svg>