<svg height="512pt" viewBox="0 -36 512 512" width="512pt" xmlns="http://www.w3.org/2000/svg"><path d="m204.320312 160.5v-.011719l-7.171874-18.539062c-8.191407-9.558594-17.863282-17.808594-28.652344-24.40625-10.429688-2.957031-21.4375-4.542969-32.816406-4.542969 0 21.859375 5.851562 42.359375 16.058593 60.011719l22.21875 22.746093zm0 0" fill="#7fe881"/><path d="m346 205 43.941406-44.988281c6.847656-11.839844 11.722656-24.96875 14.199219-38.921875-29.886719 4.027344-56.28125 19.054687-74.980469 40.871094l-6.261718 16.210937zm0 0" fill="#7fe881"/><path d="m262.625 199.296875 45.054688-38.796875v-.011719c3.53125-5.976562 5.878906-12.226562 7.160156-18.527343 4.664062-22.925782-4.859375-46.511719-23.046875-60.175782-3.15625-.5-6.410157-.785156-9.769531-.785156-39.742188 0-66 36.75-58.851563 71.949219 1.269531 6.300781 3.632813 12.5625 7.171875 18.539062v.011719zm0 0" fill="#ff637b"/><path d="m69 371c0 29.433594 21.191406 53.886719 49.132812 59h320.867188c32.8125 0 59.4375-26.332031 59.976562-59-127.269531 0-342.203124 0-429.976562 0zm0 0" fill="#fff4ca"/><path d="m435.640625 199.269531-.03125-.199219c-1.921875-14.621093-10.835937-26.855468-23.015625-33.554687l-48.558594 3.46875c-10.945312 8.207031-18.035156 21.277344-18.035156 36.015625 0-17.101562-9.507812-31.867188-23.429688-39.488281l-48.535156 3.460937c-10.949218 8.210938-18.035156 21.292969-18.035156 36.027344 0-17.027344-9.464844-31.847656-23.414062-39.488281l-48.546876 3.464843c-10.929687 8.191407-18.039062 21.246094-18.039062 36.023438 0-17.054688-9.476562-31.851562-23.414062-39.488281-14.457032 6.078125-25.082032 19.476562-27.195313 35.566406l-30.035156 168.921875h380.644531zm0 0" fill="#ffa2c3"/><path d="m266 430c0 5.523438-4.476562 10-10 10s-10-4.476562-10-10 4.476562-10 10-10 10 4.476562 10 10zm0 0"/><path d="m70 440h141c5.523438 0 10-4.476562 10-10s-4.476562-10-10-10h-141c-24.144531 0-44.351562-17.214844-48.996094-40.011719h469.992188c-4.644532 22.796875-24.851563 40.011719-48.996094 40.011719h-141c-5.523438 0-10 4.476562-10 10s4.476562 10 10 10h141c38.597656 0 70-31.402344 70-70 0-5.523438-4.476562-10-10-10h-27.621094c-16.347656-91.929688-28.867187-162.320312-28.882812-162.421875-3.011719-22.296875-19.34375-40.0625-40.292969-45.695313 7.082031-16.289062 10.796875-33.96875 10.796875-51.882812 0-5.523438-4.476562-10-10-10-29.691406 0-58.160156 10.113281-80.996094 28.316406-4.9375-28.636718-27.40625-52.710937-58.148437-57.464844 4.3125-23.214843 24.699219-40.851562 49.144531-40.851562 5.523438 0 10-4.476562 10-10s-4.476562-10-10-10c-35.421875 0-64.765625 26.453125-69.355469 60.640625-31.5 4.183594-54.632812 28.570313-59.652343 57.667969-22.835938-18.195313-51.300782-28.308594-80.992188-28.308594-5.523438 0-10 4.476562-10 10 0 17.914062 3.714844 35.59375 10.796875 51.882812-20.949219 5.632813-37.28125 23.398438-40.292969 45.695313-.003906.015625-.007812.03125-.007812.042969l-28.875 162.378906h-27.621094c-5.523438 0-10 4.476562-10 10 0 38.597656 31.402344 70 70 70zm105.976562-234.550781c.007813-.152344.023438-.296875.023438-.449219 0-19.015625 15.558594-35 35-35 19.300781 0 35 15.699219 35 35v155h-84.050781c15.070312-165.746094 13.992187-153.761719 14.027343-154.550781zm125.023438-35.449219c18.183594 0 34.039062 13.542969 35.023438 35.449219.027343.640625.027343.566406.027343.574219 1.628907 17.894531 12.214844 134.359374 14 153.976562h-84.050781v-155c0-19.300781 15.699219-35 35-35zm124.710938 30.449219c0 .015625-.007813-.042969.011718.128906.039063.285156 17.324219 97.59375 28.339844 159.421875h-83.929688l-14.125-155.355469c.199219-19.210937 16.183594-34.679687 34.992188-34.644531 16.816406 0 32.148438 12.191406 34.710938 30.449219zm-30.210938-89.949219c-1.335938 13.964844-5.328125 27.554688-11.75 39.984375-14.972656 1.964844-28.703125 10.027344-37.804688 22.980469-6.007812-8.535156-14.378906-15.347656-24.203124-19.382813.902343-2.4375 1.671874-4.914062 2.289062-7.433593 18.539062-20.695313 44.046875-33.527344 71.46875-36.148438zm-139.5-30.5c29.167969 0 54.277344 24.503906 48.910156 60.535156-.699218 3.242188-1.726562 6.414063-3.078125 9.480469-.277343-.003906-.554687-.015625-.832031-.015625-18.589844 0-35.039062 9.277344-45 23.4375-10.25-14.570312-27.125-23.707031-45.84375-23.421875-2.546875-5.765625-3.140625-9.988281-3.296875-10.585937-5.535156-28.9375 15.996094-59.429688 49.140625-59.429688zm-68.046875 66.632812c.617187 2.523438 1.390625 5.011719 2.296875 7.457032-9.820312 4.039062-18.1875 10.84375-24.191406 19.378906-8.988282-12.796875-22.65625-21-37.808594-22.988281-6.421875-12.429688-10.414062-26.019531-11.746094-39.980469 27.410156 2.621094 52.914063 15.445312 71.449219 36.132812zm-101.675781 53.945313.007812-.058594c.003906-.023437.003906-.046875.003906-.070312.007813-.023438.011719-.050781.015626-.074219 2.277343-17.316406 17.191406-30.375 34.695312-30.375.253906 0 .523438 0 .824219.007812 18.726562.4375 33.976562 15.941407 34.167969 34.636719l-14.125 155.355469h-83.933594c.035156-.179688 28.300781-159.109375 28.34375-159.421875zm0 0"/></svg>