<svg id="Capa_1" enable-background="new 0 0 511.996 511.996" height="512" viewBox="0 0 511.996 511.996" width="512" xmlns="http://www.w3.org/2000/svg"><g><g><g><path d="m224.778 357.449-30.43 31.67-47.01-36.48-122.5-95.07c-11.84-9.18-18.3-23.67-17.22-38.61.78-10.77 5.33-20.49 12.38-27.82 7.04-7.33 16.58-12.27 27.3-13.48 1.68-.19 3.36-.28 5.02-.28 13.13 0 25.69 5.77 34.25 15.94l99.28 117.9z" fill="#eaf6ff"/><path d="m224.778 357.449-30.43 31.67-47.01-36.48c7.99-2.89 15.12-7.46 20.98-13.33 6.27-6.26 11.08-14 13.9-22.66.73-2.24 2.02-4.07 3.63-5.43z" fill="#c8effe"/><path d="m86.57 193.32c-9.649-11.458-24.387-17.336-39.273-15.663-2.282.256-4.505.692-6.667 1.274 8.701 2.349 16.627 7.297 22.6 14.39l138.211 164.129-20.461 21.295 13.371 10.376 30.43-31.671z" fill="#c8effe"/><path d="m287.215 357.449 30.431 31.671 169.517-131.547c11.835-9.184 18.296-23.675 17.219-38.616-1.552-21.528-18.233-38.89-39.683-41.3-14.886-1.673-29.624 4.205-39.273 15.664z" fill="#eaf6ff"/><path d="m504.382 218.957c-1.552-21.529-18.234-38.89-39.683-41.3-5.671-.637-11.318-.172-16.673 1.274 18.156 4.887 31.629 20.788 33.016 40.027 1.077 14.941-5.385 29.432-17.219 38.616l-156.147 121.17 9.969 10.376 169.517-131.547c11.835-9.184 18.297-23.675 17.22-38.616z" fill="#c8effe"/></g><g><path d="m264.363 369.368-56.21-13.868-77.889-267.898c-5.438-18.703-1.168-38.887 11.378-53.785 18.077-21.467 48.891-26.993 73.301-13.146 16.942 9.61 27.959 27.052 29.36 46.48z" fill="#eaf6ff"/><path d="m191.603 20.67c16.942 9.61 27.959 27.052 29.36 46.479l19.672 296.364 23.729 5.854-20.061-302.217c-1.401-19.427-12.418-36.869-29.359-46.479-12.629-7.164-26.97-9.13-40.376-6.398 5.854 1.2 11.603 3.316 17.035 6.397z" fill="#c8effe"/><path d="m255.998 361.659 47.846-6.159 77.889-267.898c5.438-18.703 1.168-38.887-11.378-53.785-18.077-21.467-48.891-26.993-73.301-13.146-16.942 9.61-27.959 27.052-29.36 46.48l-11.695 176.179v118.329z" fill="#eaf6ff"/><path d="m370.354 33.816c-14.055-16.69-35.808-23.739-56.265-19.544 12.506 2.549 24.2 9.183 32.925 19.544 12.546 14.899 16.816 35.082 11.378 53.786l-77.888 267.898-24.506 3.154v3.004l47.846-6.159 77.889-267.898c5.437-18.702 1.167-38.886-11.379-53.785z" fill="#c8effe"/></g><g><path d="m290.191 407.031-37.57-37.57 9.013-20.852c5.924-13.705 14.388-26.165 24.946-36.723 6.32-6.32 17.086-3.739 19.853 4.76 5.644 17.335 19.236 30.928 36.572 36.572 8.499 2.767 11.08 13.533 4.76 19.853-10.558 10.558-23.018 19.022-36.723 24.946z" fill="#ffceec"/><path d="m343.006 353.218c-17.336-5.644-30.928-19.236-36.572-36.572-2.767-8.499-13.533-11.08-19.853-4.76-1.298 1.298-2.564 2.626-3.798 3.981.104.26.223.508.312.779 5.644 17.335 19.236 30.927 36.572 36.572 8.499 2.767 11.08 13.533 4.76 19.853-10.558 10.558-23.018 19.022-36.723 24.946l-4.556 1.969 7.044 7.044 20.852-9.013c13.705-5.924 26.165-14.388 36.723-24.946 6.319-6.32 3.738-17.086-4.761-19.853z" fill="#ffbee6"/><path d="m259.375 437.847-37.57-37.57-20.852 9.013c-13.705 5.924-26.165 14.388-36.723 24.946-6.32 6.32-3.739 17.086 4.76 19.853 17.335 5.644 30.928 19.236 36.572 36.572 2.767 8.499 13.533 11.08 19.853 4.76 10.558-10.558 19.022-23.018 24.946-36.723z" fill="#ffceec"/><path d="m221.805 400.277-16.296 7.044 30.526 30.526-9.013 20.852c-5.196 12.02-12.346 23.081-21.148 32.742 3.161 7.858 13.423 10.099 19.542 3.981 10.558-10.558 19.022-23.018 24.946-36.723l9.013-20.852z" fill="#ffbee6"/></g><g><path d="m252.621 437.847 37.57-37.57 20.852 9.013c13.705 5.924 26.165 14.388 36.723 24.946 6.32 6.32 3.739 17.086-4.76 19.853-17.335 5.644-30.928 19.236-36.572 36.572-2.767 8.499-13.533 11.08-19.853 4.76-10.558-10.558-19.022-23.018-24.946-36.723z" fill="#ffceec"/><path d="m347.766 434.237c-10.558-10.558-23.018-19.022-36.723-24.946l-20.852-9.013-7.044 7.044 4.556 1.969c13.705 5.924 26.165 14.389 36.723 24.946 6.32 6.32 3.739 17.086-4.76 19.853-17.335 5.644-30.928 19.236-36.572 36.572-.088.272-.207.52-.312.779 1.234 1.355 2.5 2.682 3.798 3.981 6.32 6.32 17.086 3.739 19.853-4.76 5.644-17.335 19.236-30.928 36.572-36.572 8.5-2.767 11.081-13.533 4.761-19.853z" fill="#ffbee6"/><path d="m221.805 407.031 37.57-37.57-9.013-20.852c-5.924-13.705-14.388-26.165-24.946-36.723-6.32-6.32-17.086-3.739-19.853 4.76-5.644 17.335-19.236 30.928-36.572 36.572-8.499 2.767-11.08 13.533-4.76 19.853 10.558 10.558 23.018 19.022 36.723 24.946z" fill="#ffceec"/><path d="m250.361 348.609c-5.924-13.705-14.388-26.165-24.946-36.723-6.118-6.118-16.38-3.877-19.542 3.981 8.802 9.661 15.952 20.723 21.148 32.742l9.013 20.852-30.526 30.526 16.296 7.044 37.57-37.57z" fill="#ffbee6"/></g><g><g><path d="m233.656 425.996-15.52-15.52c-6.554-6.554-6.554-17.181 0-23.736l20.949-20.949c6.554-6.554 17.181-6.554 23.736 0l15.52 15.52z" fill="#bbf49b"/></g><path d="m262.821 365.792c-6.554-6.554-17.181-6.554-23.736 0l-5.663 5.663c5.566-1.44 11.724.002 16.084 4.362l5.495 5.495-33.015 33.015 11.67 11.67 44.685-44.685z" fill="#9be69d"/><g><path d="m249.175 441.516-15.52-15.52 44.685-44.685 15.52 15.52c6.554 6.554 6.554 17.181 0 23.736l-20.949 20.949c-6.554 6.554-17.181 6.554-23.736 0z" fill="#bbf49b"/></g><path d="m293.86 396.831-15.52-15.52-11.67 11.67 3.85 3.85c6.554 6.554 6.554 17.181 0 23.736l-20.949 20.949c-.064.064-.133.116-.198.179 6.568 6.365 17.047 6.312 23.538-.179l20.949-20.949c6.555-6.555 6.555-17.181 0-23.736z" fill="#9be69d"/></g></g><g><path d="m511.859 218.417c-.881-12.167-6.015-23.701-14.451-32.474-19.687-21.667-58.646-21.29-77.716 2.545l-90.84 107.877 23.453-80.68c1.156-3.978-1.131-8.14-5.108-9.296-3.978-1.155-8.14 1.131-9.295 5.108l-27.987 96.275c-3.626-4.285-9.018-6.894-14.907-6.894-5.175 0-10.052 2.026-13.733 5.706-4.515 4.515-8.646 9.334-12.391 14.424 5.799-29.626 17.685-69.661 41.835-100.242 2.567-3.251 2.013-7.967-1.238-10.534-3.25-2.565-7.966-2.014-10.534 1.237-16.746 21.205-27.954 46.126-35.449 69.501v-37.394l11.68-175.89c1.331-24.889 24.024-47.553 50.59-47.108 15.022 0 29.184 6.587 38.852 18.069 10.953 13.014 14.656 30.529 9.907 46.856l-26.571 91.406c-1.156 3.978 1.131 8.14 5.108 9.296 3.976 1.155 8.139-1.131 9.295-5.108l26.571-91.405c6.153-21.151 1.355-43.845-12.834-60.704-12.526-14.878-30.869-23.41-50.327-23.41-32.711-.596-63.724 26.973-65.554 61.072l-4.217 63.495-4.219-63.536c-1.685-32.579-31.533-61.7-65.55-61.031-19.458 0-37.801 8.532-50.329 23.411-14.188 16.858-18.986 39.552-12.833 60.702l60.078 206.674-90.839-107.875c-18.436-23.028-56.887-25.041-77.713-2.551-8.44 8.775-13.574 20.31-14.456 32.479-1.264 17.485 6.252 34.337 20.103 45.076l107.893 83.731c1.368 1.062 2.986 1.575 4.593 1.575 2.238 0 4.452-.997 5.93-2.901 2.54-3.272 1.946-7.984-1.327-10.523l-107.895-83.734c-9.877-7.659-15.236-19.675-14.335-32.142.629-8.682 4.289-16.908 10.309-23.167 13.812-15.21 41.679-15.329 55.424 1.816l110.02 130.654c-5.087 7.045-14.567 14.239-24.186 17.283-8.043 2.619-13.447 10.074-13.447 18.551 1.592 17.24 20.823 26.341 35.132 35.593-25.364 2.754-65.41 3.068-92.027-16.473-3.339-2.45-8.032-1.731-10.484 1.607s-1.732 8.033 1.607 10.484c22.392 16.439 51.801 20.829 76.828 20.829 3.129 0 6.184-.072 9.154-.194-5.12 3.761-9.966 7.912-14.503 12.45-3.681 3.68-5.708 8.557-5.708 13.733 0 8.477 5.404 15.932 13.45 18.552 7.372 2.398 14.181 6.574 19.683 12.068 5.502 5.51 9.677 12.318 12.076 19.693 3.974 12.95 21.799 18.184 32.29 7.744 9.681-9.671 18.939-22.406 25.281-36.268 5.653 12.347 14.6 25.67 25.276 36.263 3.679 3.681 8.557 5.707 13.733 5.707 8.481 0 15.94-5.403 18.562-13.45 2.397-7.371 6.573-14.18 12.067-19.682 5.51-5.502 12.319-9.678 19.693-12.077 12.956-3.977 18.185-21.789 7.741-32.283-4.558-4.558-9.427-8.726-14.573-12.501 2.979.122 6.045.193 9.185.193 6.424 0 13.145-.287 19.959-.988 4.12-.425 7.117-4.108 6.692-8.229-.424-4.121-4.115-7.103-8.229-6.693-15.458 1.593-30.588.83-42.491-.471 9.34-4.93 20.754-13.073 29.455-21.875 3.164-3.165 5.096-7.216 5.578-11.579l133.104-103.297c13.857-10.738 21.373-27.59 20.109-45.076zm-221.017 187.478c.657 2.227.515 6.04-2.287 9.371l-20.951 20.95c-3.253 2.194-6.733 4.939-13.123-.001l-10.217-10.216 34.078-34.08 10.213 10.214c1.07 1.068 1.838 2.331 2.287 3.762zm-57.185 9.496-10.216-10.217c-2.765-2.425-3.97-8.888 0-13.132l20.951-20.951c3.269-2.53 8.208-4.412 13.123.001l10.217 10.216zm-86.282-376.741c9.669-11.484 23.831-18.071 38.853-18.071 24.824-.477 49.176 20.597 50.586 47.066l11.684 175.931v85.374c-5.036-8.079-10.976-15.564-17.777-22.365-3.68-3.68-8.557-5.706-13.733-5.706-5.889 0-11.281 2.609-14.906 6.894l-64.612-222.269c-4.75-16.327-1.046-33.842 9.905-46.854zm22.157 329.116c-.872-.872-1.314-1.925-1.314-3.128 0-1.514.81-3.545 3.097-4.29 18.988-6.192 34.726-21.319 41.375-41.377.743-2.283 2.78-3.093 4.298-3.093 1.203 0 2.255.442 3.127 1.313 10.031 9.885 18.967 23.418 24.498 37.027-4.017 1.087-7.762 3.2-10.828 6.266l-20.951 20.951c-3.069 3.069-5.184 6.815-6.272 10.833-12.908-5.303-26.063-13.49-37.03-24.502zm73.941 87.957c-5.054 11.73-13.197 24.304-23.359 34.393-1.566 1.517-5.235 2.263-7.424-1.777-3.125-9.606-8.563-18.476-15.733-25.657-7.173-7.162-16.042-12.6-25.646-15.724-2.283-.744-3.093-2.775-3.093-4.289 0-1.203.442-2.255 1.313-3.127 10.826-11.181 26.174-20.408 41.123-26.278.67.885 34.848 35.073 35.723 35.738zm100.305-13.054c0 1.514-.81 3.545-3.09 4.288-9.607 3.125-18.477 8.562-25.657 15.732-7.163 7.174-12.601 16.043-15.724 25.646-.744 2.282-2.781 3.093-4.299 3.093-1.204 0-2.255-.441-3.131-1.318-9.707-9.64-18.776-22.866-24.491-37.017 4.057-1.09 7.777-3.222 10.826-6.271l20.95-20.949c3.07-3.07 5.185-6.817 6.272-10.835 12.965 5.197 26.761 14.135 37.032 24.505.871.871 1.312 1.923 1.312 3.126zm-1.313-74.904c-10.649 10.99-25.843 20.282-41.127 26.272-.669-.883-34.839-35.066-35.722-35.735 5.706-14.609 14.622-29.668 26.265-41.11.872-.871 1.924-1.313 3.127-1.313 1.518 0 3.555.811 4.299 3.092 2.74 8.547 8.362 18.275 15.724 25.637 7.139 7.15 16.009 12.594 25.655 15.742 2.283.744 3.093 2.775 3.093 4.289-.001 1.203-.443 2.255-1.314 3.126zm140.095-116.121-128.782 99.943c-2.231-2.482-5.105-4.412-8.443-5.499-8.994-3.06-17.81-8.757-24.19-17.284l110.021-130.657c13.022-16.17 40.345-18.017 55.426-1.811 6.017 6.256 9.677 14.481 10.305 23.162.902 12.469-4.457 24.485-14.337 32.146z"/><path d="m415.672 383.759c-5.114 3.754-11.012 6.967-17.53 9.549-3.851 1.525-5.736 5.884-4.211 9.734 1.167 2.945 3.989 4.74 6.975 4.74.919 0 1.854-.17 2.76-.529 7.71-3.054 14.736-6.89 20.883-11.402 3.339-2.451 4.059-7.146 1.607-10.484-2.451-3.341-7.145-4.06-10.484-1.608z"/></g></g></svg>