<svg id="Capa_1" enable-background="new 0 0 512.001 512.001" height="512" viewBox="0 0 512.001 512.001" width="512" xmlns="http://www.w3.org/2000/svg"><g><g><path d="m256 347.485-52.553-52.553-73.672 36.673c-14.391 7.164-25.325 19.778-30.372 35.04l-4.308 13.025c-7.154 21.631-1.502 45.447 14.609 61.557 16.11 16.11 39.926 21.762 61.557 14.609l13.025-4.308c15.262-5.047 27.877-15.981 35.04-30.372z" fill="#b2529f"/><path d="m203.447 294.932-14.279 7.108 45.445 45.445c-16.331 26.401-36.215 96.407-71.713 104.042-6.971 3.078-14.352 5.236-21.798 6.295 9.878 1.874 20.248 1.293 30.16-1.985l13.025-4.307c15.262-5.047 27.877-15.981 35.04-30.372l36.673-73.673z" fill="#9a4588"/><path d="m256 347.485 52.553-52.553 73.672 36.673c14.391 7.164 25.325 19.778 30.372 35.04l4.307 13.025c7.154 21.631 1.502 45.447-14.609 61.557-16.11 16.11-39.926 21.762-61.557 14.609l-13.025-4.308c-15.262-5.047-27.877-15.981-35.04-30.372z" fill="#b2529f"/><path d="m416.904 379.67-4.307-13.025c-5.047-15.262-15.981-27.877-30.372-35.04l-73.672-36.673-7.108 7.108 59.392 29.564c14.391 7.164 25.325 19.778 30.372 35.04l4.307 13.025c7.154 21.631 1.502 45.447-14.609 61.557-8.868 8.868-20.073 14.559-31.961 16.698 19.266 3.485 39.256-2.605 53.349-16.698 16.11-16.108 21.762-39.925 14.609-61.556z" fill="#9a4588"/><path d="m189.106 417.53-17.333 5.732c-27.605 9.129-57.877 2.578-79.222-16.882 1.688 12.955 7.569 25.264 17.152 34.848 16.11 16.11 39.926 21.762 61.557 14.609l13.025-4.307c15.262-5.047 27.877-15.981 35.04-30.372l9.377-18.838c-14.208 6.706-29.608 11.907-39.596 15.21z" fill="#ffceec"/><path d="m162.899 451.527c-6.971 3.078-14.352 5.236-21.798 6.295 9.878 1.874 20.248 1.293 30.16-1.985l13.025-4.307c15.262-5.047 27.877-15.981 35.04-30.372l9.377-18.838c-8.824 4.165-18.105 7.748-26.266 10.657-10.749 19.042-23.561 35.114-39.538 38.55z" fill="#ffbee6"/><path d="m419.35 407.081c-.91 6.35-2.81 12.54-5.68 18.31-2.86 5.77-6.67 11.13-11.38 15.84-16.11 16.11-39.92 21.76-61.55 14.61l-13.03-4.31c-15.26-5.05-27.87-15.98-35.04-30.37l-7.79-15.66c13.57 5.29 28.15 9.16 37.94 12.4l17.4 5.76c27.54 9.11 57.72 2.67 79.13-16.58z" fill="#ffceec"/><path d="m393.673 422.632c-2.823 6.78-7.017 13.092-12.767 18.596-9.12 9.524-20.461 14.781-32.477 16.599 19.423 3.688 39.642-2.375 53.861-16.595 4.71-4.71 8.52-10.07 11.38-15.84 2.87-5.77 4.77-11.96 5.68-18.31-7.618 6.849-16.351 12.068-25.677 15.55z" fill="#ffbee6"/><path d="m206.73 207.721v108.28c-27.56 0-49.11 15.25-62.86 28.86-12.64 12.51-31.03 17.27-48.24 12.78l-23.03-6.01c-38.34-10-65.1-44.63-65.1-84.26v-11.44c0-39.87 27.07-74.64 65.72-84.42l22.44-5.68c17.12-4.33 35.36.51 47.83 13.03 3.52 3.52 7.56 7.16 12.12 10.61 13.03 9.88 30.24 18.25 51.12 18.25z" fill="#c365af"/><path d="m143.493 178.857c-12.037-12.077-29.446-16.985-46.044-13.417 9.198 1.993 17.801 6.539 24.656 13.417 13.568 13.613 35.054 28.859 63.237 28.859v108.287c-27.56 0-49.113 15.247-62.864 28.86-6.879 6.81-15.469 11.301-24.64 13.275 16.558 3.547 33.929-1.297 46.027-13.275 13.751-13.613 35.304-28.86 62.865-28.86v-108.286c-28.183 0-49.669-15.247-63.237-28.86z" fill="#b2529f"/><path d="m305.27 315.995v-108.287c28.183 0 49.669-15.247 63.237-28.86 12.471-12.512 30.71-17.358 47.836-13.024l22.434 5.676c38.65 9.779 65.723 44.555 65.723 84.423v11.436c0 39.63-26.758 74.262-65.104 84.264l-23.03 6.007c-17.205 4.488-35.595-.266-48.231-12.775-13.751-13.613-35.305-28.86-62.865-28.86z" fill="#c365af"/><path d="m305.27 315.995v-108.287c28.183 0 49.669-15.247 63.237-28.86 12.471-12.512 30.71-17.358 47.836-13.024l22.434 5.676c38.65 9.779 65.723 44.555 65.723 84.423v11.436c0 39.63-26.758 74.262-65.104 84.264l-23.03 6.007c-17.205 4.488-35.595-.266-48.231-12.775-13.751-13.613-35.305-28.86-62.865-28.86z" fill="#c365af"/><path d="m438.777 171.5-11.108-2.811c27.425 19.239 44.759 50.995 44.759 86.024v13.798c0 35.158-17.468 67.038-45.101 86.259l12.069-3.148c38.347-10.002 65.104-44.634 65.104-84.264v-11.436c0-39.867-27.073-74.643-65.723-84.422z" fill="#ffceec"/><path d="m438.777 171.5-11.108-2.811c5.213 3.657 10.059 7.769 14.494 12.267 25.994 15.363 42.777 43.583 42.777 74.966v11.436c0 31.42-16.829 59.684-42.909 75.037-4.495 4.544-9.411 8.694-14.704 12.375l12.069-3.148c38.347-10.002 65.104-44.634 65.104-84.264v-11.436c0-39.867-27.073-74.643-65.723-84.422z" fill="#ffbee6"/><path d="m206.73 207.721v70.4h-21.39l-29.73-88.65c13.03 9.88 30.24 18.25 51.12 18.25z" fill="#b2529f"/><path d="m40.575 268.512v-13.798c0-35.266 17.572-67.213 45.319-86.41l-12.67 3.206c-38.651 9.778-65.724 44.555-65.724 84.422v11.436c0 39.63 26.758 74.262 65.104 84.264l13.691 3.571c-27.992-19.173-45.72-51.27-45.72-86.691z" fill="#ffceec"/><path d="m305.27 278.122h-98.541l-37.29-111.213c-5.111-15.241-3.922-31.892 3.301-46.254l17.292-34.381c10.237-20.354 31.074-33.198 53.858-33.198h24.22c22.783 0 43.62 12.844 53.858 33.198l17.292 34.381c7.223 14.361 8.411 31.012 3.301 46.254z" fill="#d691c6"/><g><path d="m246.693 53.076c.01.001.02.001.031.002.04-.001.079-.001.118-.002z" fill="#d691c6"/><path d="m339.26 120.655-17.292-34.381c-10.238-20.354-31.075-33.198-53.858-33.198h-17.576c37.727 1.151 53.335 37.658 67.337 67.581 7.225 14.359 8.413 31.01 3.303 46.252l-37.29 111.213h21.387l37.29-111.213c5.11-15.241 3.922-31.893-3.301-46.254z" fill="#cd7cbb"/></g><path d="m169.245 130.124c13.463-26.768 40.866-43.659 70.829-43.659h31.852c29.963 0 57.366 16.891 70.829 43.659l.705 1.402c-1.04-3.723-2.437-7.366-4.2-10.87l-17.292-34.381c-10.238-20.355-31.075-33.199-53.858-33.199h-24.22c-22.783 0-43.62 12.844-53.857 33.198l-17.292 34.381c-1.763 3.505-3.16 7.147-4.2 10.87z" fill="#ffceec"/><g><path d="m246.692 53.076c.011.001.021.001.032.002.041-.001.081-.001.122-.002z" fill="#ffceec"/><path d="m339.26 120.655-17.292-34.381c-10.238-20.354-31.075-33.198-53.858-33.198h-17.577c26.573.81 42.172 19.161 53.965 40.396 16.285 7.342 29.935 20.107 38.256 36.651l.705 1.402c-1.04-3.723-2.437-7.365-4.199-10.87z" fill="#ffbee6"/></g><path d="m305.267 283.016v32.986s-22.788 11.462-42.921 31.298c-3.504 3.453-9.146 3.436-12.616-.051-20.37-20.438-42.997-31.247-42.997-31.247v-32.986c0-7.48 4.795-14.118 11.896-16.47l21.26-7.04 9.061-3.003c4.581-1.519 9.528-1.519 14.101 0l9.061 3.003 21.26 7.04c7.1 2.352 11.895 8.99 11.895 16.47z" fill="#8379c1"/><path d="m293.371 266.547-21.26-7.04-9.061-3.003c-4.573-1.519-9.519-1.519-14.101 0l-3.643 1.208 5.418 1.796 21.26 7.04c7.101 2.351 11.896 8.989 11.896 16.47v32.986s-19.576 9.852-38.469 27.086c1.445 1.341 2.888 2.724 4.32 4.161 3.47 3.487 9.112 3.504 12.616.051 20.133-19.836 42.921-31.298 42.921-31.298v-32.986c-.001-7.482-4.796-14.12-11.897-16.471z" fill="#6e61b6"/><path d="m272.111 259.507v33.147c0 8.9-7.211 16.12-16.111 16.12s-16.111-7.22-16.111-16.12v-33.147l9.061-3.003c4.581-1.519 9.528-1.519 14.101 0z" fill="#6fd7a3"/><path d="m263.05 256.504c-4.573-1.519-9.519-1.519-14.101 0l-1.005.333 8.056 2.67v33.147c0 5.962-3.244 11.157-8.056 13.946 2.371 1.375 5.117 2.174 8.056 2.174 8.9 0 16.111-7.22 16.111-16.12v-33.147z" fill="#3ec3a4"/></g><g><path d="m494.369 200.886c-13.869-20.373-38.399-34.435-63.668-39.167l-12.522-3.17c-20.998-5.411-43.52 1.955-58.194 18.108-3.036 2.818-3.212 7.563-.394 10.599 2.817 3.035 7.562 3.212 10.599.394 9.954-11.664 28.214-19.104 44.31-14.56l9.935 2.515c25.376 18.32 40.494 47.786 40.494 79.107v13.798c0 31.489-15.25 61.051-40.845 79.356l-9.606 2.507c-14.694 3.833-30.432-.325-41.07-10.853-13.102-12.969-33.867-28.219-60.636-30.686v-29.49l3.371-10.054h83.069c4.142 0 7.5-3.358 7.5-7.5s-3.358-7.5-7.5-7.5h-78.039l28.5-84.996c4.258-12.699 4.58-26.483 1.116-39.331-.79-6.544-18.822-40.015-22.117-47.065-11.586-23.025-34.792-37.329-60.56-37.329h-24.22c-25.769 0-48.974 14.304-60.561 37.331-5.002 10.917-19.126 35.331-22.133 47.129-3.444 12.829-3.118 26.587 1.133 39.265l6.787 20.24c-7.06-4.158-13.854-9.489-20.312-15.968-14.19-14.246-35.256-19.998-54.984-15.007l-22.437 5.677c-36.704 9.287-63.737 39.222-69.999 75.533-.638 3.725-1.35 9.897-1.384 16.161v11.436c-.086 42.727 29.348 81.067 71.144 91.634l21.065 5.498-4.229 12.814c-8.101 24.47-1.81 50.994 16.417 69.22 24.298 23.868 54.345 23.536 82.25 12.117 17.033-5.637 31.393-18.082 39.398-34.147l29.958-60.186 29.955 60.188c12.776 26.756 44.543 40.287 73.852 41.924 20.403-.413 39.515-8.641 53.267-26.088 13.935-17.746 18.17-41.199 10.946-63.021l-4.234-12.831s24.093-6.316 25.37-6.707c39.129-11.908 66.957-48.823 66.842-90.424v-11.436c.097-19.254-6.526-39.744-17.634-55.035zm-14.441 67.626v-13.798c0-24.691-8.136-48.384-22.629-67.659 23.447 13.511 40.095 40.091 39.701 68.868v11.436c.066 26.99-14.766 54.978-39.753 68.886 14.528-19.281 22.681-42.993 22.681-67.733zm-117.074 81.67c10.471 10.524 26.601 16.949 41.818 16.572 3.725 10.779 8.972 24.084 7.61 36.522-19.299 16.092-45.75 21.19-69.705 13.264-12.248-4.228-37.265-11.621-52.296-17.012l-23.13-46.476s13.609-12.179 19.728-16.636l45.798 45.798c1.464 1.464 3.384 2.197 5.303 2.197s3.839-.732 5.303-2.197c2.929-2.929 2.929-7.678 0-10.606l-43.708-43.708c3.343-2.059 5.971-3.536 7.517-4.376 24.443.674 43.758 14.776 55.762 26.658zm36.186 83.566c-8.206 9.822-24.564 18.042-39.38 17.644-22.147-1.838-48.431-10.298-59.851-32.77 7.044 2.072 33.647 10.677 38.055 12.16 22.31 7.38 46.414 5.395 66.95-4.832-1.003 1.644-2.935 4.503-5.774 7.798zm-231.939 15.53c-21.604 6.62-48.132-2.576-60.31-24.019 20.586 10.467 44.844 12.562 67.338 5.124 0 0 30.024-9.929 38.847-13.296-5.594 11.935-17.663 23.046-31.043 27.322-2.997.968-12.078 4.041-14.832 4.869zm56.069-52.663c-13.942 6.358-53.752 19.526-53.752 19.526-24.038 7.95-50.504 2.761-69.751-13.499-1.281-10.636 3.741-24.993 7.656-35.879 14.411.415 30.952-5.628 41.822-16.572 12.019-11.896 31.366-26.016 55.851-26.66 1.535.802 4.167 2.231 7.534 4.262l-43.814 43.814c-2.929 2.929-2.929 7.678 0 10.606 1.464 1.464 3.384 2.197 5.303 2.197s3.839-.732 5.303-2.197l45.953-45.953c6.058 4.409 19.617 16.713 19.617 16.713zm41.441-131.692v27.732c0 4.753-3.863 8.62-8.611 8.62s-8.611-3.867-8.611-8.62v-27.732c4.905-2.269 11.117-2.662 17.222 0zm-8.611 51.351c13.02 0 23.611-10.596 23.611-23.62v-22.764l11.403 3.777c4.039 1.337 6.753 5.094 6.753 9.35v28.515c-7.714 4.344-24.888 14.864-40.686 30.428-.566.558-1.48.559-2.04-.004-15.934-15.987-33.027-26.258-40.809-30.504v-28.434c0-4.255 2.714-8.013 6.753-9.35l11.403-3.777v22.765c0 13.023 10.592 23.618 23.612 23.618zm79.449-151.747-32.978 98.351-37.058-13.492c-6.065-2.014-12.75-2.015-18.824-.001l-37.061 13.493-32.978-98.35c-2.927-8.694-3.813-21.378-.606-31.034 12.263-24.382 36.836-39.529 64.128-39.529h31.853c27.292 0 51.865 15.146 64.127 39.527 2.913 8.562 2.672 21.19-.603 31.035zm-91.56-103.951h24.22c20.001-.15 39.046 11.847 47.747 30.239-13.034-7.638-28.103-11.85-43.93-11.85h-31.853c-15.827 0-30.896 4.212-43.93 11.85 8.395-18.067 27.447-30.316 47.746-30.239zm-146.39 112.526c14.619-3.697 30.206.538 40.679 11.053 11.559 11.597 24.19 20.062 37.591 25.224l15.06 44.912h-78.039c-4.142 0-7.5 3.358-7.5 7.5s3.358 7.5 7.5 7.5h83.069l3.371 10.054v29.5c-26.77 2.467-47.534 17.717-60.636 30.685-12.124 12.722-32.54 14.787-49.085 8.762-23.136-16.282-38.031-41.631-40.923-69.758-.423-4.12-4.104-7.112-8.228-6.694-4.12.424-7.117 4.107-6.693 8.228 2.164 21.062 10.159 40.776 22.797 57.156-24.481-13.337-41.824-40.425-41.462-69.856v-11.436c.036-26.336 13.952-55.226 41.392-69.837-12.737 16.541-20.737 36.467-22.794 57.734-.398 4.123 2.62 7.789 6.743 8.188 4.123.396 7.789-2.621 8.188-6.743 2.725-28.172 17.489-53.621 40.565-70.044z"/><path d="m256 167.46c-4.142 0-7.5 3.358-7.5 7.5v44.337c0 4.142 3.358 7.5 7.5 7.5s7.5-3.358 7.5-7.5v-44.337c0-4.142-3.358-7.5-7.5-7.5z"/></g></g></svg>