<svg id="Capa_1" enable-background="new 0 0 512.005 512.005" height="512" viewBox="0 0 512.005 512.005" width="512" xmlns="http://www.w3.org/2000/svg"><g><g><path d="m240.434 363.858h31.138v140.648h-31.138z" fill="#bbf49b"/><path d="m256.002 363.858h15.57v140.648h-15.57z" fill="#9be69d"/><g><path d="m195.526 360.831-43.197 48.086c-9.147 10.182-15.3 22.695-17.779 36.155l-3.742 20.312c-1.286 6.979 7.576 11.077 12.061 5.578l30.64-37.57c1.314-1.612 2.705-3.159 4.168-4.637l54.989-55.555z" fill="#bbf49b"/><path d="m195.526 360.831-4.046 4.503 23.616 7.864c-23.769 23.108-59.194 55.064-78.317 81.609-1.258 1.542-2.86 2.329-4.486 2.51l-1.486 8.066c-1.286 6.979 7.576 11.077 12.061 5.578l30.64-37.57c1.314-1.612 2.705-3.159 4.168-4.637l54.989-55.555-5.444-27.542z" fill="#9be69d"/><path d="m119.671 337.826-29.815 17.412c-14.055 8.208-25.022 20.809-31.213 35.861l-9.879 24.019c-2.729 6.635 5.273 12.477 10.761 7.856l36.251-30.519c2.043-1.72 4.178-3.329 6.394-4.819l54.575-36.686z" fill="#bbf49b"/><path d="m119.671 337.826-6.631 3.872 26.135 9.251c-26.761 16.932-58.683 34.878-81.512 56.49-1.982 1.668-4.289 1.968-6.302 1.363l-2.597 6.314c-2.729 6.635 5.273 12.477 10.761 7.856l36.251-30.519c2.043-1.72 4.178-3.329 6.394-4.819l54.575-36.686z" fill="#9be69d"/></g><g><path d="m316.48 360.831 43.197 48.086c9.147 10.182 15.3 22.695 17.779 36.155l3.742 20.312c1.286 6.979-7.576 11.077-12.061 5.578l-30.64-37.57c-1.314-1.612-2.705-3.159-4.168-4.637l-54.989-55.555 5.414-24.451z" fill="#bbf49b"/><path d="m381.197 465.383-3.742-20.312c-2.479-13.461-8.633-25.973-17.779-36.155l-43.197-48.086-13.748 4.578c18.453 21.233 54.689 53.109 57.154 79.662 0 .001 1.342 7.731 1.342 7.731.465 2.526-.402 4.671-1.907 6.124l9.815 12.035c4.486 5.5 13.348 1.402 12.062-5.577z" fill="#9be69d"/><path d="m392.334 337.826 29.815 17.412c14.055 8.208 25.022 20.809 31.213 35.861l9.879 24.019c2.729 6.635-5.273 12.477-10.761 7.856l-36.251-30.519c-2.043-1.72-4.178-3.329-6.394-4.819l-54.575-36.686z" fill="#bbf49b"/><path d="m463.241 415.118-9.879-24.019c-6.191-15.053-17.158-27.653-31.214-35.861l-29.815-17.412-10.831 3.834c21.145 11.919 46.377 25.865 54.288 49.44.001-.001 3.762 10.269 3.762 10.269 1.444 3.511-.117 6.798-2.719 8.432l15.646 13.172c5.489 4.622 13.491-1.22 10.762-7.855z" fill="#9be69d"/></g><g><path d="m327.45 381.787-.031.013c-15.839 6.561-33.534-.475-38.812-15.432l-52.712-149.364c-.308-.872-.662-1.726-1.062-2.559l-66.782-139.216c-6.865-14.312.669-31.818 16.519-38.383 15.845-6.563 33.545.48 38.817 15.446l51.965 147.514c.307.872.661 1.726 1.06 2.56l67.563 141.053c6.856 14.309-.68 31.805-16.525 38.368z" fill="#fc8b96"/><path d="m343.976 343.417-67.563-141.053c-.399-.834-.753-1.688-1.06-2.56l-51.965-147.512c-4.962-14.086-20.932-21.149-36.004-16.46 7.913 2.541 14.452 8.327 17.317 16.46l51.965 147.514c.307.872.661 1.726 1.06 2.56l67.563 141.053c6.855 14.311-.681 31.807-16.526 38.37l-.031.013c-.932.386-1.871.721-2.813 1.014 6.648 2.135 14.266 1.982 21.5-1.014l.031-.013c15.845-6.565 23.381-24.061 16.526-38.372z" fill="#fe646f"/><path d="m83.53 280.778-.013-.031c-6.561-15.839.475-33.534 15.432-38.812l149.364-52.712c.872-.308 1.726-.662 2.559-1.062l139.216-66.782c14.312-6.866 31.818.669 38.383 16.519 6.563 15.845-.48 33.545-15.446 38.817l-147.514 51.965c-.872.307-1.726.661-2.56 1.06l-141.051 67.564c-14.31 6.855-31.806-.681-38.37-16.526z" fill="#fc8b96"/><path d="m428.472 137.899c-6.269-15.134-22.509-22.677-36.422-17.353 7.597 2.793 14.228 8.885 17.735 17.353 6.563 15.845-.48 33.545-15.446 38.817l-147.514 51.965c-.872.307-1.726.661-2.56 1.06l-141.053 67.563c-.643.308-1.293.576-1.948.827 6.619 2.434 13.972 2.365 20.635-.827l141.053-67.563c.834-.399 1.688-.753 2.56-1.06l147.514-51.965c14.966-5.272 22.009-22.972 15.446-38.817z" fill="#fe646f"/><path d="m428.472 280.747-.013.031c-6.561 15.839-24.047 23.376-38.357 16.532l-142.889-68.343c-.834-.399-1.688-.752-2.561-1.059l-145.662-51.218c-14.975-5.265-22.026-22.971-15.46-38.822 6.563-15.845 24.059-23.381 38.37-16.526l141.053 67.563c.834.399 1.688.753 2.56 1.06l147.514 51.965c14.965 5.272 22.008 22.972 15.445 38.817z" fill="#fc8b96"/><path d="m413.026 241.93-147.514-51.965c-.872-.307-1.726-.661-2.56-1.06l-141.052-67.563c-6.663-3.192-14.016-3.26-20.635-.827.654.25 1.305.519 1.948.827l141.053 67.563c.834.399 1.688.753 2.56 1.06l147.514 51.965c14.966 5.272 22.009 22.972 15.446 38.817l-.013.031c-3.507 8.467-10.138 14.559-17.736 17.352 13.915 5.325 30.154-2.22 36.423-17.352l.013-.031c6.562-15.845-.481-33.545-15.447-38.817z" fill="#fe646f"/><path d="m184.571 381.8-.031-.013c-15.839-6.561-23.376-24.047-16.532-38.357l68.343-142.889c.399-.834.752-1.688 1.059-2.561l51.218-145.663c5.265-14.975 22.971-22.026 38.822-15.46 15.845 6.563 23.381 24.059 16.526 38.37l-67.563 141.053c-.399.834-.753 1.688-1.06 2.56l-51.965 147.514c-5.272 14.966-22.972 22.009-38.817 15.446z" fill="#fc8b96"/><path d="m327.45 36.858c-7.234-2.997-14.852-3.149-21.5-1.014.942.293 1.881.628 2.813 1.014 15.845 6.563 23.381 24.059 16.526 38.37l-67.563 141.053c-.399.834-.753 1.688-1.06 2.56l-51.965 147.514c-2.865 8.133-9.404 13.919-17.317 16.46 15.072 4.689 31.042-2.374 36.004-16.46l51.965-147.514c.307-.872.661-1.726 1.06-2.56l67.563-141.053c6.855-14.31-.681-31.806-16.526-38.37z" fill="#fe646f"/></g><path d="m54.186 209.331v-.033c0-17.144 14.347-30.799 31.471-29.952l170.99 8.46c.998.049 1.998.049 2.995-.002l166.676-8.423c17.135-.866 31.502 12.794 31.502 29.951 0 17.151-14.357 30.808-31.486 29.951l-168.833-8.442c-.998-.05-1.997-.05-2.995 0l-168.833 8.442c-17.13.856-31.487-12.801-31.487-29.952z" fill="#fea95c"/><g><path d="m426.318 179.381-11.87.6c13.531 2.84 23.803 14.844 23.803 29.351 0 14.516-10.286 26.527-23.832 29.356l11.915.596c17.129.856 31.486-12.801 31.486-29.951 0-17.159-14.367-30.818-31.502-29.952z" fill="#fe9738"/></g><path d="m398.716 352.023-.024.024c-12.123 12.123-31.924 11.633-43.433-1.074l-114.926-126.89c-.671-.741-1.378-1.447-2.119-2.117l-123.814-111.902c-12.729-11.504-13.229-31.322-1.097-43.454 12.127-12.127 31.937-11.632 43.443 1.085l113.414 125.353c.67.741 1.377 1.448 2.118 2.118l125.352 113.414c12.718 11.507 13.213 31.316 1.086 43.443z" fill="#fea95c"/><path d="m397.63 308.58-125.352-113.414c-.741-.67-1.448-1.377-2.118-2.118l-113.414-125.352c-8.342-9.22-21.046-12.01-32.024-8.23 4.624 1.59 8.93 4.334 12.455 8.23l113.413 125.352c.67.741 1.377 1.448 2.118 2.118l125.353 113.414c12.718 11.507 13.213 31.316 1.085 43.443l-.024.024c-3.335 3.335-7.253 5.71-11.418 7.144 10.47 3.601 22.576 1.267 30.988-7.144l.024-.024c12.127-12.127 11.632-31.936-1.086-43.443z" fill="#fe9738"/><path d="m113.303 352.035-.024-.024c-12.123-12.123-11.633-31.924 1.074-43.433l126.89-114.926c.741-.671 1.447-1.378 2.117-2.119l111.902-123.813c11.504-12.729 31.322-13.229 43.454-1.097 12.127 12.127 11.632 31.937-1.085 43.443l-125.353 113.414c-.741.67-1.448 1.377-2.118 2.118l-113.414 125.352c-11.507 12.718-31.316 13.213-43.443 1.085z" fill="#fea95c"/><path d="m398.715 66.622c-8.412-8.412-20.519-10.745-30.989-7.144 4.165 1.434 8.083 3.809 11.419 7.144 12.127 12.127 11.632 31.937-1.085 43.443l-125.352 113.415c-.741.67-1.448 1.377-2.118 2.118l-113.414 125.352c-3.525 3.896-7.831 6.639-12.455 8.23 10.979 3.78 23.683.99 32.024-8.23l113.415-125.353c.67-.741 1.377-1.448 2.118-2.118l125.352-113.413c12.718-11.507 13.213-31.316 1.085-43.444z" fill="#fe9738"/><path d="m392.333 209.335c0 16.28-13.24 29.28-29.24 29.28-.73 0-1.46-.03-2.19-.08l-59.94-4.44-42.8-3.17c-1.44-.11-2.88-.11-4.32 0l-79.08 5.86-23.66 1.75c-16.97 1.25-31.43-12.18-31.43-29.2v-.06c0-17.01 14.44-30.43 31.4-29.2l23.82 1.74 80.93 5.91c1.44.1 2.88.1 4.32-.01l40.77-3.06 59.96-4.5c16.98-1.28 31.46 12.16 31.46 29.18z" fill="#fe646f"/><path d="m305.553 209.445c0 8.69-1.63 17-4.59 24.65l-42.8-3.17c-1.44-.11-2.88-.11-4.32 0l-79.08 5.86c-3.67-8.37-5.7-17.62-5.7-27.34 0-9.83 2.08-19.18 5.83-27.63l80.93 5.91c1.44.1 2.88.1 4.32-.01l40.77-3.06c2.99 7.68 4.64 16.05 4.64 24.79z" fill="#fd4755"/><g><path d="m360.872 180.152-9.557.718c12.79 3.058 22.449 14.564 22.449 28.47 0 13.919-9.677 25.433-22.487 28.478l9.626.712c16.97 1.256 31.431-12.174 31.431-29.191.001-17.028-14.48-30.463-31.462-29.187z" fill="#fd4755"/></g><path d="m352.413 305.715-.04.04c-12.03 12.03-31.73 11.31-42.85-1.56l-33.38-38.63-35.29-40.84c-.94-1.09-1.96-2.11-3.06-3.05l-57.61-49.57-18.96-16.31c-12.91-11.11-13.65-30.84-1.61-42.89 5.74-5.74 13.22-8.57 20.69-8.57 8.19 0 16.37 3.42 22.18 10.16l23.79 27.6 43.48 50.42c.94 1.1 1.96 2.12 3.05 3.06l31.46 27.12 46.57 40.15c12.89 11.11 13.62 30.83 1.58 42.87z" fill="#fe646f"/><path d="m304.263 222.695c-3.48 17.71-13.81 32.96-28.12 42.87l-35.29-40.84c-.94-1.09-1.96-2.11-3.06-3.05l-57.61-49.57c10.27-15.69 26.83-26.89 46.09-30.01l43.48 50.42c.94 1.1 1.96 2.12 3.05 3.06z" fill="#fd4755"/><path d="m350.832 262.846-78.025-67.271c-1.092-.942-2.114-1.963-3.056-3.056l-67.271-78.026c-8.039-9.324-20.583-12.279-31.463-8.647 4.828 1.607 9.309 4.491 12.892 8.647l67.271 78.026c.942 1.092 1.963 2.114 3.056 3.056l78.025 67.271c12.888 11.112 13.617 30.833 1.584 42.866l-.048.048c-3.327 3.328-7.244 5.675-11.404 7.063 10.143 3.376 21.822 1.089 29.974-7.063l.048-.048c12.034-12.033 11.305-31.754-1.583-42.866z" fill="#fd4755"/><path d="m360.993 133.625c0 8.19-3.42 16.36-10.16 22.17l-46.61 40.19-31.42 27.09c-1.09.94-2.11 1.96-3.05 3.05l-43.65 50.63-23.62 27.4c-11.11 12.88-30.84 13.61-42.87 1.58l-.05-.05c-12.02-12.02-11.3-31.73 1.56-42.84l18.89-16.32 60.59-52.35c1.09-.94 2.11-1.97 3.05-3.06l32.51-37.78 33.37-38.79c11.1-12.91 30.84-13.65 42.88-1.61 5.74 5.74 8.58 13.221 8.58 20.69z" fill="#fe646f"/><path d="m304.223 195.985-31.42 27.09c-1.09.94-2.11 1.96-3.05 3.05l-43.65 50.63c-19.29-3.17-35.86-14.45-46.09-30.23l60.59-52.35c1.09-.94 2.11-1.97 3.05-3.06l32.51-37.78c14.24 9.88 24.54 25.04 28.06 42.65z" fill="#fd4755"/><path d="m352.416 112.934c-8.153-8.153-19.832-10.438-29.974-7.063 4.159 1.388 8.076 3.735 11.403 7.063 12.033 12.033 11.304 31.754-1.584 42.866l-78.025 67.271c-1.092.942-2.114 1.963-3.056 3.056l-67.271 78.025c-3.583 4.156-8.064 7.04-12.892 8.647 10.88 3.632 23.424.677 31.462-8.647l67.271-78.025c.942-1.092 1.963-2.114 3.056-3.056l78.025-67.271c12.889-11.112 13.618-30.834 1.585-42.866z" fill="#fd4755"/><path d="m256.012 411.14h-.033c-17.144 0-30.799-14.347-29.952-31.471l8.46-170.99c.049-.998.049-1.998-.002-2.995l-8.423-166.676c-.866-17.135 12.794-31.502 29.951-31.502 17.151 0 30.808 14.357 29.951 31.486l-8.442 168.833c-.05.998-.05 1.997 0 2.995l8.442 168.833c.855 17.13-12.802 31.487-29.952 31.487z" fill="#fea95c"/><path d="m277.521 210.82c-.05-.998-.05-1.997 0-2.995l8.442-168.833c.856-17.129-12.801-31.486-29.951-31.486-3.267 0-6.406.524-9.344 1.486 12.482 4.088 21.301 16.134 20.608 30l-8.442 168.833c-.05.998-.05 1.997 0 2.995l8.442 168.833c.694 13.872-8.133 25.924-20.624 30.006 2.933.958 6.066 1.48 9.327 1.48h.033c17.151 0 30.808-14.357 29.951-31.486z" fill="#fe9738"/><path d="m256.02 345.655h-.068c-17.005 0-30.43-14.441-29.193-31.4l7.642-104.752c.105-1.439.103-2.883-.005-4.322l-7.565-100.726c-1.275-16.982 12.159-31.463 29.188-31.463 17.017 0 30.447 14.461 29.191 31.431l-7.604 102.74c-.106 1.438-.106 2.883 0 4.321l7.604 102.74c1.257 16.97-12.173 31.431-29.19 31.431z" fill="#fe646f"/><path d="m277.606 211.483c-.107-1.438-.107-2.883 0-4.321l7.604-102.74c1.256-16.97-12.174-31.431-29.191-31.431-3.253 0-6.372.532-9.285 1.505 12.327 4.118 20.922 16.199 19.906 29.926l-7.604 102.74c-.106 1.438-.106 2.883 0 4.321l7.604 102.74c1.017 13.739-7.594 25.831-19.939 29.938 2.903.966 6.011 1.493 9.251 1.493h.068c17.017 0 30.447-14.461 29.191-31.431z" fill="#fd4755"/><circle cx="255.882" cy="209.444" fill="#ffd15b" r="68.245"/><path d="m255.882 141.199c-3.151 0-6.247.232-9.285.646 33.295 4.532 58.96 33.06 58.96 67.599s-25.664 63.067-58.96 67.599c3.038.414 6.134.646 9.285.646 37.69 0 68.245-30.554 68.245-68.245s-30.554-68.245-68.245-68.245z" fill="#ffc344"/></g><g><path d="m470.18 412.262-9.88-24.02c-4.829-11.739-12.453-22.341-22.048-30.661-3.127-2.712-7.865-2.376-10.579.753s-2.377 7.866.753 10.58c7.834 6.793 14.059 15.45 18.001 25.034l8.887 21.606-34.26-28.845c-2.278-1.911-4.646-3.694-7.036-5.298l-23.12-15.545c4.851-1.856 9.309-4.727 13.119-8.537 13-12.531 14.943-35.651 2.411-50.381 11.617-1.526 24.312-11.158 29.033-23.474 4.028-9.836 3.94-20.849-.247-30.239-1.058-2.371-2.349-4.572-3.835-6.593 11.128-1.049 21.26-7.007 27.586-16.414 2.312-3.437 1.399-8.097-2.038-10.409s-8.098-1.399-10.409 2.038c-3.803 5.771-11.951 10.425-19.811 9.938l-33.334-1.669c4.16-6.067 6.46-13.304 6.46-20.79 0-7.479-2.299-14.711-6.458-20.777l33.328-1.683c7.758-.392 15.057 3.17 19.538 9.532 1.461 2.074 3.781 3.182 6.139 3.182 1.492 0 2.999-.444 4.312-1.369 3.386-2.386 4.197-7.064 1.812-10.451-6.424-9.119-16.349-14.779-27.217-15.76 7.322-9.807 9.375-24.117 4.113-36.986-5.117-11.854-15.491-21.154-29.016-23.303 11.669-13.543 11.572-37.001-2.368-50.398-12.51-12.993-35.673-14.94-50.392-2.396-1.873-12.667-10.595-23.725-23.304-29.001-11.723-4.673-25.993-4.026-36.988 4.035-1.775-19.017-17.832-33.955-37.321-33.955-18.09-.335-35.834 14.706-37.331 34.028-9.797-7.321-24.128-9.382-36.981-4.116-11.855 5.117-21.159 15.495-23.307 29.019-6.675-5.517-15.127-8.611-23.891-8.611-10.012 0-19.425 3.898-26.506 10.979-7.333 7.34-11.227 17.092-10.964 27.459.216 8.529 3.227 16.496 8.572 22.929-23.214 2.641-39.072 31.724-28.809 53.706 6.387 15.457 25.742 23.105 41.839 23.085-4.161 6.077-6.462 13.327-6.462 20.852 0 7.488 2.302 14.728 6.46 20.79l-33.331 1.669c-6.224.309-12.126-1.884-16.635-6.175-4.503-4.285-6.983-10.068-6.983-16.324-.018-4.071 1.669-10.401 5.561-14.804 2.73-3.115 2.418-7.854-.696-10.584-3.116-2.73-7.853-2.418-10.584.696-5.211 5.821-9.352 15.569-9.281 24.731 0 10.363 4.135 20.006 11.643 27.15 6.182 5.883 13.942 9.398 22.271 10.173-7.06 9.164-9.273 24.789-4.014 36.956 5.049 11.727 15.48 21.202 28.976 23.332-7.381 8.994-10.662 21.921-7.032 34.537l-12.458 7.275c-15.384 8.99-27.588 23.011-34.362 39.482l-9.881 24.021c-2.562 6.233-.629 13.09 4.812 17.062 4.727 3.37 11.643 4.099 17.715-.612l36.241-30.512c1.866-1.566 3.804-3.026 5.763-4.341l41.757-28.075c3.703-1.437 7.157-3.466 10.255-6.039.829 6.108 4.504 14.384 10.085 20.005l-21.699 24.151c-10.074 11.208-16.844 24.976-19.578 39.815l-3.739 20.305c-1.21 6.548 2.035 12.83 8.075 15.63 3.885 2.241 12.838 1.655 17.172-3.947l30.66-37.594c1.115-1.379 2.346-2.749 3.669-4.081l38.257-38.661c2.703 5.725 5.267 10.154 11.662 15.354v93.782c0 4.142 3.358 7.5 7.5 7.5s7.5-3.358 7.5-7.5v-86.737c4.162.845 9.607 1.342 16.14 0v86.737c0 4.142 3.357 7.5 7.5 7.5s7.5-3.358 7.5-7.5v-93.791c3.684-2.669 9.265-9.28 11.653-15.353l38.276 38.679c1.312 1.321 2.543 2.691 3.679 4.096l30.646 37.578c2.829 3.459 6.861 5.311 11.035 5.311 2.052 0 4.138-.447 6.131-1.372 6.04-2.801 9.285-9.082 8.076-15.625l-3.74-20.311c-2.735-14.84-9.505-28.607-19.576-39.812l-21.702-24.163c4.763-5.126 8.711-11.54 10.068-19.987 3.118 2.588 6.595 4.626 10.324 6.065l41.709 28.045c1.953 1.311 3.891 2.771 5.751 4.331l36.251 30.521c2.71 2.281 5.963 3.43 9.229 3.43 2.946 0 5.903-.935 8.482-2.818 5.444-3.973 7.378-10.83 4.816-17.065zm-76.79-65.52c-8.31 8.283-23.258 9.298-32.568-.802l-22.411-24.744c7.235-1.354 13.987-4.859 19.307-10.178 5.291-5.291 8.783-12.038 10.135-19.272l24.749 22.389c8.635 7.539 10.324 23.322.788 32.607zm-56.18-.084c8.367 17.138-13.508 36.371-31.189 28.188-4.951-2.206-8.626-6.104-10.346-10.977l-3.488-9.885-1.299-25.943c1.557-4.604 2.169-9.428 1.804-14.371l-1.415-19.121 12.572 14.549c3.226 3.732 7.057 6.702 11.389 8.857l17.451 19.267zm-162.887 15.071c-3.625-7.097 1.254-17.699 4.983-24.539l17.411-19.24c4.369-2.168 8.217-5.151 11.447-8.898l12.516-14.521-1.396 19.171c-.364 4.913.244 9.721 1.785 14.305l-1.286 26.006c-4.034 18.357-16.181 26.62-32.336 20.854-5.047-1.976-10.899-7.261-13.124-13.138zm-32.98-9.467c-22.378 7.01-39.702-21.454-21.955-38.128l24.746-22.408c1.352 7.236 4.852 13.989 10.176 19.313 5.288 5.288 12.031 8.781 19.263 10.131l-21.776 24.064zm-.254-122.619c-6.976-2.425-14.067-11.09-13.917-20.368 0-6.204 2.661-12.135 7.292-16.265 3.437-3.024 9.44-5.958 16.062-5.456l32.18 2.347c-1.667 6.238-2.569 12.785-2.569 19.541 0 6.605.852 13.056 2.463 19.235l-32.048 2.377c-3.268.243-6.436-.227-9.463-1.411zm19.306-87.233c-1.054-2.39-1.665-4.919-1.815-7.522-.363-6.209 1.946-12.289 6.336-16.678 8.207-8.182 22.911-8.977 31.886 1.184l21.147 24.531c-11.3 6.568-20.751 15.965-27.379 27.226l-24.449-21.033c-2.495-2.154-4.421-4.746-5.726-7.708zm154.825-22.974c6.406-8.387 23.073-10.52 31.891-1.197 8.194 8.205 8.984 22.921-1.176 31.876l-24.625 21.235c-6.59-11.275-16.002-20.697-27.27-27.298zm55.695 69.597c6.565 2.028 14.25 11.483 13.917 20.303-.255 11.454-9.535 22.608-23.376 21.721l-32.32-2.393c1.614-6.155 2.49-12.595 2.49-19.22 0-6.698-.884-13.191-2.523-19.381l32.333-2.428c3.27-.249 6.453.222 9.479 1.398zm-19.273 87.17c3.219 6.677 2.085 17.791-4.572 24.249-8.142 8.068-22.946 9.036-31.872-1.16l-21.107-24.428c11.355-6.646 20.764-16.153 27.326-27.473l24.519 21.135c2.475 2.133 4.396 4.719 5.706 7.677zm-75.303-181.746c.666 1.966 1.659 5.259 1.395 9.414l-2.398 32.372c-6.211-1.652-12.729-2.544-19.453-2.544-6.613 0-13.029.857-19.148 2.457l-2.422-32.264c-.985-24.698 32.361-32.497 42.026-9.435zm-58.559 180.463-20.978 24.338c-6.91 8.652-22.761 10.509-31.936 1.124-8.056-8.132-9.017-22.928 1.16-31.862l24.325-21.013c6.512 11.226 15.895 20.719 27.429 27.413zm17.844 49.262c-1.157-2.98-1.622-6.134-1.381-9.382l3.029-41.582c.154-3.126-1.208-6.467-5.08-7.83-22.367-9.455-36.866-31.28-37.054-55.945-.557-32.209 27.56-61.105 60.745-60.745 33.495 0 60.745 27.25 60.745 60.745 0 30.71-22.952 56.635-53.388 60.304-4.112.496-7.044 4.231-6.549 8.344.459 3.808 3.695 6.604 7.437 6.604.3 0 .603-.018.907-.055 3.527-.425 6.972-1.092 10.322-1.979l2.377 32.114c1.22 10.987-8.646 23.535-21.78 23.379-8.133-.249-16.69-4.764-20.33-13.972zm185.92-46.306c-8.214 18.212-24.681 16.183-37.678 8.131l-19.236-17.402c-2.178-4.372-5.162-8.217-8.901-11.44l-14.584-12.571 19.248 1.425c3.88.246 8.62-.016 14.348-1.806l25.866 1.295c7.687 2.591 17.133 4.928 20.908 13.838 2.538 5.691 2.548 12.445.029 18.53zm-.003-137.116c7.413 18.8-7.417 29.684-21.056 32.42l-25.732 1.299c-4.643-1.565-9.493-2.177-14.441-1.804l-19.245 1.445 14.664-12.646c3.735-3.221 6.718-7.064 8.9-11.44l19.116-17.294c15.349-9.874 30.37-7.942 37.794 8.02zm-44.602-75.41c6.236-.16 12.071 2.18 16.47 6.579 8.297 7.987 9.093 23.727-.809 32.576l-24.731 22.374c-1.339-7.245-4.824-13.918-10.152-19.246-5.289-5.29-12.03-8.781-19.262-10.131l22.371-24.756c4.17-4.614 9.893-7.24 16.113-7.396zm-70.907-21.527c5.697-2.547 12.459-2.56 18.545-.041 18.139 8.737 16.402 23.814 8.016 37.833l-17.263 19.103c-4.377 2.166-8.237 5.162-11.482 8.936l-12.585 14.628 1.433-19.346c.247-3.882-.016-8.621-1.806-14.349l1.29-25.749c2.609-7.703 4.914-17.226 13.852-21.015zm-66.322-21.821c4.288-4.512 10.078-6.996 16.302-6.996 12.223-.076 23.141 10.789 22.46 23.616l-1.668 33.332c-6.065-4.159-13.298-6.458-20.782-6.458s-14.719 2.299-20.787 6.458l-1.683-33.328c-.314-6.212 1.872-12.116 6.158-16.624zm-65.361 34.917c2.228-5.827 7.001-10.619 13.095-13.145 18.82-7.42 29.679 7.466 32.415 21.091l1.299 25.71c-1.565 4.642-2.177 9.491-1.804 14.442l1.444 19.238-12.635-14.656c-3.241-3.759-7.096-6.746-11.449-8.901l-17.303-19.126c-3.614-7.375-8.633-15.399-5.062-24.653zm-55.743 14.99c4.246-4.246 9.891-6.583 15.897-6.583 6.347 0 12.426 2.697 16.678 7.401 0 0 21.7 23.986 22.375 24.732-7.249 1.338-13.922 4.819-19.247 10.144-5.291 5.291-8.78 12.035-10.13 19.269l-24.746-22.368c-4.618-4.175-7.248-9.899-7.405-16.119-.158-6.222 2.179-12.073 6.578-16.476zm-28.115 87.372c-6.465-12.731 4.368-33.394 20.232-32.976 3.413-.736 14.019 4.644 17.554 6.412l19.123 17.285c2.173 4.374 5.165 8.231 8.932 11.479l14.553 12.519-19.277-1.406c-4.911-.353-9.719.259-14.303 1.797l-25.864-1.283c-7.691-2.593-17.168-4.909-20.95-13.827zm-.029 118.626c-4.323-9.711-.912-24.806 10.986-28.899l9.919-3.5 25.899-1.296c3.742 1.268 7.632 1.906 11.614 1.906.921 0 21.894-1.521 21.894-1.521l-14.564 12.581c-3.732 3.236-6.697 7.067-8.834 11.376l-19.297 17.474-9.414 4.512c-9.88 5.004-23.702-1.263-28.203-12.633zm7.53 103.501c-2.397 1.61-4.766 3.394-7.05 5.31l-34.25 28.836 8.887-21.606c5.531-13.448 15.496-24.897 28.056-32.236l11.98-6.996c3.26 4.07 9.277 8.769 15.497 11.148zm74.37 42.062c-1.671 1.683-3.247 3.436-4.662 5.186l-29.059 35.631 3.287-17.853c2.232-12.116 7.759-23.356 15.983-32.506l22.969-25.565c6.552 2.727 14.774 4.437 23.649 2.6zm83.621-19.835c-11.342.368-23.231-10.286-22.469-23.598l1.649-33.348c6.075 4.164 13.328 6.466 20.86 6.466 7.483 0 14.72-2.302 20.781-6.459l1.669 33.335c.779 11.435-9.184 23.782-22.49 23.604zm114.094 42.799 3.287 17.854-29.04-35.609c-1.437-1.775-3.011-3.528-4.67-5.199l-32.172-32.511c6.533 1.37 15.598.961 23.646-2.612l22.967 25.572c8.222 9.148 13.75 20.388 15.982 32.505z"/><circle cx="256.003" cy="209.323" r="7.697"/></g></g></svg>