<svg id="Capa_1" enable-background="new 0 0 512.028 512.028" height="512" viewBox="0 0 512.028 512.028" width="512" xmlns="http://www.w3.org/2000/svg"><g><g><path d="m114.973 178.334-22.404-9.912c-9.752-4.314-20.777-4.772-30.853-1.281l-20.787 7.202c-7.505 2.6-15.619 2.879-23.285.799l-5.475-1.485c-3.64-.987-6.228 3.494-3.553 6.153l15.952 15.856c6.804 6.764 16.009 10.56 25.603 10.56h5.593c6.223 0 12.341-1.599 17.768-4.643z" fill="#fe646f"/><g><path d="m18.219 175.275c-.191-.049-.385-.081-.575-.133l-5.475-1.485c-2.255-.612-4.102.876-4.549 2.728 3.541.029 7.08-.394 10.599-1.11z" fill="#fe646f"/><path d="m92.569 168.422c-8.485-3.754-17.933-4.585-26.882-2.439 10.926 2.513 21.785 8.311 31.031 12.351-10.526 4.72-37.063 23.58-52.924 27.316 2.091.373 4.222.574 6.375.574h5.593c6.223 0 12.341-1.599 17.768-4.643l41.442-23.248z" fill="#fd4755"/></g><path d="m114.973 178.334-24.378 38.518c-1.944 3.071-3.387 6.431-4.277 9.954l-10.288 40.756c-.811 3.214 2.712 5.775 5.518 4.011l37.591-23.629c4.348-2.733 7.754-6.732 9.759-11.46 2.479-5.843 2.655-12.408.492-18.375z" fill="#fe646f"/><path d="m129.39 218.109-14.417-39.775-11.368 17.962c15.477 41.13 12.063 43.36-26.442 66.78l-1.132 4.485c-.811 3.214 2.712 5.775 5.518 4.01l37.591-23.628c4.348-2.733 7.754-6.732 9.759-11.46 2.479-5.842 2.654-12.407.491-18.374z" fill="#fd4755"/><path d="m107.089 153.802 7.884 24.532 36.833-49.168c7.718-10.302 10.509-23.479 7.632-36.026l-3.997-17.428c-.788-3.436-5.493-3.898-6.935-.682l-7.147 15.943c-2.247 5.012-5.417 9.556-9.345 13.396l-16.728 16.351c-8.78 8.583-11.954 21.392-8.197 33.082z" fill="#fe646f"/><path d="m159.438 93.14-3.997-17.428c-.788-3.436-5.493-3.898-6.935-.682l-7.147 15.943c-.144.322-.303.635-.454.953.174.758.278 1.214.278 1.214 7.18 21.285-15.081 47.566-31.702 68.105l5.492 17.088 36.833-49.168c7.718-10.301 10.509-23.478 7.632-36.025z" fill="#fd4755"/><path d="m250.329 117.64 27.637-12.227c6.389-2.827 13.612-3.127 20.213-.839l29.664 10.278c5.244 1.817 10.914 2.012 16.271.558l9.02-2.447c3.64-.987 6.228 3.494 3.553 6.153l-18.449 18.338c-5.205 5.174-12.246 8.078-19.585 8.078h-11.345c-4.76 0-9.44-1.223-13.592-3.552z" fill="#fe646f"/><g><path d="m353.133 112.962-9.02 2.447c-1.513.411-3.053.675-4.599.823.087.988-.224 2.029-1.083 2.883l-18.449 18.338c-4.397 4.905-10.463 6.959-16.827 7.753 1.37.207 2.757.325 4.152.325h11.345c7.339 0 14.38-2.904 19.585-8.078l18.449-18.338c2.675-2.659.087-7.14-3.553-6.153z" fill="#fd4755"/></g><path d="m250.329 117.64-24.378 38.518c-1.944 3.071-3.387 6.431-4.277 9.954l-10.288 40.756c-.811 3.214 2.712 5.775 5.518 4.011l37.591-23.629c4.348-2.733 7.754-6.732 9.759-11.46 2.479-5.843 2.655-12.408.492-18.375z" fill="#fe646f"/><path d="m264.746 157.414-14.417-39.775-11.607 18.34 7.77 21.435c2.163 5.967 1.987 12.532-.492 18.375-2.006 4.727-5.411 8.727-9.759 11.46l-23.656 14.869-1.199 4.749c-.811 3.214 2.712 5.775 5.518 4.01l37.591-23.629c4.348-2.733 7.754-6.732 9.759-11.46 2.479-5.842 2.655-12.407.492-18.374z" fill="#fd4755"/><path d="m322.863 247.273 22.404-9.912c9.752-4.314 20.777-4.772 30.853-1.281l20.787 7.202c7.505 2.6 15.619 2.879 23.285.799l5.475-1.485c3.64-.987 6.228 3.494 3.553 6.153l-15.952 15.856c-6.804 6.764-16.009 10.56-25.603 10.56h-5.593c-6.223 0-12.341-1.599-17.768-4.643z" fill="#fe646f"/><g><path d="m425.668 242.595-5.475 1.485c-2.698.732-5.451 1.155-8.214 1.304.25 1.122-.014 2.37-1.013 3.363l-15.951 15.856c-5.324 5.503-12.202 8.646-19.515 9.95 2.161.398 4.36.61 6.574.61h5.593c9.594 0 18.798-3.796 25.603-10.56l15.951-15.856c2.675-2.658.087-7.139-3.553-6.152z" fill="#fd4755"/></g><path d="m322.864 247.272-23.448-10.374c-5.421-2.398-11.549-2.653-17.149-.712l-25.168 8.72c-4.449 1.542-9.26 1.707-13.805.474l-7.652-2.076c-3.088-.838-5.284 2.964-3.014 5.22l15.652 15.558c4.416 4.39 10.39 6.853 16.616 6.853h9.625c4.038 0 8.009-1.038 11.531-3.013z" fill="#fe646f"/><g><path d="m240.075 244.506-4.432-1.203c-2.005-.544-3.625.87-3.9 2.545 2.831-.143 5.594-.632 8.332-1.342z" fill="#fe646f"/><path d="m299.416 236.898c-5.421-2.398-11.549-2.653-17.149-.712l-1.714.594c8.743 2.892 17.781 8.29 24.057 10.492-7.168 3.062-32.113 20.12-44.203 23.229 1.469.285 2.972.434 4.49.434h9.625c4.039 0 8.009-1.038 11.531-3.013l36.811-20.65z" fill="#fd4755"/></g><path d="m322.863 247.273 24.378 38.518c1.944 3.071 3.387 6.431 4.277 9.954l10.288 40.756c.811 3.214-2.712 5.775-5.518 4.011l-37.591-23.629c-4.348-2.733-7.754-6.732-9.759-11.46-2.479-5.843-2.655-12.408-.491-18.375z" fill="#fe646f"/><path d="m361.806 336.5-10.288-40.756c-.89-3.524-2.333-6.884-4.277-9.954l-24.378-38.518-6.618 18.258c7.726 11.871 16.387 25.562 17.019 30.215-.001-.001 6.376 25.261 9.089 36.006l13.935 8.759c2.806 1.765 6.33-.796 5.518-4.01z" fill="#fd4755"/><path d="m417.163 145.998 18.211-8.057c7.927-3.507 16.889-3.879 25.079-1.041l16.897 5.854c6.101 2.114 12.696 2.34 18.928.65l4.451-1.207c2.959-.803 5.062 2.84 2.888 5.001l-12.966 12.888c-5.531 5.498-13.013 8.584-20.811 8.584h-4.546c-5.058 0-10.031-1.3-14.443-3.774z" fill="#fe646f"/><g><path d="m500.73 142.196-4.451 1.207c-3.305.897-6.711 1.238-10.093 1.06.203.912-.011 1.926-.823 2.734l-12.966 12.888c-4.32 4.147-8.845 6.635-13.486 7.87 2.089.463 4.226.713 6.383.713h4.546c7.799 0 15.28-3.086 20.812-8.584l12.966-12.888c2.174-2.16.07-5.803-2.888-5z" fill="#fd4755"/></g><path d="m417.163 145.998-22.465-9.939c-5.193-2.298-11.065-2.541-16.43-.682l-24.113 8.354c-4.263 1.477-8.872 1.635-13.226.454l-7.332-1.989c-2.959-.803-5.062 2.84-2.888 5.001l14.996 14.906c4.231 4.206 9.954 6.566 15.92 6.566h9.222c3.869 0 7.674-.994 11.048-2.887z" fill="#fe646f"/><g><path d="m394.698 136.059c-5.193-2.298-11.065-2.541-16.43-.682l-2.024.701c8.257 2.799 16.743 7.843 22.665 9.92-6.797 2.903-30.279 18.944-41.991 22.162 1.537.328 3.112.509 4.708.509h9.222c3.869 0 7.674-.994 11.048-2.887l35.268-19.784z" fill="#fd4755"/></g><path d="m417.163 145.998 19.816 31.31c1.58 2.496 2.753 5.227 3.476 8.092l8.363 33.129c.659 2.613-2.205 4.694-4.486 3.26l-30.556-19.207c-3.534-2.221-6.303-5.472-7.933-9.315-2.015-4.75-2.158-10.086-.4-14.937z" fill="#fe646f"/><path d="m448.819 218.528-8.363-33.129c-.723-2.864-1.896-5.595-3.476-8.092l-19.816-31.31-6.605 18.223c5.626 8.735 11.189 17.832 11.643 21.179 0 0 4.312 17.085 6.744 26.716l15.388 9.672c2.28 1.435 5.144-.647 4.485-3.259z" fill="#fd4755"/><path d="m201.252 447.286-71.408-38.608c-7.026-3.799-14.887-5.788-22.873-5.788h-28.429c-11.182 0-22.014 3.896-30.634 11.019l-29.477 24.356c-5.436 4.492-4.995 12.956.878 16.859l35.085 23.314c6.423 4.268 13.963 6.545 21.675 6.545h33.453c5.57 0 11.076-1.188 16.15-3.485z" fill="#9be69d"/><path d="m129.844 408.678c-7.026-3.798-14.887-5.788-22.873-5.788h-27.413c7.987 0 15.848 1.989 22.873 5.788l71.408 38.608-75.58 34.212c-5.074 2.297-10.58 3.485-16.15 3.485h27.413c5.57 0 11.076-1.188 16.15-3.485l75.58-34.212z" fill="#6fd7a3"/><path d="m201.252 447.286 27.452 23.627c10.547 9.078 24.001 14.07 37.916 14.07h42.021c9.344 0 18.55-2.253 26.838-6.567l18.222-9.486c6.985-3.636 7.198-13.553.375-17.485l-20.522-11.827c-7.004-4.036-14.945-6.163-23.029-6.168l-53.785-.03c-4.254-.002-8.488.583-12.582 1.74z" fill="#9be69d"/><path d="m353.703 468.927-18.22 9.49c-8.29 4.31-17.5 6.57-26.84 6.57h-27.41c9.34 0 18.55-2.26 26.83-6.57l18.23-9.49c6.98-3.63 7.19-13.55.37-17.48l-20.52-12.83c-4.24-2.44-8.83-4.18-13.58-5.18l17.96.01c8.09.01 16.03 2.14 23.03 6.17l20.52 11.83c6.83 3.929 6.61 13.85-.37 17.48z" fill="#6fd7a3"/><path d="m114.973 178.334 26.689-12.227c6.17-2.827 13.145-3.127 19.52-.839l28.647 10.278c5.064 1.817 10.54 2.012 15.713.558l8.71-2.447c3.515-.987 6.014 3.494 3.431 6.153l-17.816 18.338c-5.026 5.174-11.826 8.078-18.913 8.078h-10.956c-4.597 0-9.116-1.223-13.125-3.552z" fill="#fe646f"/><g><path d="m214.252 173.657-8.71 2.447c-1.663.467-3.359.745-5.061.873.07.973-.237 1.994-1.053 2.833l-17.816 18.338c-4.167 4.807-9.863 6.882-15.88 7.71 1.406.235 2.831.368 4.266.368h10.956c7.087 0 13.886-2.904 18.913-8.078l17.816-18.338c2.583-2.659.084-7.141-3.431-6.153z" fill="#fd4755"/></g><path d="m250.327 117.639-19.148-8.842c-8.335-3.849-17.757-4.257-26.369-1.143l-17.766 6.425c-6.414 2.32-13.349 2.568-19.901.713l-4.68-1.325c-3.111-.881-5.322 3.117-3.036 5.489l13.633 14.144c5.815 6.033 13.682 9.42 21.881 9.42h4.78c5.318 0 10.547-1.426 15.186-4.142z" fill="#fe646f"/><g><path d="m231.179 108.797c-8.335-3.849-17.757-4.257-26.369-1.143l-1.313.475c7.583 2.592 14.953 6.586 21.383 9.51-12.366 6.529-26.688 17.696-41.191 22.666 3.555 1.444 7.365 2.214 11.253 2.214h4.78c5.318 0 10.547-1.426 15.185-4.142l35.419-20.738z" fill="#fd4755"/></g></g><g><path d="m510.593 139.835c-2.415-4.181-7.167-6.14-11.828-4.877-5.627 1.823-11.878 2.931-18.959.709l-16.896-5.854c-9.59-3.452-22.357-2.878-32.284 2.028l9.629-25.104c1.483-3.868-.449-8.205-4.316-9.688-3.87-1.483-8.205.448-9.688 4.316l-8.498 22.155-7.396-22.785c-1.278-3.939-5.507-6.097-9.449-4.818-3.939 1.279-6.097 5.51-4.818 9.45l8.758 26.98c-8.398-4.385-18.872-7.663-29.034-4.058-8.072 2.579-19.27 7.123-26.774 9.002l12.936-12.858c3.649-3.627 4.372-9.058 1.799-13.513-2.572-4.455-7.634-6.544-12.603-5.197-6.765 1.733-12.792 4.508-20.872 2.04l-29.664-10.278c-8.424-2.917-17.551-2.54-25.703 1.067l-12.603 5.576 8.936-29.067c1.217-3.959-1.006-8.156-4.965-9.373-3.959-1.218-8.156 1.006-9.373 4.965l-6.651 21.633-11.424-36.624c-1.233-3.955-5.441-6.16-9.393-4.926-3.954 1.233-6.16 5.439-4.926 9.393l13.607 43.62c-13.95-8.354-31.77-6.043-45.922.483-3.896 1.409-5.911 5.708-4.503 9.604 1.409 3.896 5.71 5.91 9.604 4.503 11.341-5.463 24.944-7.425 36.823.086-10.231 5.237-26.295 18.682-39.198 16.594-10.96 1.123-21.698-12.62-28.462-19.554 1.962-7.771 2.105-15.982.266-24.002l-3.997-17.428c-1.075-4.687-5.013-8.152-9.799-8.623-4.782-.467-9.323 2.162-11.29 6.55l-7.147 15.943c-2.627 7.842-18.79 21.521-24.471 27.451-13.487 12.364-14.489 32.917-7.327 49.353-12.703-6.774-28.994-9.91-43.457-4.656l-20.786 7.202c-6.695 2.663-16.69 1.813-24.342-.838-4.968-1.349-10.03.741-12.603 5.197s-1.85 9.886 1.799 13.513l15.952 15.856c8.266 8.216 19.236 12.74 30.89 12.74 8.513.455 18.648-.863 27.03-5.602l15.572-8.735c-4.467 7.416-11.493 16.41-13.726 25.583l-10.288 40.755c-1.124 4.453.55 9.074 4.265 11.774 2.885 1.963 7.695 3.255 12.517.422l27.875-17.522 9.01 60.37c2.279 15.271 7.666 29.602 16.01 42.594l40.771 63.476-45.795-24.759c-5.831-3.153-12.116-5.221-18.681-6.146-4.096-.575-7.895 2.278-8.474 6.38-.578 4.102 2.278 7.896 6.38 8.474 4.793.675 9.382 2.186 13.64 4.488l45.333 24.51h-59.637c-4.142 0-7.5 3.358-7.5 7.5s3.358 7.5 7.5 7.5h54.522l-43.916 19.879c-4.131 1.87-8.524 2.818-13.057 2.818h-33.453c-6.255 0-12.314-1.83-17.524-5.292l-35.085-23.312c-1.097-1.102-2.206-2.148-.251-4.831l29.477-24.356c7.258-5.998 16.441-9.3 25.856-9.3 4.142 0 7.5-3.358 7.5-7.5s-3.358-7.5-7.5-7.5c-12.895 0-25.471 4.523-35.411 12.737l-29.477 24.356c-8.412 6.599-8.995 22.108 1.504 28.887l35.085 23.314c7.678 5.102 16.608 7.798 25.826 7.798h33.453c6.681 0 13.155-1.397 19.243-4.153l71.221-32.238 23.825 20.505c11.903 10.244 27.106 15.886 42.809 15.886h42.021c10.504 0 20.982-2.564 30.301-7.414l18.223-9.486c11.421-5.501 12.739-23.748.657-30.636l-20.522-11.827c-8.13-4.685-17.387-7.165-26.771-7.169l-6.192-.003 42.436-11.993c15.196-4.295 29.158-12.438 40.375-23.547l9.803-9.703c17.611-17.449 27.711-41.672 27.711-66.458v-15.144c0-4.142-3.358-7.5-7.5-7.5s-7.5 3.358-7.5 7.5v15.144c0 20.812-8.481 41.151-23.266 55.8l-9.802 9.701c-9.419 9.329-21.143 16.166-33.902 19.772-3.5.989-124.528 35.193-128.146 36.216l43.467-98.502c3.434-7.785 8.037-14.938 13.687-21.267l30.821-34.589c-6.374 13.554-2.333 33.182 12.182 41.855l37.591 23.628c1.833 1.153 3.895 1.725 5.951 1.725 2.304 0 4.602-.719 6.565-2.146 3.715-2.7 5.39-7.322 4.266-11.776l-10.286-40.754c-1.085-4.3-2.838-8.381-5.211-12.13l-8.515-13.454 15.572 8.735c6.533 3.665 13.946 5.602 21.438 5.602 12.643.961 26.997-3.068 36.483-12.74l15.952-15.856c3.649-3.627 4.373-9.058 1.799-13.514-2.407-4.169-6.996-6.264-11.644-5.413v-16.858l15.678 9.855c1.721 1.082 3.655 1.619 5.585 1.619 2.162 0 4.319-.675 6.162-2.014 3.487-2.534 5.058-6.872 4.003-11.05l-8.363-33.129c-.919-3.641-2.404-7.095-4.411-10.267l-3.953-6.245c7.503 4.514 16.054 9.186 25.929 9.118 10.389.821 22.673-2.657 30.645-10.764l12.966-12.889c3.424-3.403 4.103-8.5 1.688-12.681zm-153.982 10.983 24.113-8.355c4.716-2.516 14.537 1.72 19.696 4.328l-22.193 12.45c-7.007 2.938-20.614 3.747-27.233-2.457l-4.337-4.311c3.351.02 6.721-.535 9.954-1.655zm-75.61-38.547c4.669-2.065 9.898-2.284 14.723-.611l29.665 10.278c5.238 1.814 10.757 2.36 16.187 1.623-6.546 6.236-11.496 13.869-22.922 14.47-6.713-.225-14.374 1.121-21.267-2.593l-30.313-17.005zm-55.181 68.058c1.984-6.815 2.511-13.451 6.467-20.161l16.201-25.597 9.206 25.399c1.522 4.2 1.4 8.777-.345 12.89-1.414 3.333-3.781 6.112-6.846 8.039l-29.51 18.548zm-58.158-42.024c7.282 7.554 16.971 11.715 27.281 11.715 10.728 1.313 23.125-3.916 32.545-10.316l-7.875 12.443c-2.033 3.208-4.508 8.647-5.671 13.951-6.688 1.28-13.566 5.148-21.581 2.388l-28.646-10.278c-8.215-2.947-17.112-2.578-25.068 1.034 4.455-6.115 18.143-23.845 21.395-28.844zm35.211 45.985-8.386 8.631c-3.636 3.743-8.442 5.804-13.534 5.804h-10.956c-3.265 0-6.501-.877-9.358-2.537l-29.379-17.066 13.525-6.196c4.399-2.016 9.323-2.229 13.864-.599l28.646 10.278c5.043 1.808 10.348 2.375 15.578 1.685zm-82.344-58.206c8.534-8.77 22.716-20.021 27.673-32.042l2.479-5.529 1.446 6.305c2.389 10.417.084 21.298-6.324 29.853l-28.131 37.552c-4.734-11.403-7.684-26.287 2.857-36.139zm-50.668 68.957c-4.444 2.845-13.162 4.114-19.691 3.684-7.665 0-14.879-2.976-20.316-8.379l-6.598-6.559c6.768.69 13.61-.1 20.128-2.357l20.787-7.203c10.243-4.246 24.061-.457 34.058 4.9zm23.729 33.601c.696-2.759 1.821-5.376 3.342-7.779l16.201-25.597 9.206 25.399c2.393 6.758.459 15.928-7.191 20.929l-29.51 18.549zm43.671 89.915-10.044-67.301c9.277-7.813 13.969-22.756 9.225-35.703l-7.381-20.362 24.045 13.967c5.143 2.987 10.984 4.566 16.892 4.566h10.956c8.742 0 16.978-3.34 23.344-9.422-.498 1.862-.775 3.875.132 7.266l-16.2 35.095c-8.223 17.812-11.495 37.541-9.463 57.053l11.762 112.997-39.473-61.456c-7.19-11.193-11.831-23.541-13.795-36.7zm108.937 123.821c3.421-.967 6.958-1.458 10.515-1.458h.022l53.786.03c6.761.004 13.431 1.79 19.288 5.166l20.523 11.828c1.066.921 2.169 2.178-.093 4.334l-18.223 9.486c-7.189 3.742-15.272 5.72-23.375 5.72h-42.021c-12.114 0-23.842-4.352-33.024-12.255l-16.872-14.521zm14.31-136.397c-6.693 7.496-12.149 15.974-16.217 25.197l-38.503 87.253-12.103-116.268c-1.752-16.831 1.07-33.848 8.163-49.213l15.864-34.367c1.103-.284 2.178-.725 3.182-1.356l37.591-23.628c5.673-3.566 10.056-8.712 12.672-14.881 3.23-7.612 3.457-16.086.639-23.86l-7.542-20.808 25.793 14.469c9.446 5.465 23.67 5.188 35.267 3.881.037.038.07.078.108.116l14.996 14.906c6.855 7.749 20 9.525 30.429 8.747 5.142 0 10.231-1.33 14.717-3.846l17.672-9.914-4.844 13.365c-4.066 10.766-.181 26.169 11.271 33.073v29.096c-3.481-.019-6.953-.589-10.3-1.749l-20.788-7.202c-12.003-4.349-27.227-3.267-39.254 2.797l6.573-12.7c1.904-3.678.465-8.204-3.213-10.108-3.678-1.903-8.204-.465-10.108 3.213l-8.555 16.528-7.774-21.092c-1.432-3.886-5.744-5.876-9.631-4.443s-5.876 5.745-4.443 9.631l7.53 20.429c-8.642-4.517-19.427-7.853-29.889-4.148l-25.167 8.72c-2.898 1.868-12.953-.296-17.038-1.753-4.717-1.281-9.53.705-11.975 4.938s-1.757 9.394 1.71 12.84l15.652 15.558c5.861 5.825 13.64 9.034 21.903 9.034h9.625c4.539 0 9.034-1.011 13.138-2.924zm45.612-57.915-23.736 13.315c-2.396 1.344-5.115 2.054-7.862 2.054h-9.625c-4.274 0-8.297-1.659-11.329-4.672l-5.106-5.076c3.748.115 7.494-.448 11.094-1.694l25.167-8.72c5.108-2.746 15.869 2.028 21.397 4.793zm16.568 62.467c-5.819-3.577-10.272-12.48-7.191-20.93l9.207-25.398 16.2 25.597c1.521 2.404 2.646 5.021 3.342 7.78l7.953 31.501zm85.294-51.249c-5.948 6.419-16.623 9.134-25.908 8.379-4.927 0-9.802-1.274-14.099-3.684l-28.367-15.913c9.973-5.159 22.244-9.197 34.058-4.9l20.787 7.202c6.517 2.258 13.357 3.049 20.128 2.358zm9.786-63.052c-3.902-2.429-7.61-8.841-5.273-15.347l6.508-17.956 11.639 18.389c1.157 1.828 2.012 3.818 2.542 5.916l5.607 22.211zm67.596-41.466c-4.412 4.759-12.764 7.027-20.071 6.403-3.765 0-7.491-.973-10.773-2.815l-20.612-11.563c6.713-3.602 15.638-5.672 24.092-2.805l16.896 5.854c4.293 1.488 8.758 2.209 13.221 2.19z"/><ellipse cx="392.872" cy="72.69" rx="7.697" ry="7.697" transform="matrix(.987 -.16 .16 .987 -6.571 63.87)"/><path d="m273.947 50.394c4.251 0 7.697-3.446 7.697-7.697s-3.447-7.697-7.697-7.697-7.697 3.446-7.697 7.697 3.446 7.697 7.697 7.697z"/><ellipse cx="443.41" cy="77.69" rx="7.697" ry="7.697" transform="matrix(.383 -.924 .924 .383 201.948 457.617)"/><ellipse cx="221.433" cy="27.242" rx="7.697" ry="7.697" transform="matrix(.383 -.924 .924 .383 111.526 221.394)"/><ellipse cx="298.246" cy="181.985" rx="7.697" ry="7.697" transform="matrix(.987 -.16 .16 .987 -25.3 50.124)"/></g></g></svg>