<svg id="Capa_1" enable-background="new 0 0 512 512" height="512" viewBox="0 0 512 512" width="512" xmlns="http://www.w3.org/2000/svg"><g><g><path d="m284 208.335c-2.206 0-4-1.794-4-4v-58.335h-261.5v293c0 5.523 4.477 10 10 10h434c5.523 0 10-4.477 10-10v-230.665z" fill="#b3dafe"/><path d="m18.5 146h39.5v221h-39.5z" fill="#8ac9fe"/><g><path d="m18.5 367v72c0 5.523 4.477 10 10 10h434c5.523 0 10-4.477 10-10v-72z" fill="#ffbd86"/></g><g><path d="m58 439v-72h-39.5v72c0 5.523 4.477 10 10 10h39.5c-5.523 0-10-4.477-10-10z" fill="#f6a96c"/></g><path d="m279 99h-266.5c-2.761 0-5 2.239-5 5v38c0 2.761 2.239 5 5 5h266.5z" fill="#8ac9fe"/><g><path d="m52 142v-38c0-2.761 2.239-5 5-5h-44.5c-2.761 0-5 2.239-5 5v38c0 2.761 2.239 5 5 5h44.5c-2.761 0-5-2.239-5-5z" fill="#60b7ff"/></g><g><path d="m328.356 262.993c-6.159-11.875-18.555-19.993-32.856-19.993-19.412 0-35.321 14.952-36.866 33.966l-22.459-7.106c-9.51-30.824-38.354-53.167-72.372-52.857-41.312.375-74.303 34.677-74.303 75.99v29.43c0 .682.021 1.767.051 2.441h.989c.274-6.036 1.83-10.841 3.089-13.803 6.212-14.616 20.488-24.061 36.371-24.061 1.446 0 2.917.079 4.37.235 17.74 1.902 32.36 16.138 34.762 33.848.765 5.633.341 11.229-1.258 16.633l-.38 1.284h25.123c7.047 0 12.973 5.095 13.783 11.851.469 3.896-.706 7.656-3.306 10.587-2.572 2.899-6.25 4.562-10.094 4.562v1h173.615c31.889 0 61.134-17.728 75.885-46z" fill="#fff"/><path d="m122.261 286.747c2.702-33.242 26.748-60.839 58.536-67.955-5.466-1.212-11.151-1.842-16.994-1.789-41.312.375-74.303 34.677-74.303 75.99v29.43c0 .681.021 1.357.051 2.031.936-18.801 14.695-34.22 32.71-37.707z" fill="#fff3de"/><g><path d="m295.5 292c-6.617 0-12-5.383-12-12s5.383-12 12-12 12 5.383 12 12c0 3.892-1.738 6.583-3.195 8.154-1.332 1.436-4.248 3.846-8.805 3.846z" fill="#ffbd86"/></g><g><path d="m192.617 338h-23.783c1.57-5.311 2.101-11.068 1.29-17.051-2.478-18.275-17.31-32.742-35.647-34.708-36.089-3.87-63.91 39.711-28.828 76.105 2.849 2.956 6.763 4.655 10.869 4.655h76.482c8.557 0 15.445-7.513 14.394-16.268-.883-7.347-7.379-12.733-14.777-12.733z" fill="#fff3de"/></g></g></g><g><g><path d="m499.5 209.335h-215.5c-2.761 0-5-2.239-5-5v-136.335c0-2.761 2.239-5 5-5h215.5c2.761 0 5 2.239 5 5v136.335c0 2.762-2.239 5-5 5z" fill="#fff3de"/></g><g><path d="m313 204.335v-136.335c0-2.761 2.239-5 5-5h-34c-2.761 0-5 2.239-5 5v136.335c0 2.761 2.239 5 5 5h34c-2.761 0-5-2.239-5-5z" fill="#ffe5c2"/></g></g><g><path d="m499.5 55.5h-215.5c-6.893 0-12.5 5.607-12.5 12.5v23.5h-151.5c-4.143 0-7.5 3.358-7.5 7.5s3.357 7.5 7.5 7.5h151.5v33h-256.5v-33h70c4.143 0 7.5-3.358 7.5-7.5s-3.357-7.5-7.5-7.5h-72.5c-6.893 0-12.5 5.607-12.5 12.5v38c0 6.384 4.813 11.657 11 12.401v284.599c0 9.649 7.851 17.5 17.5 17.5h434c9.649 0 17.5-7.851 17.5-17.5v-222.165h19.5c6.893 0 12.5-5.607 12.5-12.5v-136.335c0-6.893-5.607-12.5-12.5-12.5zm-34.5 383.5c0 1.378-1.121 2.5-2.5 2.5h-434c-1.379 0-2.5-1.122-2.5-2.5v-64.5h13c0 24.262 19.738 44 44 44h141.276c4.143 0 7.5-3.358 7.5-7.5s-3.357-7.5-7.5-7.5h-141.276c-15.99 0-29-13.009-29-29h411zm-406.811-79.5c5.089-8.385 14.306-14 24.811-14h2.693c1.895 4.779 4.504 9.474 7.798 14zm86.892-78.593c-3.182-1.052-6.48-1.767-9.805-2.123-14.267-1.531-28.191 3.417-38.243 12.873.707-36.821 30.406-66.823 66.838-67.154.202-.001.4-.002.603-.002 29.386 0 55.869 19.488 64.534 47.572.726 2.351 2.559 4.197 4.904 4.939l17.158 5.429c1.271 23.407 20.712 42.061 44.43 42.061 7.579 0 15.067-1.942 21.653-5.616 3.618-2.018 4.914-6.586 2.896-10.204-2.019-3.617-6.587-4.914-10.203-2.896-4.358 2.431-9.319 3.716-14.347 3.716-16.267 0-29.5-13.233-29.5-29.5s13.233-29.5 29.5-29.5 29.501 13.231 29.501 29.498c0 4.142 3.357 7.5 7.5 7.5s7.5-3.358 7.5-7.5c0-.915-.037-1.822-.091-2.724l92.111 46.81c-14.331 22.02-38.755 35.413-65.404 35.413h-72.616v-5.494c0-12.41-10.096-22.506-22.506-22.506h-12.994c-4.143 0-7.5 3.358-7.5 7.5s3.357 7.5 7.5 7.5h12.994c4.139 0 7.506 3.367 7.506 7.506v5.494h-65.166c1.036-3.074 1.401-6.372 1.006-9.663-1.323-11.024-10.877-19.337-22.223-19.337h-14.78c.291-3.492.198-7.02-.282-10.559-.472-3.482-1.344-6.935-2.59-10.262-1.452-3.878-5.777-5.845-9.654-4.393-3.879 1.453-5.846 5.775-4.393 9.654.854 2.281 1.451 4.642 1.773 7.016.64 4.717.286 9.399-1.05 13.917-.671 2.268-.231 4.72 1.184 6.615 1.416 1.895 3.644 3.011 6.009 3.011h23.783c3.698 0 6.917 2.69 7.33 6.126.243 2.025-.366 3.978-1.715 5.499-1.34 1.51-3.246 2.375-5.232 2.375h-76.483c-2.03 0-4.023-.86-5.469-2.359-13.621-14.131-17.624-31.002-10.707-45.129 6.185-12.633 19.27-19.819 33.336-18.314 2.269.244 4.521.731 6.695 1.45 3.933 1.303 8.176-.833 9.476-4.766 1.299-3.931-.834-8.173-4.767-9.473zm351.919-79.072h-53c-4.143 0-7.5 3.358-7.5 7.5s3.357 7.5 7.5 7.5h21v142.665h-47.629c9.48-6.164 17.837-14.08 24.608-23.444.789.282 1.635.444 2.522.444 4.143 0 7.5-3.358 7.5-7.5v-18c0-4.142-3.357-7.5-7.5-7.5-3.748 0-6.844 2.751-7.402 6.342l-103.325-52.51c-7.764-13.059-22.01-21.833-38.273-21.833-20.115 0-37.148 13.42-42.636 31.774l-10.796-3.416c-5.489-15.077-15.471-28.504-28.416-38.122-14.515-10.785-31.793-16.394-49.917-16.233-45.07.411-81.736 37.865-81.736 83.492v29.43c0 .414.022.822.031 1.234-.136 2.28-.115 4.571.077 6.865-18.609.373-34.422 12.349-40.473 28.977h-15.635v-205h245.5v49.835c0 6.893 5.607 12.5 12.5 12.5h125c4.143 0 7.5-3.358 7.5-7.5s-3.357-7.5-7.5-7.5h-122.5v-131.335h210.5z"/><circle cx="310.5" cy="89.5" r="7.5"/><circle cx="330.5" cy="89.5" r="7.5"/><circle cx="350.5" cy="89.5" r="7.5"/><path d="m314.081 175.75c0 4.142 3.357 7.5 7.5 7.5h140.338c4.143 0 7.5-3.358 7.5-7.5s-3.357-7.5-7.5-7.5h-5.095v-24.886c0-4.142-3.357-7.5-7.5-7.5s-7.5 3.358-7.5 7.5v24.886h-13.787v-60.87c0-4.142-3.357-7.5-7.5-7.5s-7.5 3.358-7.5 7.5v60.87h-13.787v-44.077c0-4.142-3.357-7.5-7.5-7.5s-7.5 3.358-7.5 7.5v44.077h-13.787v-24.886c0-4.142-3.357-7.5-7.5-7.5s-7.5 3.358-7.5 7.5v24.886h-13.787v-17.689c0-4.142-3.357-7.5-7.5-7.5s-7.5 3.358-7.5 7.5v17.689h-5.095c-4.143 0-7.5 3.358-7.5 7.5z"/><path d="m50 163.5c-4.143 0-7.5 3.358-7.5 7.5v27c0 4.142 3.357 7.5 7.5 7.5s7.5-3.358 7.5-7.5v-27c0-4.142-3.357-7.5-7.5-7.5z"/><path d="m71 163.5c-4.143 0-7.5 3.358-7.5 7.5v27c0 4.142 3.357 7.5 7.5 7.5s7.5-3.358 7.5-7.5v-27c0-4.142-3.357-7.5-7.5-7.5z"/><path d="m92 163.5c-4.143 0-7.5 3.358-7.5 7.5v27c0 4.142 3.357 7.5 7.5 7.5s7.5-3.358 7.5-7.5v-27c0-4.142-3.357-7.5-7.5-7.5z"/><path d="m113 163.5c-4.143 0-7.5 3.358-7.5 7.5v27c0 4.142 3.357 7.5 7.5 7.5s7.5-3.358 7.5-7.5v-27c0-4.142-3.357-7.5-7.5-7.5z"/><path d="m295.5 260.5c-10.752 0-19.5 8.748-19.5 19.5s8.748 19.5 19.5 19.5c7.404 0 12.14-3.913 14.305-6.247 2.37-2.557 5.195-6.931 5.195-13.253 0-10.752-8.748-19.5-19.5-19.5zm3.306 22.554c-.611.66-1.682 1.446-3.306 1.446-2.481 0-4.5-2.019-4.5-4.5s2.019-4.5 4.5-4.5 4.5 2.019 4.5 4.5c0 .437 0 1.766-1.194 3.054z"/><path d="m364.5 328.5c4.143 0 7.5-3.358 7.5-7.5v-9c0-4.142-3.357-7.5-7.5-7.5s-7.5 3.358-7.5 7.5v9c0 4.142 3.357 7.5 7.5 7.5z"/></g></g></svg>