<svg id="Capa_1" enable-background="new 0 0 512 512" height="512" viewBox="0 0 512 512" width="512" xmlns="http://www.w3.org/2000/svg"><g><g><g><path d="m337.71 280.292c-13.416 0-24.292-10.876-24.292-24.292s10.876-24.292 24.292-24.292c.025 0 .049.002.074.002v-34.066c-.167.003-.332.013-.499.013-15.677 0-28.385-12.708-28.385-28.385 0-5.462 1.546-10.561 4.22-14.891l-101.805-58.778c-4.87 8.628-14.117 14.457-24.73 14.457-10.614 0-19.86-5.829-24.73-14.457l-101.804 58.777c2.674 4.33 4.22 9.429 4.22 14.891 0 15.677-12.708 28.385-28.385 28.385-.167 0-.332-.01-.499-.013v117.687c.167-.003.332-.013.499-.013 15.677 0 28.385 12.708 28.385 28.385 0 5.108-1.356 9.896-3.717 14.036l101.375 58.529c4.889-8.557 14.096-14.328 24.656-14.328 10.561 0 19.767 5.772 24.656 14.328l101.375-58.529c-2.361-4.141-3.717-8.929-3.717-14.036 0-15.677 12.708-28.385 28.385-28.385.167 0 .332.01.499.013v-35.04c-.024.001-.048.002-.073.002z" fill="#fff3de"/><g><path d="m161.929 416.269c4.889-8.557 14.096-14.328 24.656-14.328.4 0 .796.014 1.192.03l-96.777-55.875c-3.094-1.786-5-5.088-5-8.66v-163.043c0-3.573 1.906-6.874 5-8.66l96.467-55.695c-.294.009-.586.022-.882.022-10.614 0-19.86-5.829-24.73-14.457l-101.804 58.777c2.674 4.33 4.22 9.429 4.22 14.891 0 15.677-12.708 28.385-28.385 28.385-.167 0-.332-.01-.499-.013v117.687c.167-.003.332-.013.499-.013 15.677 0 28.385 12.708 28.385 28.385 0 5.108-1.356 9.896-3.717 14.036z" fill="#ffe5c2"/></g><g><g><circle cx="35.885" cy="169.271" fill="#1e9efd" r="28.385"/></g><g><path d="m32.53 169.271c0-11.184 6.471-20.854 15.87-25.479-3.776-1.858-8.022-2.906-12.515-2.906-15.677 0-28.385 12.708-28.385 28.385s12.708 28.385 28.385 28.385c4.493 0 8.739-1.048 12.515-2.906-9.4-4.626-15.87-14.295-15.87-25.479z" fill="#0182fc"/></g><g><circle cx="337.285" cy="169.271" fill="#1e9efd" r="28.385"/></g><g><path d="m333.929 169.271c0-11.184 6.471-20.854 15.87-25.479-3.776-1.858-8.022-2.906-12.515-2.906-15.677 0-28.385 12.708-28.385 28.385s12.708 28.385 28.385 28.385c4.493 0 8.739-1.048 12.515-2.906-9.399-4.626-15.87-14.295-15.87-25.479z" fill="#0182fc"/></g></g><g><g><circle cx="35.885" cy="343.703" fill="#1e9efd" r="28.385"/></g><g><path d="m32.53 343.703c0-11.184 6.471-20.854 15.87-25.479-3.776-1.858-8.022-2.906-12.515-2.906-15.677 0-28.385 12.708-28.385 28.385s12.708 28.385 28.385 28.385c4.493 0 8.739-1.048 12.515-2.906-9.4-4.626-15.87-14.295-15.87-25.479z" fill="#0182fc"/></g><g><circle cx="337.285" cy="343.703" fill="#1e9efd" r="28.385"/></g><g><path d="m334 343.703c0-11.17 6.455-20.828 15.835-25.461-3.785-1.869-8.043-2.924-12.55-2.924-15.677 0-28.385 12.708-28.385 28.385s12.708 28.385 28.385 28.385c4.507 0 8.766-1.055 12.55-2.924-9.38-4.633-15.835-14.291-15.835-25.461z" fill="#0182fc"/></g></g><g><g><circle cx="186.585" cy="430.326" fill="#1e9efd" r="28.385"/></g><g><path d="m183.229 430.326c0-11.184 6.471-20.854 15.87-25.479-3.776-1.858-8.022-2.906-12.515-2.906-15.677 0-28.385 12.708-28.385 28.385s12.708 28.385 28.385 28.385c4.493 0 8.739-1.048 12.515-2.906-9.399-4.626-15.87-14.295-15.87-25.479z" fill="#0182fc"/></g><g><circle cx="186.585" cy="81.675" fill="#1e9efd" r="28.385"/></g><g><path d="m183.229 81.675c0-11.184 6.471-20.854 15.87-25.479-3.776-1.858-8.022-2.906-12.515-2.906-15.677 0-28.385 12.708-28.385 28.385s12.708 28.385 28.385 28.385c4.493 0 8.739-1.048 12.515-2.906-9.399-4.626-15.87-14.295-15.87-25.479z" fill="#0182fc"/></g></g></g><g><g><circle cx="337.71" cy="256" fill="#1ee6a6" r="24.292"/></g><g><path d="m335.415 256c0-9.456 5.407-17.644 13.294-21.658-3.303-1.681-7.039-2.635-10.999-2.635-13.416 0-24.292 10.876-24.292 24.292s10.876 24.292 24.292 24.292c3.96 0 7.696-.954 10.999-2.635-7.887-4.012-13.294-12.2-13.294-21.656z" fill="#0ed290"/></g><g><g><circle cx="480.208" cy="181.319" fill="#1ee6a6" r="24.292"/></g><g><path d="m477.912 181.319c0-9.456 5.407-17.644 13.294-21.658-3.303-1.681-7.039-2.635-10.999-2.635-13.416 0-24.292 10.876-24.292 24.292s10.876 24.292 24.292 24.292c3.96 0 7.696-.954 10.999-2.635-7.887-4.012-13.294-12.2-13.294-21.656z" fill="#0ed290"/></g><g><g><circle cx="480.208" cy="330.681" fill="#1ee6a6" r="24.292"/></g><g><path d="m477.912 330.681c0-9.456 5.407-17.644 13.294-21.658-3.303-1.681-7.039-2.635-10.999-2.635-13.416 0-24.292 10.876-24.292 24.292s10.876 24.292 24.292 24.292c3.96 0 7.696-.954 10.999-2.635-7.887-4.012-13.294-12.2-13.294-21.656z" fill="#0ed290"/></g></g></g><g><circle cx="425.264" cy="256" fill="#fbd74c" r="39.475"/></g><g><path d="m417 256c0-16.258 9.831-30.215 23.87-36.265-4.787-2.063-10.062-3.211-15.605-3.211-21.802 0-39.475 17.674-39.475 39.475s17.674 39.475 39.475 39.475c5.544 0 10.818-1.148 15.605-3.211-14.039-6.048-23.87-20.005-23.87-36.263z" fill="#fac600"/></g></g></g><g><path d="m231.916 211.811v-68.548c0-4.142-3.358-7.5-7.5-7.5s-7.5 3.358-7.5 7.5v10.928h-54.377v-10.928c0-4.142-3.358-7.5-7.5-7.5s-7.5 3.358-7.5 7.5v68.548c0 13.728 6.557 26.84 17.539 35.077l12.15 9.112-12.15 9.112c-10.982 8.237-17.539 21.35-17.539 35.077v68.548c0 4.142 3.358 7.5 7.5 7.5s7.5-3.358 7.5-7.5v-10.928h54.377v10.928c0 4.142 3.358 7.5 7.5 7.5s7.5-3.358 7.5-7.5v-68.548c0-13.728-6.557-26.841-17.539-35.077l-12.15-9.112 12.15-9.112c10.982-8.237 17.539-21.35 17.539-35.077zm-15-42.621v16.437h-6.916c-4.142 0-7.5 3.358-7.5 7.5s3.358 7.5 7.5 7.5h6.916v11.184c0 1.774-.172 3.531-.495 5.253h-53.388c-.322-1.722-.495-3.479-.495-5.253v-11.184h12.462c4.142 0 7.5-3.358 7.5-7.5s-3.358-7.5-7.5-7.5h-12.461v-16.437zm0 130.999v11.184h-54.377v-11.184c0-1.774.172-3.531.495-5.253h53.388c.321 1.722.494 3.479.494 5.253zm-54.377 42.62v-16.436h54.377v16.436zm42.838-65.697c1.148.861 2.214 1.812 3.21 2.824h-37.72c.996-1.012 2.062-1.963 3.21-2.824l15.65-11.737zm0-42.224-15.65 11.737-15.65-11.737c-1.149-.861-2.215-1.812-3.21-2.824h37.72c-.996 1.012-2.062 1.962-3.21 2.824z"/><path d="m480.208 298.888c-5.933 0-11.614 1.618-16.548 4.638l-10.077-10.077c5.192-3.925 9.61-8.932 12.858-14.833 1.996-3.629.674-8.19-2.956-10.187-3.628-1.998-8.188-.673-10.187 2.955-5.631 10.233-16.372 16.591-28.033 16.591-17.632 0-31.976-14.344-31.976-31.975s14.344-31.975 31.976-31.975c12.627 0 24.102 7.465 29.231 19.019 1.681 3.787 6.114 5.494 9.898 3.811 3.785-1.681 5.491-6.112 3.811-9.898-3.298-7.427-8.382-13.704-14.613-18.415l10.068-10.068c4.934 3.019 10.616 4.638 16.548 4.638 8.492 0 16.476-3.307 22.479-9.312 6.006-6.004 9.313-13.988 9.313-22.481 0-8.492-3.307-16.476-9.312-22.48-6.005-6.005-13.988-9.312-22.48-9.312-8.493 0-16.477 3.307-22.48 9.312-6.006 6.004-9.313 13.988-9.313 22.48 0 5.932 1.618 11.614 4.638 16.548l-13.421 13.421c-4.572-1.473-9.407-2.263-14.367-2.263-23.349 0-42.767 17.126-46.37 39.475h-10.294c-2.791-11.49-11.837-20.556-23.317-23.374v-20.881c15.948-3.646 27.886-17.938 27.886-34.975 0-19.787-16.098-35.885-35.885-35.885-10.252 0-19.506 4.328-26.052 11.245l-90.412-52.199c1.07-3.398 1.649-7.011 1.649-10.757 0-19.787-16.098-35.885-35.885-35.885s-35.885 16.098-35.885 35.885c0 3.746.579 7.359 1.649 10.757l-90.412 52.199c-6.546-6.917-15.8-11.245-26.052-11.245-19.787 0-35.885 16.098-35.885 35.886 0 17.037 11.938 31.329 27.886 34.975v104.481c-15.948 3.647-27.886 17.939-27.886 34.976 0 19.787 16.098 35.885 35.885 35.885 10.617 0 20.167-4.638 26.743-11.99l89.769 51.828c-1.099 3.439-1.698 7.101-1.698 10.9 0 19.787 16.098 35.885 35.885 35.885s35.885-16.098 35.885-35.885c0-3.799-.598-7.46-1.698-10.9l31.12-17.967c3.587-2.071 4.816-6.658 2.745-10.245-2.071-3.588-6.658-4.817-10.245-2.745l-31.08 17.944c-6.576-7.342-16.119-11.972-26.727-11.972s-20.152 4.63-26.728 11.972l-89.775-51.833c1.094-3.433 1.69-7.086 1.69-10.877 0-17.391-12.438-31.928-28.884-35.195v-104.043c16.446-3.266 28.884-17.803 28.884-35.195 0-4.146-.715-8.126-2.014-11.834l90.003-51.963c6.578 7.407 16.164 12.086 26.826 12.086s20.248-4.679 26.826-12.086l90.003 51.963c-1.299 3.708-2.014 7.688-2.014 11.834 0 17.391 12.438 31.928 28.885 35.195v20.627c-13.959 3.354-24.366 15.935-24.366 30.908s10.407 27.554 24.366 30.908v21.6c-16.447 3.266-28.885 17.803-28.885 35.195 0 3.791.595 7.444 1.69 10.877l-28.275 16.325c-3.587 2.071-4.816 6.658-2.745 10.245 2.07 3.587 6.66 4.816 10.245 2.745l28.227-16.297c6.576 7.352 16.127 11.99 26.743 11.99 19.787 0 35.885-16.098 35.885-35.885 0-17.037-11.938-31.329-27.886-34.975v-21.854c11.48-2.817 20.526-11.883 23.317-23.374h10.294c3.602 22.349 23.02 39.475 46.37 39.475 4.951 0 9.78-.802 14.356-2.274l13.432 13.432c-3.02 4.934-4.638 10.616-4.638 16.548 0 8.492 3.307 16.476 9.312 22.48 6.005 6.005 13.988 9.312 22.481 9.312 8.492 0 16.476-3.307 22.479-9.312 6.006-6.004 9.313-13.988 9.313-22.48 0-8.493-3.307-16.477-9.312-22.481-6.005-6.005-13.989-9.312-22.481-9.312zm-11.874-129.443c3.171-3.172 7.388-4.918 11.874-4.918 4.485 0 8.702 1.747 11.874 4.918s4.918 7.388 4.918 11.874-1.746 8.703-4.918 11.875c-.001 0-.001 0-.001 0-3.171 3.172-7.388 4.918-11.873 4.918-4.486 0-8.703-1.747-11.875-4.918s-4.918-7.389-4.918-11.875 1.746-8.702 4.919-11.874zm-281.749 239.995c11.516 0 20.885 9.369 20.885 20.885s-9.369 20.885-20.885 20.885-20.885-9.369-20.885-20.885 9.369-20.885 20.885-20.885zm-129.814-65.737c0 11.516-9.369 20.885-20.885 20.885s-20.886-9.369-20.886-20.885 9.369-20.885 20.885-20.885 20.886 9.369 20.886 20.885zm-20.886-153.547c-11.516 0-20.885-9.369-20.885-20.885s9.369-20.885 20.885-20.885 20.885 9.369 20.885 20.885-9.369 20.885-20.885 20.885zm150.7-87.596c-11.516 0-20.885-9.369-20.885-20.885s9.369-20.885 20.885-20.885 20.885 9.369 20.885 20.885-9.369 20.885-20.885 20.885zm129.814 66.711c0-11.516 9.369-20.885 20.886-20.885 11.516 0 20.885 9.369 20.885 20.885s-9.369 20.885-20.885 20.885-20.886-9.369-20.886-20.885zm41.771 174.432c0 11.516-9.369 20.885-20.885 20.885-11.517 0-20.886-9.369-20.886-20.885s9.369-20.885 20.886-20.885c11.516-.001 20.885 9.369 20.885 20.885zm-20.46-70.911c-9.259 0-16.792-7.533-16.792-16.792s7.533-16.792 16.792-16.792c9.26 0 16.793 7.533 16.793 16.792s-7.533 16.792-16.793 16.792zm154.371 69.763c-3.171 3.172-7.388 4.918-11.873 4.918-4.486 0-8.703-1.747-11.874-4.918 0 0 0 0-.001 0-3.172-3.172-4.918-7.389-4.918-11.874 0-4.486 1.746-8.703 4.919-11.875 3.171-3.172 7.388-4.918 11.874-4.918 4.485 0 8.702 1.747 11.874 4.918s4.918 7.389 4.918 11.875-1.746 8.702-4.919 11.874z"/><path d="m130 231.5h-60c-4.142 0-7.5 3.358-7.5 7.5s3.358 7.5 7.5 7.5h60c4.142 0 7.5-3.358 7.5-7.5s-3.358-7.5-7.5-7.5z"/><path d="m137.5 265c0-4.142-3.358-7.5-7.5-7.5h-60c-4.142 0-7.5 3.358-7.5 7.5s3.358 7.5 7.5 7.5h60c4.142 0 7.5-3.358 7.5-7.5z"/><path d="m70 283.5c-4.142 0-7.5 3.358-7.5 7.5s3.358 7.5 7.5 7.5h34.054c4.142 0 7.5-3.358 7.5-7.5s-3.358-7.5-7.5-7.5z"/></g></g></svg>