<svg id="Capa_1" enable-background="new 0 0 512.005 512.005" height="512" viewBox="0 0 512.005 512.005" width="512" xmlns="http://www.w3.org/2000/svg"><g><g><g><path d="m165.625 281.594-47.31-25.071 19.559-51.411c1.427-3.75 3.512-7.215 6.158-10.232 10.291-11.731 27.293-14.855 41.082-7.548l.26.138c13.789 7.307 20.75 23.131 16.82 38.233-1.01 3.883-2.707 7.555-5.009 10.841z" fill="#c8effe"/><path d="m185.374 187.469-.26-.138c-8.4-4.452-17.991-5.025-26.533-2.146 1.698.574 3.368 1.285 4.992 2.146l.26.138c13.789 7.307 20.75 23.131 16.82 38.233-1.01 3.883-2.707 7.554-5.009 10.841l-25.729 36.727 15.709 8.325 31.56-45.051c2.302-3.286 3.999-6.958 5.009-10.841 3.931-15.103-3.031-30.927-16.819-38.234z" fill="#99e6fc"/><g fill="#c8effe"><path d="m138.805 332.204-47.31-25.071-31.56 45.051c-2.302 3.286-3.999 6.958-5.009 10.841-3.93 15.102 3.032 30.926 16.82 38.233l.26.138c13.789 7.307 30.791 4.183 41.082-7.548 2.646-3.016 4.732-6.482 6.158-10.232z"/><path d="m138.805 332.204-47.31-25.071-31.56 45.051c-2.302 3.286-3.999 6.958-5.009 10.841-3.93 15.102 3.032 30.926 16.82 38.233l.26.138c13.789 7.307 30.791 4.183 41.082-7.548 2.646-3.016 4.732-6.482 6.158-10.232z"/><path d="m138.805 332.201-2.91 7.66-1.62 4.26-15.03 39.49c-1.43 3.75-3.51 7.22-6.16 10.24-7.81 8.9-19.48 12.84-30.68 11.03-3.56-.57-7.07-1.72-10.4-3.49l-.26-.13c-11.21-5.94-17.91-17.51-17.91-29.75 0-2.82.36-5.67 1.09-8.49 1.01-3.88 2.71-7.55 5.01-10.84l10.27-14.67 10.01-14.28.16-.23 11.12-15.87 29.95 15.87 13.22 7.01z"/></g><path d="m138.805 332.201-2.91 7.66-1.62 4.26c-8.09 4.44-17.38 6.97-27.26 6.97-14.05 0-26.91-5.11-36.81-13.58l10.01-14.28.16-.23 11.12-15.87 29.95 15.87 13.22 7.01z" fill="#99e6fc"/><path d="m135.895 339.861-16.65 43.75c-1.43 3.75-3.51 7.22-6.16 10.24-7.81 8.9-19.48 12.84-30.68 11.03-3.97-4.19-6.89-9.44-8.3-15.37-.92-3.9-1.14-7.94-.65-11.92l6.76-54.36.03-.23h41.2l13.22 7.01z" fill="#99e6fc"/></g><g><path d="m141.329 331.428 25.071-47.31 51.411 19.559c3.75 1.427 7.215 3.512 10.232 6.158 11.731 10.291 14.855 27.293 7.548 41.082l-.138.26c-7.307 13.789-23.131 20.75-38.233 16.82-3.883-1.01-7.555-2.707-10.841-5.009z" fill="#c8effe"/><path d="m228.044 309.836c-3.016-2.646-6.482-4.732-10.232-6.158l-51.411-19.559-3.614 6.82 33.485 12.739c3.75 1.427 7.215 3.512 10.232 6.158 11.731 10.291 14.855 27.293 7.548 41.082l-.138.26c-4.146 7.823-11.034 13.445-18.976 16.131.753.254 1.512.489 2.283.69 15.102 3.93 30.926-3.032 38.233-16.821l.138-.26c7.307-13.789 4.183-30.792-7.548-41.082z" fill="#99e6fc"/><path d="m115.795 257.301-25.08 47.31-40.2-15.3-11.21-4.26c-3.75-1.43-7.21-3.51-10.23-6.16-11.73-10.29-14.85-27.29-7.55-41.08l.14-.26c5.94-11.21 17.51-17.91 29.75-17.91 2.81 0 5.66.36 8.48 1.09 3.89 1.01 7.56 2.7 10.84 5.01l20.26 14.19z" fill="#c8effe"/><g fill="#99e6fc"><path d="m115.795 257.301-25.08 47.31-40.2-15.3c2.07-23.53 18.5-42.93 40.48-49.38z"/><path d="m70.739 225.738c-3.286-2.302-6.958-3.999-10.841-5.009-6.534-1.7-13.201-1.358-19.257.69 3.039 1.026 5.924 2.474 8.558 4.319l45.051 31.56-21.457 40.49 17.926 6.82 25.071-47.31z"/></g></g><g><path d="m354.959 125.826-47.31-25.071 19.559-51.411c1.427-3.75 3.512-7.215 6.158-10.232 10.291-11.731 27.293-14.855 41.082-7.548l.26.138c13.789 7.307 20.75 23.131 16.82 38.233-1.01 3.883-2.707 7.555-5.009 10.841z" fill="#c8effe"/><path d="m374.708 31.701-.26-.138c-8.4-4.452-17.991-5.025-26.533-2.146 1.698.574 3.368 1.285 4.992 2.146l.26.138c13.789 7.307 20.75 23.13 16.82 38.233-1.01 3.883-2.707 7.555-5.009 10.841l-25.729 36.726 15.709 8.325 31.561-45.051c2.302-3.286 3.999-6.958 5.009-10.841 3.93-15.103-3.032-30.926-16.82-38.233z" fill="#99e6fc"/><path d="m328.135 176.431-2.91 7.66-1.63 4.27-15.02 39.49c-1.42 3.75-3.51 7.21-6.15 10.23-7.8 8.89-19.47 12.84-30.66 11.04-3.57-.57-7.09-1.72-10.43-3.49l-.26-.14c-11.21-5.94-17.91-17.52-17.91-29.75 0-2.81.36-5.66 1.09-8.48 1.01-3.89 2.71-7.56 5.01-10.85l10.28-14.67 10.01-14.3.15-.21 11.12-15.87 29.95 15.87 13.22 7.01z" fill="#c8effe"/><g fill="#99e6fc"><path d="m325.225 184.091-1.63 4.27-15.02 39.49c-1.42 3.75-3.51 7.21-6.15 10.23-7.8 8.89-19.47 12.84-30.66 11.04-3.99-4.2-6.91-9.44-8.32-15.38-.93-3.9-1.15-7.94-.65-11.92l6.76-54.38.03-.21h41.19l13.22 7.01z"/><path d="m328.135 176.431-4.54 11.93c-8.08 4.44-17.36 6.96-27.24 6.96-14.05 0-26.91-5.11-36.81-13.58l21.28-30.38z"/></g></g><g><path d="m330.663 175.66 25.071-47.31 51.411 19.559c3.75 1.427 7.215 3.512 10.232 6.158 11.731 10.291 14.855 27.293 7.548 41.082l-.138.26c-7.307 13.789-23.131 20.75-38.233 16.82-3.883-1.01-7.555-2.707-10.841-5.009z" fill="#c8effe"/><path d="m417.378 154.067c-3.016-2.646-6.482-4.732-10.232-6.158l-51.411-19.559-3.614 6.82 33.485 12.739c3.75 1.427 7.215 3.512 10.232 6.158 11.731 10.291 14.855 27.293 7.548 41.082l-.138.26c-4.146 7.823-11.034 13.445-18.976 16.131.753.254 1.512.489 2.283.69 15.102 3.93 30.926-3.032 38.233-16.82l.138-.26c7.307-13.789 4.183-30.792-7.548-41.083z" fill="#99e6fc"/><path d="m305.125 101.531-25.07 47.31-40.2-15.3-11.21-4.26c-3.75-1.43-7.22-3.51-10.24-6.16-11.73-10.29-14.85-27.29-7.54-41.08l.13-.26c5.94-11.21 17.51-17.91 29.75-17.91 2.82 0 5.67.36 8.49 1.09 3.88 1.01 7.55 2.71 10.84 5.01l20.25 14.19z" fill="#c8effe"/><path d="m305.125 101.531-25.07 47.31-40.2-15.3c2.07-23.52 18.5-42.92 40.47-49.38z" fill="#99e6fc"/></g><g><path d="m416.906 352.145-52.523-10.399 3.939-54.865c.287-4.002 1.288-7.921 2.954-11.571 6.48-14.196 21.865-22.08 37.173-19.049l.289.057c15.308 3.031 26.528 16.182 27.11 31.776.15 4.01-.419 8.014-1.678 11.824z" fill="#c8effe"/><path d="m435.848 288.095c-.582-15.594-11.802-28.746-27.11-31.777l-.289-.057c-5.91-1.17-11.83-.707-17.246 1.112 13.224 4.353 22.574 16.523 23.104 30.722.15 4.01-.419 8.014-1.678 11.824l-15.94 48.224 20.218 4.003 17.263-52.227c1.259-3.81 1.828-7.815 1.678-11.824z" fill="#99e6fc"/><path d="m405.782 408.332-52.523-10.399-17.264 52.227c-1.259 3.81-1.828 7.814-1.678 11.824.582 15.594 11.802 28.746 27.11 31.776l.289.057c15.308 3.031 30.693-4.853 37.173-19.049 1.666-3.65 2.667-7.569 2.954-11.571z" fill="#c8effe"/><path d="m353.259 397.933-1.323 4.003 32.305 6.396-3.939 54.865c-.287 4.002-1.288 7.921-2.954 11.571-3.978 8.715-11.314 15.045-19.926 17.937 1.3.428 2.636.783 4.006 1.055l.289.057c15.308 3.031 30.693-4.853 37.173-19.049 1.666-3.65 2.667-7.569 2.954-11.571l3.939-54.865z" fill="#99e6fc"/></g><g><path d="m407.977 406.863 10.399-52.523 54.865 3.939c4.002.287 7.921 1.288 11.571 2.954 14.196 6.48 22.08 21.865 19.049 37.173l-.057.289c-3.031 15.308-16.182 26.528-31.776 27.11-4.01.15-8.014-.419-11.824-1.678z" fill="#c8effe"/><path d="m484.812 361.233c-3.65-1.666-7.569-2.667-11.571-2.954l-54.865-3.939-.302 1.525 33.626 2.414c4.002.287 7.921 1.288 11.571 2.954 14.196 6.48 22.08 21.865 19.049 37.173l-.057.289c-2.388 12.063-11.064 21.583-22.265 25.364l.205.068c3.81 1.259 7.814 1.828 11.824 1.678 15.594-.582 28.746-11.802 31.776-27.11l.057-.289c3.032-15.308-4.852-30.693-19.048-37.173z" fill="#99e6fc"/><path d="m362.185 343.211-10.4 52.53-42.15-3.03-12.71-.91c-4-.29-7.92-1.29-11.57-2.96-14.2-6.48-22.08-21.86-19.05-37.17l.06-.29c1.52-7.66 5.56-14.29 11.18-19.08 5.61-4.79 12.8-7.74 20.59-8.03 4.01-.15 8.02.42 11.83 1.68l17.09 5.65z" fill="#c8effe"/><path d="m362.185 343.211-10.4 52.53-42.15-3.03c-2.96-8.96-3.7-18.78-1.74-28.69 2.61-13.19 9.6-24.41 19.16-32.42z" fill="#99e6fc"/></g><g><path d="m155.331 265.725h-53.542l-6.791-54.585c-.495-3.982-.275-8.02.65-11.924 3.599-15.184 17.16-25.906 32.765-25.906h.294c15.605 0 29.166 10.722 32.765 25.906.926 3.904 1.146 7.943.65 11.924z" fill="#eaf6ff"/><path d="m161.472 199.215c-3.599-15.184-17.16-25.906-32.765-25.906h-.294c-3.691 0-7.266.606-10.623 1.724 10.837 3.605 19.394 12.59 22.142 24.182.926 3.904 1.146 7.943.65 11.925l-6.791 54.585h21.541l6.791-54.585c.495-3.983.275-8.021-.651-11.925z" fill="#c8effe"/><path d="m155.331 323.002h-53.542l-6.791 54.585c-.495 3.982-.275 8.02.65 11.924 3.599 15.184 17.16 25.906 32.765 25.906h.294c15.605 0 29.166-10.722 32.765-25.906.926-3.904 1.146-7.943.65-11.924z" fill="#eaf6ff"/><path d="m162.122 377.588-6.791-54.585h-21.541l6.791 54.585c.495 3.982.275 8.02-.65 11.924-2.748 11.593-11.305 20.577-22.142 24.182 3.358 1.117 6.932 1.724 10.623 1.724h.294c15.605 0 29.166-10.722 32.765-25.906.927-3.904 1.147-7.943.651-11.924z" fill="#c8effe"/></g><g><path d="m157.199 321.135v-53.542l54.585-6.791c3.982-.495 8.02-.275 11.924.65 15.184 3.599 25.906 17.16 25.906 32.765v.294c0 15.605-10.722 29.166-25.906 32.765-3.904.926-7.943 1.146-11.924.65z" fill="#eaf6ff"/><path d="m223.708 261.451c-3.904-.926-7.943-1.146-11.924-.65l-8.196 1.02c14.428 4.086 24.486 17.282 24.486 32.396v.294c0 15.114-10.058 28.31-24.486 32.396l8.196 1.02c3.982.495 8.02.275 11.924-.65 15.184-3.599 25.906-17.16 25.906-32.765v-.294c.001-15.607-10.721-29.167-25.906-32.767z" fill="#c8effe"/><path d="m99.925 267.591v53.54l-39.93 4.97-14.66 1.83c-1.37.17-2.75.25-4.13.25-2.62 0-5.24-.3-7.79-.91-15.19-3.59-25.91-17.16-25.91-32.76v-.29c0-7.8 2.68-15.1 7.26-20.89s11.06-10.08 18.65-11.88c3.9-.93 7.94-1.15 11.92-.65l14.65 1.82z" fill="#eaf6ff"/><path d="m99.925 267.591v53.54l-39.93 4.97c-6.13-9.06-9.71-19.99-9.71-31.74s3.58-22.68 9.7-31.74z" fill="#c8effe"/></g><g><path d="m344.665 109.956h-53.542l-6.791-54.585c-.495-3.982-.275-8.02.65-11.924 3.599-15.184 17.16-25.906 32.765-25.906h.294c15.605 0 29.166 10.722 32.765 25.906.926 3.904 1.146 7.943.65 11.924z" fill="#eaf6ff"/><path d="m350.806 43.446c-3.599-15.184-17.16-25.906-32.765-25.906h-.294c-3.691 0-7.265.607-10.623 1.724 10.837 3.605 19.394 12.59 22.142 24.183.926 3.904 1.146 7.943.65 11.924l-6.791 54.585h21.541l6.792-54.585c.494-3.982.273-8.02-.652-11.925z" fill="#c8effe"/><path d="m344.665 167.234h-53.542l-6.791 54.585c-.495 3.982-.275 8.02.65 11.924 3.599 15.184 17.16 25.906 32.765 25.906h.294c15.605 0 29.166-10.722 32.765-25.906.926-3.904 1.146-7.943.65-11.924z" fill="#eaf6ff"/><path d="m351.456 221.819-6.792-54.585h-21.541l6.791 54.585c.495 3.982.275 8.02-.65 11.924-2.748 11.593-11.305 20.577-22.142 24.183 3.358 1.117 6.932 1.724 10.623 1.724h.294c15.605 0 29.166-10.722 32.765-25.906.927-3.905 1.148-7.943.652-11.925z" fill="#c8effe"/></g><g><path d="m346.533 165.366v-53.542l54.585-6.791c3.982-.495 8.02-.275 11.924.65 15.184 3.599 25.906 17.16 25.906 32.765v.294c0 15.605-10.722 29.166-25.906 32.765-3.904.926-7.943 1.146-11.924.65z" fill="#eaf6ff"/><path d="m413.042 105.683c-3.904-.926-7.943-1.146-11.924-.65l-8.196 1.02c14.428 4.086 24.486 17.282 24.486 32.396v.294c0 15.114-10.058 28.31-24.486 32.396l8.196 1.02c3.982.495 8.02.275 11.924-.65 15.184-3.599 25.906-17.16 25.906-32.765v-.294c0-15.607-10.721-29.168-25.906-32.767z" fill="#c8effe"/><path d="m289.255 111.821v53.55l-39.92 4.97-14.67 1.82c-1.38.17-2.76.25-4.14.25-2.62 0-5.23-.3-7.78-.9-15.18-3.6-25.91-17.16-25.91-32.77v-.29c0-7.81 2.68-15.1 7.26-20.89s11.06-10.08 18.65-11.88c3.9-.92 7.94-1.14 11.92-.65l14.66 1.82z" fill="#eaf6ff"/><path d="m289.255 111.821v53.55l-39.92 4.97c-6.13-9.06-9.71-19.98-9.71-31.75 0-11.76 3.58-22.68 9.7-31.74z" fill="#c8effe"/></g><circle cx="128.56" cy="294.363" fill="#ffd15b" r="56.729"/><path d="m128.56 237.634c-3.684 0-7.282.363-10.77 1.034 26.178 5.033 45.959 28.048 45.959 55.695 0 27.646-19.781 50.662-45.959 55.695 3.488.671 7.086 1.034 10.77 1.034 31.331 0 56.729-25.399 56.729-56.729s-25.398-56.729-56.729-56.729z" fill="#ffc344"/><g><path d="m423.922 369.712-41.54-33.782 29.171-46.634c2.128-3.402 4.847-6.396 8.028-8.841 12.373-9.509 29.659-9.272 41.765.574l.228.186c12.107 9.846 15.863 26.72 9.075 40.772-1.745 3.613-4.122 6.885-7.019 9.662z" fill="#eaf6ff"/><path d="m461.576 281.215-.228-.186c-9.165-7.454-21.297-9.396-32.02-5.777 3.729 1.258 7.285 3.179 10.479 5.777l.228.186c12.107 9.846 15.863 26.72 9.075 40.772-1.745 3.613-4.122 6.885-7.019 9.662l-29.822 28.586 11.654 9.477 39.709-38.064c2.897-2.777 5.274-6.049 7.019-9.662 6.787-14.051 3.032-30.926-9.075-40.771z" fill="#c8effe"/><path d="m387.785 414.151-9.87 15.78-19.3 30.85c-2.13 3.4-4.85 6.4-8.03 8.84-12.37 9.51-29.66 9.27-41.77-.57l-.23-.19c-8.07-6.56-12.43-16.25-12.43-26.14 0-4.95 1.1-9.95 3.36-14.63 1.75-3.61 4.12-6.88 7.02-9.66l10.86-10.41 28.85-27.65z" fill="#eaf6ff"/><g fill="#c8effe"><path d="m387.785 414.151-9.87 15.78c-8.04 2.11-16.68 2.48-25.39.76-14.75-2.92-27.03-11.32-35.13-22.67l28.85-27.65z"/><path d="m346.243 380.367-9.887 9.477 29.886 24.305-29.171 46.634c-2.128 3.402-4.847 6.396-8.028 8.841-3.006 2.311-6.304 4.041-9.746 5.202 10.408 3.51 22.177 1.799 31.286-5.202 3.182-2.445 5.9-5.439 8.028-8.841l29.171-46.634z"/></g></g><g><path d="m390.41 413.879 33.782-41.54 46.634 29.171c3.402 2.128 6.396 4.847 8.841 8.028 9.509 12.373 9.272 29.659-.574 41.765l-.186.228c-9.846 12.107-26.72 15.863-40.772 9.075-3.613-1.745-6.885-4.122-9.662-7.019z" fill="#eaf6ff"/><path d="m479.667 409.539c-2.445-3.182-5.439-5.9-8.841-8.028l-46.634-29.171-7.263 8.931 32.356 20.24c3.402 2.128 6.396 4.847 8.841 8.028 9.509 12.373 9.271 29.658-.574 41.765l-.186.228c-4.127 5.075-9.491 8.676-15.362 10.654 13.173 4.459 27.946.359 36.903-10.654l.186-.228c9.846-12.107 10.084-29.392.574-41.765z" fill="#c8effe"/><path d="m379.755 336.201-33.78 41.54-35.67-22.31-10.97-6.86c-3.4-2.13-6.39-4.85-8.84-8.03-9.51-12.37-9.27-29.66.58-41.77l.18-.22c6.57-8.07 16.25-12.43 26.14-12.43 4.95 0 9.95 1.09 14.63 3.35 3.62 1.75 6.89 4.12 9.67 7.02l20.91 21.82z" fill="#eaf6ff"/><g fill="#c8effe"><path d="m379.755 336.201-33.78 41.54-35.67-22.31c8.08-22.03 29.03-36.76 52.3-37.12z"/><path d="m341.691 296.491c-2.777-2.897-6.049-5.274-9.662-7.019-8.162-3.943-17.274-4.322-25.41-1.58 1.308.443 2.6.967 3.869 1.58 3.613 1.745 6.885 4.123 9.662 7.019l38.064 39.709-26.519 32.608 14.277 8.931 33.782-41.54z"/></g></g><circle cx="317.894" cy="138.595" fill="#ffd15b" r="56.729"/><path d="m317.894 81.866c-3.684 0-7.282.364-10.77 1.034 26.178 5.033 45.959 28.049 45.959 55.695s-19.781 50.662-45.959 55.695c3.488.671 7.086 1.034 10.77 1.034 31.331 0 56.729-25.399 56.729-56.729s-25.399-56.729-56.729-56.729z" fill="#ffc344"/><circle cx="385.083" cy="375.039" fill="#ffd15b" r="56.729"/><path d="m396.101 319.39c-7.431-1.471-14.806-1.406-21.809-.046.09.017.179.028.269.046 30.734 6.085 50.716 35.933 44.631 66.667-4.614 23.304-22.893 40.413-44.858 44.677 30.639 5.916 60.331-14.033 66.398-44.677 6.085-30.734-13.897-60.582-44.631-66.667z" fill="#ffc344"/></g><g><path d="m225.445 254.155c-3.735-.891-7.578-1.255-11.419-1.068-4.137.194-7.334 3.707-7.139 7.844s3.695 7.304 7.845 7.14c13.329-1.011 27.921 11.133 27.383 26.441-.171 14.816-12.713 27.774-29.403 25.978l-24.244-3.019c2.778-7.176 4.318-14.964 4.318-23.109 0-10.032-2.341-19.878-6.794-28.764l17.335-24.75c14.052-19.069 7.176-49.142-14.385-59.975-9.005-4.734-20.03-6.508-31.347-3.226-7.655-7.573-17.907-11.836-28.888-11.836-23.539-.592-44.522 21.602-41.153 46.255l2.219 17.855-14.718-10.312c-18.151-13.807-49.726-7.367-60.156 14.691-5.048 9.532-6.081 20.782-3.047 31.04-6.652 6.326-12.04 18.549-11.845 28.881-.106 24.232 21.024 44.229 46.257 41.152l17.844-2.222-10.318 14.732c-13.799 18.211-7.352 49.746 14.788 60.179 8.98 4.576 19.764 6.198 30.958 3.015 6.409 6.719 18.734 12.123 29.171 11.844 24.097-.062 43.93-21.127 40.862-46.257l-2.223-17.852 14.734 10.319c18.161 13.602 49.056 7.773 59.982-14.398 4.728-9.005 6.497-20.027 3.217-31.343 7.573-7.654 11.837-17.903 11.837-28.879.421-17.755-13.009-36.282-31.671-40.356zm-146.11 40.206c-.392-25.62 21.805-49.633 49.22-49.23 25.441-.506 49.744 22.041 49.23 49.23 0 27.146-22.084 49.23-49.23 49.23-27.14 0-49.22-22.085-49.22-49.23zm102.215-100.432c13.456 6.816 18.786 25.119 9.493 38.309l-14.013 20.008c-3.32-3.816-7.086-7.23-11.199-10.168l3.739-30.02c.664-5.445.272-13.604-2.888-21.005 4.024-.416 9.615.204 14.868 2.876zm-78.607 7.013c2.398-10.6 12.987-20.253 25.472-20.131 14.867.347 28.179 12.104 26.268 29.403l-3.015 24.211c-7.328-2.824-15.16-4.294-23.113-4.294-6.372-.115-15.883 1.478-23.108 4.297l-3.008-24.203c-.383-3.111-.213-6.239.504-9.283zm-74.817 40.43c6.827-13.293 24.856-18.917 38.306-9.488l19.97 13.992c-3.874 3.352-7.295 7.115-10.216 11.209l-29.916-3.725c-6.097-.675-13.755-.184-21.032 2.894-.534-5.082.43-10.242 2.888-14.882zm16.286 79.116c-13.944 2.344-30.229-10.694-29.407-26.267.108-14.58 12.597-27.836 29.403-25.978l24.171 3.01c-2.768 7.234-4.245 15.035-4.245 23.107 0 8.145 1.54 15.933 4.317 23.109zm31.108 74.278c-13.286-6.829-18.846-24.842-9.442-38.282l14.03-20.032c3.315 3.812 7.068 7.228 11.185 10.172l-3.742 30.051c-.655 6.078-.181 13.743 2.897 21.011-5.087.531-10.256-.442-14.928-2.92zm78.657-6.984c-2.811 11.857-13.285 20.14-25.472 20.14-14.687.059-28.143-12.495-26.268-29.403l3.019-24.242c7.173 2.776 14.958 4.315 23.099 4.315 8.145 0 15.933-1.54 23.109-4.318l3.017 24.235c.099 1.138.497 4.654-.504 9.273zm74.812-40.412c-6.822 13.447-25.115 18.77-38.301 9.478l-20.038-14.035c3.809-3.314 7.223-7.065 10.166-11.18l30.047 3.742c5.472.673 13.62.254 21.01-2.894.415 4.03-.201 9.618-2.884 14.889z"/><path d="m288.887 255.32c6.412 6.715 18.729 12.111 29.158 11.831 24.111-.079 43.929-21.116 40.853-46.257l-2.223-17.851 14.744 10.326c15.613 11.661 42.032 9.28 55.249-7.365 2.65-3.184 2.218-7.913-.965-10.562-3.186-2.651-7.914-2.218-10.562.965-8.156 9.748-23.748 12.694-35.122 4.672l-20.032-14.03c3.811-3.315 7.226-7.068 10.17-11.185l30.043 3.741c22 3.693 47.338-16.512 46.247-40.863.596-23.53-21.617-44.528-46.255-41.152l-17.855 2.219 10.311-14.717c14.066-19.058 7.189-49.158-14.39-59.995-9.005-4.728-20.021-6.499-31.336-3.217-7.66-7.574-17.909-11.838-28.876-11.838-23.522-.603-44.539 21.629-41.152 46.255l2.219 17.855-14.739-10.327c-18.214-13.798-49.74-7.352-60.177 14.785-5.104 9.671-6.124 20.689-3.029 30.974-6.647 6.329-12.025 18.541-11.832 28.868-.115 24.188 21.022 44.249 46.256 41.152l17.844-2.221-10.318 14.732c-13.791 18.185-7.341 49.717 14.71 60.147 9.136 4.668 19.76 6.328 31.059 3.058zm-20.223-116.725c0-27.146 22.084-49.229 49.229-49.229s49.229 22.084 49.229 49.229-22.084 49.229-49.229 49.229-49.229-22.083-49.229-49.229zm74.843 93.416c-2.81 11.858-13.28 20.14-25.462 20.14-14.679.06-28.151-12.491-26.268-29.403l3.018-24.236c7.173 2.775 14.957 4.313 23.098 4.313 8.142 0 15.927-1.539 23.101-4.314l3.017 24.219c-.132.905.829 1.282-.504 9.281zm58.525-119.537c13.651-2.2 30.159 10.159 29.413 26.267-.165 14.816-12.733 27.797-29.403 25.978l-24.235-3.018c2.777-7.175 4.316-14.962 4.316-23.105 0-8.146-1.54-15.934-4.318-23.11zm-31.138-74.308c13.443 6.814 18.768 25.127 9.479 38.301l-14.033 20.029c-3.312-3.807-7.062-7.219-11.175-10.16l3.735-30.055c.685-5.51.266-13.587-2.894-20.997 4.031-.417 9.618.201 14.888 2.882zm-78.611 7.015c2.409-10.687 13.187-20.422 25.762-20.141 14.747.532 27.863 12.196 25.968 29.405l-3.012 24.237c-7.176-2.777-14.963-4.317-23.107-4.317-8.143 0-15.929 1.539-23.104 4.316l-3.013-24.245c-.39-3.101-.22-6.211.506-9.255zm-74.793 40.375c6.83-13.287 24.839-18.846 38.282-9.442l20.027 14.031c-3.81 3.315-7.225 7.068-10.168 11.184l-30.048-3.742c-6.077-.658-13.744-.181-21.012 2.896-.532-5.086.441-10.256 2.919-14.927zm16.259 79.161c-13.965 2.355-30.228-10.701-29.414-26.267.105-14.584 12.604-27.829 29.403-25.978l24.241 3.019c-2.776 7.175-4.315 14.96-4.315 23.103 0 8.144 1.539 15.93 4.316 23.105zm30.838 74.147c-13.107-6.957-18.51-24.778-9.179-38.15l14.029-20.03c3.318 3.815 7.074 7.233 11.195 10.179l-3.739 30.024c-.675 6.103-.183 13.753 2.894 21.032-3.636.385-9.875-.234-15.2-3.055z"/><path d="m487.92 354.404c-4.475-2.035-9.229-3.248-14.138-3.604l-17.945-1.289 12.997-12.456c17.707-16.31 16.435-47.103-2.812-61.887-7.667-6.13-18.912-10.143-29.797-8.989-7.487-10.864-20.001-17.986-34.332-18.059-20.894-.097-39.474 16.535-41.05 38.224l-1.289 17.944-12.444-12.988c-2.597-2.708-5.557-5.051-8.799-6.964-3.564-2.104-8.166-.92-10.271 2.647s-.92 8.166 2.647 10.271c2.063 1.218 3.945 2.707 5.593 4.426l16.92 17.657c-12.806 7.261-24.224 20.293-29.18 35.827l-20.704-12.949c-12.421-6.963-16.6-27.028-6.245-38.929 1.974-2.424 4.33-4.453 7.006-6.032 3.567-2.104 4.753-6.703 2.647-10.271-2.104-3.568-6.704-4.751-10.271-2.647-4.211 2.484-7.917 5.674-11.005 9.468-6.504 7.61-10.324 19.612-9.234 30.106-7.84 4.992-15.533 16.059-17.268 26.306-4.912 23.58 12.67 47.288 37.44 49.066l17.939 1.289-12.982 12.447c-16.982 15.044-16.926 47.255 2.741 61.855 7.889 6.296 18.923 10.204 29.857 9.03 7.108 10.429 20.327 18.238 34.407 18.072 20.601.219 39.413-16.466 40.976-38.236l1.289-17.944 12.456 12.998c15.332 16.904 46.742 17.179 61.846-2.762 6.157-7.688 10.18-18.953 9.018-29.866 10.779-7.536 18.025-20.046 18.071-34.303.001-16.077-9.449-30.779-24.084-37.458zm-31.309-67.556c11.855 9.297 13.485 28.269 1.835 39.388l-17.634 16.899c-7.077-12.902-21.24-24.68-35.848-29.162l12.947-20.701c6.954-12.08 26.27-16.829 38.7-6.424zm-78.512-8.425c4.239-9.296 13.58-15.303 23.796-15.303 5.248-.245 14.091 2.729 18.813 7.713-5.291 2.786-11.271 7.829-15.511 14.48l-16.036 25.641c-5.131-.329-10.193-.037-15.105.826l1.75-24.357c.226-3.123.999-6.154 2.293-9zm6.968 47.381c29.21-.803 54.912 28.651 48.308 58.796-5.271 26.628-31.225 44.008-57.853 38.73-26.628-5.271-44.003-31.225-38.73-57.853 4.635-23.414 25.259-39.673 48.275-39.673zm-96.598 56.214c-10.629-4.691-17.297-17.337-14.747-29.178 1.008-5.077 3.525-9.767 7.158-13.411 2.79 5.283 7.83 11.262 14.479 15.5l25.631 16.03c-.334 5.088-.06 10.151.802 15.109l-24.325-1.748c-3.126-.226-6.152-.999-8.998-2.302zm25.135 81.262c-11.583-9.094-13.832-27.929-1.878-39.435l17.629-16.902c7.078 12.903 21.242 24.681 35.851 29.162l-12.947 20.694c-6.873 12.121-26.626 16.735-38.655 6.481zm78.459 8.376c-5.061 11.084-16.938 17.172-28.839 14.818-3.992-.746-9.571-3.156-13.753-7.233 5.235-2.73 11.534-8.09 15.503-14.483l16.033-25.626c3.677.297 9.516.154 15.105-.793l-1.747 24.319c-.227 3.127-1 6.153-2.302 8.998zm81.248-25.129c-9.297 11.882-28.28 13.548-39.421 1.875l-16.891-17.626c12.885-7.106 24.671-21.242 29.149-35.856l20.695 12.947c12.074 6.933 16.808 26.254 6.468 38.66zm23.208-49.625c-.77 4.077-3.173 9.645-7.232 13.763-2.723-5.232-8.09-11.544-14.484-15.512l-25.627-16.033c.334-5.087.06-10.149-.801-15.107l24.329 1.748c14.191.746 27.328 15.691 23.815 31.141z"/><path d="m385.123 364.947c4.251 0 7.697-3.446 7.697-7.697s-3.446-7.697-7.697-7.697-7.697 3.446-7.697 7.697c.001 4.251 3.446 7.697 7.697 7.697z"/><path d="m357.427 382.828c4.251 0 7.697-3.446 7.697-7.697s-3.446-7.697-7.697-7.697-7.697 3.446-7.697 7.697 3.446 7.697 7.697 7.697z"/><path d="m412.739 382.828c4.251 0 7.697-3.446 7.697-7.697s-3.446-7.697-7.697-7.697-7.697 3.446-7.697 7.697 3.446 7.697 7.697 7.697z"/><path d="m385.123 400.525c4.251 0 7.697-3.446 7.697-7.697s-3.446-7.697-7.697-7.697-7.697 3.446-7.697 7.697 3.446 7.697 7.697 7.697z"/><ellipse cx="317.935" cy="120.806" rx="7.697" ry="7.697" transform="matrix(.987 -.16 .16 .987 -15.246 52.488)"/><path d="m290.238 146.384c4.251 0 7.697-3.446 7.697-7.697s-3.446-7.697-7.697-7.697-7.697 3.446-7.697 7.697c.001 4.251 3.447 7.697 7.697 7.697z"/><path d="m345.551 146.384c4.251 0 7.697-3.446 7.697-7.697s-3.446-7.697-7.697-7.697-7.697 3.446-7.697 7.697 3.446 7.697 7.697 7.697z"/><ellipse cx="317.935" cy="156.384" rx="7.697" ry="7.697" transform="matrix(.987 -.16 .16 .987 -20.945 52.947)"/><path d="m128.601 284.268c4.251 0 7.697-3.446 7.697-7.697s-3.446-7.697-7.697-7.697-7.697 3.446-7.697 7.697 3.446 7.697 7.697 7.697z"/><path d="m100.904 286.756c-4.251 0-7.697 3.446-7.697 7.697s3.446 7.697 7.697 7.697 7.697-3.446 7.697-7.697-3.446-7.697-7.697-7.697z"/><path d="m156.216 302.149c4.251 0 7.697-3.446 7.697-7.697s-3.446-7.697-7.697-7.697-7.697 3.446-7.697 7.697 3.447 7.697 7.697 7.697z"/><path d="m136.297 312.149c0-4.251-3.446-7.697-7.697-7.697s-7.697 3.446-7.697 7.697 3.446 7.697 7.697 7.697 7.697-3.446 7.697-7.697z"/></g></g></svg>