<svg id="Capa_1" enable-background="new 0 0 512 512" height="512" viewBox="0 0 512 512" width="512" xmlns="http://www.w3.org/2000/svg"><g><g><g fill="#fe653b"><path d="m163.852 119.14c8.305 6.864 16.849 13.935 25.136 21.512 35.885-29.758 74.559-64.219 76.531-128.001.087-2.811-2.19-5.133-5.002-5.133h-22.707c-2.707 0-4.898 2.156-4.997 4.861-1.856 51.121-33.058 76.959-69.039 106.696.027.023.052.044.078.065z"/><g><path d="m138.525 371.353c1.505-1.248 3.006-2.489 4.498-3.722 7.162-5.919 14.128-11.686 20.717-17.526-27.584-24.434-48.478-50.177-48.478-94.09 0-43.931 20.908-69.678 48.507-94.121-6.598-5.848-13.573-11.622-20.746-17.55-1.483-1.225-2.974-2.458-4.469-3.698-29.656 27.109-55.989 60.785-55.989 115.369 0 54.565 26.316 88.234 55.96 115.338z"/><path d="m188.959 371.348c-8.278 7.568-16.811 14.63-25.106 21.486-.036.03-.072.059-.108.089 35.993 29.747 67.213 55.583 69.069 106.715.098 2.705 2.29 4.861 4.997 4.861h22.707c2.812 0 5.089-2.322 5.002-5.133-1.974-63.795-40.668-98.255-76.561-128.018z"/></g></g><g fill="#6e61b6"><path d="m190.488 322.134c-12.561 16.631-29.408 30.573-47.465 45.497-37.072 30.639-78.968 65.265-81.023 131.718-.087 2.811 2.19 5.133 5.002 5.133h22.707c2.707 0 4.898-2.156 4.997-4.861 1.858-51.172 33.12-77.01 69.147-106.786 17.725-14.649 36.551-30.212 51.6-49.727-9.416-5.617-17.846-12.713-24.965-20.974z"/><path d="m143.023 144.345c18.062 14.927 34.914 28.872 47.475 45.509 7.12-8.26 15.552-15.355 24.969-20.97-15.051-19.523-33.884-35.09-51.615-49.743-36.026-29.774-67.289-55.61-69.147-106.779-.097-2.706-2.289-4.862-4.996-4.862h-22.707c-2.812 0-5.089 2.322-5.002 5.133 2.056 66.45 43.951 101.074 81.023 131.712z"/></g><g><g><path d="m377.718 344.707-29.461-29.461c-6.087 8.295-13.415 15.623-21.71 21.709l29.461 29.461z" fill="#b3dafe"/></g><g><path d="m443.656 432.355c-8.48 8.48-22.229 8.48-30.709 0l-58.61-58.61c-1.953-1.953-1.953-5.118 0-7.071l23.638-23.638c1.953-1.953 5.118-1.953 7.071 0l58.61 58.61c8.48 8.479 8.48 22.229 0 30.709z" fill="#1e9efd"/></g><g><path d="m438.081 432.355-58.61-58.61c-1.953-1.953-1.953-5.119 0-7.071l14.607-14.607-9.032-9.032c-1.953-1.953-5.118-1.953-7.071 0l-23.638 23.638c-1.953 1.953-1.953 5.119 0 7.071l58.61 58.61c7.607 7.607 19.442 8.368 27.922 2.328-.974-.693-1.914-1.454-2.788-2.327z" fill="#0182fc"/></g><g><path d="m331.837 244c-1.072 0-2.062-.572-2.598-1.5l-21.362-37c-.536-.928-.536-2.072 0-3l17.198-29.788c-16.391-11.391-36.3-18.074-57.773-18.074-55.981 0-101.362 45.381-101.362 101.362s45.381 101.362 101.362 101.362 101.361-45.381 101.361-101.362c0-4.061-.246-8.064-.71-12z" fill="#1e9efd"/><path d="m212.204 305.506c-11.813-13.134-19.016-30.493-19.016-49.506s7.203-36.372 19.016-49.506c14.762-26.309 40.902-45.374 71.77-50.483-5.425-.898-10.992-1.373-16.672-1.373-55.981 0-101.362 45.381-101.362 101.362s45.381 101.362 101.362 101.362c5.679 0 11.247-.475 16.672-1.373-30.868-5.109-57.009-24.174-71.77-50.483z" fill="#0182fc"/><path d="m331.837 244c-1.072 0-2.062-.572-2.598-1.5l-21.362-37c-.536-.928-.536-2.072 0-3l3.492-6.048c-12.326-9.146-27.574-14.566-44.067-14.566-40.866 0-74.114 33.248-74.114 74.114s33.248 74.114 74.114 74.114 74.114-33.248 74.114-74.114c0-4.086-.347-8.092-.986-12z" fill="#b3dafe"/></g></g><g><path d="m235.99 188.847c13.715 17.801 22.521 38.64 22.521 67.137 0 28.509-8.813 49.354-22.536 67.161 9.523 4.461 20.135 6.968 31.327 6.968 1.169 0 2.329-.035 3.485-.088 12.299-19.871 20.421-43.731 20.421-74.041 0-30.294-8.115-54.145-20.404-74.01-1.161-.054-2.328-.089-3.502-.089-11.186.001-21.794 2.506-31.312 6.962z" fill="#6e61b6"/></g></g><g><path d="m325.59 385.905h-30.077c-1.072 0-2.062.572-2.598 1.5l-15.038 26.047c-.536.928-.536 2.072 0 3l15.038 26.047c.536.928 1.526 1.5 2.598 1.5h30.077c1.072 0 2.062-.572 2.598-1.5l15.038-26.047c.536-.928.536-2.072 0-3l-15.038-26.047c-.535-.928-1.526-1.5-2.598-1.5z" fill="#6e61b6"/></g><g><path d="m318.294 442.5-15.038-26.047c-.536-.928-.536-2.072 0-3l15.038-26.047c.536-.928 1.526-1.5 2.598-1.5h-25.378c-1.072 0-2.062.572-2.598 1.5l-15.038 26.047c-.536.928-.536 2.072 0 3l15.038 26.047c.536.928 1.526 1.5 2.598 1.5h25.378c-1.072 0-2.063-.572-2.598-1.5z" fill="#54469c"/></g><g><path d="m331.508 65h-30.077c-1.072 0-2.062.572-2.598 1.5l-15.038 26.047c-.536.928-.536 2.072 0 3l15.038 26.047c.536.928 1.526 1.5 2.598 1.5h30.077c1.072 0 2.062-.572 2.598-1.5l15.038-26.047c.536-.928.536-2.072 0-3l-15.037-26.047c-.536-.928-1.527-1.5-2.599-1.5z" fill="#6e61b6"/></g><g><path d="m374.561 164h-42.724c-1.072 0-2.062.572-2.598 1.5l-21.362 37c-.536.928-.536 2.072 0 3l21.362 37c.536.928 1.526 1.5 2.598 1.5h42.724c1.072 0 2.062-.572 2.598-1.5l21.362-37c.536-.928.536-2.072 0-3l-21.362-37c-.536-.928-1.526-1.5-2.598-1.5z" fill="#fe653b"/></g><g><path d="m354.323 242.5-21.362-37c-.536-.928-.536-2.072 0-3l21.362-37c.536-.928 1.526-1.5 2.598-1.5h-25.084c-1.072 0-2.062.572-2.598 1.5l-21.362 37c-.536.928-.536 2.072 0 3l21.362 37c.536.928 1.526 1.5 2.598 1.5h25.084c-1.072 0-2.062-.572-2.598-1.5z" fill="#ef4424"/></g><g><path d="m334.683 383.654c-1.87-3.238-5.354-5.249-9.093-5.249h-30.077c-3.74 0-7.225 2.012-9.093 5.25l-15.038 26.046c-1.871 3.239-1.871 7.263 0 10.501l15.038 26.046c1.869 3.239 5.354 5.251 9.094 5.251h30.077c3.739 0 7.223-2.011 9.093-5.25l15.04-26.049c1.868-3.237 1.868-7.26-.001-10.499zm-11.691 52.846h-24.88l-12.44-21.547 12.44-21.547h24.88l12.44 21.547z"/><path d="m292.338 125.343c1.869 3.239 5.354 5.251 9.094 5.251h30.077c3.739 0 7.223-2.011 9.093-5.25l15.04-26.049c1.868-3.237 1.868-7.26-.001-10.499l-15.039-26.048c-1.87-3.238-5.354-5.249-9.093-5.249h-30.077c-3.74 0-7.225 2.012-9.093 5.25l-15.039 26.047c-1.871 3.239-1.871 7.263 0 10.501zm11.692-52.843h24.88l12.44 21.547-12.44 21.547h-24.88l-12.44-21.547z"/><path d="m448.96 396.342-13.273-13.273c-2.928-2.929-7.677-2.929-10.606 0s-2.929 7.677 0 10.606l13.273 13.273c5.542 5.542 5.542 14.56 0 20.103-2.685 2.685-6.255 4.164-10.052 4.164s-7.366-1.479-10.051-4.164l-56.842-56.842 20.103-20.103 18.82 18.82c2.929 2.929 7.678 2.929 10.606 0 2.929-2.929 2.929-7.678 0-10.606l-20.588-20.588c-2.361-2.361-5.5-3.661-8.839-3.661-1.152 0-2.277.165-3.357.465l-19.458-19.458c11.044-17.027 17.468-37.315 17.468-59.078 0-1.547-.044-3.083-.11-4.614 3.155-.457 5.984-2.334 7.601-5.136l21.363-37.001c1.868-3.237 1.868-7.26-.001-10.499l-21.361-36.999c-1.869-3.239-5.354-5.251-9.094-5.251h-42.724c-3.739 0-7.223 2.011-9.093 5.25l-.262.453c-16.191-9.563-35.053-15.065-55.181-15.065-17.987 0-34.966 4.389-49.93 12.146-5.396-6.52-11.139-12.57-17.074-18.306 35.098-29.566 70.764-64.902 72.719-128.095.105-3.397-1.143-6.615-3.514-9.06-2.344-2.418-5.619-3.805-8.985-3.805h-22.707c-6.759 0-12.246 5.311-12.492 12.089-.269 7.409-1.192 14.229-2.678 20.589h-39.634c-4.142 0-7.5 3.358-7.5 7.5s3.358 7.5 7.5 7.5h34.758c-2.977 7.043-6.734 13.519-11.162 19.624h-85.671c-4.431-6.105-8.19-12.58-11.169-19.624h38.244c4.142 0 7.5-3.358 7.5-7.5s-3.358-7.5-7.5-7.5h-43.123c-1.489-6.365-2.414-13.191-2.683-20.608-.246-6.777-5.733-12.088-12.492-12.088h-22.706c-3.366 0-6.641 1.387-8.985 3.805-2.371 2.445-3.619 5.663-3.514 9.06 1.955 63.199 37.632 98.539 72.736 128.106-24.05 23.19-45.076 51.596-50.715 93.017-.559 4.104 2.315 7.884 6.42 8.443 4.106.559 7.884-2.316 8.443-6.42 5.146-37.8 24.441-63.529 47.445-85.4 4.7 3.885 9.273 7.671 13.674 11.422-25.265 23.662-44.745 50.721-44.745 93.981 0 43.241 19.466 70.295 44.716 93.949-4.386 3.737-8.941 7.51-13.624 11.38-23.928-22.915-44.607-50.929-48.211-92-.362-4.126-3.984-7.175-8.127-6.816-4.126.362-7.178 4-6.815 8.127 3.988 45.459 26.025 75.811 51.508 100.373-35.093 29.564-70.752 64.903-72.706 128.088-.105 3.397 1.143 6.615 3.514 9.06 2.344 2.418 5.619 3.805 8.985 3.805h22.707c6.759 0 12.246-5.311 12.492-12.089.269-7.409 1.192-14.229 2.678-20.589h117.757c1.489 6.365 2.414 13.191 2.683 20.608.246 6.779 5.733 12.089 12.492 12.089h22.707c3.366 0 6.641-1.387 8.985-3.805 2.371-2.445 3.619-5.663 3.514-9.06-1.955-63.206-37.64-98.543-72.747-128.112 5.94-5.739 11.687-11.791 17.087-18.315 14.968 7.762 31.953 12.154 49.945 12.154 21.763 0 42.051-6.423 59.078-17.468l19.462 19.462c-1.163 4.202-.105 8.896 3.192 12.192l58.61 58.609c5.518 5.518 12.854 8.557 20.658 8.557s15.14-3.039 20.658-8.557c11.39-11.389 11.39-29.923 0-41.314zm-114.525-224.842h37.527l18.764 32.5-18.764 32.5h-37.527l-18.763-32.5zm-49.777 20.194c5.937 1.604 11.535 4.03 16.694 7.117-1.836 3.228-1.829 7.221.03 10.439l21.362 37.001c1.87 3.238 5.354 5.249 9.093 5.249h1.908c.102 1.489.171 2.986.171 4.5 0 30.733-20.925 56.658-49.273 64.311 9.44-19.637 14.065-40.819 14.065-64.326 0-23.493-4.62-44.664-14.05-64.291zm-44.456-176.675h17.718c-1.299 27.007-9.756 50.735-25.813 72.465-12.299 16.643-27.546 30.344-42.935 43.25-4.514-3.986-9.081-7.854-13.646-11.657 32.68-27.222 62.004-54.624 64.676-104.058zm-46.316 67.302c-8.824 9.148-19.05 17.847-30.112 27.02-11.064-9.173-21.292-17.872-30.119-27.02zm-46.086 56.242c-18.47-15.265-37.569-31.049-52.388-51.102-16.057-21.729-24.514-45.456-25.813-72.461h17.718c2.864 52.982 36.342 80.653 71.757 109.922 15.674 12.953 31.776 26.286 45.343 42.263-4.805 3.412-9.318 7.207-13.503 11.333-12.383-14.539-27.561-27.102-43.114-39.955zm15.977 33.417c6.281 5.788 12.066 11.639 17.181 17.802-1.673 2.176-3.265 4.416-4.773 6.717h-34.809c6.271-8.701 13.88-16.667 22.401-24.519zm-31.409 39.52h35.589c-2.818 6.265-5.059 12.843-6.657 19.667h-35.865c1.631-7.084 3.982-13.584 6.933-19.667zm-9.606 44.516c0-3.402.144-6.675.4-9.849h35.727c-.292 3.24-.449 6.519-.449 9.833s.157 6.593.449 9.833h-35.729c-.255-3.164-.398-6.426-.398-9.817zm2.666 24.817h35.872c1.598 6.823 3.84 13.401 6.657 19.667h-35.603c-2.948-6.083-5.297-12.582-6.926-19.667zm15.928 34.667h34.829c1.505 2.296 3.093 4.532 4.762 6.704-5.12 6.168-10.911 12.023-17.198 17.816-8.518-7.851-16.125-15.817-22.393-24.52zm-31.602 148.803c2.977-7.043 6.734-13.518 11.162-19.624h85.671c4.431 6.105 8.19 12.58 11.169 19.624zm23.879-34.624c8.824-9.148 19.05-17.847 30.112-27.02 11.064 9.173 21.292 17.872 30.119 27.02zm98.475-5.14c16.057 21.729 24.514 45.456 25.813 72.461h-17.718c-2.673-49.446-32.013-76.848-64.705-104.076 4.565-3.803 9.133-7.671 13.647-11.657 15.398 12.912 30.656 26.618 42.963 43.272zm-73.034-37.485c-35.415 29.269-68.894 56.942-71.757 109.927h-17.718c1.298-27.007 9.755-50.735 25.813-72.464 14.819-20.054 33.918-35.839 52.389-51.105 15.548-12.849 30.721-25.408 43.102-39.942 4.185 4.127 8.697 7.923 13.501 11.335-13.565 15.97-29.66 29.299-45.33 42.249zm108.227-37.192c-51.755 0-93.862-42.106-93.862-93.862s42.106-93.862 93.862-93.862c17.398 0 33.7 4.767 47.683 13.051l-6.134 10.624c-12.18-7.243-26.38-11.427-41.55-11.427-45.002 0-81.614 36.612-81.614 81.614s36.612 81.614 81.614 81.614 81.614-36.612 81.614-81.614c0-1.511-.056-3.009-.139-4.5h12.268c.071 1.492.119 2.99.119 4.5.001 51.755-42.105 93.862-93.861 93.862zm-65.236-80.362c-.902-4.361-1.377-8.875-1.377-13.5s.475-9.139 1.377-13.5h48.178c.503 4.354.768 8.836.768 13.484 0 4.659-.266 9.152-.771 13.516zm45.277 15c-2.834 10.26-7.332 19.815-13.633 28.988-11.517-6.756-20.832-16.871-26.598-28.988zm-40.231-57c5.768-12.121 15.088-22.24 26.611-28.996 6.3 9.175 10.796 18.732 13.628 28.996zm58.899 28.484c0-24.153-5.859-44.62-18.33-63.644.003-.001.006-.004.009-.005 5.962-1.84 12.28-2.853 18.82-2.93 11.566 20.024 17.198 41.849 17.198 66.579 0 24.744-5.636 46.577-17.214 66.609-6.539-.078-12.857-1.092-18.818-2.933-.003-.001-.007-.004-.01-.005 12.481-19.031 18.345-39.508 18.345-63.671zm72.482 82.309c3.961-3.431 7.672-7.142 11.103-11.103l16.81 16.81-11.103 11.103z"/></g></g></svg>