<svg id="Capa_1" enable-background="new 0 0 511.995 511.995" height="512" viewBox="0 0 511.995 511.995" width="512" xmlns="http://www.w3.org/2000/svg"><g><g><g><g><path d="m232.837 221.727-17.45 42.12-76.77-28.02-34.41-12.56-25.24-9.22c-12.94-4.72-24.73-12.14-34.58-21.77l-14.43-14.11c-10.16-9.91-3.02-27.14 11.17-26.98l20.18.24c13.78.15 27.36 3.25 39.85 9.05l25.14 11.7 17.08 7.95z" fill="#c8effe"/></g><path d="m143.377 180.127c.13.38.27.75.43 1.13l6.64 15.51c5.65 14.17 16.58 25.66 28 35.47-14.57-1.64-27.21-.17-39.83 3.59l76.77 28.02 17.45-42.12z" fill="#99e6fc"/><g><path d="m433.023 297.944-26.041-9.504-110.377-40.294-17.446 42.119 107.311 49.919 24.364 11.33c12.489 5.809 26.071 8.903 39.851 9.054l20.179.237c14.19.167 21.329-17.065 11.176-26.981l-14.436-14.102c-9.851-9.639-21.642-17.055-34.581-21.778z" fill="#c8effe"/></g><path d="m482.041 333.822-14.436-14.102c-9.851-9.638-21.642-17.053-34.581-21.777l-26.041-9.504-110.377-40.294-2.652 6.401c35.398 12.923 105.46 38.5 118.882 43.397 19.259 6.216 35.113 21.738 49.017 35.879 9.465 9.244 3.899 24.841-8.396 26.777l17.407.204c14.191.168 21.329-17.065 11.177-26.981z" fill="#99e6fc"/></g><g><g><path d="m351.513 101.16-11.693 25.134-49.556 106.54-42.119-17.446 40.582-111.178 9.216-25.239c4.724-12.939 12.14-24.73 21.777-34.581l14.102-14.436c9.916-10.153 27.149-3.014 26.981 11.176l-.237 20.179c-.15 13.781-3.244 27.362-9.053 39.851z" fill="#c8effe"/></g><path d="m335.386 28.555c3.619 2.793 6.084 7.17 6.02 12.575.167 19.831-.067 42.017-9.29 60.031-6.711 14.42-44.932 96.594-58.116 124.937l16.264 6.737 49.556-106.54 11.693-25.134c5.809-12.489 8.903-26.071 9.054-39.851l.237-20.179c.158-13.473-15.361-20.577-25.418-12.576z" fill="#99e6fc"/><g><path d="m214.051 433.023 9.504-26.041 40.294-110.377-42.119-17.446-49.919 107.311-11.33 24.364c-5.809 12.489-8.903 26.071-9.054 39.851l-.237 20.179c-.167 14.19 17.065 21.329 26.981 11.176l14.102-14.436c9.638-9.851 17.054-21.642 21.778-34.581z" fill="#c8effe"/></g><path d="m221.73 279.16-3.261 7.011 25.193 10.435c-6.843 18.745-43.806 119.993-49.798 136.417-6.215 19.259-21.738 35.113-35.879 49.017-.379.388-.772.742-1.171 1.081 5.871 4.838 15.079 5.348 21.358-1.081l14.102-14.436c9.638-9.851 17.053-21.642 21.777-34.581l9.504-26.041 40.294-110.377z" fill="#99e6fc"/></g><g><g><path d="m232.837 290.267-89.46 41.62-17.85 8.3-24.37 11.33c-12.49 5.8-26.07 8.9-39.85 9.05l-20.18.24c-14.19.16-21.33-17.07-11.17-26.98l14.43-14.11c9.85-9.63 21.64-17.05 34.58-21.77l26.04-9.51 33.31-12.16 77.07-28.13z" fill="#c8effe"/></g><path d="m143.807 330.737c-.16.38-.31.77-.43 1.15l89.46-41.62-17.45-42.12-77.07 28.13c12.78 4.3 26.79 4.49 40.13 3.48-17.8 14.27-26.72 29.95-34.64 50.98z" fill="#99e6fc"/><g><path d="m410.834 160.481-25.134 11.694-106.54 49.556 17.446 42.119 111.178-40.582 25.239-9.216c12.939-4.724 24.73-12.14 34.581-21.777l14.436-14.102c10.153-9.916 3.014-27.149-11.176-26.981l-20.179.237c-13.78.15-27.361 3.243-39.851 9.052z" fill="#c8effe"/></g><path d="m470.865 151.191-17.407.204c12.295 1.936 17.861 17.533 8.396 26.777 0 0-14.436 14.102-14.437 14.101-14.965 16.081-39.656 23.788-59.82 30.994l-93.643 34.181 2.651 6.401 111.178-40.582 25.239-9.216c12.939-4.724 24.73-12.14 34.581-21.777l14.436-14.102c10.154-9.915 3.016-27.148-11.174-26.981z" fill="#99e6fc"/></g><g><g><path d="m214.051 78.971 9.504 26.041 40.294 110.377-42.119 17.446-49.919-107.311-11.33-24.364c-5.809-12.489-8.903-26.071-9.054-39.851l-.237-20.179c-.167-14.19 17.065-21.329 26.981-11.176l14.102 14.436c9.638 9.851 17.054 21.642 21.778 34.581z" fill="#c8effe"/></g><path d="m223.555 105.012-9.504-26.041c-4.724-12.939-12.14-24.73-21.777-34.581l-14.102-14.436c-6.279-6.429-15.487-5.918-21.358-1.081.399.338.792.693 1.171 1.081 14.141 13.904 29.663 29.758 35.879 49.017 5.992 16.424 42.955 117.672 49.798 136.417l-25.193 10.435 3.261 7.011 42.119-17.446z" fill="#99e6fc"/><g><path d="m351.513 410.834-11.693-25.134-49.556-106.54-42.119 17.446 40.582 111.178 9.216 25.239c4.724 12.939 12.14 24.73 21.777 34.581l14.102 14.436c9.916 10.153 27.149 3.014 26.981-11.176l-.237-20.179c-.15-13.78-3.244-27.361-9.053-39.851z" fill="#c8effe"/></g><path d="m360.567 450.686c-.151-13.781-3.245-27.362-9.054-39.851l-11.693-25.135-49.556-106.54-16.926 7.011c13.303 28.601 51.3 110.291 57.988 124.663 9.223 18.013 9.458 40.2 9.29 60.031.061 5.205-2.223 9.455-5.623 12.257 10.04 8.507 25.971 1.391 25.81-12.257z" fill="#99e6fc"/></g><g><g><path d="m284.989 76.394-1.185 27.695-5.013 117.395h-45.589l-5.053-118.245-1.144-26.845c-.587-13.762 1.752-27.493 6.886-40.283l7.504-18.734c5.276-13.174 23.929-13.174 29.204 0l7.504 18.734c5.134 12.79 7.473 26.522 6.886 40.283z" fill="#eaf6ff"/></g><path d="m278.103 36.112-7.504-18.734c-4.23-10.564-17.057-12.648-24.696-6.271 1.888 1.576 3.463 3.66 4.509 6.271 7.744 18.257 16.017 38.845 14.39 59.016-.749 17.467-5.346 125.153-6.197 145.09h20.187l5.013-117.395 1.185-27.695c.586-13.761-1.753-27.493-6.887-40.282z" fill="#c8effe"/><g><path d="m284.989 435.6-1.185-27.695-5.013-117.395h-45.589l-5.053 118.245-1.144 26.845c-.587 13.762 1.752 27.493 6.886 40.283l7.504 18.734c5.276 13.174 23.929 13.174 29.204 0l7.504-18.734c5.134-12.79 7.473-26.521 6.886-40.283z" fill="#eaf6ff"/></g><path d="m284.989 435.6-1.185-27.695-5.013-117.395h-20.187c.852 19.937 5.448 127.623 6.197 145.09 1.628 20.172-6.646 40.759-14.39 59.016-1.045 2.61-2.621 4.695-4.509 6.271 7.639 6.378 20.465 4.293 24.696-6.271l7.504-18.734c5.135-12.789 7.474-26.52 6.887-40.282z" fill="#c8effe"/></g><g><g><path d="m435.6 284.989-27.695-1.185-117.395-5.013v-45.589l118.245-5.053 26.845-1.144c13.762-.587 27.493 1.752 40.283 6.886l18.734 7.504c13.174 5.276 13.174 23.929 0 29.204l-18.734 7.504c-12.79 5.134-26.521 7.473-40.283 6.886z" fill="#eaf6ff"/></g><path d="m494.617 241.395-18.734-7.504c-12.79-5.134-26.521-7.473-40.282-6.886l-9.101.388c10.28.647 20.31 2.438 29.196 6.499 0-.001 18.734 7.503 18.734 7.503 13.174 5.276 13.174 23.929 0 29.204-14.168 6.009-29.739 12.334-45.43 14.107l6.601.282c13.762.587 27.493-1.752 40.282-6.886l18.734-7.504c13.174-5.274 13.174-23.927 0-29.203z" fill="#c8effe"/><g><path d="m221.487 233.207v45.58l-44.16 1.89-73.24 3.13-27.69 1.18c-13.76.59-27.5-1.75-40.29-6.88l-18.73-7.51c-13.17-5.27-13.17-23.93 0-29.2l18.73-7.51c12.79-5.13 26.53-7.47 40.29-6.88l26.84 1.14 74.16 3.17z" fill="#eaf6ff"/></g><path d="m177.397 231.317c.35.31.7.62 1.05.92-22.43-2.53-40.3 2.33-60.54 11.55-11.02 4.41-11.02 20.01 0 24.42l15.66 6.27c14.01 6.03 29.87 6.42 44.88 5.28-.38.3-.75.61-1.12.92l44.16-1.89v-45.58z" fill="#c8effe"/></g><g><g><path d="m247.707 215.477-32.23 32.23-71.21-65.37-15.98-14.67-19.79-18.17c-10.15-9.31-18.2-20.68-23.61-33.35l-7.94-18.55c-5.59-13.05 7.6-26.24 20.65-20.65l18.55 7.94c8.45 3.61 16.32 8.39 23.38 14.19 3.54 2.89 6.86 6.03 9.97 9.42l18.75 20.42 43.7 47.61 29.09 31.68z" fill="#eaf6ff"/></g><path d="m241.037 208.207-29.09-31.68c-.64 7.37-.45 14.83.1 22.1-14.27-17.8-29.95-26.72-50.98-34.63-10.9-4.67-21.93 6.35-17.26 17.26l.46 1.08 71.21 65.37 32.23-32.23z" fill="#c8effe"/><g><path d="m243.657 215.387-42.11 17.45-49.92-107.31c-3.92-8.29-8.36-17.22-12.1-26.45 3.54 2.89 6.86 6.03 9.97 9.42l18.75 20.42 72.79 79.29c1.1 3.01 1.99 5.45 2.62 7.18z" fill="#c8effe"/></g><g><path d="m403.496 362.496-20.421-18.746-86.555-79.466-32.236 32.236 80.039 87.185 18.173 19.791c9.316 10.146 20.679 18.202 33.353 23.615l18.553 7.941c13.046 5.585 26.236-7.604 20.651-20.651l-7.941-18.553c-5.414-12.673-13.47-24.037-23.616-33.352z" fill="#eaf6ff"/></g><path d="m435.052 414.401-7.941-18.553c-5.413-12.674-13.469-24.037-23.615-33.353l-20.422-18.746-86.555-79.466-9.662 9.662c26.472 24.304 85.5 78.499 96.452 88.55 15.414 13.112 24.121 33.52 31.556 51.906 3.127 7.305.366 14.653-4.958 18.727l4.495 1.924c13.045 5.585 26.235-7.604 20.65-20.651z" fill="#c8effe"/></g><g><g><path d="m403.496 149.499-20.421 18.746-86.555 79.466-32.236-32.236 80.039-87.185 18.173-19.791c9.316-10.146 20.679-18.202 33.353-23.615l18.553-7.941c13.046-5.585 26.236 7.604 20.651 20.651l-7.941 18.553c-5.414 12.673-13.47 24.036-23.616 33.352z" fill="#eaf6ff"/></g><path d="m414.401 76.943-4.495 1.924c5.325 4.074 8.086 11.422 4.958 18.727-7.434 18.385-16.141 38.793-31.556 51.906-10.952 10.051-69.98 64.246-96.452 88.55l9.662 9.662 86.555-79.466 20.422-18.746c10.146-9.316 18.202-20.679 23.615-33.353l7.941-18.553c5.586-13.047-7.604-26.236-20.65-20.651z" fill="#c8effe"/><g><path d="m247.707 296.517-6.67 7.27-29.06 31.65-43.73 47.64-18.75 20.42c-3.11 3.39-6.43 6.53-9.97 9.42-7.06 5.8-14.93 10.58-23.38 14.19l-18.55 7.94c-13.05 5.59-26.24-7.6-20.65-20.65l7.94-18.55c5.41-12.67 13.46-24.04 23.61-33.35l19.79-18.17 15.91-14.6 71.28-65.44z" fill="#eaf6ff"/></g><path d="m215.477 264.287-71.28 65.44c-.13.33-.26.67-.39 1.01-4.67 10.91 6.36 21.93 17.26 17.26l15.52-6.63c14.16-5.65 25.66-16.59 35.46-28-.88 7.81-.86 15.07-.07 22.07l29.06-31.65 6.67-7.27z" fill="#c8effe"/><g><path d="m243.657 296.607c-.63 1.73-1.52 4.17-2.62 7.18l-72.79 79.29-18.75 20.42c-3.11 3.39-6.43 6.53-9.97 9.42 3.74-9.23 8.18-18.16 12.1-26.45l49.92-107.31z" fill="#c8effe"/></g></g><path d="m373.907 243.787-15.67-6.27c-10.69-4.3-22.17-6.25-33.68-5.76l-11.19.48 8.25-7.58c8.48-7.79 15.22-17.29 19.75-27.89l6.63-15.51c4.67-10.91-6.35-21.93-17.26-17.26l-15.51 6.63c-10.6 4.53-20.1 11.27-27.89 19.75l-6.49 7.07-1.09 1.18.48-11.19c.49-11.51-1.46-22.99-5.76-33.68l-6.27-15.67c-3.68-9.19-15.17-10.71-21.42-4.55-1.24 1.22-2.27 2.73-3 4.55l-6.27 15.67c-4.3 10.69-6.25 22.17-5.76 33.68l.48 11.19-7.58-8.25c-7.79-8.48-17.29-15.22-27.89-19.75l-15.51-6.63c-10.91-4.67-21.93 6.35-17.26 17.26l6.63 15.51c4.53 10.6 11.27 20.1 19.75 27.89l8.25 7.58-11.19-.48c-11.51-.49-22.99 1.46-33.68 5.76l-15.67 6.27c-11.01 4.41-11.01 20.01 0 24.42l15.67 6.27c10.69 4.3 22.17 6.25 33.68 5.76l11.19-.48-8.25 7.58c-8.48 7.79-15.22 17.29-19.75 27.89l-6.63 15.51c-4.67 10.91 6.35 21.93 17.26 17.26l15.51-6.63c10.6-4.53 20.1-11.27 27.89-19.75l7.58-8.25-.48 11.19c-.49 11.51 1.46 22.99 5.76 33.68l6.27 15.67c.54 1.36 1.27 2.55 2.13 3.57-.01.01-.01.01-.01.01.11.14.23.28.36.42.12.13.25.27.38.41.04.04.09.08.13.13 6.25 6.17 17.75 4.66 21.43-4.54l6.27-15.67c4.3-10.69 6.25-22.17 5.76-33.68l-.48-11.2 1.78 1.94 5.8 6.32c7.79 8.48 17.29 15.22 27.89 19.75l15.51 6.63c10.91 4.67 21.93-6.35 17.26-17.26l-6.63-15.51c-4.53-10.6-11.27-20.1-19.75-27.89l-8.25-7.58 11.19.48c11.51.49 22.99-1.46 33.68-5.76l15.67-6.27c11.01-4.41 11.01-20.01 0-24.42z" fill="#8ac9fe"/><g fill="#60b7ff"><path d="m280.237 187.437-.48 11.19c-5.78 3.34-12.052 4.169-19.09 5.87 2.46-21.8-3.59-50.38-13.88-70.96 6.25-6.16 17.74-4.64 21.42 4.55l6.27 15.67c4.3 10.69 6.25 22.17 5.76 33.68z"/><path d="m280.847 197.447c-.31.53-.66.93-1.09 1.18z"/><path d="m327.814 181.258c-7.918 21.031-16.835 36.712-34.638 50.977 7.211-.812 13.947-.852 20.445-.237l7.997-7.341c8.483-7.789 15.218-17.29 19.744-27.886l6.639-15.512c4.67-10.908-6.358-21.935-17.266-17.266l-5.967 2.554c3.711 3.525 5.435 9.131 3.046 14.711z"/><path d="m373.903 243.789-15.663-6.274c-10.693-4.293-22.174-6.248-33.68-5.757l-9.445.403c13.136 1.455 25.359 5.6 38.601 11.628 11.015 4.411 11.015 20.007 0 24.418 0 0-15.663 6.274-15.663 6.273-7.179 3.084-14.835 4.686-22.612 5.368l9.119.39c11.506.491 22.987-1.465 33.68-5.757l15.663-6.274c11.014-4.412 11.014-20.007 0-24.418z"/><path d="m341.363 315.224c-4.526-10.597-11.261-20.098-19.744-27.886l-8.001-7.347c-6.82.473-13.712.276-20.44-.233 11.412 9.807 22.352 21.299 27.999 35.466l6.639 15.512c2.389 5.581.664 11.187-3.046 14.712l5.967 2.554c10.908 4.67 21.935-6.358 17.266-17.266z"/><path d="m280.237 324.557c.49 11.51-1.46 22.99-5.76 33.68l-6.27 15.67c-3.68 9.2-15.18 10.71-21.43 4.54-.04-.05-.09-.09-.13-.13-.13-.14-.26-.28-.38-.41-.13-.14-.25-.28-.36-.42.85-1.02 1.56-2.22 2.11-3.58l6.28-15.67c6.02-14.01 7.26-40.44 6.12-55.45 4.08 5.09 13.49 8.73 19.34 10.57z"/><path d="m281.537 315.297-1.78-1.94c.79.25 1.35.96 1.78 1.94z"/></g><path d="m250.39 233.031c-1.365-2.153-4.702-.939-4.363 1.588.647 4.826-3.95 8.683-8.59 7.208-2.43-.772-4.205 2.303-2.321 4.021 3.598 3.281 2.556 9.191-1.947 11.043-2.358.97-1.741 4.467.806 4.572 4.865.201 7.866 5.398 5.607 9.711-1.183 2.259 1.538 4.541 3.557 2.984 3.856-2.973 9.495-.921 10.537 3.835.546 2.49 4.097 2.49 4.643 0 1.043-4.756 6.681-6.809 10.537-3.835 2.019 1.557 4.739-.726 3.557-2.984-2.259-4.314.742-9.511 5.607-9.711 2.547-.105 3.164-3.602.806-4.572-4.503-1.853-5.545-7.762-1.947-11.043 1.884-1.718.108-4.793-2.321-4.021-4.64 1.475-9.237-2.382-8.59-7.208.339-2.527-2.998-3.741-4.363-1.588-2.607 4.113-8.608 4.113-11.215 0z" fill="#978ecb"/></g><g><path d="m497.409 234.437c-17.569-7.438-37.659-15.567-57.547-15.013 17.972-6.623 34.314-22.546 47.413-35.888 6.552-6.392 8.732-15.712 5.69-24.324-3.058-8.658-10.574-14.566-19.616-15.419-4.128-.389-7.782 2.639-8.171 6.763s2.639 7.782 6.763 8.171c4.747.447 6.467 4.308 6.881 5.48.522 1.48 1.372 5.281-2.027 8.598-13.868 14.342-30.01 29.707-50.052 35.553l8.686-13.023c2.299-3.445 1.368-8.103-2.078-10.4-3.446-2.301-8.104-1.368-10.4 2.078l-20.046 30.055-11.865 4.335-58.147 2.486c3.402-3.703 11.389-13.778 16.363-26.491l64.742-30.117c7.785-3.615 16.023-6.094 24.486-7.366 4.096-.616 6.917-4.436 6.302-8.532-.616-4.096-4.434-6.915-8.532-6.302-8.372 1.259-16.551 3.54-24.384 6.772 14.073-12.995 23.062-33.971 30.074-51.302 3.761-8.78 1.827-18.817-4.926-25.57-6.753-6.754-16.789-8.689-25.57-4.927-17.677 7.174-37.7 15.652-51.293 30.064 7.998-17.357 8.317-40.258 8.154-58.905.108-9.553-5.526-18.085-14.355-21.735-8.823-3.647-18.827-1.589-25.485 5.237-13.606 13.386-28.844 28.891-35.895 47.42.76-19.06-7.709-40.39-15.01-57.543-3.55-8.864-12.014-14.592-21.566-14.592-.001 0 0 0 0 0-9.552 0-18.017 5.728-21.562 14.586-7.437 17.568-15.565 37.662-15.012 57.547-6.623-17.971-22.546-34.315-35.888-47.413-6.665-6.833-16.671-8.893-25.493-5.243-8.829 3.651-14.463 12.183-14.355 21.739-.131 19.083.033 40.707 8.154 58.901-12.99-14.065-33.965-23.056-51.291-30.064-8.781-3.762-18.818-1.827-25.571 4.926-6.753 6.754-8.687 16.791-4.927 25.569 7.175 17.678 15.653 37.7 30.065 51.295-17.353-7.998-40.259-8.319-58.905-8.154-9.568-.138-18.084 5.527-21.735 14.354-3.648 8.821-1.59 18.828 5.237 25.486 13.387 13.605 28.889 28.843 47.418 35.895-19.065-.759-40.388 7.708-57.541 15.011-8.864 3.546-14.592 12.01-14.592 21.562s5.728 18.017 14.586 21.561c17.562 7.433 37.65 15.567 57.526 15.021-17.962 6.624-34.3 22.543-47.392 35.879-6.833 6.665-8.892 16.672-5.244 25.493 3.616 8.745 12.022 14.356 21.47 14.356 19.168.125 40.895.006 59.17-8.156-9.425 9.425-16.862 20.418-22.125 32.744l-7.939 18.549c-7.938 18.473 10.81 38.744 30.497 30.497 3.808-1.631 5.572-6.04 3.941-9.848-1.63-3.809-6.041-5.57-9.847-3.941-7.973 2.109-12.592-2.819-10.802-10.804l7.942-18.557c5.046-12.202 14.241-24.442 24.696-33.443l-3.041 15.357c-.714 3.359 2.111 8.966 7.365 8.958 3.507 0 6.642-2.473 7.349-6.044l7.016-35.428 21.752-19.969c-6.227 14.164 7.64 34.111 26.829 26.859-12.521 12.62-42.995 50.193-58.21 58.681-3.511 2.198-4.574 6.826-2.376 10.337s6.826 4.574 10.337 2.376c6.652-4.165 12.802-9.076 18.347-14.613-8.003 17.361-8.325 40.267-8.16 58.92-.108 9.553 5.527 18.084 14.355 21.735 2.898 1.198 5.923 1.781 8.917 1.781 6.117-.001 12.099-2.435 16.569-7.019 13.605-13.387 28.843-28.89 35.895-47.418-.758 19.063 7.708 40.388 15.01 57.541 3.547 8.864 12.011 14.592 21.564 14.591 9.552 0 18.016-5.728 21.56-14.586 7.437-17.567 15.567-37.666 15.012-57.548 5.104 12.32 12.412 23.404 21.785 32.99l14.104 14.423c13.557 14.821 40.262 4.157 39.848-16.495.132-19.084-.033-40.705-8.154-58.901 12.99 14.066 33.967 23.056 51.293 30.064 18.841 8.476 38.811-12.279 30.496-30.495l-7.938-18.545c-5.265-12.332-12.704-23.326-22.127-32.75 17.354 7.998 40.259 8.319 58.906 8.154 20.495.636 31.193-25.696 16.498-39.841l-14.431-14.11c-9.58-9.367-20.657-16.673-32.968-21.776 19.055.752 40.375-7.723 57.521-15.019 8.864-3.546 14.591-12.01 14.591-21.562s-5.725-18.015-14.584-21.559zm-129.384-120.87c12.013-14.332 32.55-22.938 49.325-29.725 4.749-2.038 8.136.819 9.06 1.744.923.924 3.778 4.307 1.743 9.06-7.314 18.442-16.261 38.794-32.434 51.813l3.239-14.25c.918-4.039-1.612-8.058-5.651-8.976-4.037-.913-8.057 1.612-8.976 5.651l-8.052 35.423-8.79 8.071-10.973 5.101c.624-11.379-8.591-22.96-21.991-22.012l5.107-10.979zm-42.945-63.937 14.117-14.437c3.603-3.693 7.816-2.354 9.022-1.855 1.208.5 5.146 2.532 5.089 7.7.29 19.824-.175 41.988-10.144 60.293l-2.461-14.409c-.697-4.083-4.572-6.833-8.655-6.13-4.083.697-6.828 4.572-6.13 8.655l6.117 35.808c-4.009 8.612-13.333 28.651-17.437 37.483-8.914 3.75-17.403 8.283-26.491 16.363l2.483-58.132 14.404-39.433c4.385-12.024 11.144-22.758 20.086-31.906zm-84.231-10.731 7.512-18.735c1.917-4.791 6.33-5.164 7.637-5.163 1.307 0 5.72.372 7.639 5.168 7.857 18.171 15.898 38.824 13.701 59.573l-7.784-12.364c-2.207-3.506-6.839-4.556-10.343-2.351-3.505 2.207-4.558 6.837-2.351 10.343l19.351 30.737-1.229 28.776c-3.254-7.636-10.649-12.55-18.984-12.55-8.336 0-15.731 4.916-18.985 12.552l-2.513-58.809c-.548-12.798 1.587-25.307 6.349-37.177zm-77.074-5.561c1.205-.498 5.421-1.837 9.03 1.862 14.253 13.804 29.613 29.867 35.458 49.792l-11.924-8.445c-3.38-2.395-8.061-1.595-10.455 1.785-2.394 3.381-1.594 8.062 1.786 10.455l29.649 20.997 4.085 11.185 2.454 57.446-38.892-42.369-17.687-38.048c-8.613-16.575-8.75-38.896-8.592-56.957-.059-5.171 3.88-7.203 5.088-7.703zm-71.993 79.859-7.941-18.553c-2.035-4.751.82-8.135 1.744-9.058.924-.924 4.308-3.78 9.061-1.743 18.441 7.312 38.797 16.261 51.811 32.433l-14.248-3.239c-4.038-.915-8.058 1.612-8.976 5.651s1.612 8.058 5.651 8.976l35.416 8.05 19.461 21.202c-14.144-6.215-34.123 7.647-26.838 26.858l-43.355-39.805c-9.43-8.646-16.758-18.998-21.786-30.772zm-56.588 59.601c-3.694-3.603-2.354-7.817-1.856-9.022.496-1.2 2.502-5.089 7.587-5.089 19.856-.29 42.073.156 60.405 10.144l-14.408 2.461c-4.083.697-6.828 4.572-6.13 8.655.465 2.842 4.074 6.883 8.656 6.13l35.807-6.116 10.802 5.026 42.357 38.872-57.456-2.455-39.422-14.403c-17.851-5.625-33.658-21.287-46.342-34.203zm3.705 98.349-18.735-7.513c-4.791-1.917-5.164-6.33-5.164-7.637s.373-5.72 5.169-7.639c18.262-7.916 38.993-15.929 59.85-13.69l-13.008 8.708c-3.442 2.304-4.365 6.962-2.061 10.404 2.088 2.214 5.187 4.89 10.404 2.061l30.011-20.09 29.521 1.261c-8.426 3.585-13.415 12.047-12.436 21.222.439 4.119 4.135 7.097 8.252 6.663 4.119-.439 7.102-4.134 6.663-8.253-.222-2.08.585-4.721 3.516-5.895l15.669-6.275c9.753-3.915 20.04-5.673 30.566-5.225l11.196.478c4.463.372 10.369-5.054 6.554-11.628-7.323-7.485-16.716-14.804-22.462-24.846-3.765-5.874-8.531-18.185-11.512-24.948-1.397-3.263.562-5.584 1.196-6.218s2.958-2.592 6.219-1.195c14.871 6.108 30.238 12.14 41.761 25.574l6.643 7.234c3.884 4.579 13.157 2.38 13.018-5.392l-.478-11.194c-1.396-14.498 5.593-32.582 11.5-46.235 1.319-3.293 4.349-3.549 5.247-3.549s3.928.256 5.247 3.549c5.922 14.048 12.607 29.996 11.499 46.234l-.479 11.196c-.513 5.823 7.623 11.065 13.018 5.393 6.066-6.777 13.974-15.616 22.999-21.026 3.146-1.95 6.443-3.676 9.894-5.151 3.062-1.312 12.114-5.182 15.513-6.635 3.264-1.394 5.585.563 6.219 1.196.634.634 2.593 2.955 1.194 6.221-1.651 3.865-4.895 11.45-6.636 15.516-3.189 7.566-8.892 16.551-16.129 23.574-.027.138-9.481 8.794-10.046 9.31-4.78 3.931-2.014 12.979 5.392 13.019l11.196-.478c10.535-.452 20.814 1.31 30.573 5.227l15.663 6.274c3.293 1.318 3.549 4.349 3.549 5.246s-.256 3.928-3.549 5.247l-15.669 6.275c-9.753 3.915-20.034 5.675-30.565 5.225l-11.195-.479c-5.877-.438-11.016 7.426-5.395 13.018 6.944 6.292 14.423 12.818 20.052 21.487 4.595 6.62 9.387 19.259 12.761 26.919 1.396 3.263-.562 5.584-1.196 6.218-.635.634-2.959 2.592-6.222 1.194-8.823-3.955-16.873-6.586-25.882-12.067-4.689-2.124-17.327-14.428-22.52-20.744-4.085-4.534-13.059-2.474-13.019 5.392 2.705 19.424-2.761 40.015-11.021 57.434-1.318 3.293-4.349 3.549-5.246 3.549s-3.928-.256-5.247-3.55c-5.924-14.049-12.609-29.992-11.5-46.234-.186-4.966 1.44-10.215-.356-14.924-1.315-3.238-8.072-6.088-12.185-1.664-11.503 15.231-29.424 26.048-48.403 32.812-3.265 1.396-5.584-.562-6.218-1.196s-2.593-2.955-1.196-6.219c6.71-18.519 16.281-35.484 32.812-48.405 4.479-3.591 2.475-12.956-5.394-13.018l-122.234 5.229c-12.797.555-25.308-1.587-37.178-6.347zm97.169 55.862-38.07 17.706c-16.611 8.633-38.967 8.748-57.069 8.593-5.088 0-7.095-3.89-7.591-5.089-.499-1.205-1.838-5.42 1.863-9.029 13.803-14.252 29.865-29.613 49.79-35.457l-8.443 11.922c-2.394 3.381-1.594 8.062 1.786 10.455 2.221 1.614 7.049 2.285 10.455-1.785l20.995-29.646 11.199-4.089 57.434-2.454zm50.847 135.356-14.117 14.435c-3.604 3.695-7.818 2.354-9.023 1.856-1.208-.5-5.147-2.532-5.088-7.7-.31-19.932.211-42.158 10.259-60.546l3.069 15.359c.58 2.832 4.246 6.805 8.824 5.885 4.062-.812 6.697-4.762 5.885-8.824l-7.08-35.433 5.333-11.471 38.882-42.348-2.454 57.448-14.403 39.433c-4.387 12.024-11.146 22.759-20.087 31.906zm84.231 10.731-7.512 18.735c-1.917 4.791-6.33 5.163-7.637 5.163-1.307.001-5.72-.372-7.639-5.168-7.915-18.263-15.931-38.992-13.69-59.851l8.708 13.008c2.088 2.214 5.187 4.89 10.404 2.061 3.442-2.304 4.365-6.962 2.061-10.404l-20.09-30.011 1.261-29.519c3.254 7.638 10.649 12.553 18.985 12.553 8.337 0 15.733-4.916 18.985-12.553l2.511 58.808c.55 12.797-1.585 25.306-6.347 37.178zm77.073 5.56c-1.205.497-5.419 1.84-9.029-1.862l-14.109-14.43c-9.335-9.332-17.125-22.516-21.444-35.622l13.023 8.686c1.278.854 2.725 1.262 4.154 1.262 2.423 0 4.801-1.173 6.246-3.34 2.299-3.445 1.368-8.103-2.078-10.4l-30.052-20.043-4.339-11.88-2.455-57.448 38.852 42.325 17.727 38.092c8.615 16.577 8.751 38.895 8.593 56.957.058 5.171-3.881 7.203-5.089 7.703zm71.993-79.858 7.94 18.553c2.104 7.974-2.818 12.59-10.805 10.802-18.547-7.339-38.938-16.359-51.998-32.638l15.357 3.041c3.162.634 7.437-1.195 8.814-5.9.805-4.063-1.837-8.01-5.9-8.814l-35.43-7.017-19.97-21.752c13.986 6.234 34.16-7.563 26.862-26.828l43.346 39.78c9.428 8.647 16.756 18.999 21.784 30.773zm56.588-59.601c5.008 6.426 2.123 12.996-5.844 14.111-19.932.31-42.16-.212-60.546-10.26l15.358-3.068c4.062-.812 6.696-4.762 5.885-8.824-.811-4.061-4.754-6.702-8.824-5.885l-35.434 7.079-11.47-5.332-42.349-38.882 57.436 2.454 39.444 14.404c12.026 4.386 22.761 11.145 31.907 20.086zm15.027-75.561c-18.173 7.859-38.816 15.897-59.574 13.702l12.365-7.785c3.505-2.207 4.558-6.837 2.351-10.343-2.208-3.507-6.839-4.556-10.343-2.351l-30.738 19.352-28.775-1.229c7.636-3.254 12.551-10.649 12.551-18.985 0-8.337-4.917-15.734-12.556-18.986l58.811-2.511c18.468-1.634 39.368 6.8 55.913 13.86 4.791 1.917 5.163 6.33 5.163 7.637s-.372 5.72-5.168 7.639z"/><path d="m232.429 268.83c-1.464 3.892-.353 8.275 2.91 11.013 3.262 2.739 7.772 3.072 11.351.953 1.379 3.922 5.049 6.566 9.308 6.566s7.929-2.645 9.308-6.566c3.58 2.119 8.091 1.783 11.352-.953 3.262-2.737 4.372-7.121 2.908-11.012 4.103-.679 7.345-3.834 8.084-8.028.738-4.194-1.229-8.268-4.852-10.306 2.707-3.155 3.162-7.655 1.033-11.344-2.13-3.688-6.256-5.54-10.34-4.777.044-4.156-2.499-7.896-6.5-9.354-3.999-1.457-8.354-.228-10.993 2.986-2.639-3.213-6.99-4.445-10.992-2.986-4.001 1.456-6.545 5.195-6.501 9.354-4.086-.763-8.211 1.09-10.341 4.778-2.129 3.688-1.673 8.188 1.033 11.344-3.623 2.039-5.59 6.111-4.851 10.305s3.98 7.349 8.083 8.027zm12.137-15.624c.27-1.528.286-3.061.067-4.544 1.395-.553 2.714-1.333 3.904-2.332 1.189-.998 2.186-2.16 2.972-3.438 2.847.947 6.131.947 8.976 0 .786 1.277 1.783 2.439 2.972 3.438 1.19.999 2.51 1.779 3.904 2.332-.219 1.483-.202 3.016.067 4.545s.778 2.975 1.492 4.295c-1.122.996-2.095 2.18-2.871 3.524-.776 1.346-1.315 2.779-1.617 4.249-1.499.042-3.005.324-4.463.854-1.46.531-2.796 1.283-3.972 2.216-1.176-.933-2.511-1.684-3.97-2.215s-2.965-.814-4.465-.855c-.302-1.47-.841-2.904-1.618-4.249-.776-1.345-1.749-2.529-2.87-3.524.715-1.32 1.223-2.765 1.492-4.296z"/></g></g></svg>