<svg height="512pt" viewBox="0 -46 512 512" width="512pt" xmlns="http://www.w3.org/2000/svg"><path d="m382.714844 299h-51.316406c-17.941407 26.457031-46.160157 45.355469-78.871094 51-33.101563-3.703125-62.195313-20.894531-81.578125-46-64.292969 10.816406-109.949219 28.953125-109.949219 49.5 0 25.25 65.871094 46.855469 155.867188 55.710938 12.792968.515624 25.863281.789062 39.132812.789062 132.550781 0 246-26.859375 246-60 0-21.527344-50.121094-40.414062-119.285156-51zm0 0" fill="#fff4ca"/><path d="m276.53125 348.242188c56.410156-9.734376 99.46875-58.882813 99.46875-118.242188l-33-41h-141.78125l-31.21875 40c0 61.863281 46.734375 112.550781 106.53125 119.242188zm0 0" fill="#ff637b"/><path d="m299.160156 118h-37.179687c-53.261719 12.261719-92.980469 59.96875-92.980469 116.949219 0 8.792969 3.78125 16.699219 9.804688 22.183593 10.164062-4.804687 17.195312-15.144531 17.195312-27.132812 0-16.570312 13.429688-30 30-30 7.777344 0 14.867188 2.960938 20.195312 7.816406 3.882813-1.835937 14.222657 44.183594 18.804688 44.183594l33.804688 5.132812c10.164062-4.804687 17.195312-15.144531 17.195312-27.132812 0-16.570312 13.429688-30 30-30 7.777344 0 14.867188 2.960938 20.195312 7.816406 2.285157-1.082031 4.730469-1.875 7.285157-2.351562-8.34375-40.171875-36.777344-72.984375-74.320313-87.464844zm0 0" fill="#ffa2c3"/><path d="m286 100c0 16.527344-13.390625 30-30 30-16.59375 0-30-13.453125-30-30 0-16.570312 13.429688-30 30-30s30 13.429688 30 30zm0 0" fill="#ff637b"/><path d="m296 165c5.519531 0 10-4.480469 10-10s-4.480469-10-10-10-10 4.480469-10 10 4.480469 10 10 10zm0 0"/><path d="m256 185c5.519531 0 10-4.480469 10-10s-4.480469-10-10-10-10 4.480469-10 10 4.480469 10 10 10zm0 0"/><path d="m216 165c5.519531 0 10-4.480469 10-10s-4.480469-10-10-10-10 4.480469-10 10 4.480469 10 10 10zm0 0"/><path d="m266 410c0 5.523438-4.476562 10-10 10s-10-4.476562-10-10 4.476562-10 10-10 10 4.476562 10 10zm0 0"/><path d="m372.628906 287.445312c8.773438-17.773437 13.371094-37.359374 13.371094-57.445312 0-56.542969-36.605469-106.632812-90.476562-123.871094.308593-2.011718.476562-4.054687.476562-6.128906 0-18.335938-12.402344-33.816406-29.257812-38.523438 4.058593-23.523437 24.59375-41.476562 49.257812-41.476562 5.523438 0 10-4.476562 10-10s-4.476562-10-10-10c-35.59375 0-65.042969 26.707031-69.417969 61.128906-17.523437 4.25-30.582031 20.058594-30.582031 38.871094 0 2.074219.167969 4.117188.476562 6.128906-53.855468 17.234375-90.476562 67.3125-90.476562 123.871094 0 20.089844 4.597656 39.675781 13.371094 57.445312-51.203125 6.980469-139.371094 24.527344-139.371094 62.554688 0 52.246094 157.894531 66.488281 210.546875 68.945312.15625.007813.316406.011719.472656.011719 5.308594 0 9.730469-4.175781 9.980469-9.53125.257812-5.519531-4.003906-10.199219-9.523438-10.457031-32.183593-1.503906-191.476562-16.957031-191.476562-48.96875 0-23.242188 107.472656-40.984375 130.644531-43.851562 24.453125 33.828124 63.371094 53.851562 105.355469 53.851562s80.90625-20.023438 105.355469-53.851562c23.171875 2.867187 130.644531 20.609374 130.644531 43.851562 0 31.925781-158.769531 47.441406-191.476562 48.96875-5.519532.257812-9.78125 4.9375-9.523438 10.457031.25 5.355469 4.671875 9.535157 9.980469 9.535157.15625 0 .316406-.003907.472656-.011719 52.648437-2.460938 210.546875-16.703125 210.546875-68.949219 0-38.027344-88.167969-55.574219-139.371094-62.554688zm-116.628906-207.445312c11.027344 0 20 8.972656 20 20 0 10.972656-8.8125 20-20 20-11.308594 0-20-9.148438-20-20 0-11.027344 8.972656-20 20-20zm-31.527344 44.597656c7.5 9.550782 19.148438 15.402344 31.527344 15.402344s24.03125-5.851562 31.527344-15.402344c34.070312 10.105469 60.304687 35.519532 71.917968 67.734375-4.207031-1.507812-8.730468-2.332031-13.445312-2.332031-22.054688 0-40 17.945312-40 40 0 11.027344-8.972656 20-20 20s-20-8.972656-20-20c0-22.054688-17.945312-40-40-40s-40 17.945312-40 40c0 11.027344-8.972656 20-20 20s-20-8.972656-20-20c0-49.21875 31.9375-91.597656 78.472656-105.402344zm31.527344 215.402344c-47.367188 0-87.882812-29.871094-103.355469-72.300781 4.179688 1.484375 8.671875 2.300781 13.355469 2.300781 22.054688 0 40-17.945312 40-40 0-11.027344 8.972656-20 20-20s20 8.972656 20 20c0 22.054688 17.945312 40 40 40s40-17.945312 40-40c0-11.027344 8.972656-20 20-20s20 8.972656 20 20c0 60.613281-49.070312 110-110 110zm0 0"/></svg>