<svg id="Capa_1" enable-background="new 0 0 511.86 511.86" height="512" viewBox="0 0 511.86 511.86" width="512" xmlns="http://www.w3.org/2000/svg"><g><g><path d="m135.79 300.799 16.523 2.823c5.666.968 10.104 5.406 11.072 11.072l2.823 16.523c3.919 22.94-3.532 46.355-19.988 62.811l-28.585 28.585c-14.573 14.573-34.709 22.175-55.277 20.868l-24.609-1.563c-6.805-.432-12.229-5.856-12.661-12.661l-1.563-24.609c-1.306-20.568 6.296-40.704 20.868-55.277l28.585-28.585c16.457-16.455 39.873-23.907 62.812-19.987z" fill="#bbf49b"/><path d="m166.209 331.217-2.823-16.523c-.968-5.666-5.406-10.104-11.072-11.072l-16.523-2.823c-7.959-1.36-15.975-1.348-23.739-.069.148.024.295.044.443.069l16.523 2.823c5.666.968 10.104 5.406 11.072 11.072l2.823 16.523c3.919 22.94-3.532 46.355-19.988 62.811l-28.585 28.585c-11.123 11.123-25.49 18.168-40.813 20.307l8.832.561c20.568 1.306 40.704-6.296 55.276-20.868l28.585-28.585c16.456-16.456 23.908-39.872 19.989-62.811z" fill="#9be69d"/><path d="m184.834 332.016 13.68-9.688c4.691-3.322 10.967-3.322 15.658 0l13.68 9.688c18.992 13.449 30.28 35.276 30.28 58.548v40.425c0 20.609-8.863 40.223-24.33 53.843l-18.506 16.296c-5.118 4.507-12.788 4.507-17.905 0l-18.506-16.296c-15.467-13.62-24.33-33.234-24.33-53.843v-40.425c-.001-23.272 11.287-45.098 30.279-58.548z" fill="#bbf49b"/><path d="m227.852 332.016-13.68-9.688c-4.691-3.322-10.967-3.322-15.658 0l-3.819 2.704 9.861 6.983c18.992 13.449 30.28 35.276 30.28 58.547v40.425c0 20.609-8.863 40.223-24.33 53.843l-15.811 13.923 2.695 2.373c5.118 4.507 12.788 4.507 17.905 0l18.506-16.296c15.467-13.62 24.33-33.233 24.33-53.843v-40.425c.001-23.27-11.287-45.096-30.279-58.546z" fill="#9be69d"/><path d="m212.68 226.461v78.85l-20.33 34.18-7.83 10.45c-5.99 7.99-13.67 14.33-22.36 18.67-8.69 4.35-18.38 6.7-28.36 6.7-12.14 0-24.02-3.48-34.24-10.04l-32.42-20.8c-4.96-3.18-7.66-8.56-7.66-14.04 0-3.12.88-6.28 2.72-9.09 3.76-5.75 3.6-13.21-.39-18.8l-37.28-52.15c-4.56-6.38-4.05-15.07 1.21-20.87l26.36-29.06 87.85 14.22z" fill="#ffceec"/><path d="m212.68 226.461v78.85l-20.33 34.18h-23.3l-61.68-63.37c-1.84-1.9-2.67-4.2-2.67-6.46 0-4.81 3.74-9.42 9.37-9.42 9.3 0 16.84-7.54 16.84-16.84v-9.87c0-7.63 3.53-14.42 9.04-18.85z" fill="#ffbee6"/><path d="m220.84 137.621-8.34 25.24-5.31 16.07-10.05 30.44-9.94 30.09-56.63 7.33-31.91 4.13c-22.85 2.96-44.6-10.69-51.87-32.55l-16.69-50.15c-3.21-9.9-.71-20.77 6.51-28.27l3.97-4.11c5.06-5.26 7.89-12.28 7.89-19.58v-8.57c0-10.06 5.35-19.35 14.03-24.4l31.1-18.08c8.57-4.99 19.13-5.11 27.82-.31 4.63 2.55 10 5.51 15.46 8.51 15.72 8.61 32.22 17.53 34.07 18.04z" fill="#ffbee6"/><g fill="#feaee1"><path d="m197.14 209.371-9.94 30.09-56.63 7.33c.22-1.09.34-2.23.34-3.39v-9.87c0-13.36 10.83-24.18 24.19-24.18h40.14c.63 0 1.27 0 1.9.02z"/><path d="m212.5 162.861-5.31 16.07-19.99 60.53h-23.29v-51.28c0-13.99 11.33-25.32 25.32-25.32z"/><path d="m220.84 137.621-13.65 41.31h-27.21l-28.21-24.01c-10.3-8.77-16.24-21.61-16.24-35.13v-35.3c0-3.78.46-7.5 1.35-11.08 15.72 8.61 32.22 17.53 34.07 18.04z"/></g><path d="m192.346 339.493 36.59 50.326c5.621 7.731 13.194 13.831 21.945 17.676l13.552 5.955c14.374 6.316 30.786 6.061 44.957-.7l29.291-13.973c9.932-4.738 13.42-17.139 7.415-26.36l-21.443-32.924z" fill="#ffceec"/><path d="m346.096 372.417-21.443-32.924h-23.295l21.443 32.924c6.006 9.221 2.518 21.622-7.415 26.36l-29.291 13.973c-3.731 1.78-7.619 3.096-11.583 3.973 11.65 2.572 23.931 1.25 34.878-3.973l29.291-13.973c9.932-4.738 13.421-17.139 7.415-26.36z" fill="#ffbee6"/><path d="m459.76 200.456 26.36 29.06c5.265 5.805 5.771 14.495 1.213 20.871l-37.281 52.156c-3.993 5.586-4.148 13.049-.39 18.796 5.063 7.744 2.843 18.13-4.943 23.127l-32.423 20.808c-10.214 6.555-22.095 10.04-34.232 10.04-19.959 0-38.752-9.401-50.72-25.374l-7.829-10.448-20.334-34.177v-78.853z" fill="#ffceec"/><path d="m487.333 250.387c4.557-6.376 4.052-15.066-1.213-20.871l-26.36-29.06-20.312 3.29 23.376 25.771c5.265 5.805 5.771 14.495 1.213 20.871l-37.281 52.156c-3.993 5.586-4.148 13.05-.39 18.796 5.063 7.744 2.843 18.13-4.944 23.127l-32.422 20.807c-6.905 4.431-14.572 7.453-22.564 8.95 3.803.71 7.691 1.089 11.628 1.089 12.137 0 24.018-3.484 34.232-10.04l32.423-20.808c7.787-4.997 10.007-15.383 4.944-23.127-3.758-5.747-3.603-13.21.39-18.796z" fill="#ffbee6"/><path d="m340.913 91.452c2.496-.693 31.6-16.655 49.531-26.554 8.685-4.795 19.244-4.674 27.82.313l31.092 18.08c8.688 5.052 14.034 14.344 14.034 24.395v8.576c0 7.3 2.829 14.316 7.892 19.574l3.965 4.117c7.222 7.5 9.728 18.366 6.519 28.271l-18.666 55.236c-7.692 22.761-30.983 36.37-54.588 31.896l-83.851-15.894-33.645-101.842z" fill="#ffbee6"/><path d="m475.246 139.954-3.965-4.117c-5.063-5.258-7.892-12.274-7.892-19.574v-8.576c0-10.05-5.345-19.342-14.034-24.395l-31.092-18.08c-7.935-4.615-17.565-5.053-25.841-1.296.863.391 1.716.814 2.545 1.296l31.092 18.08c8.688 5.052 14.034 14.344 14.034 24.395v8.576c0 7.3 2.829 14.316 7.893 19.574l3.964 4.117c7.222 7.5 9.728 18.366 6.519 28.271l-18.666 55.236c-5.422 16.044-18.598 27.529-34.168 31.351l2.876.545c23.605 4.474 46.896-9.135 54.588-31.896l18.666-55.236c3.208-9.905.703-20.772-6.519-28.271z" fill="#feaee1"/><path d="m203.279 178.935-28.218-24.015c-10.299-8.765-16.233-21.607-16.233-35.131v-35.3c0-16.852 9.189-32.362 23.968-40.458l60.756-33.282c7.73-4.235 17.066-4.321 24.873-.23l64.291 33.688c15.198 7.963 24.72 23.704 24.72 40.861v34.798c0 15.067-7.358 29.184-19.708 37.814l-30.417 21.254h-104.032z" fill="#d691c6"/><path d="m332.716 44.207-64.291-33.688c-7.474-3.916-16.345-3.994-23.871-.279.191.094.386.18.575.279l64.292 33.688c15.198 7.963 24.72 23.704 24.72 40.861v34.798c0 15.067-7.358 29.184-19.708 37.814l-30.417 21.254h23.296l30.417-21.254c12.351-8.63 19.708-22.747 19.708-37.814v-34.798c0-17.157-9.523-32.897-24.721-40.861z" fill="#cd7cbb"/><path d="m401.473 406.094-8.747 1.494c-2.999.512-5.349 2.862-5.861 5.861l-1.494 8.747c-2.075 12.143 1.87 24.538 10.581 33.249l15.132 15.132c7.714 7.714 18.373 11.738 29.261 11.047l13.027-.827c3.602-.229 6.473-3.1 6.702-6.702l.827-13.027c.692-10.888-3.333-21.547-11.047-29.261l-15.132-15.132c-8.711-8.711-21.106-12.656-33.249-10.581z" fill="#bbf49b"/><path d="m449.853 431.806-15.132-15.131c-8.711-8.711-21.106-12.655-33.249-10.581l-6.097 1.042c5.977 1.774 11.516 5.004 16.051 9.539l15.131 15.131c7.714 7.714 11.738 18.373 11.047 29.261l-.827 13.027c-.229 3.603-3.1 6.473-6.702 6.702l-.256.016c3.421.749 6.959 1.038 10.525.811l13.027-.827c3.603-.229 6.473-3.1 6.702-6.702l.827-13.027c.692-10.888-3.333-21.547-11.047-29.261z" fill="#9be69d"/><path d="m324.653 239.463h-137.452v-51.285c0-13.985 11.337-25.321 25.321-25.321h86.81c13.985 0 25.321 11.337 25.321 25.321z" fill="#b2529f"/><path d="m299.332 162.857h-23.296c13.984 0 25.321 11.337 25.321 25.321v51.285h23.296v-51.285c0-13.985-11.337-25.321-25.321-25.321z" fill="#9a4588"/><path d="m154.209 233.531v9.872c0 9.3-7.539 16.839-16.839 16.839-8.274 0-12.475 9.952-6.704 15.881l61.68 63.37h132.307l43.501-43.501c15.335-15.335 23.951-36.135 23.951-57.822v-8.12c0-16.006-12.976-28.982-28.982-28.982h-9.592c-19.014 0-37.792 4.223-54.975 12.365l-18.506 8.768-24.364-7.364c-12.046-3.641-24.562-5.491-37.146-5.491h-40.146c-13.357 0-24.185 10.828-24.185 24.185z" fill="#d691c6"/><g><path d="m363.122 201.068h-9.592c-3.086 0-6.165.123-9.232.344 13.883 2.15 24.51 14.152 24.51 28.638v8.12c0 21.687-8.615 42.487-23.951 57.822l-43.5 43.501h23.295l43.501-43.501c15.335-15.335 23.951-36.135 23.951-57.822v-8.12c.001-16.007-12.975-28.982-28.982-28.982z" fill="#cd7cbb"/></g></g><g><path d="m491.675 224.482-15.305-16.87 12.524-37.077c4.877-13.904-.872-30.109-12.21-39.893-5.429-4.677-6.327-15.435-5.795-22.951-.019-11.637-6.354-24.29-17.761-30.884l-31.094-18.077c-10.79-6.283-24.285-6.433-35.22-.394-5.519 3.048-14.713 8.114-23.683 13.001-3.825-14.344-13.52-26.738-26.93-33.769l-64.298-33.689c-10.059-5.275-22.007-5.163-31.956.295l-60.751 33.28c-17.188 9.419-27.865 27.443-27.865 47.037v35.3c0 15.745 6.877 30.631 18.87 40.843l13.644 11.606c-2.636 4.723-4.145 10.158-4.145 15.94v13.67c-18.585-1.008-34.419 15.578-32.989 35.287l-49.015 6.345c-19.24 2.491-37.664-9.062-43.79-27.484l-15.451-46.425c20.615 5.441 42.175 15.966 42.429 16.091 1.064.522 2.191.77 3.302.77 2.77 0 5.433-1.54 6.737-4.193 1.826-3.717.296-8.211-3.421-10.039-1.185-.583-26.808-13.102-50.47-18.419.915-3.179 2.589-6.148 4.971-8.622 7.776-6.892 14.067-17.479 13.967-28.901v-7.082c21.95 6.301 39.635 19.178 39.94 19.402 1.342.992 2.904 1.471 4.454 1.471 2.296 0 4.562-1.051 6.033-3.037 2.465-3.329 1.765-8.026-1.564-10.491-.892-.661-19.888-14.574-44.392-21.669 1.588-2.017 3.551-3.755 5.829-5.081l31.104-18.082c6.255-3.643 14.079-3.729 20.424-.225l4.875 2.688c3.632 1.999 8.19.676 10.188-2.953 1.997-3.628.676-8.189-2.953-10.188l-4.86-2.679c-10.934-6.04-24.43-5.889-35.216.391l-31.103 18.083c-13.72 7.675-19.143 23.435-17.759 39.453 0 5.389-2.058 10.496-5.783 14.369l-3.98 4.12c-8.672 9.226-12.372 22.712-8.223 35.839l12.369 37.167-15.169 16.727c-7.579 8.358-8.317 21.088-1.756 30.27l37.277 52.145c2.212 3.099 2.298 7.157.22 10.334-6.751 9.56-4.539 26.443 7.165 33.551l25.524 16.376-56.242 58.424-1.358-21.409c-.87-13.668 2.752-27.524 10.198-39.017 2.253-3.477 1.261-8.12-2.216-10.373-3.475-2.254-8.12-1.261-10.372 2.215-9.186 14.176-13.653 31.268-12.58 48.125l1.561 24.6c.576 9.625 8.598 18.858 19.671 19.68 8.83.474 21.725 1.575 29.636 1.72 20.928 0 41.117-8.308 56.032-23.212l24.106-24.106v27.183c0 22.748 9.795 44.423 26.873 59.468l18.516 16.305c7.149 6.274 19.078 7.299 27.819-.006l18.498-16.298c17.079-15.037 26.874-36.712 26.874-59.469v-9.026c6.649 2.354 13.586 3.548 20.523 3.548 9.054 0 18.099-2.001 26.465-5.993l29.293-13.971c9.17-4.472 15.732-14.702 14.456-26.154 18.547 6.238 42.559 3.733 59.983-7.813l32.418-20.799c10.597-6.738 14.677-21.837 7.169-33.548-2.08-3.181-1.994-7.239.215-10.334l37.28-52.151c6.562-9.177 5.823-21.907-1.757-30.266zm-325.344-104.691v-35.3c0-14.114 7.692-27.097 20.073-33.882l27.803-15.231c5.187 12.927 15.022 41.769 15.022 74.63 0 4.142 3.357 7.5 7.5 7.5s7.5-3.358 7.5-7.5c0-36.981-11.271-68.655-16.763-81.894l19.691-10.787c5.536-3.038 12.182-3.099 17.782-.163l8.47 4.438c-3.534 10.426-9.727 32.477-10.211 60.137-.072 4.142 3.227 7.558 7.368 7.63.045 0 .089.001.134.001 4.081 0 7.424-3.272 7.496-7.369.414-23.665 5.452-43.129 8.703-53.332l42.338 22.183c12.073 6.269 20.768 19.961 20.702 34.218v34.8c0 12.604-6.17 24.44-16.505 31.662l-14.651 10.236c-5.448-4.023-12.177-6.407-19.453-6.407h-86.81c-6.89 0-13.287 2.138-18.573 5.78l-14.025-11.93c-8.637-7.355-13.591-18.078-13.591-29.42zm28.369 68.39c0-9.826 7.994-17.82 17.82-17.82h86.811c9.825 0 17.819 7.994 17.819 17.82v10.377c-11.294 2.772-27.141 10.56-37.698 15.628-26.361-9.89-56.86-14.017-84.752-12.334zm16.761 28.67c2.482 35.75 10.444 58.328 10.803 59.331 1.098 3.063 3.983 4.972 7.061 4.972.84 0 1.694-.142 2.529-.441 3.899-1.397 5.929-5.691 4.531-9.59-.08-.222-7.409-21.027-9.861-53.995 13.597.429 32.007 6.29 44.992 10.33-1.33 8.472-3.513 25.117-5.248 51.628-.271 4.133 2.861 7.703 6.995 7.974.166.011.332.017.497.017 3.918 0 7.217-3.044 7.477-7.011 1.893-28.933 4.353-45.879 5.503-52.735l15.032-7.122c16.067-7.613 33.965-11.638 51.758-11.638h9.591c11.844 0 21.479 9.636 21.479 21.48 1.449 21.865-5.586 44.878-21.754 60.637l-41.303 41.303h-126.028l-59.472-61.103c-.542-1.073-1.195-1.829 1.327-3.147 12.785.12 24.324-11.07 24.34-24.34-1.389-10.498 1.9-26.563 16.68-26.55zm-180.166 17.708 9.585-10.569c8.505 21.09 29.087 34.831 51.601 34.83 2.362 0 4.748-.151 7.142-.461l30.485-3.947c-9.282 4.266-13.259 18.205-4.813 26.939l57.207 58.775c-5.547 8.168-13.522 16.655-23.183 21.505-16.371 8.538-38.567 8.53-55.709-2.673l-32.423-20.802c-2.929-2.603-6.128-6.079-2.711-12.71 1.343-2.053 2.339-4.246 3-6.504 10.297 5.986 25.484 11.822 45.575 11.822 4.143 0 7.5-3.358 7.5-7.5s-3.357-7.5-7.5-7.5c-31.735 0-48.272-16.972-50.24-19.123l-36.18-50.61c-2.486-3.481-2.207-8.305.664-11.472zm81.043 182.747c-13.058 13.05-31.103 19.863-49.504 18.69l-18.534-1.175 57.458-59.687c13.741 6.717 28.705 9.471 45.329 6.423-1.882 2.54-3.946 4.946-6.171 7.171zm116.504 61.897-15.002 13.218v-35.541c0-4.142-3.357-7.5-7.5-7.5s-7.5 3.358-7.5 7.5v35.534l-15.002-13.211c-13.847-12.198-21.788-29.771-21.788-48.212v-40.43c0-4.844.559-9.665 1.646-14.379 10.411-4.671 21.577-13.936 28.562-24.062l6.582 9.053v60.95c0 4.142 3.357 7.5 7.5 7.5s7.5-3.358 7.5-7.5v-40.317c9.074 13.57 20.4 27.875 36.79 33.768v15.417c0 18.449-7.94 36.021-21.788 48.212zm112.303-93.956c-.849 3.014-2.871 5.417-5.693 6.764l-29.291 13.971c-12.205 5.823-26.317 6.042-38.711.604-11.364-4.77-24.845-10.09-32.443-21.175l-27.932-38.42h108.684c5.103 6.986 10.406 14.165 18.01 20.234l6.045 9.287c1.706 2.621 2.178 5.723 1.331 8.735zm140.084-139.218-37.176 52.004c-1.523 1.848-19.852 23.296-48.64 22.914-4.124-.075-7.542 3.26-7.597 7.401-.117 3.341 3.401 7.965 8.358 7.604 19.305 0 34.59-7.653 44.876-15.069 2.335 3.987 6.919 12.472-.38 17.275l-32.422 20.801c-9.021 5.791-19.46 8.852-30.188 8.852-17.55.241-36.067-9.358-46.448-24.675l41.839-41.839c18.806-18.211 27.627-45.04 26.148-71.245 0-20.115-16.364-36.48-36.479-36.48h-9.591c-7.145 0-14.304.588-21.38 1.72v-7.11c0-5.376-1.307-10.449-3.608-14.932l13.484-9.42c14.348-10.026 22.914-26.458 22.914-43.958v-32.446c10.521-5.701 22.479-12.288 29.126-15.96 6.341-3.502 14.166-3.415 20.425.229l31.098 18.079c.044.025.084.054.128.08-9.666 4.266-21.079 11.513-34.106 21.675-13.793 10.758-24.263 20.787-24.701 21.208-2.987 2.87-3.083 7.617-.214 10.604 1.473 1.533 3.439 2.305 5.41 2.305 1.868 0 3.74-.694 5.194-2.091 10.165-9.763 38.472-34.291 57.837-41.368.491 1.773.753 3.622.753 5.505-1.284 24.113 6.007 27.355 17.47 42.393-21.128-1.529-47.096 1.117-48.388 1.251-4.12.428-7.112 4.114-6.686 8.234.427 4.119 4.101 7.11 8.234 6.686.315-.032 28.319-2.88 48.296-1.002-.226.923-18.586 55.019-18.823 55.807-4.765 14.102-16.833 24.462-31.496 27.038-4.079.716-6.806 4.604-6.089 8.684.64 3.641 3.805 6.204 7.378 6.204 20.816-2.705 38.984-18.696 45.088-39.108l9.689 10.681c2.874 3.166 3.153 7.99.667 11.469z"/><path d="m440.026 411.371c-11.953-12.729-31.768-15.603-48.563-11.176-6.125 1.047-10.943 5.866-11.99 11.991l-1.494 8.747c-2.48 14.517 2.257 29.401 12.67 39.815l15.132 15.131c12.288 13.13 31.085 14.601 48.066 12.401 7.351-.467 13.245-6.362 13.712-13.712l.827-13.027c.827-13.034-3.994-25.806-13.229-35.039zm13.389 49.221-.809 12.737-12.738.809c-8.742.557-17.294-2.677-23.481-8.865l-15.131-15.131c-6.979-6.979-10.153-16.954-8.492-26.683l1.455-8.517 8.518-1.455c9.735-1.666 19.704 1.512 26.683 8.491l15.132 15.132c6.187 6.188 9.417 14.747 8.863 23.482z"/></g></g></svg>