<svg id="Capa_1" enable-background="new 0 0 512 512" height="512" viewBox="0 0 512 512" width="512" xmlns="http://www.w3.org/2000/svg"><g><g><g><g><path d="m232.21 83.57c0-13.47-10.919-24.389-24.389-24.389s-24.389 10.919-24.389 24.389v59.482c0 12.746-10.369 23.115-23.115 23.115s-23.116-10.369-23.116-23.115v-59.482c0-13.47-10.919-24.389-24.389-24.389s-24.388 10.919-24.388 24.389v59.482c0 18.197 6.809 34.826 17.997 47.503-11.188 12.678-17.997 29.306-17.997 47.504v58.671c0 13.47 10.919 24.389 24.389 24.389s24.389-10.919 24.389-24.389v-58.67c0-12.746 10.37-23.116 23.116-23.116s23.115 10.37 23.115 23.116v58.671c0 13.47 10.919 24.389 24.389 24.389s24.389-10.919 24.389-24.389v-58.671c0-18.198-6.809-34.827-17.997-47.504 11.187-12.678 17.997-29.306 17.997-47.503v-59.483z" fill="#fe653b"/></g><g><path d="m232.21 83.57c0-13.47-10.919-24.389-24.389-24.389s-24.389 10.919-24.389 24.389v59.482c0 12.746-10.369 23.115-23.115 23.115v48.778c12.746 0 23.115 10.37 23.115 23.116v58.671c0 13.47 10.919 24.389 24.389 24.389s24.389-10.919 24.389-24.389v-58.672c0-18.198-6.809-34.827-17.997-47.504 11.187-12.678 17.997-29.306 17.997-47.503z" fill="#fe8a56"/></g><g><g><path d="m114 296.731v-58.671c0-16.732 5.756-32.137 15.379-44.364 1.457-1.851 1.457-4.429 0-6.281-9.623-12.228-15.379-27.632-15.379-44.363v-59.482c0-8.779 4.641-16.472 11.601-20.767-3.723-2.297-8.107-3.624-12.804-3.621-13.408.009-24.373 11.532-24.373 24.941v58.93c0 18.197 6.809 34.826 17.997 47.503-11.188 12.678-17.997 29.306-17.997 47.504v58.119c0 13.409 10.964 24.932 24.373 24.941 4.696.003 9.081-1.324 12.804-3.621-6.96-4.296-11.601-11.989-11.601-20.768z" fill="#ef4424"/></g></g><g><g><g><g><path d="m183.432 252.951h48.778v30.486h-48.778z" fill="#fead8a"/></g><g><path d="m88.424 252.951h48.778v30.486h-48.778z" fill="#fead8a"/></g><g><path d="m88.424 252.951h25.576v30.486h-25.576z" fill="#fd9468"/></g></g></g><g><g><path d="m88.424 96.863h48.778v30.486h-48.778z" fill="#fead8a"/></g><g><path d="m88.424 96.863h25.576v30.486h-25.576z" fill="#fd9468"/></g><g><path d="m183.432 96.863h48.778v30.486h-48.778z" fill="#fead8a"/></g></g></g></g><g><g><path d="m399.187 187.372c-13.47 0-24.389 10.919-24.389 24.389v59.481c0 12.746-10.37 23.116-23.116 23.116s-23.116-10.37-23.116-23.116v-59.481c0-13.47-10.919-24.389-24.389-24.389s-24.389 10.919-24.389 24.389v59.481c0 31.084 19.832 57.617 47.505 67.627v86.053c0 13.47 10.919 24.389 24.389 24.389s24.389-10.919 24.389-24.389v-86.053c27.673-10.01 47.505-36.543 47.505-67.627v-59.481c0-13.47-10.919-24.389-24.389-24.389z" fill="#1e9efd"/></g><g><g><path d="m352.505 416.611v-82.641c0-2.021-1.221-3.836-3.087-4.611-26.05-10.813-44.418-36.513-44.418-66.428v-59.481c0-5.786 2.019-11.097 5.385-15.279-2.302-.604-4.736-.883-7.251-.777-13.151.554-23.344 11.774-23.344 24.936v58.912c0 31.084 19.832 57.617 47.505 67.627v85.515c0 13.473 10.695 24.806 24.167 24.926 7.774.069 14.712-3.503 19.226-9.109-10.464-2.746-18.183-12.265-18.183-23.59z" fill="#0182fc"/></g></g><g><path d="m327.294 373.706h48.778v30.486h-48.778z" fill="#b3dafe"/></g><g><path d="m327.294 373.706h25.211v30.486h-25.211z" fill="#8ac9fe"/></g></g></g><g><g><circle cx="482.238" cy="115.749" fill="#1e9efd" r="22.262"/></g><g><path d="m480 115.749c0-8.693 4.985-16.216 12.25-19.882-3.01-1.519-6.41-2.38-10.012-2.38-12.295 0-22.262 9.967-22.262 22.262s9.967 22.262 22.262 22.262c3.602 0 7.001-.861 10.012-2.38-7.265-3.665-12.25-11.189-12.25-19.882z" fill="#0182fc"/></g><g><circle cx="446.34" cy="380.667" fill="#1e9efd" r="22.262"/></g><g><path d="m444 380.667c0-8.713 5.009-16.252 12.301-19.908-2.998-1.503-6.379-2.354-9.961-2.354-12.295 0-22.262 9.967-22.262 22.262s9.967 22.262 22.262 22.262c3.582 0 6.963-.851 9.961-2.354-7.292-3.655-12.301-11.194-12.301-19.908z" fill="#0182fc"/></g><g><circle cx="29.762" cy="177.526" fill="#fe653b" r="22.262"/></g><g><path d="m24.476 177.526c0-9.289 5.691-17.245 13.774-20.583-2.616-1.08-5.482-1.68-8.488-1.68-12.295 0-22.262 9.967-22.262 22.262s9.967 22.262 22.262 22.262c3.006 0 5.872-.599 8.488-1.68-8.083-3.336-13.774-11.292-13.774-20.581z" fill="#ef4424"/></g></g><g><path d="m207.82 51.681c-17.583 0-31.889 14.306-31.889 31.889v59.482c0 8.609-7.005 15.614-15.614 15.614-8.61 0-15.615-7.005-15.615-15.614v-59.483c0-17.583-14.306-31.889-31.89-31.889-17.583 0-31.889 14.306-31.889 31.889v59.482c0 17.176 5.583 33.814 15.836 47.503-10.252 13.689-15.836 30.329-15.836 47.505v58.671c0 17.583 14.306 31.889 31.889 31.889 17.584 0 31.89-14.306 31.89-31.889v-58.67c0-8.61 7.005-15.616 15.615-15.616 8.609 0 15.614 7.006 15.614 15.616v58.671c0 17.583 14.306 31.889 31.889 31.889 17.584 0 31.89-14.306 31.89-31.889v-58.671c0-17.177-5.584-33.817-15.838-47.507.872-1.164 1.713-2.354 2.52-3.563 2.3-3.445 1.37-8.103-2.075-10.401-3.444-2.298-8.103-1.369-10.401 2.075-1.622 2.431-3.414 4.762-5.325 6.928-2.502 2.836-2.503 7.09-.001 9.925 10.396 11.781 16.121 26.891 16.121 42.543v7.392h-33.778v-7.392c0-14.295-9.848-26.33-23.114-29.683v-35.643c13.266-3.354 23.114-15.388 23.114-29.682v-8.203h33.778v8.203c0 2.016-.097 4.063-.286 6.087-.388 4.123 2.642 7.781 6.765 8.168 4.129.382 7.781-2.642 8.169-6.765.234-2.487.353-5.008.353-7.49v-59.483c-.002-17.583-14.308-31.888-31.892-31.888zm-111.896 31.888c0-9.313 7.576-16.889 16.889-16.889s16.89 7.576 16.89 16.889v5.794h-33.779zm0 20.794h33.778v15.485h-33.778zm33.778 192.367c0 9.313-7.576 16.889-16.89 16.889-9.313 0-16.889-7.576-16.889-16.889v-5.793h33.778v5.793zm0-20.792h-33.778v-15.486h33.778zm23.115-67.562c-13.267 3.354-23.115 15.389-23.115 29.684v7.392h-33.778v-7.392c0-15.652 5.726-30.762 16.121-42.543 2.502-2.835 2.501-7.089-.001-9.925-10.396-11.78-16.12-26.888-16.12-42.54v-8.203h33.778v8.203c0 14.294 9.849 26.328 23.115 29.682zm38.115 52.075h33.778v15.486h-33.778zm0 30.487h33.778v5.793c0 9.313-7.576 16.889-16.89 16.889-9.313 0-16.889-7.576-16.889-16.889v-5.793zm33.778-171.089h-33.778v-15.485h33.778zm0-30.486h-33.778v-5.794c0-9.313 7.576-16.889 16.889-16.889s16.89 7.576 16.89 16.889v5.794z"/><path d="m217.479 356.634c-4.143 0-7.5 3.357-7.5 7.5v24.747c0 6.763-5.501 12.265-12.264 12.265s-12.264-5.502-12.264-12.265v-24.747c0-4.143-3.357-7.5-7.5-7.5s-7.5 3.357-7.5 7.5v24.747c0 7.774 3.276 14.793 8.513 19.765-5.237 4.971-8.513 11.99-8.513 19.764v24.41c0 4.143 3.357 7.5 7.5 7.5s7.5-3.357 7.5-7.5v-24.41c0-6.763 5.501-12.264 12.264-12.264s12.264 5.501 12.264 12.264v24.41c0 4.143 3.357 7.5 7.5 7.5s7.5-3.357 7.5-7.5v-24.41c0-7.774-3.276-14.792-8.513-19.764 5.237-4.971 8.513-11.99 8.513-19.765v-24.747c0-4.143-3.357-7.5-7.5-7.5z"/><path d="m142.682 356.634c-4.143 0-7.5 3.357-7.5 7.5v24.747c0 6.763-5.501 12.265-12.264 12.265s-12.264-5.502-12.264-12.265v-24.747c0-4.143-3.357-7.5-7.5-7.5s-7.5 3.357-7.5 7.5v24.747c0 7.774 3.276 14.793 8.513 19.765-5.237 4.971-8.513 11.99-8.513 19.764v24.41c0 4.143 3.357 7.5 7.5 7.5s7.5-3.357 7.5-7.5v-24.41c0-6.763 5.501-12.264 12.264-12.264s12.264 5.501 12.264 12.264v24.41c0 4.143 3.357 7.5 7.5 7.5s7.5-3.357 7.5-7.5v-24.41c0-7.774-3.276-14.792-8.513-19.764 5.237-4.971 8.513-11.99 8.513-19.765v-24.747c0-4.143-3.358-7.5-7.5-7.5z"/><path d="m424.137 303.669c4.604-10.248 6.939-21.158 6.939-32.427v-59.481c0-17.583-14.306-31.889-31.889-31.889-17.584 0-31.89 14.306-31.89 31.889v59.481c0 8.61-7.005 15.615-15.615 15.615s-15.616-7.005-15.616-15.615v-15.242c0-4.143-3.357-7.5-7.5-7.5s-7.5 3.357-7.5 7.5v15.242c0 16.881 13.734 30.615 30.616 30.615 16.881 0 30.615-13.734 30.615-30.615v-59.481c0-9.313 7.577-16.889 16.89-16.889s16.889 7.576 16.889 16.889v59.481c0 9.136-1.892 17.977-5.621 26.278-1.698 3.778-.012 8.218 3.767 9.915.998.449 2.042.661 3.07.661 2.862.001 5.596-1.647 6.845-4.427z"/><path d="m391.013 322.175c-5.332 4.127-11.217 7.371-17.493 9.642-2.97 1.075-4.948 3.895-4.948 7.053v27.336h-33.777v-27.336c0-3.158-1.979-5.979-4.948-7.053-25.455-9.208-42.557-33.551-42.557-60.574v-59.481c0-9.313 7.576-16.889 16.889-16.889s16.889 7.576 16.889 16.889v9.238c0 4.143 3.357 7.5 7.5 7.5s7.5-3.357 7.5-7.5v-9.239c0-17.583-14.306-31.889-31.889-31.889s-31.889 14.306-31.889 31.889v59.481c0 31.535 18.883 60.107 47.505 72.699v80.98c0 17.583 14.306 31.889 31.889 31.889s31.889-14.306 31.889-31.889v-80.982c5.9-2.599 11.474-5.917 16.623-9.903 3.275-2.535 3.875-7.246 1.34-10.521-2.536-3.276-7.248-3.876-10.523-1.34zm-22.442 102.747c0 9.313-7.576 16.889-16.889 16.889s-16.889-7.576-16.889-16.889v-13.23h33.777v13.23zm0-28.231h-33.777v-15.486h33.777z"/><path d="m294.52 158.874c4.143 0 7.5-3.357 7.5-7.5v-24.41c0-6.763 5.501-12.264 12.264-12.264s12.265 5.501 12.265 12.264v24.41c0 4.143 3.357 7.5 7.5 7.5s7.5-3.357 7.5-7.5v-24.41c0-7.774-3.276-14.792-8.513-19.764 5.237-4.971 8.513-11.99 8.513-19.764v-24.747c0-4.143-3.357-7.5-7.5-7.5s-7.5 3.357-7.5 7.5v24.747c0 6.763-5.502 12.264-12.265 12.264s-12.264-5.501-12.264-12.264v-24.747c0-4.143-3.357-7.5-7.5-7.5s-7.5 3.357-7.5 7.5v24.747c0 7.774 3.276 14.792 8.513 19.764-5.237 4.971-8.513 11.99-8.513 19.764v24.41c0 4.143 3.357 7.5 7.5 7.5z"/><path d="m381.581 113.643v37.731c0 4.143 3.357 7.5 7.5 7.5s7.5-3.357 7.5-7.5v-37.731c11.397-3.267 19.765-13.774 19.765-26.206v-24.748c0-4.143-3.357-7.5-7.5-7.5s-7.5 3.357-7.5 7.5v24.747c0 6.763-5.502 12.264-12.265 12.264s-12.264-5.501-12.264-12.264v-24.747c0-4.143-3.357-7.5-7.5-7.5s-7.5 3.357-7.5 7.5v24.747c0 12.432 8.368 22.94 19.764 26.207z"/><path d="m482.238 85.987c-16.411 0-29.763 13.351-29.763 29.762s13.352 29.762 29.763 29.762 29.762-13.351 29.762-29.762-13.351-29.762-29.762-29.762zm0 44.524c-8.141 0-14.763-6.622-14.763-14.762s6.622-14.762 14.763-14.762c8.14 0 14.762 6.622 14.762 14.762s-6.622 14.762-14.762 14.762z"/><path d="m446.341 350.905c-16.411 0-29.763 13.351-29.763 29.762s13.352 29.763 29.763 29.763 29.762-13.352 29.762-29.763-13.351-29.762-29.762-29.762zm0 44.525c-8.141 0-14.763-6.622-14.763-14.763 0-8.14 6.622-14.762 14.763-14.762 8.14 0 14.762 6.622 14.762 14.762 0 8.141-6.623 14.763-14.762 14.763z"/><path d="m29.762 147.765c-16.411 0-29.762 13.35-29.762 29.761s13.351 29.762 29.762 29.762 29.763-13.351 29.763-29.762-13.352-29.761-29.763-29.761zm0 44.523c-8.14 0-14.762-6.622-14.762-14.762s6.622-14.762 14.762-14.762c8.141 0 14.763 6.622 14.763 14.762s-6.623 14.762-14.763 14.762z"/></g></g></svg>