<svg height="512pt" viewBox="0 -126 512 512" width="512pt" xmlns="http://www.w3.org/2000/svg"><path d="m438.441406 20c-7.433594 92.996094-88.179687 166-182.441406 166-94.949219 0-175.019531-73.65625-182.4375-166h-21.5625c0 105.617188 72.027344 195.296875 168.355469 227.382812 11.675781 1.714844 23.582031 2.617188 35.644531 2.617188 129.199219 0 240.230469-102.089844 245.765625-230zm0 0" fill="#7fe881"/><path d="m315.949219 12h-92.949219c0 26.9375 17.746094 49.707031 42.164062 57.304688 28.097657-4.3125 49.828126-28.132813 50.785157-57.304688zm0 0" fill="#fff4ca"/><path d="m316.925781 14c-1.566406 31.804688-27.863281 57-59.925781 57-32.109375 0-58.359375-25.242188-59.925781-57h-86.074219c0 85.925781 63.027344 158.546875 145.046875 176 97.597656-.027344 180.683594-78.308594 182.898437-176zm0 0" fill="#ffda2d"/><path d="m266 250c0 5.523438-4.476562 10-10 10s-10-4.476562-10-10 4.476562-10 10-10 10 4.476562 10 10zm0 0"/><path d="m502 0h-492c-5.523438 0-10 4.476562-10 10 0 120.320312 90.515625 223.582031 209.359375 245.695312 5.441406 1.015626 10.652344-2.582031 11.660156-8 1.011719-5.429687-2.570312-10.652343-8-11.660156-106.640625-19.84375-187.867187-111.730468-192.785156-216.035156h43.035156c5.3125 99.609375 90.8125 180 192.730469 180s187.417969-80.394531 192.730469-180.011719h43.035156c-4.917969 104.308594-86.144531 196.203125-192.78125 216.046875-5.429687 1.007813-9.015625 6.230469-8.003906 11.660156 1.011719 5.429688 6.234375 9.011719 11.660156 8 118.511719-22.050781 209.359375-125.042968 209.359375-245.695312 0-5.523438-4.476562-10-10-10zm-287.949219 66.042969c9.386719 7.0625 20.316407 11.589843 31.949219 13.246093v100.414063c-38.175781-2.191406-74.304688-16.886719-103.507812-42.101563zm51.949219 13.242187c11.585938-1.644531 22.480469-6.152344 31.847656-13.167968l71.574219 71.566406c-29.195313 25.164062-65.292969 39.828125-103.421875 42.019531zm-10-19.285156c-24.546875 0-44.460938-17.554688-49-40.011719h98.003906c-4.5625 22.605469-24.589844 40.011719-49.003906 40.011719zm-172.6875-40h103.402344c1.648437 11.601562 6.167968 22.511719 13.199218 31.890625l-71.816406 71.820313c-26.839844-28.945313-42.476562-65.160157-44.785156-103.710938zm300.511719 103.804688-71.8125-71.808594c7.078125-9.398438 11.621093-20.351563 13.277343-32.007813h103.398438c-2.3125 38.582031-17.972656 74.84375-44.863281 103.816407zm0 0"/></svg>