<svg height="512pt" viewBox="0 0 512 512.00078" width="512pt" xmlns="http://www.w3.org/2000/svg"><path d="m501.996094 205c0-83.757812-42.445313-155.179688-100.28125-182.789062-7.433594-1.453126-15.019532-2.210938-22.714844-2.210938-34.191406 0-68.792969 14.878906-93.941406 39.917969-6.820313-6.609375-14.074219-12.503907-21.683594-17.609375-2.867188 2.421875-5.648438 4.957031-8.316406 7.613281-11.917969-11.554687-25.15625-20.9375-39.320313-27.703125-7.4375-1.457031-15.03125-2.21875-22.738281-2.21875-82.839844 0-153 87.308594-153 195 0 83.765625 42.445312 155.1875 100.285156 182.796875 7.429688 1.457031 15.015625 2.210937 22.714844 2.210937h10.488281l19.964844 10-43.488281 53.992188c-8.460938 11.28125-7.710938 26.722656.925781 37.152344 6.441406-1.554688 22.566406-5.25 27.109375-11.152344l68.390625-89.992188h17.136719l34.074218 2.816407 70.457032 89.996093c.304687.40625.621094.800782.941406 1.1875 3.890625-.921874 3.59375 4.546876 7 2 13.257812-9.941406 15.9375-28.75 6.007812-42.007812l-43.480468-53.992188h13.472656c82.835938 0 149.996094-87.308593 149.996094-195.007812zm-260.996094 81.007812c-16.050781 18.5-25.25 43-46 43-11.800781 0-25.332031 17.375-36.039062 10.851563-47.152344-3.289063-88.960938-63.695313-88.960938-134.859375 0-73.179688 44.21875-135 93-135 11.796875 0 23.328125 3.621094 34.035156 10.140625 19.289063 1.347656 33.957032 30.570313 48.964844 47.867187-15.019531 30.382813-20 48.199219-20 86.992188 0 38.796875 3 44.007812 15 71.007812zm63.238281 64v-.011718c2.382813-3.222656 4.675781-6.558594 6.882813-9.988282h-36.882813v-.011718c25.859375-35.027344 41.761719-82.597656 41.761719-134.996094 0-39.089844-9.242188-75.492188-24.980469-106.011719 15.25-18.078125 37.488281-28.988281 57.980469-28.988281 11.800781 0 23.332031 3.625 34.035156 10.148438 47.15625 3.289062 88.960938 63.695312 88.960938 134.847656 0 73.191406-41.21875 135.011718-89.996094 135.011718zm0 0" fill="#ffda2d"/><path d="m20 216.007812c0 5.523438-4.476562 10-10 10s-10-4.476562-10-10c0-5.523437 4.476562-10 10-10s10 4.476563 10 10zm0 0"/><path d="m349 0c-33.792969 0-67.546875 13.140625-94.003906 36.3125-27.09375-23.476562-59.433594-36.3125-91.996094-36.3125-85.753906 0-148.195312 81.847656-160.542969 169.679688-.769531 5.46875 3.042969 10.523437 8.511719 11.292968 5.464844.769532 10.523438-3.039062 11.292969-8.511718 12.21875-86.917969 72.722656-152.460938 140.738281-152.460938 79.15625 0 143 85.671875 143 185 0 46.597656-13.082031 90.765625-36.914062 125.007812h-55.15625c28.941406-24.058593 52.070312-69.75 52.070312-125.007812 0-63.734375-39.007812-145-103-145-62.519531 0-103 77.761719-103 145 0 67.015625 40.335938 145.007812 103 145.007812h189c62.472656 0 99.996094-78.007812 99.996094-145.007812 0-37.160156-10.652344-72.910156-30.003906-100.664062-19.644532-28.175782-46.25-44.335938-72.992188-44.335938-19.3125 0-39.691406 8.386719-55.742188 22.476562-7.03125-11.746093-15.015624-22.5-23.871093-32.148437 22.503906-19.125 51.601562-30.328125 79.613281-30.328125 37.125 0 72.539062 18.933594 99.71875 53.316406 27.910156 35.308594 43.277344 82.074219 43.277344 131.683594 0 102.011719-62.800782 184.011719-139.996094 184.011719-6.734375 0-184.117188-.003907-189 0-62.171875 0-118.441406-53.1875-136.839844-130.769531-1.273437-5.375-6.664062-8.695313-12.039062-7.421876-5.375 1.273438-8.695313 6.664063-7.421875 12.039063 19.578125 82.542969 78.84375 141.371094 146.21875 146.746094 0 0-30.847657 38.300781-30.917969 38.394531-13.214844 17.621094-9.652344 42.695312 7.929688 55.945312 16.375 12.675782 41.773437 10.644532 56.03125-7.894531l65.390624-86.042969h7.304688l67.402344 86.09375c13.261718 17.539063 38.332031 21.085938 55.9375 7.90625 17.644531-13.222656 21.238281-38.347656 8.015625-56.003906-.070313-.09375-.140625-.1875-.214844-.277344l-30.546875-37.933593c76.238281-4.296875 152.75-83.621094 152.75-204.792969 0-54.09375-16.902344-105.261719-47.589844-144.085938-28.503906-36.050781-69.117187-60.914062-115.410156-60.914062zm-127.042969 290.679688c-10.460937-26.339844-15.957031-55.625-15.957031-85.679688 0-30.050781 5.496094-59.332031 15.957031-85.671875 15.226563 23.550781 24.042969 54.425781 24.042969 85.671875s-8.816406 62.128906-24.042969 85.679688zm-58.957031 39.328124c-50.5625 0-83-70.132812-83-125.007812 0-54.710938 32.351562-125 83-125 15.367188 0 31.078125 7.609375 44.789062 21.523438-14.273437 31.300781-21.789062 66.914062-21.789062 103.476562 0 36.566406 7.515625 72.183594 21.789062 103.484375-13.710937 13.914063-29.421874 21.523437-44.789062 21.523437zm242.585938-214.234374c16.785156 24.078124 26.410156 56.597656 26.410156 89.226562 0 52.296875-28.566406 125.007812-79.996094 125.007812h-59.105469c21.441407-35.6875 33.105469-79.351562 33.105469-125.007812 0-36.789062-7.925781-72.6875-22.972656-104.300781 12.90625-12.886719 30.027344-20.699219 45.972656-20.699219 20.109375 0 40.734375 13.039062 56.585938 35.773438zm-235.511719 368.128906c-7.175781 9.324218-19.925781 10.433594-27.933594 4.203125-.046875-.035157-.09375-.074219-.140625-.105469-8.78125-6.585938-10.601562-19.0625-4.09375-27.875l40.367188-50.117188h47.953124zm199.933593 4.097656c-8.828124 6.605469-21.402343 4.808594-28.027343-4.003906-.039063-.050782-57.921875-73.988282-57.921875-73.988282h49.683594l40.355468 50.113282c6.503906 8.824218 4.683594 21.300781-4.089844 27.878906zm0 0"/></svg>