<svg height="512pt" viewBox="-66 0 512 512" width="512pt" xmlns="http://www.w3.org/2000/svg"><path d="m328.363281 164.453125c-27.363281-8.730469-62.144531-12.453125-104.363281-12.453125-120 0-180 30-180 120 0 15.714844 3.664062 33.445312 10.023438 52.003906 3.648437-4.851562 9.433593-8.003906 15.976562-8.003906 11.050781 0 20 8.949219 20 20v1.726562c3.605469-3.539062 2.546875 35.273438 8 35.273438l26-2.726562c3.699219-3.628907 6-8.679688 6-14.273438v-20c0-11.050781 8.949219-20 20-20s20 8.949219 20 20v49l34 5.273438c3.699219-3.628907 6-8.679688 6-14.273438v-40c0-11.050781 8.949219-20 20-20s20 8.949219 20 20c0 .558594 13.953125 17.453125 14 18l19.917969-3.648438c3.746093-3.636718 6.082031-8.714843 6.082031-14.351562 0-11.050781 8.949219-20 20-20s20 8.949219 20 20v1.726562c3.605469-3.539062 8.546875-5.726562 14-5.726562 2.117188 0 4.152344.335938 6.070312.941406 12.328126-27.46875 19.929688-54.296875 19.929688-76.941406 0-43.28125-13.882812-72.679688-41.636719-91.546875zm0 0" fill="#ff637b"/><path d="m330 371v-2.234375c-.265625.449219-.523438.902344-.789062 1.355469l-.210938-.121094v-35c0-6.488281-3.101562-12.238281-7.890625-15.890625-5.59375 3.542969-24.109375-7.226563-24.109375-.109375l-17.320312 32.890625c-4.535157 2.875-10.28125 4.003906-16.335938 2.324219-8.636719-2.402344-14.238281-10.496094-14.34375-19.460938-.078125-6.390625-3.160156-12.039062-7.886719-15.648437-5.597656 3.546875-28.113281 1.777343-28.113281 8.894531l-13.320312 63.890625c-3.476563 2.203125-7.664063 3.382813-12.15625 3.054687-10.53125-.765624-18.523438-9.867187-18.523438-20.429687v-39.515625c0-6.488281-3.101562-12.238281-7.890625-15.890625-5.59375 3.542969-25.109375-4.226563-25.109375 2.890625l-16.320312 49.890625c-3.476563 2.203125-7.664063 3.382813-12.15625 3.054687-10.53125-.765624-18.523438-9.867187-18.523438-20.429687v-19.515625c0-6.492188-3.105469-12.246094-7.898438-15.898438-3.878906 2.460938-11.644531-6.550781-13.101562-2.101562l-11 6c0 15.257812 20.277344 57.390625 28.726562 70.09375 34.921876 52.496094 80.246094 97.519531 113.800782 107.738281 38.148437-8.835937 93.503906-66.621093 130.683594-129.710937zm0 0" fill="#8c4a37"/><path d="m279.273438 57.476562c-12.355469 4.089844 3.121093-17.09375-6.273438-8.476562-.8125-7.371094-29.628906 13.183594-32.433594 6.300781-7.753906 3.859375-14.890625 8.785157-21.214844 14.589844-1.488281-13.496094-7.5-26.871094-13.695312-37.550781-7.460938 11.441406-16.171875 27.902344-18.007812 44.550781-7.402344-6.796875-15.917969-12.394531-25.242188-16.46875-.796875 3.128906-1.40625 6.292969-1.757812 9.46875-7.417969-6.808594-15.949219-12.414063-25.292969-16.492187-2.75-.257813-5.535157-.398438-8.355469-.398438 0 36.960938 22.277344 68.710938 54.136719 82.566406 2.917969.285156 5.871093.433594 8.863281.433594 45.820312 0 83.640625-34.234375 89.273438-78.523438zm0 0" fill="#7fe881"/><path d="m310 266c5.519531 0 10-4.480469 10-10s-4.480469-10-10-10-10 4.480469-10 10 4.480469 10 10 10zm0 0"/><path d="m280 206c5.519531 0 10-4.480469 10-10s-4.480469-10-10-10-10 4.480469-10 10 4.480469 10 10 10zm0 0"/><path d="m250 266c5.519531 0 10-4.480469 10-10s-4.480469-10-10-10-10 4.480469-10 10 4.480469 10 10 10zm0 0"/><path d="m220 206c5.519531 0 10-4.480469 10-10s-4.480469-10-10-10-10 4.480469-10 10 4.480469 10 10 10zm0 0"/><path d="m190 266c5.519531 0 10-4.480469 10-10s-4.480469-10-10-10-10 4.480469-10 10 4.480469 10 10 10zm0 0"/><path d="m160 206c5.519531 0 10-4.480469 10-10s-4.480469-10-10-10-10 4.480469-10 10 4.480469 10 10 10zm0 0"/><path d="m130 266c5.519531 0 10-4.480469 10-10s-4.480469-10-10-10-10 4.480469-10 10 4.480469 10 10 10zm0 0"/><path d="m100 206c5.519531 0 10-4.480469 10-10s-4.480469-10-10-10-10 4.480469-10 10 4.480469 10 10 10zm0 0"/><path d="m70 266c5.519531 0 10-4.480469 10-10s-4.480469-10-10-10-10 4.480469-10 10 4.480469 10 10 10zm0 0"/><path d="m200 502c0 5.523438-4.476562 10-10 10s-10-4.476562-10-10 4.476562-10 10-10 10 4.476562 10 10zm0 0"/><path d="m142.582031 493.300781c4.511719 3.140625 10.75 2.058594 13.921875-2.492187 3.152344-4.53125 2.039063-10.765625-2.496094-13.921875-31.050781-21.617188-66.902343-62.910157-94.007812-108.167969v-32.71875c0-5.515625 4.484375-10 10-10s10 4.484375 10 10v20c0 16.542969 13.457031 30 30 30s30-13.457031 30-30v-20c0-5.515625 4.484375-10 10-10s10 4.484375 10 10v40c0 16.542969 13.457031 30 30 30s30-13.457031 30-30v-40c0-5.515625 4.484375-10 10-10s10 4.484375 10 10c0 16.542969 13.457031 30 30 30s30-13.457031 30-30c0-5.515625 4.484375-10 10-10s10 4.484375 10 10v32.714844c-27.117188 45.269531-62.945312 86.542968-94.011719 108.171875-4.53125 3.15625-5.644531 9.390625-2.492187 13.921875 3.15625 4.53125 9.390625 5.648437 13.921875 2.492187 63.152343-43.972656 142.582031-160.980469 142.582031-237.300781 0-84.238281-50.449219-118.253906-133.851562-127.292969 26.449218-18.011719 43.851562-48.363281 43.851562-82.707031 0-5.523438-4.476562-10-10-10-19.347656 0-38.152344 5.71875-54.328125 16.328125-8.417969-26.195313-27.203125-47.835937-28.15625-48.921875-1.898437-2.164062-4.636719-3.40625-7.515625-3.40625s-5.617188 1.242188-7.515625 3.40625c-.953125 1.085938-19.738281 22.726562-28.15625 48.921875-16.175781-10.609375-34.980469-16.328125-54.328125-16.328125-5.523438 0-10 4.476562-10 10 0 34.34375 17.402344 64.695312 43.851562 82.707031-83.417968 9.039063-133.851562 43.066407-133.851562 127.292969 0 76.582031 79.707031 193.523438 142.582031 237.300781zm-31.863281-436.5625c15.914062 2.210938 30.945312 9.304688 43.167969 20.519531 2.777343 2.546876 6.753906 3.320313 10.277343 1.992188 3.527344-1.324219 6.011719-4.519531 6.425782-8.265625 1.863281-16.914063 12.109375-34.15625 19.410156-44.566406 7.300781 10.414062 17.546875 27.652343 19.410156 44.566406.410156 3.746094 2.894532 6.941406 6.421875 8.265625 3.527344 1.328125 7.5.554688 10.277344-1.992188 12.222656-11.214843 27.257813-18.308593 43.171875-20.519531-5.261719 39.054688-38.808594 69.261719-79.28125 69.261719s-74.019531-30.207031-79.28125-69.261719zm79.28125 89.261719c94.859375 0 170 15.269531 170 110 0 20.859375-7.085938 46.984375-20.316406 75.679688-2.097656-14.5-14.609375-25.679688-29.683594-25.679688-16.542969 0-30 13.457031-30 30 0 5.515625-4.484375 10-10 10s-10-4.484375-10-10c0-16.542969-13.457031-30-30-30s-30 13.457031-30 30v40c0 5.515625-4.484375 10-10 10s-10-4.484375-10-10v-40c0-16.542969-13.457031-30-30-30s-30 13.457031-30 30v20c0 5.515625-4.484375 10-10 10s-10-4.484375-10-10v-20c0-16.542969-13.457031-30-30-30-15.078125 0-27.589844 11.183594-29.6875 25.691406-13.226562-28.699218-20.3125-54.820312-20.3125-75.691406 0-94.789062 75.257812-110 170-110zm0 0"/></svg>