<svg height="512pt" viewBox="-91 0 512 512" width="512pt" xmlns="http://www.w3.org/2000/svg"><path d="m195.667969 340.015625-34 .023437v133.851563c0 11.121094 6.054687 20.820313 15.042969 26.003906 11.101562-4.402343 18.957031-15.226562 18.957031-27.894531zm0 0" fill="#fff4ca"/><path d="m317.816406 254.640625-12.121094-24.242187h-242.21875l-17.621093 35.242187c-6.570313 13.140625-2.640625 29.070313 9.140625 37.859375 15.59375 11.628906 32.589844 21.359375 50.636718 28.929688 19.203126 4.945312 39.265626 7.570312 59.863282 7.570312 51.742187 0 101.660156-16.523438 143.179687-47.5 11.78125-8.78125 15.710938-24.71875 9.140625-37.859375zm0 0" fill="#7fe881"/><path d="m199.808594 24.210938c-1.46875-.136719-2.949219-.210938-4.441406-.210938-18.390626 0-35.191407 10.390625-43.421876 26.828125l-91.277343 182.570313c12.566406 14.167968 27.339843 26.332031 43.777343 35.972656 19.0625 6.871094 39.617188 10.628906 61.050782 10.628906 53.601562 0 101.730468-23.429688 134.699218-60.601562l-91.277343-182.570313c-2.378907-4.746094-5.472657-8.984375-9.109375-12.617187zm0 0" fill="#ff637b"/><path d="m213.667969 180c5.519531 0 10-4.480469 10-10s-4.480469-10-10-10-10 4.480469-10 10 4.480469 10 10 10zm0 0"/><path d="m193.667969 140c5.519531 0 10-4.480469 10-10s-4.480469-10-10-10-10 4.480469-10 10 4.480469 10 10 10zm0 0"/><path d="m203.667969 210c0-5.519531-4.480469-10-10-10s-10 4.480469-10 10 4.480469 10 10 10 10-4.480469 10-10zm0 0"/><path d="m163.667969 80c-5.519531 0-10 4.480469-10 10s4.480469 10 10 10 10-4.480469 10-10-4.480469-10-10-10zm0 0"/><path d="m163.667969 160c-5.519531 0-10 4.480469-10 10s4.480469 10 10 10 10-4.480469 10-10-4.480469-10-10-10zm0 0"/><path d="m133.667969 120c-5.519531 0-10 4.480469-10 10s4.480469 10 10 10 10-4.480469 10-10-4.480469-10-10-10zm0 0"/><path d="m133.667969 200c-5.519531 0-10 4.480469-10 10s4.480469 10 10 10 10-4.480469 10-10-4.480469-10-10-10zm0 0"/><path d="m113.667969 160c-5.519531 0-10 4.480469-10 10s4.480469 10 10 10 10-4.480469 10-10-4.480469-10-10-10zm0 0"/><path d="m326.761719 250.167969c-4.664063-9.328125-104.035157-208.078125-108.902344-217.8125-9.992187-19.957031-30.054687-32.355469-52.363281-32.355469s-42.371094 12.398438-52.363282 32.359375l-108.898437 217.808594c-8.71875 17.4375-3.628906 38.609375 12.105469 50.347656 32.222656 24.035156 69.855468 39.945313 109.328125 46.300781v125.183594c0 22.054688 17.941406 40 40 40 22.054687 0 40-17.945312 40-40v-125.234375c39.347656-6.390625 76.863281-22.28125 108.984375-46.246094 15.738281-11.730469 20.832031-32.90625 12.109375-50.351562zm-161.09375 241.832031c-11.027344 0-20-8.972656-20-20v-122.785156c6.59375.519531 13.230469.785156 19.828125.785156 6.726562 0 13.476562-.273438 20.171875-.8125v122.8125c0 11.027344-8.972657 20-20 20zm137.027343-207.515625c-38.929687 29.046875-86.984374 45.695313-138.027343 45.503906-50.070313-.183593-97.539063-16.542969-136.371094-45.503906-7.960937-5.9375-10.558594-16.609375-6.175781-25.371094l11.273437-22.546875c23.269531 22.542969 51.730469 38.703125 83.105469 47.054688 5.324219 1.417968 10.8125-1.746094 12.234375-7.09375 1.421875-5.335938-1.753906-10.8125-7.089844-12.234375-30.101562-8.011719-57.214843-24.070313-78.816406-46.601563l88.191406-176.382812c6.578125-13.144532 19.789063-21.308594 34.476563-21.308594s27.898437 8.164062 34.476562 21.300781l88.191406 176.394531c-22.433593 23.414063-50.707031 39.765626-82.164062 47.453126-5.363281 1.3125-8.648438 6.722656-7.339844 12.085937 1.3125 5.363281 6.722656 8.652344 12.089844 7.339844 32.871094-8.035157 62.632812-24.523438 86.851562-48.003907l11.269532 22.539063c4.382812 8.769531 1.789062 19.441406-6.175782 25.375zm0 0"/><path d="m173.667969 280c0 5.523438-4.476563 10-10 10-5.523438 0-10-4.476562-10-10s4.476562-10 10-10c5.523437 0 10 4.476562 10 10zm0 0"/></svg>