<svg id="Capa_1" enable-background="new 0 0 512 512" height="512" viewBox="0 0 512 512" width="512" xmlns="http://www.w3.org/2000/svg"><g><g><g><g><g><path d="m443.251 375.812c-11.598 0-21-9.402-21-21v-165.667h42v165.667c0 11.598-9.402 21-21 21z" fill="#b3dafe"/></g><g><path d="m439 354.812v-165.667h-16.749v165.667c0 11.598 9.402 21 21 21 2.979 0 5.808-.629 8.375-1.747-7.428-3.236-12.626-10.634-12.626-19.253z" fill="#8ac9fe"/></g></g><g><path d="m422.251 290.645v64.167c0 11.598 9.402 21 21 21s21-9.402 21-21v-64.167z" fill="#1e9efd"/></g><g><path d="m439 354.812v-64.167h-16.749v64.167c0 11.598 9.402 21 21 21 2.979 0 5.808-.629 8.375-1.747-7.428-3.236-12.626-10.634-12.626-19.253z" fill="#0182fc"/></g></g><g><g><g><path d="m358.084 375.812c-11.598 0-21-9.402-21-21v-165.667h42v165.667c0 11.598-9.402 21-21 21z" fill="#b3dafe"/></g><g><path d="m354 354.812v-165.667h-16.916v165.667c0 11.598 9.402 21 21 21 3.011 0 5.868-.645 8.458-1.787-7.382-3.255-12.542-10.627-12.542-19.213z" fill="#8ac9fe"/></g></g><g><path d="m337.084 290.645v64.167c0 11.598 9.402 21 21 21s21-9.402 21-21v-64.167z" fill="#fe8a56"/></g><g><path d="m354 354.812v-64.167h-16.916v64.167c0 11.598 9.402 21 21 21 3.011 0 5.868-.645 8.458-1.787-7.382-3.255-12.542-10.627-12.542-19.213z" fill="#fd6930"/></g></g><g><path d="m279.67 374.682c8.281-2.814 14.247-10.637 14.247-19.87v-165.667h-42v146.308z" fill="#b3dafe"/><path d="m279.67 374.682c8.281-2.814 14.247-10.637 14.247-19.87v-64.167h-42v44.808z" fill="#fbd74c"/><g><path d="m268.378 358.72c-.239-1.268-.378-2.571-.378-3.909v-64.167h-16.083v44.808z" fill="#fac600"/></g></g><g><path d="m297.277 399.569 8.823 12.471c4.959 7.766-.618 17.946-9.833 17.946h203.151c2.807 0 5.082-2.275 5.082-5.082v-25.335z" fill="#54469c"/></g><g><path d="m306.1 412.04-90.517-127.946c-3.485-4.926-5.356-10.811-5.356-16.845v-30.271h-44.333v30.271c0 6.034-1.871 11.919-5.356 16.845l-41.882 59.201h33.512c1.933 0 3.5 1.567 3.5 3.5v83.191h140.6c9.214 0 14.791-10.18 9.832-17.946z" fill="#1ee6a6"/></g><path d="m165.893 143.428h44.333v93.551h-44.333z" fill="#eaf6ff"/><path d="m165.893 143.428h21.112v93.551h-21.112z" fill="#d8ecfe"/><g><path d="m306.1 412.04-90.517-127.946c-3.485-4.926-5.356-10.811-5.356-16.845v-30.271h-44.333v30.271c0 6.034-1.871 11.919-5.356 16.845l-41.882 59.201h33.512c1.933 0 3.5 1.567 3.5 3.5v83.191h140.6c9.214 0 14.791-10.18 9.832-17.946z" fill="#1ee6a6"/></g><path d="m165.893 236.978v30.271c0 6.034-1.871 11.919-5.356 16.845l-41.882 59.201h29.81l33.185-46.907c3.485-4.926 5.356-10.811 5.356-16.845v-42.565z" fill="#0ed290"/><g><path d="m216.377 143.428h-56.635c-2.807 0-5.082-2.275-5.082-5.082v-28.46c0-2.807 2.275-5.082 5.082-5.082h56.635c2.807 0 5.082 2.275 5.082 5.082v28.46c0 2.806-2.275 5.082-5.082 5.082z" fill="#d8ecfe"/></g><g><path d="m180 138.345v-28.46c0-2.807 2.275-5.082 5.082-5.082h-25.34c-2.807 0-5.082 2.275-5.082 5.082v28.46c0 2.807 2.275 5.082 5.082 5.082h25.34c-2.807.001-5.082-2.275-5.082-5.082z" fill="#b3dafe"/></g><g><path d="m155.667 380.124v-33.329c0-1.933-1.567-3.5-3.5-3.5h-141.167c-1.933 0-3.5 1.567-3.5 3.5v33.329z" fill="#b3dafe"/><path d="m32.833 380.124v-33.329c0-1.933 1.567-3.5 3.5-3.5h-25.333c-1.933 0-3.5 1.567-3.5 3.5v33.329z" fill="#8ac9fe"/><g><g><ellipse cx="63.55" cy="253.961" fill="#1ee6a6" rx="14.552" ry="23.626" transform="matrix(.707 -.707 .707 .707 -160.964 119.32)"/></g><g><ellipse cx="99.617" cy="253.961" fill="#00c285" rx="23.626" ry="14.552" transform="matrix(.707 -.707 .707 .707 -150.4 144.823)"/></g><g><ellipse cx="63.55" cy="300.129" fill="#00c285" rx="14.552" ry="23.626" transform="matrix(.707 -.707 .707 .707 -193.61 132.843)"/></g><g><ellipse cx="99.617" cy="300.129" fill="#1ee6a6" rx="23.626" ry="14.552" transform="matrix(.707 -.707 .707 .707 -183.046 158.346)"/></g><g><ellipse cx="81.584" cy="210.386" fill="#1ee6a6" rx="17.716" ry="28.762"/></g></g><g><path d="m7.5 379.124h148.167v50.862h-148.167z" fill="#bb5d4c"/></g><g><path d="m7.5 379.124h25.333v50.862h-25.333z" fill="#a44f3e"/></g></g></g><g><circle cx="334.194" cy="94.72" fill="#fe8a56" r="12.705"/></g><g><circle cx="370.367" cy="140.041" fill="#fe8a56" r="12.705"/></g><g><circle cx="198.59" cy="336.042" fill="#fff" r="12.705"/></g><g><circle cx="236.198" cy="384.831" fill="#fff" r="12.705"/></g><g><path d="m489.254 250.986h-17.503v-54.341h2.417c4.143 0 7.5-3.358 7.5-7.5s-3.357-7.5-7.5-7.5h-61.834c-4.143 0-7.5 3.358-7.5 7.5s3.357 7.5 7.5 7.5h2.417v54.341h-28.167v-54.341h2.417c4.143 0 7.5-3.358 7.5-7.5s-3.357-7.5-7.5-7.5h-61.834c-4.143 0-7.5 3.358-7.5 7.5s3.357 7.5 7.5 7.5h2.417v54.341h-28.167v-54.341h2.417c4.143 0 7.5-3.358 7.5-7.5s-3.357-7.5-7.5-7.5h-61.833c-4.143 0-7.5 3.358-7.5 7.5s3.357 7.5 7.5 7.5h2.416v54.341h-26.69v-51.986c0-4.142-3.357-7.5-7.5-7.5s-7.5 3.358-7.5 7.5v30.478h-29.333v-78.551h29.333v13.073c0 4.142 3.357 7.5 7.5 7.5s7.5-3.358 7.5-7.5v-13.148c6.305-.676 11.232-6.025 11.232-12.507v-28.46c0-6.938-5.645-12.583-12.582-12.583h-56.635c-6.938 0-12.582 5.645-12.582 12.583v28.46c0 6.482 4.928 11.832 11.233 12.507v116.397c0 4.506-1.376 8.833-3.979 12.513l-39.641 56.033h-25.689v-10.198c.729.047 1.458.087 2.185.087 8.844 0 17.449-3.469 23.94-9.961 9.113-9.112 12.27-22.387 8.239-34.643-.744-2.263-2.52-4.037-4.781-4.781-3.252-1.07-6.575-1.626-9.872-1.705 2.296-1.397 4.453-3.078 6.414-5.04 9.113-9.112 12.27-22.387 8.239-34.643-.744-2.263-2.52-4.037-4.781-4.781-5.428-1.785-11.051-2.144-16.426-1.214 2.945-5.593 4.558-11.919 4.558-18.531 0-15.07-8.366-28.656-21.834-35.457-2.126-1.073-4.634-1.074-6.762 0-13.468 6.8-21.835 20.387-21.835 35.457 0 6.612 1.612 12.938 4.558 18.531-5.376-.931-11-.572-16.426 1.213-2.262.744-4.037 2.519-4.781 4.781-4.03 12.256-.874 25.53 8.238 34.642 1.962 1.962 4.12 3.643 6.416 5.041-3.298.079-6.621.635-9.873 1.704-2.262.744-4.037 2.519-4.781 4.781-4.03 12.256-.874 25.53 8.238 34.642 6.492 6.493 15.098 9.961 23.942 9.961.727 0 1.456-.04 2.185-.087v10.198h-63.084c-6.065 0-11 4.935-11 11v83.19c0 4.142 3.357 7.5 7.5 7.5h188.512 100.256 132.732c4.143 0 7.5-3.358 7.5-7.5s-3.357-7.5-7.5-7.5h-114.03c1.093-4.905.234-10.124-2.55-14.482-.063-.1-.129-.198-.197-.294l-.453-.64h185.23v15.417h-33c-4.143 0-7.5 3.358-7.5 7.5s3.357 7.5 7.5 7.5h35.418c6.938 0 12.582-5.644 12.582-12.582v-151.169c0-12.542-10.204-22.746-22.746-22.746zm-59.503-54.341h27v54.341h-27zm0 101.5h27v56.667c0 7.444-6.056 13.5-13.5 13.5s-13.5-6.056-13.5-13.5zm0-15v-17.159h27v17.159zm-85.167-86.5h27v54.341h-27zm0 101.5h27v56.667c0 7.444-6.056 13.5-13.5 13.5s-13.5-6.056-13.5-13.5zm0-15v-17.159h27v17.159zm-85.167-86.5h27v54.341h-27zm0 136.423v-34.923h27v56.667c0 3.991-1.751 7.569-4.516 10.038zm0-49.923v-17.159h27v17.159zm-41.69-17.159h26.69v45.88l-22.712-32.103c-2.603-3.679-3.979-8.005-3.979-12.513v-1.264zm-55.567-153.683h51.799v23.625h-51.799zm-52.109 177.392c.615 5.642-1.323 11.296-5.448 15.42-4.124 4.125-9.775 6.063-15.42 5.447-.614-5.642 1.323-11.295 5.448-15.42 4.124-4.123 9.771-6.061 15.42-5.447zm0-46.168c.615 5.642-1.323 11.296-5.448 15.42-4.124 4.125-9.775 6.064-15.42 5.447-.614-5.642 1.323-11.295 5.448-15.42 4.124-4.124 9.78-6.063 15.42-5.447zm-28.467-53.154c6.382 4.605 10.215 11.97 10.215 20.013s-3.833 15.408-10.215 20.014c-6.383-4.605-10.216-11.971-10.216-20.014s3.833-15.408 10.216-20.013zm-28.468 53.154c5.641-.613 11.297 1.323 15.42 5.447 4.125 4.125 6.063 9.779 5.448 15.42-5.646.618-11.296-1.324-15.421-5.448-4.124-4.123-6.062-9.777-5.447-15.419zm20.868 67.036c-5.646.617-11.296-1.323-15.421-5.448-4.124-4.124-6.063-9.778-5.447-15.42 5.647-.614 11.298 1.324 15.42 5.447 4.125 4.125 6.063 9.779 5.448 15.421zm-58.984 40.232h59.084v20.828h-59.084zm133.167 20.828h-16.167c-4.143 0-7.5 3.358-7.5 7.5s3.357 7.5 7.5 7.5h16.167v35.862h-133.167v-35.862h82c4.143 0 7.5-3.358 7.5-7.5s-3.357-7.5-7.5-7.5h-7.916v-20.828h59.083zm151.755 48.698c-.357.651-1.427 2.165-3.654 2.165h-133.101v-75.69c0-6.065-4.935-11-11-11h-19.02l33.513-47.37c4.405-6.227 6.733-13.55 6.733-21.176v-22.771h29.333v22.771c0 7.628 2.328 14.951 6.733 21.176l90.391 127.769c1.098 1.83.421 3.489.072 4.126zm197.078-28.252h-195.842l-10.568-14.938c6.585-5.224 10.827-13.28 10.827-22.319v-88.826h28.167v88.826c0 15.715 12.785 28.5 28.5 28.5s28.5-12.785 28.5-28.5v-88.826h28.167v88.826c0 15.715 12.785 28.5 28.5 28.5s28.5-12.785 28.5-28.5v-88.826h17.503c4.271 0 7.746 3.475 7.746 7.747z"/><path d="m334.193 114.926c11.142 0 20.206-9.064 20.206-20.206s-9.064-20.206-20.206-20.206c-11.141 0-20.205 9.064-20.205 20.206s9.065 20.206 20.205 20.206zm0-25.412c2.871 0 5.206 2.335 5.206 5.206s-2.335 5.206-5.206 5.206c-2.87 0-5.205-2.335-5.205-5.206s2.335-5.206 5.205-5.206z"/><path d="m370.367 160.247c11.141 0 20.205-9.064 20.205-20.206s-9.064-20.206-20.205-20.206-20.205 9.064-20.205 20.206 9.065 20.206 20.205 20.206zm0-25.411c2.87 0 5.205 2.335 5.205 5.206s-2.335 5.206-5.205 5.206-5.205-2.335-5.205-5.206 2.335-5.206 5.205-5.206z"/><path d="m198.59 315.837c-11.142 0-20.206 9.064-20.206 20.205 0 11.142 9.064 20.206 20.206 20.206 11.141 0 20.205-9.064 20.205-20.206 0-11.141-9.065-20.205-20.205-20.205zm0 25.41c-2.871 0-5.206-2.335-5.206-5.206s2.335-5.205 5.206-5.205c2.87 0 5.205 2.335 5.205 5.205s-2.335 5.206-5.205 5.206z"/><path d="m236.197 364.625c-11.141 0-20.205 9.064-20.205 20.206s9.064 20.206 20.205 20.206c11.142 0 20.206-9.064 20.206-20.206s-9.064-20.206-20.206-20.206zm0 25.411c-2.87 0-5.205-2.335-5.205-5.206s2.335-5.206 5.205-5.206c2.871 0 5.206 2.335 5.206 5.206s-2.335 5.206-5.206 5.206z"/><circle cx="187.409" cy="295.385" r="7.5"/><circle cx="194.524" cy="397.028" r="7.5"/></g></g></svg>