<svg id="Capa_1" enable-background="new 0 0 512 512" height="512" viewBox="0 0 512 512" width="512" xmlns="http://www.w3.org/2000/svg"><g><g><path d="m223.59 129.76-54.07 54.07-52.57-14.82c-18.4-5.19-35.16-15.02-48.68-28.54-8.58-8.58-12.87-19.82-12.87-31.07 0-11.24 4.29-22.48 12.87-31.06l49.83-49.83c17.15-17.16 44.97-17.16 62.13 0 6.76 6.76 12.6 14.33 17.39 22.51 4.8 8.18 8.55 16.97 11.15 26.17z" fill="#fe646f"/><path d="m223.59 129.76-23.93 23.93h-54.16l-26.69-47.65c-9.34-16.68-14.25-35.48-14.25-54.61 0-3.69.45-7.27 1.31-10.69l12.23-12.23c17.15-17.16 44.97-17.16 62.13 0 6.76 6.76 12.6 14.33 17.39 22.51 4.8 8.18 8.55 16.97 11.15 26.17z" fill="#fd4755"/><path d="m242.279 153.693h-76.465l-26.689-47.654c-9.343-16.683-14.25-35.484-14.25-54.605 0-24.265 19.67-43.935 43.935-43.935h70.473c24.265 0 43.935 19.67 43.935 43.935 0 19.121-4.906 37.922-14.25 54.605z" fill="#fe646f"/><path d="m239.283 7.5h-20.314c24.265 0 43.935 19.67 43.935 43.935 0 19.121-4.906 37.922-14.25 54.605l-26.689 47.654h20.314l26.689-47.654c9.343-16.683 14.25-35.484 14.25-54.605 0-24.265-19.67-43.935-43.935-43.935z" fill="#fd4755"/><path d="m210.52 203.43-32 44.26c-11.21 15.49-26.2 27.86-43.54 35.9-5.98 2.78-12.27 4.09-18.46 4.09-16.58 0-32.45-9.43-39.88-25.46l-29.65-63.94c-10.21-22.01-.64-48.13 21.37-58.34 14.76-6.84 30.81-10.37 47-10.37 2.84 0 5.69.11 8.53.33l33.19 2.54 21.27 1.62 29.65 63.94z" fill="#fe646f"/><path d="m208 198c-6.82 4.92-15.21 7.82-24.27 7.82-22.94 0-41.53-18.59-41.53-41.53 0-12.8 5.78-24.24 14.88-31.85l21.27 1.62z" fill="#fd4755"/><path d="m283.22 277.14c0 3.69-.46 7.28-1.32 10.71-4.78 19.09-22.05 33.23-42.62 33.23h-70.47c-12.13 0-23.11-4.92-31.06-12.87s-12.87-18.94-12.87-31.07c0-19.12 4.9-37.92 14.25-54.6l15.83-28.28 10.85-19.38h76.47l26.69 47.66c4.67 8.34 8.23 17.21 10.63 26.38 2.39 9.18 3.62 18.66 3.62 28.22z" fill="#fe646f"/><path d="m223.9 174.88c-4.68 17.81-20.89 30.94-40.17 30.94-11.17 0-21.3-4.41-28.77-11.56l10.85-19.38z" fill="#fd4755"/><path d="m283.22 277.14c0 3.69-.46 7.28-1.32 10.71l-12.22 12.22c-8.58 8.58-19.82 12.87-31.07 12.87-11.24 0-22.48-4.29-31.06-12.87-13.52-13.52-23.35-30.29-28.54-48.69l-14.82-52.57 23.93-23.93h54.16l26.69 47.66c4.67 8.34 8.23 17.21 10.63 26.38 2.39 9.18 3.62 18.66 3.62 28.22z" fill="#fd4755"/><path d="m238.573 144.745-54.069 54.069 14.824 52.568c5.19 18.403 15.015 35.167 28.535 48.687 17.158 17.158 44.976 17.158 62.133 0l49.832-49.832c17.158-17.158 17.158-44.976 0-62.133-13.521-13.521-30.284-23.346-48.687-28.535z" fill="#fe646f"/><path d="m339.829 188.104c-13.521-13.521-30.284-23.346-48.687-28.535l-52.568-14.824-4.469 4.469 36.722 10.356c18.403 5.19 35.167 15.015 48.687 28.535 17.158 17.158 17.158 44.976 0 62.133l-49.832 49.832c-5.976 5.976-13.247 9.865-20.909 11.678 14.335 3.392 30.043-.496 41.224-11.678l49.832-49.832c17.157-17.158 17.157-44.976 0-62.134z" fill="#fd4755"/><path d="m197.573 125.146 32.17 69.368 54.46 4.164c19.065 1.458 38.186-2.001 55.532-10.046 22.013-10.208 31.582-36.329 21.373-58.341l-29.649-63.932c-10.208-22.013-36.329-31.582-58.341-21.373-17.346 8.044-32.338 20.405-43.542 35.9z" fill="#fe646f"/><path d="m361.108 130.291-29.649-63.932c-8.95-19.299-30.13-29.03-50.05-24.258 12.646 3.004 23.843 11.552 29.736 24.258l29.649 63.932c10.208 22.013.639 48.133-21.373 58.341-11.707 5.429-24.223 8.761-36.984 9.911l1.766.135c19.065 1.458 38.186-2.001 55.532-10.046 22.012-10.208 31.582-36.329 21.373-58.341z" fill="#fd4755"/><path d="m409.077 382.28-44.953 44.953-22.604-22.604c-8.944-8.944-8.944-23.445 0-32.389l12.564-12.564c8.944-8.944 23.445-8.944 32.389 0z" fill="#bbf49b"/><path d="m386.473 359.676c-7.131-7.131-17.788-8.557-26.352-4.317 2.177 1.078 4.224 2.504 6.037 4.317l22.604 22.604-34.795 34.795 10.157 10.157 44.953-44.953z" fill="#9be69d"/><path d="m409.077 382.28-44.953 44.953 38.331 38.331c10.161 10.161 23.074 17.127 37.146 20.038l5.679 1.175c13.91 2.878 26.219-9.431 23.341-23.341l-1.175-5.679c-2.911-14.072-9.877-26.984-20.038-37.146z" fill="#fe646f"/><path d="m468.621 463.436-1.175-5.679c-2.911-14.072-9.877-26.985-20.038-37.146l-38.331-38.331-10.157 10.157 28.174 28.174c10.161 10.161 17.127 23.074 20.038 37.146l1.175 5.679c1.932 9.338-2.984 17.946-10.63 21.731.64.15 1.279.302 1.924.435l5.679 1.175c13.91 2.878 26.219-9.431 23.341-23.341z" fill="#fd4755"/><circle cx="204.047" cy="164.288" fill="#8379c1" r="41.537"/><path d="m204.047 122.751c-3.505 0-6.906.439-10.157 1.256 18.029 4.532 31.38 20.845 31.38 40.281 0 19.435-13.35 35.748-31.38 40.281 3.251.817 6.652 1.256 10.157 1.256 22.94 0 41.537-18.597 41.537-41.537s-18.597-41.537-41.537-41.537z" fill="#6e61b6"/><path d="m157.313 424.75h-22.75c-7.074 0-12.809-5.735-12.809-12.809v-20.612c0-13.356 10.828-24.184 24.184-24.184 13.356 0 24.184 10.828 24.184 24.184v20.612c0 7.075-5.735 12.809-12.809 12.809z" fill="#bbf49b"/><path d="m145.938 367.145c-3.629 0-7.068.805-10.157 2.237 8.281 3.839 14.027 12.22 14.027 21.947v20.612c0 7.074-5.735 12.809-12.809 12.809h20.315c7.074 0 12.809-5.735 12.809-12.809v-20.612c-.001-13.356-10.828-24.184-24.185-24.184z" fill="#9be69d"/></g><g><path d="m475.966 461.916-1.176-5.678c-3.217-15.549-10.852-29.702-22.079-40.93l-60.935-60.935c-11.324-11.863-32.772-11.831-44.339 1.343l-7.21-7c-15.475-15.023-40.473-14.84-55.725.412l-18.418 18.417c-7.498 7.499-11.627 17.468-11.627 28.072v108.883c0 4.142 3.357 7.5 7.5 7.5s7.5-3.358 7.5-7.5v-108.882c0-6.597 2.569-12.8 7.234-17.465l18.418-18.417c9.487-9.489 25.041-9.604 34.668-.256l7.052 6.846c-11.602 10.53-13.06 31.614-.613 43.607l60.935 60.935c11.229 11.228 25.382 18.863 40.93 22.079 9.485 3.051 22.187 2.162 30.469-6.241 6.508-6.509 9.28-15.776 7.416-24.79zm-133.654-73.481c0-4.114 1.602-7.982 4.512-10.891l12.562-12.564c5.047-5.108 15.289-6.512 21.782 0l17.302 17.301-34.347 34.346-17.301-17.301c-2.908-2.909-4.51-6.777-4.51-10.891zm32.419 38.798 31.145-31.145c2.521 7.763 5.831 18.723 8.48 30.158 5.758 24.853 4.995 36.693 3.406 42.22-3.571-2.39-6.924-5.129-10.003-8.207zm83.212 48.866c-3.31 4.057-11.332 3.93-16.823 2.159-3.373-.698-6.662-1.658-9.851-2.854 4.2-10.765 3.412-27.884-2.301-52.542-1.08-4.662-2.257-9.22-3.444-13.527l16.579 16.58c9.152 9.152 15.375 20.688 17.997 33.363 1.402 5.43 2.681 11.546-2.157 16.821z"/><path d="m268.364 319.569c10.235-1.891 19.517-6.772 26.939-14.196l49.83-49.83c9.018-9.018 14.344-20.992 14.997-33.718.212-4.137-2.969-7.663-7.105-7.875-4.159-.209-7.662 2.97-7.875 7.105-.463 9.012-4.235 17.493-10.624 23.881l-49.83 49.83c-12.794 13.503-37.558 14.492-51.533 0-12.576-12.577-21.78-28.284-26.614-45.422l-10.337-36.654c12.124 2.399 28.889-1.926 38.614-10.268 13.208.848 46.707 3.967 57.853 4.081 39.531-.471 79.378-16.874 80.021-57.764 0-7.479-1.609-14.748-4.786-21.606l-29.65-63.931c-9.082-19.569-29.673-31.268-50.751-29.63-7.371-19.807-26.65-33.572-48.233-33.572h-70.47c-10.536 0-20.584 3.16-29.081 9.014-10.244 1.893-19.525 6.775-26.933 14.193l-49.829 49.83c-16.748 16.169-20.225 45.097-6.293 65.094-18.954 13.141-27.146 41.399-16.487 63.305l29.648 63.939c3.91 8.434 10.019 15.645 17.665 20.854 1.293.88 2.762 1.302 4.216 1.302 2.397 0 4.754-1.147 6.205-3.278 2.332-3.423 1.447-8.089-1.976-10.421-5.408-3.684-9.73-8.789-12.502-14.766l-29.649-63.941c-8.217-16.604-.615-40.459 17.72-48.379 29.51-14.64 61.003-8.31 89.801-6.467-4.006 7.102-6.304 15.29-6.304 24.01 0 4.106.514 8.093 1.469 11.907l-23.892 42.679c-9.949 17.749-15.208 37.898-15.208 58.267-.767 26.403 23.503 52.267 51.431 51.44h27.739v175.918c0 4.142 3.357 7.5 7.5 7.5s7.5-3.358 7.5-7.5v-175.92h27.73c10.499 0 20.513-3.112 29.084-9.011zm-98.353-155.281c0-18.768 15.269-34.037 34.036-34.037 18.769 0 34.037 15.269 34.037 34.037s-15.269 34.037-34.037 34.037c-18.768-.001-34.036-15.269-34.036-34.037zm69.269-149.288c14.639 0 27.777 8.935 33.451 22.002-13.324 5.617-27.496 15.143-38.394 26.544-2.876 2.98-2.791 7.729.189 10.604 2.981 2.877 7.729 2.792 10.605-.189 7.715-8.137 19.487-16.853 31.158-22.174 16.755-8.394 40.524-.218 48.366 17.728l29.648 63.926c2.253 4.865 3.396 10.012 3.396 15.298-.309 35.516-43.957 44.153-72.928 42.462l-37.991-2.908c4.005-7.101 6.302-15.289 6.302-24.007 0-23.861-17.135-43.785-39.743-48.142l10.907-15.083c2.428-3.356 1.674-8.045-1.683-10.473-3.354-2.425-8.044-1.674-10.472 1.683l-17.253 23.858c-8.059 1.538-15.422 5.049-21.568 10.018l-14.923-1.139-12.678-22.636c-8.695-15.514-13.292-33.13-13.292-50.943-.247-18.76 15.909-36.597 36.433-36.429zm-123.92 107.07c-15.441 0-31.002 3.097-45.333 8.973-10.132-13.092-9.437-34.933 3.547-47.4l45.561-45.562c-5.082 22.951 1.857 50.507 13.451 71.624l7.803 13.933c-7.797-.52-16.682-1.514-25.029-1.568zm27.694 180.837c-6.301-6.548-10.633-15.343-10.674-25.767 0-17.807 4.597-35.419 13.294-50.937l18.619-33.259c3.889 5.38 8.834 9.946 14.539 13.381l13.28 47.09c5.53 19.604 16.059 37.57 30.445 51.957 3.236 3.236 6.834 5.976 10.692 8.207h-64.439c-9.726.001-18.874-3.789-25.756-10.672z"/><path d="m144.99 452.593c-4.143 0-7.5 3.358-7.5 7.5v44.407c0 4.142 3.357 7.5 7.5 7.5s7.5-3.358 7.5-7.5v-44.407c0-4.142-3.357-7.5-7.5-7.5z"/><path d="m145.938 359.645c-17.471 0-31.685 14.213-31.685 31.684v20.612c0 11.198 9.11 20.309 20.31 20.309h22.75c11.198 0 20.309-9.111 20.309-20.309v-20.612c0-17.471-14.213-31.684-31.684-31.684zm16.684 52.296c0 2.927-2.382 5.309-5.309 5.309h-22.75c-2.928 0-5.31-2.382-5.31-5.309v-20.612c0-9.2 7.484-16.684 16.685-16.684 9.199 0 16.684 7.484 16.684 16.684z"/></g></g></svg>