<svg height="512pt" viewBox="-126 0 512 512" width="512pt" xmlns="http://www.w3.org/2000/svg"><path d="m178.308594 20.144531c-5.390625-.738281-10.886719-1.144531-16.480469-1.144531-66.277344 0-120 53.730469-120 120 0 2.207031.371094 4.324219 1.03125 6.308594 4.363281-3.667969 7.140625-9.160156 7.140625-15.308594v-20c0-11.050781 8.949219-20 20-20 8.84375 0 16.324219 5.738281 18.96875 13.691406 3.476562-2.925781 1.128906 59.308594 6.03125 59.308594l12 5c0 2.207031 15.199219-4.675781 15.859375-2.691406 4.363281-3.667969 7.140625-9.160156 7.140625-15.308594v-40c0-11.050781 8.949219-20 20-20 8.84375 0 16.324219 5.738281 18.96875 13.691406 3.476562-2.925781 15.128906 25.308594 20.03125 25.308594l13.859375-3.691406c4.363281-3.667969 7.140625-9.160156 7.140625-15.308594 0-11.050781 8.949219-20 20-20h13.171875c-11.054687-31.273438-34.714844-56.574219-64.863281-69.855469zm0 0" fill="#fff4ca"/><path d="m243.171875 90-1.0625-.820312c.359375.9375.726563 1.871093 1.0625 2.820312h-13.171875c-11.050781 0-20 8.949219-20 20s-8.949219 20-20 20-20-8.949219-20-20-8.949219-20-20-20-20 8.949219-20 20v40c0 11.050781-8.949219 20-20 20s-20-8.949219-20-20v-40c0-10.707031-8.410156-19.417969-18.984375-19.949219l-21.015625 24.359375v15.589844c0 7.402344-4.027344 13.847656-10 17.304688v198.695312c0 11.050781 8.949219 20 20 20h178.675781c6.695313-3.230469 11.324219-10.0625 11.324219-18v-220c0-14.03125-2.410156-27.488281-6.828125-40zm0 0" fill="#ff637b"/><path d="m125 467c0 14.097656 9.722656 25.914062 22.824219 29.128906 7.386719-5.464844 12.175781-14.234375 12.175781-24.128906v-102h-35zm0 0" fill="#fff4ca"/><path d="m130 320c5.523438 0 10-4.476562 10-10v-110c0-5.523438-4.476562-10-10-10s-10 4.476562-10 10v110c0 5.523438 4.476562 10 10 10zm0 0"/><path d="m190 320c5.523438 0 10-4.476562 10-10v-110c0-5.523438-4.476562-10-10-10s-10 4.476562-10 10v110c0 5.523438 4.476562 10 10 10zm0 0"/><path d="m70 320c5.523438 0 10-4.476562 10-10v-110c0-5.523438-4.476562-10-10-10s-10 4.476562-10 10v110c0 5.523438 4.476562 10 10 10zm0 0"/><path d="m140 10c0 5.523438-4.476562 10-10 10s-10-4.476562-10-10 4.476562-10 10-10 10 4.476562 10 10zm0 0"/><path d="m30 380h60v92c0 22.054688 17.945312 40 40 40s40-17.945312 40-40v-92h60c16.542969 0 30-13.457031 30-30v-220c0-54.414062-33.472656-101.605469-82.101562-120.886719-5.132813-2.035156-10.945313.476563-12.984376 5.609375-2.035156 5.132813.476563 10.945313 5.609376 12.980469 25.074218 9.945313 45.445312 28.644531 57.523437 52.367187-15.632813 1.011719-28.046875 14.042969-28.046875 29.929688 0 5.515625-4.484375 10-10 10s-10-4.484375-10-10c0-16.542969-13.457031-30-30-30s-30 13.457031-30 30v40c0 5.515625-4.484375 10-10 10s-10-4.484375-10-10v-40c0-16.542969-13.457031-30-30-30s-30 13.457031-30 30v20c0 5.515625-4.484375 10-10 10s-10-4.484375-10-10c0-45.410156 27.269531-85.5625 69.472656-102.296875 5.136719-2.035156 7.644532-7.847656 5.609375-12.980469-2.035156-5.136718-7.851562-7.648437-12.980469-5.613281-48.773437 19.339844-82.101562 66.6875-82.101562 120.890625v220c0 16.542969 13.457031 30 30 30zm120 92c0 11.027344-8.972656 20-20 20s-20-8.972656-20-20v-92h40zm-120-312c16.542969 0 30-13.457031 30-30v-20c0-5.515625 4.484375-10 10-10s10 4.484375 10 10v40c0 16.542969 13.457031 30 30 30s30-13.457031 30-30v-40c0-5.515625 4.484375-10 10-10s10 4.484375 10 10c0 16.542969 13.457031 30 30 30s30-13.457031 30-30c0-5.515625 4.484375-10 10-10h5.835938c2.75 9.722656 4.164062 19.777344 4.164062 30v220c0 5.515625-4.484375 10-10 10h-200c-5.515625 0-10-4.484375-10-10v-191.71875c3.128906 1.109375 6.492188 1.71875 10 1.71875zm0 0"/></svg>