<svg id="Capa_1" enable-background="new 0 0 512 512" height="512" viewBox="0 0 512 512" width="512" xmlns="http://www.w3.org/2000/svg"><g><g><path d="m270.657 504.5h-30.137v-153.637c0-8.322 6.746-15.068 15.068-15.068 8.322 0 15.068 6.746 15.068 15.068v153.637z" fill="#6fd7a3"/><path d="m255.589 335.795c-2.748 0-5.316.747-7.534 2.032 4.5 2.606 7.534 7.462 7.534 13.036v153.637h15.068v-153.637c0-8.322-6.746-15.068-15.068-15.068z" fill="#3ec3a4"/><circle cx="255.589" cy="237.845" fill="#bbf49b" r="42.899"/><path d="m255.589 194.946c-3.822 0-7.525.507-11.051 1.444 18.335 4.876 31.847 21.584 31.847 41.454s-13.512 36.578-31.847 41.454c3.527.938 7.229 1.444 11.051 1.444 23.692 0 42.899-19.206 42.899-42.899s-19.207-42.897-42.899-42.897z" fill="#9be69d"/><circle cx="255.589" cy="33.776" fill="#eaf6ff" r="26.276"/><path d="m255.589 7.5c-3.691 0-7.203.764-10.39 2.138 9.343 4.027 15.886 13.317 15.886 24.138s-6.542 20.11-15.886 24.138c3.187 1.374 6.699 2.138 10.39 2.138 14.512 0 26.276-11.764 26.276-26.276s-11.764-26.276-26.276-26.276z" fill="#c8effe"/><circle cx="399.884" cy="382.14" fill="#eaf6ff" r="26.276"/><g fill="#c8effe"><path d="m399.884 355.864c-3.691 0-7.203.764-10.39 2.138 9.343 4.027 15.886 13.317 15.886 24.138s-6.542 20.11-15.886 24.138c3.187 1.374 6.699 2.138 10.39 2.138 14.512 0 26.276-11.764 26.276-26.276s-11.765-26.276-26.276-26.276z"/><circle cx="355.943" cy="137.371" r="16.257"/><circle cx="111.294" cy="93.55" r="16.257"/></g><circle cx="67.058" cy="315.937" fill="#eaf6ff" r="26.276"/><path d="m67.058 289.661c-3.691 0-7.203.764-10.39 2.138 9.343 4.027 15.886 13.317 15.886 24.138s-6.542 20.11-15.886 24.138c3.187 1.374 6.699 2.138 10.39 2.138 14.512 0 26.276-11.764 26.276-26.276s-11.764-26.276-26.276-26.276z" fill="#c8effe"/><circle cx="177.497" cy="426.375" fill="#c8effe" r="16.257"/><circle cx="459.657" cy="237.845" fill="#eaf6ff" r="16.257"/><circle cx="119.992" cy="237.845" fill="#eaf6ff" r="16.257"/></g><g><path d="m240.52 423.231c-4.142 0-7.5 3.358-7.5 7.5v73.769c0 4.142 3.358 7.5 7.5 7.5s7.5-3.358 7.5-7.5v-73.769c0-4.142-3.357-7.5-7.5-7.5z"/><path d="m255.589 328.294c-12.444 0-22.568 10.124-22.568 22.568v44.6c0 4.142 3.358 7.5 7.5 7.5s7.5-3.358 7.5-7.5v-44.6c0-4.173 3.395-7.568 7.568-7.568s7.568 3.395 7.568 7.568v153.638c0 4.142 3.357 7.5 7.5 7.5s7.5-3.358 7.5-7.5v-153.637c0-12.445-10.124-22.569-22.568-22.569z"/><path d="m209.287 284.146c-2.928-2.929-7.677-2.929-10.606 0l-92.69 92.69c-2.929 2.929-2.929 7.678 0 10.606 1.464 1.465 3.384 2.197 5.303 2.197s3.839-.732 5.303-2.197l92.69-92.69c2.929-2.928 2.929-7.677 0-10.606z"/><path d="m170.567 52.185 50.165 121.097c1.197 2.889 3.989 4.632 6.932 4.632.957 0 1.929-.184 2.868-.573 3.827-1.585 5.644-5.973 4.059-9.8l-50.165-121.097c-1.585-3.827-5.973-5.644-9.8-4.059-3.827 1.586-5.644 5.973-4.059 9.8z"/><path d="m340.609 423.504-50.165-121.097c-1.585-3.827-5.972-5.646-9.799-4.059-3.827 1.585-5.645 5.973-4.059 9.8l50.165 121.097c1.196 2.888 3.988 4.631 6.932 4.631.956 0 1.929-.184 2.867-.573 3.828-1.584 5.645-5.971 4.059-9.799z"/><path d="m316.093 212.788c1.196 2.889 3.988 4.632 6.932 4.632.956 0 1.929-.184 2.867-.573l121.098-50.165c3.827-1.585 5.645-5.973 4.059-9.799-1.585-3.827-5.973-5.646-9.799-4.059l-121.098 50.165c-3.828 1.585-5.645 5.972-4.059 9.799z"/><path d="m191.029 272.699c3.827-1.585 5.644-5.973 4.058-9.8-1.585-3.827-5.973-5.644-9.799-4.058l-90.693 37.572c-6.127-8.616-16.182-14.253-27.536-14.253-18.624 0-33.776 15.152-33.776 33.776 0 18.625 15.152 33.776 33.776 33.776 20.299-.077 36.867-18.541 33.291-39.448zm-123.971 62.014c-10.353 0-18.776-8.423-18.776-18.776s8.423-18.776 18.776-18.776c10.354 0 18.776 8.423 18.776 18.776s-8.422 18.776-18.776 18.776z"/><path d="m64.187 166.682 121.098 50.165c.939.389 1.911.573 2.868.573 2.943 0 5.735-1.744 6.932-4.632 1.585-3.827-.232-8.214-4.059-9.799l-121.097-50.165c-3.827-1.585-8.214.232-9.8 4.059-1.585 3.826.232 8.214 4.058 9.799z"/><path d="m320.151 272.701 32.922 13.638c.938.389 1.91.573 2.867.573 2.943 0 5.735-1.744 6.932-4.632 1.586-3.827-.231-8.214-4.059-9.799l-32.922-13.638c-3.824-1.584-8.214.232-9.799 4.059s.232 8.214 4.059 9.799z"/><path d="m446.989 309.007-55.253-22.889c-3.827-1.586-8.214.233-9.799 4.059-1.586 3.827.231 8.214 4.059 9.8l55.253 22.889c.938.389 1.911.573 2.867.573 2.943 0 5.735-1.744 6.932-4.631 1.586-3.828-.232-8.215-4.059-9.801z"/><path d="m280.645 177.341c.938.389 1.91.573 2.867.573 2.943 0 5.735-1.744 6.932-4.632l50.165-121.097c1.586-3.827-.231-8.214-4.059-9.8-3.825-1.584-8.213.232-9.799 4.059l-50.165 121.097c-1.585 3.827.232 8.214 4.059 9.8z"/><path d="m399.884 348.364c-6.601 0-12.76 1.91-17.969 5.197l-55.743-55.736c-.015-.015-.027-.031-.042-.046l-30.063-30.062c6.229-8.412 9.92-18.773 9.92-29.872-.019-24.356-18.048-46.078-42.899-49.838v-121.304c15.025-3.421 26.277-16.88 26.277-32.927 0-18.624-15.152-33.776-33.776-33.776-18.625 0-33.776 15.152-33.776 33.776 0 16.046 11.251 29.505 26.276 32.927v121.305c-20.986 3.121-39.045 20.179-42.337 42.333h-63.224c-3.15-9.432-12.058-16.252-22.536-16.252s-19.386 6.82-22.535 16.252h-45.938c-4.142 0-7.5 3.358-7.5 7.5s3.358 7.5 7.5 7.5h45.935c3.147 9.437 12.058 16.262 22.538 16.262s19.392-6.825 22.539-16.262h63.21c1.574 10.62 6.486 20.42 14.219 28.15 2.929 2.927 7.677 2.926 10.607-.002.047-.047.087-.099.132-.146l14.315-14.315c2.929-2.929 2.929-7.678 0-10.606-2.929-2.929-7.678-2.929-10.606 0l-8.586 8.586c-3.661-5.662-5.631-12.259-5.631-19.161 0-7.051 2.08-13.621 5.648-19.145l8.57 8.569c1.464 1.465 3.384 2.197 5.303 2.197s3.839-.732 5.303-2.197c2.929-2.929 2.929-7.678 0-10.606l-8.57-8.569c10.088-7.006 26.935-7.605 38.289 0l-8.57 8.57c-2.929 2.929-2.929 7.678 0 10.606 1.465 1.464 3.385 2.197 5.304 2.197s3.839-.732 5.304-2.197l8.569-8.569c3.567 5.524 5.647 12.094 5.647 19.145 0 6.995-2.085 13.573-5.672 19.12l-8.544-8.544c-2.93-2.929-7.678-2.929-10.607 0s-2.929 7.678 0 10.606l8.554 8.553c-4.762 3.09-10.304 5.076-16.275 5.551-4.129.329-7.21 3.942-6.882 8.071.174 2.875 3.395 7.051 8.071 6.882 9.641-.767 18.504-4.29 25.845-9.745l16.361 16.361c.017.018.032.037.049.055l69.422 69.412c-3.288 5.209-5.2 11.371-5.2 17.973 0 18.625 15.152 33.776 33.776 33.776s33.776-15.152 33.776-33.776c-.002-18.627-15.154-33.779-33.778-33.779zm-163.072-314.588c0-10.353 8.423-18.776 18.776-18.776s18.776 8.423 18.776 18.776c0 10.345-8.41 18.762-18.752 18.775-.008 0-.016-.001-.024-.001s-.016.001-.024.001c-10.342-.013-18.752-8.43-18.752-18.775zm-116.82 212.826c-4.818 0-8.738-3.912-8.755-8.726 0-.012.002-.024.002-.036 0-.01-.002-.021-.002-.031.02-4.812 3.939-8.721 8.755-8.721 4.826 0 8.753 3.924 8.757 8.75v.002.007c-.001 4.828-3.93 8.755-8.757 8.755zm279.892 154.314c-10.354 0-18.776-8.423-18.776-18.776s8.423-18.776 18.776-18.776 18.776 8.423 18.776 18.776-8.423 18.776-18.776 18.776z"/><path d="m355.943 113.614c-13.1 0-23.757 10.657-23.757 23.757 0 3.852.927 7.49 2.562 10.711l-32.863 32.854c-2.929 2.929-2.93 7.677-.001 10.607 1.464 1.465 3.384 2.197 5.304 2.197 1.919 0 3.838-.732 5.303-2.196l32.904-32.895c3.18 1.583 6.761 2.479 10.548 2.479 13.1 0 23.757-10.658 23.757-23.757 0-3.789-.896-7.372-2.481-10.553l27.972-27.964c2.929-2.929 2.93-7.677.001-10.606-2.927-2.93-7.676-2.931-10.606-.002l-27.937 27.928c-3.22-1.633-6.855-2.56-10.706-2.56zm0 32.514c-4.828 0-8.757-3.929-8.757-8.757s3.929-8.757 8.757-8.757 8.757 3.928 8.757 8.757-3.929 8.757-8.757 8.757z"/><path d="m111.293 117.307c3.819 0 7.427-.911 10.627-2.519l76.765 76.756c1.465 1.464 3.384 2.196 5.303 2.196s3.839-.732 5.304-2.197c2.929-2.929 2.928-7.678 0-10.607l-76.763-76.754c1.61-3.202 2.522-6.812 2.522-10.633 0-13.1-10.658-23.757-23.757-23.757s-23.757 10.658-23.757 23.758 10.657 23.757 23.756 23.757zm0-32.514c4.829 0 8.757 3.928 8.757 8.757s-3.929 8.757-8.757 8.757-8.757-3.929-8.757-8.757 3.929-8.757 8.757-8.757z"/><path d="m193.047 408.437 41.541-100.287c1.585-3.827-.232-8.214-4.059-9.799-3.826-1.585-8.214.232-9.799 4.059l-41.536 100.276c-12.909-1.15-25.608 10.058-25.454 23.69 0 13.1 10.657 23.757 23.757 23.757s23.757-10.658 23.757-23.757c0-7.157-3.185-13.58-8.207-17.939zm-15.55 26.695c-4.829 0-8.757-3.929-8.757-8.757s3.928-8.757 8.757-8.757c3.632-.24 8.62 3.5 8.757 8.757 0 4.829-3.929 8.757-8.757 8.757z"/><path d="m483.414 237.845c0-13.1-10.657-23.757-23.757-23.757-10.477 0-19.386 6.82-22.535 16.252h-108.563c-4.143 0-7.5 3.358-7.5 7.5s3.357 7.5 7.5 7.5h108.56c3.146 9.437 12.057 16.262 22.538 16.262 13.1 0 23.757-10.658 23.757-23.757zm-23.757 8.757c-4.828 0-8.757-3.929-8.757-8.757s3.929-8.757 8.757-8.757 8.757 3.928 8.757 8.757-3.929 8.757-8.757 8.757z"/><path d="m351.852 93.476c1.264.822 2.682 1.215 4.085 1.215 2.452 0 4.855-1.201 6.293-3.41l17.664-27.138c2.259-3.472 1.276-8.118-2.194-10.377-3.472-2.258-8.117-1.277-10.378 2.194l-17.664 27.138c-2.26 3.473-1.277 8.119 2.194 10.378z"/><path d="m38.837 196.9c-.578 4.102 2.279 7.895 6.381 8.472l30.137 4.243c.354.05.707.074 1.055.074 3.679 0 6.89-2.708 7.417-6.456.578-4.102-2.279-7.895-6.381-8.472l-30.137-4.243c-4.102-.576-7.894 2.281-8.472 6.382z"/><path d="m405.398 207.518c0 4.251 3.446 7.697 7.697 7.697s7.697-3.446 7.697-7.697-3.446-7.697-7.697-7.697-7.697 3.446-7.697 7.697z"/><path d="m347.383 451.394c-4.251 0-7.697 3.446-7.697 7.697s3.446 7.697 7.697 7.697 7.697-3.446 7.697-7.697-3.446-7.697-7.697-7.697z"/><path d="m425.657 77.026c4.251 0 7.697-3.446 7.697-7.697s-3.446-7.697-7.697-7.697-7.697 3.446-7.697 7.697 3.446 7.697 7.697 7.697z"/><ellipse cx="164.923" cy="16.197" rx="7.697" ry="7.697" transform="matrix(.987 -.16 .16 .987 -.465 26.627)"/><path d="m154.543 375.781c0 4.251 3.446 7.697 7.697 7.697s7.697-3.446 7.697-7.697-3.446-7.697-7.697-7.697-7.697 3.446-7.697 7.697z"/><ellipse cx="88.34" cy="408.118" rx="7.697" ry="7.697" transform="matrix(.987 -.16 .16 .987 -64.233 19.42)"/><path d="m42.782 145.932c0-4.251-3.446-7.697-7.697-7.697s-7.697 3.446-7.697 7.697 3.446 7.697 7.697 7.697 7.697-3.447 7.697-7.697z"/><circle cx="476.915" cy="328.805" r="7.697"/></g></g></svg>