<svg height="512pt" viewBox="-126 0 512 512" width="512pt" xmlns="http://www.w3.org/2000/svg"><path d="m250 130c0 16.570312-13.429688 30-30 30h-3.351562c-14.71875 0-26.648438-11.929688-26.648438-26.648438 0-13.089843-3.75-26-10.601562-36.679687l52.140624-30.542969c11.691407 18.5 18.460938 40.410156 18.460938 63.871094zm0 0" fill="#ff637b"/><path d="m231.539062 66.128906-52.140624 30.542969c-.109376-.183594-.21875-.363281-.339844-.542969-7.058594-10.777344-17.296875-19.230468-30.007813-23.179687-6.472656-2.007813-12.871093-2.949219-19.050781-2.949219v-60c42.710938 0 80.28125 22.429688 101.539062 56.128906zm0 0" fill="#fff4ca"/><path d="m128.078125 67.921875v-47.929687c-25.085937 4.257812-47.121094 16.6875-64.078125 34.261718l26.746094 26.746094c10.257812-8.171875 23.230468-13.078125 37.332031-13.078125zm0 0" fill="#ff637b"/><path d="m33.160156 130h36.839844c0-16.539062 6.730469-31.539062 17.589844-42.410156l-27.984375-27.984375c-15.214844 19.8125-24.75 44.34375-26.445313 70.394531zm0 0" fill="#fff4ca"/><path d="m36 470c0 12.703125 7.914062 23.5625 19.070312 27.9375 8.925782-5.199219 14.929688-14.863281 14.929688-25.9375v-63h-34zm0 0" fill="#fff4ca"/><path d="m35 316h35v91h-35zm0 0" fill="#ff637b"/><path d="m34 224h36v92h-36zm0 0" fill="#fff4ca"/><path d="m35 221h35v-91h-34.90625c-.058594 13.589844-.09375 91-.09375 91zm0 0" fill="#ff637b"/><path d="m230 160c0 5.523438-4.476562 10-10 10s-10-4.476562-10-10 4.476562-10 10-10 10 4.476562 10 10zm0 0"/><path d="m250.242188 136.4375c5.519531-.164062 9.863281-4.769531 9.703124-10.289062-2.011718-68.660157-58.164062-126.148438-129.945312-126.148438-72.484375 0-126.976562 60.03125-129.882812 129.609375-.0781255 2.015625-.117188 342.390625-.117188 342.390625 0 22.097656 17.898438 40 40 40 22.054688 0 40-17.945312 40-40v-342c0-27.460938 22.320312-50 50-50 28.246094 0 47.183594 21.144531 49.730469 47.726562.527343 5.496094 5.402343 9.535157 10.910156 9 5.496094-.527343 9.523437-5.410156 9-10.910156-.851563-8.855468-3.1875-17.480468-6.835937-25.40625l35.0625-20.539062c7.445312 14.476562 11.605468 30.496094 12.085937 46.863281.160156 5.519531 4.785156 9.84375 10.289063 9.703125zm-130.242188-115.980469v40.257813c-11.601562 1.65625-22.511719 6.183594-31.902344 13.238281l-27.863281-27.859375c17.640625-15.398438 38.273437-23.742188 59.765625-25.636719zm-60 119.542969v73h-40v-73zm0 93v73h-40v-73zm-40 93h40v73h-40zm40.714844-206h-39.722656c2.824218-21.902344 11.601562-42.480469 25.371093-59.492188l27.589844 27.585938c-7.054687 9.390625-11.582031 20.304688-13.238281 31.90625zm-20.714844 372c-11.046875 0-20-8.953125-20-20v-53h40v53c0 11.027344-8.972656 20-20 20zm100-431.285156v-40.257813c30.59375 2.753907 58.386719 18.066407 77.152344 42.511719l-35.058594 20.535156c-10.925781-12.894531-25.085938-20.410156-42.09375-22.789062zm0 0"/></svg>