<svg id="Capa_1" enable-background="new 0 0 512.084 512.084" height="512" viewBox="0 0 512.084 512.084" width="512" xmlns="http://www.w3.org/2000/svg"><g><g><path d="m255.997 288.85v-62.228c0-18.37-7.774-35.882-21.398-48.204l-36.9-33.374c-13.304-12.033-30.99-18.032-48.87-16.577l-78.383 6.379 130.465 129.478z" fill="#fe646f"/><path d="m234.599 178.418-36.9-33.374c-13.304-12.033-30.99-18.032-48.87-16.577l-7.266.591c12.384 1.944 24.063 7.43 33.522 15.986l36.9 33.374c13.624 12.322 21.398 29.834 21.398 48.204v52.159l22.614 10.069v-62.228c0-18.37-7.773-35.882-21.398-48.204z" fill="#fd4755"/><path d="m116.047 180.108h-54.55c-7.84 0-12.71-8.52-8.72-15.28l9.33-15.82 8.34-14.16z" fill="#fea95c"/><path d="m116.047 180.108h-22.61l-31.33-31.1 8.34-14.16z" fill="#fe9738"/><path d="m255.997 288.85v-62.228c0-18.37 7.774-35.882 21.398-48.204l36.9-33.374c13.304-12.033 30.99-18.032 48.87-16.577l78.383 6.379-130.465 129.477z" fill="#fe646f"/><path d="m363.165 128.467c-5.167-.42-10.314-.199-15.347.591l71.117 5.787-130.466 129.478-32.472 14.458v10.069l55.085-24.527 130.465-129.478z" fill="#fd4755"/><path d="m441.548 134.846 17.673 29.983c3.981 6.754-.888 15.276-8.728 15.276h-54.55z" fill="#fea95c"/><path d="m459.221 164.829-17.673-29.983-14.267 14.159 9.327 15.824c3.981 6.754-.888 15.276-8.728 15.276h22.614c7.839 0 12.708-8.522 8.727-15.276z" fill="#fe9738"/><path d="m255.997 288.85-52.635-43.678c-17.134-14.219-38.7-22.001-60.965-22.001h-54.486c-27.799 0-53.249 15.591-65.877 40.356l-13.655 26.779c-3.268 6.408 3.11 13.461 9.814 10.853l32.675-12.713c5.991-2.331 12.43-3.284 18.839-2.789l134.916 10.42z" fill="#fc8b96"/><g><path d="m203.362 245.172c-17.134-14.219-38.7-22.001-60.965-22.001h-22.614c22.265 0 43.831 7.782 60.965 22.001l52.635 43.678-43.359 6.099 14.598 1.127 51.374-7.226z" fill="#fe646f"/></g><path d="m255.997 288.85 52.635-43.678c17.134-14.219 38.7-22.001 60.965-22.001h54.487c27.799 0 53.249 15.591 65.877 40.356l13.655 26.779c3.268 6.408-3.11 13.461-9.814 10.853l-32.675-12.713c-5.991-2.331-12.43-3.284-18.839-2.789l-134.916 10.42z" fill="#fc8b96"/><g><path d="m503.615 290.306-13.655-26.779c-12.628-24.765-38.078-40.356-65.877-40.356h-27.9c29.527 1.982 57.516 10.349 71.161 40.359.002-.003 13.656 26.775 13.656 26.775 1.054 2.066 1.094 4.195.455 6.05l12.345 4.803c6.705 2.609 13.083-4.444 9.815-10.852z" fill="#fe646f"/></g><path d="m202.705 100.086c-7.787 0-14.099-6.312-14.099-14.099v-26.29c0-7.787 6.312-14.099 14.099-14.099 7.787 0 14.099 6.312 14.099 14.099v26.29c0 7.787-6.312 14.099-14.099 14.099z" fill="#fea95c"/><path d="m309.568 100.086c-7.787 0-14.099-6.312-14.099-14.099v-26.29c0-7.787 6.312-14.099 14.099-14.099 7.787 0 14.099 6.312 14.099 14.099v26.29c0 7.787-6.312 14.099-14.099 14.099z" fill="#fea95c"/><g><path d="m255.997 288.85 21.207-9.442c21.656-9.642 46.294-10.098 68.291-1.262l21.292 8.552c33.596 13.494 57.185 44.202 61.562 80.141l10.635 87.328c1.077 8.841-8.265 15.218-16.107 10.996l-89.756-48.328c-21.723-11.697-38.616-30.692-47.696-53.633z" fill="#fe646f"/><path d="m438.984 454.167-10.635-87.328c-4.377-35.939-27.966-66.647-61.562-80.141l-21.292-8.552c-14.044-5.641-29.162-7.476-43.895-5.57 7.238.947 14.389 2.802 21.282 5.57l21.292 8.552c33.596 13.494 57.185 44.202 61.562 80.141l10.635 87.328c.307 2.52-.235 4.838-1.344 6.769l7.851 4.228c7.841 4.221 17.183-2.157 16.106-10.997z" fill="#fd4755"/><path d="m255.997 288.85-21.207-9.442c-21.656-9.642-46.294-10.098-68.291-1.262l-21.292 8.552c-33.596 13.494-57.185 44.202-61.562 80.141l-10.635 87.328c-1.077 8.841 8.265 15.218 16.107 10.996l89.756-48.328c21.723-11.697 38.616-30.692 47.696-53.633z" fill="#fe646f"/><path d="m234.79 279.408c-14.87-6.621-31.147-8.909-47.01-6.833 8.344 1.079 16.566 3.346 24.396 6.833l21.207 9.442-29.429 74.352c-9.08 22.941-25.973 41.936-47.696 53.633l-81.904 44.101c2.784 4.845 9.156 7.246 14.762 4.228l89.756-48.328c21.723-11.697 38.616-30.692 47.696-53.633l29.429-74.352z" fill="#fd4755"/></g><path d="m256.136 147.266c-7.787 0-14.099-6.312-14.099-14.099v-26.29c0-7.787 6.312-14.099 14.099-14.099 7.787 0 14.099 6.312 14.099 14.099v26.29c.001 7.786-6.312 14.099-14.099 14.099z" fill="#fea95c"/></g><g><path d="m510.298 286.9-13.659-26.777c-13.971-27.421-41.771-44.455-72.553-44.455h-53.323l28.274-28.062h51.455c12.557.378 22.194-14.609 15.189-26.585l-17.673-29.983c-.984-1.573-2.956-3.47-5.854-3.665l-78.378-6.38c-7.08-.578-14.187-.114-21.125 1.378-4.05.871-6.626 4.86-5.756 8.909.871 4.05 4.857 6.629 8.909 5.756 11.19-3.595 66.724 3.68 78.894 3.965l-77.803 77.223c-24.195 4.439-45.152 22.322-62.702 37.481l18.441-31.353c9.442-16.054 14.433-34.383 14.433-53.007v-65.103c8.223-3.055 14.099-10.981 14.099-20.255v-26.29c0-11.91-9.689-21.599-21.6-21.599-11.91 0-21.599 9.689-21.599 21.599v26.29c0 9.274 5.876 17.2 14.1 20.255v39.753c-7.528 7.23-32.743 28.332-38.571 36.516v-29.038c8.296-3.017 14.238-10.98 14.238-20.306v-26.29c0-11.91-9.689-21.599-21.599-21.599s-21.6 9.689-21.6 21.599v26.29c0 9.221 5.81 17.107 13.96 20.199v29.145c-4.824-7.207-32.017-30.207-38.571-36.516v-39.654c8.369-2.978 14.378-10.976 14.378-20.354v-26.29c0-11.91-9.689-21.599-21.6-21.599-11.91 0-21.599 9.689-21.599 21.599v26.29c0 9.168 5.744 17.015 13.821 20.145v27.243c-13.61-9.263-30.157-13.738-46.708-12.383l-78.38 6.38c-1.985.255-4.283 1.061-5.854 3.665l-17.67 29.983c-6.652 10.38 1.372 26.773 15.189 26.585h51.455l28.274 28.062h-53.323c-30.781 0-58.582 17.034-72.551 44.452l-13.66 26.779c-2.916 5.716-2.02 12.483 2.282 17.242 2.983 3.3 7.091 5.068 11.325 5.068 13.876-1.635 38.702-17.757 53.827-16.074l44.958 3.47c-20.714 17.164-34.537 41.816-37.888 69.326l-10.635 87.33c-.838 6.883 2.198 13.587 7.925 17.497 3.141 2.145 6.77 3.229 10.414 3.229 3 0 6.012-.735 8.769-2.22l89.755-48.329c23.245-12.516 41.398-32.928 51.114-57.476l22.455-56.733 22.455 56.733c9.716 24.548 27.869 44.959 51.114 57.476l89.755 48.329c10.846 6.803 29.451-3.235 27.107-18.506l-10.635-87.329c-4.708-38.653-30.078-71.681-66.211-86.193-22.544-10.115-49.089-19.402-74.313-13.732 20.133-18.515 45.379-36.421 74.328-35.338h54.49c25.111 0 47.791 13.896 59.189 36.268l13.661 26.78c-13.696-2.83-39.293-18.193-55.227-15.536l-25.544 1.972c-4.13.318-7.219 3.925-6.9 8.055s3.938 7.23 8.055 6.9l25.55-1.972c10.368-2.008 38.422 11.831 48.208 15.012 10.75 5.141 26.302-8.421 19.219-21.247zm-207.33-227.203c0-3.639 2.96-6.599 6.6-6.599 3.639 0 6.599 2.96 6.599 6.599v26.29c0 3.639-2.96 6.6-6.599 6.6-3.639 0-6.599-2.96-6.599-6.6v-26.29zm-20.54 124.283 19.64-17.761c.745 16.737-3.43 35.568-12.363 50.528l-26.208 44.558v-34.688c0-16.222 6.9-31.762 18.931-42.637zm-32.891-77.103c0-3.639 2.96-6.599 6.6-6.599 3.639 0 6.599 2.96 6.599 6.599v26.29c0 3.639-2.96 6.599-6.599 6.599s-6.6-2.96-6.6-6.599zm-19.969 77.105c12.03 10.874 18.929 26.414 18.929 42.636v34.688l-26.208-44.558c-8.701-14.354-13.055-33.237-12.363-50.528zm-33.462-124.285c0-3.639 2.96-6.599 6.599-6.599s6.6 2.96 6.6 6.599v26.29c0 3.639-2.96 6.6-6.6 6.6-3.639 0-6.599-2.96-6.599-6.6zm-46.668 76.246c16.042-1.486 33.664 5.017 45.489 16.711-1.045 24.044 1.173 50.467 14.433 71.698l18.441 31.352-19.655-16.309c-12.534-10.397-27.334-17.609-43.047-21.171l-77.803-77.223zm-87.937 36.662c-1.455-.283-3.092-.802-2.267-3.968l12.775-21.673 25.834 25.641zm8.789 105.575c-15.06-2.96-42.682 13.154-55.232 15.535l13.662-26.783c11.397-22.369 34.076-36.265 59.188-36.265h54.49c20.464 0 40.413 7.2 56.171 20.272l18.156 15.066c-28.395-6.233-56.43 5.516-81.925 17.155zm149.305 82.262c-8.417 21.265-24.142 38.947-44.278 49.789l-89.755 48.329c-1.683.905-3.087.169-3.613-.19s-1.724-1.398-1.493-3.295l10.635-87.329c4.046-33.225 25.854-61.613 56.913-74.088 24.584-11.454 53.358-20.32 80.317-8.811-15.303 3.479-34.995 10.411-54.029 24.219-3.353 2.432-4.099 7.122-1.667 10.475 1.467 2.023 3.756 3.097 6.077 3.097 1.526 0 3.067-.465 4.397-1.43 23.065-16.731 47.645-22.213 61.526-24zm123.105-75.337 21.292 8.552c31.059 12.475 52.866 40.863 56.913 74.088l10.635 87.329c-.181 1.801-.31 4.325-5.106 3.486l-89.755-48.329c-20.137-10.842-35.861-28.524-44.278-49.789l-25.035-63.251c21.245 2.712 68.017 14.164 96.242 62.47 1.395 2.387 3.904 3.718 6.482 3.717 1.285 0 2.587-.331 3.777-1.025 3.576-2.089 4.782-6.683 2.692-10.259-21.731-37.192-53.274-54.45-75.91-62.378-6.038-2.115-11.76-3.694-16.971-4.876 18.869-7.359 40.171-7.306 59.022.265zm110.078-113.826c-.283.496-.956 1.326-2.285 1.326h-36.342l25.834-25.641 12.775 21.673c.675 1.145.301 2.147.018 2.642z"/><path d="m158.2 333.31c-3.232-2.59-7.953-2.068-10.542 1.166-4.384 5.474-8.449 11.401-12.082 17.619-2.09 3.577-.884 8.169 2.692 10.259 1.189.695 2.492 1.025 3.777 1.025 2.578 0 5.088-1.331 6.482-3.717 3.264-5.586 6.911-10.905 10.838-15.809 2.59-3.234 2.068-7.953-1.165-10.543z"/></g></g></svg>