<svg id="Capa_1" enable-background="new 0 0 512.057 512.057" height="512" viewBox="0 0 512.057 512.057" width="512" xmlns="http://www.w3.org/2000/svg"><g><g><g><g><path d="m268.013 488.78-2.2 5.618c-3.504 8.946-16.164 8.946-19.668 0l-2.2-5.618c-19.926-50.875-30.153-105.03-30.153-159.667h84.376c-.001 54.638-10.228 108.793-30.155 159.667z" fill="#bbf49b"/></g><path d="m276.427 329.113c0 54.638-5.181 93.647-25.107 144.521l-2.2 5.618c-1.258 3.212-3.702 5.251-6.473 6.156.43 1.125.859 2.25 1.298 3.372l2.2 5.618c3.504 8.946 16.164 8.946 19.668 0l2.2-5.618c19.926-50.875 30.154-105.03 30.154-159.667z" fill="#9be69d"/><g><path d="m268.013 23.222-2.2-5.618c-3.504-8.946-16.164-8.946-19.668 0l-2.2 5.618c-19.926 50.875-30.153 105.03-30.153 159.667h84.376c-.001-54.637-10.228-108.792-30.155-159.667z" fill="#bbf49b"/></g><path d="m268.013 23.222-2.2-5.618c-3.504-8.946-16.164-8.946-19.668 0l-2.2 5.618c-.214.546-.42 1.094-.631 1.64 2.417 1.025 4.501 2.965 5.63 5.847l2.2 5.618c19.926 50.875 25.284 91.924 25.284 146.562h21.74c-.001-54.637-10.228-108.792-30.155-159.667z" fill="#9be69d"/></g><g><g><path d="m182.869 213.811v84.38c-10.47 0-20.93-.38-31.35-1.13-43.93-3.15-87.19-12.92-128.32-29.03l-5.62-2.2c-8.94-3.5-8.94-16.16 0-19.66l5.62-2.2c41.13-16.11 84.39-25.88 128.32-29.03 10.42-.75 20.88-1.13 31.35-1.13z" fill="#bbf49b"/></g><path d="m182.869 213.811v84.38c-10.47 0-20.93-.38-31.35-1.13l-25.05-25.05c-8.84-8.84-8.84-23.18 0-32.02l25.05-25.05c10.42-.75 20.88-1.13 31.35-1.13z" fill="#9be69d"/><g><path d="m488.758 268.036 5.618-2.2c8.946-3.504 8.946-16.164 0-19.668l-5.618-2.2c-50.875-19.926-105.03-30.153-159.667-30.153v84.376c54.637-.002 108.792-10.229 159.667-30.155z" fill="#bbf49b"/></g><path d="m494.375 246.167-5.617-2.2c-50.875-19.926-105.03-30.153-159.667-30.153v.546c47.226 2.348 93.81 12.328 137.927 29.608l5.617 2.2c8.947 3.504 8.947 16.164 0 19.668l-5.617 2.2c-44.117 17.279-90.701 27.26-137.927 29.608v.546c54.638 0 108.792-10.227 159.667-30.154l5.617-2.2c8.947-3.505 8.947-16.165 0-19.669z" fill="#9be69d"/></g><path d="m363.749 272.011-7.41 7.41-84.35 84.35c-2.95 2.95-6.52 4.92-10.29 5.89-7.52 1.96-15.84 0-21.73-5.89l-91.76-91.76c-8.84-8.84-8.84-23.18 0-32.02l91.76-91.76c5.89-5.89 14.21-7.85 21.73-5.89 3.77.97 7.34 2.94 10.29 5.89l91.76 91.76c8.84 8.84 8.84 23.18 0 32.02z" fill="#8379c1"/><g fill="#6e61b6"><path d="m356.339 232.581c-10.35 3.01-21.1 3.72-31.54 2.26-15.91-2.22-31.08-9.5-43-21.43-18.88-18.88-26.11-45.91-20.1-71.07 3.77.97 7.34 2.94 10.29 5.89z"/><path d="m356.339 279.421-84.35 84.35c-2.95 2.95-6.52 4.92-10.29 5.89-6.01-25.16 1.22-52.19 20.1-71.07 19.75-19.75 48.42-26.76 74.54-19.17z"/><path d="m363.745 239.994-91.759-91.759c-7.281-7.281-18.282-8.551-26.878-3.838 1.841 1.009 3.578 2.279 5.138 3.838l91.759 91.759c8.841 8.841 8.841 23.175 0 32.015l-91.759 91.759c-1.56 1.56-3.296 2.829-5.138 3.838 8.596 4.712 19.596 3.443 26.878-3.838l91.759-91.759c8.841-8.841 8.841-23.175 0-32.015z"/></g><g><g><path d="m142.853 469.821c-1.214.425-104.679 33.524-104.679 33.524-18.188 5.827-35.365-11.35-29.538-29.538 0 0 33.099-103.466 33.524-104.68 10.136-29.275 30.358-53.847 56.477-70.154 3.51-2.195 7.122-4.249 10.844-6.13l16.145-8.214c29.195-14.83 64.61-9.195 87.766 13.96 23.155 23.155 28.79 58.571 13.96 87.766l-8.214 16.145c-1.882 3.723-3.935 7.334-6.13 10.844-16.308 26.119-40.88 46.341-70.155 56.477z" fill="#ffceec"/><path d="m213.391 298.589c-17.221-17.221-41.222-24.741-64.403-21.37 15.779 2.285 30.824 9.531 42.663 21.37 23.155 23.155 28.79 58.571 13.96 87.766l-8.214 16.145c-1.882 3.723-3.935 7.334-6.13 10.844-16.307 26.119-40.879 46.341-70.154 56.477-1.068.374-81.339 26.057-100.564 32.207 5.144 2.589 11.323 3.336 17.624 1.317 0 0 103.465-33.099 104.68-33.524 29.275-10.136 53.847-30.358 70.154-56.477 2.195-3.51 4.249-7.122 6.13-10.844l8.214-16.145c14.83-29.195 9.196-64.611-13.96-87.766z" fill="#ffbee6"/><path d="m213.007 413.344c-21.142-1.639-41.829-10.531-58.005-26.706l-29.66-29.66c-16.175-16.175-25.067-36.862-26.706-58.005 3.51-2.195 7.122-4.249 10.844-6.13l16.145-8.214c29.195-14.83 64.61-9.195 87.766 13.96 23.155 23.155 28.79 58.571 13.96 87.766l-8.214 16.145c-1.882 3.722-3.935 7.334-6.13 10.844z" fill="#fe646f"/><path d="m213.391 298.589c-17.221-17.221-41.222-24.741-64.403-21.37 15.779 2.285 30.824 9.531 42.663 21.37 23.155 23.155 28.79 58.571 13.96 87.766l-8.214 16.145c-1.236 2.445-2.553 4.837-3.928 7.189 6.386 1.925 12.94 3.144 19.538 3.655 2.195-3.51 4.249-7.122 6.13-10.844l8.214-16.145c14.83-29.195 9.196-64.611-13.96-87.766z" fill="#fd4755"/></g><g><path d="m469.799 142.875c.425-1.214 33.524-104.68 33.524-104.68 5.827-18.188-11.35-35.365-29.538-29.538 0 0-103.466 33.099-104.68 33.524-29.275 10.136-53.847 30.358-70.154 56.477-2.195 3.51-4.249 7.122-6.13 10.844l-8.214 16.145c-14.83 29.195-9.195 64.61 13.96 87.766s58.571 28.79 87.766 13.96l16.145-8.214c3.723-1.882 7.334-3.935 10.844-6.13 26.119-16.307 46.34-40.878 56.477-70.154z" fill="#ffceec"/><path d="m473.784 8.658s-1.499.479-4.116 1.317c9.703 4.884 15.722 16.335 11.914 28.222 0 0-33.099 103.465-33.524 104.68-10.136 29.275-30.358 53.847-56.477 70.154-3.51 2.195-7.122 4.249-10.844 6.13l-16.145 8.214c-7.482 3.801-15.375 6.248-23.363 7.41 15.083 2.185 30.835-.162 45.103-7.41l16.145-8.214c3.722-1.882 7.334-3.935 10.844-6.13 26.119-16.307 46.341-40.878 56.477-70.154.425-1.214 33.524-104.68 33.524-104.68 5.827-18.189-11.349-35.366-29.538-29.539z" fill="#ffbee6"/><path d="m413.319 213.031c-3.51 2.19-7.12 4.25-10.84 6.13l-16.15 8.21c-14.16 7.19-29.78 9.57-44.76 7.47-15.91-2.22-31.08-9.5-43-21.43-23.16-23.15-28.79-58.57-13.96-87.76l8.21-16.15c1.88-3.72 3.94-7.33 6.13-10.84 21.14 1.64 41.83 10.53 58.01 26.7l29.66 29.66c12.41 12.42 20.53 27.5 24.37 43.39 1.18 4.82 1.95 9.71 2.33 14.62z" fill="#fe646f"/><path d="m413.319 213.031c-3.51 2.19-7.12 4.25-10.84 6.13l-16.15 8.21c-14.16 7.19-29.78 9.57-44.76 7.47-.12-.02-.23-.04-.34-.06 7.99-1.16 15.88-3.61 23.36-7.41l16.15-8.21c3.72-1.88 7.33-3.94 10.84-6.13 6.91-4.31 13.41-9.21 19.41-14.62 1.18 4.82 1.95 9.71 2.33 14.62z" fill="#fd4755"/></g><g><path d="m42.159 142.875c-.425-1.214-33.524-104.68-33.524-104.68-5.827-18.187 11.35-35.364 29.539-29.537 0 0 103.466 33.099 104.68 33.524 29.275 10.136 53.847 30.358 70.154 56.477 2.195 3.51 4.249 7.122 6.13 10.844l8.214 16.145c14.83 29.195 9.195 64.61-13.96 87.766s-58.571 28.79-87.766 13.96l-16.145-8.214c-3.723-1.882-7.334-3.935-10.844-6.13-26.12-16.308-46.342-40.879-56.478-70.155z" fill="#ffceec"/><path d="m227.351 125.648-8.214-16.145c-1.882-3.723-3.935-7.334-6.13-10.844-16.307-26.119-40.878-46.341-70.154-56.477-1.214-.425-104.68-33.524-104.68-33.524-7.066-2.264-13.973-1.045-19.445 2.346 3.009-.274 6.163.027 9.353 1.048 57.526 20.212 142.996 31.82 169.314 97.453 37.318 53.17 5.068 117.849-47.747 125.366 22.976 3.135 46.686-4.4 63.744-21.458 23.155-23.155 28.789-58.57 13.959-87.765z" fill="#ffbee6"/><path d="m98.636 213.029c1.639-21.142 10.531-41.829 26.706-58.005l29.66-29.66c16.175-16.175 36.862-25.067 58.005-26.706 2.195 3.51 4.249 7.122 6.13 10.844l8.214 16.145c14.83 29.195 9.195 64.61-13.96 87.766s-58.571 28.79-87.766 13.96l-16.145-8.214c-3.722-1.881-7.333-3.935-10.844-6.13z" fill="#fe646f"/><path d="m227.351 125.648-8.214-16.145c-1.882-3.723-3.935-7.334-6.13-10.844-6.391.495-12.737 1.665-18.933 3.487 1.188 2.378 2.304 4.824 3.321 7.36 37.318 53.17 5.068 117.849-47.747 125.366 22.976 3.135 46.686-4.4 63.744-21.458 23.155-23.156 28.789-58.571 13.959-87.766z" fill="#fd4755"/></g><g><path d="m369.105 469.821c1.214.425 104.68 33.524 104.68 33.524 18.188 5.827 35.365-11.35 29.538-29.538 0 0-33.099-103.466-33.524-104.68-10.136-29.275-30.358-53.847-56.477-70.154-3.51-2.195-7.122-4.249-10.844-6.13l-16.145-8.214c-29.195-14.83-64.61-9.195-87.766 13.96-23.155 23.155-28.79 58.571-13.96 87.766l8.214 16.145c1.882 3.723 3.935 7.334 6.13 10.844 16.307 26.119 40.878 46.341 70.154 56.477z" fill="#ffceec"/><path d="m503.323 473.807s-33.099-103.466-33.524-104.679c-10.136-29.275-30.358-53.847-56.477-70.154-3.51-2.195-7.122-4.249-10.844-6.13l-16.145-8.214c-14.381-7.305-30.27-9.634-45.462-7.36 13.311 1.55 26.928 6.498 39.864 15.577 65.634 26.317 80.636 123.434 100.848 180.961 3.808 11.887-2.211 23.338-11.914 28.222 2.617.837 4.115 1.317 4.115 1.317 18.189 5.825 35.365-11.352 29.539-29.54z" fill="#ffbee6"/><path d="m298.951 413.344c21.142-1.639 41.829-10.531 58.005-26.706l29.66-29.66c16.175-16.175 25.067-36.862 26.706-58.005-3.51-2.195-7.122-4.249-10.844-6.13l-16.145-8.214c-29.195-14.83-64.61-9.195-87.766 13.96-23.155 23.155-28.79 58.571-13.96 87.766l8.214 16.145c1.881 3.722 3.935 7.334 6.13 10.844z" fill="#fe646f"/><path d="m380.735 292.846c11.625 4.661 21.655 11.552 30.413 20.042 1.073-4.588 1.811-9.238 2.174-13.915-3.51-2.195-7.122-4.249-10.844-6.13l-16.145-8.214c-14.381-7.305-30.27-9.634-45.462-7.36 13.311 1.55 26.927 6.497 39.864 15.577z" fill="#fd4755"/></g></g><circle cx="255.979" cy="256.001" fill="#fe646f" r="24.076"/><path d="m255.979 231.925c-3.913 0-7.604.939-10.87 2.595 7.834 3.972 13.206 12.096 13.206 21.481 0 9.384-5.372 17.508-13.206 21.481 3.266 1.656 6.957 2.595 10.87 2.595 13.297 0 24.076-10.779 24.076-24.076 0-13.296-10.779-24.076-24.076-24.076z" fill="#fe646f"/></g><g><path d="m510.466 471.521c-7.772-24.294-33.164-103.656-33.581-104.848-9.872-28.514-29.177-53.471-54.666-70.844 24.758-5.216 51.04-13.395 74.894-23.014 6.968-2.728 11.47-9.328 11.47-16.814s-4.502-14.086-11.471-16.814c0 0-37.594-13.68-53.914-18.006-3.999-1.061-8.109 1.323-9.172 5.328-1.061 4.003 1.324 8.11 5.328 9.171 15.77 4.181 52.29 17.475 52.29 17.475 1.688.661 1.938 2.067 1.938 2.846s-.251 2.186-1.938 2.846c-27.995 11.362-59.112 20.382-89.252 25.538-8.79-4.453-18.666-10.015-28.93-12.667 5.223-8.366 6.223-21.518.006-31.425 14.698-4.328 29.384-12.652 43.83-20.907 27.927-17.437 49.088-43.738 59.585-74.057.668-1.975 25.848-80.673 33.58-104.845 8.022-23.321-15.747-46.725-38.966-38.97-24.295 7.772-103.657 33.163-104.849 33.58-28.513 9.872-53.47 29.177-70.844 54.667-5.046-23.59-12.014-46.815-20.814-69.273-2.232-8.492-8.775-17.088-19.014-17.091-9.179-.426-16.71 8.08-19.014 17.089-8.799 22.46-15.768 45.685-20.814 69.275-17.373-25.491-42.328-44.794-70.818-54.659-.235-.082-.673-.235-31.952-10.251-3.947-1.265-8.167.911-9.43 4.855-1.264 3.945.91 8.167 4.855 9.43 25.21 8.073 31.118 9.973 31.595 10.132 23.478 8.129 44.269 23.455 59.573 43.69-18.947 3.921-36.467 13.297-50.273 27.103l-9.526 9.526-57.558-57.558c-2.93-2.929-7.678-2.929-10.607 0s-2.929 7.678 0 10.606l57.559 57.559-9.527 9.527c-13.806 13.807-23.182 31.328-27.103 50.273-20.233-15.302-35.559-36.089-43.676-59.533-.647-1.94-22.185-69.237-33.482-104.554-1.862-5.814-.396-11.864 3.924-16.184 4.319-4.319 10.37-5.786 16.187-3.923l39.834 12.746c3.949 1.263 8.167-.912 9.43-4.857 1.262-3.945-.912-8.167-4.857-9.429l-39.835-12.745c-11.1-3.557-23.12-.643-31.366 7.603s-11.159 20.265-7.603 31.363c7.772 24.294 33.164 103.656 33.581 104.848 9.872 28.514 29.177 53.472 54.666 70.844-23.588 5.046-46.813 12.014-69.273 20.814-8.492 2.23-17.087 8.776-17.091 19.014-.426 9.179 8.079 16.709 17.088 19.013 22.462 8.801 45.688 15.77 69.276 20.815-25.491 17.375-44.794 42.33-54.658 70.82-.425 1.215-25.816 80.577-33.588 104.869-7.541 23.853 15.099 46.52 38.966 38.97 24.176-7.734 102.883-32.916 104.849-33.58 28.513-9.872 53.469-29.177 70.844-54.666 5.046 23.589 12.014 46.815 20.814 69.273 2.232 8.492 8.775 17.088 19.014 17.091 9.179.426 16.71-8.08 19.014-17.089 8.799-22.46 15.768-45.685 20.814-69.275 17.376 25.491 42.333 44.794 70.844 54.666 1.966.665 80.673 25.846 104.846 33.58 23.758 8.053 46.833-16.398 38.968-38.967zm-152.02-226.226c6.265 5.993 5.687 17.535-2.294 23.707-22.931-1.143-45.858 7.254-62.888 24.284-17.029 17.03-25.427 39.956-24.283 62.888-6.45 8.487-19.23 8.722-26.002.001 1.143-22.931-7.254-45.858-24.283-62.889-17.029-17.029-39.955-25.426-62.887-24.282-8.138-6.087-9.188-18.823-.009-25.995 22.092 1.299 46.246-7.467 62.896-24.291 17.029-17.03 25.427-39.956 24.283-62.888 6.451-8.486 19.231-8.722 26.002-.001-1.143 22.931 7.254 45.858 24.283 62.889 16.689 16.687 39.856 25.456 62.896 24.291zm-137.78 137.659c-4.236 8.118-6.73 13.72-11.633 22.435-18.389-2.435-35.548-10.875-48.727-24.054l-9.527-9.526 32.574-32.574c2.929-2.929 2.929-7.678 0-10.606s-7.677-2.93-10.607 0l-32.574 32.574-9.527-9.526c-13.18-13.18-21.62-30.34-24.054-48.727 31.479-17.852 64.219-32.857 101.496.945 20.866 20.766 25.807 52.72 12.579 79.059zm162.27-162.267c-24.229 12.763-58.689 8.741-79.065-12.576-14.607-14.607-21.467-34.507-19.724-54.164 1.035-15.952 10.919-32.583 18.779-47.333 18.389 2.435 35.548 10.875 48.727 24.054l9.527 9.527-32.574 32.574c-2.929 2.929-2.929 7.678 0 10.606 1.465 1.464 3.384 2.197 5.304 2.197 1.919 0 3.839-.732 5.304-2.197l32.573-32.573 9.526 9.526c13.18 13.18 21.62 30.339 24.054 48.727-.759.673-20.27 10.534-22.431 11.632zm-11.418-171.404c1.939-.648 69.238-22.185 104.555-33.482 10.249-4.045 24.619 7.326 20.106 20.111-11.269 35.226-32.726 102.275-33.477 104.535-8.131 23.468-23.453 44.249-43.681 59.548-3.92-18.945-13.297-36.465-27.103-50.272l-9.527-9.527 57.559-57.559c2.929-2.929 2.929-7.678 0-10.606-2.93-2.929-7.678-2.929-10.607 0l-57.559 57.559-9.526-9.526c-13.806-13.806-31.327-23.183-50.273-27.103 15.303-20.236 36.09-35.561 59.533-43.678zm-120.585-23.328c1.58-4.387 2.284-7.559 5.046-7.559 2.776 0 4.04 4.536 5.047 7.561 9.148 27.498 18.413 55.106 23.338 83.629-4.453 8.79-10.014 18.666-12.667 28.93-8.371-5.225-21.526-6.222-31.435 0-1.751-8.012-8.714-21.331-12.667-28.93 4.924-28.523 12.766-56.647 23.338-83.631zm-120.287 134.373 9.527-9.526 32.574 32.574c1.465 1.464 3.385 2.197 5.304 2.197s3.839-.732 5.304-2.197c2.929-2.929 2.929-7.678 0-10.606l-32.574-32.574 9.527-9.526c13.179-13.18 30.338-21.62 48.727-24.054 24.201 38.033 26.167 73.876-.946 101.497-35.262 31.942-67.531 20.77-101.496.945 2.433-18.39 10.873-35.55 24.053-48.73zm-112.272 95.673c0-2.661 4.139-3.846 7.561-5.047 27.347-9.595 55.108-18.414 83.629-23.338 8.79 4.45 18.665 10.018 28.923 12.678-5.22 8.37-6.213 21.519.007 31.425-8.012 1.751-21.331 8.713-28.93 12.667-28.521-4.924-56.644-12.765-83.632-23.339 0 0-7.558-2.169-7.558-5.046zm122.049 206.724c-2.268.753-69.312 22.208-104.538 33.477-11.07 3.988-24.194-7.458-20.106-20.111 11.297-35.314 32.834-102.611 33.468-104.511 8.129-23.478 23.454-44.269 43.689-59.573 3.92 18.945 13.297 36.466 27.103 50.273l9.527 9.527-57.559 57.559c-2.929 2.929-2.929 7.678 0 10.606 1.465 1.465 3.384 2.197 5.304 2.197 1.919 0 3.839-.732 5.304-2.197l57.559-57.559 9.526 9.526c13.806 13.806 31.327 23.183 50.273 27.103-15.299 20.229-36.081 35.552-59.55 43.683zm121.429 23.089c-1.138 2.906-2.816 7.87-5.873 7.792-1.94-.05-4.463-5.464-5.047-7.561-10.572-26.982-18.413-55.106-23.338-83.629 4.453-8.79 10.015-18.666 12.667-28.93 8.371 5.225 21.526 6.222 31.435 0 1.751 8.012 8.714 21.331 12.667 28.93-4.924 28.523-13.059 56.087-22.511 83.398zm230.404 6.464c-4.318 4.32-10.368 5.789-16.187 3.923-35.224-11.268-102.268-32.723-104.535-33.476-23.468-8.131-44.25-23.454-59.548-43.681 18.947-3.921 36.467-13.297 50.272-27.103l9.527-9.527 57.559 57.559c1.465 1.465 3.384 2.197 5.304 2.197 1.919 0 3.839-.732 5.304-2.197 2.929-2.929 2.929-7.678 0-10.606l-100.739-100.74c-2.929-2.929-7.677-2.93-10.607 0-2.929 2.929-2.929 7.678 0 10.606l32.574 32.574-9.527 9.526c-13.179 13.18-30.338 21.62-48.727 24.054-24.208-38.046-26.163-73.874.946-101.497 35.265-31.942 67.533-20.769 101.497-.944-1.867 14.164-7.263 27.59-15.74 39.073-2.46 3.333-1.753 8.028 1.58 10.488 3.33 2.46 8.027 1.753 10.488-1.579 8.558-11.593 14.437-24.865 17.331-38.918 20.231 15.301 35.554 36.087 43.671 59.529.647 1.94 22.185 69.237 33.482 104.554 1.861 5.816.395 11.865-3.925 16.185z"/><path d="m255.979 224.425c-17.411 0-31.576 14.165-31.576 31.576s14.165 31.576 31.576 31.576 31.576-14.165 31.576-31.576-14.165-31.576-31.576-31.576zm0 48.153c-9.14 0-16.576-7.436-16.576-16.576s7.437-16.576 16.576-16.576c9.14 0 16.576 7.436 16.576 16.576 0 9.139-7.436 16.576-16.576 16.576z"/></g></g></svg>