<svg height="512pt" viewBox="0 -46 512 512" width="512pt" xmlns="http://www.w3.org/2000/svg"><path d="m226.066406 129.527344 8.132813-58.378906v-.019532c-17.15625-30.421875-47.210938-52.589844-82.746094-59.128906h-21.054687c0 57.933594 41.0625 106.28125 95.667968 117.527344zm0 0" fill="#7fe881"/><path d="m405.652344 19.175781c-36.574219 1.90625-68.824219 20.183594-89.53125 47.664063-.0625.082031-.121094.160156-.179688.238281-3.75 4.992187-7.121094 10.292969-10.0625 15.851563l.359375.558593 11.964844 42.132813c47.792969-13.28125 83.589844-55.40625 87.449219-106.445313zm0 0" fill="#7fe881"/><path d="m87.039062 350h378.960938l-40.359375-147.992188-298.242187-.007812zm0 0" fill="#ff637b"/><path d="m502 350c-16.453125 0-304.195312 0-432 0 0 33.140625 26.859375 60 60 60h312c33.140625 0 60-26.859375 60-60zm0 0" fill="#fff4ca"/><path d="m418.058594 174.210938c-4.28125-15.695313-14.566406-28.496094-27.96875-36.210938-47.910156 0-159.886719 0-201.660156 0-27.058594 0-50.769532 18.109375-57.890626 44.210938l-7.539062 27.640624-10 39.148438s32.113281 2.734375 36.300781 7.890625c9.894531-4.902344 16.699219-15.097656 16.699219-26.890625 0-16.570312 13.429688-30 30-30 9.40625 0 17.800781 4.332031 23.300781 11.109375 4.007813-1.988281 13.921875 43.890625 18.699219 43.890625l31.300781 1.890625c9.894531-4.902344 16.699219-15.097656 16.699219-26.890625 0-16.570312 13.429688-30 30-30 9.40625 0 17.800781 4.332031 23.300781 11.109375 4.007813-1.988281 10.921875 42.890625 15.699219 42.890625l34.300781 2.890625c9.894531-4.902344 16.699219-15.097656 16.699219-26.890625 0-12.910156 8.148438-23.921875 19.601562-28.140625zm0 0" fill="#ffa2c3"/><g fill="#ff637b"><path d="m286 70c-16.394531 0-30 13.296875-30 30 0 16.570312 13.429688 30 30 30s30-13.429688 30-30c0-16.503906-13.359375-30-30-30zm0 0"/><path d="m256 70c16.476562 0 30-13.355469 30-30 0-16.570312-13.429688-30-30-30s-30 13.429688-30 30 13.429688 30 30 30zm0 0"/><path d="m226 70c-16.449219 0-30 13.324219-30 30 0 16.570312 13.429688 30 30 30s30-13.429688 30-30c0-16.675781-13.5625-30-30-30zm0 0"/></g><path d="m266 410c0 5.523438-4.476562 10-10 10s-10-4.476562-10-10 4.476562-10 10-10 10 4.476562 10 10zm0 0"/><path d="m70 420h141c5.523438 0 10-4.476562 10-10s-4.476562-10-10-10h-141c-24.144531 0-44.351562-17.214844-48.996094-40.011719h469.992188c-4.644532 22.796875-24.851563 40.011719-48.996094 40.011719h-141c-5.523438 0-10 4.476562-10 10s4.476562 10 10 10h141c38.597656 0 70-31.402344 70-70 0-5.523438-4.476562-10-10-10h-28.363281c-8.816407-32.335938-36.933594-135.429688-45.929688-168.421875-8.28125-30.367187-36.054687-51.578125-67.535156-51.578125h-4.96875c36.5-23.046875 60.796875-63.734375 60.796875-110 0-5.523438-4.476562-10-10-10h-30c-30.304688 0-58.796875 10.234375-81.621094 28.746094-4.875-16.59375-20.230468-28.746094-38.378906-28.746094-19.804688 0-36.285156 14.472656-39.445312 33.398438-23.546876-21.15625-54.417969-33.398438-86.953126-33.398438h-30c-5.523437 0-10 4.476562-10 10 0 46.285156 24.316407 86.988281 60.839844 110.027344-30.90625.617187-57.988281 21.628906-66.148437 51.550781-2.019531 7.398437-43.902344 160.988281-45.929688 168.421875h-28.363281c-5.523438 0-10 4.476562-10 10 0 38.597656 31.402344 70 70 70zm156-340c11.125 0 20 9.09375 20 20 0 11.027344-8.972656 20-20 20s-20-8.972656-20-20c0-11.054688 8.933594-20 20-20zm40 20c0-11.359375 9.28125-20 20-20 10.914062 0 20 8.835938 20 20 0 11.027344-8.972656 20-20 20s-20-8.972656-20-20zm110-80.011719h19.550781c-3.898437 43.050781-32.703125 79.023438-71.847656 93.351563 1.484375-4.175782 2.296875-8.664063 2.296875-13.339844 0-3.789062-.558594-7.550781-1.609375-11.164062l37.695313-28.898438c4.382812-3.363281 5.210937-9.640625 1.851562-14.023438-3.363281-4.382812-9.636719-5.210937-14.023438-1.851562l-35.832031 27.472656c-6.238281-6.148437-14.371093-10.132812-23.179687-11.222656 20.992187-25.671875 51.753906-40.324219 85.097656-40.324219zm-120 .011719c11.027344 0 20 8.972656 20 20 0 11.128906-9.046875 20-20 20-11.027344 0-20-8.972656-20-20s8.972656-20 20-20zm-145.949219 0h19.550781c33.699219 0 65.289063 15.519531 85.984376 41.394531-7.738282 2.078125-14.644532 6.421875-19.855469 12.464844l-33.644531-25.796875c-4.382813-3.355469-10.660157-2.53125-14.023438 1.851562-3.359375 4.386719-2.53125 10.660157 1.851562 14.023438l36.847657 28.25c-.503907 2.554688-.761719 5.164062-.761719 7.8125 0 5.582031 1.152344 10.898438 3.226562 15.730469-42.839843-12.324219-75.042968-50.035157-79.175781-95.730469zm-6.460937 156.839844c5.914062-21.691406 25.753906-36.839844 48.238281-36.839844h208.34375c22.484375 0 42.324219 15.148438 48.238281 36.839844l5.421875 19.875c-10.933593 7.308594-17.832031 19.769531-17.832031 33.285156 0 11.027344-8.972656 20-20 20s-20-8.972656-20-20c0-22.054688-17.945312-40-40-40s-40 17.945312-40 40c0 11.027344-8.972656 20-20 20s-20-8.972656-20-20c0-22.054688-17.945312-40-40-40s-40 17.945312-40 40c0 11.027344-8.972656 20-20 20s-20-8.972656-20-20c0-13.507812-6.898438-25.972656-17.832031-33.289062zm-11.332032 41.546875c2.371094 3.328125 3.742188 7.363281 3.742188 11.613281 0 22.054688 17.945312 40 40 40s40-17.945312 40-40c0-11.027344 8.972656-20 20-20s20 8.972656 20 20c0 22.054688 17.945312 40 40 40s40-17.945312 40-40c0-11.027344 8.972656-20 20-20s20 8.972656 20 20c0 22.054688 17.945312 40 40 40s40-17.945312 40-40c0-4.253906 1.371094-8.289062 3.742188-11.613281l33.164062 121.613281h-393.8125zm0 0"/></svg>