<svg height="512pt" viewBox="-96 0 512 512" width="512pt" xmlns="http://www.w3.org/2000/svg"><path d="m106 168c0 36.402344 21.71875 67.824219 52.882812 81.984375.371094.003906.742188.015625 1.117188.015625 49.628906 0 90-40.371094 90-90 0-36.402344-21.71875-67.824219-52.882812-81.984375-.371094-.003906-.742188-.015625-1.117188-.015625-49.628906 0-90 40.371094-90 90zm0 0" fill="#fff4ca"/><path d="m217.859375 20.589844c-7.136719-1.042969-14.433594-1.589844-21.859375-1.589844-82.839844 0-150 67.160156-150 150 0 64.039062 40.246094 118.984375 97.105469 140.40625 7.144531 1.042969 14.453125 1.59375 21.894531 1.59375 83.0625 0 150-67.390625 150-150 0-64.234375-40.382812-119.03125-97.140625-140.410156zm-57.859375 228.410156c-49.628906 0-90-40.371094-90-90s40.371094-90 90-90 90 40.371094 90 90-40.371094 90-90 90zm0 0" fill="#ff637b"/><path d="m156 471c0 12.316406 7.421875 22.894531 18.039062 27.515625 9.492188-5.039063 15.960938-15.019531 15.960938-26.515625v-165h-34zm0 0" fill="#fff4ca"/><path d="m160 130c16.539062 0 30 13.460938 30 30s-13.460938 30-30 30-30-13.460938-30-30 13.460938-30 30-30zm0 0" fill="#ff637b"/><path d="m60 160c0 55.140625 44.859375 100 100 100s100-44.859375 100-100-44.859375-100-100-100-100 44.859375-100 100zm100-80c44.113281 0 80 35.886719 80 80s-35.886719 80-80 80-80-35.886719-80-80 35.886719-80 80-80zm0 0"/><path d="m160 200c22.054688 0 40-17.945312 40-40s-17.945312-40-40-40-40 17.945312-40 40 17.945312 40 40 40zm0-60c11.027344 0 20 8.972656 20 20s-8.972656 20-20 20-20-8.972656-20-20 8.972656-20 20-20zm0 0"/><path d="m170 10c0 5.523438-4.476562 10-10 10s-10-4.476562-10-10 4.476562-10 10-10 10 4.476562 10 10zm0 0"/><path d="m120 314.945312v157.054688c0 22.054688 17.945312 40 40 40s40-17.945312 40-40v-157.054688c70.414062-18.175781 120-81.828124 120-154.945312 0-72.738281-48.230469-132.890625-112.535156-152.839844-5.273438-1.632812-10.878906 1.3125-12.515625 6.585938-1.636719 5.277344 1.3125 10.878906 6.589843 12.515625 58.890626 18.273437 98.460938 72.015625 98.460938 133.738281 0 75.554688-61.191406 139.988281-140 139.984375-78.882812 0-140-64.5-140-139.984375 0-61.722656 39.570312-115.464844 98.460938-133.738281 5.277343-1.632813 8.226562-7.238281 6.589843-12.511719s-7.238281-8.226562-12.515625-6.589844c-64.265625 19.9375-112.535156 80.0625-112.535156 152.839844 0 73.011719 49.488281 136.746094 120 154.945312zm60 3.8125v153.242188c0 11.027344-8.972656 20-20 20s-20-8.972656-20-20v-153.242188c6.609375.824219 13.300781 1.242188 20 1.242188s13.390625-.417969 20-1.242188zm0 0"/></svg>