<svg height="512pt" viewBox="-106 0 512 512" width="512pt" xmlns="http://www.w3.org/2000/svg"><path d="m182.921875 277.800781-35.921875.121094v192.277344c0 13.082031 8.375 24.203125 20.054688 28.304687 9.484374-5.039062 15.945312-15.015625 15.945312-26.503906zm0 0" fill="#fff4ca"/><path d="m165.125 289.183594c65.492188-7.03125 117.363281-59.191406 124.125-124.625l-26.25-26.558594h-196.75l-25.25 26.558594c6.761719 65.445312 58.640625 117.59375 124.125 124.625zm0 0" fill="#ff637b"/><path d="m188.050781 15.234375c-2.667969-.148437-5.347656-.234375-8.050781-.234375-76.554688 0-138.746094 61.449219-139.972656 137.714844 2.921875 1.695312 5.363281 4.105468 7.101562 6.996094 3.480469-2.933594 2.964844 46.289062 7.871094 46.289062l27.875-.703125c4.355469-3.667969 7.125-9.15625 7.125-15.296875v-20c0-11.050781 8.949219-20 20-20 7.277344 0 13.625 3.894531 17.125 9.703125 3.480469-2.929687 1.96875 63.296875 6.875 63.296875l28.875 2.296875c4.355469-3.667969 7.125-9.15625 7.125-15.296875v-40c0-11.050781 8.949219-20 20-20 7.277344 0 13.625 3.894531 17.125 9.703125 3.480469-2.929687 7.96875 28.296875 12.875 28.296875l22.875-2.703125c4.355469-3.667969 7.125-9.15625 7.125-15.296875 0-11.050781 8.949219-20 20-20 7.273438 0 13.628906 3.890625 17.128906 9.699219.828125-.695313 1.71875-1.3125 2.652344-1.871094.144531-2.589844.21875-5.199219.21875-7.828125 0-64.132812-43.121094-118.1875-101.949219-134.765625zm0 0" fill="#ffa2c3"/><path d="m240 120c0-5.519531-4.480469-10-10-10s-10 4.480469-10 10 4.480469 10 10 10 10-4.480469 10-10zm0 0"/><path d="m200 80c0-5.519531-4.480469-10-10-10s-10 4.480469-10 10 4.480469 10 10 10 10-4.480469 10-10zm0 0"/><path d="m150 60c5.519531 0 10-4.480469 10-10s-4.480469-10-10-10-10 4.480469-10 10 4.480469 10 10 10zm0 0"/><path d="m150 130c5.519531 0 10-4.480469 10-10s-4.480469-10-10-10-10 4.480469-10 10 4.480469 10 10 10zm0 0"/><path d="m100 80c0 5.519531 4.480469 10 10 10s10-4.480469 10-10-4.480469-10-10-10-10 4.480469-10 10zm0 0"/><path d="m60 120c0 5.519531 4.480469 10 10 10s10-4.480469 10-10-4.480469-10-10-10-10 4.480469-10 10zm0 0"/><path d="m160 10c0 5.523438-4.476562 10-10 10s-10-4.476562-10-10 4.476562-10 10-10 10 4.476562 10 10zm0 0"/><path d="m102.402344 7.710938c-61.25 20.480468-102.402344 77.660156-102.402344 142.289062 0 68.339844 45.871094 126.9375 110 144.585938v177.414062c0 22.054688 17.945312 40 40 40s40-17.945312 40-40v-177.414062c63.601562-17.5 110-75.707032 110-144.585938 0-64.628906-41.152344-121.808594-102.402344-142.289062-5.238281-1.75-10.90625 1.074218-12.65625 6.3125-1.75 5.238281 1.074219 10.902343 6.3125 12.65625 50.421875 16.855468 85.101563 62.421874 88.457032 114.949218-3.070313-1.058594-6.34375-1.628906-9.710938-1.628906-16.542969 0-30 13.457031-30 30 0 5.515625-4.484375 10-10 10s-10-4.484375-10-10c0-16.542969-13.457031-30-30-30s-30 13.457031-30 30v40c0 5.515625-4.484375 10-10 10s-10-4.484375-10-10v-40c0-16.542969-13.457031-30-30-30s-30 13.457031-30 30v20c0 5.515625-4.484375 10-10 10s-10-4.484375-10-10v-20c0-16.542969-13.457031-30-30-30-3.367188 0-6.640625.570312-9.710938 1.628906 3.355469-52.527344 38.035157-98.09375 88.457032-114.949218 5.238281-1.75 8.0625-7.417969 6.3125-12.65625-1.75-5.234376-7.414063-8.0625-12.65625-6.3125zm47.597656 484.289062c-11.027344 0-20-8.972656-20-20v-173.328125c6.621094.882813 13.3125 1.328125 20 1.328125s13.378906-.445312 20-1.328125v173.328125c0 11.027344-8.972656 20-20 20zm-120-332c5.515625 0 10 4.484375 10 10v20c0 16.542969 13.457031 30 30 30s30-13.457031 30-30v-20c0-5.515625 4.484375-10 10-10s10 4.484375 10 10v40c0 16.542969 13.457031 30 30 30s30-13.457031 30-30v-40c0-5.515625 4.484375-10 10-10s10 4.484375 10 10c0 16.542969 13.457031 30 30 30s30-13.457031 30-30c0-5.515625 4.484375-10 10-10 3.890625 0 7.398438 2.277344 9.035156 5.707031-7.863281 65.402344-63.054687 114.277344-129.035156 114.277344-65.75 0-121.140625-48.640625-129.035156-114.277344 1.636718-3.429687 5.144531-5.707031 9.035156-5.707031zm0 0"/></svg>