<svg height="512pt" viewBox="0 0 512 512" width="512pt" xmlns="http://www.w3.org/2000/svg"><path d="m441 256c0-17 14.128906-34.289062 5.210938-61.808594-8.980469-27.601562-30.371094-32.960937-40.539063-46.921875-9.328125-12.84375-8.847656-33.277343-27.945313-49.773437-8.449218-.34375-16.253906-.121094-23.382812-2.445313-7.5-2.4375-14.046875-7.703125-21.738281-12.6875-6.945313-.207031-13.429688-.355469-19.433594-2.3125-5.675781-1.84375-10.804687-5.308593-16.292969-9.042969-28.824218.125-40.542968 18.738282-56.875 24.042969-16.011718 5.21875-37.0625-2.800781-60.390625 14.140625-23.550781 17.117188-21.859375 38.957032-32.101562 53.070313-10 13.707031-31.628907 19.507812-40.550781 46.9375-8.9375 27.550781 5.210937 44.742187 5.210937 61.800781 0 17-14.128906 34.289062-5.210937 61.808594 8.980468 27.601562 30.371093 32.960937 40.542968 46.921875 9.324219 12.84375 8.84375 33.277343 27.941406 49.773437 8.453126.34375 16.253907.121094 23.386719 2.445313 7.496094 2.4375 14.046875 7.703125 21.734375 12.6875 6.945313.207031 13.429688.355469 19.4375 2.3125 5.671875 1.84375 10.800782 5.308593 16.292969 9.042969 28.820313-.125 40.539063-18.738282 56.875-24.042969 16.007813-5.21875 37.058594 2.800781 60.386719-14.140625 23.550781-17.117188 21.863281-38.957032 32.101562-53.070313 10-13.707031 31.628906-19.507812 40.550782-46.9375 8.9375-27.550781-5.210938-44.742187-5.210938-61.800781zm-147 83c-15.050781 11.109375-32.910156 16.292969-47.304688 6.523438-45.335937-4.65625-80.695312-42.957032-80.695312-89.523438 0-49.710938 40.289062-90 90-90 18.707031 0 36.082031 5.707031 50.476562 15.476562 35.523438 26.523438 37.523438 43.957032 37.523438 90.523438 0 49.710938-8 36-50 67zm0 0" fill="#ffa2c3"/><path d="m335.402344 23.898438c-13.828125-2.554688-28.003906-3.898438-42.402344-3.898438-132.550781 0-246 113.449219-246 246 0 104.972656 71.15625 197.949219 166.597656 232.101562 13.828125 2.554688 28.003906 3.898438 42.402344 3.898438 132.550781 0 246-113.449219 246-246 0-104.972656-71.15625-197.949219-166.597656-232.101562zm73.429687 340.839843c-10.238281 14.113281-8.550781 35.953125-32.101562 53.070313-23.328125 16.941406-44.378907 8.921875-60.386719 14.140625-16.390625 5.320312-28.132812 24.050781-57.171875 24.050781-29.03125 0-40.828125-18.738281-57.167969-24.050781-16.59375-5.410157-36.800781 2.992187-60.382812-14.140625-23.390625-16.988282-22.160156-39.359375-32.117188-53.078125-10.171875-13.960938-31.5625-19.320313-40.542968-46.921875-8.917969-27.519532 5.210937-44.808594 5.210937-61.808594 0-17.058594-14.148437-34.25-5.210937-61.800781 8.921874-27.429688 30.550781-33.230469 40.550781-46.9375 10.242187-14.113281 8.550781-35.953125 32.101562-53.070313 23.328125-16.941406 44.378907-8.921875 60.390625-14.140625 16.386719-5.320312 28.128906-24.050781 57.167969-24.050781 29.03125 0 40.832031 18.738281 57.171875 24.050781 16.589844 5.410157 36.796875-2.992187 60.378906 14.140625 23.390625 16.988282 22.160156 39.359375 32.121094 53.078125 10.167969 13.960938 31.558594 19.320313 40.539062 46.921875 8.917969 27.519532-5.210937 44.808594-5.210937 61.808594 0 17.058594 14.148437 34.25 5.210937 61.800781-8.921874 27.429688-30.550781 33.230469-40.550781 46.9375zm0 0" fill="#ffda2d"/><path d="m396 246c-5.519531 0-10 4.480469-10 10s4.480469 10 10 10 10-4.480469 10-10-4.480469-10-10-10zm0 0"/><path d="m356 146c-5.519531 0-10 4.480469-10 10s4.480469 10 10 10 10-4.480469 10-10-4.480469-10-10-10zm0 0"/><path d="m356 346c-5.519531 0-10 4.480469-10 10s4.480469 10 10 10 10-4.480469 10-10-4.480469-10-10-10zm0 0"/><path d="m256 126c5.519531 0 10-4.480469 10-10s-4.480469-10-10-10-10 4.480469-10 10 4.480469 10 10 10zm0 0"/><path d="m256 386c-5.519531 0-10 4.480469-10 10s4.480469 10 10 10 10-4.480469 10-10-4.480469-10-10-10zm0 0"/><path d="m156 166c5.519531 0 10-4.480469 10-10s-4.480469-10-10-10-10 4.480469-10 10 4.480469 10 10 10zm0 0"/><path d="m156 346c-5.519531 0-10 4.480469-10 10s4.480469 10 10 10 10-4.480469 10-10-4.480469-10-10-10zm0 0"/><path d="m116 246c-5.519531 0-10 4.480469-10 10s4.480469 10 10 10 10-4.480469 10-10-4.480469-10-10-10zm0 0"/><path d="m455.71875 191.097656c-6.773438-20.820312-19.679688-30.816406-30.054688-38.851562-12.265624-9.5-13.273437-10.957032-18.472656-25.359375-4.488281-12.449219-10.078125-27.941407-27.765625-40.789063-17.738281-12.882812-33.96875-13.363281-47.011719-13.746094-15.496093-.457031-17.355468-1.070312-30.117187-9.753906-10.867187-7.394531-24.394531-16.597656-46.296875-16.597656-21.894531 0-35.402344 9.191406-46.257812 16.578125-12.792969 8.707031-14.503907 9.226563-29.792969 9.730469-13.25.4375-29.742188.980468-47.390625 13.792968-17.730469 12.890626-23.210938 28.199219-27.613282 40.5-5.238281 14.640626-6.351562 16.089844-18.46875 25.511719-10.445312 8.128907-23.449218 18.242188-30.199218 39-6.75 20.804688-2.175782 36.5625 1.5 49.222657 4.289062 14.769531 4.289062 16.523437.007812 31.296874-3.675781 12.683594-8.246094 28.46875-1.503906 49.269532 6.773438 20.816406 19.679688 30.816406 30.054688 38.847656 12.265624 9.503906 13.273437 10.960938 18.472656 25.363281 4.488281 12.449219 10.078125 27.9375 27.765625 40.785157 17.738281 12.886718 33.96875 13.363281 47.011719 13.75 15.496093.457031 17.355468 1.070312 30.117187 9.753906 10.867187 7.394531 24.394531 16.597656 46.296875 16.597656 21.894531 0 35.402344-9.191406 46.257812-16.578125 12.792969-8.707031 14.503907-9.226563 29.792969-9.730469 13.25-.4375 29.742188-.980468 47.390625-13.792968 17.730469-12.890626 23.210938-28.199219 27.613282-40.5 5.238281-14.640626 6.351562-16.089844 18.46875-25.511719 10.445312-8.128907 23.449218-18.242188 30.199218-39 6.75-20.804688 2.175782-36.5625-1.5-49.222657-4.289062-14.769531-4.289062-16.523437-.007812-31.296874 3.675781-12.683594 8.246094-28.472657 1.503906-49.269532zm-19.019531 123.609375c-4.851563 14.917969-13.886719 21.949219-23.457031 29.390625-15.128907 11.769532-18.46875 16.265625-25.019532 34.5625-4.011718 11.210938-7.804687 21.800782-20.539062 31.058594-12.679688 9.207031-24.148438 9.585938-36.292969 9.984375-18.828125.621094-24.179687 2.152344-40.386719 13.183594-9.90625 6.742187-19.269531 13.113281-35.003906 13.113281-15.742188 0-25.121094-6.378906-35.046875-13.132812-15.929687-10.839844-21.398437-12.640626-40.777344-13.210938-11.882812-.347656-23.105469-.679688-35.847656-9.9375-12.714844-9.234375-16.597656-19.996094-20.707031-31.390625-6.5-18.011719-9.726563-22.527344-25.039063-34.386719-9.472656-7.335937-18.414062-14.261718-23.277343-29.214844-4.847657-14.953124-1.671876-25.917968 1.691406-37.527343 5.339844-18.429688 5.359375-23.9375-.011719-42.4375-3.363281-11.582031-6.535156-22.515625-1.683594-37.46875 4.847657-14.917969 13.886719-21.945313 23.457031-29.390625 15.125-11.765625 18.46875-16.265625 25.015626-34.558594 4.015624-11.210938 7.804687-21.804688 20.542968-31.0625 12.679688-9.207031 24.148438-9.582031 36.292969-9.984375 18.824219-.617187 24.179687-2.152344 40.386719-13.183594 9.90625-6.742187 19.269531-13.113281 35.003906-13.113281 15.742188 0 25.121094 6.378906 35.046875 13.132812 15.929687 10.839844 21.398437 12.640626 40.777344 13.210938 11.882812.347656 23.105469.679688 35.847656 9.9375 12.714844 9.234375 16.597656 19.996094 20.707031 31.390625 6.5 18.011719 9.726563 22.527344 25.039063 34.386719 9.472656 7.335937 18.414062 14.261718 23.277343 29.214844 4.847657 14.953124 1.671876 25.917968-1.691406 37.527343-5.339844 18.429688-5.359375 23.9375.011719 42.4375 3.363281 11.582031 6.535156 22.519531 1.683594 37.46875zm0 0"/><path d="m256 156c-55.140625 0-100 44.859375-100 100s44.859375 100 100 100 100-44.859375 100-100-44.859375-100-100-100zm0 180c-44.113281 0-80-35.886719-80-80s35.886719-80 80-80 80 35.886719 80 80-35.886719 80-80 80zm0 0"/><path d="m266 10c0 5.523438-4.476562 10-10 10s-10-4.476562-10-10 4.476562-10 10-10 10 4.476562 10 10zm0 0"/><path d="m256 512c137.914062 0 256-117.703125 256-256 0-120.019531-89.976562-228.125-209.289062-251.464844-5.421876-1.0625-10.675782 2.476563-11.734376 7.898438-1.058593 5.417968 2.476563 10.671875 7.894532 11.730468 110.101562 21.535157 193.128906 121.203126 193.128906 231.835938 0 127.925781-108.074219 236-236 236s-236-108.074219-236-236c0-110.632812 83.027344-210.300781 193.128906-231.835938 5.421875-1.058593 8.953125-6.3125 7.894532-11.730468-1.058594-5.421875-6.3125-8.957032-11.734376-7.898438-119.3125 23.339844-209.289062 131.445313-209.289062 251.464844 0 137.898438 117.691406 256 256 256zm0 0"/></svg>