<svg id="Capa_1" enable-background="new 0 0 511.882 511.882" height="512" viewBox="0 0 511.882 511.882" width="512" xmlns="http://www.w3.org/2000/svg"><g><g><path d="m261.27 44.348v19.705c0 12.075-4.445 23.722-12.464 32.722-.093.109-.187.21-.28.311l-65.366 72.139-65.366-72.139c-.093-.101-.187-.202-.28-.311-8.019-9-12.464-20.647-12.464-32.722v-19.705c0-20.351 16.497-36.848 36.848-36.848 3.558 0 7.077.514 10.456 1.518 3.379.997 6.618 2.484 9.607 4.422 6.446 4.188 13.819 6.275 21.199 6.275 7.381 0 14.753-2.087 21.2-6.275 2.99-1.939 6.228-3.426 9.607-4.422 3.379-1.004 6.898-1.518 10.456-1.518 10.175 0 19.386 4.126 26.058 10.79 6.663 6.673 10.789 15.883 10.789 26.058z" fill="#978ecb"/><g><path d="m131.663 9.018c10.244 3.633 19.413 11.609 30.807 10.696 3.618.271 7.009-.349 10.284-1.427-3.764-1.042-7.408-2.647-10.793-4.846-2.99-1.938-6.228-3.426-9.607-4.422-3.379-1.004-6.898-1.518-10.456-1.518-3.596 0-7.068.525-10.354 1.485.039.012.079.02.119.032z" fill="#978ecb"/><path d="m250.479 18.291c-6.672-6.665-15.882-10.791-26.057-10.791-3.515 0-6.991.506-10.332 1.486 15.307 4.476 26.49 18.608 26.49 35.362.509 17.675 1 38.966-12.466 52.426-.155.223-36.853 40.674-55.304 61.029l10.35 11.422 65.366-72.139c.093-.101.187-.202.28-.311 8.019-9 12.464-20.647 12.464-32.722v-19.705c0-10.175-4.126-19.385-10.791-26.057z" fill="#8379c1"/></g><path d="m248.805 96.775c-.093.109-.187.21-.28.311l-65.366 72.139-65.366-72.139c-.093-.101-.187-.202-.28-.311 6.501-5.738 15.034-9.218 24.384-9.218 3.558 0 7.077.514 10.456 1.518 3.379.997 6.618 2.484 9.607 4.422 6.446 4.189 13.819 6.283 21.199 6.283 7.381 0 14.753-2.094 21.2-6.283 2.99-1.939 6.228-3.426 9.607-4.422 3.379-1.004 6.898-1.518 10.456-1.518 9.35 0 17.883 3.48 24.383 9.218z" fill="#8379c1"/><path d="m234.084 88.844c-1.597 2.85-3.556 5.518-5.97 7.93-.155.223-36.853 40.674-55.304 61.029l10.35 11.422 65.366-72.139c.093-.101.187-.202.28-.311-4.176-3.686-9.192-6.433-14.722-7.931z" fill="#6e61b6"/><path d="m347.687 200.841c0 6.711-1.83 13.492-5.668 19.588-1.892 3.013-4.212 5.722-6.851 8.042-2.647 2.328-5.629 4.274-8.86 5.769-13.78 6.384-22.593 20.187-22.593 35.345 0 .179.008.366.008.553v.522c0 6.937-1.954 13.741-5.652 19.619-10.837 17.221-33.586 22.398-50.807 11.561l-16.684-10.495c-10.331-6.501-17.883-16.614-21.176-28.37l-2.219-7.918-24.026-85.833 87.157-15.376 8.712-1.534c12.028-2.118 24.407.304 34.746 6.812l16.676 10.495c11.133 7 17.237 18.982 17.237 31.22z" fill="#978ecb"/><path d="m330.45 169.622-16.676-10.495c-10.232-6.441-22.461-8.872-34.372-6.869 4.791 1.383 9.408 4.027 13.682 6.87 16.229 9.267 34.888 20.839 33.913 41.713-.147 38.492-44.911 29.29-43.963 69.819 0 6.936-1.955 13.741-5.653 19.619-6.048 8.83-13.035 13.766-20.464 15.847 15.312 4.31 32.251-1.7 41.154-15.847 3.698-5.878 5.652-12.682 5.652-19.619v-.522c0-.187-.008-.374-.008-.553 0-15.158 8.813-28.961 22.593-35.345 3.231-1.495 6.213-3.441 8.86-5.769 2.639-2.32 4.959-5.029 6.851-8.042 3.838-6.096 5.668-12.877 5.668-19.588 0-12.238-6.104-24.22-17.237-31.219z" fill="#8379c1"/><path d="m276.116 171.311c0 5.294-1.44 10.65-4.469 15.462-1.495 2.382-3.324 4.516-5.411 6.353-2.094 1.837-4.445 3.379-6.991 4.554-10.884 5.037-17.828 15.937-17.828 27.903v.841c0 5.473-1.541 10.853-4.461 15.493-6.509 10.331-18.443 15.174-29.771 13.142l-24.026-85.833 87.157-15.376c3.792 5.059 5.8 11.218 5.8 17.461z" fill="#8379c1"/><path d="m18.632 200.841c0 6.711 1.83 13.492 5.668 19.588 1.892 3.013 4.212 5.722 6.851 8.042 2.647 2.328 5.629 4.274 8.86 5.769 13.78 6.384 22.593 20.187 22.593 35.345 0 .179-.008.366-.008.553v.522c0 6.937 1.954 13.741 5.652 19.619 10.837 17.221 33.586 22.398 50.807 11.561l16.684-10.495c10.331-6.501 17.883-16.614 21.176-28.37l2.219-7.918 24.026-85.833-87.157-15.376-8.712-1.534c-12.028-2.118-24.407.304-34.746 6.812l-16.676 10.495c-11.134 7-17.237 18.982-17.237 31.22z" fill="#978ecb"/><path d="m96.002 153.849-8.712-1.534c-6.153-1.083-12.397-.971-18.414.261 2.164.339 4.315.761 6.435 1.273l87.157 15.376-24.026 85.833-2.219 7.918c-3.293 11.756-10.845 21.869-21.177 28.368-8.48 6.486-17.74 11.81-26.975 14.357 10.027 3.244 21.366 2.191 30.982-3.861l16.684-10.495c10.331-6.501 17.883-16.614 21.176-28.37l2.219-7.918 24.026-85.833z" fill="#8379c1"/><path d="m183.161 169.23-9.39 33.54-14.64 52.29c-11.33 2.03-23.26-2.81-29.77-13.14-2.92-4.64-4.46-10.02-4.46-15.5v-.84c0-11.96-6.94-22.86-17.83-27.9-2.54-1.18-4.9-2.72-6.99-4.55-2.09-1.84-3.92-3.97-5.41-6.36-3.03-4.81-4.47-10.16-4.47-15.46 0-6.24 2.01-12.4 5.8-17.46l30.82 5.44z" fill="#8379c1"/><path d="m96.002 153.849c-.784 1.046-1.472 2.148-2.101 3.279 23.01 4.059 68.568 12.097 68.568 12.097s-21.262 75.959-23.053 82.358c5.927 3.424 12.927 4.693 19.718 3.475l24.026-85.833z" fill="#6e61b6"/><path d="m183.161 169.23-9.39 33.54c-1.96 1.1-3.53 3.12-4.43 5.96-3.66 7.33-13.22 4.64-15-2.65-1.77-3.78-6.27-5.41-10.06-3.66-6.02 4.42-15.12.38-13.2-7.61 2.72-6.54-.46-11.95-7.43-12.88-6.21-1.69-7.64-9.84-2.39-13.54 3.52-1.8 6.13-5.41 5.56-9.1z" fill="#6e61b6"/><path d="m188.515 129.636 2.078-2.064c4.563-4.532 12.342-1.701 12.924 4.704l.265 2.917c.378 4.16 4.043 7.235 8.205 6.885l2.919-.245c6.409-.539 10.548 6.63 6.877 11.911l-1.672 2.405c-2.384 3.43-1.553 8.141 1.86 10.548l2.393 1.688c5.256 3.707 3.818 11.859-2.388 13.545l-2.826.768c-4.031 1.095-6.423 5.238-5.356 9.276l.748 2.832c1.643 6.218-4.698 11.539-10.536 8.841l-2.659-1.229c-3.792-1.752-8.287-.116-10.065 3.663l-1.247 2.65c-2.738 5.819-11.016 5.819-13.754 0l-1.247-2.65c-1.778-3.78-6.274-5.416-10.065-3.663l-2.659 1.229c-5.838 2.698-12.179-2.623-10.536-8.841l.748-2.832c1.067-4.038-1.325-8.181-5.356-9.276l-2.826-.768c-6.206-1.686-7.644-9.838-2.388-13.545l2.393-1.688c3.413-2.408 4.244-7.119 1.86-10.548l-1.672-2.405c-3.671-5.281.468-12.45 6.877-11.911l2.919.245c4.162.35 7.827-2.725 8.205-6.885l.265-2.917c.582-6.405 8.361-9.236 12.924-4.704l2.078 2.064c2.966 2.944 7.75 2.944 10.714 0z" fill="#fea95c"/><g><path d="m224.365 168.385-2.393-1.688c-3.413-2.408-4.244-7.119-1.86-10.548l1.672-2.405c3.671-5.281-.468-12.45-6.877-11.911l-2.919.245c-4.162.35-7.827-2.725-8.205-6.885l-.265-2.917c-.582-6.405-8.361-9.236-12.924-4.704l-2.078 2.064c-1.589 1.578-3.7 2.302-5.774 2.188.025.154.068.293.087.453-.271 5.077 2.839 10.337 8.471 9.801 9.435-2.222 14.803 6.976 8.123 14.071-3.305 4.614-.253 9.929 4.254 12.236 6.58 4.885 2.267 13.834-5.216 14.312-5.497 1.411-6.576 7.444-4.606 12.108 1.643 6.218-4.698 11.539-10.536 8.841-3.844-2.454-7.646-2.407-10.438-.278.89.706 1.64 1.615 2.156 2.713l1.247 2.65c2.738 5.819 11.016 5.819 13.754 0l1.247-2.65c1.778-3.78 6.273-5.416 10.065-3.663l2.659 1.229c5.838 2.698 12.179-2.623 10.536-8.841l-.748-2.832c-1.067-4.038 1.325-8.181 5.356-9.276l2.826-.768c6.204-1.685 7.642-9.838 2.386-13.545z" fill="#fe9738"/></g><path d="m482.456 303.652-13.933 13.933c-8.538 8.538-19.917 13.631-31.951 14.324-.143.011-.281.017-.418.022l-97.231 4.789 4.789-97.231c.005-.138.011-.275.022-.418.694-12.034 5.786-23.413 14.324-31.951l13.933-13.933c14.39-14.39 37.721-14.39 52.111 0 2.516 2.516 4.641 5.367 6.32 8.467 1.685 3.094 2.923 6.435 3.666 9.92 1.596 7.52 5.334 14.209 10.553 19.427 5.219 5.219 11.908 8.957 19.427 10.553 3.485.743 6.826 1.982 9.92 3.666 3.099 1.679 5.951 3.804 8.467 6.32 7.195 7.195 10.79 16.625 10.795 26.056-.005 9.43-3.599 18.861-10.794 26.056z" fill="#c2bce0"/><path d="m482.455 251.541c-2.516-2.516-5.367-4.641-8.467-6.32-3.094-1.685-6.435-2.923-9.92-3.666-7.52-1.596-14.209-5.334-19.427-10.553s-8.957-11.908-10.553-19.427c-.743-3.485-1.982-6.826-3.666-9.92-1.679-3.099-3.804-5.951-6.32-8.467-12.164-12.164-30.714-14.044-44.854-5.644 12.327.695 24.301 7.332 30.484 19.112 4.675 9.813 5.518 21.936 14.221 29.347 9.836 11.432 27.738 9.269 37.813 20.54 14.39 14.391 14.39 37.72 0 52.111-7.892 8.36-16.871 17.791-27.42 23.369l1.807-.089c.138-.005.275-.011.418-.022 12.034-.694 23.413-5.786 31.951-14.324l13.933-13.933c7.195-7.195 10.79-16.625 10.795-26.055-.005-9.434-3.599-18.864-10.795-26.059z" fill="#aca6d6"/><path d="m436.571 331.909c-.143.011-.281.017-.418.022l-97.231 4.789 4.789-97.231c.005-.138.011-.275.022-.418 8.654.54 17.148 4.112 23.76 10.724 2.516 2.516 4.641 5.367 6.32 8.467 1.685 3.094 2.923 6.435 3.666 9.92 1.596 7.52 5.329 14.214 10.548 19.433s11.913 8.951 19.433 10.548c3.485.743 6.826 1.982 9.92 3.666 3.099 1.679 5.951 3.804 8.467 6.32 6.611 6.612 10.184 15.106 10.724 23.76z" fill="#8379c1"/><path d="m432.904 475.415c-4.745 4.745-10.834 8.247-17.858 9.843-3.468.793-7.024 1.068-10.531.842-3.518-.226-7.002-.958-10.344-2.186-14.258-5.23-30.25-1.701-40.969 9.017-.127.127-.253.264-.385.396l-.369.369c-4.905 4.905-11.098 8.335-17.869 9.876-19.84 4.514-39.587-7.911-44.101-27.751l-4.377-19.218c-2.709-11.902-.897-24.393 5.087-35.034l4.03-7.168 43.705-77.682 72.502 50.757 7.245 5.076c10.003 7.008 17.044 17.473 19.752 29.386l4.371 19.213c2.922 12.822-1.235 25.61-9.889 34.264z" fill="#c2bce0"/><g><path d="m331.757 493.698c-4.379 4.379-9.789 7.571-15.716 9.305 5.839 1.717 12.182 2.017 18.537.571 6.771-1.541 12.964-4.971 17.87-9.876l.369-.369c.132-.132.259-.27.385-.396 4.615-4.615 10.211-7.889 16.223-9.713-12.341-2.18-24.776-3.118-37.668 10.478z" fill="#c2bce0"/><path d="m442.791 441.152-4.371-19.213c-2.709-11.913-9.75-22.378-19.752-29.386l-7.245-5.076-72.502-50.757-5.846 10.392c18.776 13.144 57.658 40.365 57.658 40.365 12.828 7.837 23.947 19.294 26.996 34.462 4.923 18.028 9.934 39.405-5.516 53.476-5.222 5.208-10.388 7.996-15.525 9.323 2.559.737 5.183 1.192 7.825 1.362 3.507.226 7.063-.05 10.531-.842 7.024-1.596 13.113-5.098 17.858-9.843 8.656-8.654 12.813-21.442 9.889-34.263z" fill="#aca6d6"/></g><path d="m403.177 403.927c-3.743 3.743-8.549 6.512-14.093 7.773-2.742.628-5.544.842-8.318.666-2.78-.182-5.533-.754-8.164-1.723-11.258-4.134-23.876-1.338-32.337 7.124l-.595.595c-3.87 3.87-8.764 6.584-14.109 7.801-11.908 2.703-23.771-2.312-30.344-11.759l43.705-77.682 72.502 50.757c-.898 6.258-3.832 12.032-8.247 16.448z" fill="#8379c1"/><path d="m390.733 387.477c5.734 3.503 11.12 7.736 15.603 12.694 2.651-3.736 4.426-8.081 5.087-12.694l-72.502-50.757-5.846 10.392c18.776 13.145 57.658 40.365 57.658 40.365z" fill="#6e61b6"/><path d="m200.227 242.738c-4.745 4.745-8.247 10.834-9.843 17.858-.793 3.468-1.068 7.024-.842 10.531.226 3.518.958 7.002 2.185 10.344 5.23 14.258 1.701 30.25-9.017 40.969-.127.127-.264.253-.396.385l-.369.369c-4.905 4.905-8.335 11.098-9.876 17.869-4.514 19.84 7.911 39.587 27.751 44.101l19.218 4.377c11.902 2.708 24.393.897 35.034-5.087l7.168-4.03 77.682-43.705-50.757-72.502-5.076-7.245c-7.008-10.003-17.473-17.044-29.386-19.752l-19.213-4.371c-12.821-2.921-25.609 1.235-34.263 9.889z" fill="#c2bce0"/><path d="m338.921 336.72-52.68 29.64-25 14.07c-9.45-6.58-14.46-18.44-11.76-30.35 1.22-5.34 3.93-10.24 7.8-14.11l.59-.59c8.47-8.46 11.26-21.08 7.13-32.34-.97-2.63-1.54-5.38-1.72-8.16s.03-5.58.66-8.32c1.26-5.55 4.03-10.35 7.77-14.09 4.42-4.42 10.19-7.35 16.45-8.25l19.7 28.14z" fill="#8379c1"/><path d="m338.921 336.72-52.68 29.64c-1.54-2.63-1.69-6.24.19-9.32 1.41-3.93-.61-8.27-4.53-9.71-7.38-1.13-10.96-10.42-3.95-14.71 6.54-2.7 8.12-8.78 3.85-14.36-3.9-7.21 3.79-13.5 10.77-10.77 5.58 1.04 9.11-3.97 9.3-9.03.6-3.35 3.12-5.53 5.99-6.1z" fill="#6e61b6"/><path d="m370.702 312.514 2.929.01c6.431.022 9.93 7.524 5.813 12.465l-1.875 2.25c-2.674 3.209-2.257 7.975.934 10.67l2.237 1.89c4.913 4.151 2.77 12.147-3.56 13.285l-2.883.518c-4.111.739-6.855 4.658-6.144 8.774l.499 2.886c1.095 6.337-5.686 11.085-11.266 7.889l-2.541-1.456c-3.625-2.076-8.245-.838-10.346 2.772l-1.473 2.531c-3.235 5.559-11.481 4.837-13.701-1.199l-1.011-2.749c-1.442-3.92-5.778-5.942-9.708-4.527l-2.756.992c-6.051 2.179-11.904-3.674-9.725-9.725l.992-2.756c1.415-3.93-.606-8.266-4.527-9.708l-2.749-1.011c-6.036-2.22-6.757-10.467-1.199-13.701l2.531-1.473c3.61-2.101 4.848-6.722 2.772-10.346l-1.456-2.541c-3.197-5.581 1.551-12.362 7.889-11.266l2.886.499c4.116.711 8.035-2.033 8.774-6.144l.518-2.883c1.138-6.33 9.134-8.472 13.285-3.56l1.89 2.237c2.696 3.191 7.461 3.608 10.67.934l2.25-1.875c4.941-4.117 12.443-.619 12.465 5.813l.01 2.929c.017 4.179 3.399 7.562 7.576 7.576z" fill="#fea95c"/><g><path d="m329.963 296.198c1.785-1.416 3.656-1.934 5.395-1.79-4.257-4.234-11.704-2.042-12.801 4.055l-.229 1.274c2.594.175 5.295-.991 7.635-3.539z" fill="#fea95c"/><path d="m380.74 339.8-2.237-1.89c-3.191-2.696-3.608-7.461-.934-10.67l1.875-2.25c4.117-4.941.619-12.443-5.813-12.465l-2.929-.01c-4.177-.014-7.56-3.397-7.574-7.574l-.01-2.929c-.022-6.431-7.524-9.93-12.465-5.813l-2.25 1.875c-1.856 1.547-4.232 2.053-6.428 1.593.627 1.584.838 3.4.462 5.274.015 4.177 3.398 7.559 7.575 7.574 7.324-1.46 13.861 6.041 8.741 12.476-3.781 3.398-5.302 9.317-.941 12.92 8.243 5.1 5.534 15.4-4.206 15.694-5.599.926-7.2 6.842-5.644 11.66 1.198 8.107-8.179 11.385-13.808 6.432-2.327-1.377-4.684-1.291-6.723-.328.354.514.656 1.073.881 1.685l1.011 2.749c2.22 6.036 10.467 6.757 13.701 1.199l1.473-2.531c2.101-3.61 6.722-4.848 10.346-2.772l2.541 1.456c5.581 3.197 12.362-1.551 11.266-7.889l-.499-2.886c-.711-4.116 2.033-8.035 6.144-8.774l2.883-.518c6.332-1.141 8.474-9.137 3.562-13.288z" fill="#fe9738"/></g><g><path d="m102.686 384.318 52.753 4.644 4.644 52.753c.602 6.833-1.853 13.581-6.703 18.432l-4.019.98c-6.97 1.699-12.598 6.825-14.939 13.607l-2.304 6.675c-6.274 6.274-15.579 8.418-23.966 5.522l-32.14-11.097c-3.493-1.206-6.239-3.951-7.445-7.445l-11.097-32.14c-2.896-8.387-.752-17.692 5.522-23.966l4.118-1.239c7.508-2.259 13.408-8.094 15.751-15.576l1.392-4.446c4.852-4.851 11.601-7.306 18.433-6.704z" fill="#6fd7a3"/></g><path d="m160.083 441.715-4.644-52.753-52.753-4.644c-3.108-.274-6.197.092-9.099 1.02l41.162 3.624 4.644 52.753c.602 6.833-1.853 13.581-6.703 18.432l-4.019.98c-6.97 1.699-12.598 6.825-14.939 13.607l-2.304 6.675c-1.869 1.869-4.01 3.362-6.313 4.474l3.037 1.049c8.387 2.896 17.692.752 23.966-5.522l2.304-6.675c2.341-6.782 7.969-11.908 14.939-13.607l4.019-.98c4.851-4.852 7.305-11.601 6.703-18.433z" fill="#3ec3a4"/><g><path d="m375.139 135.111-52.753-4.644-4.644-52.753c-.602-6.833 1.853-13.581 6.703-18.432l4.019-.98c6.97-1.699 12.598-6.825 14.939-13.607l2.304-6.675c6.274-6.274 15.579-8.418 23.966-5.522l32.14 11.097c3.493 1.206 6.239 3.951 7.445 7.445l11.097 32.14c2.896 8.387.752 17.692-5.522 23.966l-4.118 1.239c-7.508 2.259-13.408 8.094-15.751 15.576l-1.392 4.446c-4.851 4.851-11.6 7.305-18.433 6.704z" fill="#6fd7a3"/></g><path d="m420.355 83.18-11.097-32.14c-1.206-3.493-3.951-6.239-7.445-7.445l-32.14-11.097c-5.889-2.033-12.226-1.573-17.654 1.048l29.103 10.049c3.493 1.206 6.239 3.951 7.445 7.445l11.097 32.14c2.896 8.387.752 17.692-5.522 23.966l-4.118 1.239c-7.508 2.259-13.408 8.094-15.751 15.576l-1.392 4.446c-2.644 2.644-5.854 4.569-9.332 5.682l11.591 1.02c6.833.602 13.581-1.853 18.432-6.703l1.392-4.446c2.343-7.483 8.243-13.317 15.751-15.576l4.118-1.239c6.274-6.273 8.418-15.578 5.522-23.965z" fill="#3ec3a4"/></g><g><path d="m487.765 246.247c-5.322-5.292-13.133-10.115-22.143-12.035-10.937-2.232-21.674-11.701-24.2-24.222-1.608-7.309-5.522-15.655-12.018-22.103-17.291-17.291-45.426-17.291-62.717 0l-11.541 11.542c-.461-14.798-8.112-28.238-20.703-36.157-6.971-4.241-14.402-9.398-21.21-13.048l11.979-11.979c9.655.748 42.869 3.978 51.981 4.456 8.107 0 15.888-3.198 21.68-8.99 1.123-.632 2.644-5.352 3.246-7.508 1.602-5.115 5.623-9.091 10.755-10.636 3.152-1.184 3.791-.447 7.26-3.118 8.246-8.246 11.114-20.695 7.309-31.717l-11.097-32.14c-1.971-5.709-6.376-10.114-12.086-12.086l-32.14-11.097c-11.024-3.806-23.473-.937-31.717 7.309-3.88 5.763-4.37 16.352-13.717 18.298-3.406 1.084-3.722.133-7.545 2.963-6.436 6.436-9.669 15.327-8.871 24.393l4.337 49.265-17.296 17.296c-7.439-1.693-19.726-.327-28.295 1.532l-38.879 6.859c1.329-5.672-.309-12.864-7.036-17.009.364-.415 30.882-34.06 31.382-34.65 9.213-10.386 14.286-23.739 14.286-37.615v-19.7c0-11.838-4.611-22.975-12.991-31.367-14.182-14.256-37.441-17.451-55.503-5.833-9.324 6.158-23.595 7.057-34.232-.002-6.69-4.249-14.391-6.944-24.142-7.148-14.202 0-27.65 6.88-35.973 18.403-2.425 3.358-1.669 8.046 1.689 10.471 3.357 2.425 8.046 1.668 10.471-1.689 5.511-7.629 14.413-12.185 23.813-12.185 4.469.092 10 1.015 15.97 4.727 14.086 9.375 35.175 10.258 50.572.005 9.683-6.864 27.228-6.282 36.731 3.857 5.544 5.552 8.597 12.925 8.597 20.761v19.7c0 7.967-2.285 15.695-6.509 22.339-6.855-4.117-14.738-6.329-22.841-6.329-6.987-.011-16.637 2.135-24.146 7.15-9.323 6.158-23.596 7.056-34.232-.002-12.693-8.597-32.332-9.812-46.993-.819-4.218-6.64-6.5-14.368-6.5-22.339v-7.13c0-4.142-3.358-7.5-7.5-7.5s-7.5 3.358-7.5 7.5v7.13c-1.691 29.413 29.977 53.025 45.661 72.267-4.564 2.434-9.084 10.056-7.033 17.006l-38.875-6.859c-.025-.005-.051-.004-.076-.008l-8.636-1.523c-13.893-2.448-28.118.339-40.046 7.849l-16.664 10.488c-12.993 8.165-20.75 22.209-20.75 37.57-.047 16.323 9.64 32.757 25.729 40.207 11.081 5.13 18.241 16.334 18.239 28.601-.227 7.403 2.072 17.178 6.803 24.625 12.041 19.75 40.254 27.323 61.14 13.917l16.693-10.492c11.932-7.508 20.597-19.12 24.398-32.694l12.803-45.727c1.91.856 4.019 1.319 6.222 1.319 2.2 0 4.307-.462 6.215-1.316l5.192 18.546c-11.327 11.769-15.918 29.128-9.876 46.227 4.207 11.468 1.348 24.455-7.275 33.076-12.583 11.682-17.69 32.456-10.22 49.481l-14.577 14.575-49.274-4.338c-9.066-.792-17.958 2.436-24.393 8.871-1.123.632-2.643 5.352-3.246 7.508-1.602 5.115-5.622 9.091-10.755 10.636-3.152 1.184-3.79.447-7.26 3.117-8.246 8.245-11.114 20.695-7.309 31.718l11.097 32.139c1.971 5.71 6.376 10.116 12.086 12.087l32.14 11.097c3.234 1.117 6.592 1.659 9.93 1.659 8.037 0 15.962-3.142 21.787-8.967 1.341-.775 3.349-7.463 4.09-9.531 1.516-4.39 5.114-7.667 9.625-8.768 3.406-1.083 3.722-.132 7.546-2.963 6.436-6.436 9.669-15.327 8.871-24.393l-1.347-15.303c-.363-4.126-4.01-7.167-8.129-6.813-4.126.363-7.177 4.003-6.813 8.129l1.347 15.303c.352 3.995-.827 7.922-3.266 11.038-11.428 1.808-20.97 12.059-23.694 23.745-4.168 3.396-9.915 4.459-15.052 2.686l-26.338-9.094 91.286-91.277c6.008 6.477 13.808 11.008 22.611 13.013l19.217 4.37c4.177.951 8.407 1.421 12.619 1.421 9.649 0 19.198-2.469 27.751-7.276l41.385-23.28c1.235 3.07 3.982 6.838 8.8 8.795l-23.276 41.378c-6.915 12.284-8.999 26.623-5.867 40.376l4.379 19.216c2.625 11.55 9.593 21.386 19.62 27.695 16.483 10.756 41.092 8.662 55.717-6.944 8.625-8.625 21.61-11.479 33.093-7.269 14.188 5.614 34.657 2.237 46.607-10.241 10.859-10.859 15.308-26.275 11.9-41.237l-4.37-19.21c-3.127-13.744-11.209-25.772-22.765-33.873l-39.579-27.705c4.951-3.074 8.876-9.317 7.047-17.007.597-.03 45.826-2.258 46.642-2.3v-.001c.006 0 .011-.001.017-.001v.002c12.902-.603 27.203-6.896 36.73-16.509l13.927-13.926c8.37-8.359 12.987-19.492 13-31.349 0-.005 0-.011 0-.017-.012-11.851-4.628-22.987-12.986-31.345zm-100.624 80.59c5.5-9.601-3.924-23.72-16.51-21.922 1.161-10.901-9.128-22.385-21.827-16.417l1.995-40.466c9.031 3.317 16.106 9.733 19.344 21.7 3.335 16.72 17.725 32.172 35.738 35.76 8.546 1.7 18.35 8.876 21.729 19.351zm-16.38 51.379c1.828-1.557 3.683-3.712 4.708-6.748l27.453 19.217c-1.079 2.963-2.801 5.694-5.036 7.935-6.539 5.278-11.797 8.119-22.701 4.979-13.929-5.109-29.717-1.629-40.227 8.868-6.915 7.962-21.966 9.524-30.64 1.066l18.758-33.346c4.953 10.131 21.582 11.97 27.909-1.946 4.268 2.987 13.725 5.48 19.776-.025zm-8.599-23.928c-1.567 2.88-2.129 7.206-.88 12.294-8.457-5.896-20.407-3.421-24.753 6.691-3.226-9.737-12.177-15.971-23.254-10.783 4.199-8.172.183-20.985-10.893-23.213-.02-.036-.028-.126-.04-.127 9.612-4.067 13.057-16.071 6.622-24.649 8.723 2.707 20.558-3.339 20.969-14.759 4.987 7.741 17.787 10.624 25.545 2.18-.88 10.253 7.231 19.385 18.167 18.087-6.731 7.199-7.674 18.786 2.295 25.537-4.614.714-11.007 3.134-13.778 8.742zm-105.369-2.538c.687-2.996 2.868-7.748 6.379-11.064 10.504-10.492 13.986-26.283 8.866-40.242-3.824-8.513 1.08-24.152 12.918-27.724l19.221 27.458c-9.285 2.757-13.197 15.872-6.793 24.489-11.541 4.541-13.749 21.607-1.914 27.9l-33.359 18.765c-4.87-5.166-6.935-12.451-5.318-19.582zm153.879-251.184c-10.887 2.428-20.976 12.061-23.65 23.659-3.145 2.539-7.153 3.774-11.225 3.414l-36.744-3.235 65.118-65.118 9.095 26.341c1.758 5.092.73 10.78-2.594 14.939zm-85.458-23.51c-.352-3.995.828-7.922 3.266-11.038 11.428-1.808 20.969-12.058 23.694-23.744 4.168-3.397 9.912-4.46 15.052-2.687l26.338 9.093-65.116 65.116zm-27.326 83.309c7.357 1.247 22.111 11.72 28.571 15.604 8.599 5.408 13.733 14.706 13.733 24.871-.332 10.778-5.193 20.356-17.031 26.594-6.596 3.054-12.461 7.684-16.962 13.39-2.565 3.252-2.008 7.968 1.244 10.534 1.938 1.639 7.034 2.692 10.534-1.244 3.048-3.864 7.02-7 11.478-9.063 2.429-1.12 4.733-2.484 6.92-4.026l-2.425 48.183c-4.945-1.511-13.547.682-17.004 7.051l-27.711-39.592c-8.095-11.548-20.123-19.63-33.868-22.758l-6.511-1.481c-.643-8.714 4.046-19.775 13.538-23.939 15.627-6.857 25.666-26.932 19.266-44.978 5.433-.782 10.892-.504 16.228.854zm-90.334 68.216-4.879-17.428c12.235 3.913 23.193-8.92 18.44-21.217 9.548-1.3 17.342-11.65 12.452-21.984l33.012-5.821c4.547 9.516 1.122 23.518-10.492 28.744-13.322 6.171-21.966 19.572-22.15 34.23-9.097-1.6-18.259-.33-26.383 3.476zm-65.653-133.521c4.485.086 10.008 1.012 15.97 4.727 20.993 13.3 39.095 6.712 58.218-3.525 5.581-1.728 14.354-1.703 21.382 1.854l-27.208 30.03c-3.749-11.571-19.376-13.453-27.174-3.831-6.529-9.056-22.891-8.461-27.035 3.836l-27.212-30.034c4.026-1.996 8.489-3.057 13.059-3.057zm11.413 152.952c-10.942-.255-21.371-9.982-20.913-22.432 0-14.848-8.706-28.471-22.17-34.702-6.584-2.957-12.518-10.527-12.53-19.568 0-3.173.71-6.323 2.041-9.179l33.009 5.82c-4.712 8.893 2.104 20.59 12.523 22.106-4.895 10.913 5.2 25.05 18.36 21.099zm-21.564 36.988-16.694 10.493c-12.184 8.07-32.075 4.828-40.457-9.208-2.34-3.673-4.754-10.469-4.498-16.695 0-18.032-10.574-34.579-26.948-42.16-8.834-3.823-17.207-14.737-17.022-26.59 0-10.17 5.133-19.467 13.735-24.872l16.671-10.491c8.392-5.284 18.33-7.38 28.129-5.973-1.287 3.788-1.966 7.786-1.966 11.806.072 13.245 7.582 26.8 21.22 33.176 8.188 3.79 13.48 12.07 13.48 21.094-.934 16.919 13.663 35.387 31.753 37.13-3.022 9.229-9.149 17.097-17.403 22.29zm51.493-79.417c-3.056-8.34-13.316-15.085-24.112-8.715 3.51-9.666-1.978-20.604-12.869-22.174 7.821-4.388 12.099-16.13 4.396-25.258 9.225 1.892 20.073-5.085 19.603-16.524 5.293 6.416 16.509 8.996 23.539 2.046l2.099-2.104c.51 9.971 7.235 18.381 19.677 16.436-6.134 7.503-5.893 19.534 4.509 25.239-10.127 1.794-16.853 12.014-12.77 22.232-8.994-4.605-20.064-2.561-24.072 8.822zm-116.089 213.28c10.888-2.429 20.976-12.062 23.65-23.659 3.144-2.54 7.149-3.777 11.225-3.415l36.748 3.235-65.123 65.116-9.095-26.34c-1.757-5.091-.729-10.778 2.595-14.937zm153.55-36.636-19.217-4.369c-15.782-3.596-25.698-19.355-22.103-35.134.928-4.224 4.057-10.781 8.63-14.98 12.746-12.745 16.969-31.922 10.755-48.865-3.553-8.95-1.756-22.592 6.769-30.838 13.348-14.07 32.232-6.622 46.499-3.507 9.678 2.202 18.192 7.751 24.122 15.667-15.752 7.543-24.933 27.389-18.199 45.422 3.11 8.478.995 18.075-5.392 24.454-12.731 11.479-15.281 34.514-3.785 48.703-8.665 4.385-18.563 5.614-28.079 3.447zm210.404 41.377 4.371 19.212c2.256 9.905-.69 20.111-7.881 27.301-7.645 7.257-18.797 10.963-30.844 6.762-16.938-6.212-36.115-1.992-48.846 10.738-8.454 9.427-25.014 12.679-37.131 4.866-6.634-4.175-11.245-10.683-12.983-18.329l-4.379-19.219c-2.167-9.513-.937-19.406 3.451-28.068 13.46 10.671 35.758 10.084 48.696-3.79 6.391-6.383 15.99-8.5 24.445-5.4 11.73 4.614 28.452 1.93 38.484-8.45 2.839-2.846 5.184-6.156 6.951-9.744 7.918 5.935 13.465 14.447 15.666 24.121zm46.04-125.257-13.93 13.93c-5.639 5.639-12.716 9.492-20.391 11.204-3.836-15.585-16.72-28.976-33.814-32.659-10.96-2.236-21.669-11.687-24.2-24.222-2.597-14.544-16.467-30.213-32.648-33.785 1.716-7.681 5.567-14.759 11.2-20.391l13.93-13.93c11.443-11.443 30.062-11.442 41.514.01 3.097 3.202 6.348 7.813 7.945 14.618 3.33 16.708 17.748 32.176 35.738 35.76 4.352 1.029 9.613 3.084 14.657 7.962 5.537 5.538 8.592 12.909 8.603 20.757-.011 7.848-3.065 15.214-8.604 20.746z"/><ellipse cx="338.922" cy="336.721" rx="7.697" ry="7.697" transform="matrix(.707 -.707 .707 .707 -138.83 338.277)"/><ellipse cx="183.161" cy="169.225" rx="7.697" ry="7.697" transform="matrix(.707 -.707 .707 .707 -66.014 179.079)"/></g></g></svg>