<svg height="512pt" viewBox="-36 0 512 512.00054" width="512pt" xmlns="http://www.w3.org/2000/svg"><path d="m311.636719 167.085938c2.039062-2.261719 3.957031-4.632813 5.765625-7.089844h-34.765625c14.371093-15.949219 23.359375-36.835938 23.359375-59.996094 0-37.050781-22.382813-68.863281-54.367188-82.667969-2.191406-.15625-4.402344-.242187-6.632812-.242187-49.707032 0-89.996094 40.289062-89.996094 90 0 23.160156 8.988281 44.046875 23.359375 59.996094h-96.359375v82.910156h61.566406l-2.214844 7.089844h31.214844l-44.398437 142.039062.949219.300781 55.558593 23.808594 2.863281-8.589844c7.441407-22.320312 34.566407-26.417969 49.25-12.304687 13.125-3.597656 10.5 12.601562 17.207032 26.652344l77.878906-36.65625.949219-.300782-44.398438-142.039062h67.570313v-82.910156zm0 0" fill="#8c4a37"/><g fill="#ffda2d"><path d="m384.996094 159.996094c24.847656 0 45 20.152344 45 45 0 24.851562-20.152344 45-45 45h-25v-90zm0 0"/><path d="m352.683594 442.753906c7.863281 23.570313-4.878906 49.058594-28.46875 56.910156-23.460938 7.871094-49.023438-4.808593-56.910156-28.460937l-14.429688-43.300781 83-35.566406.949219-.300782zm0 0"/><path d="m112.976562 452.75c-6.09375 18.269531.195313 37.683594 14.3125 49.152344 19.773438 1.210937 38.789063-10.871094 45.398438-30.699219l14.429688-43.300781-58.527344-25.082032zm0 0"/><path d="m80 169.996094h-4c-24.851562 0-45 20.152344-45 45 0 13.714844 6.144531 25.992187 15.824219 34.246094 2.652343.488281 5.382812.753906 8.175781.753906h25zm0 0"/></g><path d="m259.996094 90c5.519531 0 10-4.480469 10-10s-4.480469-10-10-10c-5.519532 0-10 4.480469-10 10s4.480468 10 10 10zm0 0"/><path d="m219.996094 195.996094c-5.519532 0-10 4.480468-10 10 0 5.519531 4.480468 10 10 10 5.519531 0 10-4.480469 10-10 0-5.519532-4.480469-10-10-10zm0 0"/><path d="m219.996094 235.996094c-5.519532 0-10 4.480468-10 10 0 5.519531 4.480468 10 10 10 5.519531 0 10-4.480469 10-10 0-5.519532-4.480469-10-10-10zm0 0"/><path d="m219.996094 275.996094c-5.519532 0-10 4.480468-10 10 0 5.519531 4.480468 10 10 10 5.519531 0 10-4.480469 10-10 0-5.519532-4.480469-10-10-10zm0 0"/><path d="m219.996094 315.996094c-5.519532 0-10 4.480468-10 10 0 5.519531 4.480468 10 10 10 5.519531 0 10-4.480469 10-10 0-5.519532-4.480469-10-10-10zm0 0"/><path d="m179.996094 70c-5.519532 0-10 4.480469-10 10s4.480468 10 10 10c5.523437 0 10-4.480469 10-10s-4.476563-10-10-10zm0 0"/><path d="m191.726562 114.128906c-3.90625 3.90625-3.90625 10.234375 0 14.140625 7.5625 7.5625 17.601563 11.730469 28.269532 11.730469 10.667968 0 20.707031-4.164062 28.269531-11.730469 3.90625-3.902343 3.90625-10.234375 0-14.140625-3.902344-3.90625-10.234375-3.90625-14.140625 0-3.785156 3.785156-8.804688 5.871094-14.128906 5.871094-5.324219 0-10.34375-2.085938-14.128906-5.871094-3.90625-3.90625-10.238282-3.90625-14.140626 0zm0 0"/><path d="m229.996094 10c0 5.523438-4.476563 10-10 10-5.523438 0-10-4.476562-10-10s4.476562-10 10-10c5.523437 0 10 4.476562 10 10zm0 0"/><path d="m55 149.996094c-30.328125 0-55 24.675781-55 55 0 30.328125 24.671875 55 55 55h78.964844l-56.171875 179.6875c-9.546875 28.789062 6 59.875 34.804687 69.460937 28.613282 9.597657 59.898438-5.742187 69.578125-34.777343l18.847657-56.558594c3.363281-10.082032 12.007812-13.675782 18.976562-13.675782 6.964844 0 15.609375 3.59375 18.972656 13.675782l18.847656 56.558594c9.722657 29.164062 41.097657 44.332031 69.554688 34.785156 28.824219-9.59375 44.378906-40.664063 34.828125-69.46875l-56.175781-179.6875h78.96875c30.324218 0 55-24.671875 55-55 0-30.324219-24.675782-55-55-55h-78.691406c8.914062-15.183594 13.691406-32.394532 13.691406-49.996094 0-36.34375-19.761719-69.875-51.570313-87.511719-4.832031-2.675781-10.917969-.933593-13.59375 3.898438-2.679687 4.828125-.933593 10.914062 3.898438 13.59375 25.453125 14.109375 41.265625 40.941406 41.265625 70.019531 0 19.492188-7.382813 38.425781-20.789063 53.304688-2.644531 2.933593-3.3125 7.148437-1.707031 10.761718 1.605469 3.605469 5.183594 5.933594 9.136719 5.933594h63.359375v69.996094h-57.570313c-3.179687 0-6.171875 1.515625-8.058593 4.078125-1.882813 2.5625-2.4375 5.871093-1.484376 8.90625l41.679688 133.324219-65.636719 28.128906-.984375-2.953125c-5.539062-16.613281-20.433594-27.347657-37.945312-27.347657-17.507813 0-32.40625 10.734376-37.945313 27.351563l-.984375 2.949219-65.632812-28.128906 41.679687-133.324219c.949219-3.035157.398438-6.34375-1.488281-8.90625-1.882812-2.5625-4.875-4.078125-8.058594-4.078125h-57.570312v-70h63.359375c3.953125 0 7.53125-2.324219 9.136719-5.933594 1.605468-3.609375.9375-7.824219-1.707032-10.757812-13.40625-14.882813-20.789062-33.8125-20.789062-53.308594 0-29.074219 15.8125-55.90625 41.269531-70.015625 4.828125-2.679688 6.574219-8.765625 3.894531-13.597657-2.675781-4.828124-8.765625-6.574218-13.59375-3.894531-31.808594 17.632813-51.570312 51.164063-51.570312 87.507813 0 17.605468 4.777344 34.816406 13.691406 50zm314.996094 20h15c19.296875 0 35 15.703125 35 35 0 19.300781-15.703125 35-35 35h-15zm-39.4375 235.496094s12.621094 40.367187 12.640625 40.425781c6.109375 18.328125-3.757813 38.140625-22.164063 44.265625-18.183594 6.097656-38.082031-3.660156-44.242187-22.140625l-11.523438-34.570313zm-155.835938 27.980468-11.523437 34.566406c-6.125 18.378907-25.9375 28.28125-44.265625 22.136719-18.347656-6.105469-28.257813-25.90625-22.140625-44.261719.019531-.058593 12.640625-40.421874 12.640625-40.421874zm-104.722656-193.476562h-15c-19.300781 0-35-15.699219-35-35 0-19.296875 15.699219-35 35-35h15zm0 0"/></svg>