<svg id="Capa_1" enable-background="new 0 0 512 512" height="512" viewBox="0 0 512 512" width="512" xmlns="http://www.w3.org/2000/svg"><g><g><g><ellipse cx="346.025" cy="203.021" fill="#00c285" rx="18.612" ry="36.073" transform="matrix(.707 -.707 .707 .707 -42.209 304.14)"/></g></g><g><g><ellipse cx="113.735" cy="186.708" fill="#00c285" rx="18.612" ry="36.073" transform="matrix(.707 -.707 .707 .707 -98.71 135.109)"/></g></g><g><g><ellipse cx="165.975" cy="186.708" fill="#1ee6a6" rx="36.073" ry="18.612" transform="matrix(.707 -.707 .707 .707 -83.41 172.048)"/></g></g><g><g><ellipse cx="398.265" cy="183.125" fill="#1ee6a6" rx="36.073" ry="18.612" transform="matrix(.707 -.707 .707 .707 -12.84 335.252)"/></g></g><g><g><path d="m139.855 442.732c-18.276 0-33.091-14.815-33.091-33.091v-171.861h66.182v171.86c0 18.276-14.815 33.092-33.091 33.092z" fill="#eaf6ff"/></g></g><g><path d="m131.818 409.641v-171.86h-25.054v171.86c0 18.276 14.815 33.091 33.091 33.091 4.435 0 8.662-.879 12.527-2.461-12.063-4.939-20.564-16.789-20.564-30.63z" fill="#d8ecfe"/></g><g><path d="m256 153.917-17.249 29.877c-7.666 13.279 1.917 29.877 17.249 29.877 15.333 0 24.916-16.598 17.249-29.877z" fill="#fbd74c"/></g><g><path d="m255.698 183.794 8.776-15.2-8.474-14.677-17.25 29.877c-7.666 13.279 1.917 29.877 17.25 29.877 3.092 0 5.944-.684 8.474-1.87-10.017-4.698-14.896-17.406-8.776-28.007z" fill="#fac600"/></g><g><g><path d="m256 442.732c-18.276 0-33.091-14.815-33.091-33.091v-171.861h66.182v171.86c0 18.276-14.815 33.092-33.091 33.092z" fill="#eaf6ff"/></g></g><g><path d="m248 409.641v-171.86h-25.091v171.86c0 18.276 14.815 33.091 33.091 33.091 4.442 0 8.676-.881 12.546-2.469-12.054-4.943-20.546-16.788-20.546-30.622z" fill="#d8ecfe"/></g><g><path d="m222.909 347v62.641c0 18.276 14.815 33.091 33.091 33.091 18.276 0 33.091-14.815 33.091-33.091v-62.641z" fill="#fbd74c"/></g><g><path d="m248 409.641v-62.641h-25.091v62.641c0 18.276 14.815 33.091 33.091 33.091 4.442 0 8.676-.881 12.546-2.468-12.054-4.944-20.546-16.789-20.546-30.623z" fill="#fac600"/></g><g><g><path d="m372.145 442.732c-18.276 0-33.091-14.815-33.091-33.091v-171.861h66.182v171.86c0 18.276-14.816 33.092-33.091 33.092z" fill="#eaf6ff"/></g></g><g><path d="m364.818 409.641v-171.86h-25.764v171.86c0 18.276 14.815 33.091 33.091 33.091 4.57 0 8.923-.926 12.882-2.601-11.876-5.024-20.209-16.784-20.209-30.49z" fill="#d8ecfe"/></g><g><path d="m339.054 330.048v79.593c0 18.276 14.815 33.091 33.091 33.091 18.276 0 33.091-14.815 33.091-33.091v-79.593z" fill="#1ee6a6"/></g><g><path d="m364.818 409.641v-79.593h-25.764v79.593c0 18.276 14.815 33.091 33.091 33.091 4.57 0 8.923-.926 12.882-2.601-11.876-5.024-20.209-16.784-20.209-30.49z" fill="#0ed290"/></g><g><path d="m477.322 467.241h-442.644c-2.596 0-4.701 2.105-4.701 4.701v27.858c0 2.596 2.105 4.701 4.701 4.701h442.645c2.596 0 4.701-2.105 4.701-4.701v-27.858c-.001-2.596-2.106-4.701-4.702-4.701z" fill="#54469c"/></g><g><path d="m93.954 499.799v-27.858c0-2.596 2.104-4.701 4.701-4.701h-63.977c-2.596 0-4.701 2.104-4.701 4.701v27.858c0 2.596 2.104 4.701 4.701 4.701h63.977c-2.596 0-4.701-2.105-4.701-4.701z" fill="#463b84"/></g><g><path d="m106.764 330.048v79.593c0 18.276 14.815 33.091 33.091 33.091 18.276 0 33.091-14.815 33.091-33.091v-79.593z" fill="#1ee6a6"/></g><g><path d="m131.818 409.641v-79.593h-25.054v79.593c0 18.276 14.815 33.091 33.091 33.091 4.435 0 8.662-.879 12.527-2.461-12.063-4.939-20.564-16.789-20.564-30.63z" fill="#0ed290"/></g><g><path d="m98.827 58.263 16.836-29.161c-.772-.653-1.6-1.257-2.507-1.78l-30.366-17.533c-8.191-4.729-18.664-1.923-23.393 6.268-4.729 8.19-1.923 18.664 6.268 23.393l30.367 17.532c.906.523 1.843.939 2.795 1.281z" fill="#54469c"/><path d="m98.827 58.263 7.67-13.284-23.932-13.816c-8.19-4.729-10.997-15.203-6.268-23.393.028-.049.062-.092.091-.141-6.637-.841-13.437 2.271-16.991 8.428-4.729 8.19-1.923 18.664 6.268 23.393l30.367 17.532c.906.523 1.843.94 2.795 1.281z" fill="#463b84"/><path d="m245.205 110.11-13.052-7.536c-1.115-.644-1.94-1.691-2.305-2.926l-2.005-6.783c-.365-1.235-1.19-2.282-2.305-2.926l-80.91-46.713-19.086 33.059 80.91 46.713c1.115.644 2.435.835 3.687.533l6.877-1.655c1.252-.301 2.572-.11 3.687.533l13.053 7.536c2.402 1.387 5.474.564 6.861-1.839l6.429-11.136c1.385-2.401.561-5.473-1.841-6.86z" fill="#eaf6ff"/><g><path d="m206.45 122.997c1.115.644 2.435.835 3.687.534l6.877-1.655c1.252-.301 2.572-.11 3.687.534l13.053 7.536c2.402 1.387 5.474.564 6.861-1.839l6.429-11.135c1.387-2.402.564-5.474-1.839-6.861l-13.052-7.536c-1.115-.644-1.94-1.691-2.305-2.926l-2.005-6.783c-.09-.304-.208-.595-.351-.873h-74.743z" fill="#fbd74c"/></g><g><path d="m92.508 79.252 19.139 11.05c2.402 1.387 5.474.564 6.861-1.838l33.15-57.418c1.387-2.402.564-5.474-1.838-6.861l-19.139-11.05c-2.402-1.387-5.474-.564-6.861 1.838l-33.15 57.418c-1.387 2.402-.564 5.474 1.838 6.861z" fill="#8379c1"/></g><g><path d="m113.176 72.783c-2.402-1.387-3.225-4.459-1.838-6.861l27.693-47.966-8.349-4.821c-2.402-1.387-5.474-.564-6.861 1.838l-33.151 57.418c-1.387 2.402-.564 5.474 1.838 6.861l19.139 11.05c2.402 1.387 5.474.564 6.861-1.838l5.457-9.451z" fill="#6e61b6"/></g></g><g><path d="m249.505 150.167-17.249 29.877c-4.956 8.584-4.957 18.833-.001 27.418 4.956 8.584 13.833 13.709 23.745 13.709s18.789-5.125 23.745-13.709 4.955-18.834-.001-27.418l-17.249-29.877c-1.34-2.32-3.815-3.75-6.495-3.75s-5.155 1.43-6.495 3.75zm17.249 37.377c2.245 3.888 2.245 8.53 0 12.418-2.244 3.888-6.265 6.209-10.754 6.209s-8.51-2.321-10.754-6.209c-2.245-3.888-2.245-8.53 0-12.418l10.754-18.627z"/><path d="m477.322 459.741h-15.463v-146.116c0-12.407-10.094-22.5-22.5-22.5h-26.623v-45.845h5.101c4.143 0 7.5-3.358 7.5-7.5s-3.357-7.5-7.5-7.5h-38.192v-13.549c.142.001.283.009.425.009 13.632 0 26.891-5.382 36.659-15.151 11.808-11.806 17.206-28.708 14.44-45.211-.528-3.156-3.001-5.629-6.157-6.158-16.503-2.765-33.404 2.634-45.212 14.44-6.26 6.26-10.697 13.959-13.092 22.264-.713-.809-1.451-1.601-2.219-2.368-11.807-11.807-28.704-17.203-45.211-14.44-3.156.529-5.629 3.001-6.157 6.157-2.766 16.502 2.632 33.403 14.439 45.211 3.52 3.52 7.498 6.461 11.778 8.795h-12.886c-4.143 0-7.5 3.358-7.5 7.5s3.357 7.5 7.5 7.5h5.102v45.845h-34.963v-45.844h5.102c4.143 0 7.5-3.358 7.5-7.5s-3.357-7.5-7.5-7.5h-91.385c-4.143 0-7.5 3.358-7.5 7.5s3.357 7.5 7.5 7.5h5.102v45.845h-34.963v-45.845h5.102c4.143 0 7.5-3.358 7.5-7.5s-3.357-7.5-7.5-7.5h-12.602-25.591v-9.965c.141.001.282.009.423.009 13.634 0 26.892-5.382 36.662-15.151 11.807-11.808 17.205-28.709 14.438-45.211-.528-3.156-3.001-5.628-6.157-6.157-16.507-2.764-33.405 2.633-45.21 14.44-2.966 2.966-5.527 6.255-7.656 9.777-2.129-3.522-4.689-6.811-7.655-9.777 0 0 0 0-.001 0-11.807-11.807-28.705-17.203-45.211-14.44-3.156.529-5.629 3.002-6.157 6.158-2.766 16.503 2.633 33.404 14.44 45.21 9.771 9.771 23.026 15.151 36.66 15.151.141 0 .283-.008.424-.009v9.965h-25.591-12.602c-4.143 0-7.5 3.358-7.5 7.5s3.357 7.5 7.5 7.5h5.102v45.845h-26.624c-12.406 0-22.5 10.093-22.5 22.5v28.375c0 4.142 3.357 7.5 7.5 7.5s7.5-3.358 7.5-7.5v-28.375c0-4.135 3.364-7.5 7.5-7.5h26.624v103.515c0 22.382 18.209 40.591 40.591 40.591s40.591-18.209 40.591-40.591v-103.515h34.963v103.515c0 22.382 18.209 40.591 40.591 40.591s40.591-18.209 40.591-40.591v-103.515h34.963v103.515c0 22.382 18.209 40.591 40.591 40.591 22.383 0 40.592-18.209 40.592-40.591v-12.64c0-4.142-3.357-7.5-7.5-7.5s-7.5 3.358-7.5 7.5v12.641c0 14.111-11.48 25.591-25.592 25.591-14.11 0-25.591-11.48-25.591-25.591v-72.093h51.183v24.452c0 4.142 3.357 7.5 7.5 7.5s7.5-3.358 7.5-7.5v-55.875h26.623c4.136 0 7.5 3.365 7.5 7.5v146.116h-381.72v-82.741c0-4.142-3.357-7.5-7.5-7.5s-7.5 3.358-7.5 7.5v82.741h-15.463c-6.728 0-12.2 5.473-12.2 12.201v27.857c0 6.728 5.473 12.201 12.2 12.201h442.645c6.728 0 12.2-5.473 12.2-12.201v-27.857c-.001-6.728-5.473-12.201-12.201-12.201zm-86.916-284.474c7.04-7.039 16.607-10.832 26.473-10.756.114 9.839-3.717 19.433-10.756 26.472-7.041 7.04-16.668 10.902-26.472 10.756-.115-9.838 3.716-19.432 10.755-26.472zm-62.995 9.14c.143-.002.285-.002.429-.002 9.688 0 19.105 3.821 26.042 10.758h.001c7.039 7.039 10.87 16.633 10.756 26.472-9.823.137-19.432-3.716-26.472-10.756s-10.871-16.634-10.756-26.472zm-169.294-5.556c.001 0 .001 0 0 0 6.938-6.938 16.354-10.758 26.043-10.758.144 0 .286 0 .429.002.115 9.837-3.716 19.431-10.755 26.471-6.938 6.938-16.356 10.759-26.046 10.759-.142 0-.284-.001-.427-.002-.114-9.84 3.717-19.433 10.756-26.472zm-52.24 15.715c-7.039-7.039-10.87-16.633-10.756-26.471.143-.002.285-.002.429-.002 9.688 0 19.106 3.821 26.043 10.758 7.04 7.04 10.871 16.634 10.756 26.472-9.871.077-19.433-3.719-26.472-10.757zm59.569 50.714v45.845h-18.091v-45.845zm-51.181 0h18.091v45.845h-18.091zm18.09 60.845v16.422h-18.091v-16.422zm33.091 103.516c0 14.111-11.48 25.591-25.591 25.591s-25.591-11.48-25.591-25.591v-72.093h51.182zm0-87.093h-18.091v-16.422h18.091zm64.963-77.268h51.182v45.845h-51.182zm51.182 164.361c0 14.111-11.48 25.591-25.591 25.591-14.11 0-25.591-11.48-25.591-25.591v-55.141h51.182zm0-70.141h-51.182v-33.375h51.182zm116.145-48.375h-18.092v-45.845h18.092zm-51.182-45.845h18.091v45.845h-18.091zm0 60.845h18.091v16.422h-18.091zm51.182 16.423h-18.092v-16.422h18.092zm76.786 174.452h-437.044v-22.259h437.045v22.259z"/><path d="m61.915 45.945 26.523 15.313-4.263 7.384c-3.452 5.979-1.396 13.653 4.584 17.106l19.139 11.05c1.93 1.114 4.071 1.683 6.241 1.683 1.088 0 2.183-.143 3.262-.432 3.231-.866 5.932-2.938 7.604-5.834l3.282-5.685 74.413 42.963c2.794 1.613 6.059 2.086 9.192 1.331l5.916-1.424 12.195 7.042c1.93 1.114 4.071 1.683 6.241 1.683 1.088 0 2.183-.143 3.262-.432 3.231-.866 5.932-2.938 7.604-5.834l6.43-11.136c3.452-5.98 1.396-13.654-4.584-17.106l-12.195-7.042-1.726-5.835c-.914-3.09-2.954-5.68-5.747-7.295l-33.222-19.18c-3.589-2.072-8.176-.842-10.245 2.745-2.071 3.587-.842 8.174 2.745 10.245l12.551 7.246h-46.345l-18.986-10.961 11.586-20.068 10.883 6.283c3.588 2.071 8.175.842 10.245-2.745 2.071-3.587.842-8.174-2.745-10.245l-10.883-6.283 3.282-5.685c3.452-5.979 1.396-13.653-4.584-17.106l-19.14-11.05c-2.896-1.672-6.27-2.118-9.503-1.251-3.23.866-5.931 2.938-7.603 5.834l-4.263 7.384-26.522-15.314c-11.757-6.788-26.849-2.746-33.638 9.013s-2.745 26.849 9.014 33.638zm160.068 53.555.671 2.27c.913 3.094 2.954 5.687 5.748 7.299l10.907 6.298-3.952 6.844-10.905-6.296c-2.794-1.613-6.059-2.084-9.193-1.331l-5.915 1.423-28.592-16.507zm-92.907-78.631 14.849 8.573-30.673 53.126-14.849-8.573zm-63.184-1.062c1.781-3.084 5.022-4.811 8.352-4.811 1.632 0 3.284.415 4.796 1.287l26.523 15.313-9.625 16.67-26.523-15.312c-4.596-2.653-6.177-8.551-3.523-13.147z"/></g></g></svg>