<svg height="511pt" viewBox="-54 1 511 511.999" width="511pt" xmlns="http://www.w3.org/2000/svg"><path d="m304.160156 102c2.113282-38.273438-19.828125-68.6875-52.058594-83.664062-2.546874-.21875-5.125-.335938-7.726562-.335938-45.679688 0-83.507812 34.191406-89.25 78.328125-.628906 4.800781 20.074219 1.664063 20.242188 6.671875l38.921874 19.980469.007813-.011719 62.070313-25.96875zm0 0" fill="#ffda2d"/><path d="m364.296875 190c0-25.410156-10.585937-48.382812-27.574219-64.761719-10.859375-4.65625-22.808594-7.238281-35.34375-7.238281-23.03125 0-44.070312 8.691406-60 22.96875l-.011718.011719 11 49.019531zm0 0" fill="#7fe881"/><path d="m125.046875 88.328125-56.320313-56.320313c-7.796874-.09375-15.621093 2.828126-21.566406 8.773438-11.722656 11.710938-11.722656 30.710938 0 42.421875l43.351563 43.351563zm0 0" fill="#fff4ca"/><path d="m78.367188 222c0 12.773438 7.984374 23.671875 19.230468 28h266.699219c16.570313 0 30-13.429688 30-30 0-12.773438-7.984375-23.671875-19.226563-28-76.609374 0-258.25 0-266.703124 0-16.570313 0-30 13.429688-30 30zm0 0" fill="#fff4ca"/><path d="m233.332031 374.660156c63.921875-8.980468 115.300781-62.273437 127.964844-124.660156h-255.929687c12.664062 62.386719 64.042968 115.679688 127.964843 124.660156zm0 0" fill="#ffa2c3"/><path d="m274.296875 502h-120l60-60zm0 0" fill="#fff4ca"/><path d="m96.726562 190h147.570313c0-36.152344-21.515625-67.570312-52.5625-81.835938-1.773437-.105468-3.5625-.164062-5.367187-.164062-46.8125 0-85.578126 35.976562-89.640626 82zm0 0" fill="#ffa2c3"/><path d="m119.378906 68.519531-50.589844-50.589843c-15.59375-15.59375-40.96875-15.59375-56.558593-.003907-15.636719 15.625-15.644531 40.9375-.003907 56.566407l59.367188 59.367187c-9.546875 14.058594-15.382812 30.386719-16.898438 47.3125-17.433593 4.3125-30.398437 20.082031-30.398437 38.828125 0 20.347656 15.277344 37.183594 34.960937 39.671875 16.945313 66.878906 75.15625 121.121094 145.109376 125.976563v52.207031l-57.140626 57.074219c-2.859374 2.859374-3.714843 7.160156-2.167968 10.894531 1.546875 3.738281 5.195312 6.175781 9.238281 6.175781h120c4.046875 0 7.691406-2.4375 9.238281-6.175781 1.550782-3.734375.691406-8.035157-2.167968-10.894531l-57.070313-57.074219v-52.207031c69.933594-4.855469 128.089844-59.078126 145.039063-125.976563 19.683593-2.488281 34.960937-19.324219 34.960937-39.671875 0-18.746094-12.96875-34.519531-30.40625-38.828125-3.222656-36.292969-26.128906-68.183594-59.605469-82.8125-.847656-55.1875-46.253906-98.359375-99.988281-98.359375-43.628906 0-81.589844 28.402344-94.917969 68.519531zm114.28125 111.480469h-158.722656c5.054688-39.796875 38.925781-70 79.359375-70 40.390625 0 74.3125 30.234375 79.363281 70zm-207.289062-147.929688c7.792968-7.796874 20.480468-7.796874 28.273437 0l59.972657 59.96875c-.167969 2.09375-.25 4.195313-.285157 6.304688-11.074219 4.839844-21.179687 11.660156-29.847656 20.125l-58.117187-58.121094c-7.816407-7.808594-7.820313-20.460937.003906-28.277344zm152.070312 459.929688 35.855469-35.855469 35.859375 35.855469zm205.855469-272c0 11.027344-8.972656 20-20 20-14.214844 0-93.78125 0-102.929687 0-5.523438 0-10 4.476562-10 10s4.476562 9.988281 10 9.988281h87.167968c-17.835937 61.214844-73.574218 106.011719-134.238281 106.011719s-116.398437-44.789062-134.234375-106h91.304688c5.523437 0 10-4.476562 10-10s-4.476563-10-10-10c-4.257813 0-101.90625 0-107.070313 0-11.027344 0-20-8.972656-20-20s8.972656-20 20-20h300c11.03125 0 20 8.972656 20 20zm-30.636719-40h-99.875c-2.101562-20.773438-10.699218-40.414062-24.515625-56.082031 13.214844-9.027344 28.863281-13.917969 45.027344-13.917969 40.367187 0 74.328125 30.164062 79.363281 70zm-139.363281-160c42.054687 0 75.667969 32.246094 79.601563 71.949219-6.414063-1.285157-12.964844-1.949219-19.601563-1.949219-21.75 0-42.75 7.078125-60.007813 20.0625-17.253906-12.988281-38.246093-20.0625-59.992187-20.0625-6.203125 0-12.335937.585938-18.359375 1.710938.4375-1.921876.304688-3.941407-.402344-5.796876 6.734375-37.832031 39.953125-65.914062 78.761719-65.914062zm0 0"/><path d="m226.367188 250c0 5.523438-4.476563 10-10 10-5.523438 0-10-4.476562-10-10s4.476562-10 10-10c5.523437 0 10 4.476562 10 10zm0 0"/></svg>