<svg id="Capa_1" enable-background="new 0 0 512 512" height="512" viewBox="0 0 512 512" width="512" xmlns="http://www.w3.org/2000/svg"><g><g><g><g><path d="m267.831 442.62c30.349-29.478 44.788-69.016 43.32-108.068-.935-24.883 16.869-46.674 41.407-50.907 21.639-3.733 42.382-13.919 59.131-30.561 42.852-42.578 43.483-112.467 1.367-155.774-43.158-44.378-114.125-44.753-157.753-1.125-16.819 16.819-27.096 37.701-30.834 59.486-4.231 24.658-26.296 42.163-51.299 41.295-38.262-1.329-76.955 12.609-106.163 41.817-55.607 55.606-55.874 145.599-.798 201.536 54.944 55.803 145.447 56.864 201.622 2.301z" fill="#ffbd86"/></g><g><g><path d="m100.108 431.577c-55.076-55.937-54.81-145.93.798-201.538 14.32-14.32 30.922-24.959 48.633-31.939-30.181 3.942-59.346 17.495-82.532 40.681-55.607 55.608-55.873 145.601-.798 201.538 41.358 42.005 102.863 52.986 154.71 32.58-43.055 5.637-88.197-8.199-120.811-41.322z" fill="#f6a96c"/></g></g><g><path d="m99.472 271.247c19.259-19.259 44.866-29.344 72.104-28.396 26.675.927 52.773-9.342 71.602-28.171 14.018-14.018 23.197-31.738 26.543-51.246 2.268-13.217 8.509-25.246 18.048-34.785 12.37-12.37 28.817-19.114 46.314-18.993 17.49.122 33.847 7.105 46.06 19.663 24.572 25.266 24.273 66.11-.664 91.047l-.149.149c-9.498 9.437-21.454 15.623-34.575 17.885-19.602 3.382-37.406 12.61-51.484 26.688-18.788 18.788-28.992 44.734-27.998 71.188 1.028 27.343-9.053 53.049-28.386 72.382-.343.343-.693.688-1.043 1.028-38.152 37.058-99.573 36.35-136.916-1.578-37.294-37.874-37.048-99.269.544-136.861z" fill="#eaf6ff"/></g><g><g><path d="m132.809 400.085c-37.291-37.873-37.046-99.268.546-136.86 8.692-8.692 18.681-15.509 29.526-20.293-23.958 1.246-46.215 11.121-63.41 28.315-37.592 37.592-37.838 98.987-.546 136.86 29.018 29.473 72.571 36.458 108.451 20.725-26.901 1.447-54.285-8.147-74.567-28.747z" fill="#d8ecfe"/></g></g><g><path d="m140.053 311.828c7.997-7.997 18.208-12.016 29.528-11.622 8.979.312 17.919-.173 26.718-1.414 7.573-1.069 14.036 5.387 12.978 12.961-1.228 8.788-1.693 17.715-1.356 26.679.428 11.367-3.59 21.618-11.617 29.646l-.474.467c-15.579 15.132-40.717 14.83-56.009-.701-15.261-15.5-15.156-40.628.232-56.016z" fill="#fe653b"/></g><g><circle cx="333.625" cy="174.506" fill="#fe653b" r="25.826"/></g><g><path d="m331.913 184.436c-9.792-9.792-10.075-25.491-.852-35.627-5.73.568-11.308 3.046-15.698 7.435-10.086 10.086-10.086 26.437 0 36.523 10.085 10.086 26.437 10.086 36.523 0 .293-.293.576-.593.852-.896-7.435.738-15.129-1.739-20.825-7.435z" fill="#ef4424"/></g><g><path d="m140.053 311.828c7.997-7.997 18.208-12.016 29.528-11.622 8.979.312 17.919-.173 26.718-1.414 7.573-1.069 14.036 5.387 12.978 12.961-1.228 8.788-1.693 17.715-1.356 26.679.428 11.367-3.59 21.618-11.617 29.646l-.474.467c-15.579 15.132-40.717 14.83-56.009-.701-15.261-15.5-15.156-40.628.232-56.016z" fill="#fe653b"/></g><g><path d="m165.377 359.168c-15.26-15.5-15.156-40.627.232-56.015 1.056-1.056 2.153-2.038 3.283-2.954-11.045-.21-21.007 3.796-28.84 11.629-15.388 15.388-15.493 40.516-.232 56.015 14.408 14.633 37.552 15.742 53.211 3.165-10.061-.185-20.069-4.136-27.654-11.84z" fill="#ef4424"/></g></g><g><g><circle cx="99.898" cy="83.255" fill="#b3dafe" r="75.755"/></g><g><path d="m58 83.255c0-36.016 25.142-66.14 58.827-73.833-5.446-1.243-11.106-1.922-16.929-1.922-41.839 0-75.755 33.917-75.755 75.755s33.917 75.755 75.755 75.755c5.822 0 11.483-.679 16.928-1.922-33.684-7.693-58.826-37.817-58.826-73.833z" fill="#8ac9fe"/></g></g><g><g><circle cx="412.102" cy="428.745" fill="#b3dafe" r="75.755"/></g><g><path d="m369 428.745c0-36.231 25.441-66.503 59.428-73.972-5.26-1.156-10.719-1.784-16.327-1.784-41.838 0-75.755 33.917-75.755 75.755s33.917 75.755 75.755 75.755c5.608 0 11.066-.628 16.327-1.784-33.987-7.468-59.428-37.739-59.428-73.97z" fill="#8ac9fe"/></g></g></g><g><circle cx="99.898" cy="64.89" fill="#1e9efd" r="27.547"/></g><g><path d="m97.905 64.89c0-10.601 5.992-19.798 14.77-24.404-3.82-2.004-8.164-3.144-12.777-3.144-15.214 0-27.547 12.333-27.547 27.547s12.333 27.547 27.547 27.547c4.613 0 8.957-1.14 12.777-3.144-8.778-4.604-14.77-13.801-14.77-24.402z" fill="#0182fc"/></g><g><circle cx="412.102" cy="447.11" fill="#1e9efd" r="27.547"/></g><g><path d="m409.905 447.11c0-10.642 6.038-19.868 14.872-24.456-3.795-1.971-8.103-3.092-12.676-3.092-15.214 0-27.547 12.333-27.547 27.547s12.333 27.547 27.547 27.547c4.572 0 8.88-1.12 12.676-3.092-8.833-4.587-14.872-13.812-14.872-24.454z" fill="#0182fc"/></g><g><path d="m353.833 291.035c23.988-4.138 45.822-15.422 63.142-32.631 45.768-45.475 46.421-120.087 1.458-166.323-19.622-20.176-45.824-32.721-73.78-35.324-27.581-2.565-55.277 4.622-77.978 20.243-3.412 2.348-4.274 7.018-1.926 10.43s7.016 4.274 10.43 1.926c19.812-13.633 43.993-19.905 68.083-17.664 24.405 2.272 47.282 13.227 64.417 30.846 39.26 40.37 38.687 105.517-1.276 145.225-15.124 15.027-34.184 24.879-55.12 28.49-28.224 4.869-48.7 30.052-47.627 58.58 1.441 38.341-13.521 75.667-41.051 102.407-53.243 51.715-138.948 50.736-191.052-2.183-25.25-25.645-39.083-59.597-38.952-95.603.132-36.025 14.234-69.894 39.709-95.369 26.483-26.483 63.147-40.927 100.599-39.625 28.769.985 54.132-19.43 58.952-47.522 2.799-16.316 9.601-31.898 19.668-45.06 2.517-3.29 1.89-7.997-1.4-10.514s-7.997-1.889-10.514 1.4c-11.536 15.082-19.33 32.938-22.538 51.637-3.558 20.733-22.341 35.814-43.647 35.068-41.591-1.449-82.313 14.596-111.726 44.009-28.294 28.293-43.956 65.91-44.102 105.921-.146 39.989 15.218 77.699 43.263 106.182 29.372 29.831 68.351 44.8 107.357 44.798 37.844-.002 75.714-14.095 104.834-42.38 30.573-29.696 47.189-71.149 45.589-113.73-.791-21.05 14.337-39.637 35.188-43.234z"/><path d="m346.027 245.792c14.647-2.526 27.99-9.427 38.595-19.964l.158-.158c27.822-27.821 28.152-73.39.738-101.579-13.622-14.008-31.871-21.798-51.384-21.934-.174-.001-.345-.001-.519-.001-19.324 0-37.474 7.514-51.15 21.191-10.642 10.641-17.605 24.065-20.137 38.82-3.083 17.971-11.539 34.296-24.454 47.21-17.364 17.364-41.431 26.839-66.038 25.979-29.34-1.021-56.922 9.842-77.667 30.589-40.494 40.494-40.757 106.629-.587 147.425 16.693 16.955 38.951 27.774 62.674 30.465 3.942.447 7.894.668 11.839.668 19.442 0 38.668-5.376 55.154-15.565 3.523-2.178 4.614-6.8 2.437-10.323-2.177-3.522-6.799-4.614-10.323-2.437-16.982 10.498-37.375 15.025-57.416 12.752-20.322-2.305-39.385-11.569-53.676-26.084-34.412-34.949-34.186-91.604.505-126.295 17.772-17.772 41.397-27.075 66.54-26.204 1.196.042 2.387.062 3.581.062 27.487-.001 54.135-10.976 73.584-30.425 15.121-15.12 25.021-34.236 28.632-55.28 2.004-11.681 7.523-22.314 15.959-30.75 10.939-10.939 25.442-16.929 40.958-16.796 15.467.108 29.934 6.284 40.735 17.392 21.728 22.342 21.463 58.461-.582 80.506l-.141.141c-8.4 8.347-18.969 13.815-30.564 15.815-21.138 3.646-40.333 13.597-55.512 28.776-20.258 20.258-31.262 48.24-30.189 76.772.799 21.266-5.562 41.299-18.396 57.933-2.53 3.279-1.923 7.989 1.356 10.52 3.279 2.53 7.99 1.923 10.52-1.356 15.004-19.447 22.442-42.843 21.509-67.659-.916-24.375 8.49-48.286 25.807-65.603 12.976-12.979 29.386-21.486 47.454-24.603z"/><path d="m211.324 296.724c-4.252-4.247-10.111-6.201-16.072-5.359-8.409 1.187-16.955 1.64-25.41 1.345-13.457-.474-25.587 4.309-35.092 13.814-18.29 18.289-18.412 48.157-.273 66.581 9.231 9.375 21.475 14.083 33.728 14.083 11.87 0 23.747-4.421 32.887-13.299l.516-.508c9.542-9.542 14.317-21.725 13.809-35.23-.316-8.437.117-16.97 1.289-25.36.832-5.964-1.129-11.82-5.382-16.067zm-9.475 13.991c-1.294 9.262-1.772 18.682-1.423 27.999.347 9.227-2.912 17.546-9.384 24.019l-.438.432c-12.646 12.282-33.028 12.021-45.438-.583-12.381-12.575-12.295-32.964.191-45.45 6.199-6.199 14.037-9.451 22.736-9.451.407 0 .817.007 1.229.021 9.322.326 18.754-.175 28.026-1.484 1.72-.242 2.854.598 3.377 1.12s1.364 1.656 1.124 3.377z"/><path d="m357.189 198.07c6.294-6.294 9.761-14.663 9.761-23.565 0-8.901-3.467-17.271-9.761-23.564-12.994-12.993-34.136-12.994-47.129 0-12.994 12.994-12.994 34.136 0 47.129 6.497 6.497 15.031 9.745 23.565 9.745s17.068-3.248 23.564-9.745zm-36.522-10.606c-7.145-7.145-7.145-18.771 0-25.917 7.146-7.145 18.771-7.145 25.917 0 3.461 3.461 5.368 8.063 5.368 12.958s-1.906 9.497-5.368 12.958c-7.146 7.145-18.772 7.145-25.917.001z"/><path d="m99.898 166.51c45.907 0 83.255-37.348 83.255-83.255.001-45.907-37.347-83.255-83.255-83.255s-83.255 37.348-83.255 83.255 37.348 83.255 83.255 83.255zm0-151.51c37.636 0 68.255 30.619 68.255 68.255s-30.619 68.255-68.255 68.255-68.255-30.619-68.255-68.255 30.619-68.255 68.255-68.255z"/><path d="m484.462 387.586c-2.051-3.599-6.631-4.854-10.23-2.802s-4.853 6.631-2.802 10.23c5.84 10.247 8.927 21.911 8.927 33.73 0 37.636-30.619 68.255-68.255 68.255s-68.255-30.619-68.255-68.255 30.619-68.255 68.255-68.255c13.521 0 26.594 3.952 37.808 11.43 3.446 2.297 8.103 1.366 10.4-2.08 2.298-3.446 1.367-8.103-2.079-10.401-13.686-9.125-29.637-13.949-46.129-13.949-45.907 0-83.255 37.348-83.255 83.255s37.348 83.255 83.255 83.255 83.255-37.348 83.255-83.255c0-14.419-3.768-28.651-10.895-41.158z"/><path d="m99.898 99.938c19.325 0 35.047-15.722 35.047-35.047s-15.722-35.047-35.047-35.047-35.047 15.721-35.047 35.046 15.722 35.048 35.047 35.048zm0-55.095c11.054 0 20.047 8.993 20.047 20.047s-8.993 20.047-20.047 20.047-20.047-8.993-20.047-20.047 8.993-20.047 20.047-20.047z"/><path d="m377.054 447.11c0 19.325 15.722 35.047 35.047 35.047s35.047-15.722 35.047-35.047-15.722-35.047-35.047-35.047-35.047 15.722-35.047 35.047zm55.095 0c0 11.054-8.993 20.047-20.047 20.047s-20.047-8.993-20.047-20.047 8.993-20.047 20.047-20.047 20.047 8.993 20.047 20.047z"/></g></g></svg>