<svg id="Capa_1" enable-background="new 0 0 512.009 512.009" height="512" viewBox="0 0 512.009 512.009" width="512" xmlns="http://www.w3.org/2000/svg"><g><g><g><path d="m338.393 236.663-24.637-42.463 78.783-56.423c4.286-3.07 8.944-5.584 13.862-7.483l29.455-11.374c13.167-5.084 28.076.161 35.16 12.369 7.101 12.239 4.222 27.827-6.783 36.721l-25.579 20.674c-4.068 3.288-8.533 6.051-13.29 8.226z" fill="#c8effe"/><path d="m471.015 131.289c-7.038-12.131-21.802-17.381-34.907-12.46 5.427 1.828 10.305 5.664 14.227 12.462 15.471 26.494-15.556 43.272-32.363 57.394-4.512 5.276-56.301 28.042-83.952 40.442l4.373 7.536 86.969-39.752c4.757-2.174 9.222-4.938 13.29-8.226l25.579-20.674c11.006-8.895 13.885-24.483 6.784-36.722z" fill="#99e6fc"/><path d="m198.478 317.899-27.25 19.57-50.42 36.2c-4.25 3.05-8.86 5.56-13.74 7.46l-30.64 11.94c-3.41 1.33-6.94 1.97-10.42 1.97-9.98 0-19.57-5.23-24.83-14.3-7.08-12.21-4.23-27.76 6.71-36.66l24.5-19.93c4.09-3.33 8.58-6.12 13.37-8.32l52.07-23.88 36.02-16.52z" fill="#c8effe"/><path d="m198.478 317.899-27.25 19.57c-14.99-11.67-26.67-27.39-33.4-45.52l36.02-16.52z" fill="#99e6fc"/></g><g><path d="m328.004 300.518 12.605-47.447 95.605 15.811c5.201.86 10.273 2.376 15.093 4.51l28.87 12.785c12.906 5.715 19.739 19.967 16.115 33.608-3.633 13.675-16.691 22.662-30.762 21.17l-32.706-3.468c-5.201-.552-10.313-1.755-15.214-3.581z" fill="#c8effe"/><path d="m480.177 286.177-28.87-12.785c-4.82-2.135-9.892-3.65-15.093-4.51l-95.605-15.811-.885 3.33c30.693 4.828 85.026 13.05 90.903 16.99 19.791 9.064 52.796 17.273 44.984 46.395-3.323 12.65-11.373 18.073-21.21 19.989l11.128 1.18c14.071 1.492 27.129-7.494 30.762-21.17 3.625-13.642-3.208-27.893-16.114-33.608z" fill="#99e6fc"/><path d="m184.238 211.579-12.61 47.45-40.17-6.59-54.19-8.9c-5.16-.85-10.2-2.34-14.99-4.44l-30.11-13.22c-10.63-4.67-17.17-15.12-17.17-26.27 0-2.45.32-4.92.97-7.38 3.62-13.64 16.63-22.62 30.67-21.18l31.41 3.23c5.24.54 10.4 1.74 15.34 3.58l55.53 20.61z" fill="#c8effe"/><path d="m184.238 211.579-12.61 47.45-40.17-6.59c.68-19.95 7.01-38.45 17.46-53.97z" fill="#99e6fc"/></g><g><path d="m236.778 173.749-42.46 24.64-19.16-26.75-37.26-52.03c-3.07-4.29-5.59-8.95-7.49-13.87l-11.37-29.45c-5.09-13.17.16-28.08 12.37-35.16 4.51-2.62 9.47-3.88 14.38-3.88 8.43 0 16.72 3.71 22.34 10.66l20.67 25.58c3.29 4.07 6.05 8.53 8.23 13.29l30.28 66.26z" fill="#c8effe"/><path d="m236.778 173.749-42.46 24.64-19.16-26.75c14.94-10.57 32.81-17.25 52.15-18.6z" fill="#99e6fc"/><path d="m395.158 446.139c0 9.97-5.23 19.56-14.3 24.82-12.21 7.09-27.76 4.24-36.67-6.71l-19.92-24.49c-3.33-4.09-6.13-8.58-8.32-13.38l-40.4-88.08 4.26-2.47 38.21-22.17 55.77 77.68c3.05 4.25 5.56 8.86 7.46 13.73l11.94 30.65c.56 1.45 1 2.91 1.32 4.39.44 2 .65 4.03.65 6.03z" fill="#c8effe"/><path d="m394.508 440.109c-16.34 1.28-32.83-14.64-46.06-24-7.41-3.62-52.9-61.27-68.64-80.28l38.21-22.17 55.77 77.68c3.05 4.25 5.56 8.86 7.46 13.73l11.94 30.65c.56 1.45 1 2.91 1.32 4.39z" fill="#99e6fc"/></g><g><path d="m341.228 43.549c0 1.01-.05 2.03-.16 3.06l-3.47 32.71c-.55 5.2-1.75 10.31-3.58 15.21l-33.38 89.61-46.5-12.36-.95-.25 15.81-95.6c.86-5.2 2.38-10.27 4.51-15.09l12.79-28.87c5.71-12.91 19.96-19.74 33.6-16.12 10.16 2.7 17.73 10.59 20.34 20.24.65 2.4.99 4.9.99 7.46z" fill="#c8effe"/><path d="m341.228 43.549c0 1.01-.05 2.03-.16 3.06l-3.47 32.71c-.55 5.2-1.75 10.31-3.58 15.21l-33.38 89.61-46.5-12.36c7.42-15.63 40.27-94.24 46.95-100.14 10.51-12.81 22.48-33.16 39.15-35.55.65 2.4.99 4.9.99 7.46z" fill="#99e6fc"/><path d="m259.138 340.509-15.48 94.37c-.85 5.16-2.34 10.19-4.44 14.98l-13.22 30.12c-2.76 6.28-7.53 11.13-13.28 14.04-3.98 2.03-8.43 3.12-13 3.12-2.44 0-4.91-.31-7.37-.96-13.64-3.63-22.62-16.63-21.18-30.67l3.23-31.41c.54-5.25 1.74-10.4 3.58-15.34l33.72-90.85 33.92 9.01z" fill="#c8effe"/><path d="m259.138 340.509-15.48 94.37c-.85 5.16-2.34 10.19-4.44 14.98l-13.22 30.12c-2.76 6.28-7.53 11.13-13.28 14.04-8.39-11.75-9-30.97-11.39-44.9-3.03-8.82 8.37-100.91 8.78-112.2h35.51z" fill="#99e6fc"/></g><g><g><path d="m216.298 181.429-34.72 34.71-28.46-23.47-46.3-38.19c-4.07-3.35-7.69-7.21-10.79-11.47l-18.55-25.55c-8.3-11.42-7.06-27.18 2.92-37.16 5.56-5.56 12.91-8.4 20.3-8.4 5.91 0 11.85 1.82 16.93 5.53l26.55 19.42c4.23 3.08 8.04 6.69 11.37 10.73l42.63 51.83z" fill="#c8effe"/><path d="m216.298 181.429-34.72 34.71-28.46-23.47c11.57-14.88 27.12-26.5 45.06-33.26z" fill="#99e6fc"/><path d="m330.712 295.843-34.714 34.714 61.655 74.759c3.354 4.067 7.21 7.693 11.476 10.791l25.548 18.555c11.42 8.294 27.176 7.053 37.157-2.927 10.005-10.005 11.225-25.81 2.873-37.232l-19.414-26.549c-3.087-4.222-6.693-8.039-10.732-11.362z" fill="#c8effe"/><path d="m434.705 394.503-19.414-26.549c-3.087-4.222-6.693-8.039-10.732-11.362l-73.848-60.749-9.402 9.402c22.728 18.474 70.183 56.217 73.302 62.709 12.618 17.964 38.298 42.146 16.543 63.779-3.132 3.147-6.316 5.294-9.525 6.639 10.28 3.785 22.131 1.436 30.204-6.637 10.005-10.005 11.225-25.81 2.872-37.232z" fill="#99e6fc"/></g><g><path d="m258.318 171.469-13.19 3.63-34.14 9.4-9.96-26.12-24.57-64.43c-1.88-4.92-3.12-10.07-3.71-15.31l-3.5-31.38c-1.57-14.02 7.29-27.11 20.9-30.85 2.54-.7 5.1-1.04 7.63-1.04 5.02 0 9.9 1.33 14.17 3.76 5.15 2.92 9.41 7.44 11.99 13.18l13.49 30c2.14 4.77 3.68 9.79 4.57 14.94l13.45 77.63z" fill="#c8effe"/><path d="m258.318 171.469-13.19 3.63-34.14 9.4-9.96-26.12c10.53-3.63 21.84-5.6 33.6-5.6 7.13 0 14.09.72 20.82 2.1z" fill="#99e6fc"/><path d="m258.318 171.469-13.19 3.63h-35.02c-.41-11.29-11.81-103.38-8.78-112.2 2.32-13.5 2.96-31.95 10.62-43.77 5.15 2.92 9.41 7.44 11.99 13.18l13.49 30c2.14 4.77 3.68 9.79 4.57 14.94z" fill="#99e6fc"/><path d="m301.289 327.446-47.334 13.025 16.658 95.461c.906 5.193 2.467 10.251 4.644 15.052l13.041 28.756c5.83 12.854 20.141 19.561 33.75 15.817 13.643-3.754 22.513-16.892 20.896-30.949l-3.758-32.674c-.598-5.196-1.846-10.297-3.716-15.182z" fill="#c8effe"/><path d="m342.944 464.608-3.758-32.674c-.598-5.196-1.846-10.297-3.716-15.182l-34.181-89.306-18.819 5.179c8.052 21.363 36.593 91.244 36.035 99.309 2.024 21.134 11.792 53.359-14.345 62.744 5.554 2.132 11.79 2.558 17.888.88 13.643-3.756 22.513-16.893 20.896-30.95z" fill="#99e6fc"/></g></g><g><g><path d="m330.674 216.175-34.714-34.714 61.655-74.759c3.354-4.067 7.21-7.693 11.476-10.791l25.548-18.555c11.42-8.295 27.176-7.053 37.157 2.927 10.005 10.005 11.225 25.81 2.873 37.232l-19.414 26.549c-3.087 4.222-6.693 8.039-10.732 11.362z" fill="#c8effe"/><path d="m431.795 80.283c-8.073-8.073-19.924-10.422-30.204-6.638 3.209 1.345 6.393 3.492 9.525 6.639 21.755 21.633-3.925 45.815-16.543 63.779-3.119 6.492-50.574 44.235-73.302 62.709l9.402 9.402 73.848-60.749c4.039-3.323 7.645-7.14 10.732-11.362l19.414-26.549c8.353-11.421 7.133-27.225-2.872-37.231z" fill="#99e6fc"/><path d="m216.258 330.589-4.48 5.44-13.63 16.57-42.64 51.84c-3.32 4.04-7.14 7.65-11.36 10.73l-26.55 19.42c-5.08 3.71-11.02 5.53-16.93 5.53-.63 0-1.25-.02-1.88-.07-6.75-.43-13.34-3.24-18.43-8.33-9.98-9.98-11.22-25.74-2.92-37.16l18.55-25.55c3.1-4.26 6.73-8.12 10.79-11.47l46.33-38.21 28.43-23.45z" fill="#c8effe"/><g fill="#99e6fc"><path d="m216.258 330.589-4.48 5.44-13.63 16.57c-17.93-6.77-33.48-18.39-45.04-33.27l28.43-23.45z"/><path d="m211.778 336.029-56.27 68.41c-3.32 4.04-7.14 7.65-11.36 10.73l-26.55 19.42c-5.08 3.71-11.02 5.53-16.93 5.53-.63 0-1.25-.02-1.88-.07 2.24-11.21 7.99-22.93 11.5-32.65 1.73-9.16 57.14-83.59 63.09-93.2z"/></g></g><g><path d="m340.627 258.202-13.025-47.334 90.544-34.526c4.926-1.878 10.07-3.125 15.309-3.711l31.38-3.507c14.027-1.568 27.112 7.298 30.857 20.906 3.754 13.643-2.996 27.985-15.901 33.788l-29.997 13.487c-4.77 2.145-9.792 3.682-14.945 4.574z" fill="#c8effe"/><path d="m495.692 190.032c-3.745-13.609-16.829-22.474-30.857-20.906l-10.743 1.201c9.627 1.914 17.532 7.279 20.92 19.707 8.223 29.558-26.052 37.891-45.899 47.273-5.579 3.867-59.118 12.406-89.443 17.418l.957 3.477 94.221-16.321c5.154-.893 10.175-2.43 14.945-4.574l29.997-13.487c12.906-5.803 19.656-20.145 15.902-33.788z" fill="#99e6fc"/><path d="m184.648 301.169-35.02 13.41-54.28 20.77c-4.89 1.87-9.99 3.12-15.18 3.72l-32.68 3.76c-1.1.13-2.2.19-3.29.19-12.76 0-24.2-8.52-27.66-21.09-3.74-13.61 2.97-27.92 15.82-33.75l28.76-13.04c4.8-2.18 9.86-3.74 15.05-4.64l55.34-9.66 40.12-7z" fill="#c8effe"/><path d="m184.648 301.169-35.02 13.41c-10.65-15.4-17.2-33.84-18.12-53.74l40.12-7z" fill="#99e6fc"/></g></g><g><g><path d="m280.68 175.103h-49.093l-9.266-96.459c-.504-5.248-.341-10.538.484-15.745l4.944-31.185c2.21-13.94 14.229-24.204 28.344-24.204 14.15 0 26.188 10.313 28.358 24.296l5.045 32.5c.802 5.169.952 10.417.445 15.623z" fill="#eaf6ff"/><path d="m289.497 64.305-5.045-32.5c-2.171-13.982-14.209-24.296-28.358-24.296-3.636 0-7.132.686-10.358 1.936 19.343 7.621 19.035 36.269 22.285 54.861 2.974 8.474-8.438 100.053-8.816 110.797h21.476l9.262-95.174c.506-5.206.356-10.455-.446-15.624z" fill="#c8effe"/><path d="m280.68 336.915h-49.093l-9.266 96.459c-.504 5.248-.341 10.538.484 15.745l4.944 31.185c2.21 13.94 14.229 24.204 28.344 24.204 14.15 0 26.188-10.313 28.358-24.296l5.045-32.5c.802-5.169.952-10.417.445-15.623z" fill="#eaf6ff"/><path d="m289.942 432.09-9.262-95.174h-21.476c.377 10.743 11.79 102.323 8.816 110.797-3.25 18.592-2.942 47.241-22.285 54.861 3.226 1.25 6.722 1.936 10.358 1.936 14.15 0 26.188-10.313 28.358-24.296l5.045-32.5c.803-5.17.953-10.418.446-15.624z" fill="#c8effe"/></g><g><path d="m317.436 197.782-42.68-24.26 39.611-88.438c2.155-4.811 4.911-9.33 8.202-13.449l19.709-24.668c8.81-11.027 24.331-14.011 36.602-7.036 12.301 6.992 17.67 21.907 12.648 35.135l-11.674 30.748c-1.857 4.89-4.32 9.527-7.333 13.803z" fill="#eaf6ff"/><path d="m378.88 39.931c-7.817-4.443-16.951-4.839-24.831-1.695 1.101.486 2.219 1.046 3.356 1.696 26.715 15.086 8.371 45.215.972 65.882-1.347 7.43-40.574 60.917-56.375 83.194l15.435 8.773 55.084-78.165c3.013-4.276 5.477-8.913 7.333-13.803l11.674-30.748c5.022-13.227-.347-28.141-12.648-35.134z" fill="#c8effe"/><path d="m237.529 338.457-42.68-24.26-55.722 79.28c-3.032 4.313-5.504 8.993-7.36 13.928l-11.112 29.555c-4.967 13.212.41 28.074 12.681 35.049 12.301 6.992 27.863 3.975 36.66-7.108l20.447-25.762c3.252-4.097 5.976-8.586 8.108-13.362z" fill="#eaf6ff"/><path d="m194.849 314.197-6.13 8.722 27.335 15.538c-4.981 9.526-40.315 94.783-47.087 100.68-9.076 10.998-19.221 28.002-32.514 34.396 11.715 4.906 25.475 1.533 33.543-8.633l20.447-25.762c3.252-4.097 5.976-8.586 8.108-13.362l38.979-87.319z" fill="#c8effe"/></g></g><g><g><path d="m337.014 280.582v-49.093l96.459-9.266c5.248-.504 10.538-.341 15.745.484l31.185 4.944c13.94 2.21 24.204 14.229 24.204 28.344 0 14.15-10.313 26.188-24.296 28.358l-32.5 5.045c-5.169.802-10.417.952-15.623.445z" fill="#eaf6ff"/><path d="m480.404 227.651-31.185-4.944c-5.207-.826-10.497-.988-15.745-.484l-5.471.526c21.468 3.632 55.201 3.216 55.129 33.248.085 30.462-34.666 29.637-56.327 33.324l5.384.524c5.206.507 10.455.357 15.623-.445l32.5-5.045c13.982-2.171 24.296-14.208 24.296-28.358 0-14.117-10.264-26.136-24.204-28.346z" fill="#c8effe"/><path d="m175.198 231.489v49.09l-39.83 3.87-55.34 5.39c-5.21.51-10.46.36-15.62-.44l-32.5-5.05c-7-1.08-13.07-4.64-17.4-9.68-4.32-5.05-6.9-11.6-6.9-18.67 0-14.12 10.26-26.14 24.2-28.35l31.19-4.94c5.21-.83 10.5-.99 15.74-.49l56.61 5.44z" fill="#eaf6ff"/><path d="m175.198 231.489v49.09l-39.83 3.87c-2.59-9.04-3.97-18.58-3.97-28.44 0-9.83 1.37-19.34 3.95-28.35z" fill="#c8effe"/></g><g><path d="m314.335 317.338 24.26-42.68 88.438 39.611c4.811 2.155 9.33 4.911 13.449 8.202l24.668 19.709c11.027 8.81 14.011 24.331 7.036 36.602-6.992 12.301-21.907 17.67-35.135 12.648l-30.748-11.674c-4.89-1.857-9.527-4.32-13.803-7.333z" fill="#eaf6ff"/><path d="m465.15 342.179-24.668-19.709c-4.119-3.291-8.638-6.047-13.449-8.202l-88.438-39.611-4.391 7.725c28.208 12.38 80.054 34.705 84.802 40.087 16.834 13.801 46.665 30.135 31.702 56.312-3.821 6.766-8.607 10.638-13.959 12.533l.301.114c13.228 5.023 28.143-.346 35.135-12.648 6.976-12.27 3.992-27.791-7.035-36.601z" fill="#c8effe"/><path d="m197.918 194.749-24.26 42.68-36.26-16.18-51.06-22.8c-4.77-2.13-9.26-4.85-13.36-8.11l-25.76-20.44c-7.07-5.62-10.86-13.98-10.86-22.5 0-4.83 1.22-9.71 3.75-14.16 6.98-12.27 21.84-17.65 35.05-12.68l29.55 11.11c4.94 1.85 9.62 4.33 13.93 7.36l51.62 36.28z" fill="#eaf6ff"/><path d="m197.918 194.749-24.26 42.68-36.26-16.18c6.52-18.23 18.02-34.09 32.86-45.94z" fill="#c8effe"/></g></g><circle cx="256.108" cy="256.009" fill="#ffd15b" r="103.23"/><path d="m256.108 152.779c-3.626 0-7.208.189-10.738.554 51.966 5.371 92.492 49.29 92.492 102.676s-40.526 97.305-92.492 102.676c3.53.365 7.112.554 10.738.554 57.013 0 103.23-46.218 103.23-103.23s-46.218-103.23-103.23-103.23z" fill="#ffc344"/></g><g><path d="m498.006 308.828c-4.105-.551-7.884 2.316-8.443 6.42-1.212 9.871-11.583 19.881-23.264 18.251l-21.135-16.885c-8.245-7.475-34.166-17.412-44.311-22.288l30.604 2.978c8.983 1.872 40.247-4.219 49.994-5.542 36.503-6.608 40.047-52.85 11.383-67.793 7.129-6.726 11.393-16.19 11.393-26.309.613-14.449-11.456-31.36-26.145-34.819 13.459-24.931-6.362-53.532-31.497-53.37 2.989-10.516-.345-25.938-9.485-34.494-9.763-9.764-23.709-12.914-36.227-9.027.58-12.546-6.861-26.145-18.292-32.541-11.312-6.425-24.647-6.206-35.383-.248-3.551-11.79-13.007-21.272-25.377-24.56-12.744-3.383-25.757.364-34.631 9.102-5.347-9.614-18.488-18.02-31.093-17.693-13.816 0-25.915 7.639-32.017 19.247-6.726-7.125-16.187-11.387-26.303-11.387-14.466-.614-31.383 11.479-34.829 26.188-9.596-5.302-24.296-6.047-35.303.584-11.392 6.606-17.947 18.432-18.062 30.87-10.515-2.99-25.934.347-34.488 9.485-9.76 9.76-12.912 23.702-9.03 36.217-13.076-.403-25.659 6.334-32.477 18.319-5.675 9.784-6.551 24.231-.252 35.354-14.475 4.368-25.739 17.925-25.838 34.723 0 9.611 3.826 18.606 10.296 25.244-10.725 6.338-17.686 17.959-17.686 31.146.002 12.632 7.059 25.457 19.25 31.968-9.558 8.963-13.709 22.642-10.051 35.951 3.391 12.32 12.995 21.714 24.84 25.162-5.883 10.795-5.991 24.151.543 35.42 6.374 10.99 18.162 17.855 30.849 18.021-3.094 12.058.2 25.183 9.516 34.499 9.058 8.973 22.921 13.027 36.259 8.986-.419 13.091 6.32 25.695 18.318 32.521 9.787 5.677 24.239 6.551 35.364.246 3.478 11.788 12.847 21.304 25.437 24.655 10.374 3.153 26.149-.23 34.537-9.078 6.342 10.709 17.953 17.657 31.128 17.657 12.65-.002 25.483-7.075 31.99-19.291 6.782 7.236 16.253 11.39 26.236 11.39 14.303.654 31.221-11.324 34.864-26.114 9.921 5.409 23.994 6.207 35.432-.548 11.007-6.384 17.879-18.197 18.023-30.901 10.563 2.977 25.47-.116 34.497-9.504 8.98-9.066 13.027-22.925 8.983-36.268 12.554.596 26.187-6.846 32.586-18.291 6.426-11.313 6.207-24.651.243-35.389 12.699-3.865 23.572-15.349 25.474-29.823.559-4.103-2.316-7.882-6.42-8.441zm-241.898 42.912c-52.786 0-95.73-42.944-95.73-95.73s42.944-95.73 95.73-95.73 95.73 42.944 95.73 95.73-42.944 95.73-95.73 95.73zm235.911-81.958c-11.457 11.308-45.698 11.986-59.105 12.593l-67.844-6.601c1.161-6.415 1.769-13.02 1.769-19.764 0-6.716-.602-13.295-1.754-19.685l69.106-6.639c11.516-1.265 33.561 3.988 45.043 5.372 15.471 2.137 23.659 22.012 12.785 34.724zm-3.562-77.761c3.402 9.726-4.479 23.777-15.844 26.8-11.484-1.599-27.678-5.427-39.853-4.068l-71.399 6.859c-1.523-4.648-3.339-9.165-5.438-13.521l64.889-24.741c8.049-3.758 35.867-5.463 44.86-6.767 10.417-1.175 20.005 5.323 22.785 15.438zm-23.931-56.976c4.689 7.474 3.456 20.678-5.014 27.132-12.063 1.64-32.253 2.394-44.036 7.155l-29.918 11.407 23.731-19.522c8.581-6.257 21.734-26.378 28.238-34.902 9.065-4.187 21.693-.655 26.999 8.73zm-38.032-49.463c6.78 6.72 8.491 18.515 2.12 27.509-6.634 8.433-20.428 29.997-28.861 36.545l-52.668 43.328c-2.775-3.992-5.799-7.798-9.061-11.385l40.622-57.636c6.306-7.903 12.951-28.326 16.716-37.839 8.193-7.799 22.386-9.385 31.132-.522zm-51.323-39.133c8.218 4.925 13.257 15.495 9.344 25.959-4.147 9.868-11.742 34.381-18.128 42.89l-39.314 55.781c-10.062-8.422-21.637-15.089-34.252-19.536l28.395-63.398c3.009-8.326 21.504-29.226 26.921-36.495 6.545-8.194 17.915-10.382 27.034-5.201zm-57.199-23.351c9.318 2.588 16.82 12.037 15.639 22.704-21.849 23.895-31.02 45.996-39.186 65.466l2.978-30.608c.57-5.825.404-11.712-.493-17.502l-4.213-27.113c3.434-9.378 14.863-15.848 25.275-12.947zm-125.833.542c10.167-3.415 23.735 4.358 26.789 15.813-1.599 11.491-5.435 27.723-4.076 39.904l1.876 19.531c.396 4.123 4.057 7.147 8.183 6.749 4.123-.396 7.145-4.06 6.749-8.183l-1.876-19.526c-1.362-8.251 3.169-29.84 4.305-38.311.351-12.702 8.506-24.544 22.009-24.607 9.155-.084 19.349 7.115 20.938 17.952l5.05 32.497c.705 4.544.834 9.167.387 13.745l-6.6 67.845c-6.415-1.161-13.02-1.769-19.765-1.769-6.716 0-13.294.602-19.684 1.753l-1.394-14.504c-.396-4.123-4.053-7.143-8.183-6.749-4.123.396-7.145 4.06-6.749 8.183l1.613 16.792c-4.639 1.52-9.146 3.331-13.494 5.425l-24.754-64.908c-1.643-4.3-2.741-8.833-3.262-13.465l-3.5-31.383c-1.167-10.423 5.324-20.005 15.438-22.784zm-56.964 23.975c7.447-4.686 20.703-3.436 27.125 5.016l2.994 26.847c.56 11.137 11.832 36.438 15.567 47.066l-19.526-23.735c-6.276-8.597-26.395-21.731-34.925-28.247-4.165-9.077-.615-21.638 8.765-26.947zm-49.474 37.987c6.719-6.777 18.505-8.494 27.499-2.12 8.43 6.636 30.002 20.431 36.556 28.861l43.332 52.672c-4.018 2.791-7.847 5.836-11.456 9.121l-58.681-41.242c-7.86-6.233-27.315-12.518-36.755-16.197-7.788-8.186-9.34-22.365-.495-31.095zm-39.074 51.346c5.188-9.121 16.079-13.061 25.891-9.369 9.842 4.099 33.152 11.163 41.807 17.586l56.81 39.928c-8.42 10.072-15.084 21.658-19.523 34.284l-62.217-27.777c-8.365-3.024-30.18-22.162-37.511-27.573-7.495-6.103-10.626-17.227-5.257-27.079zm-23.41 57.205c2.371-9.508 12.419-16.774 22.806-15.628 9.798 7.365 25.508 21.822 37.258 26.772l28.038 12.518-31.868-3.062c-10.357-1.611-32.932 3.168-43.415 4.633-7.04-2.662-13.633-10.882-13.537-19.777-.001-1.815.242-3.653.718-5.456zm9.761 40.905c11.274-1.349 33.114-6.579 45.042-5.373l69.11 6.641c-1.151 6.389-1.753 12.967-1.753 19.683 0 6.745.608 13.35 1.769 19.765l-67.849 6.601c-11.679 1.288-34.602-4.082-46.246-5.438-9.047-1.314-18.03-9.986-17.943-20.938 0-10.493 7.517-19.3 17.87-20.941zm-9.208 84.884c-3.347-11.335 4.323-23.156 15.825-26.808 12.552 1.558 27.619 5.626 41.158 4.17l70.125-6.822c1.524 4.64 3.34 9.15 5.439 13.499l-63.648 24.363c-10.087 4.071-37.232 5.848-48.471 7.175-9.503 0-17.904-6.407-20.428-15.577zm23.896 57.035c-5.262-9.075-3.178-20.463 4.948-27.074l.164-.133c28.062-1.185 54.065-9.598 73.937-18.397l-24.711 20.381c-4.542 3.748-8.607 8.069-12.086 12.849l-15.348 21.14c-8.218 4.036-21.712.77-26.904-8.766zm37.995 49.439c-7.417-7.417-8.324-18.961-2.154-27.451 6.546-8.392 19.575-29.022 28.042-35.64l53.616-44.221c2.778 3.992 5.806 7.797 9.071 11.383l-41.244 58.679c-6.228 7.854-12.501 27.266-16.177 36.701-7.815 7.59-22.19 9.598-31.154.549zm61.837 41.843c-13.07.554-25.593-14.973-19.82-28.66 4.098-9.842 11.163-33.152 17.586-41.807l39.93-56.809c10.071 8.419 21.655 15.082 34.28 19.521l-27.774 62.217c-3.024 8.366-22.162 30.18-27.573 37.511-4.055 5.101-10.116 8.027-16.629 8.027zm52.22 21.38c-11.067.5-23.025-11.269-21.066-23.58 7.364-9.794 21.796-25.476 26.745-37.223l12.517-28.042-3.062 31.872c-1.613 10.364 3.177 32.983 4.642 43.472-2.668 7.027-10.882 13.594-19.776 13.501zm120.342-1.312c-11.313 3.385-23.223-4.407-26.82-15.85 1.559-11.6 5.577-28.894 4.162-41.114l-3.97-40.804c-.401-4.123-4.063-7.142-8.191-6.739-4.123.401-7.14 4.068-6.739 8.191l3.97 40.809c1.404 8.27-3.302 31.061-4.397 39.559-.264 11.886-7.867 24.532-21.979 24.631-11.243.143-20.833-9.491-21.473-21.221-1.288-10.294-6.078-31.031-4.842-41.691l6.64-69.11c6.39 1.151 12.968 1.753 19.684 1.753 17.183 0 33.465-3.935 47.992-10.95l24.363 63.639c4.071 10.086 5.848 37.232 7.175 48.471.003 9.501-6.404 17.902-15.575 20.426zm57.032-23.853c-8.407 5.054-20.664 3.075-27.196-5.093-1.715-12.133-2.612-33.513-7.423-45.313l-10.976-28.668 20.372 24.701c6.202 8.473 25.505 21.031 33.966 27.407 4.065 8.226.829 21.759-8.743 26.966zm49.445-38.04c-7.826 8.022-21.406 8.018-30.143.204-8.21-6.376-26.278-17.658-32.96-26.09l-44.214-53.608c3.965-2.761 7.747-5.767 11.312-9.009l57.642 40.617c7.897 6.301 28.277 12.934 37.784 16.695 7.596 7.821 9.648 22.209.579 31.191zm39.131-51.361c-4.925 8.218-15.495 13.257-25.959 9.344-9.87-4.148-34.381-11.742-42.891-18.128l-55.784-39.308c8.425-10.064 15.095-21.642 19.542-34.261l63.397 28.399c4.222 1.883 8.198 4.308 11.824 7.21l22.859 18.268c8.847 5.739 12.665 18.644 7.012 28.476z"/><path d="m196.943 213.875c-3.602-2.044-8.181-.782-10.225 2.82-2.197 3.871-4.079 7.95-5.593 12.124-1.413 3.894.599 8.196 4.493 9.608.845.307 1.708.452 2.557.452 3.066 0 5.945-1.895 7.051-4.944 1.228-3.385 2.754-6.694 4.537-9.835 2.045-3.603.783-8.181-2.82-10.225z"/><path d="m267.392 319.77c-3.538.621-7.17.95-10.796.977-4.142.031-7.475 3.414-7.444 7.556.031 4.123 3.383 7.444 7.499 7.444h.057c4.456-.034 8.923-.438 13.278-1.203 4.08-.716 6.807-4.604 6.09-8.684-.716-4.078-4.599-6.803-8.684-6.09z"/><path d="m192.433 267.776c-.748-4.074-4.657-6.77-8.73-6.023-4.074.748-6.771 4.656-6.023 8.73.803 4.375 1.982 8.708 3.506 12.881 1.111 3.042 3.985 4.929 7.045 4.929.854 0 1.724-.147 2.572-.457 3.891-1.421 5.893-5.727 4.472-9.618-1.235-3.382-2.191-6.895-2.842-10.442z"/><path d="m228.188 181.295c-4.157 1.555-8.214 3.474-12.058 5.705-3.583 2.08-4.801 6.669-2.722 10.251 1.392 2.398 3.908 3.737 6.494 3.737 1.278 0 2.573-.327 3.758-1.015 3.12-1.811 6.411-3.368 9.783-4.629 3.88-1.451 5.849-5.772 4.398-9.652-1.452-3.878-5.774-5.848-9.653-4.397z"/><path d="m223.779 312.114c-3.119-1.802-6.114-3.884-8.9-6.187-3.193-2.641-7.921-2.192-10.559 1.001-2.639 3.192-2.191 7.92 1.001 10.559 3.428 2.834 7.114 5.396 10.955 7.615 1.182.683 2.472 1.007 3.745 1.007 2.591 0 5.112-1.345 6.501-3.75 2.072-3.587.844-8.174-2.743-10.245z"/><path d="m267.248 192.223c3.553.615 7.076 1.537 10.47 2.739.828.293 1.672.432 2.503.432 3.088 0 5.981-1.922 7.07-4.999 1.382-3.905-.663-8.191-4.567-9.573-4.188-1.482-8.533-2.619-12.916-3.378-4.081-.703-7.963 2.028-8.67 6.11-.707 4.079 2.028 7.961 6.11 8.669z"/><path d="m328.348 248.341c-4.142 0-7.5 3.358-7.5 7.5v.168c0 3.625-.301 7.259-.896 10.803-.686 4.085 2.07 7.953 6.155 8.638.42.071.838.104 1.25.104 3.597 0 6.773-2.595 7.388-6.26.732-4.362 1.103-8.832 1.103-13.351v-.102c0-4.142-3.358-7.5-7.5-7.5z"/><path d="m316.283 296.687c-3.172-2.664-7.902-2.251-10.566.921-2.321 2.765-4.891 5.354-7.637 7.694-3.152 2.687-3.53 7.421-.842 10.573 1.483 1.741 3.59 2.635 5.711 2.635 1.721 0 3.45-.589 4.862-1.792 3.378-2.879 6.539-6.063 9.394-9.464 2.663-3.173 2.25-7.903-.922-10.567z"/><path d="m311.892 223.133c1.4 2.369 3.899 3.686 6.464 3.686 1.297 0 2.611-.336 3.808-1.043 3.566-2.107 4.749-6.706 2.643-10.272-2.256-3.819-4.853-7.478-7.719-10.876-2.669-3.166-7.401-3.569-10.568-.898-3.167 2.67-3.569 7.402-.898 10.568 2.328 2.76 4.438 5.733 6.27 8.835z"/><path d="m226.138 216.065c-4.021 3.021-7.554 6.618-10.502 10.69-2.429 3.355-1.677 8.044 1.678 10.473 1.329.962 2.867 1.425 4.391 1.425 2.324 0 4.615-1.077 6.082-3.103 2.066-2.854 4.542-5.375 7.361-7.492 3.312-2.488 3.979-7.189 1.492-10.501-2.489-3.312-7.191-3.98-10.502-1.492z"/><path d="m223.032 267.289c-1.336-3.92-5.597-6.015-9.519-4.679-3.92 1.336-6.016 5.598-4.679 9.519 1.622 4.758 3.953 9.235 6.928 13.308 1.469 2.011 3.75 3.077 6.062 3.077 1.535 0 3.084-.47 4.418-1.444 3.345-2.443 4.076-7.135 1.632-10.48-2.081-2.85-3.71-5.979-4.842-9.301z"/><path d="m303.804 270.832c1.485-4.784 2.239-9.771 2.238-14.885v-.113c0-4.142-3.358-7.5-7.5-7.5s-7.5 3.358-7.5 7.5v.175c0 3.542-.526 7.033-1.564 10.375-1.229 3.956.983 8.158 4.939 9.386.74.23 1.489.339 2.226.339 3.2.001 6.163-2.062 7.161-5.277z"/><path d="m284.812 215.144c-4.125-2.902-8.643-5.153-13.431-6.689-3.943-1.265-8.167.905-9.433 4.849s.905 8.167 4.849 9.433c3.343 1.073 6.5 2.646 9.383 4.674 1.312.923 2.818 1.367 4.31 1.367 2.358 0 4.68-1.109 6.14-3.185 2.384-3.387 1.57-8.065-1.818-10.449z"/><path d="m266.936 289.236c-3.33 1.084-6.812 1.658-10.35 1.705-4.142.056-7.455 3.458-7.399 7.6.055 4.108 3.402 7.4 7.498 7.4h.102c5.049-.068 10.026-.889 14.794-2.441 3.938-1.282 6.092-5.515 4.809-9.454-1.282-3.94-5.514-6.092-9.454-4.81z"/><ellipse cx="256.108" cy="256.009" rx="7.697" ry="7.697" transform="matrix(.707 -.707 .707 .707 -106.014 256.079)"/></g></g></svg>