<svg height="512pt" viewBox="-66 0 512 512" width="512pt" xmlns="http://www.w3.org/2000/svg"><path d="m264.738281 50h-34.738281c0-11.457031-13.824219-21.78125-21.546875-29.074219-17.980469 3.914063-31.453125 19.917969-31.453125 39.074219h-81c-16.570312 0-30 13.429688-30 30 0 7.683594 2.894531 14.691406 7.644531 20h246.355469c16.570312 0 30-13.429688 30-30 0-7.683594-2.894531-14.691406-7.644531-20h-76.355469c0-3.453125-.4375-6.804688-1.261719-10zm0 0" fill="#ffda2d"/><path d="m112 110h198v60h-198zm0 0" fill="#8c4a37"/><path d="m280 336c-16.570312 0-30-13.429688-30-30 0-3.949219.808594-7.699219 2.191406-11.148438-12.75-3.460937-22.191406-15-22.191406-28.851562 0-6.859375 2.390625-13.101562 6.261719-18.160156-3.285157-1.726563-6.664063-3.292969-10.128907-4.6875-1.699218-.09375-3.40625-.152344-5.132812-.152344-55.230469 0-100 44.769531-100 100 0 42.035156 25.933594 78.003906 62.675781 92.796875 2.089844.128906 4.199219.203125 6.324219.203125 55.230469 0 100-44.769531 100-100 0-.601562-.164062-1.152344-.179688-1.753906-.003906-.003906-.011718-.011719-.019531-.019532-3.085937 1.078126-6.347656 1.773438-9.800781 1.773438zm0 0" fill="#8c4a37"/><path d="m310 170h-208.386719c-25.683593 6.796875-44.613281 30.179688-44.613281 58v212c0 33.140625 26.859375 60 60 60h208.386719c25.683593-6.796875 44.613281-30.179688 44.613281-58v-212c0-33.140625-26.859375-60-60-60zm-119 264c-55.230469 0-100-44.769531-100-100s44.769531-100 100-100c16.789062 0 32.371094 4.53125 46.261719 11.839844-3.871094 5.058594-6.261719 11.300781-6.261719 18.160156 0 13.851562 9.441406 25.390625 22.191406 28.851562-1.382812 3.449219-2.191406 7.199219-2.191406 11.148438 0 16.570312 13.429688 30 30 30 3.460938 0 6.730469-.699219 9.820312-1.78125.007813.609375.179688 1.171875.179688 1.78125 0 55.230469-44.769531 100-100 100zm0 0" fill="#ffda2d"/><path d="m220 331.011719c-5.449219.007812-10 4.386719-10 9.988281 0 5.398438 4.390625 10 10 10 5.511719 0 10-4.488281 10-10 0-5.558594-4.550781-10.011719-10-9.988281zm0 0"/><path d="m180 371.011719c-5.539062-.023438-10 4.507812-10 9.988281 0 5.378906 4.359375 10 10 10 5.449219 0 10-4.429688 10-10 0-5.460938-4.410156-9.980469-10-9.988281zm0 0"/><path d="m180 291c-5.578125.011719-10 4.558594-10 10 0 5.398438 4.390625 10 10 10 5.480469 0 10-4.46875 10-10 0-5.511719-4.511719-10.011719-10-10zm0 0"/><path d="m140 331.011719c-5.539062-.023438-10 4.507812-10 9.988281 0 5.511719 4.488281 10 10 10s10-4.488281 10-10c0-5.589844-4.550781-9.980469-10-9.988281zm0 0"/><path d="m0 230v212c0 38.597656 31.402344 70 70 70h240c38.597656 0 70-31.402344 70-70v-212c0-35.203125-26.121094-64.40625-60-69.273438v-40.726562c22.054688 0 40-17.945312 40-40s-17.945312-40-40-40h-81.003906c-4.648438-22.792969-24.851563-40-48.996094-40s-44.347656 17.207031-48.996094 40h-81.003906c-22.054688 0-40 17.945312-40 40s17.945312 40 40 40v40.726562c-33.878906 4.867188-60 34.070313-60 69.273438zm360 0v212c0 27.570312-22.429688 50-50 50h-240c-27.570312 0-50-22.429688-50-50v-212c0-27.570312 22.429688-50 50-50h240c27.570312 0 50 22.429688 50 50zm-215-110c5.523438 0 10-4.476562 10-10s-4.476562-10-10-10h-85c-11.027344 0-20-8.972656-20-20s8.972656-20 20-20h90c5.523438 0 10-4.476562 10-10 0-16.542969 13.457031-30 30-30s30 13.457031 30 30c0 5.523438 4.476562 10 10 10h90c11.027344 0 20 8.972656 20 20s-8.972656 20-20 20h-85c-5.523438 0-10 4.476562-10 10s4.476562 10 10 10h65v40h-220v-40zm0 0"/><path d="m286.519531 324.78125c-2.347656.820312-4.480469 1.21875-6.519531 1.21875-11.027344 0-20-8.972656-20-20 0-2.488281.496094-4.988281 1.476562-7.4375 1.058594-2.648438.9375-5.621094-.335937-8.175781-1.273437-2.550781-3.578125-4.441407-6.332031-5.1875-8.71875-2.367188-14.808594-10.261719-14.808594-19.199219 0-5.445312 2.285156-9.578125 4.203125-12.085938 1.789063-2.339843 2.457031-5.347656 1.824219-8.222656-.632813-2.878906-2.503906-5.328125-5.109375-6.699218-16.378907-8.621094-33.511719-12.992188-50.917969-12.992188-60.652344 0-110 49.347656-110 110s49.347656 110 110 110 110-49.347656 110-110c0-1.050781-.121094-1.882812-.199219-2.382812-.398437-6.628907-7.035156-11.019532-13.28125-8.835938zm-96.519531 101.21875c-49.625 0-90-40.375-90-90s40.375-90 90-90c10.945312 0 21.8125 2.15625 32.417969 6.429688-1.597657 4.328124-2.417969 8.898437-2.417969 13.570312 0 14.574219 8.019531 27.753906 20.359375 34.722656-.238281 1.75-.359375 3.511719-.359375 5.277344 0 21.871094 17.644531 39.699219 39.449219 39.996094-4.988281 44.941406-43.199219 80.003906-89.449219 80.003906zm0 0"/><path d="m200 110c0 5.523438-4.476562 10-10 10s-10-4.476562-10-10 4.476562-10 10-10 10 4.476562 10 10zm0 0"/></svg>