<svg id="Capa_1" enable-background="new 0 0 512 512" height="512" viewBox="0 0 512 512" width="512" xmlns="http://www.w3.org/2000/svg"><g><g><path d="m442.255 302.6v90.647c14.229 7.045 24.016 21.705 24.016 38.658 0 23.814-19.305 43.12-43.12 43.12s-43.12-19.305-43.12-43.12c0-16.953 9.788-31.613 24.016-38.658v-103.885l-51.966-17.971c-4.41-1.525-7.368-5.678-7.368-10.344v-12.767c0-6.044 4.9-10.945 10.945-10.945h35.828c22.323 0 40.42-18.097 40.42-40.42v-19.133c0-5.19 4.207-9.397 9.397-9.397h5.647c5.19 0 9.397-4.207 9.397-9.397 0-2.399-.918-4.708-2.565-6.452l-18.888-19.999c-1.919-2.032-2.988-4.72-2.988-7.515v-10.99c0-36.747-18.527-71.348-49.787-90.665-17.123-10.581-37.461-16.456-59.212-15.82-57.593 1.685-103.025 48.137-103.506 105.752-.285 34.134 15.462 64.598 40.161 84.326 2.627 2.098 4.203 5.239 4.203 8.601v54.822c0 4.666-2.958 8.819-7.367 10.344l-12.978 4.488c1.55 2.67 2.453 5.76 2.453 9.063 0 5.789-2.686 11.096-7.369 14.561l-.589.436.238.693c3.142 9.154 4.734 18.742 4.734 28.497 0 48.384-39.363 87.747-87.747 87.747-14.929 0-28.996-3.752-41.316-10.355v85.676c0 6.796 5.509 12.305 12.305 12.305h356.218c6.796 0 12.305-5.509 12.305-12.305v-114.872c.002-33.494-20.99-63.336-52.397-74.726z" fill="#ffbd86"/><g fill="#f6a96c"><path d="m363.082 15.047c.815-.024 1.625-.02 2.436-.026-13.124-5.22-27.526-7.915-42.61-7.474-57.593 1.685-103.025 48.137-103.506 105.752-.285 34.134 15.462 64.598 40.161 84.326 2.627 2.098 4.203 5.239 4.203 8.601v54.822c0 4.666-2.958 8.819-7.367 10.344l-12.978 4.488c1.55 2.67 2.453 5.76 2.453 9.063 0 5.297-2.255 10.187-6.226 13.635l56.924-19.686c4.41-1.525 7.368-5.678 7.368-10.344v-54.822c0-3.362-1.577-6.503-4.203-8.601-24.698-19.728-40.445-50.192-40.161-84.326.481-57.615 45.913-104.067 103.506-105.752z"/><path d="m154 416.86c-14.504-.186-28.169-3.906-40.174-10.341v85.676c0 6.796 5.509 12.305 12.305 12.305h28.843c-.627-1.476-.974-3.1-.974-4.805z"/></g></g><g><path d="m241.138 351.13c-3.578 14.028-10.501 26.717-19.865 37.175 4.018 4.128 9.632 6.695 15.848 6.695 12.217 0 22.121-9.904 22.121-22.121-.001-10.844-7.806-19.859-18.104-21.749z" fill="#fff"/><path d="m68.157 346.798c-11.278 1.447-19.996 11.075-19.996 22.747 0 12.67 10.271 22.941 22.941 22.941 6.196 0 11.814-2.461 15.942-6.453-9.286-11.102-15.911-24.506-18.887-39.235z" fill="#8379c1"/><path d="m227.753 304.063c-10.56 0-19.121-8.561-19.121-19.121 0-7.52 4.353-14.008 10.666-17.131-16.158-16.902-38.927-27.43-64.157-27.43-21.327 0-40.895 7.526-56.2 20.063 6.761 3.413 11.409 10.403 11.409 18.494 0 11.446-9.279 20.724-20.724 20.724-6.145 0-11.648-2.69-15.444-6.938-5.003 11.108-7.788 23.431-7.788 36.404 0 49.013 39.733 88.747 88.747 88.747 49.013 0 88.747-39.733 88.747-88.747 0-10.089-1.687-19.784-4.789-28.821-3.175 2.349-7.091 3.756-11.346 3.756z" fill="#fe653b"/><path d="m171.944 241.976c-5.441-1.043-11.057-1.595-16.802-1.595-21.327 0-40.895 7.526-56.2 20.063 6.761 3.413 11.409 10.403 11.409 18.494 0 11.446-9.279 20.724-20.724 20.724-6.145 0-11.648-2.69-15.444-6.938-5.003 11.108-7.788 23.431-7.788 36.404 0 49.013 39.733 88.747 88.747 88.747 5.745 0 11.361-.553 16.802-1.595-40.978-7.855-71.944-43.884-71.944-87.152s30.966-79.298 71.944-87.152z" fill="#ef4424"/><g><circle cx="227.753" cy="284.942" fill="#1e9efd" r="19.121"/></g><g><path d="m191.66 345.996-19.249-45.28-13.201 31.053-18.695-62.673-22.581 75.699c-4.508 15.112 6.812 30.301 22.581 30.301h31.896c14.99 0 25.114-15.305 19.249-29.1z" fill="#fbd74c"/></g><g><g><path d="m142.999 344.795 10.049-33.686-12.533-42.013-22.581 75.699c-4.508 15.112 6.812 30.301 22.581 30.301h25.065c-15.77 0-27.089-15.189-22.581-30.301z" fill="#fac600"/></g></g><g><circle cx="89.627" cy="278.938" fill="#0ed290" r="20.724"/></g></g><g><g><g><path d="m442.255 393.248v-114.172c0-10.507-8.597-19.104-19.104-19.104s-19.104 8.597-19.104 19.104v114.172c-14.229 7.045-24.016 21.705-24.016 38.658 0 23.814 19.305 43.12 43.12 43.12 23.814 0 43.12-19.305 43.12-43.12 0-16.953-9.788-31.613-24.016-38.658z" fill="#b3dafe"/></g><g><path d="m397 431.906c0-15.93 8.643-29.837 21.492-37.302 1.552-.902 2.524-2.541 2.524-4.336v-111.192c0-7.461 4.345-13.94 10.619-17.08-3.293-1.648-7.103-2.402-11.128-1.838-9.531 1.334-16.46 9.778-16.46 19.402v113.688c-14.229 7.045-24.016 21.705-24.016 38.658 0 23.814 19.305 43.12 43.12 43.12 2.905 0 5.741-.292 8.484-.839-19.75-3.942-34.635-21.371-34.635-42.281z" fill="#8ac9fe"/></g><g><circle cx="423.151" cy="431.906" fill="#fe653b" r="15.829"/></g><g><path d="m420.342 431.906c0-6.406 3.832-11.923 9.319-14.412-1.989-.902-4.188-1.417-6.51-1.417-8.728 0-15.829 7.101-15.829 15.829s7.101 15.829 15.829 15.829c2.322 0 4.521-.515 6.51-1.417-5.486-2.489-9.319-8.006-9.319-14.412z" fill="#ef4424"/></g></g></g><g><path d="m449.756 297.504v-18.429c0-14.669-11.935-26.604-26.604-26.604-14.589 0-26.467 11.804-26.597 26.363l-42.021-14.532c-1.387-.479-2.319-1.788-2.319-3.255v-12.767c0-1.899 1.545-3.445 3.445-3.445h35.828c26.423 0 47.92-21.497 47.92-47.92v-19.133c0-1.046.851-1.897 1.897-1.897h5.647c9.317 0 16.897-7.58 16.897-16.897 0-4.332-1.638-8.452-4.613-11.602l-18.888-19.998c-.607-.643-.941-1.483-.941-2.366v-10.99c0-31.284-12.733-61.449-34.935-82.761-2.988-2.869-7.736-2.771-10.604.217-2.869 2.988-2.771 7.736.217 10.604 19.271 18.498 30.323 44.719 30.323 71.94v10.99c0 4.729 1.788 9.226 5.035 12.665l18.888 19.999c.334.354.519.816.519 1.303 0 1.046-.851 1.897-1.897 1.897h-5.647c-9.317 0-16.897 7.58-16.897 16.897v7.181h-29.348c-4.142 0-7.5 3.358-7.5 7.5s3.358 7.5 7.5 7.5h29.202c-1.543 16.728-15.649 29.873-32.774 29.873h-35.828c-10.17 0-18.445 8.274-18.445 18.445v12.768c0 7.858 4.99 14.863 12.417 17.431l46.917 16.225v94.132c-14.925 9.187-24.016 25.29-24.016 43.07 0 27.912 22.708 50.62 50.62 50.62s50.62-22.708 50.62-50.62c0-17.78-9.091-33.883-24.016-43.07v-74.638c22.767 12.478 37.399 36.548 37.399 63.128v35.672c0 4.142 3.358 7.5 7.5 7.5s7.5-3.358 7.5-7.5v-35.674c-.002-34.845-20.805-66.131-52.401-79.822zm9.016 134.402c0 19.641-15.979 35.62-35.62 35.62s-35.62-15.979-35.62-35.62c0-13.639 7.604-25.876 19.844-31.937 2.555-1.265 4.172-3.87 4.172-6.721v-114.172c0-6.398 5.205-11.604 11.604-11.604s11.604 5.205 11.604 11.604v5.054h-7.783c-4.142 0-7.5 3.358-7.5 7.5s3.358 7.5 7.5 7.5h7.783v10.472h-7.783c-4.142 0-7.5 3.358-7.5 7.5s3.358 7.5 7.5 7.5h7.783v10.472h-7.783c-4.142 0-7.5 3.358-7.5 7.5s3.358 7.5 7.5 7.5h7.783v10.472h-7.783c-4.142 0-7.5 3.358-7.5 7.5s3.358 7.5 7.5 7.5h7.783v17.703c0 2.851 1.617 5.456 4.172 6.721 12.24 6.06 19.844 18.297 19.844 31.936z"/><path d="m494.655 440.5c-4.142 0-7.5 3.358-7.5 7.5v44.195c0 2.649-2.156 4.805-4.805 4.805h-356.218c-2.649 0-4.805-2.155-4.805-4.805v-19.051c11.11 2.59 22.462 3.895 33.816 3.895 37.895 0 75.79-14.424 104.638-43.273 20.865-20.865 34.876-47.181 40.519-76.104.793-4.065-1.86-8.004-5.925-8.797-4.064-.794-8.004 1.859-8.797 5.925-5.069 25.982-17.657 49.624-36.403 68.37-25.074 25.074-58.469 38.883-94.032 38.883-11.573 0-22.914-1.472-33.816-4.309v-38.497c10.526 3.963 21.921 6.138 33.816 6.138 6.282 0 12.587-.616 18.74-1.831 4.063-.802 6.708-4.747 5.905-8.811s-4.751-6.707-8.811-5.905c-5.198 1.026-10.525 1.546-15.834 1.546-44.799 0-81.247-36.447-81.247-81.247 0-8.577 1.346-16.843 3.821-24.61 3.621 1.693 7.656 2.645 11.91 2.645 15.563 0 28.224-12.661 28.224-28.224 0-6.889-2.484-13.207-6.6-18.113 12.667-8.175 27.726-12.945 43.891-12.945 20.083 0 38.471 7.341 52.663 19.461-4.148 4.696-6.673 10.857-6.673 17.6 0 14.679 11.942 26.621 26.621 26.621 2.244 0 4.423-.282 6.507-.808 1.379 5.907 2.129 12.051 2.129 18.372 0 27.034-13.394 52.222-35.829 67.377-3.433 2.319-4.335 6.981-2.017 10.413 2.319 3.433 6.982 4.335 10.413 2.017 4.7-3.175 9.058-6.729 13.059-10.594 4.426 2.637 9.589 4.16 15.105 4.16 16.333 0 29.621-13.288 29.621-29.621 0-11.771-6.904-21.953-16.873-26.725.998-5.568 1.521-11.261 1.521-17.027 0-9.202-1.306-18.104-3.729-26.537 4.173-4.702 6.714-10.882 6.714-17.648 0-1.626-.155-3.216-.435-4.763l4.911-1.698c6.503-2.249 11.137-7.9 12.189-14.546 6.879 12.236 11.808 25.539 14.538 39.531.699 3.581 3.837 6.065 7.353 6.065.476 0 .959-.046 1.444-.14 4.065-.793 6.718-4.732 5.925-8.797-4.534-23.239-14.481-44.788-29.033-63.185v-31.18c0-5.625-2.56-10.896-7.022-14.461-23.987-19.16-37.598-47.736-37.342-78.403.447-53.566 42.714-96.752 96.226-98.318 15.366-.443 30.176 2.528 44.048 8.847 3.771 1.719 8.218.055 9.935-3.716 1.717-3.77.053-8.217-3.716-9.935-15.977-7.279-33.035-10.714-50.705-10.19-61.609 1.802-110.272 51.519-110.787 113.186-.294 35.302 15.371 68.196 42.979 90.249.88.703 1.384 1.702 1.384 2.741v14.873c-57.934-54.278-149.22-53.155-205.762 3.388-20.864 20.865-34.875 47.181-40.518 76.105-.793 4.065 1.86 8.004 5.925 8.797 4.06.79 8.004-1.859 8.797-5.925 5.069-25.982 17.657-49.624 36.403-68.37 25.074-25.074 58.469-38.883 94.032-38.883s68.958 13.809 94.032 38.883c2.475 2.475 4.835 5.041 7.092 7.68v18.274c0 1.467-.932 2.775-2.319 3.255l-6.856 2.371c-4.856-5.138-11.726-8.354-19.337-8.354-2.281 0-4.496.289-6.61.831-17.244-16.275-40.475-26.272-66.001-26.272-21.484 0-41.332 7.094-57.364 19.037-2.582-.781-5.318-1.205-8.151-1.205-15.563 0-28.225 12.662-28.225 28.225 0 5.443 1.553 10.527 4.232 14.843-4.341 10.949-6.739 22.871-6.739 35.347 0 4.139.263 8.218.772 12.221-11.133 4.529-19.007 15.454-19.007 28.196 0 16.785 13.656 30.441 30.441 30.441 5.427 0 10.521-1.436 14.936-3.938 6 6.193 12.821 11.584 20.288 15.997v40.811c-16.756-6.588-32.122-16.602-45.216-29.696-18.746-18.746-31.334-42.388-36.403-68.37-.793-4.065-4.729-6.72-8.797-5.925-4.065.793-6.718 4.732-5.925 8.797 5.643 28.923 19.654 55.239 40.519 76.104 16.271 16.271 35.419 27.951 55.822 35.045v23.384c0 10.92 8.884 19.805 19.805 19.805h356.218c10.92 0 19.805-8.884 19.805-19.805v-44.195c0-4.142-3.358-7.5-7.5-7.5zm-242.913-67.621c0 8.062-6.559 14.621-14.621 14.621-1.691 0-3.311-.295-4.821-.827 5.788-7.757 10.368-16.341 13.591-25.461 3.546 2.667 5.851 6.897 5.851 11.667zm-23.988-99.558c6.407 0 11.62 5.213 11.62 11.621s-5.213 11.621-11.62 11.621c-6.408 0-11.621-5.213-11.621-11.621s5.213-11.621 11.621-11.621zm-138.126-7.608c7.292 0 13.224 5.933 13.224 13.225s-5.932 13.224-13.224 13.224-13.225-5.932-13.225-13.224 5.933-13.225 13.225-13.225zm-18.525 119.272c-8.515 0-15.441-6.927-15.441-15.441 0-5.487 2.884-10.298 7.21-13.032 2.963 9.965 7.498 19.259 13.319 27.594-1.595.562-3.302.879-5.088.879z"/><path d="m294.939 120.068h4.902c4.142 0 7.5-3.358 7.5-7.5s-3.358-7.5-7.5-7.5h-4.902c-17.11 0-31.031 13.92-31.031 31.031s13.92 31.031 31.031 31.031h4.902c4.142 0 7.5-3.358 7.5-7.5s-3.358-7.5-7.5-7.5h-4.902c-8.839 0-16.031-7.191-16.031-16.031s7.192-16.031 16.031-16.031z"/><path d="m388.492 124.445c4.142 0 7.5-3.358 7.5-7.5v-10.944c0-4.142-3.358-7.5-7.5-7.5s-7.5 3.358-7.5 7.5v10.944c0 4.142 3.358 7.5 7.5 7.5z"/><path d="m198.563 343.062-19.25-45.28c-1.177-2.769-3.894-4.566-6.902-4.566s-5.726 1.797-6.902 4.566l-5.06 11.902-12.747-42.732c-.948-3.178-3.871-5.356-7.187-5.356s-6.239 2.178-7.187 5.356l-22.582 75.699c-2.833 9.495-1.061 19.498 4.86 27.442 5.921 7.945 15 12.502 24.909 12.502h31.896c9.563 0 18.423-4.762 23.7-12.738s6.193-17.993 2.452-26.795zm-14.962 18.52c-2.528 3.822-6.607 6.014-11.19 6.014h-31.896c-5.125 0-9.819-2.356-12.881-6.465-3.062-4.108-3.978-9.281-2.513-14.191l15.395-51.606 11.508 38.58c.904 3.03 3.61 5.167 6.767 5.344 3.144.177 6.085-1.644 7.322-4.554l6.298-14.816 12.347 29.043c1.794 4.217 1.372 8.828-1.157 12.651z"/><path d="m423.152 408.577c-12.863 0-23.329 10.465-23.329 23.329s10.465 23.329 23.329 23.329 23.329-10.465 23.329-23.329-10.466-23.329-23.329-23.329zm0 31.657c-4.592 0-8.329-3.736-8.329-8.329s3.736-8.329 8.329-8.329 8.329 3.736 8.329 8.329-3.737 8.329-8.329 8.329z"/></g></g></svg>