<svg id="Capa_1" enable-background="new 0 0 512.001 512.001" height="512" viewBox="0 0 512.001 512.001" width="512" xmlns="http://www.w3.org/2000/svg"><g><g><path d="m400.295 364.319-9.745 10.848c-6.178 6.878-15.676 9.736-24.624 7.41l-14.114-3.668c-15.344-3.988-27.499-15.689-32.067-30.87l-22.536-74.887 90.255-27.16 22.536 74.886c4.569 15.181.89 31.647-9.705 43.441z" fill="#eaf6ff"/><path d="m410 320.878-22.536-74.887-20.092 6.046 20.716 68.841c4.569 15.182.89 31.647-9.705 43.441l-9.745 10.848c-2.323 2.586-5.116 4.603-8.173 5.991l5.46 1.419c8.948 2.326 18.446-.533 24.624-7.41l9.745-10.848c10.596-11.794 14.275-28.26 9.706-43.441z" fill="#c8effe"/><g><path d="m106.933 239.11-28.953-8.005 41.213-149.072c9.862-35.673 42.599-60.587 79.61-60.587h17.927c25.721 0 50.344 12.245 65.865 32.756l22.221 29.366-23.954 18.126-22.221-29.366c-9.876-13.051-25.544-20.843-41.91-20.843h-17.927c-23.55 0-44.381 15.853-50.657 38.552z" fill="#9be69d"/></g><g><path d="m197.82 51.485h-17.927c-23.55 0-44.381 15.853-50.657 38.552l-39.87 144.215 17.567 4.857 41.213-149.072c6.224-22.514 26.769-38.284 50.082-38.54-.136-.001-.272-.012-.408-.012z" fill="#6fd7a3"/><path d="m282.595 54.202c-15.521-20.511-40.143-32.756-65.865-32.756h-17.927c-.136 0-.271.008-.407.009 25.512.181 49.884 12.39 65.289 32.747l22.221 29.366-11.93 9.027 6.885 9.099 23.954-18.126z" fill="#9be69d"/></g><path d="m354.161 135.324-90.255 27.16-5.823-40.531c-2.918-20.315 9.456-39.711 29.11-45.626 19.653-5.914 40.677 3.431 49.455 21.983z" fill="#bbf49b"/><path d="m336.649 98.311c-8.629-18.237-29.09-27.566-48.451-22.26 11.333 3.111 21.202 10.979 26.54 22.26l17.513 37.013-69.252 20.84.908 6.32 90.255-27.16z" fill="#9be69d"/><path d="m33.402 504.5 28.707-233.442 21.218-59.294h10.712c19.738 0 35.117 17.119 33.009 36.744l-27.496 255.992z" fill="#6fd7a3"/><path d="m94.039 211.764h-10.712l-.615 1.719c14.319 4.808 24.137 19.09 22.425 35.025l-27.496 255.992h21.911l27.496-255.991c2.108-19.626-13.271-36.745-33.009-36.745z" fill="#3ec3a4"/><path d="m62.109 271.058-27.448-108.96c-9.113-36.174-12.983-73.469-11.492-110.743l1.497-37.415c.289-7.215 10.214-8.933 12.912-2.236l19.632 48.742c3.255 8.082 5.562 16.513 6.876 25.126l19.241 126.193z" fill="#bbf49b"/><path d="m64.085 85.572c-1.313-8.613-3.62-17.044-6.876-25.126l-19.632-48.743c-2.698-6.698-12.623-4.979-12.912 2.236l-1.045 26.117c2.335.153 4.604 1.464 5.693 4.168l5.985 16.221c3.255 8.082 5.562 16.513 6.876 25.126l19.241 126.193-8.359 23.359 9.052 35.934 21.218-59.294z" fill="#9be69d"/><path d="m396.043 277.95c0 9.17-5.39 17.69-13.97 21.51-.9.4-1.84.75-2.81 1.04-6.33 1.91-12.84 1.02-18.2-1.94-4.65-2.58-10.38-.8-12.86 3.92-2.96 5.63-8.19 10.07-14.9 11.84-12.35 3.24-25-4.32-28.69-16.55l-40.71-135.29 26.31-7.92 18.82-5.66 30.93-9.31 14.2-4.27 4.39 14.59 36.48 121.24c.68 2.26 1.01 4.55 1.01 6.8z" fill="#8379c1"/><path d="m396.043 277.95c0 9.17-5.39 17.69-13.97 21.51l-12.88-10.59c-6.98-5.74-12.79-12.77-17.11-20.7l-61.87-113.61 18.82-5.66 30.93-9.31 18.59 10.32 36.48 121.24c.68 2.26 1.01 4.55 1.01 6.8z" fill="#6e61b6"/><path d="m263.906 162.484-38.568 74.108c-7.615 14.632-10.638 31.221-8.675 47.598l5.232 43.65c2.715 22.652 14.748 43.147 33.204 56.558l15.319 11.131c8.583 6.236 20.753 2.174 23.869-7.967l23.552-76.646c2.654-8.636 3.62-17.703 2.845-26.704l-11.65-135.308z" fill="#eaf6ff"/><path d="m320.684 284.212-11.65-135.307-21.358 6.427 11.097 128.88c.775 9.001-.191 18.068-2.845 26.704l-23.552 76.646c-.797 2.593-2.188 4.786-3.958 6.514l2 1.453c8.583 6.236 20.753 2.174 23.869-7.967l23.552-76.646c2.654-8.637 3.62-17.703 2.845-26.704z" fill="#c8effe"/><path d="m354.161 135.324 73.061 40.515c14.425 7.999 26.102 20.165 33.503 34.906l19.726 39.288c10.237 20.388 11.514 44.12 3.524 65.49l-6.632 17.736c-3.716 9.937-16.106 13.266-24.302 6.529l-61.94-50.918c-6.979-5.737-12.788-12.765-17.11-20.699l-64.959-119.265z" fill="#eaf6ff"/><path d="m480.452 250.032-19.726-39.288c-7.401-14.741-19.078-26.906-33.503-34.906l-73.061-40.515-14.203 4.274 65.354 36.241c14.425 7.999 26.102 20.165 33.503 34.906l19.726 39.288c10.237 20.388 11.514 44.12 3.524 65.49l-6.632 17.736c-.817 2.185-2.053 4.049-3.572 5.558l1.181.971c8.195 6.737 20.586 3.408 24.302-6.529l6.632-17.736c7.989-21.369 6.712-45.101-3.525-65.49z" fill="#c8effe"/></g><g><path d="m265.937 240.343c-4.141.108-7.41 3.552-7.302 7.693l.533 20.44c.106 4.074 3.442 7.304 7.494 7.304.066 0 .133-.001.2-.002 4.141-.108 7.41-3.552 7.302-7.693l-.533-20.44c-.109-4.142-3.542-7.403-7.694-7.302z"/><path d="m487.155 246.667-19.726-39.288c-8.112-16.157-20.757-29.332-36.569-38.1l-72.982-40.471c-.958-.623-3.348-1.374-5.876-.671l-81.911 24.648-4.583-31.898c-1.537-10.701 1.993-20.967 8.96-28.27 5.694-5.743 14.095-10.374 24.198-10.573 13.067-.241 25.34 7.08 31.204 19.474l2.474 5.229c1.771 3.745 6.245 5.344 9.987 3.572 3.744-1.771 5.343-6.243 3.572-9.987l-2.474-5.229c-7.956-16.815-24.099-27.146-41.676-28.011l-13.179-17.418c-16.927-22.37-43.783-35.725-71.841-35.725h-17.93c-40.375 0-76.084 27.174-86.839 66.082l-26.512 95.912-13.953-91.502c-1.399-9.174-3.866-18.19-7.333-26.797l-19.631-48.743c-2.525-6.268-8.936-9.838-15.596-8.687-6.658 1.153-11.497 6.674-11.767 13.426l-1.497 37.415c-1.521 38.01 2.42 75.987 11.712 112.875l27.106 107.603-28.535 232.051c-.506 4.111 2.417 7.854 6.528 8.359.311.039.62.057.925.057 3.734 0 6.967-2.785 7.435-6.585l28.605-232.615 19.157-53.537c15.992-2.394 32.936 10.555 30.982 28.443l-27.495 255.993c-.442 4.118 2.538 7.815 6.656 8.258 4.107.442 7.816-2.538 8.258-6.656l27.496-255.992c3.011-22.79-17.053-46.071-41.319-45.045l33.236-120.236c8.964-32.429 38.728-55.078 72.381-55.078h17.93c23.386 0 45.771 11.131 59.879 29.775l7.991 10.561c-5.039 1.566-9.657 3.855-13.763 6.733l-6.218-8.217c-11.288-14.911-29.191-23.813-47.889-23.813h-17.93c-26.909 0-50.713 18.114-57.889 44.051l-25.855 93.519c-1.104 3.992 1.238 8.124 5.23 9.228.669.185 1.341.273 2.003.273 3.288 0 6.306-2.18 7.225-5.503l25.855-93.518c5.384-19.459 23.243-33.05 43.432-33.05h17.93c14.028 0 27.46 6.679 35.929 17.866l7.306 9.655c-7.617 10.082-11.24 23.058-9.308 36.51l5.48 38.142-37.454 71.967c-8.346 16.037-11.621 34.002-9.469 51.954l5.232 43.649c2.954 24.643 16.164 47.144 36.242 61.733l15.318 11.13c10.883 8.668 31.152 3.567 35.447-11.831l11.656-37.931c5.666 16.779 19.612 29.86 36.813 34.334 31.055 10.889 41.425.67 55.947-16.836 11.881-13.226 16.293-31.832 11.754-48.951l30.654 25.199c10.462 9.371 30.771 5.394 36.089-9.696l6.63-17.734c8.693-23.248 7.291-49.301-3.845-71.482zm-456.492-195.013 1.348-33.696 18.241 45.289c3.034 7.534 5.194 15.425 6.418 23.455l18.956 124.319-12.27 34.289-21.423-85.044c-8.941-35.496-12.733-72.038-11.27-108.612zm321.074 238.923c-3.402 1.054-7.689 3.884-10.173 8.413-2.964 4.777-7.641 8.874-15.083 8.539 1.793-7.849 2.371-15.882 1.675-23.961l-8.578-99.624 47.828 87.812c3.881 7.127 8.802 13.511 14.635 19.071-3.278 2.864-11.713 4.481-17.34 1.175-4.002-2.221-8.606-2.728-12.964-1.425zm-64.619 94.781c-1.533 4.263-6.54 7.493-12.292 4.103l-15.318-11.13c-16.712-12.143-27.708-30.872-30.166-51.383l-5.232-43.649c-1.791-14.941.935-29.895 7.881-43.244l25.174-48.371.564 21.618c.106 4.075 3.442 7.305 7.494 7.305.066 0 .133-.001.199-.002 4.141-.108 7.41-3.552 7.302-7.693l-1.171-44.895 30.8-9.269 10.858 126.108c.695 8.08-.16 16.106-2.542 23.858zm115.703-62.316c3.789 12.585.682 26.481-8.11 36.268-16.99 22.053-22.941 16.965-41.011 12.342-12.727-3.311-22.987-13.187-26.776-25.772l-5.927-19.709 1.25-4.068c8.576 1.819 21.194-1.684 28.135-9.769l9.118 30.298c1.258 2.928 4.481 6.421 9.343 5.021 3.966-1.193 6.214-5.376 5.021-9.343l-9.108-30.267c8.953 2.28 20.738.319 28.892-7.374l3.24 2.664zm74.13-10.147-6.631 17.736c-1.783 4.163-6.978 7.093-12.514 3.362l-61.94-50.918c-6.265-5.15-11.407-11.372-15.286-18.493l-60.542-111.157 30.8-9.268 53.05 84.891c1.423 2.277 3.867 3.526 6.368 3.526 1.357 0 2.731-.368 3.967-1.141 3.513-2.195 4.581-6.822 2.386-10.335l-40.71-65.145 47.689 26.445c13.161 7.298 23.686 18.264 30.438 31.712l19.726 39.288c9.267 18.461 10.433 40.147 3.199 59.497z"/></g></g></svg>