<svg id="Capa_1" enable-background="new 0 0 511.467 511.467" height="512" viewBox="0 0 511.467 511.467" width="512" xmlns="http://www.w3.org/2000/svg"><g><g><path d="m284.813 233.778-29.08 31.018-29.08-31.018c-18.685-19.93-29.083-46.224-29.083-73.543v-10.148c0-22.409 5.006-44.536 14.653-64.763l28.708-60.194c5.939-12.453 23.664-12.453 29.603 0l28.708 60.194c9.647 20.227 14.653 42.353 14.653 64.763v10.148c.001 27.319-10.397 53.613-29.082 73.543z" fill="#d691c6"/><path d="m299.243 85.325-28.708-60.195c-4.783-10.029-17.207-11.974-24.966-5.849 1.875 1.48 3.481 3.426 4.637 5.849l28.708 60.194c9.647 20.227 14.653 42.353 14.653 64.763v10.148c0 27.319-10.398 53.613-29.083 73.543l-18.915 20.176 10.164 10.842 29.08-31.018c18.685-19.93 29.083-46.224 29.083-73.543v-10.148c0-22.409-5.006-44.535-14.653-64.762z" fill="#cd7cbb"/><g><path d="m259.212 274.72-15.856 39.45-38.347-18.365c-24.639-11.8-43.862-32.536-53.766-57.996l-3.679-9.457c-8.124-20.885-11.48-43.321-9.823-65.669l4.932-66.507c1.02-13.758 17.539-20.184 27.589-10.732l48.578 45.691c16.323 15.353 29.011 34.16 37.135 55.045l3.679 9.457c9.904 25.46 9.746 53.736-.442 79.083z" fill="#ffceec"/><path d="m259.654 195.637-3.679-9.457c-8.124-20.885-20.812-39.691-37.135-55.044l-48.578-45.691c-7.908-7.438-19.818-5.04-25.033 3.023 4.075-.142 8.272 1.231 11.712 4.466l41.571 38.202c16.323 15.353 29.011 34.16 37.135 55.044l3.679 9.457c9.904 25.46 9.746 53.736-.442 79.083l-12.575 31.286 17.047 8.164 15.856-39.45c10.188-25.347 10.346-53.623.442-79.083z" fill="#ffbee6"/><path d="m252.255 274.72 15.856 39.45 38.347-18.365c24.639-11.8 43.862-32.536 53.766-57.996l3.679-9.457c8.124-20.885 11.48-43.321 9.823-65.669l-4.932-66.507c-1.02-13.758-17.539-20.184-27.589-10.732l-48.578 45.691c-16.323 15.353-29.011 34.16-37.135 55.045l-3.679 9.457c-9.904 25.46-9.746 53.736.442 79.083z" fill="#ffceec"/><path d="m373.726 162.683-4.932-66.507c-.985-13.278-16.402-19.722-26.511-11.66 3.399 2.653 5.812 6.671 6.182 11.66l4.932 66.507c1.657 22.348-1.699 44.784-9.823 65.669l-3.679 9.457c-9.904 25.46-29.128 46.196-53.766 57.996l-21.299 10.201 3.281 8.164 38.347-18.365c24.639-11.8 43.862-32.536 53.767-57.996l3.679-9.457c8.123-20.885 11.479-43.321 9.822-65.669z" fill="#ffbee6"/></g><path d="m435.961 151.671-62.235 16.072s-12.59 43.335-40.148 86.642c-5.776 9.077-19.73 4.943-19.684-5.816.001-.155.001-.31.001-.465v-10.148c0-22.41-5.006-44.536-14.653-64.763l-28.707-60.193c-5.939-12.453-23.664-12.453-29.603 0l-28.708 60.194c-9.647 20.227-14.653 42.353-14.653 64.762v10.148c0 .155 0 .31.001.465.047 10.758-13.908 14.892-19.684 5.816-27.557-43.308-40.148-86.642-40.148-86.642l-62.235-16.072c-8.45-2.182-16.688 4.198-16.688 12.926 0 28.989 13.574 56.306 36.679 73.815l72.137 54.664c22.656 17.169 40.702 39.688 52.52 65.542 11.931 26.1 18.107 54.463 18.107 83.161v62.188h34.946v-62.188c0-28.698 6.175-57.061 18.107-83.161 11.819-25.854 29.864-48.373 52.521-65.542l72.137-54.664c23.105-17.509 36.679-44.825 36.679-73.815-.001-8.728-8.238-15.109-16.689-12.926z" fill="#c365af"/><g fill="#b2529f"><path d="m250.206 113 28.708 60.194c9.647 20.227 14.653 42.353 14.653 64.763v10.148c0 .155 0 .31-.001.465-.047 10.758 13.908 14.892 19.684 5.816.428-.673.853-1.346 1.274-2.019-.408-1.148-.635-2.417-.629-3.796.001-.155.001-.31.001-.465v-10.148c0-22.409-5.006-44.536-14.653-64.763l-28.708-60.195c-4.783-10.029-17.207-11.974-24.966-5.849 1.875 1.48 3.481 3.425 4.637 5.849z"/><path d="m117.412 167.743s12.59 43.335 40.148 86.642c5.035 7.913 16.283 5.784 19.054-2.019-26.672-42.625-38.874-84.623-38.874-84.623l-62.235-16.072c-4.182-1.08-8.308-.058-11.413 2.303z"/><path d="m435.961 151.671-8.916 2.303c3.169 2.41 5.275 6.214 5.275 10.623 0 28.989-13.574 56.306-36.679 73.815l-72.137 54.664c-22.657 17.169-40.702 39.688-52.521 65.542-11.932 26.101-18.107 54.463-18.107 83.161v62.188h20.329v-62.188c0-28.698 6.175-57.061 18.107-83.161 11.819-25.854 29.864-48.373 52.521-65.542l72.137-54.664c23.105-17.509 36.679-44.826 36.679-73.815 0-8.728-8.237-15.109-16.688-12.926z"/></g><path d="m255.733 503.967-29.689-51.332c-25.927-44.829-66.463-79.395-114.825-97.915l-26.172-10.022c-5.222-2-9.297 4.765-5.088 8.446l63.608 55.631c4.905 4.29 9.272 9.158 13.005 14.499l56.412 80.694h42.749z" fill="#bbf49b"/><path d="m226.045 452.634c-25.927-44.829-66.463-79.395-114.825-97.915l-26.172-10.022c-4.259-1.631-7.751 2.568-6.612 6.169.961-.281 2.046-.283 3.193.158 87.123 26.134 113.773 74.876 153.776 152.943h20.329z" fill="#9be69d"/><path d="m255.733 503.967 29.689-51.332c25.927-44.829 66.463-79.395 114.825-97.915l26.172-10.022c5.222-2 9.297 4.765 5.088 8.446l-63.608 55.631c-4.905 4.29-9.272 9.158-13.005 14.499l-56.412 80.694h-42.749z" fill="#bbf49b"/><path d="m426.42 344.697-13.523 5.178c-.104 1.159-.63 2.316-1.718 3.268l-63.608 55.631c-10.504 7.107-60.647 84.051-69.417 95.193h20.329l56.412-80.694c3.733-5.341 8.1-10.209 13.005-14.499l63.608-55.631c4.208-3.681.134-10.446-5.088-8.446z" fill="#9be69d"/></g><g><path d="m341.474 15.45c4.23-.784 7.023-4.849 6.239-9.079s-4.849-7.023-9.079-6.239-7.023 4.849-6.239 9.079 4.849 7.023 9.079 6.239z"/><path d="m257.154 63.932c4.23-.784 7.023-4.849 6.239-9.079s-4.849-7.023-9.079-6.239-7.023 4.849-6.239 9.079c.784 4.231 4.849 7.024 9.079 6.239z"/><path d="m169.993 15.45c4.23.784 8.295-2.009 9.079-6.239s-2.009-8.295-6.239-9.079c-4.23-.784-8.295 2.009-9.079 6.239s2.009 8.294 6.239 9.079z"/><path d="m162.719 418.975c-4.077-5.831-8.859-11.162-14.214-15.846l-53.086-46.429 13.118 5.023c13.955 5.344 27.402 12.147 39.969 20.222 3.484 2.238 8.125 1.229 10.364-2.256s1.229-8.125-2.255-10.364c-13.43-8.629-27.801-15.9-42.713-21.61l-26.172-10.022c-5.757-2.204-12.004-.057-15.187 5.227-3.183 5.283-2.163 11.808 2.479 15.869l63.608 55.63c4.444 3.887 8.413 8.312 11.796 13.151l56.411 80.694c1.458 2.086 3.787 3.203 6.153 3.203 1.484 0 2.982-.439 4.291-1.354 3.395-2.374 4.223-7.049 1.85-10.444z"/><path d="m423.737 337.693-26.172 10.022c-48.72 18.657-90.09 53.451-116.862 98.173-.597-28.379 5.393-58.001 17.431-84.157 5.618-12.292 12.762-23.885 21.229-34.456 8.467-10.559 18.224-20.056 28.999-28.224l72.142-54.661c24.827-18.819 39.649-48.65 39.649-79.797 0-11.497-9.344-20.85-20.83-20.85-1.746 0-3.504.224-5.235.668l-26.204 6.766c-4.011 1.035-6.422 5.126-5.387 9.137s5.125 6.422 9.137 5.387l26.193-6.763c3.813-.982 7.325 1.939 7.325 5.655 0 26.481-12.602 51.843-33.709 67.842l-72.142 54.662c-11.758 8.914-22.403 19.275-31.643 30.798-9.241 11.536-17.036 24.187-23.167 37.601-12.467 27.275-18.789 56.307-18.789 86.288v29.965l-9.97 17.238-9.97-17.238c.087-23.296.798-50.963-4.752-74.123-3.156-14.471-7.878-28.645-14.037-42.13-12.298-26.895-31.251-50.547-54.812-68.399l-72.141-54.66c-10.417-7.892-18.996-18.254-24.812-29.969-5.82-11.715-8.896-24.811-8.896-37.873 0-1.818.826-3.5 2.266-4.616 1.443-1.118 3.284-1.498 5.049-1.042l58.193 15.025c3.873 11.995 16.545 47.992 39.742 84.446 4.393 6.913 12.607 10.016 20.443 7.715 7.854-2.304 13.104-9.37 13.066-17.548-2.024-47.099 14.027-71.903 29.625-105.077l13.005-27.266c1.514-3.176 4.516-5.072 8.03-5.072s6.516 1.896 8.03 5.074l13.004 27.263c16.431 31.578 32.831 68.304 29.626 105.043-.039 8.21 5.214 15.275 13.069 17.58 7.834 2.298 16.049-.8 20.438-7.708 25.019-39.318 37.793-78.094 40.492-86.812.857-1.71 1.398-3.03.81-9.469l-4.93-66.51c-.688-9.274-6.498-17.13-15.165-20.502-8.668-3.375-18.265-1.511-25.043 4.863l-22.458 21.122c-3.092-10.416-11.692-27.561-16.442-37.556 1.629-3.143 3.211-5.989 4.688-8.502 8.112-13.792 14.973-21.162 15.032-21.225 2.846-3.009 2.714-7.756-.295-10.603-3.01-2.847-7.756-2.715-10.603.295-.608.643-8.014 8.607-16.768 23.375l-11.916-24.982c-4.004-8.399-12.27-13.618-21.57-13.618s-17.565 5.218-21.569 13.616l-11.917 24.983c-8.755-14.768-16.16-22.732-16.768-23.375-2.843-3.006-7.577-3.136-10.587-.299-3.011 2.836-3.151 7.581-.32 10.597-.165-1.155 15.118 19.488 19.73 29.736-5.263 11.178-12.552 25.241-16.442 37.556l-22.459-21.123c-6.777-6.373-16.373-8.236-25.042-4.863-8.667 3.372-14.477 11.228-15.165 20.502l-4.635 62.523-53.182-13.731c-6.292-1.624-12.847-.272-17.984 3.708-5.134 3.978-8.079 9.982-8.079 16.474 0 15.365 3.618 30.769 10.462 44.545 6.841 13.779 16.934 25.969 29.188 35.253l72.14 54.66c21.59 16.359 38.959 38.034 50.227 62.678 5.714 12.512 10.096 25.664 13.023 39.087 3.052 13.655 4.65 30.369 4.409 45.066-12.244-20.465-27.476-38.863-45.33-54.714-3.097-2.75-7.838-2.468-10.588.629s-2.469 7.838.629 10.588c32.99 27.77 52.512 69.54 73.767 105.336 1.819 3.662 8.949 6.094 12.984 0 7.194-12.438 22.701-39.25 29.689-51.332 24.984-43.199 64.41-76.819 111.015-94.666l13.119-5.023-53.086 46.429c-5.355 4.684-10.138 10.016-14.215 15.847l-56.411 80.694c-2.373 3.395-1.545 8.071 1.85 10.444 3.396 2.373 8.071 1.545 10.444-1.85l56.411-80.693c3.384-4.839 7.353-9.264 11.796-13.151l63.608-55.631c4.643-4.06 5.662-10.586 2.479-15.869-3.179-5.282-9.422-7.431-15.184-5.226zm-77.396-246.786c2.563-2.41 6.05-3.087 9.328-1.812 3.275 1.274 5.385 4.127 5.645 7.632l4.933 66.541c.068.869.123 1.787.172 2.726-1.252 4.139-13.83 44.536-39.176 84.367-1.121 1.765-2.71 1.613-3.557 1.364-.861-.252-2.302-.993-2.292-3.152v-10.62c.609-37.307-14.33-66.774-28.834-96.193 2.646-2.938 53.578-50.662 53.781-50.853zm-53.867-2.355c3.691 7.737 6.677 15.808 8.914 24.043-5.131 4.854-11.175 10.453-15.686 14.788l-6.539-13.709c2.663-12.155 6.162-22.975 9.882-32.311zm-44.77-60.191c1.514-3.176 4.516-5.073 8.03-5.073s6.516 1.896 8.03 5.074l16.702 35.015c-4.773 10.083-9.423 22.027-13.171 35.735-3.456-1.904-7.404-2.954-11.562-2.954s-8.106 1.05-11.562 2.954c-3.747-13.708-8.397-25.651-13.171-35.735zm-28.711 60.191 3.429-7.189c3.719 9.337 7.219 20.156 9.882 32.311l-6.539 13.709c.268.194-15.567-14.672-15.686-14.788 2.237-8.235 5.224-16.306 8.914-24.043zm-68.84 8.176c.26-3.504 2.37-6.358 5.645-7.632 3.277-1.276 6.765-.598 9.327 1.811 0 0 52.086 49.083 53.783 50.853-17.147 32.247-31.642 69.392-28.834 106.849.01 2.127-1.43 2.867-2.289 3.12-.85.248-2.438.4-3.563-1.371-25.348-39.834-37.926-80.238-39.173-84.363.048-.944 5.104-69.267 5.104-69.267z"/><path d="m255.733 260.33c-4.142 0-7.5 3.358-7.5 7.5v70.979c0 4.142 3.358 7.5 7.5 7.5s7.5-3.358 7.5-7.5v-70.979c0-4.142-3.357-7.5-7.5-7.5z"/><path d="m263.233 210.148c0-4.142-3.358-7.5-7.5-7.5s-7.5 3.358-7.5 7.5v21.651c0 4.142 3.358 7.5 7.5 7.5s7.5-3.358 7.5-7.5z"/></g></g></svg>