<svg id="Capa_1" enable-background="new 0 0 511.999 511.999" height="512" viewBox="0 0 511.999 511.999" width="512" xmlns="http://www.w3.org/2000/svg"><g><g><path d="m209.85 200.101v59.04l-69.39 23.79c-23.92 8.19-49.93 7.9-73.65-.85l-51.97-19.15c-9.26-3.41-9.92-16.27-1.05-20.61l72.58-35.53c8.99-4.4 18.87-6.69 28.88-6.69z" fill="#ffd15b"/><path d="m209.85 200.101v59.04h-19.72l-18.57-24.33c-5.8-7.59-9.5-16.59-10.71-26.07l-1.1-8.64z" fill="#ffc344"/><path d="m190.125 200.098v59.038l-69.395 23.79c-8.417 2.885-17.094 4.695-25.839 5.478 15.301 1.388 30.832-.427 45.568-5.478l69.395-23.79v-59.038z" fill="#ffc344"/><path d="m209.85 158.271v100.87l-40.25-27.07-5.5-3.7c-24.1-16.21-44.1-37.79-58.45-63.04l-38.97-68.6c-2.81-4.95 1.19-11.01 6.85-10.36l30.89 3.52c15.51 1.77 30.32 7.17 43.25 15.69 3.62 2.37 7.09 5 10.39 7.85z" fill="#ffd15b"/><path d="m209.85 158.271v100.87l-40.25-27.07c-4.68-6.98-7.68-14.97-8.75-23.33l-13.18-103.16c3.62 2.37 7.09 5 10.39 7.85z" fill="#ffc344"/><path d="m302.146 259.136h-92.292c-17.799 23.667-27.424 52.479-27.424 82.092v1.962c0 21.768 5.203 43.221 15.175 62.57l40.832 79.227c7.357 14.275 27.768 14.275 35.125 0l40.832-79.227c9.972-19.349 15.175-40.802 15.175-62.57v-1.962c.001-29.613-9.624-58.424-27.423-82.092z" fill="#ffd15b"/><path d="m302.146 259.136h-19.729c17.799 23.667 27.424 52.479 27.424 82.092v1.962c0 21.768-5.203 43.221-15.176 62.57l-40.832 79.227c-1.867 3.622-4.576 6.321-7.698 8.105 9.179 5.246 21.937 2.547 27.427-8.105l40.832-79.227c9.972-19.349 15.176-40.802 15.176-62.57v-1.962c0-29.613-9.625-58.424-27.424-82.092z" fill="#ffc344"/><path d="m302.146 259.136 69.395 23.79c23.916 8.199 49.927 7.902 73.649-.841l51.967-19.153c9.266-3.415 9.923-16.27 1.053-20.612l-72.581-35.531c-8.992-4.402-18.872-6.69-28.883-6.69h-94.6z" fill="#ffd15b"/><path d="m498.211 242.32-72.581-35.531c-8.992-4.402-18.872-6.69-28.883-6.69h-19.729c10.012 0 19.891 2.288 28.883 6.69l72.581 35.531c8.87 4.342 8.213 17.197-1.054 20.612l-51.967 19.153c-9.106 3.356-18.549 5.456-28.082 6.32 16.103 1.442 32.437-.654 47.81-6.32l51.967-19.153c9.267-3.415 9.925-16.27 1.055-20.612z" fill="#ffc344"/><path d="m302.146 259.136 45.751-30.768c24.098-16.207 44.107-37.784 58.451-63.036l38.97-68.602c2.814-4.953-1.185-11.006-6.845-10.36l-30.897 3.522c-19.843 2.262-38.54 10.467-53.64 23.539l-51.791 44.838v100.867z" fill="#ffd15b"/><path d="m438.473 86.371-14.395 1.641c2.349 2.043 3.284 5.598 1.511 8.719l-38.97 68.602c-14.344 25.251-34.353 46.829-58.451 63.036l-26.022 17.5v13.268l45.751-30.768c24.098-16.206 44.107-37.784 58.451-63.036l38.97-68.602c2.814-4.953-1.185-11.006-6.845-10.36z" fill="#ffc344"/><path d="m302.146 259.136h-92.292l-18.569-24.322c-5.8-7.597-9.493-16.591-10.704-26.073l-19.065-149.217c-1.5-11.739 4.137-23.243 14.333-29.251l16.744-9.866c8.433-4.969 18.777-5.448 27.632-1.279l23.169 10.907c7.984 3.758 17.229 3.758 25.213 0l23.169-10.907c8.856-4.169 19.2-3.69 27.632 1.279l16.744 9.866c10.196 6.008 15.833 17.512 14.333 29.251l-19.065 149.218c-1.211 9.482-4.904 18.475-10.704 26.073z" fill="#fea95c"/><g><path d="m200.496 19.128 23.169 10.907c7.085 3.335 15.162 3.704 22.471 1.119-.927-.328-1.843-.696-2.742-1.119l-23.169-10.907c-7.121-3.352-15.203-3.693-22.481-1.117.929.328 1.85.692 2.752 1.117z" fill="#fea95c"/><path d="m336.151 30.273-16.744-9.866c-7.574-4.463-16.686-5.291-24.88-2.396 1.773.628 3.5 1.422 5.151 2.396l16.744 9.866c10.196 6.008 15.833 17.512 14.333 29.251l-19.065 149.218c-1.211 9.482-4.904 18.475-10.704 26.073l-18.569 24.322h19.729l18.569-24.322c5.8-7.597 9.493-16.591 10.704-26.073l19.065-149.218c1.5-11.739-4.137-23.243-14.333-29.251z" fill="#fe9738"/></g><path d="m302.146 259.136h-92.292v-55.426c0-8.646 9.83-13.62 16.796-8.5l18.551 13.635c6.425 4.722 15.173 4.722 21.598 0l18.551-13.635c6.966-5.12 16.796-.146 16.796 8.5z" fill="#ffead9"/><g><path d="m285.35 195.211-4.345 3.194c.887 1.523 1.413 3.315 1.413 5.306v55.426h19.729v-55.426c-.001-8.646-9.831-13.62-16.797-8.5z" fill="#fedba6"/></g></g><g><path d="m501.507 235.585-72.58-35.53c-2.313-1.132-4.715-2.154-7.139-3.036-3.895-1.42-8.195.59-9.613 4.481-1.417 3.893.59 8.196 4.482 9.613 1.927.702 3.836 1.514 5.675 2.414l72.58 35.53c1.991.974 2.118 2.796 2.08 3.535-.037.738-.35 2.537-2.426 3.301l-51.973 19.151c-22.018 8.123-46.39 8.404-68.622.792l-55.113-18.895 23.46-15.779 78.936 12.646c3.18.519 7.354-1.475 8.592-6.219.655-4.09-2.129-7.937-6.219-8.592l-63.46-10.167c21.382-16.045 39.488-36.544 52.703-59.795l38.971-68.602c2.702-4.76 2.504-10.555-.517-15.124-3.021-4.566-8.278-7.017-13.704-6.391l-30.891 3.52c-20.052 2.283-38.811 10.098-54.51 22.668l5.702-44.633c1.883-14.732-5.169-29.124-17.965-36.663l-16.744-9.867c-10.579-6.232-23.525-6.831-34.634-1.603l-23.169 10.907c-7.587 4.339-19.089.719-26.812-3.76-3.748-1.767-8.216-.157-9.98 3.591s-.156 8.216 3.592 9.98c11.46 6.617 26.495 10.18 39.589 3.76l23.169-10.907c2.338-1.101 4.813-1.759 7.314-1.998l-17.413 87.313c-.81 4.062 1.826 8.012 5.889 8.822.495.099.988.146 1.475.146 3.504 0 6.636-2.468 7.348-6.035l17.263-86.561 15.5 9.134c7.622 4.491 11.822 13.063 10.701 21.838l-15.453 120.953c-2.181 18.498-3.327 43.295-17.945 57.428v-33.243c.427-13.747-16.766-23.371-28.737-14.543l-18.552 13.635c-3.802 2.795-8.911 2.795-12.715 0l-18.551-13.636c-10.646-8.422-28.942-.311-28.737 14.543v33.243c-16.347-16.992-15.158-39.372-17.946-57.431l-15.453-120.945c-1.12-8.776 3.08-17.348 10.701-21.839l15.5-9.133 17.263 86.561c.712 3.567 3.844 6.035 7.348 6.035.486 0 .979-.047 1.475-.146 4.062-.81 6.698-4.76 5.889-8.822l-19.06-95.568c-.712-3.875-4.944-6.931-9.105-5.83-3.579.858-7.005 2.243-10.181 4.114l-16.744 9.867c-12.795 7.539-19.846 21.93-17.965 36.663l5.703 44.632c-15.7-12.57-34.459-20.385-54.509-22.668l-30.884-3.52c-5.434-.623-10.689 1.825-13.711 6.391-3.021 4.568-3.219 10.363-.516 15.125l38.971 68.601c4.675 8.225 9.963 16.106 15.789 23.569-10.977.051-21.982 2.621-31.847 7.449l-72.579 35.529c-6.846 3.35-10.856 10.161-10.467 17.774.39 7.613 5.073 13.978 12.222 16.61l51.967 19.149c51.011 18.612 86.537-3.04 127.838-15.946-22.168 40.898-23.034 94.029-1.114 136.025l40.832 79.227c4.696 9.11 13.98 14.77 24.229 14.77s19.533-5.66 24.229-14.77l40.832-79.227c21.543-41.3 21.447-94.386-1.114-136.025l49.163 16.855c24.459 8.434 53.268 8.548 78.673-.908l51.969-19.149c7.149-2.633 11.833-8.998 12.222-16.611s-3.622-14.424-10.467-17.773zm-142.659-116.483c14.023-12.138 31.168-19.663 49.581-21.759l29.85-3.401-38.449 67.684c-15.391 27.841-39.88 51.034-66.987 67.835 6.144-10.459 7.552-33.303 9.264-45.182l36.436-33.442c3.052-2.801 3.255-7.545.454-10.597-2.802-3.052-7.544-3.255-10.597-.454l-23.346 21.428 4.334-33.919zm-141.494 84.609c.287-1.486.87-3.849 4.854-2.457l18.551 13.636c9.115 6.699 21.365 6.699 30.48 0l18.553-13.636c1.367-.649 3.615-1.578 4.854 2.457v47.926h-77.292zm-143.633-109.769 29.85 3.401c22.129 1.906 43.049 14.526 59.042 29.951l4.334 33.919-23.346-21.428c-3.052-2.802-7.798-2.598-10.597.454-2.801 3.051-2.598 7.796.454 10.597l36.436 33.442c1.977 13.121 2.663 32.851 9.262 45.181-26.891-16.569-51.396-39.812-66.985-67.833zm64.309 181.894c-22.232 7.613-46.603 7.332-68.627-.792l-51.971-19.15c-2.076-.765-2.389-2.563-2.426-3.301-.038-.738.089-2.561 2.081-3.535l72.579-35.53c7.922-3.877 16.769-5.926 25.583-5.926h12.665c7.384 7.714 15.386 14.828 23.917 21.229l-63.459 10.167c-4.09.655-6.874 4.502-6.219 8.592.591 3.688 3.776 6.314 7.396 6.314.394 0 .794-.031 1.195-.095l78.935-12.646 23.461 15.779zm184.04 67.354c0 20.481-4.96 40.93-14.343 59.134l-40.832 79.227c-2.144 4.159-6.217 6.642-10.895 6.642-4.679 0-8.752-2.483-10.896-6.642l-40.832-79.227c-21.85-41.679-18.618-96.803 9.394-135.688h34.834v63.98c0 4.142 3.357 7.5 7.5 7.5s7.5-3.358 7.5-7.5v-63.98h34.835c15.26 21.447 24.242 49.568 23.735 76.554z"/><path d="m256 357.869c-4.143 0-7.5 3.358-7.5 7.5v20c0 4.142 3.357 7.5 7.5 7.5s7.5-3.358 7.5-7.5v-20c0-4.142-3.358-7.5-7.5-7.5z"/></g></g></svg>