<svg id="Capa_1" enable-background="new 0 0 512 512" height="512" viewBox="0 0 512 512" width="512" xmlns="http://www.w3.org/2000/svg"><g><g><g><g fill="#eaf6ff"><path d="m202.528 231.43h53.888v31.085h-53.888z"/><path d="m202.528 291.803v93.091c0 14.881 12.063 26.944 26.944 26.944s26.944-12.063 26.944-26.944v-93.091z"/></g><g><path d="m202.528 384.894c0 14.881 12.063 26.944 26.944 26.944s26.944-12.063 26.944-26.944v-63.26h-53.888z" fill="#fbd74c"/></g><g><path d="m228 384.894v-63.26h-25.472v63.26c0 14.881 12.063 26.944 26.944 26.944 4.607 0 8.943-1.159 12.736-3.197-8.457-4.546-14.208-13.474-14.208-23.747z" fill="#fac600"/></g><g><ellipse cx="209.796" cy="183.16" fill="#0ed290" rx="15.877" ry="25.778" transform="matrix(.707 -.707 .707 .707 -68.066 201.995)"/></g><g><ellipse cx="249.148" cy="183.16" fill="#1ee6a6" rx="25.778" ry="15.877" transform="matrix(.707 -.707 .707 .707 -56.54 229.821)"/></g></g><g><g fill="#eaf6ff"><path d="m302.582 231.43h53.888v31.085h-53.888z"/><path d="m302.582 291.803v93.091c0 14.881 12.063 26.944 26.944 26.944 14.881 0 26.944-12.063 26.944-26.944v-93.091z"/></g><g><path d="m302.582 384.894c0 14.881 12.063 26.944 26.944 26.944s26.944-12.063 26.944-26.944v-63.26h-53.888z" fill="#fbd74c"/></g><g><path d="m328 384.894v-63.26h-25.418v63.26c0 14.881 12.063 26.944 26.944 26.944 4.597 0 8.923-1.154 12.709-3.183-8.472-4.541-14.235-13.477-14.235-23.761z" fill="#fac600"/></g><g><ellipse cx="309.85" cy="183.16" fill="#0ed290" rx="15.877" ry="25.778" transform="matrix(.707 -.707 .707 .707 -38.761 272.743)"/></g><g><ellipse cx="349.202" cy="183.16" fill="#1ee6a6" rx="25.778" ry="15.877" transform="matrix(.707 -.707 .707 .707 -27.235 300.57)"/></g></g><g><g fill="#eaf6ff"><path d="m402.636 231.43h53.888v31.085h-53.888z"/><path d="m402.636 291.803v93.091c0 14.881 12.063 26.944 26.944 26.944 14.881 0 26.944-12.063 26.944-26.944v-93.091z"/></g><g><path d="m402.636 384.894c0 14.881 12.063 26.944 26.944 26.944s26.944-12.063 26.944-26.944v-63.26h-53.888z" fill="#fbd74c"/></g><g><path d="m428 384.894v-63.26h-25.364v63.26c0 14.881 12.063 26.944 26.944 26.944 4.586 0 8.902-1.149 12.682-3.17-8.486-4.536-14.262-13.479-14.262-23.774z" fill="#fac600"/></g><g><ellipse cx="409.903" cy="183.16" fill="#0ed290" rx="15.877" ry="25.778" transform="matrix(.707 -.707 .707 .707 -9.456 343.492)"/></g><g><ellipse cx="449.256" cy="183.16" fill="#1ee6a6" rx="25.778" ry="15.877" transform="matrix(.707 -.707 .707 .707 2.07 371.318)"/></g></g></g><g><path d="m504.5 291.803h-349.948v-24.287c0-2.761 2.239-5 5-5h339.948c2.761 0 5 2.239 5 5z" fill="#6e61b6"/></g><g><path d="m202 262.516h-42.448c-2.761 0-5 2.239-5 5v24.287h42.448v-24.287c0-2.762 2.239-5 5-5z" fill="#6354b1"/></g><path d="m161.142 435.027c-1.898 3.925-4.108 7.67-6.591 11.21v17.763c0 2.761 2.239 5 5 5h339.949c2.761 0 5-2.239 5-5v-28.973z" fill="#6e61b6"/><path d="m197 464v-28.973h-35.858c-1.898 3.925-4.108 7.67-6.591 11.21v17.763c0 2.761 2.239 5 5 5h42.449c-2.761 0-5-2.239-5-5z" fill="#6354b1"/><g><g><path d="m117.388 316.838v-46.99c0-1.941-1.573-3.514-3.514-3.514h-51.083c-1.941 0-3.514 1.573-3.514 3.514v46.99c0 4.503-2.622 8.543-6.66 10.535-26.726 13.186-45.117 40.693-45.117 72.51 0 28.683 14.94 53.876 37.462 68.223.932.594 2.023.894 3.127.894h80.486c1.105 0 2.195-.3 3.127-.894 22.522-14.347 37.462-39.541 37.462-68.223 0-31.817-18.391-59.324-45.116-72.51-4.038-1.992-6.66-6.032-6.66-10.535z" fill="#dcfcee"/></g><g><path d="m33 399.883c0-31.817 18.391-59.324 45.116-72.51 4.038-1.992 6.66-6.032 6.66-10.535v-46.99c0-1.941 1.573-3.515 3.514-3.515h-25.5c-1.941 0-3.514 1.573-3.514 3.515v46.99c0 4.503-2.622 8.542-6.66 10.535-26.725 13.186-45.116 40.693-45.116 72.51 0 28.683 14.94 53.876 37.462 68.223.932.594 2.023.894 3.127.894h25.5c-1.105 0-2.195-.3-3.127-.894-22.522-14.347-37.462-39.54-37.462-68.223z" fill="#c2fae3"/></g><g><path d="m7.5 399.883c0 28.683 14.94 53.876 37.462 68.223.932.594 2.023.894 3.127.894h80.486c1.105 0 2.195-.3 3.127-.894 22.522-14.347 37.462-39.541 37.462-68.223 0-21.468-8.382-40.967-22.038-55.435h-117.588c-13.656 14.468-22.038 33.966-22.038 55.435z" fill="#1e9efd"/></g><g><path d="m33 399.883c0-21.469 8.381-40.967 22.038-55.435h-25.5c-13.656 14.468-22.038 33.966-22.038 55.435 0 28.683 14.94 53.876 37.462 68.223.932.594 2.023.894 3.127.894h25.5c-1.105 0-2.195-.3-3.127-.894-22.522-14.347-37.462-39.54-37.462-68.223z" fill="#0182fc"/></g><g><g><ellipse cx="115.762" cy="158.638" fill="#1ee6a6" rx="39.315" ry="15.877" transform="matrix(.707 -.707 .707 .707 -78.268 128.32)"/></g><g><ellipse cx="87.726" cy="86.097" fill="#1ee6a6" rx="17.341" ry="43.097"/></g><g><ellipse cx="59.69" cy="139.375" fill="#0ed290" rx="15.877" ry="39.315" transform="matrix(.707 -.707 .707 .707 -81.07 83.029)"/></g><g><ellipse cx="115.762" cy="226.583" fill="#0ed290" rx="39.315" ry="15.877" transform="matrix(.707 -.707 .707 .707 -126.313 148.221)"/></g><g><ellipse cx="59.69" cy="217.053" fill="#1ee6a6" rx="15.877" ry="39.315" transform="matrix(.707 -.707 .707 .707 -135.997 105.78)"/></g></g></g><path d="m499.5 255.016h-35.477v-23.586c0-4.142-3.358-7.5-7.5-7.5h-19.443v-13.704c1.023.087 2.046.133 3.065.133 9.472 0 18.688-3.715 25.642-10.668 9.759-9.76 13.139-23.977 8.821-37.102-.744-2.262-2.519-4.037-4.781-4.781-11.387-3.745-23.593-1.689-32.999 5.292-.842-3.221-3.763-5.601-7.248-5.601s-6.406 2.38-7.248 5.601c-9.407-6.981-21.61-9.038-32.999-5.292-2.263.744-4.037 2.519-4.781 4.781-4.318 13.125-.938 27.342 8.822 37.103 6.954 6.953 16.168 10.668 25.641 10.668 1.02 0 2.042-.046 3.065-.133v13.704h-19.444c-4.142 0-7.5 3.358-7.5 7.5v23.585h-31.166v-23.586c0-4.142-3.358-7.5-7.5-7.5h-19.444v-13.704c1.023.087 2.046.133 3.065.133 9.472 0 18.688-3.715 25.641-10.668 9.76-9.759 13.14-23.976 8.822-37.102-.744-2.262-2.519-4.037-4.781-4.781-11.389-3.745-23.593-1.689-32.999 5.292-.842-3.221-3.763-5.601-7.248-5.601s-6.406 2.38-7.248 5.601c-9.406-6.981-21.611-9.038-32.999-5.292-2.263.744-4.037 2.519-4.781 4.781-4.318 13.125-.938 27.342 8.822 37.103 6.954 6.953 16.168 10.668 25.641 10.668 1.02 0 2.042-.046 3.065-.133v13.704h-19.444c-4.142 0-7.5 3.358-7.5 7.5v23.585h-31.166v-23.586c0-4.142-3.358-7.5-7.5-7.5h-19.444v-13.704c1.023.087 2.046.133 3.065.133 9.472 0 18.688-3.715 25.641-10.668 9.759-9.759 13.14-23.976 8.822-37.102-.744-2.263-2.519-4.037-4.781-4.781-11.389-3.747-23.593-1.689-32.999 5.292-.842-3.221-3.763-5.601-7.248-5.601s-6.406 2.38-7.248 5.601c-9.406-6.981-21.611-9.038-32.999-5.292-2.263.744-4.037 2.519-4.781 4.781-4.318 13.125-.938 27.342 8.822 37.102 6.953 6.953 16.169 10.668 25.641 10.668 1.02 0 2.043-.046 3.066-.133v13.704h-19.444c-4.142 0-7.5 3.358-7.5 7.5v23.585h-35.476c-6.893 0-12.5 5.607-12.5 12.5v66.338c-5.843-5.166-12.432-9.627-19.686-13.206-1.529-.754-2.479-2.213-2.479-3.809v-2.838c0-4.142-3.358-7.5-7.5-7.5s-7.5 3.358-7.5 7.5v2.838c0 7.348 4.154 13.961 10.842 17.261 1.792.884 3.53 1.84 5.224 2.849h-30.728v-63.114h14.662v5.166c0 4.142 3.358 7.5 7.5 7.5s7.5-3.358 7.5-7.5v-9.151c0-6.074-4.941-11.015-11.014-11.015h-5.447c8.389-3.173 16.69-8.544 23.866-15.72 13.424-13.424 20.592-30.78 18.707-45.296-.438-3.376-3.096-6.033-6.472-6.472-14.517-1.886-31.872 5.283-45.296 18.707-1.411 1.411-2.736 2.874-4.006 4.364v-20.42c12.52-1.094 26.103-7.866 37.066-18.829 13.424-13.424 20.592-30.78 18.707-45.296-.438-3.376-3.096-6.033-6.472-6.472-14.517-1.888-31.872 5.283-45.296 18.707-1.411 1.411-2.736 2.874-4.006 4.364v-13.844c7.006-6.619 12.322-16.351 15.133-27.845.984-4.023-1.48-8.083-5.503-9.067-4.026-.986-8.083 1.48-9.067 5.503-1.68 6.87-4.514 12.933-8.071 17.439-6.098-7.697-9.833-19.728-9.833-32.56 0-12.828 3.732-24.856 9.827-32.553 3.361 4.271 6.092 9.957 7.792 16.376 1.061 4.004 5.167 6.39 9.17 5.33s6.39-5.167 5.33-9.17c-3.295-12.439-9.578-22.743-17.691-29.014-2.701-2.088-6.471-2.088-9.173 0-12.493 9.657-20.254 28.445-20.254 49.032 0 11.109 2.277 21.679 6.321 30.588-12.122-9.385-26.183-14.12-38.281-12.548-3.376.438-6.033 3.096-6.472 6.472-1.885 14.516 5.283 31.873 18.707 45.296 10.964 10.964 24.546 17.736 37.066 18.83v30.151c-1.27-1.49-2.595-2.953-4.006-4.364-13.424-13.424-30.78-20.594-45.296-18.707-3.376.438-6.033 3.096-6.472 6.472-1.885 14.516 5.283 31.872 18.707 45.296 10.964 10.964 24.546 17.735 37.066 18.829v6.422h-17.434c-6.073 0-11.014 4.941-11.014 11.015v46.99c0 1.595-.95 3.055-2.479 3.809-30.408 15.001-49.298 45.363-49.298 79.234 0 30.353 15.302 58.221 40.934 74.55 2.124 1.353 4.598 2.067 7.155 2.067h80.485c2.557 0 5.032-.715 7.157-2.068 4.091-2.606 7.915-5.509 11.46-8.666.863 6.057 6.069 10.734 12.36 10.734h339.949c6.893 0 12.5-5.607 12.5-12.5v-196.484c0-6.893-5.607-12.5-12.5-12.5zm-389.662-34.356c7.935-7.935 17.622-13.138 26.194-14.347-1.209 8.573-6.412 18.26-14.347 26.195-7.936 7.936-17.621 13.139-26.195 14.347 1.21-8.574 6.413-18.26 14.348-26.195zm0-67.946c7.935-7.935 17.622-13.138 26.194-14.347-1.209 8.573-6.412 18.26-14.347 26.195-7.936 7.936-17.621 13.139-26.195 14.347 1.21-8.574 6.413-18.26 14.348-26.195zm-56.072-7.415c-7.935-7.935-13.138-17.621-14.347-26.194 8.573 1.209 18.259 6.412 26.194 14.347s13.138 17.622 14.347 26.194c-8.572-1.209-18.259-6.412-26.194-14.347zm0 77.678c-7.935-7.935-13.138-17.622-14.347-26.195 8.573 1.209 18.259 6.412 26.194 14.347s13.138 17.622 14.347 26.194c-8.572-1.209-18.259-6.411-26.194-14.346zm395.257 15.953v16.085h-11.943v-16.085zm-5.691-61.693c4.781-4.78 11.385-6.954 17.921-6.074.881 6.537-1.293 13.141-6.074 17.922-4.781 4.78-11.384 6.957-17.922 6.074-.88-6.538 1.294-13.141 6.075-17.922zm-21.431 17.921c-6.54.879-13.141-1.293-17.922-6.074s-6.955-11.385-6.074-17.922c6.537-.882 13.141 1.293 17.921 6.074s6.956 11.385 6.075 17.922zm-11.765 43.772h11.944v16.085h-11.944zm-61.166 0v16.085h-11.944v-16.085zm-5.692-61.693c4.781-4.78 11.387-6.954 17.921-6.074.881 6.537-1.293 13.141-6.074 17.922-4.781 4.78-11.386 6.956-17.921 6.074-.881-6.538 1.294-13.141 6.074-17.922zm-21.43 17.921c-6.539.879-13.141-1.293-17.922-6.074s-6.955-11.385-6.074-17.922c6.536-.882 13.141 1.293 17.921 6.074s6.956 11.385 6.075 17.922zm-11.766 43.772h11.944v16.085h-11.944zm-61.166 0v16.085h-11.944v-16.085zm-5.692-61.693c4.781-4.78 11.386-6.954 17.922-6.074.881 6.537-1.293 13.141-6.074 17.922s-11.385 6.956-17.921 6.074c-.882-6.537 1.292-13.141 6.073-17.922zm-21.43 17.922c-6.539.876-13.141-1.294-17.922-6.074-4.781-4.781-6.955-11.385-6.074-17.922 6.536-.882 13.141 1.293 17.921 6.074s6.956 11.385 6.075 17.922zm-11.766 43.771h11.944v16.085h-11.944zm-47.976 60.373h32.976v58.176h-29.13c-1.194-2.187-2.47-4.327-3.846-6.403zm-106.117 34.796c6.688-3.299 10.842-9.913 10.842-17.261v-43.004h13.45v63.114h-29.516c1.693-1.009 3.432-1.965 5.224-2.849zm72.175 127.401h-79.556c-21.02-13.597-33.554-36.591-33.554-61.617 0-18.047 6.47-34.888 17.773-47.935h47.453v9.135l-39.264 47.116c-2.652 3.182-2.222 7.911.96 10.563 1.402 1.168 3.104 1.738 4.797 1.738 2.149 0 4.282-.919 5.766-2.699l27.74-33.288v47.487c0 4.142 3.358 7.5 7.5 7.5s7.5-3.358 7.5-7.5v-30.038l14.656 14.656c1.464 1.465 3.384 2.197 5.303 2.197s3.839-.732 5.303-2.197c2.929-2.929 2.929-7.678 0-10.606l-25.262-25.263v-16.908c0-.003 0-.005 0-.008v-11.886h48.665c11.304 13.047 17.773 29.888 17.773 47.935.001 25.028-12.532 48.022-33.553 61.618zm368.89-33.973h-51c-4.142 0-7.5 3.358-7.5 7.5s3.358 7.5 7.5 7.5h51v18.973h-334.948v-12.883c1.312-1.982 2.549-4.01 3.695-6.089h245.253c4.142 0 7.5-3.358 7.5-7.5s-3.358-7.5-7.5-7.5h-238.733c2.878-8.781 4.397-18.089 4.397-27.645 0-9.501-1.502-18.719-4.313-27.404h22.677v12.416c0 18.992 15.452 34.444 34.444 34.444s34.444-15.452 34.444-34.444v-12.416h31.166v12.416c0 18.992 15.452 34.444 34.444 34.444s34.444-15.452 34.444-34.444v-12.416h31.166v12.416c0 18.992 15.452 34.444 34.444 34.444s34.444-15.452 34.444-34.444v-12.416h32.976zm-248.084-98.393v28.345h-38.888v-28.345zm-38.888-15v-14.831h11.944v14.831zm26.944 0v-14.831h11.944v14.831zm11.944 58.345v12.416c0 10.721-8.723 19.444-19.444 19.444-10.722 0-19.444-8.723-19.444-19.444v-12.416zm15-15v-58.176h31.166v58.176zm85.054-28.345v28.345h-38.888v-28.345zm-38.888-15v-14.831h11.944v14.831zm26.944 0v-14.831h11.944v14.831zm11.944 58.345v12.416c0 10.721-8.723 19.444-19.444 19.444s-19.444-8.723-19.444-19.444v-12.416zm15-15v-58.176h31.166v58.176zm85.053-28.345v28.345h-38.888v-28.345zm-38.887-15v-14.831h11.944v14.831zm26.944 0v-14.831h11.944v14.831zm11.943 58.345v12.416c0 10.721-8.723 19.444-19.444 19.444s-19.444-8.723-19.444-19.444v-12.416zm47.977-15h-32.977v-58.176h32.977zm0-73.176h-334.948v-14.287h334.948z"/></g></svg>