<svg id="Capa_1" enable-background="new 0 0 512 512" height="512" viewBox="0 0 512 512" width="512" xmlns="http://www.w3.org/2000/svg"><g><g><g><path d="m279 490.6v-24.413c0-18.188 7.225-35.631 20.086-48.492l79.992-79.992c0 42.359-18.459 82.614-50.557 110.254z" fill="#1ee6a6"/></g><g><path d="m308.008 439.095 66.923-66.923c2.727-11.18 4.147-22.743 4.147-34.469l-79.992 79.992c-12.861 12.861-20.086 30.304-20.086 48.492v24.413l9.113-7.847c1.16-16.42 8.179-31.942 19.895-43.658z" fill="#0ed290"/></g><g><path d="m279 455.851v-24.413c0-18.188-7.225-35.631-20.086-48.492l-79.992-79.992c0 42.359 18.459 82.614 50.557 110.254z" fill="#1ee6a6"/></g><g><path d="m246.479 404.357c-24.725-21.291-41.346-50.071-47.682-81.529l-19.875-19.875c0 42.359 18.459 82.614 50.557 110.254l49.521 42.644v-23.49z" fill="#0ed290"/></g></g><g><g><g><g fill="#fe8a56"><path d="m169.406 114.386c-9.654 4.165-17.226 9.565-21.794 15.727 4.572 4.858 7.388 11.386 7.388 18.543 0 4.773-1.255 9.265-3.444 13.171 4.513 4.327 10.591 8.158 17.85 11.29 7.72-10.372 19.101-20.697 33.105-29.366-14.005-8.668-25.385-18.993-33.105-29.365z"/><path d="m279 67.262c8.669-14.004 18.994-25.385 29.366-33.105-7.03-16.292-17.574-26.657-29.366-26.657s-22.336 10.365-29.366 26.657c10.372 7.72 20.697 19.101 29.366 33.105z"/><path d="m388.594 114.386c-7.72 10.372-19.101 20.697-33.105 29.366 14.004 8.669 25.385 18.994 33.105 29.366 16.292-7.029 26.657-17.573 26.657-29.366s-10.365-22.337-26.657-29.366z"/><path d="m279 220.241c-8.669 14.004-18.994 25.385-29.366 33.105 7.03 16.292 17.573 26.657 29.366 26.657s22.336-10.365 29.366-26.657c-10.372-7.72-20.697-19.101-29.366-33.105z"/></g><path d="m221.454 143.751c0-3.509.333-6.94.938-10.278-5.317 2.234-10.688 4.883-16.019 7.961-35.639 20.576-55.951 52.114-45.369 70.443s48.051 16.507 83.69-4.07c5.329-3.076 10.306-6.402 14.897-9.888-22.209-7.981-38.137-29.247-38.137-54.168z" fill="#fead8a"/><path d="m396.997 75.626c-10.582-18.328-48.051-16.506-83.69 4.07-5.329 3.076-10.306 6.402-14.897 9.888 22.208 7.982 38.136 29.247 38.136 54.168 0 3.51-.333 6.941-.938 10.279 5.317-2.234 10.688-4.883 16.02-7.961 35.639-20.578 55.951-52.116 45.369-70.444z" fill="#fd9468"/><path d="m279 201.297c-24.921 0-46.187-15.928-54.169-38.135-3.486 4.591-6.811 9.568-9.887 14.897-20.576 35.639-22.398 73.108-4.07 83.69 18.329 10.582 49.867-9.731 70.443-45.369 3.078-5.331 5.727-10.703 7.961-16.02-3.337.604-6.768.937-10.278.937z" fill="#fead8a"/><path d="m237.629 183.69c-5.609-5.808-10.014-12.783-12.798-20.529-3.486 4.591-6.811 9.568-9.887 14.897-20.576 35.639-22.398 73.108-4.07 83.69 6.927 3.999 15.74 3.58 25.135-.405-16.701-10.492-15.78-44.205 1.62-77.653z" fill="#fd9468"/><path d="m347.126 25.754c-18.329-10.582-49.867 9.731-70.443 45.369-3.078 5.332-5.727 10.703-7.961 16.02 3.338-.605 6.769-.938 10.279-.938 24.921 0 46.187 15.927 54.169 38.135 3.486-4.591 6.811-9.568 9.887-14.897 20.575-35.638 22.397-73.107 4.069-83.689z" fill="#fead8a"/><path d="m347.126 25.754c-18.329-10.582-49.867 9.731-70.443 45.369-3.078 5.332-5.727 10.703-7.961 16.02 3.338-.605 6.769-.938 10.279-.938 4.726 0 9.316.585 13.714 1.664.069-.121.135-.242.205-.363 18.579-32.179 46.092-51.855 64.751-47.584-2.026-6.342-5.524-11.269-10.545-14.168z" fill="#fd9468"/><path d="m398.659 208.168c6.229-18.647-13.692-47.485-47.031-66.734-5.331-3.078-10.702-5.727-16.019-7.961.604 3.338.938 6.769.938 10.278 0 24.921-15.928 46.187-38.136 54.169 4.591 3.486 9.569 6.811 14.897 9.888 25.839 14.918 52.632 19.969 69.45 14.638 3.655-7.886 9.364-13.288 15.901-14.278z" fill="#fd9468"/><path d="m221.454 143.751c0-24.922 15.928-46.186 38.136-54.168-4.591-3.486-9.569-6.811-14.897-9.888-35.639-20.576-73.108-22.398-83.69-4.07s9.731 49.867 45.369 70.443c5.331 3.078 10.702 5.727 16.02 7.961-.605-3.337-.938-6.769-.938-10.278z" fill="#fead8a"/><path d="m343.056 178.058c-3.076-5.328-6.402-10.306-9.887-14.897-7.982 22.208-29.247 38.135-54.169 38.135-3.51 0-6.941-.333-10.278-.938 2.234 5.317 4.883 10.688 7.961 16.02 20.576 35.639 52.114 55.951 70.443 45.369 18.328-10.581 16.506-48.05-4.07-83.689z" fill="#fead8a"/><path d="m301.708 207.829c-1.795-3.109-3.439-6.232-4.948-9.349-5.597 1.821-11.563 2.818-17.76 2.818-3.51 0-6.941-.333-10.278-.938 2.234 5.317 4.883 10.688 7.961 16.02 20.576 35.639 52.114 55.951 70.443 45.369 2.79-1.611 5.106-3.851 6.967-6.606-17.142-3.999-37.595-21.697-52.385-47.314z" fill="#fd9468"/><path d="m279 86.206c3.51 0 6.941.333 10.279.938-2.234-5.317-4.883-10.689-7.961-16.02-20.576-35.639-52.115-55.951-70.443-45.369s-16.506 48.051 4.07 83.69c3.076 5.328 6.402 10.306 9.887 14.897 7.981-22.208 29.247-38.136 54.168-38.136z" fill="#fead8a"/><path d="m237.629 103.812c-17.401-33.447-18.322-67.161-1.62-77.653-9.395-3.985-18.209-4.404-25.135-.405-18.328 10.582-16.506 48.051 4.07 83.69 3.076 5.328 6.402 10.306 9.887 14.897 2.784-7.746 7.189-14.721 12.798-20.529z" fill="#fd9468"/></g><g><circle cx="279" cy="143.751" fill="#fe653b" r="58.545"/></g><g><path d="m254 143.751c0-26.503 17.615-48.881 41.773-56.094-5.315-1.587-10.942-2.451-16.773-2.451-32.334 0-58.545 26.212-58.545 58.545 0 32.334 26.212 58.545 58.545 58.545 5.831 0 11.458-.864 16.773-2.451-24.158-7.213-41.773-29.591-41.773-56.094z" fill="#ef4424"/></g></g></g><g><g><path d="m384.109 262.547h35.182c2.438-5.595 3.865-12.354 3.865-19.635 0-19.281-9.993-34.911-22.32-34.911s-22.32 15.63-22.32 34.911c0 7.308 1.438 14.088 3.892 19.695.562-.036 1.129-.06 1.701-.06z" fill="#eaf6ff"/><path d="m437.467 262.547c3.552 0 6.946.699 10.062 1.955 2.365-1.68 4.671-3.617 6.862-5.808 13.634-13.634 17.62-31.752 8.903-40.469s-26.835-4.731-40.469 8.903c-11.374 11.374-16.025 25.865-12.197 35.418h26.839z" fill="#eaf6ff"/><path d="m426.049 262.547c.367-8.551 5.08-18.633 13.472-27.026 8.226-8.226 18.082-12.932 26.523-13.463-.709-1.414-1.621-2.703-2.75-3.832-8.717-8.717-26.835-4.731-40.469 8.903-11.374 11.374-16.025 25.865-12.197 35.418z" fill="#d8ecfe"/></g><g><path d="m384.109 316.765h53.358c14.91 0 27.109-12.199 27.109-27.109 0-14.91-12.199-27.109-27.109-27.109h-53.358c-14.91 0-27.109 12.199-27.109 27.109 0 14.91 12.199 27.109 27.109 27.109z" fill="#fbd74c"/></g><g><path d="m382.424 289.656c0-14.91 12.199-27.109 27.109-27.109h-25.424c-14.91 0-27.109 12.199-27.109 27.109s12.199 27.109 27.109 27.109h25.424c-14.91 0-27.109-12.199-27.109-27.109z" fill="#fac600"/></g></g><g><g><path d="m101.372 121.547h26.519c.572 0 1.139.024 1.702.059 2.454-5.607 3.892-12.387 3.892-19.695 0-19.281-9.993-34.911-22.32-34.911-9.111 0-16.942 8.543-20.41 20.783 10.214 11.096 14.262 24.667 10.617 33.764z" fill="#d8ecfe"/><path d="m64.471 123.502c3.116-1.256 6.51-1.955 10.062-1.955h26.838c3.829-9.554-.823-24.044-12.197-35.418-13.634-13.634-31.752-17.62-40.469-8.903s-4.731 26.835 8.903 40.469c2.192 2.189 4.499 4.127 6.863 5.807z" fill="#eaf6ff"/><path d="m82.92 117.694c-13.634-13.634-17.62-31.752-8.903-40.469.388-.388.801-.742 1.225-1.08-10.282-4.897-20.593-4.863-26.536 1.08-8.717 8.717-4.731 26.835 8.903 40.469 2.19 2.19 4.497 4.128 6.862 5.808 3.116-1.256 6.51-1.955 10.062-1.955h12.688c-1.469-1.186-2.91-2.463-4.301-3.853z" fill="#d8ecfe"/></g><g><path d="m127.891 175.765h-53.358c-14.91 0-27.109-12.199-27.109-27.109 0-14.91 12.199-27.109 27.109-27.109h53.358c14.91 0 27.109 12.199 27.109 27.109 0 14.91-12.199 27.109-27.109 27.109z" fill="#fbd74c"/></g><g><path d="m73 148.656c0-14.91 12.199-27.109 27.109-27.109h-25.576c-14.91 0-27.109 12.199-27.109 27.109s12.199 27.109 27.109 27.109h25.576c-14.91 0-27.109-12.199-27.109-27.109z" fill="#fac600"/></g></g><g><circle cx="307.5" cy="154.229" r="7.5"/><circle cx="283.5" cy="140.229" r="7.5"/><circle cx="309.5" cy="126.229" r="7.5"/><circle cx="286.5" cy="172.229" r="7.5"/><path d="m486.091 281.08h-15.091c-1.769-6.914-5.631-12.994-10.861-17.54 7.352-7.503 12.465-16.467 14.41-25.312 2.218-10.082.049-19.306-5.951-25.306-10.337-10.336-28.787-8.647-44.501 3.18-4.15-7.326-10.008-12.566-16.79-14.627.14-7.838-2.479-16.505-7.789-25.485 14.438-8.219 23.234-19.548 23.234-32.239s-8.795-24.019-23.234-32.239c8.778-14.842 10.212-28.834 3.975-39.636-6.231-10.792-19.037-16.547-36.261-16.378.126-16.909-5.53-29.989-16.355-36.24-11.009-6.355-25.244-4.393-39.603 4.035-8.223-14.474-19.566-23.293-32.274-23.293-12.709 0-24.052 8.82-32.274 23.295-14.36-8.428-28.595-10.392-39.602-4.036-10.99 6.345-16.4 19.628-16.3 36.241-17.244-.184-30.08 5.574-36.316 16.377-6.237 10.802-4.803 24.794 3.975 39.636-4.384 2.496-8.24 5.28-11.491 8.302-2.361-1.569-4.926-2.853-7.645-3.81 1.058-4.392 1.637-9.127 1.637-14.093 0-23.782-13.099-42.411-29.819-42.411-9.509 0-17.84 6.031-23.261 15.602-15.714-11.828-34.163-13.519-44.5-3.181-6.001 6-8.17 15.224-5.952 25.306 1.946 8.845 7.058 17.809 14.41 25.312-5.23 4.546-9.092 10.627-10.861 17.54h-15.092c-4.143 0-7.5 3.357-7.5 7.5s3.357 7.5 7.5 7.5h14.622c3.021 16.023 17.114 28.185 34.002 28.185h53.357c9.859 0 18.761-4.15 25.071-10.787 1.737 1.223 3.568 2.401 5.522 3.513-8.778 14.843-10.212 28.834-3.975 39.637 6.289 10.892 19.383 16.313 35.787 16.313.173 0 .354-.013.528-.015-.117 16.649 5.293 29.963 16.301 36.318 4.403 2.542 9.319 3.754 14.557 3.753 7.856-.001 16.427-2.737 25.042-7.794 6.565 11.561 15.125 19.498 24.777 22.235v99.623c-2.203-2.952-4.631-5.767-7.283-8.419l-15.556-15.555c-2.928-2.928-7.677-2.929-10.606.001-2.929 2.929-2.929 7.678.001 10.606l15.555 15.555c11.536 11.535 17.89 26.874 17.89 43.188v8.058l-37.128-31.971c-25.497-21.957-41.897-52.229-46.572-85.087l25.506 25.508c2.929 2.927 7.677 2.929 10.607 0 2.929-2.93 2.929-7.678 0-10.606l-39.688-39.689c-2.146-2.145-5.372-2.787-8.174-1.625-2.803 1.16-4.63 3.896-4.63 6.929 0 44.586 19.377 86.844 53.163 115.938l46.915 40.398v45.21c0 4.143 3.357 7.5 7.5 7.5s7.5-3.357 7.5-7.5v-10.46l35.463-30.538c3.14-2.703 3.492-7.438.79-10.577-2.703-3.139-7.439-3.491-10.577-.79l-25.676 22.11v-8.058c0-16.315 6.354-31.653 17.89-43.188l65.809-65.81c-3.777 26.516-15.213 51.488-33.127 71.797-2.74 3.105-2.443 7.846.663 10.585 3.105 2.74 7.846 2.444 10.585-.663 24.672-27.968 38.259-63.91 38.259-101.205 0-3.033-1.827-5.769-4.63-6.929-2.803-1.163-6.028-.52-8.174 1.625l-79.991 79.992c-2.652 2.651-5.08 5.467-7.283 8.419v-134.373c9.651-2.736 18.209-10.672 24.774-22.23 8.616 5.055 17.188 7.789 25.045 7.789 5.235 0 10.155-1.212 14.557-3.753 11.007-6.355 16.418-19.67 16.301-36.318.174.001.355.015.528.015 1.469 0 2.9-.061 4.313-.15-.651 3.534-1.002 7.258-1.002 11.121 0 4.966.579 9.701 1.637 14.093-13.469 4.74-23.153 17.583-23.153 32.651 0 19.084 15.525 34.609 34.609 34.609h53.357c16.888 0 30.98-12.161 34.002-28.185h14.622c4.143 0 7.5-3.357 7.5-7.5s-3.358-7.499-7.5-7.499zm-78.34-137.329c0 7.017-6.196 14.285-17.01 20.028-6.021-7.105-13.418-13.897-21.834-20.039 8.395-6.13 15.799-12.895 21.812-19.983 10.781 5.759 17.032 13.06 17.032 19.994zm-64.375-111.502c9.207 5.315 11.483 23.041 5.664 44.107-1.103 3.993 1.24 8.123 5.232 9.227 3.991 1.103 8.122-1.239 9.227-5.232.925-3.349 1.668-6.622 2.247-9.813 12.237-.434 21.247 2.76 24.756 8.839 3.59 6.217 1.708 15.9-5.162 26.567-6.677 10.367-17.167 20.459-29.987 28.981-4.017-2.318-8.047-4.396-12.062-6.253-.32-1.362-.675-2.711-1.078-4.039 2.328-3.304 4.565-6.739 6.67-10.315 2.102-3.569.911-8.167-2.658-10.268-3.57-2.104-8.167-.912-10.268 2.658-.366.621-.751 1.217-1.125 1.83-9.125-14.417-23.668-25.066-40.752-29.074-1.858-4.016-3.936-8.048-6.255-12.067 19.256-28.969 43.889-41.878 55.551-35.148zm-13.33 111.502c0 28.146-22.899 51.046-51.046 51.046s-51.046-22.899-51.046-51.046 22.9-51.045 51.046-51.045 51.046 22.898 51.046 51.045zm-51.046-128.751c7.022 0 14.295 6.205 20.041 17.036-6.989 5.896-13.793 13.229-20.041 21.789-6.238-8.546-13.032-15.869-20.01-21.76 5.761-10.802 13.07-17.065 20.01-17.065zm-64.376 17.249c2.07-1.195 4.524-1.783 7.271-1.783 5.503 0 12.181 2.362 19.297 6.945 12.32 7.936 24.264 21.239 33.63 37.462.559.968 1.097 1.934 1.623 2.898-22.415.858-41.993 12.935-53.28 30.768-.578-.946-1.167-1.877-1.726-2.845-19.746-34.201-19.439-66.156-6.815-73.445zm-47.126 47.127c3.298-5.713 11.439-8.889 22.57-8.889.719 0 1.465.028 2.208.055 2.407 13.447 7.795 28.142 16.172 42.652 2.299 3.982 4.762 7.793 7.334 11.448-1.597 5.272-2.545 10.819-2.764 16.552-.968-.528-1.934-1.066-2.897-1.622-16.223-9.366-29.526-21.31-37.462-33.63-6.869-10.666-8.751-20.349-5.161-26.566zm-56.333-4.876c7.01 0 14.819 11.258 14.819 27.411 0 4.472-.615 8.55-1.63 12.136h-14.168c-.046-8.922-3.826-18.919-10.978-27.912 2.904-7.229 7.581-11.635 11.957-11.635zm-25.044 54.547h16.197v39.218h-16.197zm-23.209-16.656c-5.513-5.513-9.453-12.215-10.811-18.387-1.097-4.983-.401-9.166 1.908-11.475 4.956-4.957 18.438-2.521 29.861 8.902 7.684 7.683 11.285 16.289 11.322 22.615h-20.66c-2.978 0-5.869.378-8.628 1.089-1.007-.851-2.008-1.76-2.992-2.744zm-7.988 36.264c0-9.647 7.009-17.669 16.197-19.291v38.583c-9.189-1.622-16.197-9.645-16.197-19.292zm72.967 19.61h-10.572v-39.218h10.572c10.813 0 19.609 8.796 19.609 19.608s-8.797 19.61-19.609 19.61zm29.468-37.734c2.635-2.414 5.956-4.713 9.901-6.808 6.019 7.102 13.413 13.891 21.825 20.031-8.398 6.129-15.79 12.902-21.803 19.991-2.436-1.301-4.623-2.684-6.573-4.121 1.156-3.45 1.792-7.135 1.792-10.969-.001-6.641-1.885-12.849-5.142-18.124zm34.924 86.394c-12.235.411-21.314-2.787-24.785-8.798-3.59-6.217-1.708-15.9 5.162-26.567 6.677-10.368 17.167-20.46 29.987-28.982 3.979 2.297 8.014 4.383 12.066 6.26.317 1.351.689 2.68 1.088 3.998-2.578 3.662-5.048 7.482-7.352 11.473-8.37 14.497-13.755 29.178-16.166 42.616zm22.341 38.328c-6.217-3.59-9.429-12.916-8.813-25.589.712-14.638 6.262-31.633 15.628-47.855.559-.969 1.149-1.901 1.727-2.847 9.124 14.426 23.673 25.09 40.761 29.098 1.856 4.01 3.931 8.034 6.246 12.046-19.254 28.968-43.886 41.877-55.549 35.147zm64.376 17.25c-7.022 0-14.296-6.206-20.041-17.037 6.988-5.896 13.787-13.238 20.034-21.796 6.241 8.551 13.035 15.878 20.016 21.771-5.761 10.8-13.069 17.062-20.009 17.062zm64.376-17.25c-6.217 3.589-15.9 1.709-26.568-5.162-12.32-7.936-24.264-21.239-33.63-37.462-.559-.968-1.097-1.933-1.623-2.897 22.415-.858 41.992-12.935 53.28-30.769.577.946 1.167 1.877 1.726 2.845 19.746 34.201 19.439 66.156 6.815 73.445zm22.348-38.288c-2.407-13.449-7.795-28.145-16.173-42.656-2.299-3.982-4.762-7.793-7.334-11.448 1.597-5.272 2.545-10.82 2.764-16.553.968.528 1.934 1.066 2.897 1.621 16.223 9.366 29.526 21.31 37.462 33.631 4.976 7.727 7.32 14.929 6.878 20.68-5.859 2.43-10.916 7.293-14.621 13.81-3.47.752-7.458 1.073-11.873.915zm28.958 92.3h-10.572c-10.813 0-19.609-8.797-19.609-19.609s8.797-19.608 19.609-19.608h10.572zm-7.037-54.218c-1.015-3.586-1.629-7.663-1.629-12.136 0-16.153 7.81-27.411 14.819-27.411 4.375 0 9.051 4.404 11.955 11.63-7.157 8.998-10.912 18.996-10.95 27.917zm38.234 54.218h-16.197v-39.218h16.197zm15-.318v-38.583c9.189 1.622 16.197 9.644 16.197 19.291s-7.008 17.67-16.197 19.292zm8.209-55.556c-.984.984-1.985 1.893-2.993 2.745-2.759-.711-5.65-1.089-8.628-1.089h-20.66c.036-6.326 3.637-14.932 11.321-22.615 7.724-7.723 16.388-11.338 22.723-11.338 3.034 0 5.535.83 7.141 2.436 2.309 2.309 3.004 6.491 1.907 11.475-1.358 6.171-5.298 12.873-10.811 18.386z"/><circle cx="383.5" cy="284.5" r="7.5"/><circle cx="131.5" cy="143.5" r="7.5"/></g></g></svg>