<svg id="Capa_1" enable-background="new 0 0 512 512" height="512" viewBox="0 0 512 512" width="512" xmlns="http://www.w3.org/2000/svg"><g><g><g><path d="m226.252 152.748v-108.748c0-2.761-2.239-5-5-5h-208.752c-2.761 0-5 2.239-5 5v135c0 2.761 2.239 5 5 5h156.351c15.863-14.997 35.559-25.965 57.401-31.252z" fill="#1ee6a6"/><g><path d="m41.248 179v-135c0-2.761 2.239-5 5-5h-33.748c-2.761 0-5 2.239-5 5v135c0 2.761 2.239 5 5 5h33.748c-2.762 0-5-2.239-5-5z" fill="#0ed290"/></g><g><g><path d="m190.445 111.5c3.561-3.136 5.82-7.717 5.82-12.835 0-9.452-7.662-17.114-17.114-17.114-8.97 0-16.315 6.905-17.042 15.688h-90.466c-.727-8.783-8.072-15.688-17.042-15.688-9.452 0-17.114 7.662-17.114 17.114 0 5.118 2.259 9.699 5.82 12.835-3.561 3.136-5.82 7.717-5.82 12.835 0 9.452 7.662 17.114 17.114 17.114 8.97 0 16.315-6.905 17.042-15.688h90.467c.727 8.783 8.072 15.688 17.042 15.688 9.452 0 17.114-7.662 17.114-17.114-.001-5.118-2.26-9.699-5.821-12.835z" fill="#fff"/></g><g><g><path d="m58.568 124.335c0-5.118 2.259-9.699 5.82-12.835-3.561-3.136-5.82-7.717-5.82-12.835 0-5.473 2.579-10.334 6.577-13.467-2.905-2.282-6.562-3.647-10.544-3.647-9.452 0-17.114 7.662-17.114 17.114 0 5.118 2.259 9.699 5.82 12.835-3.561 3.136-5.82 7.717-5.82 12.835 0 9.452 7.662 17.114 17.114 17.114 3.982 0 7.64-1.366 10.544-3.647-3.998-3.133-6.577-7.994-6.577-13.467z" fill="#fff3de"/></g></g></g></g><g><path d="m499.5 294.372h-117.792c-1.682 11.738-4.967 22.958-9.629 33.43v37.782c0 22.456-16.741 40.99-38.421 43.834v4.543c0 9.099-2.062 17.714-5.738 25.411h171.58c2.761 0 5-2.239 5-5v-135c0-2.761-2.239-5-5-5z" fill="#b3dafe"/><g><circle cx="438" cy="366.872" fill="#d8ecfe" r="37"/></g></g><g><g fill="#fed2a4"><path d="m178.342 376.689c-16.538-12.799-29.819-29.593-38.421-48.93v37.826c0 22.456 16.741 40.99 38.421 43.834z"/><path d="m333.658 376.68v32.739c21.68-2.844 38.421-21.378 38.421-43.834v-37.782c-8.602 19.32-21.895 36.086-38.421 48.877z"/></g><path d="m314.727 388.835c-7.822 4.086-12.658 12.25-12.658 21.075v13.438c0 6.067-4.918 10.985-10.985 10.985h-70.168c-6.067 0-10.985-4.918-10.985-10.985v-13.439c0-8.937-5.024-17.061-12.935-21.219-6.581-3.459-12.818-7.484-18.654-12.001v37.272c0 32.606 26.433 59.039 59.039 59.039h37.237c32.606 0 59.039-26.433 59.039-59.039v-37.281c-5.919 4.581-12.245 8.662-18.93 12.155z" fill="#fed2a4"/><path d="m198.545 413.961v-24.38c-.504-.313-1.019-.613-1.549-.891-6.581-3.459-12.818-7.484-18.654-12.001v37.272c0 32.606 26.433 59.039 59.039 59.039h20.203c-32.606 0-59.039-26.433-59.039-59.039z" fill="#ffbd86"/><g><path d="m383 276.205c0-70.473-57.401-127.54-128-126.996-68.334.526-124.411 55.717-125.966 124.035-1.14 50.083 26.723 93.77 67.963 115.446 7.911 4.158 12.935 12.282 12.935 21.219v13.44c0 6.067 4.918 10.985 10.985 10.985h70.168c6.067 0 10.985-4.918 10.985-10.985v-13.439c0-8.825 4.836-16.989 12.658-21.075 40.575-21.2 68.272-63.678 68.272-112.63z" fill="#fff3de"/></g><g><g><path d="m242.836 412.654c-6.067 0-10.985-4.918-10.985-10.985v-13.439c0-8.937-5.024-17.061-12.935-21.219-41.24-21.676-69.103-65.362-67.963-115.446.65-28.554 10.83-54.811 27.443-75.746-29.269 22.691-48.462 57.855-49.362 97.425-1.14 50.083 26.722 93.77 67.963 115.446 7.911 4.158 12.935 12.282 12.935 21.219v13.439c0 6.067 4.918 10.985 10.985 10.985h70.168c6.067 0 10.985-4.918 10.985-10.985v-10.694z" fill="#ffe5c2"/></g></g><g><path d="m259.933 342.294c1.887 3.268 5.373 5.281 9.147 5.281 8.13 0 13.212-8.801 9.147-15.842l-13.345-23.115c-3.947-6.836-13.815-6.836-17.762 0l-13.345 23.115c-4.065 7.041 1.016 15.842 9.147 15.842 3.773 0 7.26-2.013 9.147-5.281 1.746-3.027 6.116-3.027 7.864 0z" fill="#ffbd86"/></g><g><g><path d="m255.613 331.733 11.307-19.584-2.038-3.531c-3.947-6.837-13.815-6.837-17.762 0l-13.345 23.115c-4.065 7.041 1.016 15.842 9.147 15.842 3.773 0 7.26-2.013 9.147-5.281.622-1.078 1.579-1.764 2.629-2.075-.864-2.672-.686-5.715.915-8.486z" fill="#f6a96c"/></g></g><g><g><circle cx="194.368" cy="271.847" fill="#ffbd86" r="31.75"/></g><g><path d="m184.618 271.847c0-13.668 8.637-25.316 20.75-29.791-3.428-1.266-7.133-1.959-11-1.959-17.535 0-31.75 14.215-31.75 31.75s14.215 31.75 31.75 31.75c3.867 0 7.572-.693 11-1.959-12.113-4.474-20.75-16.123-20.75-29.791z" fill="#f6a96c"/></g><g><circle cx="317.632" cy="271.847" fill="#ffbd86" r="31.75"/></g><g><path d="m307.634 271.847c0-13.715 8.696-25.397 20.874-29.837-3.393-1.237-7.055-1.913-10.876-1.913-17.535 0-31.75 14.215-31.75 31.75s14.215 31.75 31.75 31.75c3.821 0 7.483-.676 10.876-1.913-12.179-4.439-20.874-16.122-20.874-29.837z" fill="#f6a96c"/></g></g></g></g><g><path d="m179.151 74.051c-10.282 0-19.298 6.498-22.915 15.688h-78.72c-3.617-9.189-12.633-15.688-22.915-15.688-13.572 0-24.613 11.042-24.613 24.614 0 4.571 1.28 9.006 3.628 12.835-2.348 3.83-3.628 8.265-3.628 12.835 0 13.572 11.041 24.614 24.613 24.614 10.282 0 19.298-6.498 22.915-15.688h78.721c3.617 9.189 12.633 15.688 22.915 15.688 13.572 0 24.613-11.042 24.613-24.614 0-4.571-1.28-9.006-3.628-12.835 2.348-3.83 3.628-8.265 3.628-12.835 0-13.573-11.041-24.614-24.614-24.614zm6.337 43.077c2.082 1.834 3.276 4.461 3.276 7.208 0 5.301-4.313 9.614-9.613 9.614-4.956 0-9.159-3.868-9.567-8.806-.322-3.889-3.572-6.882-7.475-6.882h-90.466c-3.902 0-7.152 2.993-7.475 6.882-.408 4.938-4.611 8.806-9.567 8.806-5.301 0-9.613-4.313-9.613-9.614 0-2.746 1.194-5.373 3.277-7.207 1.616-1.424 2.543-3.475 2.543-5.629s-.927-4.205-2.543-5.629c-2.083-1.833-3.277-4.46-3.277-7.207 0-5.301 4.313-9.614 9.613-9.614 4.956 0 9.159 3.868 9.567 8.806.322 3.889 3.572 6.882 7.475 6.882h90.467c3.902 0 7.152-2.993 7.475-6.882.408-4.938 4.611-8.806 9.567-8.806 5.301 0 9.613 4.313 9.613 9.614 0 2.746-1.194 5.373-3.276 7.208-1.617 1.424-2.543 3.474-2.543 5.628s.925 4.204 2.542 5.628z"/><path d="m499.5 286.872h-109.434c.278-3.529.434-7.085.434-10.667 0-21.373-5.141-42.648-14.867-61.525-1.897-3.683-6.42-5.13-10.103-3.232-3.682 1.897-5.129 6.42-3.231 10.102 8.76 17.001 13.201 35.39 13.201 54.655 0 44.668-24.618 85.278-64.246 105.982-10.292 5.377-16.686 16-16.686 27.723v13.438c0 1.921-1.563 3.485-3.484 3.485h-7.396v-8.526c0-4.142-3.357-7.5-7.5-7.5s-7.5 3.358-7.5 7.5v8.526h-5.188v-8.526c0-4.142-3.357-7.5-7.5-7.5s-7.5 3.358-7.5 7.5v8.526h-5.188v-8.526c0-4.142-3.357-7.5-7.5-7.5s-7.5 3.358-7.5 7.5v8.526h-7.396c-1.921 0-3.484-1.563-3.484-3.485v-13.439c0-11.689-6.493-22.364-16.946-27.857-40.489-21.282-64.994-62.909-63.954-108.636.708-31.078 13.388-60.294 35.705-82.266 22.315-21.97 51.729-34.201 82.821-34.44.306-.002.607-.004.912-.004 32.997 0 64.789 13.792 87.346 37.927 2.829 3.026 7.573 3.188 10.601.358 3.026-2.829 3.187-7.575.358-10.601-25.622-27.413-61.85-42.944-99.332-42.681-7.161.055-14.24.684-21.19 1.847v-99.556c0-6.893-5.607-12.5-12.5-12.5h-120.253c-4.143 0-7.5 3.358-7.5 7.5s3.357 7.5 7.5 7.5h117.752v100.463c-19.452 5.618-37.482 15.637-52.835 29.537h-150.917v-130h51c4.143 0 7.5-3.358 7.5-7.5s-3.357-7.5-7.5-7.5h-53.5c-6.893 0-12.5 5.607-12.5 12.5v135c0 6.893 5.607 12.5 12.5 12.5h139.166c-18.845 23.094-29.447 51.555-30.13 81.574-.443 19.47 3.298 38.618 10.886 56.26v36.25c0 23.937 16.348 44.112 38.463 49.984.859 35.948 30.347 64.932 66.497 64.932h37.238c24.722 0 46.322-13.563 57.793-33.628h88.587c4.143 0 7.5-3.358 7.5-7.5s-3.357-7.5-7.5-7.5h-82.312c1.458-5.208 2.293-10.669 2.428-16.304 22.114-5.871 38.463-26.047 38.463-49.984v-36.164c3.778-8.79 6.616-18.02 8.455-27.548h108.966v130h-41c-4.143 0-7.5 3.358-7.5 7.5s3.357 7.5 7.5 7.5h43.5c6.893 0 12.5-5.607 12.5-12.5v-135c0-6.893-5.607-12.5-12.5-12.5zm-328.657 112.933c-13.692-5.34-23.422-18.661-23.422-34.22v-10.018c6.748 9.222 14.615 17.538 23.422 24.747zm155.314 14.156c0 28.419-23.12 51.539-51.538 51.539h-37.238c-28.418 0-51.538-23.12-51.538-51.539v-22.993c2.503 1.532 5.056 2.991 7.664 4.361 5.505 2.893 8.925 8.479 8.925 14.58v13.439c0 10.192 8.292 18.485 18.484 18.485h7.396v2.148c0 4.142 3.357 7.5 7.5 7.5s7.5-3.358 7.5-7.5v-2.148h5.188v2.148c0 4.142 3.357 7.5 7.5 7.5s7.5-3.358 7.5-7.5v-2.148h5.188v2.148c0 4.142 3.357 7.5 7.5 7.5s7.5-3.358 7.5-7.5v-2.148h7.396c10.192 0 18.484-8.292 18.484-18.485v-13.438c0-6.118 3.308-11.646 8.631-14.428 2.717-1.419 5.369-2.925 7.958-4.507zm38.422-48.377c0 15.559-9.73 28.88-23.422 34.22v-19.456c8.894-7.257 16.74-15.569 23.422-24.693z"/><path d="m482.5 366.872c0-24.538-19.963-44.5-44.5-44.5s-44.5 19.962-44.5 44.5 19.963 44.5 44.5 44.5 44.5-19.962 44.5-44.5zm-26.758 23.551c.163-.615.258-1.257.258-1.923 0-4.142-3.358-7.5-7.5-7.5s-7.5 3.358-7.5 7.5c0 3.091 1.871 5.743 4.541 6.891-2.408.637-4.935.981-7.541.981-16.267 0-29.5-13.233-29.5-29.5s13.233-29.5 29.5-29.5c.229 0 .454.012.682.017-.434.949-.682 2-.682 3.111 0 4.142 3.358 7.5 7.5 7.5 3.821 0 6.968-2.859 7.434-6.553 8.708 5.134 14.566 14.606 14.566 25.426 0 9.611-4.622 18.161-11.758 23.55z"/><circle cx="453.5" cy="364.5" r="7.5"/><circle cx="428.5" cy="375.5" r="7.5"/><circle cx="427.5" cy="354.5" r="7.5"/><path d="m242.921 355.075c4.986 0 9.709-2.08 13.079-5.61 3.369 3.53 8.093 5.61 13.079 5.61 6.529 0 12.377-3.376 15.642-9.03 3.266-5.655 3.266-12.407.001-18.063l-13.346-23.114c-3.209-5.559-8.957-8.878-15.376-8.878s-12.167 3.319-15.376 8.878l-13.346 23.115c-3.265 5.655-3.265 12.407.001 18.062 3.265 5.654 9.113 9.03 15.642 9.03zm-2.652-19.593 13.346-23.114c.692-1.199 1.792-1.378 2.386-1.378s1.693.179 2.386 1.378l13.346 23.114c.769 1.332.329 2.491-.001 3.063s-1.113 1.531-2.651 1.531c-1.09 0-2.105-.586-2.651-1.531-2.144-3.714-6.14-6.021-10.428-6.021s-8.284 2.307-10.428 6.021c-.545.945-1.562 1.531-2.651 1.531-1.538 0-2.321-.959-2.651-1.531s-.772-1.731-.003-3.063z"/><path d="m233.617 271.848c0-21.643-17.607-39.25-39.25-39.25s-39.25 17.607-39.25 39.25 17.607 39.25 39.25 39.25 39.25-17.608 39.25-39.25zm-39.25 24.25c-13.371 0-24.25-10.878-24.25-24.25s10.879-24.25 24.25-24.25 24.25 10.878 24.25 24.25-10.879 24.25-24.25 24.25z"/><path d="m356.883 271.848c0-21.643-17.607-39.25-39.25-39.25s-39.25 17.607-39.25 39.25 17.607 39.25 39.25 39.25 39.25-17.608 39.25-39.25zm-39.25 24.25c-13.371 0-24.25-10.878-24.25-24.25s10.879-24.25 24.25-24.25 24.25 10.878 24.25 24.25-10.879 24.25-24.25 24.25z"/><path d="m244.375 245.816c3.423 2.627 7.524 3.941 11.625 3.941 4.102 0 8.203-1.314 11.625-3.941l18.242-14.007c3.285-2.523 3.904-7.231 1.381-10.517-2.521-3.284-7.229-3.903-10.516-1.381l-18.242 14.007c-1.467 1.125-3.514 1.126-4.98 0l-18.241-14.007c-3.284-2.523-7.994-1.904-10.516 1.381-2.523 3.285-1.905 7.994 1.381 10.517z"/><path d="m203.237 359.803c4.143 0 7.5-3.358 7.5-7.5v-12.158c0-10.587-8.613-19.201-19.201-19.201h-13.075c-4.143 0-7.5 3.358-7.5 7.5s3.357 7.5 7.5 7.5h13.075c2.316 0 4.201 1.884 4.201 4.201v12.158c0 4.142 3.358 7.5 7.5 7.5z"/><path d="m320.464 320.944c-10.588 0-19.201 8.613-19.201 19.201v12.158c0 4.142 3.357 7.5 7.5 7.5s7.5-3.358 7.5-7.5v-12.158c0-2.316 1.885-4.201 4.201-4.201h13.075c4.143 0 7.5-3.358 7.5-7.5s-3.357-7.5-7.5-7.5z"/><path d="m95 215.5h-68c-4.143 0-7.5 3.358-7.5 7.5s3.357 7.5 7.5 7.5h68c4.143 0 7.5-3.358 7.5-7.5s-3.357-7.5-7.5-7.5z"/><path d="m95 243.5h-68c-4.143 0-7.5 3.358-7.5 7.5s3.357 7.5 7.5 7.5h68c4.143 0 7.5-3.358 7.5-7.5s-3.357-7.5-7.5-7.5z"/><path d="m95 271.5h-68c-4.143 0-7.5 3.358-7.5 7.5s3.357 7.5 7.5 7.5h68c4.143 0 7.5-3.358 7.5-7.5s-3.357-7.5-7.5-7.5z"/><path d="m67 299.5h-40c-4.143 0-7.5 3.358-7.5 7.5s3.357 7.5 7.5 7.5h40c4.143 0 7.5-3.358 7.5-7.5s-3.357-7.5-7.5-7.5z"/><path d="m415 182.5h68c4.143 0 7.5-3.358 7.5-7.5s-3.357-7.5-7.5-7.5h-68c-4.143 0-7.5 3.358-7.5 7.5s3.357 7.5 7.5 7.5z"/><path d="m415 210.5h68c4.143 0 7.5-3.358 7.5-7.5s-3.357-7.5-7.5-7.5h-68c-4.143 0-7.5 3.358-7.5 7.5s3.357 7.5 7.5 7.5z"/><path d="m415 238.5h68c4.143 0 7.5-3.358 7.5-7.5s-3.357-7.5-7.5-7.5h-68c-4.143 0-7.5 3.358-7.5 7.5s3.357 7.5 7.5 7.5z"/><path d="m483 251.5h-40c-4.143 0-7.5 3.358-7.5 7.5s3.357 7.5 7.5 7.5h40c4.143 0 7.5-3.358 7.5-7.5s-3.357-7.5-7.5-7.5z"/></g></g></svg>