<svg id="Capa_1" enable-background="new 0 0 512 512" height="512" viewBox="0 0 512 512" width="512" xmlns="http://www.w3.org/2000/svg"><g><g><path d="m147.571 95.179c-4.391-20.164-14.416-39.346-30.094-55.024-26.53-26.53-63.086-36.882-97.468-31.121-5.761 34.382 4.591 70.938 31.12 97.467 26.266 26.266 62.359 36.664 96.441 31.277v-42.599z" fill="#0ed290"/><path d="m147.571 95.179c-4.391-20.164-14.416-39.346-30.094-55.024-26.53-26.53-63.086-36.882-97.468-31.121l127.561 127.561v-41.416z" fill="#1ee6a6"/></g><g><g><g><path d="m229.834 182.717c-2.175-15.432 12.227-27.992 27.229-23.772 5.254 1.478 10.48 3.299 15.609 5.43 3.53-2.765 6.935-5.768 10.186-9.019 26.529-26.529 36.881-63.085 31.12-97.467-34.382-5.761-70.938 4.591-97.467 31.12-11.599 11.599-20.105 25.114-25.524 39.526v58.724c13.056 1.517 26.326.731 39.156-2.348z" fill="#1ee6a6"/><path d="m190.987 180.879 122.991-122.991c-34.382-5.761-70.938 4.591-97.467 31.12-11.599 11.599-20.105 25.114-25.524 39.527z" fill="#0ed290"/></g><g><g><g><path d="m43.443 145.707-8.572 44.103c-3.196 16.446.271 33.488 9.64 47.377l73.537 109.02 23.279-48.733c9.649-20.199 7.887-43.995-4.63-62.553l-30.27-44.876z" fill="#8379c1"/></g><g><path d="m43.443 145.707-8.572 44.103c-3.196 16.446.271 33.488 9.64 47.377l73.537 109.02 23.279-48.733c9.649-20.199 7.887-43.995-4.63-62.553l-30.27-44.876z" fill="#8379c1"/></g><g><path d="m74.819 244.995-17.328 11.437 60.556 89.776 10.383-21.735z" fill="#6e61b6"/></g><g><path d="m57.491 256.432 64.845-42.799-15.909-23.586-62.984-44.339-8.572 44.103c-3.196 16.446.271 33.488 9.64 47.377z" fill="#54469c"/></g><g><path d="m69.714 237.188c-9.369-13.889-12.836-30.931-9.64-47.377l5.539-28.496-22.171-15.608-8.572 44.103c-3.196 16.446.271 33.488 9.64 47.377l12.981 19.244 17.44-11.511z" fill="#463b84"/></g></g></g><g><path d="m241.143 318.65-22.621-22.621c-2.231-2.231-5.848-2.231-8.079 0l-19.457 19.457v-286.213c0-2.701-1.892-5.034-4.536-5.59l-31.991-6.735c-3.551-.748-6.89 1.962-6.89 5.59v481.962h43.416v-127.615l50.156-50.156c2.233-2.231 2.233-5.848.002-8.079z" fill="#bb5d4c"/></g><g><g><path d="m169.808 20.179-15.347-3.231c-3.551-.747-6.889 1.962-6.889 5.59v481.962h21.723v-481.962c-.001-.848.187-1.643.513-2.359z" fill="#a44f3e"/></g></g></g><g><g><g><path d="m342.427 246.843c-1.635-41.194-42.565-75.858-85.365-87.898-15.002-4.22-29.404 8.34-27.229 23.772l6.782 48.118c1.5 10.643 10.608 18.557 21.356 18.557h39.108c4.089 0 5.336 5.575 1.621 7.283-1.497.689-2.979 1.41-4.443 2.165-40.823 21.027-25.255 82.989 20.665 82.989 15.23 0 27.573-12.353 27.56-27.583z" fill="#fbd74c"/></g><g><g><path d="m262.465 230.835-6.782-48.118c-1.253-8.887 2.998-16.814 9.69-21.14-2.756-.969-5.529-1.849-8.31-2.632-15.002-4.22-29.404 8.341-27.229 23.772l6.782 48.118c1.5 10.643 10.608 18.557 21.356 18.557h25.849c-10.748 0-19.856-7.914-21.356-18.557z" fill="#fac600"/></g><g><path d="m320.107 258.84c1.464-.754 2.946-1.476 4.443-2.165 3.715-1.708 2.468-7.283-1.621-7.283h-25.849c4.089 0 5.336 5.575 1.621 7.283-1.497.689-2.979 1.41-4.443 2.165-40.823 21.027-25.255 82.989 20.665 82.989 3.965 0 7.731-.844 11.137-2.351-34.055-11.486-42.039-62.051-5.953-80.638z" fill="#fac600"/></g></g><g><path d="m380.727 246.843c1.635-41.194 42.565-75.858 85.365-87.898 15.002-4.22 29.404 8.34 27.229 23.772l-6.782 48.118c-1.5 10.643-10.608 18.557-21.356 18.557h-39.108c-4.089 0-5.336 5.575-1.621 7.283 1.166.536 2.322 1.093 3.469 1.669 41.55 20.886 26.814 83.485-19.69 83.485-15.23 0-27.573-12.353-27.56-27.583z" fill="#fbd74c"/></g><g><path d="m406.465 314.246.055-67.403c1.53-38.528 37.433-71.343 77.09-85.279-4.925-3.176-11.165-4.406-17.519-2.619-42.8 12.041-83.729 46.705-85.365 87.898l-.055 67.403c-.013 15.23 12.33 27.583 27.56 27.583 5.337 0 10.251-.833 14.714-2.324-9.709-4.269-16.49-13.971-16.48-25.259z" fill="#fac600"/></g></g><g><path d="m361.577 323.529c-10.562 0-19.125-8.563-19.125-19.125v-87.871c0-10.562 8.563-19.125 19.125-19.125 10.562 0 19.125 8.563 19.125 19.125v87.871c0 10.563-8.562 19.125-19.125 19.125z" fill="#8379c1"/></g><g><path d="m359.215 304.404v-87.871c0-7.552 4.388-14.062 10.744-17.171-2.534-1.239-5.371-1.954-8.381-1.954-10.562 0-19.125 8.563-19.125 19.125v87.871c0 10.562 8.563 19.125 19.125 19.125 3.011 0 5.848-.715 8.381-1.954-6.356-3.109-10.744-9.619-10.744-17.171z" fill="#6e61b6"/></g></g><g><path d="m491.095 157.825c-7.429-6.491-17.535-8.772-27.035-6.1-30.087 8.464-60.862 28.385-77.757 54.953-1.064-2.66-2.542-5.11-4.359-7.268v-36.999c0-8.204 6.674-14.878 14.877-14.878 4.142 0 7.5-3.357 7.5-7.5s-3.358-7.5-7.5-7.5c-16.475 0-29.877 13.403-29.877 29.878v28.041c-1.734-.356-3.529-.544-5.367-.544s-3.633.187-5.367.544v-28.041c0-16.475-13.403-29.878-29.877-29.878-4.142 0-7.5 3.357-7.5 7.5s3.358 7.5 7.5 7.5c8.204 0 14.877 6.674 14.877 14.878v36.999c-1.817 2.158-3.295 4.608-4.359 7.268-11.768-18.506-30.268-33.782-50.586-44.211.632-.603 1.277-1.19 1.896-1.81 27.159-27.159 39.575-66.041 33.214-104.01-.529-3.156-3.001-5.629-6.158-6.157-37.968-6.364-76.851 6.055-104.01 33.213-4.695 4.695-8.931 9.752-12.721 15.084v-69.514c0-6.212-4.412-11.65-10.491-12.93l-31.99-6.734c-3.912-.825-7.94.147-11.047 2.668s-4.889 6.261-4.889 10.261v34.292c-4.832-7.91-10.612-15.301-17.291-21.979-27.158-27.158-66.039-39.577-104.008-33.214-3.156.528-5.629 3.001-6.158 6.157-6.361 37.969 6.055 76.852 33.214 104.011 22.474 22.473 52.968 34.852 84.334 34.85 3.296 0 6.602-.161 9.91-.445v22.885h-50.377l-41.933-29.521c-2.079-1.464-4.759-1.774-7.118-.824-2.359.949-4.076 3.029-4.562 5.526l-8.572 44.104c-3.601 18.53.229 37.354 10.784 53.002l73.537 109.021c1.4 2.076 3.736 3.306 6.216 3.306.185 0 .37-.007.555-.021 2.683-.198 5.054-1.819 6.214-4.247l15.256-31.936v179.495h-121.605c-4.142 0-7.5 3.357-7.5 7.5s3.358 7.5 7.5 7.5h445.793c4.142 0 7.5-3.357 7.5-7.5s-3.358-7.5-7.5-7.5h-265.771v-50c0-4.143-3.358-7.5-7.5-7.5s-7.5 3.357-7.5 7.5v50h-28.417v-472.259l28.417 5.981v284.763c0 3.033 1.827 5.769 4.63 6.929 2.802 1.163 6.029.521 8.173-1.625l18.192-18.192 20.093 20.093-48.892 48.893c-1.407 1.407-2.197 3.314-2.197 5.304v35.113c0 4.143 3.358 7.5 7.5 7.5s7.5-3.357 7.5-7.5v-32.008l47.959-47.96c2.496-2.495 3.871-5.813 3.871-9.343s-1.375-6.848-3.87-9.343l-22.621-22.62c-2.496-2.496-5.813-3.871-9.343-3.871-3.529 0-6.847 1.375-9.342 3.87l-6.653 6.653v-102.008c1.782.085 3.563.139 5.342.139 6.729 0 13.416-.582 19.994-1.701l5.366 38.074c2.01 14.258 14.384 25.01 28.783 25.01h25.25c-7.321 5.43-12.879 12.492-16.287 20.776-4.057 9.862-4.853 21.225-2.242 31.994 4.787 19.744 22.174 39.667 50.23 39.667 9.371 0 18.178-3.65 24.802-10.279 3.476-3.479 6.118-7.564 7.854-12.011 4.07 2.527 8.866 3.99 13.999 3.99s9.928-1.464 13.998-3.99c1.737 4.447 4.378 8.532 7.855 12.011 6.623 6.629 15.431 10.279 24.801 10.279 28.151 0 45.471-19.896 50.148-39.614 4.111-17.331-.422-39.16-18.591-52.823h25.395c14.399 0 26.773-10.752 28.783-25.01l.912-6.471c.578-4.102-2.278-7.896-6.38-8.474-4.104-.571-7.895 2.278-8.474 6.38l-.912 6.471c-.972 6.9-6.96 12.104-13.929 12.104h-39.108c-5.367 0-9.917 3.665-11.067 8.912-1.146 5.232 1.45 10.449 6.313 12.687 1.091.501 2.179 1.024 3.233 1.555 19.128 9.615 22.314 28.208 19.23 41.208-3.072 12.952-14.226 28.076-35.553 28.076-5.361 0-10.401-2.089-14.19-5.881-3.79-3.793-5.874-8.834-5.87-14.196l.007-8.924c.011-.307.023-.614.023-.923v-27.647l.024-29.758c.923-21.905 14.081-39.089 24.969-49.655 14.717-14.282 34.223-25.354 54.927-31.179 4.671-1.314 9.448-.238 13.101 2.954 3.643 3.185 5.345 7.759 4.67 12.552l-.981 6.966c-.578 4.102 2.279 7.895 6.38 8.473 4.106.574 7.896-2.279 8.473-6.38l.981-6.966c1.376-9.76-2.232-19.456-9.651-25.941zm-440.367 75.168c-8.315-12.326-11.332-27.154-8.495-41.752l6.362-32.734 52.386 36.878 10.901 16.16v.001l-52.325 34.536zm17.217 25.525 52.326-34.536 8.967 13.294-51.974 35.058zm66.614 35.725-17.627 36.899-14.029-20.799 34.473-23.253c-.768 2.431-1.703 4.822-2.817 7.153zm-40.044 3.666-8.862-13.139 50.727-34.217c2.028 5.389 3.197 11.048 3.5 16.756zm45.556-71.397-27.426-40.659c-.458-.679-1.037-1.262-1.688-1.758h29.114zm-83.638-125.314c-20.08-20.08-30.929-47.497-30.432-75.564l105.996 105.996c-28.064.494-55.483-10.352-75.564-30.432zm-19.825-86.172c28.067-.495 55.484 10.351 75.565 30.432 14.091 14.091 23.629 31.796 27.897 50.802v22.228zm195.451 142.799c-6.172 5.395-9.695 13.014-9.917 21.041-6.617 1.179-13.364 1.736-20.152 1.616l43.873-43.872c2.929-2.93 2.929-7.678 0-10.607-2.928-2.927-7.677-2.929-10.606 0l-36.77 36.769v-32.652c5.157-13.265 13.023-25.504 23.327-35.808 20.081-20.081 47.499-30.935 75.566-30.433l-37.375 37.375c-2.929 2.93-2.929 7.678 0 10.607 1.464 1.464 3.384 2.196 5.303 2.196s3.839-.732 5.303-2.196l37.375-37.375c.498 28.068-10.351 55.485-30.432 75.565-2.007 2.007-4.091 3.917-6.239 5.735-4.063-1.554-8.149-2.915-12.222-4.06-9.5-2.672-19.605-.393-27.034 6.099zm97.054 170.623c-3.79 3.792-8.829 5.881-14.19 5.881-21.269 0-32.499-15.191-35.652-28.2-3.095-12.768-.128-31.067 18.42-40.621 1.362-.701 2.756-1.38 4.145-2.019 4.862-2.236 7.457-7.453 6.311-12.686-1.149-5.247-5.7-8.912-11.067-8.912h-39.108c-6.969 0-12.958-5.203-13.93-12.104l-6.782-48.118c-.675-4.792 1.027-9.366 4.67-12.551 2.632-2.301 5.847-3.502 9.187-3.502 1.295 0 2.609.181 3.915.548 20.703 5.824 40.21 16.896 54.927 31.179 10.889 10.566 24.046 27.75 24.969 49.655l.025 30.087v27.318c0 .309.013.614.023.921l.007 8.927c.004 5.362-2.08 10.404-5.87 14.197zm44.089-24.044c0 6.41-5.215 11.625-11.625 11.625s-11.625-5.215-11.625-11.625v-87.871c0-6.41 5.215-11.625 11.625-11.625s11.625 5.215 11.625 11.625z"/><circle cx="286.577" cy="212.5" r="7.5"/><circle cx="436.577" cy="212.5" r="7.5"/><circle cx="306.577" cy="298.5" r="7.5"/><circle cx="416.577" cy="298.5" r="7.5"/></g></g></g></svg>