<svg height="512pt" viewBox="0 -65 512 511" width="512pt" xmlns="http://www.w3.org/2000/svg"><path d="m204.988281 190.507812c0-63.382812-28.878906-122.675781-77.367187-161.773437-52.78125 34.894531-87.621094 94.757813-87.621094 162.773437 0 68.496094 35.324219 128.734376 88.742188 163.515626 23.421874 9.960937 49.191406 15.476562 76.246093 15.476562 107.476563 0 195-87.082031 195-194.992188 0-57.140624-24.726562-109.539062-65.441406-145.738281-60.855469 37.597657-103.546875 95.828125-120.546875 165.730469 0 0-9.011719-4.992188-9.011719-4.992188zm0 0" fill="#ffda2d"/><path d="m426.972656 130.5c3.28125 14.199219 5.015625 28.9375 5.015625 44.007812 0 19.472657-2.863281 38.265626-8.167969 55.992188h78.179688v-100zm0 0" fill="#ff637b"/><path d="m220 370.5c0 5.523438-4.476562 10-10 10s-10-4.476562-10-10 4.476562-10 10-10 10 4.476562 10 10zm0 0"/><path d="m163.152344 376.222656c5.417968 1.125 10.699218-2.359375 11.820312-7.757812 1.121094-5.410156-2.351562-10.703125-7.757812-11.824219-85.304688-17.695313-147.214844-93.871094-147.214844-181.132813 0-61.839843 30.269531-118.667968 81.277344-153.214843 6.136718 3.796875 12.0625 7.9375 17.742187 12.378906-49.085937 30.101563-79.019531 82.796875-79.019531 140.835937 0 90.976563 74.015625 164.992188 164.988281 164.992188 90.984375 0 165-74.015625 165-164.992188 0-57.777343-29.714843-110.335937-78.441406-140.460937 5.660156-4.449219 11.5625-8.597656 17.671875-12.402344 38.328125 26.144531 65.15625 65.03125 75.808594 110.15625 3.292968 13.914063 4.964844 28.28125 4.964844 42.707031 0 85.964844-58.796876 158.222657-137.972657 178.964844-5.34375 1.398438-8.539062 6.863282-7.140625 12.207032 1.179688 4.492187 5.230469 7.46875 9.667969 7.46875.839844 0 1.691406-.105469 2.539063-.328126 66.730468-17.480468 120.582031-68.183593 142.359374-133.320312h102.554688c5.523438 0 10-4.476562 10-10v-100c0-5.523438-4.476562-10-10-10h-99.5c-13.160156-47.464844-43.234375-88.828125-84.726562-116.195312-3.054688-3.839844-8.542969-4.953126-12.886719-2.390626l-.484375.277344c-.003906.003906-.007813.007813-.011719.007813-47.207031 27.414062-82.691406 71.792969-98.882813 124.886719-15.96875-52.367188-51.085937-97.316407-99.46875-125.246094-3.214843-1.8593752-7.195312-1.777344-10.339843.203125-58.300781 36.816406-95.699219 101.429687-95.699219 173.464843 0 98.351563 69.605469 181.3125 163.152344 200.714844zm328.847656-155.722656h-86.976562c3.292968-14.699219 4.964843-29.777344 4.964843-44.992188 0-11.757812-1.007812-23.488281-2.996093-35.007812h85.007812zm-297.011719-29.992188c0 5.523438 4.480469 10 10 10 .175781 0 .34375-.015624.515625-.027343.171875.011719.34375.027343.515625.027343 5.523438 0 10-4.476562 10-10 0-53.300781 21.683594-104.496093 59.699219-141.589843 45.980469 25.878906 74.273438 73.757812 74.273438 126.589843 0 79.949219-65.046876 144.992188-145 144.992188-79.949219 0-144.992188-65.042969-144.992188-144.992188 0-53.101562 28.53125-101.132812 74.910156-126.972656 38.261719 37.140625 60.078125 88.480469 60.078125 141.972656zm0 0"/></svg>