<svg id="Capa_1" enable-background="new 0 0 512 512" height="512" viewBox="0 0 512 512" width="512" xmlns="http://www.w3.org/2000/svg"><g><g><g><path d="m104.056 426.967-51.41 7.153c-12.952 1.802-21.528-13.059-13.488-23.371l30.149-38.67c14.509-18.61 36.789-29.491 60.387-29.491h38.114v11.142c.001 36.899-27.204 68.151-63.752 73.237z" fill="#6fd7a3"/></g><path d="m149.09 342.587v11.142c0 36.9-27.204 68.152-63.752 73.237l-41.316 5.749c2.484 1.273 5.419 1.85 8.624 1.404l51.41-7.153c36.548-5.085 63.752-36.337 63.752-73.237v-11.142z" fill="#3ec3a4"/><g><path d="m407.884 426.935 51.41 7.153c12.952 1.802 21.528-13.059 13.488-23.371l-30.149-38.67c-14.51-18.61-36.789-29.491-60.387-29.491h-38.114v11.142c-.001 36.899 27.204 68.151 63.752 73.237z" fill="#6fd7a3"/></g><path d="m472.782 410.716-30.149-38.67c-14.51-18.61-36.789-29.491-60.387-29.491h-18.719c23.598 0 45.878 10.881 60.387 29.491l30.149 38.67c6.051 7.76 2.689 18.094-4.864 21.967l10.094 1.405c12.953 1.802 21.529-13.059 13.489-23.372z" fill="#3ec3a4"/><path d="m126.311 304.758c0 8.93-3.27 17.85-9.78 24.83l-14.12 15.12c-5.67 6.07-12.99 9.8-20.67 11.07-9.43 1.54-19.42-.62-27.61-6.7l-.52-.39c-15.71-11.66-27.07-28.24-32.28-47.09l-13.53-48.93c-1.58-5.7 3.37-11.09 9.19-9.99l24.83 4.69 25.55 4.82c19.44 3.67 37.07 13.79 50.04 28.73 5.95 6.85 8.9 15.35 8.9 23.84z" fill="#fc8b96"/><path d="m126.311 304.758c0 8.93-3.27 17.85-9.78 24.83l-14.12 15.12c-5.67 6.07-12.99 9.8-20.67 11.07-11.52-4.2-21.52-12.52-27.65-24.08l-.44-.82c-12.91-24.31-17.33-52.24-12.56-79.36l.73-4.15 25.55 4.82c19.44 3.67 37.07 13.79 50.04 28.73 5.95 6.85 8.9 15.35 8.9 23.84z" fill="#fe646f"/><path d="m395.473 329.585 14.117 15.12c12.634 13.531 33.415 15.415 48.277 4.376l.527-.392c15.704-11.664 27.063-28.238 32.278-47.091l13.532-48.929c1.578-5.706-3.374-11.089-9.191-9.991l-50.383 9.507c-19.44 3.668-37.072 13.792-50.04 28.733-12.202 14.058-11.821 35.06.883 48.667z" fill="#fc8b96"/><path d="m495.013 242.678-11.612 2.191c1.939 1.927 2.911 4.814 2.085 7.8l-13.532 48.929c-5.214 18.854-16.574 35.427-32.278 47.091l-.527.392c-3.799 2.822-7.985 4.793-12.322 5.948 10.393 2.758 21.849.88 31.041-5.948l.527-.392c15.704-11.664 27.063-28.238 32.278-47.091l13.532-48.929c1.578-5.706-3.375-11.089-9.192-9.991z" fill="#fe646f"/><path d="m196.311 297.018c0 20.55-12.46 39.74-32.42 47.61l-27.08 10.69c-4.83 1.9-9.79 3.03-14.75 3.42-19.87 1.57-39.48-8.62-49.26-27.04l-.43-.82c-12.91-24.31-17.33-52.24-12.56-79.36l12.37-70.36c1.45-8.21 10.99-12.06 17.72-7.15l16.13 11.77 42.16 30.77c22.49 16.41 38.79 39.93 46.24 66.76 1.27 4.57 1.88 9.169 1.88 13.71z" fill="#fe646f"/><path d="m196.311 297.018c0 20.55-12.46 39.74-32.42 47.61l-27.08 10.69c-4.83 1.9-9.79 3.03-14.75 3.42-12.39-8.25-22.16-20.54-27.14-35.64l-.39-1.17c-11.57-35.06-11.1-72.98 1.34-107.75l10.16-28.4 42.16 30.77c22.49 16.41 38.79 39.93 46.24 66.76 1.27 4.57 1.88 9.169 1.88 13.71z" fill="#fd4755"/><path d="m348.112 344.63 27.081 10.684c24.236 9.562 51.787-.604 64.004-23.617l.433-.816c12.909-24.316 17.33-52.247 12.562-79.361l-12.374-70.367c-1.443-8.206-10.991-12.054-17.721-7.143l-58.29 42.535c-22.491 16.412-38.782 39.936-46.233 66.763-7.012 25.243 6.167 51.707 30.538 61.322z" fill="#fe646f"/><path d="m452.193 251.52-12.374-70.367c-1.443-8.206-10.99-12.054-17.721-7.143l-3.129 2.283c1.04 1.364 1.803 2.992 2.132 4.86l12.374 70.367c4.768 27.114.347 55.045-12.562 79.361l-.434.816c-7.56 14.24-20.993 23.553-35.877 26.324 21.615 4.044 43.939-6.251 54.596-26.324l.433-.816c12.908-24.316 17.33-52.246 12.562-79.361z" fill="#fd4755"/><path d="m285.711 293.648c0 32.14-22.53 60.43-54.6 67.14l-27.78 5.82-10.43 2.18c-34.2 7.16-68.32-12.5-79.26-45.69l-.39-1.17c-11.57-35.06-11.1-72.98 1.34-107.75l32.26-90.21c3.77-10.52 17.26-13.45 25.04-5.44l17.91 18.43 49.53 50.97c26.02 26.78 42.23 61.56 46.02 98.71.24 2.349.36 4.69.36 7.01z" fill="#fc8b96"/><path d="m285.711 293.648c0 32.14-22.53 60.43-54.6 67.14l-27.78 5.82c-34.05-5.29-61.18-32.8-65.14-68.01l-.16-1.39c-4.68-41.49 4.63-83.34 26.45-118.94l25.32-41.31 49.53 50.97c26.02 26.78 42.23 61.56 46.02 98.71.24 2.349.36 4.69.36 7.01z" fill="#fe646f"/><path d="m280.887 360.792 38.214 8c34.199 7.159 68.319-12.508 79.265-45.69l.388-1.177c11.566-35.062 11.095-72.981-1.339-107.745l-32.267-90.218c-3.763-10.52-17.254-13.449-25.04-5.435l-67.434 69.405c-26.019 26.779-42.234 61.559-46.019 98.705-3.561 34.954 19.843 66.956 54.232 74.155z" fill="#fc8b96"/><path d="m397.415 214.18-32.267-90.218c-3.535-9.884-15.657-13.065-23.567-6.768 2.118 1.666 3.837 3.94 4.848 6.768l32.267 90.218c12.434 34.764 12.905 72.683 1.339 107.745l-.388 1.177c-8.409 25.493-30.502 42.992-55.796 46.494 32.56 4.484 64.077-14.85 74.515-46.494l.388-1.177c11.565-35.061 11.094-72.981-1.339-107.745z" fill="#fe646f"/><path d="m278.198 367.533h-44.148c-39.509 0-72.715-29.673-77.141-68.933l-.157-1.393c-4.677-41.485 4.63-83.344 26.446-118.939l56.616-92.374c6.602-10.772 22.212-10.887 28.973-.214l58.553 92.44c22.592 35.667 32.48 77.918 28.062 119.906-4.158 39.512-37.475 69.507-77.204 69.507z" fill="#fe646f"/><path d="m327.339 178.12-58.553-92.44c-5.34-8.431-16.198-10.124-23.78-5.157 1.951 1.278 3.69 2.992 5.062 5.157l58.553 92.44c22.593 35.667 32.48 77.918 28.062 119.906-4.157 39.511-37.475 69.507-77.204 69.507h18.719c39.729 0 73.047-29.996 77.204-69.507 4.418-41.988-5.47-84.238-28.063-119.906z" fill="#fd4755"/><path d="m224.644 424.586-31.965 8.634c-8.972 2.423-16.506-7.036-12.136-15.238l9.209-17.286c10.874-20.411 32.115-33.162 55.242-33.162h11.008v16.102c-.001 19.166-12.854 35.952-31.358 40.95z" fill="#6fd7a3"/><path d="m244.993 367.533c-2.599 0-5.172.17-7.71.484v15.617c0 19.167-12.854 35.953-31.357 40.951l-23.142 6.251c2.492 2.28 6.06 3.419 9.895 2.383l31.965-8.634c18.504-4.998 31.357-21.784 31.357-40.951v-16.102h-11.008z" fill="#3ec3a4"/><path d="m287.359 424.586 31.965 8.634c8.972 2.423 16.506-7.036 12.136-15.238l-9.209-17.286c-10.874-20.411-32.115-33.162-55.242-33.162h-11.008v16.102c0 19.166 12.854 35.952 31.358 40.95z" fill="#6fd7a3"/><path d="m331.46 417.981-9.209-17.286c-10.874-20.411-32.115-33.162-55.242-33.162h-11.008v.484c20.057 2.487 37.88 14.561 47.531 32.678l9.209 17.286c2.502 4.696 1.098 9.801-2.241 12.855l8.823 2.383c8.973 2.424 16.507-7.036 12.137-15.238z" fill="#3ec3a4"/></g><g><path d="m507.9 240.043c-3.648-3.966-8.992-5.734-14.28-4.735l-8.463 1.598c-4.07.769-6.747 4.691-5.979 8.761.77 4.071 4.698 6.747 8.762 5.978l8.464-1.598c-.019.05.636-.072.569.622l-13.53 48.931c-6.681 21.015-22.427 47.26-47.484 49.115 22.205-25.479 29.304-64.99 23.616-98.511l-12.368-70.35c-1.134-6.425-5.422-11.715-11.47-14.151-6.042-2.434-12.792-1.595-18.057 2.246l-22.868 16.688-22.601-63.199c-2.65-7.397-8.817-12.807-16.496-14.471-7.673-1.664-15.518.706-20.983 6.334l-23.956 24.653-35.66-56.291c-4.57-7.212-12.358-11.513-20.934-11.416-8.541.064-16.304 4.449-20.767 11.731l-33.486 54.639-22.66-23.315c-5.468-5.629-13.317-7.995-20.982-6.335-7.68 1.664-13.847 7.073-16.499 14.475l-22.599 63.195-22.869-16.688c-5.264-3.841-12.013-4.681-18.054-2.247-6.049 2.436-10.338 7.725-11.474 14.156l-10.927 62.15-35.484-6.7c-9.653-2.078-21.089 7.693-17.812 19.359l13.53 48.929c7.659 25.242 25.659 52.223 53.177 59.277-1.233.856-32.367 41.245-34.032 43.263-11.769 15.547.745 38.016 20.427 35.411l51.412-7.15c31.535-4.396 57.551-26.915 66.703-56.969 8.111 1.147 21.482-.688 30.578-2.958-7.82 5.993-14.424 13.668-19.235 22.7l-9.209 17.286c-7.022 13.11 4.934 30.267 20.711 26.005l31.966-8.634c21.727-5.869 36.901-25.686 36.901-48.192v-8.597c20.953-1.239 42.148 10.182 52.131 29.184l9.209 17.286c.501 1.519.982 4.251-3.562 4.471l-31.966-8.634c-2.209-.597-4.366-1.412-6.409-2.424-3.711-1.84-8.211-.319-10.049 3.393-1.839 3.712-.319 8.211 3.393 10.05 2.92 1.446 6 2.611 9.154 3.463l31.965 8.634c5.256 1.793 14.533-.328 18.894-6.203 4.571-5.739 5.268-13.327 1.818-19.802l-9.209-17.286c-4.811-9.031-11.416-16.706-19.236-22.7 9.846 2.167 19.095 4.061 30.53 2.962 9.159 30.042 35.169 52.549 66.683 56.935l51.411 7.15c7.435 1.146 17.648-2.629 22.146-10.828 4.51-7.818 3.839-17.467-1.71-24.583l-30.148-38.668c-1.23-1.579-2.526-3.088-3.854-4.564 49.597-14.48 55.17-70.131 66.735-108.204 1.444-5.192.124-10.66-3.524-14.627zm-81.379-59.976c1.464-1.069 2.891-.74 3.611-.45.583.235 1.974.982 2.302 2.839l12.243 69.646c4.725 31.668.095 73.661-29.025 93.523-7.629 4.357-16.223 6.258-24.746 5.653 23.198-28.662 26.329-72.051 21.599-107.887l8.964-22.889c1.511-3.857-.392-8.208-4.249-9.718-3.852-1.511-8.208.392-9.718 4.249l-1.02 2.604c-.343-1.405-5.628-16.116-6.404-18.273zm-180.315-90.25c1.765-2.878 4.713-4.544 8.09-4.569h.077c3.343 0 6.282 1.617 8.073 4.444l58.56 92.439c30.17 47.065 42.687 126.799 4.117 159.894-10.875 9.636-24.548 16.113-40.19 17.686 7.312-8.329 13.737-20.018 19.226-35.024 8.197-22.412 11.276-44.148 11.403-45.062.57-4.102-2.293-7.888-6.394-8.459-4.119-.573-7.891 2.292-8.464 6.392-.029.21-3.024 21.258-10.708 42.183-5.435 14.799-14.154 32.101-26.494 38.133v-120.204c0-4.142-3.357-7.5-7.5-7.5s-7.5 3.358-7.5 7.5v120.216c-12.343-6.03-21.059-23.346-26.494-38.146-7.659-20.856-10.66-41.836-10.709-42.18-.57-4.103-4.36-6.961-8.461-6.396-4.103.57-6.967 4.358-6.396 8.461.127.915 3.206 22.65 11.403 45.062 5.484 14.992 11.902 26.673 19.206 35-4.102-.409-8.156-1.173-12.115-2.294-.062-.018-.122-.034-.184-.049-27.425-7.841-47.194-31.209-50.391-59.604-4.827-39.263 4.191-81.466 25.234-115.552zm-166.639 92.645c.329-1.864 1.721-2.611 2.304-2.846.721-.29 2.148-.617 3.609.45l26.444 19.297c-2.733 7.783-3.708 10.009-6.409 18.289l-1.026-2.62c-1.51-3.856-5.861-5.761-9.718-4.25-3.857 1.51-5.76 5.861-4.249 9.718l8.972 22.912c-4.611 35.522-1.985 78.228 21.6 107.856-16.347 1.239-34.204-7.903-42.098-23.909-11.809-22.034-16.409-49.977-11.68-75.213zm-21.486 160.203c-14.293-10.608-24.776-25.903-29.521-43.067l-13.531-48.934c.051.017-.123-.627.571-.617l35.846 6.769c-3.313 31.337 2.959 67.03 24.607 91.899-5.029.071-12.666-1.865-17.972-6.05zm44.937 76.874-51.409 7.15c-7.013-.415-9.581-4.042-6.532-11.33 11.082-12.974 32.769-46.36 47.843-54.644 7.956 3.73 18.675 6.252 28.655 5.552l-27.441 19.519c-3.375 2.401-4.165 7.083-1.764 10.459 1.463 2.057 3.772 3.153 6.118 3.153 1.503 0 3.021-.451 4.341-1.389l40.686-28.94c4.288 2.245 8.792 4.083 13.454 5.481-7.858 23.771-28.744 41.475-53.951 44.989zm44.004-65.721c-11.003-6.418-22.358-19.934-26.648-34.241-10.992-33.31-10.538-69.844 1.28-102.874l32.258-90.205c1.286-3.589 4.312-4.602 5.553-4.871 1.238-.267 4.402-.596 7.049 2.128l25.329 26.061-13.852 22.602-2.717-11.495c-.952-4.032-4.999-6.527-9.023-5.574-4.031.953-6.527 4.993-5.574 9.024l6.534 27.646c-15.58 32.454-22.231 71.03-17.751 107.416 2.956 26.261 17.619 48.98 39.172 62.516-14.839 2.42-29.491-.751-41.61-8.133zm101.48 29.817c0 15.743-10.615 29.605-25.813 33.71l-31.966 8.634c-1.594.148-4.36.008-3.561-4.471l9.209-17.286c9.759-18.789 30.743-30.288 52.131-29.184zm74.998-21.659c56.842-35.518 45.08-117.602 20.196-170.02l6.519-27.582c.953-4.031-1.543-8.071-5.574-9.024-4.032-.954-8.071 1.543-9.023 5.574l-2.796 11.829-13.791-21.769 26.46-27.23c2.644-2.723 5.808-2.395 7.048-2.126 1.241.269 4.266 1.282 5.551 4.866l32.261 90.211c16.563 45.901 11.09 109.489-19.516 133.081-12.074 9.689-30.509 15.029-47.335 12.19zm143.367 53.354c2.711 3.476 1.104 6.897.546 7.863-.558.967-2.726 4.077-7.088 3.466l-51.409-7.149c-25.185-3.505-46.06-21.192-53.927-44.946 4.674-1.398 9.188-3.238 13.487-5.487l40.64 28.903c1.318.938 2.837 1.389 4.34 1.389 2.346 0 4.656-1.097 6.119-3.154 2.4-3.375 1.61-8.058-1.766-10.458l-27.379-19.472c8.358.689 19.959-1.344 28.672-5.558 6.756 4.248 12.673 9.589 17.615 15.933z"/><path d="m256.002 209.115c4.143 0 7.5-3.358 7.5-7.5v-23.848c0-4.142-3.357-7.5-7.5-7.5s-7.5 3.358-7.5 7.5v23.848c0 4.143 3.357 7.5 7.5 7.5z"/></g></g></svg>