<svg height="512pt" viewBox="0 -21 512.003 512" width="512pt" xmlns="http://www.w3.org/2000/svg"><path d="m40.03125 328.25c7.207031 66.941406 58.460938 120.6875 124.191406 131.6875 74.601563-2.066406 135.597656-58.59375 144.617188-131.257812l-25.429688-18.796876-206.25-1.679687zm0 0" fill="#ffda2d"/><path d="m248.21875 188.671875v.007813l61.660156 115.332031c13.359375 3.898437 27.5 5.988281 42.121094 5.988281 76.511719 0 139.648438-57.289062 148.839844-131.320312l-33.839844-11.476563-174-14zm0 0" fill="#ffda2d"/><path d="m438.125 37.1875c-18.144531-7.789062-38.128906-12.113281-59.125-12.113281-82.839844 0-150 67.160156-150 150 0 2.011719.039062 4.011719.121094 5.992187v.007813c-13.359375-3.910157-27.5-6-42.121094-6-82.839844 0-150 67.160156-150 150 0 5.492187.300781 10.910156.871094 16.25.164062.246093.34375.472656.511718.714843 12.203126.789063 24.738282-4.527343 32.367188-15.964843 14.0625-21.101563 44.808594-21.390625 59.355469-.902344 10.628906.683594 21 6.003906 27.644531 15.976563.203125.304687.425781.59375.636719.890624 12.199219.789063 24.734375-4.53125 32.363281-15.964843 14.0625-21.101563 44.808594-21.390625 59.355469-.902344 10.628906.683594 21 6.003906 27.644531 15.976563.203125.304687.421875.59375.636719.890624 11.230469.726563 22.746093-3.714843 30.453125-13.355468.769531-6.121094 1.160156-12.351563 1.160156-18.679688 0-2.011718-.039062-4-.121094-5.992187-1.859375-47.398438-25.71875-89.148438-61.660156-115.328125v-.011719c5.640625-2.660156 10.703125-6.859375 14.53125-12.597656 14.0625-21.101563 44.808594-21.390625 59.355469-.902344 10.628906.683594 21 6.003906 27.644531 15.976563.203125.304687.425781.59375.636719.890624 12.199219.789063 24.734375-4.53125 32.363281-15.964843 14.0625-21.101563 44.808594-21.390625 59.355469-.902344 10.628906.683594 21 6.003906 27.644531 15.976563.203125.304687.421875.59375.636719.890624 11.226562.726563 22.746093-3.714843 30.453125-13.355468.769531-6.121094 1.160156-12.351563 1.160156-18.679688 0-50.789062-25.25-95.679687-63.875-122.816406zm0 0" fill="#8c4a37"/><path d="m432 111.203125c-5.519531 0-10 4.476563-10 10 0 5.519531 4.480469 10 10 10s10-4.480469 10-10c0-5.523437-4.480469-10-10-10zm0 0"/><path d="m392 71.203125c-5.519531 0-10 4.476563-10 10 0 5.519531 4.480469 10 10 10s10-4.480469 10-10c0-5.523437-4.480469-10-10-10zm0 0"/><path d="m352 41.203125c-5.519531 0-10 4.476563-10 10 0 5.519531 4.480469 10 10 10s10-4.480469 10-10c0-5.523437-4.480469-10-10-10zm0 0"/><path d="m352 111.203125c-5.519531 0-10 4.476563-10 10 0 5.519531 4.480469 10 10 10s10-4.480469 10-10c0-5.523437-4.480469-10-10-10zm0 0"/><path d="m312 71.203125c-5.519531 0-10 4.476563-10 10 0 5.519531 4.480469 10 10 10s10-4.480469 10-10c0-5.523437-4.480469-10-10-10zm0 0"/><path d="m272 111.203125c-5.519531 0-10 4.476563-10 10 0 5.519531 4.480469 10 10 10s10-4.480469 10-10c0-5.523437-4.480469-10-10-10zm0 0"/><path d="m240 261.203125c-5.519531 0-10 4.476563-10 10 0 5.519531 4.480469 10 10 10s10-4.480469 10-10c0-5.523437-4.480469-10-10-10zm0 0"/><path d="m200 221.203125c-5.519531 0-10 4.476563-10 10 0 5.519531 4.480469 10 10 10s10-4.480469 10-10c0-5.523437-4.480469-10-10-10zm0 0"/><path d="m160 191.203125c-5.519531 0-10 4.476563-10 10 0 5.519531 4.480469 10 10 10s10-4.480469 10-10c0-5.523437-4.480469-10-10-10zm0 0"/><path d="m160 261.203125c-5.519531 0-10 4.476563-10 10 0 5.519531 4.480469 10 10 10s10-4.480469 10-10c0-5.523437-4.480469-10-10-10zm0 0"/><path d="m120 221.203125c-5.519531 0-10 4.476563-10 10 0 5.519531 4.480469 10 10 10s10-4.480469 10-10c0-5.523437-4.480469-10-10-10zm0 0"/><path d="m80 261.203125c-5.519531 0-10 4.476563-10 10 0 5.519531 4.480469 10 10 10s10-4.480469 10-10c0-5.523437-4.480469-10-10-10zm0 0"/><path d="m352 0c-85.964844 0-156.300781 68.152344-159.847656 153.257812-10.53125-2.148437-21.292969-3.257812-32.152344-3.257812-88.222656 0-160 71.777344-160 160 0 70.667969 45.902344 132.183594 112.566406 152.851562.988282.304688 1.984375.449219 2.964844.449219 4.265625 0 8.21875-2.75 9.546875-7.042969 1.636719-5.273437-1.3125-10.875-6.589844-12.511718-45.324219-14.050782-79.796875-49.75-92.816406-94.175782 4.78125 1.65625 9.867187 2.550782 15.082031 2.550782h.132813c15.378906-.046875 29.652343-7.710938 38.183593-20.503906 4.917969-7.375 12.816407-11.605469 21.679688-11.605469s16.765625 4.230469 21.679688 11.605469c8.5625 12.839843 22.886718 20.503906 38.320312 20.503906s29.761719-7.664063 38.320312-20.503906c4.917969-7.375 12.816407-11.605469 21.679688-11.605469s16.765625 4.230469 21.679688 11.605469c8.246093 12.363281 21.480468 19.824218 36.3125 20.464843.695312.03125 1.386718.042969 2.078124.042969 4.585938 0 9.050782-.667969 13.296876-1.941406-13.203126 44.109375-47.683594 79.632812-92.605469 93.558594-5.273438 1.636718-8.226563 7.238281-6.589844 12.515624 1.636719 5.273438 7.234375 8.226563 12.515625 6.589844 63.652344-19.734375 109.550781-77.65625 112.40625-146.105468 10.539062 2.148437 21.304688 3.253906 32.160156 3.253906 87.871094 0 160-71.242188 160-160-.003906-88.21875-71.777344-159.996094-160.003906-159.996094zm-72.398438 332.101562c-8.382812-.359374-15.867187-4.582031-20.53125-11.574218-8.558593-12.847656-22.882812-20.515625-38.320312-20.515625-15.433594 0-29.761719 7.667969-38.320312 20.511719-4.914063 7.371093-12.816407 11.597656-21.679688 11.597656s-16.765625-4.226563-21.679688-11.59375c-8.558593-12.847656-22.882812-20.515625-38.320312-20.515625-15.433594 0-29.761719 7.667969-38.320312 20.511719-4.898438 7.34375-12.769532 11.570312-21.601563 11.597656-.023437 0-.050781 0-.082031 0-8.007813 0-15.230469-3.464844-20.179688-9.582032-.371094-4.1875-.566406-8.390624-.566406-12.539062 0-77.195312 62.804688-140 140-140 74.898438 0 136.929688 58.996094 139.886719 134.414062.265625 6.613282.0625 13.222657-.640625 20.023438-5.121094 5.214844-12.136719 7.992188-19.644532 7.664062zm72.398438-32.101562c-11.046875 0-21.980469-1.300781-32.605469-3.832031-3.554687-41.667969-23.019531-79.757813-54.566406-107.050781 2.320313-2.257813 4.417969-4.765626 6.242187-7.5 4.914063-7.371094 12.816407-11.601563 21.679688-11.601563s16.765625 4.226563 21.679688 11.605469c8.5625 12.835937 22.886718 20.5 38.320312 20.5s29.761719-7.664063 38.320312-20.503906c4.914063-7.375 12.816407-11.605469 21.679688-11.605469s16.765625 4.230469 21.679688 11.605469c8.4375 12.65625 22.386718 20.511718 38.390624 20.511718 4.597657 0 9.070313-.675781 13.328126-1.953125-17.394532 58.257813-71.507813 99.824219-134.148438 99.824219zm139.246094-125.5625c-5.121094 5.21875-12.132813 7.992188-19.644532 7.664062-8.382812-.359374-15.867187-4.582031-20.53125-11.574218-8.558593-12.847656-22.886718-20.515625-38.320312-20.515625s-29.761719 7.667969-38.320312 20.511719c-4.914063 7.371093-12.816407 11.597656-21.679688 11.597656s-16.765625-4.226563-21.679688-11.59375c-8.558593-12.847656-22.886718-20.515625-38.320312-20.515625s-29.761719 7.667969-38.316406 20.507812c-1.636719 2.449219-3.582032 4.539063-5.8125 6.253907-11.40625-7.613282-23.675782-13.683594-36.601563-18.117188.722657-76.578125 63.234375-138.65625 139.980469-138.65625 77.195312 0 140 62.804688 140 140 0 4.839844-.261719 9.675781-.753906 14.4375zm0 0"/><path d="m170 460.203125c0 5.519531-4.476562 10-10 10s-10-4.480469-10-10c0-5.523437 4.476562-10 10-10s10 4.476563 10 10zm0 0"/></svg>