<svg id="Capa_1" enable-background="new 0 0 512 512" height="512" viewBox="0 0 512 512" width="512" xmlns="http://www.w3.org/2000/svg"><g><g><g><g><path d="m304.843 296.988c-19.419 3.128-38.068 12.164-53.04 27.136-23.053 23.053-32.048 54.818-27.042 84.694 29.876 5.006 61.641-3.989 84.694-27.042 15.358-15.358 24.468-34.583 27.364-54.54-12.824-7.521-23.772-17.893-31.976-30.248z" fill="#1ee6a6"/><path d="m304.843 296.988c-19.419 3.128-38.068 12.163-53.04 27.136-23.052 23.053-32.048 54.818-27.042 84.694l94.624-94.624c-5.482-5.145-10.367-10.919-14.542-17.206z" fill="#00c285"/><g><g><ellipse cx="166.209" cy="351.608" fill="#00c285" rx="40.766" ry="79.009" transform="matrix(.707 -.707 .707 .707 -199.943 220.511)"/></g><g><path d="m195.035 322.782c-23.053-23.052-54.818-32.048-84.694-27.042l111.736 111.736c5.006-29.876-3.989-61.641-27.042-84.694z" fill="#1ee6a6"/></g></g></g><path d="m244.995 447.225c-12.584-10.177-30.568-10.177-43.152 0l-70.822 57.275h132.16l26.318-21.284z" fill="#883f2e"/><g><path d="m244.511 446.85c-12.558-9.794-30.243-9.674-42.668.375l-70.822 57.275h42.183l70.821-57.275c.161-.129.325-.249.486-.375z" fill="#6d3326"/></g><g><g><circle cx="385.989" cy="243.216" fill="#54469c" r="97.341"/></g><g><ellipse cx="385.989" cy="243.216" fill="#b3dafe" rx="71.03" ry="71.029" transform="matrix(.16 -.987 .987 .16 84.085 585.262)"/></g><g><path d="m340 243.216c0-34.893 25.297-63.968 58.509-69.902-4.068-.727-8.247-1.127-12.52-1.127-39.166 0-71.029 31.864-71.029 71.03s31.864 71.03 71.029 71.03c4.273 0 8.453-.401 12.52-1.127-33.212-5.936-58.509-35.011-58.509-69.904z" fill="#8ac9fe"/></g></g><g><g><ellipse cx="418.918" cy="209.909" fill="#1ee6a6" rx="79.009" ry="40.766" transform="matrix(.707 -.707 .707 .707 -25.73 357.701)"/></g><g><path d="m390.092 181.083c-23.052 23.053-32.048 54.818-27.042 84.694l111.736-111.736c-29.876-5.006-61.642 3.989-84.694 27.042z" fill="#00c285"/></g></g><g><g><ellipse cx="223.419" cy="236.911" fill="#1ee6a6" rx="40.766" ry="79.009"/></g><g><path d="m182.653 236.911c0 32.601 16.101 61.423 40.766 79.009v-158.018c-24.665 17.586-40.766 46.408-40.766 79.009z" fill="#00c285"/></g></g><g><g><ellipse cx="318.668" cy="400.475" fill="#00c285" rx="20.807" ry="33.781" transform="matrix(.707 -.707 .707 .707 -189.843 342.629)"/></g><g><ellipse cx="370.237" cy="400.475" fill="#1ee6a6" rx="33.781" ry="20.807" transform="matrix(.707 -.707 .707 .707 -174.739 379.094)"/></g></g><g><path d="m325.475 454.121-62.294 50.379h162.543l-62.294-50.379c-11.068-8.951-26.887-8.951-37.955 0z" fill="#ffbd86"/></g><g><path d="m363.431 454.121c-11.069-8.952-26.887-8.952-37.956 0l-62.294 50.379h42.276l60.134-48.632z" fill="#f6a96c"/></g></g></g><g><g><path d="m126.294 113.859c-1.745 6.787-2.777 15.129-2.777 24.155 0 22.747 6.536 41.188 14.598 41.188s14.598-18.44 14.598-41.188c0-9.026-1.032-17.368-2.777-24.155z" fill="#d8ecfe"/><path d="m149.234 113.859c-1.745 6.787-2.777 15.129-2.777 24.155 0 22.747 6.536 41.188 14.598 41.188s14.598-18.44 14.598-41.188c0-9.026-1.032-17.368-2.777-24.155z" fill="#eaf6ff"/></g><path d="m95.404 93.351c0-5.607 2.284-10.705 5.963-14.416h-58.281c-7.929 0-14.416 6.487-14.416 14.416s6.487 14.416 14.416 14.416h58.281c-3.679-3.711-5.963-8.809-5.963-14.416z" fill="#463b84"/><path d="m149.936 72.843c1.745-6.787 2.777-15.129 2.777-24.155 0-22.747-6.536-41.188-14.598-41.188s-14.598 18.44-14.598 41.188c0 9.026 1.032 17.368 2.777 24.155z" fill="#d8ecfe"/><path d="m172.876 72.843c1.745-6.787 2.777-15.129 2.777-24.155 0-22.747-6.536-41.188-14.598-41.188s-14.598 18.44-14.598 41.188c0 9.026 1.032 17.368 2.777 24.155z" fill="#eaf6ff"/><g><path d="m180.213 113.859h-64.301c-11.279 0-20.508-9.228-20.508-20.508 0-11.279 9.228-20.508 20.508-20.508h64.301c11.279 0 20.508 9.228 20.508 20.508-.001 11.279-9.229 20.508-20.508 20.508z" fill="#6e61b6"/></g><g><path d="m129 93.351c0-11.279 9.228-20.508 20.508-20.508h-33.596c-11.279 0-20.508 9.228-20.508 20.508s9.228 20.508 20.508 20.508h33.596c-11.28 0-20.508-9.229-20.508-20.508z" fill="#54469c"/></g></g><g><path d="m115.912 121.358h1.276c-.763 5.251-1.172 10.876-1.172 16.656 0 11.833 1.671 23.066 4.707 31.63 2.758 7.782 8.015 17.058 17.392 17.058 4.857 0 8.605-2.489 11.475-5.97 2.871 3.476 6.612 5.97 11.466 5.97 9.377 0 14.633-9.276 17.392-17.058 3.035-8.564 4.707-19.797 4.707-31.63 0-5.802-.412-11.449-1.181-16.717 14.626-.912 26.248-13.095 26.248-27.946 0-14.852-11.622-27.034-26.248-27.947.768-5.268 1.181-10.914 1.181-16.716 0-11.833-1.671-23.066-4.707-31.63-2.76-7.782-8.016-17.058-17.393-17.058-4.853 0-8.595 2.493-11.466 5.97-2.869-3.48-6.618-5.97-11.474-5.97-9.377 0-14.633 9.276-17.392 17.058-3.035 8.563-4.707 19.796-4.707 31.63 0 5.78.409 11.405 1.172 16.655h-1.276c-6.575 0-12.624 2.284-17.408 6.091h-55.418c-12.085 0-21.917 9.832-21.917 21.917 0 12.084 9.832 21.916 21.917 21.916h55.418c4.784 3.808 10.833 6.091 17.408 6.091zm22.203 49.771c-2.604-3.105-7.098-14.422-7.098-33.115 0-6.443.536-12.002 1.342-16.656h7.77c-.763 5.251-1.172 10.876-1.172 16.656 0 9.108.994 17.855 2.834 25.308-1.253 3.911-2.619 6.547-3.676 7.807zm22.94 0c-2.604-3.105-7.098-14.422-7.098-33.115 0-6.443.536-12.002 1.342-16.656h11.512c.807 4.653 1.342 10.213 1.342 16.656 0 18.694-4.494 30.01-7.098 33.115zm0-155.556c2.604 3.105 7.098 14.422 7.098 33.115 0 6.443-.536 12.002-1.342 16.655h-11.512c-.807-4.653-1.342-10.213-1.342-16.655 0-18.693 4.495-30.01 7.098-33.115zm-22.94 0c1.057 1.26 2.423 3.897 3.676 7.807-1.84 7.453-2.834 16.2-2.834 25.308 0 5.78.409 11.405 1.172 16.655h-7.77c-.807-4.653-1.342-10.213-1.342-16.655 0-18.693 4.494-30.01 7.098-33.115zm-22.203 64.77h64.3c7.172 0 13.008 5.835 13.008 13.008s-5.835 13.007-13.008 13.007h-64.3c-7.172 0-13.008-5.835-13.008-13.007s5.836-13.008 13.008-13.008zm-27.142 19.924h-45.684c-3.814 0-6.917-3.103-6.917-6.916 0-3.814 3.103-6.917 6.917-6.917h45.684c-.564 2.213-.866 4.53-.866 6.917 0 2.386.302 4.703.866 6.916z"/><path d="m470.095 497h-41.718l-27.373-22.137c-3.22-2.604-7.943-2.106-10.548 1.115s-2.105 7.943 1.115 10.548l12.952 10.474h-120.141l45.809-37.047c8.264-6.684 20.26-6.684 28.523 0l5.552 4.49c3.221 2.604 7.943 2.106 10.548-1.115s2.105-7.943-1.115-10.548l-5.552-4.49c-4.814-3.893-10.391-6.415-16.194-7.579v-7.379c2.114.299 4.232.455 6.341.455 11.807 0 23.293-4.631 31.959-13.297 12.164-12.164 16.377-29.884 10.996-46.246-.744-2.263-2.519-4.037-4.781-4.781-15.607-5.133-32.437-1.518-44.515 9.381v-2.168c0-4.142-3.358-7.5-7.5-7.5s-7.5 3.358-7.5 7.5v2.168c-3.005-2.712-6.304-4.97-9.805-6.758 6.988-10.264 12.065-21.665 15.049-33.626 13.334 6.155 28.168 9.597 43.792 9.597 57.81 0 104.841-47.031 104.841-104.841 0-16.572-3.873-32.253-10.749-46.198 3.787-14.237 4.6-29.306 2.102-44.217-.529-3.156-3.001-5.629-6.158-6.158-15.001-2.514-30.162-1.675-44.477 2.173-13.785-6.682-29.24-10.442-45.559-10.442-57.81 0-104.841 47.032-104.841 104.841 0 17.554 4.343 34.111 12.001 48.662-17.424 4.702-33.584 13.876-46.65 26.943-6.051 6.051-11.259 12.77-15.581 19.968v-19.106c25.594-19.74 40.767-50.388 40.767-82.772 0-33.692-16.416-65.512-43.913-85.116-2.605-1.857-6.103-1.857-8.708 0-27.497 19.604-43.912 51.423-43.912 85.116 0 32.385 15.172 63.032 40.766 82.772v17.762c-4.323-7.196-9.53-13.915-15.581-19.966-23.825-23.824-57.932-34.715-91.237-29.136-3.156.529-5.629 3.001-6.158 6.158-5.58 33.305 5.312 67.412 29.136 91.237 19.714 19.713 46.464 30.571 73.978 30.571 3.279 0 6.57-.179 9.861-.498v17.017c-6.735 1.211-13.224 4.061-18.792 8.565l-68.757 55.608h-46.134c-4.142 0-7.5 3.358-7.5 7.5s3.358 7.5 7.5 7.5h387.861c4.142 0 7.5-3.358 7.5-7.5s-3.358-7.5-7.5-7.5zm-109.267-105.934c7.206-7.207 17.332-10.243 27.159-8.34 1.9 9.829-1.134 19.953-8.34 27.159-7.207 7.206-17.332 10.239-27.159 8.34-1.901-9.829 1.134-19.953 8.34-27.159zm-218.142-15.935c-16.702-16.702-25.98-39.309-26.174-62.614l88.787 88.787c-23.307-.196-45.911-9.471-62.613-26.173zm-15.568-73.22c23.305.194 45.911 9.472 62.614 26.174 16.702 16.702 25.98 39.309 26.174 62.614zm200.959 89.155c7.206 7.206 10.241 17.33 8.34 27.159-9.83 1.9-19.953-1.135-27.159-8.34-7.206-7.206-10.241-17.33-8.34-27.159 9.83-1.9 19.953 1.133 27.159 8.34zm-16.127-23.569c-6.434-.756-13.076-.15-19.512 1.967-2.263.744-4.037 2.519-4.781 4.781-1.787 5.432-2.493 11.011-2.225 16.49-13.317 7.635-28.445 11.784-43.894 11.913l78.222-78.222c2.809 2.295 5.739 4.445 8.778 6.444-2.676 13.233-8.317 25.784-16.588 36.627zm156.665-196.679c-.194 23.305-9.473 45.912-26.174 62.614-16.702 16.702-39.308 25.981-62.614 26.174zm-10.608-10.605-88.786 88.787c.194-23.304 9.473-45.911 26.174-62.613 16.702-16.702 39.308-25.977 62.612-26.174zm-72.018-6.838c8.589 0 16.899 1.216 24.77 3.477-4.837 2.489-9.494 5.355-13.916 8.595-3.548-.499-7.17-.761-10.854-.761-43.301 0-78.529 35.229-78.529 78.53s35.228 78.53 78.529 78.53c15.316 0 30.184-4.447 42.996-12.86 3.462-2.273 4.426-6.923 2.152-10.386s-6.925-4.426-10.386-2.152c-10.359 6.803-22.38 10.398-34.762 10.398-35.03 0-63.529-28.5-63.529-63.53 0-33.312 25.777-60.698 58.43-63.307-21.095 23.542-30.503 55.679-25.237 87.107.529 3.156 3.001 5.629 6.158 6.158 5.749.963 11.521 1.436 17.26 1.436 25.835 0 51-9.577 70.295-27.067-.618 8.983-3.146 17.792-7.412 25.706-1.965 3.646-.603 8.195 3.043 10.161 3.647 1.966 8.195.603 10.161-3.043 6.124-11.361 9.361-24.208 9.361-37.149 0-3.944-.305-7.816-.875-11.603 3.203-4.413 6.039-9.054 8.499-13.875 2.395 8.081 3.688 16.63 3.688 25.478 0 49.539-40.303 89.841-89.841 89.841s-89.841-40.302-89.841-89.841 40.302-89.843 89.84-89.843zm-128.883 176.053c12.305-12.305 27.821-20.552 44.455-24.129 2.268 3.076 4.699 6.024 7.282 8.832l-77.911 77.911c.194-23.305 9.472-45.912 26.174-62.614zm-16.325 88.223c16.798 0 33.308-4.059 48.109-11.7 2.239 5.327 5.501 10.279 9.762 14.54 8.667 8.667 20.152 13.297 31.96 13.297 2.108 0 4.226-.157 6.34-.456v7.379c-5.804 1.163-11.38 3.686-16.194 7.579l-31.259 25.28-39.788-32.177c-5.569-4.504-12.058-7.353-18.792-8.565v-15.662c3.291.312 6.582.485 9.862.485zm-50.628-180.74c0-23.62 9.425-46.166 25.766-62.782v46.871c0 4.142 3.358 7.5 7.5 7.5s7.5-3.358 7.5-7.5v-46.871c16.342 16.616 25.767 39.162 25.767 62.782s-9.425 46.167-25.767 62.782v-43.693c0-4.142-3.358-7.5-7.5-7.5s-7.5 3.358-7.5 7.5v43.693c-16.341-16.615-25.766-39.162-25.766-62.782zm70.375 260.089h-108.306l54.337-43.944c9.77-7.901 23.95-7.9 33.72 0l37.293 30.16z"/></g></g></svg>