<svg id="Capa_1" enable-background="new 0 0 512.005 512.005" height="512" viewBox="0 0 512.005 512.005" width="512" xmlns="http://www.w3.org/2000/svg"><g><g><g fill="#9a4588"><g><path d="m337.607 123.555-39.118-17.207 9.321-45.172c2.296-11.127 8.554-21.042 17.61-27.902l27.305-20.683c6.773-5.131 16.548-.831 17.343 7.629l3.205 34.104c1.063 11.311-2.017 22.624-8.667 31.836z"/><path d="m213.516 405.658-39.118-17.207-26.998 37.396c-6.65 9.212-9.73 20.524-8.667 31.836l3.205 34.104c.795 8.46 10.57 12.759 17.343 7.629l27.305-20.683c9.056-6.86 15.314-16.775 17.61-27.902z"/></g><g><path d="m405.539 213.1-17.316-39.07 37.321-27.103c9.193-6.676 20.497-9.787 31.811-8.756l34.113 3.11c8.462.771 12.789 10.534 7.677 17.321l-20.607 27.362c-6.835 9.075-16.732 15.361-27.853 17.688z"/><path d="m123.782 337.976-17.316-39.07-45.146 9.447c-11.12 2.327-21.018 8.612-27.853 17.688l-20.607 27.362c-5.112 6.787-.785 16.55 7.677 17.321l34.113 3.11c11.314 1.032 22.618-2.08 31.811-8.756z"/></g></g><g fill="#9a4588"><g><path d="m123.213 174.955-17.043 39.19-45.211-9.132c-11.136-2.249-21.077-8.465-27.976-17.493l-20.798-27.218c-5.159-6.751-.901-16.544 7.556-17.374l34.09-3.348c11.307-1.111 22.632 1.922 31.872 8.533z"/><path d="m405.835 297.86-17.043 39.19 37.51 26.841c9.239 6.612 20.565 9.644 31.872 8.533l34.09-3.348c8.456-.831 12.715-10.623 7.556-17.374l-20.798-27.218c-6.898-9.027-16.839-15.243-27.976-17.493z"/></g><g><path d="m213.099 106.466-39.07 17.316-27.103-37.321c-6.676-9.193-9.787-20.497-8.756-31.811l3.11-34.113c.771-8.462 10.534-12.789 17.321-7.677l27.362 20.607c9.075 6.835 15.361 16.732 17.688 27.853z"/><path d="m337.976 388.223-39.07 17.316 9.447 45.146c2.327 11.12 8.612 21.018 17.688 27.853l27.362 20.607c6.787 5.112 16.55.785 17.321-7.677l3.11-34.113c1.032-11.314-2.08-22.618-8.756-31.811z"/></g></g><g><g><g><path d="m209.213 143.6-40.358 27.38-38.015-36.407c-9.364-8.968-15.154-21.03-16.293-33.946l-3.435-38.94c-.852-9.659 9.232-16.501 17.892-12.139l34.912 17.585c11.58 5.832 20.648 15.671 25.519 27.686z" fill="#ffceec"/><path d="m343.151 341.025-40.358 27.38 19.778 48.78c4.872 12.015 13.94 21.854 25.519 27.686l34.912 17.585c8.66 4.362 18.745-2.48 17.892-12.139l-3.435-38.94c-1.139-12.915-6.929-24.978-16.293-33.945z" fill="#ffceec"/><path d="m400.894 450.317-3.435-38.94c-1.139-12.915-6.929-24.978-16.293-33.946l-38.015-36.407-10.542 7.152 30.548 29.255c9.364 8.968 15.154 21.03 16.293 33.946l3.435 38.94c.362 4.097-1.249 7.683-3.879 10.126l3.996 2.013c8.66 4.362 18.744-2.48 17.892-12.139z" fill="#fec0dd"/></g><g><g fill="#ffceec"><path d="m143.6 302.792 27.38 40.358-36.407 38.015c-8.968 9.364-21.03 15.154-33.946 16.293l-38.94 3.435c-9.659.852-16.501-9.232-12.139-17.892l17.585-34.912c5.832-11.58 15.671-20.648 27.686-25.519z"/><path d="m341.025 168.854 27.38 40.358 48.78-19.778c12.015-4.872 21.854-13.94 27.686-25.519l17.585-34.912c4.362-8.66-2.48-18.745-12.139-17.892l-38.94 3.435c-12.915 1.139-24.978 6.929-33.945 16.293z"/><path d="m341.025 168.854 27.38 40.358 48.78-19.778c12.015-4.872 21.854-13.94 27.686-25.519l17.585-34.912c4.362-8.66-2.48-18.745-12.139-17.892l-38.94 3.435c-12.915 1.139-24.978 6.929-33.945 16.293z"/><path d="m341.025 168.854 27.38 40.358 48.78-19.778c12.015-4.872 21.854-13.94 27.686-25.519l17.585-34.912c4.362-8.66-2.48-18.745-12.139-17.892l-38.94 3.435c-12.915 1.139-24.978 6.929-33.945 16.293z"/></g><path d="m450.317 111.111-11.811 1.042c6.042 2.746 9.283 10.214 5.94 16.85l-17.585 34.912c-5.832 11.58-15.671 20.648-27.686 25.519l-34.656 14.051 3.885 5.727 48.78-19.778c12.016-4.872 21.854-13.94 27.686-25.519l17.585-34.912c4.363-8.66-2.479-18.744-12.138-17.892z" fill="#fec0dd"/></g></g><g><g><path d="m251.115 134.349-47.351 11.678-23.023-47.335c-5.671-11.659-6.916-24.981-3.504-37.49l10.288-37.713c2.552-9.355 14.384-12.273 20.992-5.177l26.643 28.605c8.837 9.488 13.929 21.861 14.329 34.82z" fill="#ffceec"/><path d="m249.489 81.737c-.401-12.959-5.492-25.333-14.329-34.82l-26.643-28.605c-5.14-5.519-13.438-4.978-18.074-.065.021.022.044.042.065.065l26.643 28.605c8.837 9.488 13.929 21.861 14.329 34.82l1.626 52.612-31.271 7.712 1.929 3.966 47.351-11.678z" fill="#fec0dd"/><path d="m308.241 365.979-47.351 11.678 1.626 52.612c.4 12.959 5.492 25.332 14.329 34.82l26.643 28.605c6.609 7.096 18.441 4.178 20.992-5.177l10.288-37.713c3.412-12.508 2.167-25.83-3.504-37.49z" fill="#ffceec"/><path d="m331.264 413.313-23.023-47.334-16.08 3.966 21.094 43.369c5.671 11.659 6.916 24.981 3.504 37.49l-10.288 37.713c-.567 2.079-1.594 3.838-2.919 5.242 6.621 7.01 18.384 4.083 20.928-5.242l10.288-37.713c3.412-12.509 2.167-25.831-3.504-37.491z" fill="#fec0dd"/></g><g><path d="m134.348 260.89 11.678 47.351-47.335 23.023c-11.659 5.671-24.981 6.916-37.49 3.504l-37.712-10.288c-9.355-2.552-12.273-14.384-5.177-20.992l28.605-26.643c9.488-8.837 21.861-13.929 34.82-14.329z" fill="#ffceec"/><path d="m365.979 203.765 11.678 47.351 52.612-1.626c12.959-.4 25.332-5.492 34.82-14.329l28.605-26.643c7.096-6.609 4.178-18.441-5.177-20.992l-37.713-10.288c-12.508-3.412-25.83-2.167-37.49 3.504z" fill="#ffceec"/><path d="m488.516 187.525-37.713-10.288c-7.577-2.067-15.45-2.413-23.073-1.114 1.698.291 3.389.657 5.064 1.114l37.713 10.288c9.355 2.552 12.273 14.384 5.177 20.993l-28.605 26.643c-9.488 8.837-21.861 13.929-34.82 14.329l-34.739 1.073.136.552 52.612-1.626c12.959-.401 25.333-5.492 34.82-14.329l28.605-26.643c7.096-6.609 4.178-18.44-5.177-20.992z" fill="#fec0dd"/></g></g></g><g><g><g><path d="m145.673 204.514-11.355 47.429-52.621-1.268c-12.962-.312-25.369-5.32-34.917-14.092l-28.785-26.448c-7.14-6.561-4.303-18.412 5.034-21.027l37.642-10.544c12.485-3.497 25.815-2.343 37.513 3.249z" fill="#ffceec"/><path d="m377.687 260.062-11.355 47.429 47.49 22.701c11.698 5.592 25.028 6.746 37.513 3.249l37.642-10.544c9.337-2.615 12.175-14.467 5.034-21.027l-28.785-26.448c-9.547-8.772-21.955-13.78-34.917-14.092z" fill="#ffceec"/><path d="m494.011 301.87-28.786-26.448c-9.547-8.772-21.955-13.78-34.917-14.092l-52.621-1.268-.103.431 34.716.836c12.962.312 25.369 5.32 34.917 14.092l28.785 26.448c7.14 6.561 4.303 18.412-5.034 21.027l-37.642 10.544c-1.799.504-3.617.9-5.444 1.211 7.753 1.325 15.763.943 23.453-1.211l37.642-10.544c9.336-2.614 12.174-14.466 5.034-21.026z" fill="#fec0dd"/></g><g><path d="m204.514 366.332 47.429 11.355-1.268 52.621c-.312 12.962-5.32 25.369-14.092 34.917l-26.448 28.785c-6.561 7.14-18.412 4.303-21.027-5.034l-10.544-37.642c-3.497-12.485-2.343-25.815 3.249-37.513z" fill="#ffceec"/><path d="m204.514 366.332-1.849 3.869 31.27 7.487-1.268 52.621c-.312 12.962-5.32 25.369-14.092 34.917l-26.448 28.786c-.041.044-.084.083-.125.127 4.658 4.94 13.01 5.45 18.134-.127l26.448-28.786c8.772-9.547 13.78-21.955 14.092-34.917l1.268-52.621z" fill="#fec0dd"/><path d="m260.062 134.318 47.429 11.355 22.701-47.49c5.592-11.698 6.746-25.028 3.249-37.513l-10.544-37.642c-2.615-9.337-14.467-12.175-21.027-5.034l-26.448 28.786c-8.772 9.547-13.78 21.955-14.092 34.917z" fill="#ffceec"/><path d="m333.441 60.671-10.544-37.642c-2.599-9.28-14.318-12.135-20.902-5.161 1.305 1.385 2.321 3.117 2.893 5.161l10.544 37.642c3.497 12.485 2.343 25.815-3.249 37.513l-20.851 43.621 16.16 3.869 22.701-47.49c5.59-11.698 6.745-25.028 3.248-37.513z" fill="#fec0dd"/></g></g><g><g><path d="m170.389 169.435-27.105 40.544-48.913-19.445c-12.048-4.79-21.948-13.791-27.859-25.331l-17.822-34.792c-4.421-8.63 2.352-18.761 12.017-17.975l38.962 3.17c12.923 1.052 25.024 6.759 34.056 16.062z" fill="#ffceec"/><path d="m368.721 302.027-27.105 40.544 36.665 37.767c9.031 9.303 21.133 15.01 34.056 16.062l38.962 3.17c9.665.786 16.438-9.344 12.017-17.975l-17.822-34.792c-5.911-11.54-15.811-20.541-27.859-25.331z" fill="#ffceec"/><path d="m463.315 381.595-17.822-34.792c-5.911-11.54-15.811-20.541-27.859-25.331l-48.913-19.445-3.781 5.656 34.686 13.789c12.048 4.79 21.948 13.791 27.859 25.331l17.822 34.792c3.43 6.696.12 14.292-6.05 16.995l12.042.98c9.664.786 16.436-9.345 12.016-17.975z" fill="#fec0dd"/></g><g><path d="m169.435 341.616 40.544 27.105-19.445 48.913c-4.79 12.048-13.791 21.948-25.331 27.859l-34.792 17.822c-8.63 4.421-18.761-2.352-17.975-12.017l3.17-38.962c1.052-12.923 6.759-25.024 16.062-34.056z" fill="#ffceec"/><path d="m302.027 143.285 40.544 27.105 37.767-36.665c9.303-9.031 15.01-21.133 16.062-34.056l3.17-38.962c.786-9.665-9.344-16.437-17.975-12.017l-34.792 17.822c-11.54 5.911-20.541 15.811-25.331 27.859z" fill="#ffceec"/><path d="m381.594 48.69-3.897 1.996c2.597 2.424 4.193 5.965 3.863 10.021l-3.17 38.962c-1.052 12.923-6.759 25.024-16.062 34.056l-30.422 29.535 10.665 7.13 37.767-36.665c9.303-9.031 15.01-21.133 16.062-34.056l3.17-38.962c.785-9.665-9.345-16.437-17.976-12.017z" fill="#fec0dd"/></g></g></g><g><g><path d="m280.387 136.717h-48.77l-11.019-51.47c-2.714-12.678-.733-25.911 5.575-37.238l19.019-34.152c4.718-8.472 16.904-8.472 21.621 0l19.019 34.152c6.308 11.328 8.289 24.56 5.575 37.238z" fill="#d691c6"/><path d="m285.832 48.009-19.019-34.152c-4.718-8.472-16.904-8.472-21.621 0l-.282.506 18.737 33.647c6.308 11.328 8.289 24.56 5.575 37.238l-11.019 51.47h22.185l11.019-51.47c2.714-12.679.733-25.912-5.575-37.239z" fill="#cd7cbb"/><path d="m280.387 375.288h-48.77l-11.019 51.47c-2.714 12.678-.733 25.911 5.575 37.238l19.019 34.152c4.718 8.472 16.904 8.472 21.621 0l19.019-34.152c6.308-11.328 8.289-24.56 5.575-37.238z" fill="#d691c6"/><path d="m291.406 426.758-11.019-51.47h-22.185l11.019 51.47c2.714 12.678.733 25.911-5.575 37.238l-18.737 33.647.282.506c4.718 8.472 16.904 8.472 21.621 0l19.019-34.152c6.309-11.328 8.29-24.56 5.575-37.239z" fill="#cd7cbb"/></g><g><path d="m136.712 231.623v48.76l-14.77 3.16-36.7 7.86c-12.67 2.72-25.91.74-37.23-5.57l-34.16-19.02c-8.47-4.72-8.47-16.9 0-21.62l34.16-19.02c11.32-6.31 24.56-8.29 37.23-5.57l36.7 7.86z" fill="#d691c6"/><path d="m136.712 231.623v48.76l-14.77 3.16c-.92-.44-1.83-.9-2.72-1.4l-29.92-16.67c-7.43-4.13-7.43-14.81 0-18.94l29.92-16.67c.89-.5 1.8-.96 2.72-1.4z" fill="#cd7cbb"/><path d="m375.288 231.618v48.77l51.47 11.019c12.678 2.714 25.911.733 37.238-5.575l34.152-19.019c8.472-4.718 8.472-16.904 0-21.621l-34.152-19.019c-11.328-6.308-24.56-8.289-37.238-5.575z" fill="#d691c6"/><path d="m498.149 245.192-34.152-19.019c-11.302-6.294-24.5-8.278-37.152-5.591 5.2 1.099 10.25 2.964 14.967 5.591l34.152 19.019c8.472 4.718 8.472 16.904 0 21.622l-34.152 19.019c-4.717 2.627-9.767 4.492-14.967 5.591 12.652 2.687 25.85.703 37.152-5.591l34.152-19.019c8.471-4.718 8.471-16.904 0-21.622z" fill="#cd7cbb"/></g></g><g><g><path d="m188.898 154.413-34.485 34.485-44.187-28.603c-10.884-7.046-18.84-17.803-22.389-30.273l-10.702-37.598c-2.654-9.326 5.962-17.943 15.289-15.289l37.598 10.701c12.47 3.549 23.228 11.505 30.273 22.389z" fill="#d691c6"/><path d="m160.294 110.226c-7.046-10.884-17.803-18.84-30.273-22.389l-37.597-10.702c-4.543-1.293-8.913.093-11.899 2.928l27.311 7.774c12.47 3.549 23.228 11.505 30.273 22.389l28.603 44.187-25.768 25.768 13.467 8.718 34.485-34.485z" fill="#cd7cbb"/><path d="m357.593 323.107-34.485 34.485 28.603 44.187c7.046 10.884 17.803 18.84 30.273 22.389l37.598 10.701c9.326 2.654 17.943-5.962 15.289-15.289l-10.701-37.598c-3.549-12.47-11.505-23.228-22.389-30.273z" fill="#d691c6"/><path d="m434.87 419.582-10.701-37.597c-3.549-12.47-11.505-23.228-22.389-30.273l-44.187-28.603-8.718 8.718 30.72 19.886c10.884 7.046 18.84 17.803 22.389 30.273l10.701 37.597c1.362 4.783-.246 9.376-3.39 12.361l10.286 2.928c9.327 2.653 17.944-5.964 15.289-15.29z" fill="#cd7cbb"/></g><g><path d="m154.412 323.107 34.485 34.485-28.603 44.187c-7.046 10.884-17.803 18.84-30.273 22.389l-37.597 10.702c-9.326 2.654-17.943-5.962-15.289-15.289l10.701-37.598c3.549-12.47 11.505-23.228 22.389-30.273z" fill="#d691c6"/><path d="m154.412 323.107-13.467 8.718 25.768 25.768-28.603 44.187c-7.046 10.884-17.803 18.84-30.273 22.389l-27.311 7.774c2.986 2.835 7.356 4.221 11.899 2.928l37.598-10.701c12.47-3.549 23.228-11.505 30.273-22.389l28.603-44.187z" fill="#cd7cbb"/><path d="m323.107 154.413 34.485 34.485 44.187-28.603c10.884-7.046 18.84-17.803 22.389-30.273l10.701-37.598c2.654-9.326-5.962-17.943-15.289-15.289l-37.598 10.701c-12.47 3.549-23.228 11.505-30.273 22.389z" fill="#d691c6"/><path d="m419.581 77.135-10.286 2.928c3.144 2.985 4.751 7.578 3.39 12.361l-10.701 37.597c-3.549 12.47-11.505 23.228-22.389 30.273l-30.72 19.886 8.718 8.718 44.187-28.603c10.884-7.046 18.84-17.803 22.389-30.273l10.701-37.597c2.655-9.327-5.962-17.944-15.289-15.29z" fill="#cd7cbb"/></g></g><g><g><path d="m247.095 172.596-47.344 21.183-33.052-45.179c-8.142-11.129-11.966-24.834-10.762-38.571l3.629-41.414c.9-10.273 12.73-15.566 20.989-9.391l33.296 24.893c11.044 8.256 18.714 20.242 21.586 33.728z" fill="#c365af"/><path d="m235.436 117.845c-2.872-13.486-10.542-25.471-21.586-33.728l-33.296-24.893c-6.176-4.618-14.348-2.821-18.454 2.674l29.719 22.219c11.044 8.257 18.714 20.242 21.586 33.728l11.659 54.751-30.745 13.756 5.433 7.427 47.344-21.183z" fill="#b2529f"/><path d="m312.253 318.226-47.344 21.183 11.659 54.751c2.872 13.486 10.542 25.471 21.586 33.728l33.296 24.893c8.259 6.175 20.089.882 20.989-9.391l3.629-41.414c1.204-13.736-2.621-27.442-10.762-38.571z" fill="#c365af"/><path d="m345.306 363.406-33.053-45.179-16.598 7.427 27.62 37.753c8.142 11.129 11.966 24.834 10.762 38.571l-3.629 41.414c-.227 2.591-1.15 4.864-2.535 6.717l3.577 2.674c8.259 6.175 20.089.882 20.989-9.391l3.629-41.414c1.204-13.738-2.62-27.444-10.762-38.572z" fill="#b2529f"/></g><g><path d="m193.782 312.253-45.18 33.05c-11.13 8.15-24.84 11.97-38.57 10.77l-3.72-.33-37.7-3.3c-10.27-.9-15.56-12.73-9.39-20.99l24.89-33.3c8.26-11.04 20.25-18.71 33.73-21.58l54.75-11.66 4.1 9.17z" fill="#c365af"/><path d="m318.226 199.752 21.183 47.344 54.751-11.659c13.486-2.872 25.471-10.542 33.728-21.586l24.893-33.296c6.175-8.259.882-20.089-9.391-20.989l-41.414-3.629c-13.736-1.204-27.442 2.621-38.571 10.762z" fill="#c365af"/><path d="m443.39 159.565-41.414-3.629c-4.959-.435-9.912-.204-14.743.639l34.126 2.99c10.273.9 15.566 12.73 9.391 20.989l-24.893 33.296c-8.256 11.044-20.242 18.714-33.728 21.586l-34.636 7.375 1.916 4.283 54.751-11.659c13.486-2.872 25.471-10.542 33.728-21.586l24.893-33.296c6.175-8.258.882-20.087-9.391-20.988z" fill="#b2529f"/></g></g><g><g><path d="m311.752 193.329-47.512-20.802 11.219-54.843c2.763-13.509 10.337-25.555 21.314-33.9l33.095-25.16c8.209-6.241 20.081-1.043 21.064 9.222l3.961 41.384c1.314 13.726-2.4 27.462-10.452 38.656z" fill="#c365af"/><path d="m354.893 109.23-3.961-41.384c-.983-10.266-12.855-15.463-21.064-9.222l-3.472 2.639c1.353 1.822 2.262 4.047 2.505 6.583l3.961 41.384c1.314 13.726-2.4 27.462-10.452 38.656l-27.412 38.108 16.755 7.335 32.689-45.443c8.05-11.194 11.764-24.93 10.451-38.656z" fill="#b2529f"/><path d="m247.765 339.478-47.512-20.802-32.689 45.443c-8.052 11.194-11.766 24.93-10.452 38.656l3.961 41.384c.983 10.265 12.855 15.463 21.064 9.222l33.095-25.16c10.977-8.345 18.551-20.391 21.314-33.9z" fill="#c365af"/><path d="m200.253 318.676-5.277 7.335 30.758 13.466-11.219 54.843c-2.763 13.509-10.337 25.555-21.314 33.9l-29.623 22.52c4.122 5.551 12.378 7.339 18.559 2.639l33.095-25.16c10.977-8.345 18.551-20.391 21.314-33.9l11.219-54.843z" fill="#b2529f"/></g><g><path d="m193.332 200.253-16.53 37.74-4.28 9.77-54.84-11.22c-13.51-2.76-25.55-10.33-33.9-21.31l-25.16-33.09c-6.24-8.21-1.04-20.09 9.22-21.07l38.79-3.71 2.6-.25c13.72-1.31 27.46 2.4 38.65 10.45z" fill="#c365af"/><path d="m339.478 264.24-20.802 47.512 45.443 32.689c11.194 8.052 24.93 11.766 38.656 10.452l41.384-3.961c10.265-.983 15.463-12.855 9.222-21.064l-25.16-33.095c-8.345-10.977-20.391-18.551-33.9-21.314z" fill="#c365af"/><path d="m453.381 329.868-25.16-33.095c-8.345-10.977-20.391-18.551-33.9-21.314l-54.843-11.219-1.811 4.136 34.623 7.082c13.509 2.763 25.555 10.337 33.9 21.314l25.16 33.095c6.241 8.209 1.043 20.081-9.222 21.064l-34.788 3.33c5.055.904 10.245 1.128 15.435.631l41.384-3.961c10.265-.982 15.463-12.854 9.222-21.063z" fill="#b2529f"/></g></g><g><g><path d="m242.572 205.903-.51.51-36.16 36.16-17.12-11.08-29.87-19.34c-11.58-7.49-20.04-18.93-23.82-32.19l-11.38-39.99c-2.82-9.92 6.34-19.08 16.26-16.26l39.99 11.38c13.26 3.78 24.7 12.24 32.19 23.82z" fill="#b2529f"/><path d="m242.062 206.413-36.16 36.16-17.12-11.08c8.61-15.46 25.13-25.92 44.08-25.92 3.14 0 6.22.29 9.2.84z" fill="#9a4588"/><path d="m212.156 158.908c-7.493-11.575-18.933-20.036-32.195-23.811l-39.985-11.381c-4.779-1.36-9.378.067-12.55 3.016l29.39 8.365c13.262 3.775 24.703 12.236 32.195 23.811l30.42 46.993-27.58 27.58 14.05 9.095 36.675-36.675z" fill="#9a4588"/><path d="m306.105 269.43-36.675 36.675 30.419 46.993c7.493 11.575 18.934 20.036 32.195 23.811l39.985 11.381c9.918 2.823 19.082-6.341 16.259-16.259l-11.381-39.985c-3.775-13.262-12.236-24.703-23.811-32.195z" fill="#b2529f"/><path d="m388.289 372.03-11.381-39.985c-3.775-13.262-12.236-24.703-23.811-32.195l-46.992-30.42-9.095 9.095 32.943 21.325c11.575 7.493 20.036 18.933 23.811 32.195l11.381 39.985c1.463 5.14-.298 10.073-3.71 13.244l10.595 3.016c9.918 2.822 19.082-6.342 16.259-16.26z" fill="#9a4588"/></g><g><path d="m306.105 242.576-36.675-36.675 30.419-46.992c7.493-11.575 18.934-20.036 32.195-23.811l39.985-11.381c9.918-2.823 19.082 6.341 16.259 16.259l-11.381 39.985c-3.775 13.262-12.236 24.703-23.811 32.195z" fill="#b2529f"/><path d="m372.029 123.716-10.595 3.016c3.412 3.171 5.172 8.104 3.71 13.244l-11.381 39.985c-3.775 13.262-12.236 24.703-23.811 32.195l-32.943 21.325 9.095 9.095 46.992-30.42c11.575-7.493 20.036-18.933 23.811-32.195l11.381-39.985c2.824-9.919-6.34-19.083-16.259-16.26z" fill="#9a4588"/><path d="m242.572 306.103-30.42 46.99c-7.49 11.58-18.93 20.04-32.19 23.82l-39.99 11.38c-9.92 2.82-19.08-6.34-16.26-16.26l11.38-39.99c3.78-13.26 12.24-24.7 23.82-32.19l29.87-19.34 17.12-11.08 36.16 36.16z" fill="#b2529f"/><g fill="#9a4588"><path d="m242.062 305.593c-2.98.55-6.06.84-9.2.84-18.95 0-35.47-10.46-44.08-25.92l17.12-11.08z"/><path d="m205.9 269.43-14.05 9.095 27.58 27.58-30.42 46.993c-7.493 11.575-18.933 20.036-32.195 23.811l-29.39 8.365c3.172 2.949 7.771 4.376 12.55 3.016l39.985-11.381c13.262-3.775 24.703-12.236 32.195-23.811l30.42-46.993z"/></g></g></g><g><g><path d="m277.37 218.989h-42.735l-9.656-45.102c-2.378-11.11-.643-22.705 4.885-32.631l16.665-29.927c4.134-7.423 14.812-7.423 18.946 0l16.665 29.927c5.528 9.926 7.263 21.521 4.885 32.631z" fill="#b2529f"/><path d="m282.141 141.256-16.665-29.927c-4.134-7.423-14.812-7.423-18.946 0l-2.099 3.77 14.566 26.157c5.528 9.926 7.263 21.521 4.885 32.631l-9.656 45.102h23.145l9.656-45.102c2.377-11.109.642-22.705-4.886-32.631z" fill="#9a4588"/><path d="m277.37 293.016h-42.735l-9.656 45.102c-2.378 11.109-.643 22.705 4.885 32.631l16.665 29.927c4.134 7.423 14.812 7.423 18.946 0l16.665-29.927c5.528-9.926 7.263-21.521 4.885-32.631z" fill="#b2529f"/><path d="m287.026 338.118-9.656-45.102h-23.145l9.656 45.102c2.378 11.11.643 22.705-4.885 32.631l-14.566 26.157 2.099 3.77c4.134 7.423 14.812 7.423 18.946 0l16.665-29.927c5.529-9.926 7.264-21.521 4.886-32.631z" fill="#9a4588"/></g><g><path d="m293.016 277.37v-42.735l45.102-9.656c11.109-2.378 22.705-.643 32.631 4.885l29.927 16.665c7.423 4.134 7.423 14.812 0 18.946l-29.927 16.665c-9.926 5.528-21.521 7.263-32.631 4.885z" fill="#b2529f"/><path d="m400.675 246.53-29.927-16.665c-9.926-5.527-21.521-7.263-32.631-4.885l-1.849.396c3.928.992 7.742 2.488 11.334 4.489l29.927 16.665c7.424 4.134 7.424 14.812 0 18.946l-29.927 16.665c-3.593 2.001-7.406 3.497-11.334 4.489l1.849.396c11.11 2.378 22.705.643 32.631-4.885l29.927-16.665c7.424-4.134 7.424-14.812 0-18.946z" fill="#9a4588"/><path d="m218.992 234.633v42.74l-28.43 6.08-16.68 3.57c-11.11 2.38-22.7.65-32.63-4.88l-29.92-16.67c-7.43-4.13-7.43-14.81 0-18.94l29.92-16.67c9.93-5.53 21.52-7.26 32.63-4.88l16.68 3.57z" fill="#b2529f"/><path d="m218.992 234.633v42.74l-28.43 6.08c-5.14-7.9-8.13-17.33-8.13-27.45s2.99-19.55 8.13-27.45z" fill="#9a4588"/></g></g><circle cx="256.002" cy="256.003" fill="#fea95c" r="50.426"/><path d="m256.002 205.577c-3.984 0-7.855.476-11.572 1.35 22.269 5.232 38.854 25.211 38.854 49.076s-16.585 43.844-38.854 49.076c3.718.874 7.588 1.35 11.572 1.35 27.85 0 50.426-22.576 50.426-50.426s-22.576-50.426-50.426-50.426z" fill="#fe9738"/></g><path d="m492.412 329.659c6.323-2.268 10.966-7.423 12.554-14.048 1.704-7.113-.493-14.313-5.881-19.263l-14.554-13.368 17.273-9.617c6.388-3.56 10.201-10.05 10.201-17.361s-3.813-13.801-10.204-17.363l-18.425-10.259 15.423-14.375c5.355-4.979 7.509-12.192 5.76-19.295-1.634-6.632-6.326-11.769-12.684-13.99l13.259-17.608c4.062-5.396 4.853-12.303 2.115-18.475-2.735-6.167-8.379-10.213-15.096-10.825l-22.709-2.071c2.951-6.375 2.382-13.594-1.587-19.449-4.105-6.059-10.901-9.298-18.206-8.651l-10.437.922 2.872-10.092c1.998-7.035.104-14.321-5.064-19.49-5.169-5.168-12.452-7.062-19.493-5.062l-11.446 3.257.964-11.87c.588-7.287-2.691-14.062-8.771-18.125-5.642-3.771-12.523-4.411-18.689-1.817l-2.058-21.838c-.628-6.72-4.688-12.355-10.863-15.076-6.18-2.723-13.083-1.914-18.474 2.165l-18.256 13.831c-2.097-6.754-7.406-11.747-14.324-13.406-7.114-1.705-14.314.493-19.264 5.88l-13.368 14.555-9.617-17.272c-3.559-6.389-10.049-10.203-17.36-10.203-7.311 0-13.802 3.814-17.363 10.205l-10.258 18.424-14.375-15.422c-4.978-5.356-12.192-7.509-19.295-5.76-6.632 1.633-11.769 6.325-13.99 12.684l-17.61-13.261c-5.396-4.061-12.302-4.85-18.475-2.114-6.167 2.735-10.213 8.379-10.825 15.096l-2.071 22.709c-6.376-2.952-13.594-2.382-19.45 1.587-6.058 4.106-9.292 10.911-8.65 18.205l.922 10.437-10.092-2.872c-7.036-1.999-14.321-.105-19.49 5.064s-7.062 12.455-5.062 19.495l3.257 11.445-11.869-.964c-7.287-.591-14.063 2.69-18.125 8.77s-4.498 13.596-1.165 20.105l12.931 25.241c-1.987 1.876-3.616 4.171-4.771 6.81-1.185 2.705-1.763 5.53-1.766 8.33l-13.305 3.728-16.964-22.194c-.853-1.183-.954-3.935 1.298-5.093 3.808-1.629 5.575-6.037 3.945-9.846-1.629-3.808-6.038-5.575-9.846-3.945-1.541.659-2.982 1.529-4.28 2.582-7.776 6.304-9.109 17.466-3.035 25.413l13.368 17.489c-6.322 2.267-10.965 7.422-12.553 14.047-1.705 7.112.493 14.313 5.88 19.263l14.555 13.368-17.272 9.617c-6.389 3.558-10.202 10.048-10.202 17.36s3.813 13.802 10.204 17.363l18.425 10.259-15.422 14.375c-5.356 4.979-7.51 12.191-5.76 19.295 1.634 6.635 6.328 11.772 12.687 13.991l-13.264 17.607c-4.061 5.396-4.852 12.303-2.114 18.475 2.735 6.167 8.379 10.213 15.096 10.825l22.709 2.071c-2.951 6.375-2.382 13.594 1.587 19.45 5.39 9.358 18.669 9.418 28.643 7.728l-2.872 10.092c-1.998 7.035-.105 14.321 5.064 19.49 3.813 3.813 8.778 5.844 13.947 5.844 1.709.542 14.549-3.346 16.992-4.038l-.964 11.869c-.589 7.287 2.689 14.062 8.77 18.125 3.369 2.251 7.177 3.389 11.012 3.388 2.591 0 5.192-.527 7.678-1.572l2.058 21.84c.627 6.72 4.688 12.355 10.863 15.076 2.417 1.065 4.944 1.589 7.449 1.589 3.899 0 7.742-1.271 11.023-3.754l18.257-13.831c2.098 6.755 7.407 11.748 14.325 13.407 5.323 1.617 14.527-.39 19.263-5.88l13.368-14.554 9.617 17.272c3.56 6.388 10.05 10.202 17.362 10.202 7.311 0 13.801-3.814 17.362-10.204l10.259-18.425 14.376 15.421c4.644 4.488 11.299 7.718 19.294 5.761 6.635-1.634 11.773-6.328 13.992-12.688l17.607 13.264c3.272 2.462 7.1 3.723 10.981 3.723 2.521 0 5.063-.531 7.493-1.609 6.166-2.735 10.213-8.378 10.823-15.095l2.071-22.706c5.119 2.311 12.659 2.883 19.451-1.591 6.059-4.106 9.292-10.911 8.649-18.205l-.922-10.438 10.093 2.872c4.983 1.786 14.43.304 19.489-5.063 5.169-5.169 7.062-12.455 5.063-19.494l-3.257-11.446c10.158 1.261 23.171 2.775 29.995-7.806 4.062-6.081 4.497-13.597 1.163-20.105l-12.931-25.241c3.552-4.195 5.772-5.953 6.539-15.14l13.304-3.727 16.965 22.193c.612.801.826 1.691.634 2.645-.194.967-.796 1.822-1.606 2.287-3.594 2.061-4.836 6.644-2.775 10.237 1.386 2.417 3.913 3.771 6.513 3.771 1.266 0 2.548-.321 3.724-.995 4.573-2.623 7.799-7.119 8.851-12.338 1.037-5.15-.21-10.514-3.421-14.716zm-3.474-22.263c1.902 1.748 1.642 3.883 1.441 4.719-.201.837-.937 2.859-3.431 3.556l-28.8 8.069-18.01-23.687c9.591-.176 21.589-3.852 30.587-9.385zm-86.879 40.031c-4.39.419-8.784.248-13.113-.5-4.749-19.808-11.786-40.428-30.4-52.415 8.236-1.074 21.166-8.683 28.525-12.875 13.383 2.042 26.329 7.908 35.18 19.675l25.16 33.089c2.186 3.06 1.067 8.713-3.964 9.066zm-106.431 68.067c-7.074-7.266-11.557-19.3-13.203-29.841 4.549-8.173 10.186-17.046 12.091-27.1 10.704 17.883 34.22 26.34 53.662 30.744.745 3.822.669 11.527-.021 17.083l-3.187 36.356c-.451 3.381-4.5 7.271-9.028 4.038-6.295-5.083-35.695-25.641-40.314-31.28zm-84.935 6.759-33.089 25.159c-3.592 1.957-7.363 1.743-9.066-3.963l-3.96-41.389c-.419-4.39-.248-8.784.5-13.114 19.519-4.488 40.994-12.324 52.415-30.372 1.08 8.225 8.691 21.147 12.876 28.497-1.743 13.087-8.463 26.858-19.676 35.182zm-100.006-73.652c-3.061-.268-38.047-3.334-41.42-3.63-2.987-.262-4.259-2.412-4.667-3.324-.409-.914-1.167-3.299.63-5.704l24.888-33.297c7.906-11.244 22.362-18.233 36.233-20.22 8.168 4.547 17.039 10.179 27.088 12.081-19.177 12.154-25.925 34.135-30.731 53.672-3.977.629-8.005.773-12.021.422zm-20.935-137.908-25.159-33.089c-1.818-2.392-1.079-4.785-.677-5.703.401-.917 1.657-3.078 4.64-3.363 11.124-.569 43.864-5.638 54.503-3.46 4.488 19.519 12.324 40.993 30.371 52.415-8.225 1.08-21.146 8.692-28.497 12.876-13.085-1.742-26.857-8.463-35.181-19.676zm86.31-145.463 33.297 24.888c11.244 7.906 18.233 22.362 20.22 36.233-4.545 8.166-10.18 17.035-12.086 27.08-12.154-19.172-34.133-25.918-53.667-30.724-.752-3.85-.662-11.588.029-17.173l3.178-36.267c.262-2.987 2.412-4.259 3.324-4.667.914-.409 3.301-1.166 5.705.63zm125.249 24.523 33.09-25.159c2.394-1.818 4.783-1.079 5.703-.677.916.401 3.077 1.657 3.362 4.64l3.96 41.39c.552 5.777.087 11.566-1.382 17.206-1.334 5.012 3.297 10.863 9.311 9.104l18.729-5.329c2.884-.823 4.846.734 5.554 1.441.707.707 2.263 2.664 1.442 5.549l-11.38 39.989c-3.141 10.617-9.911 20.963-20.684 27.95l-21.049 13.628-23.399 5.005c-4.431-6.806-10.249-12.623-17.054-17.055l5.005-23.398 13.63-21.052c4.324-6.685 10.275-12.286 17.212-16.197 3.608-2.034 4.884-6.608 2.85-10.217-2.034-3.607-6.609-4.884-10.217-2.849-8.552 4.822-15.933 11.632-21.479 19.724-1.079-8.231-8.691-21.157-12.879-28.513 1.742-13.084 8.462-26.856 19.675-35.18zm100.006 73.651c2.721.239 38.406 3.366 41.421 3.63 2.987.262 4.26 2.412 4.668 3.325.409.914 1.166 3.299-.632 5.706l-24.887 33.295c-7.906 11.245-22.362 18.232-36.233 20.22-8.636-4.628-16.219-10.041-27.053-12.085.631-.449.382-.272 1.587-1.139 16.437-10.395 24.725-33.145 29.115-52.533 3.973-.629 7.999-.77 12.014-.419zm-4.296 95.518-29.918 16.669c-8.338 4.643-18.075 6.097-27.41 4.098l-28.489-6.094c1.768-5.574 2.724-11.488 2.724-17.592 0-6.131-.965-12.039-2.738-17.589l28.504-6.097c13.971-3.966 29.69 4.793 41.137 11.747l16.197 9.024c1.494.83 1.717 2.183 1.717 2.915s-.223 2.085-1.724 2.919zm-121.432-114.02c4.645 8.339 6.1 18.073 4.099 27.411l-6.096 28.502c-5.55-1.773-11.458-2.739-17.589-2.739s-12.039.965-17.59 2.739l-6.097-28.503c-2-9.337-.544-19.072 4.098-27.408l16.674-29.927c.831-1.494 2.183-1.717 2.915-1.717s2.084.223 2.919 1.724zm-97.683-2.597c11.521 3.285 21.447 10.629 27.95 20.684l13.629 21.049 5.005 23.398c-6.806 4.431-12.623 10.249-17.055 17.055l-23.398-5.005-21.052-13.63c-10.052-6.501-17.396-16.427-20.68-27.945l-11.379-39.988c-.822-2.89.734-4.847 1.441-5.554.707-.708 2.666-2.263 5.553-1.442zm-62.922 110.779 29.917-16.668c8.338-4.644 18.073-6.099 27.411-4.099l28.502 6.097c-1.773 5.55-2.739 11.458-2.739 17.589 0 6.081.94 12.001 2.713 17.595l-28.477 6.091c-9.337 2-19.072.544-27.408-4.098l-29.927-16.674c-1.494-.831-1.717-2.183-1.717-2.915s.224-2.084 1.725-2.918zm15.942 121c7.837-22.71 9.33-53.934 32.062-67.935l21.049-13.629 23.331-4.991c4.374 6.745 10.166 12.586 17.113 17.082l-4.996 23.356-13.63 21.052c-12.024 21.745-47.909 25.202-67.933 32.059-2.89.823-4.847-.734-5.554-1.441s-2.263-2.664-1.442-5.553zm105.489-6.98c-4.644-8.338-6.099-18.073-4.099-27.411l7.97-37.262c.643-3.053-.755-6.686-3.902-8.235-13.898-7.136-23.112-21.593-23.309-38.193 0-23.669 19.257-42.926 42.926-42.926s42.926 19.257 42.926 42.926c.173 18.627-13.134 36.979-32.534 41.662-4.02.999-6.469 5.067-5.47 9.087.848 3.413 3.907 5.693 7.272 5.693.762.002 2.699-.363 5.396-1.248l6.095 28.498c2.001 9.336.546 19.07-4.098 27.407l-16.674 29.927c-.83 1.493-2.182 1.716-2.914 1.716s-2.084-.223-2.919-1.724zm120.619 9.127c-17.947-5.034-40.263-9.126-50.886-27.214l-13.629-21.05-4.99-23.33c6.885-4.455 12.699-10.303 17.104-17.108l23.333 4.991 21.052 13.63c16.738 9.196 22.442 32.508 26.73 49.206l5.326 18.717c.587 3.927-1.018 7.519-6.991 7.007zm139.971-120.228c0 .861-.244 3-2.501 4.257l-34.163 19.022c-9.474 5.404-22.68 7.275-34.007 4.358-5.996-5.474-12.929-9.727-20.454-12.594 4.952-3.418 7.864-8.913 7.864-15.043 0-6.626-3.399-12.512-9.1-15.829 7.08-2.617 13.636-6.445 19.37-11.316 14.001-4.398 30.613-.771 43.156 7.668l27.331 15.218c2.26 1.259 2.504 3.398 2.504 4.259zm-8.425-52.977-18.976 17.687c-8.113-4.988-20.457-8.78-30.901-8.796l18.757-25.094 29.082 7.936c2.498.68 3.247 2.701 3.453 3.539.205.835.479 2.966-1.415 4.728zm4.958-52.307c.298.672.644 2.003-.387 3.372l-16.818 22.334-13.406-3.658c.005-2.873-.593-5.771-1.831-8.537-1.143-2.553-2.732-4.778-4.657-6.608l5.778-11.476 28.575 2.606c1.698.154 2.449 1.299 2.746 1.967zm-42.569-32.135c2.599-.228 3.987 1.41 4.472 2.124.482.711 1.478 2.614.313 4.92l-13.256 26.328-19.709-1.728c3.827-5.495 6.736-11.608 8.597-18.153l3.434-12.066zm-29.338-34.237c2.489-.708 4.176.632 4.785 1.241.608.609 1.949 2.294 1.242 4.782l-10.7 37.602c-2.251 7.917-6.536 14.999-12.457 20.653-2.833-.266-5.776-.487-10.784-.313 3.316-8.38 3.961-19.236-3.473-26.551-6.557-7.407-18.654-6.752-27.729-3.139.206-3.329.165-6.673-.15-10.016 5.802-6.496 13.236-11.164 21.671-13.561zm-31.686-28.693c.716.479 2.36 1.87 2.152 4.441l-1.419 17.465c-9.969 2.643-21.22 5.787-30.087 12.491l-2.022-21.137 26.443-13.547c2.301-1.179 4.216-.192 4.933.287zm-32.697-37.081c1.368-1.035 2.698-.693 3.371-.397.67.295 1.817 1.044 1.977 2.75l2.614 27.732-12.278 6.29c-3.07-3.119-8.143-6.348-15.14-6.538l-3.489-12.453zm-49.852 4.494c1.747-1.902 3.883-1.641 4.72-1.441.837.201 2.857.936 3.555 3.43l8.069 28.801-23.699 18.019c-.174-9.593-3.837-21.596-9.373-30.596zm-55.652-5.563c1.259-2.26 3.398-2.503 4.259-2.503s2.999.244 4.257 2.501l19.022 34.163c5.404 9.472 7.276 22.678 4.358 34.003-5.446 5.967-9.709 12.913-12.589 20.466-3.417-4.958-8.915-7.873-15.048-7.873-6.626 0-12.512 3.4-15.829 9.1-2.617-7.08-6.445-13.635-11.316-19.369-4.382-13.966-.796-30.56 7.626-43.08zm-56.985 7.96c.68-2.498 2.701-3.247 3.539-3.453.835-.208 2.966-.48 4.729 1.415l17.687 18.975c-4.988 8.113-8.779 20.456-8.795 30.901l-25.095-18.756zm-44.04-6.996c.671-.297 2.003-.644 3.372.386l22.334 16.818-3.658 13.406c-4.252.071-10.302 1.57-15.145 6.488l-11.476-5.778 2.606-28.575c.154-1.698 1.298-2.449 1.967-2.745zm-32.136 42.567c-.228-2.583 1.41-3.987 2.124-4.471.712-.482 2.614-1.476 4.921-.314l26.328 13.257-1.727 19.709c-7.108-5.558-20.753-9.573-30.218-12.031zm-32.995 24.554c.609-.608 2.294-1.947 4.782-1.242l37.601 10.7c7.918 2.251 15 6.537 20.654 12.458-.266 2.833-.487 5.773-.312 10.782-8.381-3.314-19.238-3.959-26.552 3.475-7.408 6.556-6.751 18.653-3.138 27.728-3.328-.206-6.672-.165-10.016.15-6.495-5.802-11.163-13.235-13.561-21.669l-10.699-37.598c-.707-2.49.632-4.175 1.241-4.784zm-29.934 36.471c.479-.716 1.865-2.358 4.441-2.152l17.465 1.419c2.643 9.969 5.787 21.22 12.491 30.086l-21.137 2.022-13.546-26.442c-1.179-2.301-.193-4.216.286-4.933zm-32.587 82.55c-1.903-1.748-1.642-3.883-1.441-4.72s.936-2.858 3.43-3.556l28.8-8.069 18.019 23.698c-9.594.174-21.596 3.838-30.596 9.374zm-8.067 51.393c0-.861.244-3 2.501-4.257l34.163-19.022c9.473-5.404 22.679-7.276 34.004-4.358 5.967 5.446 12.913 9.709 20.466 12.589-4.958 3.417-7.873 8.915-7.873 15.049 0 6.626 3.4 12.512 9.1 15.829-7.08 2.617-13.635 6.445-19.369 11.316-13.965 4.382-30.558.797-43.08-7.626l-27.407-15.26c-2.261-1.261-2.505-3.399-2.505-4.26zm8.426 52.976 18.975-17.687c8.113 4.99 20.458 8.776 30.904 8.791l-18.76 25.099-29.082-7.936c-2.498-.68-3.247-2.701-3.453-3.539-.205-.834-.479-2.966 1.416-4.728zm-4.959 52.307c-.298-.671-.644-2.003.385-3.371l16.824-22.333 13.401 3.657c-.005 2.873.593 5.771 1.831 8.537 1.143 2.553 2.732 4.778 4.657 6.608l-5.779 11.477-28.575-2.606c-1.696-.156-2.447-1.3-2.744-1.969zm42.568 32.136c-2.586.227-3.987-1.41-4.471-2.124-.482-.711-1.478-2.614-.313-4.922l13.256-26.326 19.709 1.727c-5.558 7.108-9.573 20.753-12.031 30.218zm29.338 34.236c-2.49.708-4.176-.632-4.785-1.241s-1.949-2.294-1.243-4.781l10.701-37.602c2.251-7.918 6.537-15 12.458-20.654 4.06.213 2.425.535 10.78.319l-1.787 6.283c-2.079 7.313-.111 14.887 5.264 20.262 3.964 3.965 9.126 6.075 14.498 6.075 1.175.478 10.839-2.16 13.231-2.937-.206 3.328-.165 6.672.15 10.016-5.802 6.496-13.235 11.164-21.67 13.561zm31.687 28.693c-.716-.479-2.36-1.87-2.152-4.441l1.419-17.465 10.746-3.058c7.041-2.001 13.557-5.195 19.34-9.433l2.022 21.137-26.442 13.546c-2.301 1.18-4.216.193-4.933-.286zm32.697 37.081c-1.368 1.036-2.699.693-3.371.397-.67-.295-1.817-1.044-1.977-2.75l-2.613-27.732 12.278-6.29c1.876 1.987 4.171 3.616 6.81 4.771 2.705 1.185 5.531 1.769 8.332 1.772l3.487 12.448zm49.852-4.494c-1.747 1.903-3.883 1.642-4.72 1.441s-2.858-.936-3.556-3.43l-8.069-28.8 23.699-18.019c.174 9.594 3.837 21.596 9.373 30.596zm55.651 5.564c-1.259 2.259-3.397 2.503-4.258 2.503s-3-.244-4.257-2.501l-19.022-34.163c-5.404-9.472-7.276-22.678-4.358-34.004 5.446-5.967 9.709-12.913 12.589-20.465 3.417 4.958 8.915 7.873 15.049 7.873 6.625 0 12.51-3.399 15.826-9.098 2.607 7.046 6.431 13.611 11.316 19.36 3.224 11.216 2.35 25.436-3.866 36.337zm56.987-7.961c-.681 2.498-2.702 3.247-3.539 3.454-.835.206-2.967.48-4.729-1.416l-17.687-18.975c4.988-8.113 8.779-20.457 8.795-30.902l25.095 18.757zm44.039 6.997c-.67.297-2.003.643-3.37-.385l-22.334-16.824 3.654-13.392c4.305-.045 10.496-1.663 15.147-6.496l11.476 5.779-2.606 28.575c-.154 1.695-1.298 2.446-1.967 2.743zm32.135-42.568c.227 2.582-1.409 3.987-2.124 4.471-.711.482-2.613 1.478-4.922.313l-26.325-13.255 1.727-19.709c7.107 5.557 20.753 9.572 30.218 12.03zm32.996-24.553c-.608.608-2.287 1.948-4.781 1.242l-37.602-10.701c-7.918-2.251-15-6.538-20.654-12.459.266-2.832.487-5.773.312-10.781 21.515 8.879 39.426-7.787 29.694-31.191 2.354.064 3.407.323 10.012-.163 6.495 5.802 11.163 13.235 13.561 21.67l10.699 37.596c.708 2.493-.633 4.178-1.241 4.787zm29.934-36.472c-.478.717-1.87 2.364-4.441 2.152l-17.465-1.419c-2.644-9.969-5.787-21.22-12.491-30.086l21.138-2.022 13.546 26.443c1.178 2.301.192 4.216-.287 4.932z"/></g></svg>