<svg id="Capa_1" enable-background="new 0 0 512 512" height="512" viewBox="0 0 512 512" width="512" xmlns="http://www.w3.org/2000/svg"><g><g><path d="m256 116.31v52.05l-41.83 14.12-37.57-48.93c-13.99-12.96-21.94-31.16-21.94-50.22v-13.62c0-6.85 7.51-11.05 13.35-7.47l35.57 21.86z" fill="#fe646f"/><path d="m256 116.31v45.46c-5.98 4.16-13.24 6.59-21.07 6.59-20.43 0-36.99-16.57-36.99-36.99v-23.64c0-8.24 1.94-16.33 5.64-23.63z" fill="#fd4755"/><path d="m168.006 62.244c-5.836-3.586-13.344.613-13.344 7.463v3.321c2.662-1.689 6.198-1.98 9.278-.087l70.987 43.37v52.045l-25.093 8.473 4.339 5.65 41.827-14.124v-52.045z" fill="#fd4755"/><path d="m256 116.311v52.045l41.827 14.123 37.575-48.929c13.987-12.956 21.937-31.158 21.937-50.223v-13.621c0-6.85-7.508-11.049-13.344-7.463z" fill="#fe646f"/><path d="m343.994 62.244-11.388 6.997c2.167 1.546 3.659 4.064 3.659 7.113v6.971c0 19.065-7.95 37.267-21.937 50.223l-33.236 43.279 16.734 5.65 37.575-48.929c13.987-12.956 21.937-31.158 21.937-50.223v-13.619c.001-6.849-7.508-11.048-13.344-7.462z" fill="#fd4755"/><path d="m353.262 504.5h-194.524l-18.697-160.26c-3.307-28.344-2.448-57.02 2.55-85.115l6.438-36.192c5.617-31.576 33.071-54.578 65.143-54.578h83.654c32.072 0 59.526 23.001 65.143 54.578l6.438 36.192c4.998 28.095 5.857 56.771 2.55 85.115z" fill="#9be69d"/><path d="m369.408 259.125-6.438-36.192c-5.617-31.576-33.071-54.578-65.143-54.578h-21.073c32.072 0 59.526 23.001 65.143 54.578l6.438 36.192c4.998 28.095 5.857 56.771 2.55 85.115l-18.696 160.26h21.073l18.697-160.26c3.306-28.344 2.447-57.02-2.551-85.115z" fill="#6fd7a3"/><path d="m294.25 504.5h-76.5l-7.353-160.26c-1.3-28.344-.963-57.02 1.003-85.115l2.532-36.192c2.209-31.576 13.006-54.578 25.619-54.578h32.899c12.613 0 23.41 23.001 25.619 54.578l2.532 36.192c1.965 28.095 2.303 56.771 1.003 85.115z" fill="#6fd7a3"/><path d="m300.6 259.125-2.532-36.192c-2.209-31.576-13.006-54.578-25.619-54.578h-21.073c12.613 0 23.41 23.001 25.619 54.578l2.532 36.192c1.965 28.095 2.303 56.771 1.003 85.115l-7.353 160.26h21.073l7.353-160.26c1.3-28.344.962-57.02-1.003-85.115z" fill="#3ec3a4"/><path d="m256 168.355c-20.429 0-36.99-16.561-36.99-36.99v-23.637c0-10.413 3.105-20.59 8.919-29.23l21.304-31.66c3.233-4.804 10.302-4.804 13.534 0l21.304 31.66c5.814 8.64 8.919 18.817 8.919 29.23v23.637c0 20.429-16.561 36.99-36.99 36.99z" fill="#fe646f"/><path d="m284.071 78.499-21.304-31.659c-3.233-4.804-10.302-4.804-13.535 0l-6.559 9.747c2.802-.239 5.706.941 7.47 3.562l12.854 18.35c5.814 8.64 8.919 18.817 8.919 29.23v23.637c0 16.767-11.159 30.92-26.453 35.458 3.34.991 6.875 1.531 10.536 1.531 20.429 0 36.99-16.561 36.99-36.99v-23.637c.001-10.413-3.104-20.59-8.918-29.229z" fill="#fd4755"/></g><path d="m412.449 497h-50.762l5.547-47.546 23.048-14.776c3.487-2.235 4.502-6.874 2.266-10.361-2.235-3.488-6.875-4.502-10.361-2.266l-12.706 8.146 9.636-82.598c.48-4.114-2.466-7.839-6.58-8.318-4.1-.488-7.839 2.465-8.318 6.58l-11.467 98.29c-.001.011-.002.021-.004.032l-6.162 52.817h-52.336-69.336l-7.024-153.104c-.56-12.189-.814-24.586-.76-36.847-.204-9.26-14.181-10.077-15-.066-.056 12.51.205 25.161.775 37.601l3.388 73.853-13.411-12.74c-3.003-2.853-7.749-2.731-10.604.271-2.853 3.003-2.731 7.751.271 10.604l24.735 23.499 2.612 56.93h-44.484l-17.923-153.629c-3.224-27.639-2.388-55.542 2.484-82.933l6.438-36.191c4.448-25.006 24.253-43.883 48.685-47.679 2.714-.489 8.755-.819 13.52-.713-6.404 10.843-10.8 26.994-12.168 46.555 0 0-3.075 44.468-3.291 48.568-.653 4.835 6.884 11.37 12.696 5.86l26.278-25.351c2.981-2.876 3.066-7.624.19-10.604s-7.624-3.067-10.604-.19l-12.345 11.909 2.038-29.146c1.006-14.372 3.923-27.322 8.216-36.467 3.857-8.219 7.756-11.135 9.922-11.135h32.898c2.166 0 6.064 2.916 9.922 11.135 4.293 9.145 7.21 22.095 8.216 36.467l2.531 36.191c1.947 27.826 2.28 56.172.992 84.248l-5.763 125.612c-.189 4.138 3.011 7.646 7.148 7.836.117.005.233.008.35.008 3.983 0 7.302-3.136 7.486-7.156l5.615-122.391 23.651-20.449c3.134-2.71 3.478-7.445.769-10.579-2.709-3.133-7.445-3.476-10.579-.769l-13.121 11.344c.522-22.981.004-46.034-1.585-68.751l-2.531-36.191c-1.368-19.561-5.764-35.712-12.168-46.555 29.565-1.986 57.068 18.76 62.205 48.392 1.54 8.656 4.912 27.613 6.438 36.191 2.982 16.771 4.464 33.909 4.402 50.938-.015 4.143 3.331 7.513 7.473 7.527h.028c4.129 0 7.484-3.34 7.499-7.473.064-17.926-1.494-35.967-4.635-53.62l-1.817-10.214 18.669-15.572c3.182-2.653 3.609-7.383.956-10.563-2.654-3.182-7.385-3.609-10.563-.956l-12.087 10.082-1.595-8.968c-6.617-38.791-42.613-63.833-81.082-60.765 6.972-7.857 11.218-18.185 11.218-29.49v-23.637c0-3.2-.261-6.37-.76-9.49l48.18-29.604c.2.089 1.255-.855 1.93 1.075 1.566 21.06-3.074 43.779-19.536 58.338-.465.303-4.749 6.049-5.623 7.148-2.522 3.286-1.903 7.994 1.382 10.517 2.062 1.652 7.04 2.576 10.517-1.382l4.395-5.724c15.175-14.306 23.866-34.415 23.866-55.277v-13.618c.336-11.505-13.704-20.621-24.776-13.859l-38.753 23.812 8.472-52.789c.656-4.09-2.127-7.938-6.217-8.594-4.092-.652-7.938 2.128-8.594 6.217l-7.356 45.836-18.627-27.682c-1.426-2.119-3.319-3.816-5.489-5.001v-30.15c0-4.143-3.357-7.5-7.5-7.5s-7.5 3.357-7.5 7.5v30.151c-2.171 1.185-4.064 2.882-5.49 5.001l-19.978 29.691-7.678-47.845c-.657-4.09-4.507-6.873-8.594-6.217-4.09.656-6.873 4.504-6.217 8.594l8.289 51.647-36.901-22.676c-9.627-6.299-24.744.898-24.77 13.864v13.62c0 20.862 8.691 40.972 23.867 55.277l19.95 25.985c-25.1 8.307-44.483 29.769-49.332 57.028l-6.438 36.191c-.891 5.008-1.645 10.033-2.28 15.068l-16.401-13.319c-3.217-2.611-7.939-2.119-10.551 1.094-2.611 3.216-2.121 7.939 1.094 10.551l24.139 19.604c-1.181 18.077-.724 36.242 1.383 54.301l16.448 140.989-17.574-15.318c-3.122-2.724-7.86-2.397-10.581.726-2.722 3.122-2.397 7.859.726 10.581l17.11 14.912h-39.17c-4.143 0-7.5 3.357-7.5 7.5s3.357 7.5 7.5 7.5h312.898c4.143 0 7.5-3.357 7.5-7.5s-3.356-7.5-7.499-7.5zm-156.995-445.974c.018.086.484-.653 1.091 0l21.304 31.659c4.401 6.637 7.58 15.282 7.642 25.043v23.637c0 13.67-9.35 25.194-21.99 28.521v-43.576c0-4.143-3.357-7.5-7.5-7.5s-7.5 3.357-7.5 7.5v43.576c-12.64-3.327-21.99-14.851-21.99-28.521v-23.637c-.061-7.733 2.356-17.055 7.642-25.042zm-72.905 77.956c-5.894-7.277-20.624-28.451-20.389-45.652v-13.62c.181-.126-.073-1.508 1.923-1.08l48.187 29.609c-1.173 4.717-.664 27.914-.76 33.127 0 11.306 4.246 21.633 11.218 29.49-5.304.047-9.508-.178-15.458.325z"/></g></svg>