<svg id="Capa_1" enable-background="new 0 0 512 512" height="512" viewBox="0 0 512 512" width="512" xmlns="http://www.w3.org/2000/svg"><g><g><path d="m362.197 338.387c3.554 2.028 6.989 4.349 10.255 6.99l24.195 19.567h68.163l-43.433-35.126c-17.059-13.796-40.531-15.504-59.179-5.126v13.695z" fill="#a44f3e"/><g><g><g><ellipse cx="256.98" cy="108.597" fill="#1ee6a6" rx="29.868" ry="75.349" transform="matrix(.707 -.707 .707 .707 -1.522 213.52)"/></g><g><path d="m261.333 121.666c-19.516-19.516-30.7-43.062-32.238-63.818-8.818-2.418-17.436-3.294-25.395-2.532-2.201 22.989 9.237 51.476 32.16 74.4s51.411 34.361 74.4 32.16c.327-3.417.346-6.958.077-10.582-16.652-4.566-34.017-14.641-49.004-29.628z" fill="#0ed290"/></g></g><g><g><ellipse cx="432.767" cy="64.857" fill="#1ee6a6" rx="75.349" ry="29.868" transform="matrix(.707 -.707 .707 .707 80.894 325.008)"/></g><g><path d="m430.333 56.427c16.947-16.946 36.932-27.607 55.491-31.13.562-4.723.644-9.323.223-13.72-22.989-2.201-51.476 9.237-74.4 32.16-22.923 22.923-34.361 51.41-32.16 74.4 5.994.574 12.364.212 18.909-1.031 2.376-19.965 13.398-42.141 31.937-60.679z" fill="#0ed290"/></g></g><path d="m362.197 338.387v-209.818c0-.696-.203-1.378-.584-1.961l-22.7-34.736c-1.949-2.983-6.584-1.603-6.584 1.961v234.937c10.362 1.094 20.543 4.297 29.868 9.617z" fill="#ffbd86"/><path d="m347.132 331.826v-227.376l-8.219-12.577c-1.949-2.983-6.584-1.602-6.584 1.961v234.936c5.002.528 9.961 1.544 14.803 3.056z" fill="#f6a96c"/></g><path d="m494.5 364.944h-271.252c-17.706 0-34.344 8.464-44.771 22.774-21.997 30.192-66.961 30.4-89.237.414l-.614-.827c-10.45-14.068-26.941-22.361-44.465-22.361h-26.661c-5.523 0-10 4.477-10 10v69.131h497v-69.131c0-5.523-4.477-10-10-10z" fill="#bb5d4c"/><path d="m48 374.944c0-4.073 2.439-7.571 5.933-9.13-3.198-.573-6.467-.87-9.772-.87h-26.661c-5.523 0-10 4.477-10 10v69.131h40.5z" fill="#a44f3e"/><g><path d="m12.5 500.689h487c2.761 0 5-2.239 5-5v-51.613h-497v51.613c0 2.761 2.239 5 5 5z" fill="#ffbd86"/></g><g><path d="m48 495.689v-51.613h-40.5v51.613c0 2.761 2.239 5 5 5h40.5c-2.761 0-5-2.239-5-5z" fill="#f6a96c"/></g><g><ellipse cx="108.963" cy="269.044" fill="#1ee6a6" rx="13.639" ry="19.933"/></g><g><ellipse cx="142.368" cy="327.04" fill="#1ee6a6" rx="19.933" ry="13.639" transform="matrix(.707 -.707 .707 .707 -189.553 196.458)"/></g><g><ellipse cx="165.574" cy="224.385" fill="#1ee6a6" rx="19.933" ry="13.639" transform="matrix(.707 -.707 .707 .707 -110.169 182.8)"/></g><g><path d="m276.069 345.377-24.195 19.567h144.772l-24.195-19.567c-28.106-22.731-68.275-22.731-96.382 0z" fill="#883f2e"/></g><g><path d="m345.323 331.289c-23.426-6.687-49.36-2.001-69.254 14.088l-24.195 19.567h42.126l24.195-19.567c8.212-6.642 17.458-11.328 27.128-14.088z" fill="#6d3326"/></g></g><g><path d="m494.5 357.444h-27.037l-41.371-33.458c-16.078-13.004-37.441-16.521-56.395-10.58v-69.408c0-4.142-3.357-7.5-7.5-7.5s-7.5 3.358-7.5 7.5v82.561c-4.811-1.866-9.789-3.29-14.868-4.251v-215.324l14.868 22.751v79.263c0 4.142 3.357 7.5 7.5 7.5s7.5-3.358 7.5-7.5v-70.466l12.695-12.695c.907.036 1.816.063 2.733.063 24.509 0 52.314-12.871 74.065-34.622 23.654-23.655 36.806-54.469 34.322-80.417-.343-3.578-3.174-6.409-6.751-6.751-25.945-2.487-56.764 10.669-80.419 34.323-22.563 22.564-35.559 51.639-34.555 76.795l-5.232 5.232-21.364-32.69c-2.704-4.137-7.699-5.971-12.442-4.559-4.737 1.411-7.92 5.68-7.92 10.623v72.005l-6.87-6.87c1.004-25.156-11.992-54.232-34.556-76.796-23.654-23.655-54.457-36.809-80.418-34.323-3.577.342-6.408 3.174-6.751 6.751-2.483 25.948 10.668 56.763 34.322 80.417 21.753 21.752 49.555 34.622 74.064 34.622.916 0 1.826-.027 2.733-.064l17.475 17.475v133.788c-.19-.001-.379-.012-.568-.012-19.194 0-37.983 6.647-52.907 18.717l-22.133 17.899h-25.973c-20.033 0-39.036 9.667-50.833 25.858-5.788 7.944-13.698 13.828-22.876 17.015-3.912 1.359-5.982 5.633-4.624 9.545s5.628 5.984 9.546 4.625c12.08-4.195 22.48-11.925 30.077-22.353 8.983-12.33 23.455-19.69 38.71-19.69h271.253c1.379 0 2.5 1.122 2.5 2.5v61.631h-482v-61.631c0-1.378 1.121-2.5 2.5-2.5h26.66c15.081 0 29.452 7.227 38.447 19.336l.612.823c7.967 10.727 18.871 18.496 31.535 22.47 3.954 1.244 8.161-.959 9.401-4.91 1.24-3.952-.959-8.162-4.911-9.401-9.623-3.02-17.917-8.934-23.987-17.106l-.612-.823c-11.809-15.897-30.682-25.388-50.485-25.388h-26.66c-9.649 0-17.5 7.851-17.5 17.5v120.744c0 6.893 5.607 12.5 12.5 12.5h365.5c4.143 0 7.5-3.358 7.5-7.5s-3.357-7.5-7.5-7.5h-363v-41.613h482v41.613h-84c-4.143 0-7.5 3.358-7.5 7.5s3.357 7.5 7.5 7.5h86.5c6.893 0 12.5-5.607 12.5-12.5v-120.744c0-9.649-7.851-17.5-17.5-17.5zm-77.55-308.404c18.539-18.539 41.649-29.706 61.851-30.218-.512 20.201-11.679 43.312-30.218 61.851-14.921 14.921-32.802 25.061-49.746 28.72l45.989-45.988c2.929-2.929 2.929-7.678 0-10.606s-7.677-2.93-10.607 0l-45.988 45.987c3.658-16.943 13.798-34.825 28.719-49.746zm-172.029 58.104 45.987 45.987c-16.943-3.66-34.825-13.799-49.744-28.718-18.539-18.539-29.706-41.65-30.218-61.851 20.2.514 43.313 11.68 61.85 30.218 14.921 14.921 25.062 32.803 28.721 49.746l-45.988-45.988c-2.929-2.929-7.677-2.93-10.607 0-2.93 2.928-2.93 7.677-.001 10.606zm124.776 222.234c15.288-6.648 33.563-4.565 46.963 6.272l26.948 21.794h-44.309l-22.131-17.898c-2.392-1.935-4.894-3.714-7.471-5.365zm-88.912 21.83c12.264-9.918 27.703-15.38 43.476-15.38 15.771 0 31.212 5.462 43.476 15.38l7.71 6.235h-102.372z"/><path d="m108.963 296.477c11.854 0 21.139-12.05 21.139-27.433s-9.285-27.434-21.139-27.434-21.139 12.05-21.139 27.434c0 15.383 9.285 27.433 21.139 27.433zm0-39.867c2.444 0 6.139 4.959 6.139 12.434 0 7.474-3.694 12.433-6.139 12.433s-6.139-4.959-6.139-12.433c0-7.475 3.695-12.434 6.139-12.434z"/><path d="m144.134 302.882c-5.954 1.116-11.89 4.388-16.713 9.21-10.877 10.878-12.832 25.964-4.451 34.345 3.498 3.499 8.163 5.196 13.204 5.196 7.036 0 14.805-3.309 21.142-9.646h.001c10.877-10.878 12.832-25.964 4.451-34.346-4.317-4.315-10.742-6.051-17.634-4.759zm7.026 15.366c1.729 1.728.834 7.847-4.45 13.132-5.287 5.286-11.408 6.177-13.133 4.451-1.729-1.728-.834-7.847 4.451-13.132 2.667-2.668 5.9-4.517 8.87-5.074.594-.111 1.157-.166 1.674-.166 1.152 0 2.071.271 2.588.789z"/><path d="m159.38 248.979c7.037 0 14.804-3.31 21.141-9.646h.001c4.822-4.823 8.094-10.758 9.21-16.712 1.292-6.89-.442-13.316-4.759-17.633-8.383-8.382-23.468-6.427-34.347 4.451-10.877 10.877-12.832 25.964-4.45 34.346 3.498 3.497 8.163 5.194 13.204 5.194zm-3.221-20.064c.557-2.969 2.406-6.203 5.073-8.87 3.704-3.704 7.817-5.251 10.542-5.251 1.163 0 2.074.282 2.591.799.75.75.983 2.343.623 4.262-.557 2.969-2.405 6.202-5.073 8.87h-.001c-5.286 5.285-11.406 6.178-13.132 4.451-.75-.749-.982-2.342-.623-4.261z"/><path d="m41 399.499c-4.143 0-7.5 3.358-7.5 7.5s3.357 7.5 7.5 7.5h18c4.143 0 7.5-3.358 7.5-7.5s-3.357-7.5-7.5-7.5z"/><path d="m246 400.499c4.143 0 7.5-3.358 7.5-7.5s-3.357-7.5-7.5-7.5h-18c-4.143 0-7.5 3.358-7.5 7.5s3.357 7.5 7.5 7.5z"/><path d="m308 421.499c4.143 0 7.5-3.358 7.5-7.5s-3.357-7.5-7.5-7.5h-18c-4.143 0-7.5 3.358-7.5 7.5s3.357 7.5 7.5 7.5z"/><path d="m374 402.499c4.143 0 7.5-3.358 7.5-7.5s-3.357-7.5-7.5-7.5h-18c-4.143 0-7.5 3.358-7.5 7.5s3.357 7.5 7.5 7.5z"/><path d="m453 420.499c4.143 0 7.5-3.358 7.5-7.5s-3.357-7.5-7.5-7.5h-18c-4.143 0-7.5 3.358-7.5 7.5s3.357 7.5 7.5 7.5z"/></g></g></svg>