<svg height="512pt" viewBox="-96 0 512 512" width="512pt" xmlns="http://www.w3.org/2000/svg"><path d="m172 499.496094c10.59375-4.628906 18-15.195313 18-27.496094v-228h-36v228c0 12.300781 7.40625 22.867188 18 27.496094zm0 0" fill="#fff4ca"/><path d="m310 130c0-16.570312-13.429688-30-30-30-7.96875 0-118.589844 0-187 0-16.570312 0-30 13.429688-30 30s13.429688 30 30 30h187c16.570312 0 30-13.429688 30-30zm0 0" fill="#ffa2c3"/><path d="m176.34375 11.117188c-45.730469 8.652343-82.289062 43.222656-93.785156 87.882812h193.382812c-12.304687-46.132812-51.390625-81.316406-99.597656-87.882812zm0 0" fill="#ff637b"/><path d="m275.660156 162h-188.660156c11.148438 43.324219 45.746094 76.890625 89.152344 86.90625 47.785156-6.4375 86.847656-41.023438 99.507812-86.90625zm0 0" fill="#ff637b"/><path d="m36.226562 169.816406c12.773438 39.820313 43.984376 71.070313 83.773438 83.902344v218.28125c0 22.054688 17.945312 40 40 40s40-17.945312 40-40v-218.28125c39.789062-12.832031 71-44.085938 83.773438-83.902344 20.292968-1.910156 36.226562-19.035156 36.226562-39.816406 0-20.777344-15.929688-37.902344-36.214844-39.816406-11.824218-36.753906-39.726562-66.738282-75.886718-81.074219-5.132813-2.035156-10.945313.476563-12.980469 5.609375-2.035157 5.136719.476562 10.945312 5.609375 12.980469 28.507812 11.304687 50.949218 34.09375 61.976562 62.300781h-205.003906c11.023438-28.207031 33.46875-50.996094 61.972656-62.300781 5.132813-2.035157 7.644532-7.847657 5.609375-12.980469-2.035156-5.132812-7.847656-7.644531-12.980469-5.609375-36.15625 14.335937-64.0625 44.320313-75.886718 81.074219-20.285156 1.914062-36.214844 19.039062-36.214844 39.816406 0 20.78125 15.933594 37.90625 36.226562 39.816406zm123.773438 322.183594c-11.027344 0-20-8.972656-20-20v-213.539062c6.59375 1.019531 13.28125 1.539062 20 1.539062s13.40625-.519531 20-1.539062v213.539062c0 11.027344-8.972656 20-20 20zm-102.496094-322.011719h204.992188c-16.695313 42.894531-57.582032 69.644531-101.496094 70.039063-45.535156.410156-86.859375-27.300782-103.496094-70.039063zm-17.503906-59.988281h240c11.027344 0 20 8.972656 20 20s-8.972656 20-20 20h-240c-11.027344 0-20-8.972656-20-20s8.972656-20 20-20zm0 0"/><path d="m170 10c0 5.523438-4.476562 10-10 10s-10-4.476562-10-10 4.476562-10 10-10 10 4.476562 10 10zm0 0"/></svg>