<svg height="512pt" viewBox="-66 0 512 512" width="512pt" xmlns="http://www.w3.org/2000/svg"><path d="m310 170h-213.386719c-25.683593 6.796875-44.613281 30.179688-44.613281 58v212c0 33.140625 26.859375 60 60 60h213.386719c25.683593-6.796875 44.613281-30.179688 44.613281-58v-212c0-33.140625-26.859375-60-60-60zm0 0" fill="#fff4ca"/><path d="m262.199219 50h-32.199219c0-12.621094-12.867188-23.871094-22-31.199219-18.265625 3.699219-32.015625 19.84375-32.015625 39.199219h-82.984375c-16.570312 0-30 13.429688-30 30 0 8.695312 3.703125 16.519531 9.609375 22h247.390625c16.570312 0 30-13.429688 30-30 0-8.695312-3.703125-16.519531-9.609375-22h-77.390625c0-2.738281-.277344-5.414062-.800781-8zm0 0" fill="#fff4ca"/><g fill="#7fe881"><path d="m106 110h204v60h-204zm0 0"/><path d="m310 256c0 16.570312-13.429688 30-30 30s-30-13.429688-30-30 13.429688-30 30-30 30 13.429688 30 30zm0 0"/><path d="m310 406c0 16.570312-13.429688 30-30 30s-30-13.429688-30-30 13.429688-30 30-30 30 13.429688 30 30zm0 0"/><path d="m220 331c0 16.570312-13.429688 30-30 30s-30-13.429688-30-30 13.429688-30 30-30 30 13.429688 30 30zm0 0"/><path d="m130 256c0 16.570312-13.429688 30-30 30s-30-13.429688-30-30 13.429688-30 30-30 30 13.429688 30 30zm0 0"/><path d="m130 406c0 16.570312-13.429688 30-30 30s-30-13.429688-30-30 13.429688-30 30-30 30 13.429688 30 30zm0 0"/></g><path d="m70 512h240c38.597656 0 70-31.402344 70-70v-212c0-35.203125-26.121094-64.40625-60-69.273438v-40.726562c22.054688 0 40-17.945312 40-40s-17.945312-40-40-40h-81.003906c-4.648438-22.792969-24.851563-40-48.996094-40s-44.347656 17.207031-48.996094 40h-81.003906c-22.054688 0-40 17.945312-40 40s17.945312 40 40 40v40.726562c-33.878906 4.867188-60 34.070313-60 69.273438v212c0 38.597656 31.402344 70 70 70zm75-392c5.523438 0 10-4.476562 10-10s-4.476562-10-10-10h-85c-11.027344 0-20-8.972656-20-20s8.972656-20 20-20h90c5.523438 0 10-4.476562 10-10 0-16.542969 13.457031-30 30-30s30 13.457031 30 30c0 5.523438 4.476562 10 10 10h90c11.027344 0 20 8.972656 20 20s-8.972656 20-20 20h-85c-5.523438 0-10 4.476562-10 10s4.476562 10 10 10h65v40h-220v-40zm-125 110c0-27.570312 22.429688-50 50-50h240c27.570312 0 50 22.429688 50 50v212c0 27.570312-22.429688 50-50 50h-240c-27.570312 0-50-22.429688-50-50zm0 0"/><path d="m100 446c22.054688 0 40-17.945312 40-40s-17.945312-40-40-40-40 17.945312-40 40 17.945312 40 40 40zm0-60c11.027344 0 20 8.972656 20 20s-8.972656 20-20 20-20-8.972656-20-20 8.972656-20 20-20zm0 0"/><path d="m280 446c22.054688 0 40-17.945312 40-40s-17.945312-40-40-40-40 17.945312-40 40 17.945312 40 40 40zm0-60c11.027344 0 20 8.972656 20 20s-8.972656 20-20 20-20-8.972656-20-20 8.972656-20 20-20zm0 0"/><path d="m190 371c22.054688 0 40-17.945312 40-40s-17.945312-40-40-40-40 17.945312-40 40 17.945312 40 40 40zm0-60c11.027344 0 20 8.972656 20 20s-8.972656 20-20 20-20-8.972656-20-20 8.972656-20 20-20zm0 0"/><path d="m280 296c22.054688 0 40-17.945312 40-40s-17.945312-40-40-40-40 17.945312-40 40 17.945312 40 40 40zm0-60c11.027344 0 20 8.972656 20 20s-8.972656 20-20 20-20-8.972656-20-20 8.972656-20 20-20zm0 0"/><path d="m100 296c22.054688 0 40-17.945312 40-40s-17.945312-40-40-40-40 17.945312-40 40 17.945312 40 40 40zm0-60c11.027344 0 20 8.972656 20 20s-8.972656 20-20 20-20-8.972656-20-20 8.972656-20 20-20zm0 0"/><path d="m200 110c0 5.523438-4.476562 10-10 10s-10-4.476562-10-10 4.476562-10 10-10 10 4.476562 10 10zm0 0"/></svg>