<svg height="512pt" viewBox="-96 0 512 512" width="512pt" xmlns="http://www.w3.org/2000/svg"><path d="m75 330.5v171.5h201v-173.59375zm142 110.5h-120v-40h120zm0 0" fill="#ff637b"/><path d="m310 322-26.570312-26.570312c-65.988282-8.25-198.28125-24.785157-203.429688-25.429688l-30 60c16.09375 4.023438 54.558594 13.640625 84.800781 21.199219 28.476563-4.746094 167.226563-27.871094 175.199219-29.199219zm0 0" fill="#fed2a4"/><path d="m130 402h90v39h-90zm0 0" fill="#fff4ca"/><path d="m223.242188 285.40625c17.585937 2.195312 35.171874 4.390625 52.757812 6.59375 0-16.027344 0-238.109375 0-277-67.03125 0-194.941406 0-200 0v252c49.078125 6.136719 98.160156 12.269531 147.242188 18.40625zm0 0" fill="#8c4a37"/><path d="m290 10c0-5.523438-4.480469-10-10-10h-240c-5.523438 0-10 4.476562-10 10v249.640625l-28.945312 57.886719c-1.355469 2.714844-1.40625 5.894531-.140626 8.652344 1.269532 2.753906 3.71875 4.785156 6.660157 5.523437l22.425781 5.605469v164.691406c0 5.523438 4.476562 10 10 10h75c5.519531 0 10-4.476562 10-10s-4.480469-10-10-10h-65v-149.691406l77.574219 19.394531c.796875.195313 1.609375.296875 2.425781.296875.550781 0 1.097656-.046875 1.644531-.136719l138.355469-23.058593v153.195312h-65c-5.523438 0-10 4.476562-10 10s4.476562 10 10 10h75c5.519531 0 10-4.476562 10-10v-166.527344l21.644531-3.609375c3.695313-.617187 6.734375-3.246093 7.878907-6.8125 1.144531-3.566406.195312-7.472656-2.453126-10.121093l-27.070312-27.074219zm-140 170h-100v-70h100zm20-70h100v70h-100zm-120 90h100v65.671875l-100-12.5zm120 0h100v80.671875l-100-12.5zm100-110h-100v-70h100zm-120-70v70h-100v-70zm-19.59375 321.792969-105.886719-26.472657 21.261719-42.519531 229.574219 28.695313 13.832031 13.832031zm0 0"/><path d="m230 442v-40c0-5.523438-4.480469-10-10-10h-120c-5.523438 0-10 4.476562-10 10v40c0 5.523438 4.476562 10 10 10h120c5.519531 0 10-4.476562 10-10zm-20-10h-100v-20h100zm0 0"/><path d="m170 502c0 5.523438-4.476562 10-10 10s-10-4.476562-10-10 4.476562-10 10-10 10 4.476562 10 10zm0 0"/></svg>