<svg height="512pt" viewBox="0 -36 512.001 512" width="512pt" xmlns="http://www.w3.org/2000/svg"><path d="m452.03125 45.082031-.011719.007813c-40.257812 6.132812-66.953125 41.644531-65.21875 79.453125 31.855469-33.054688 86.113281-30.898438 115.199219 5.457031 0-16.324219-3.269531-31.882812-9.175781-46.070312-10.320313-15.953126-24.3125-29.308594-40.792969-38.847657zm0 0" fill="#fff4ca"/><path d="m502 130c0 44.410156-24.128906 83.191406-59.988281 103.941406l-.011719-.019531c18.011719-46.082031-11.558594-96.53125-59.980469-103.921875-.007812 0-.007812-.007812-.007812-.007812 30.917969-38.640626 89.386719-38.242188 119.988281.007812zm0 0" fill="#ffa2c3"/><path d="m382.019531 130c48.421875 7.390625 77.992188 57.839844 59.980469 103.921875l.011719.019531c-17.652344 10.210938-38.152344 16.058594-60.011719 16.058594s-42.351562-5.839844-59.988281-16.050781l.007812-.019531c48.429688-7.371094 78.011719-57.820313 60-103.917969zm0 0" fill="#fff4ca"/><path d="m385.96875 30c-21.859375 0-42.359375 5.851562-60.007812 16.058594l.007812.023437c-4.226562 10.820313-5.824219 21.933594-5.152344 32.695313 8.746094 25.625 30.8125 46.238281 60.277344 51.070312-.109375-1.03125-.195312-2.0625-.257812-3.09375-12.410157-36.417968 4.257812-75.390625 36.632812-92.574218-10.039062-2.722657-20.597656-4.179688-31.5-4.179688zm0 0" fill="#ffa2c3"/><path d="m288.683594 151.296875c6.914062 32.207031 26.746094 59.617187 53.8125 76.539063 31.640625-14.472657 50.195312-49.234376 43.472656-84.171876-12.042969 7.328126-25.722656 11.0625-39.433594 11.167969-18.84375 6.316407-39.71875 5.167969-57.851562-3.535156zm0 0" fill="#ffa2c3"/><path d="m379.414062 133.058594c-3.253906-1.730469-6.347656-3.675782-9.273437-5.824219-30.847656-9.773437-51.410156-37.707031-53.300781-68.550781-20.355469 21.503906-32.839844 50.535156-32.839844 82.480468 4.378906 5.472657 9.316406 10.164063 14.644531 14.074219 27.910157 8.839844 59.910157 1.335938 80.769531-22.179687zm0 0" fill="#fff4ca"/><path d="m202.316406 225.082031-.011718.007813c-39.476563 6.011718-65.910157 40.273437-65.285157 77.246094 32.097657-30.730469 84.558594-27.863282 112.980469 7.664062 0-19.941406-4.878906-38.738281-13.488281-55.289062-9.398438-11.902344-21-21.992188-34.195313-29.628907zm0 0" fill="#fff4ca"/><path d="m250 310c0 44.410156-24.128906 83.191406-59.988281 103.941406l-.011719-.019531c18.011719-46.082031-11.558594-96.53125-59.980469-103.921875-.007812 0-.007812-.007812-.007812-.007812 30.917969-38.640626 89.386719-38.242188 119.988281.007812zm0 0" fill="#ffa2c3"/><path d="m130.019531 310c48.421875 7.390625 77.992188 57.839844 59.980469 103.921875l.011719.019531c-17.652344 10.210938-38.152344 16.058594-60.011719 16.058594s-42.351562-5.839844-59.988281-16.050781l.007812-.019531c48.429688-7.371094 78.011719-57.820313 60-103.917969zm0 0" fill="#fff4ca"/><path d="m133.96875 206c-21.859375 0-42.359375 5.851562-60.007812 16.058594l.007812.023437c-4.960938 12.695313-6.296875 25.789063-4.601562 38.246094 9.15625 25.058594 31.128906 45.035156 60.261718 49.609375-.085937-.539062-.167968-1.078125-.242187-1.613281-14.121094-38.730469 5.007812-80.765625 41.191406-96.621094-11.542969-3.695313-23.839844-5.703125-36.609375-5.703125zm0 0" fill="#ffa2c3"/><path d="m88.734375 408.613281c32.65625-13.945312 52.011719-49.246093 45.269531-84.765625-12.953125 8.269532-27.914062 12.292969-42.820312 12.023438-18.554688 5.289062-38.769532 3.507812-56.238282-5.4375 6.492188 32.867187 26.402344 60.90625 53.789063 78.179687zm0 0" fill="#ffa2c3"/><path d="m122.867188 317.769531c-8.964844-4.859375-16.707032-11.398437-22.933594-19.089843-20.28125-13.066407-33.269532-35.144532-35.027344-59.070313-22.738281 21.835937-36.90625 52.539063-36.90625 86.554687.140625.171876.28125.339844.421875.511719 29.234375 18.847657 68.582031 15.707031 94.445313-8.90625zm0 0" fill="#fff4ca"/><path d="m140 190c0 5.523438-4.476562 10-10 10s-10-4.476562-10-10 4.476562-10 10-10 10 4.476562 10 10zm0 0"/><path d="m392 10c0 5.523438-4.476562 10-10 10s-10-4.476562-10-10 4.476562-10 10-10 10 4.476562 10 10zm0 0"/><path d="m130 440c72.902344 0 129.898438-59.484375 129.996094-129.816406 0-.023438.003906-.144532.003906-.183594 0-53.058594-32.613281-101.25-82.097656-120.886719-5.136719-2.035156-10.949219.472657-12.984375 5.605469-1.125 2.832031-.859375 5.867188.464843 8.367188-34.855468 15.90625-55.828124 53.753906-49.566406 92.636718-31.945312-13.261718-48.828125-49.269531-37.667968-82.75 3.675781-1.96875 7.46875-3.738281 11.324218-5.265625 5.136719-2.035156 7.648438-7.847656 5.613282-12.984375-2.035157-5.132812-7.851563-7.644531-12.984376-5.609375-49.949218 19.800781-82.023437 68.285157-82.09765575 120.707031 0 .019532-.00390625.140626-.00390625.179688 0 70.808594 57.382812 130 130 130zm-107.097656-105c31.242187 20.21875 72.613281 18.238281 101.839844-5.574219 4.480468 34.230469-18.191407 66.914063-52.828126 74.003907-24.914062-15.53125-42.414062-40.363282-49.011718-68.429688zm75.160156 80.28125c33.0625-16.898438 52.191406-53.636719 46.164062-90.980469 31.675782 13.203125 48.875 49.007813 37.625 82.738281-15.875 8.488282-33.722656 12.960938-51.851562 12.960938-10.875 0-21.640625-1.605469-31.9375-4.71875zm107.136719-25.03125c1.890625-37.148438-20.5-71.984375-55.722657-85.40625 27.433594-21 67.046876-17.636719 90.464844 8.746094-.964844 29.3125-13.714844 56.886718-34.742187 76.660156zm-17.085938-173.65625c24.898438 15.53125 42.394531 40.355469 48.984375 68.417969-30.570312-19.769531-71.976562-18.761719-101.808594 5.53125-4.402343-34.019531 17.996094-66.816407 52.824219-73.949219zm-133.304687 13.148438c-1.84375 36.429687 19.804687 71.753906 55.707031 85.414062-27.269531 20.84375-66.863281 17.839844-90.457031-8.746094.964844-29.316406 13.71875-56.894531 34.75-76.667968zm0 0"/><path d="m429.898438 9.113281c-5.132813-2.035156-10.945313.472657-12.980469 5.609375-1.125 2.832032-.859375 5.867188.460937 8.363282-34.855468 15.910156-55.820312 53.753906-49.5625 92.636718-31.945312-13.261718-48.828125-49.273437-37.667968-82.75 3.675781-1.96875 7.46875-3.738281 11.324218-5.265625 5.136719-2.035156 7.648438-7.847656 5.613282-12.984375-2.035157-5.132812-7.851563-7.644531-12.984376-5.609375-50.011718 19.832031-82.023437 68.351563-82.097656 120.707031 0 .023438-.003906.144532-.003906.179688 0 70.84375 57.421875 130 130 130 72.90625 0 129.898438-59.484375 129.996094-129.816406 0-.023438.003906-.144532.003906-.183594 0-52.335938-31.949219-100.984375-82.101562-120.886719zm10.214843 27.480469c24.902344 15.53125 42.394531 40.355469 48.984375 68.417969-30.566406-19.765625-71.972656-18.765625-101.808594 5.53125-4.40625-34.019531 17.996094-66.816407 52.824219-73.949219zm-133.304687 13.148438c-1.847656 36.515624 19.878906 71.78125 55.707031 85.414062-27.265625 20.84375-66.859375 17.84375-90.457031-8.746094.964844-29.316406 13.71875-56.894531 34.75-76.667968zm-31.90625 105.257812c31.242187 20.21875 72.613281 18.238281 101.839844-5.570312 4.492187 34.300781-18.257813 66.925781-52.828126 74-24.914062-15.53125-42.414062-40.363282-49.011718-68.429688zm75.160156 80.28125c33.0625-16.898438 52.191406-53.636719 46.160156-90.980469 31.679688 13.199219 48.878906 49.007813 37.628906 82.738281-15.871093 8.488282-33.71875 12.960938-51.851562 12.960938-10.871094 0-21.640625-1.605469-31.9375-4.71875zm107.136719-25.03125c1.890625-37.148438-20.5-71.984375-55.722657-85.402344 27.429688-21 67.042969-17.636718 90.464844 8.742188-.964844 29.3125-13.714844 56.886718-34.742187 76.660156zm0 0"/></svg>