<svg id="Capa_1" enable-background="new 0 0 512 512" height="512" viewBox="0 0 512 512" width="512" xmlns="http://www.w3.org/2000/svg"><g><path d="m499.5 29.524h-197.962c-2.761 0-5 2.239-5 5v57.777c15.845 16.715 26.307 38.571 28.551 62.719h10.374c23.346 0 42.448 19.102 42.448 42.448 0 7.393-1.92 14.358-5.28 20.427 35.822 10.83 61.907 44.089 61.907 83.446 0 6.286-.671 12.414-1.935 18.322h66.897c2.761 0 5-2.239 5-5v-280.139c0-2.761-2.239-5-5-5z" fill="#eaf6ff"/><path d="m325.089 155.02h4.949v-120.496c0-2.761 2.239-5 5-5h-33.5c-2.761 0-5 2.239-5 5v57.777c15.845 16.715 26.308 38.571 28.551 62.719z" fill="#d8ecfe"/><g><path d="m361.914 448.486h-12.895v-56.845c0-1.061-.053-2.109-.13-3.15-.506.009-1.011.019-1.519.019-9.368 0-18.389-1.484-26.847-4.219-9.121 32.423-30.072 59.888-57.898 77.455.27 1.203.425 2.45.425 3.735 0 9.386-7.609 16.995-16.995 16.995h115.858c9.386 0 16.995-7.609 16.995-16.995s-7.608-16.995-16.994-16.995z" fill="#883f2e"/><path d="m162.986 482.441c-18.878-.515-35.129-11.512-43.163-27.376h-6.644c-12.928 0-23.445-10.518-23.445-23.445v-82.362c0-22.672-18.445-41.117-41.117-41.117s-41.117 18.443-41.117 41.116v16.447c0 7.569 6.137 13.706 13.706 13.706s13.706-6.136 13.706-13.706v-16.447c0-7.557 6.148-13.706 13.706-13.706s13.706 6.148 13.706 13.706v82.362c0 28.042 22.814 50.857 50.857 50.857h49.809z" fill="#883f2e"/><g fill="#bb5d4c"><path d="m114.459 164.79c0-3.293.161-6.551.46-9.77h-10.374c-23.346 0-42.448 19.102-42.448 42.448 0 23.347 19.102 42.448 42.448 42.448h9.914z"/><path d="m325.549 216.927c6.974-1.798 14.286-2.754 21.821-2.754 8.785 0 17.265 1.305 25.261 3.723 3.359-6.07 5.28-13.034 5.28-20.427 0-23.346-19.102-42.448-42.448-42.448h-10.374c.299 3.219.46 6.476.46 9.77z"/></g><g fill="#ffbd86"><path d="m114.459 179.975h-9.914c-9.646 0-17.494 7.848-17.494 17.494s7.848 17.494 17.494 17.494h9.914z"/><path d="m335.463 179.975h-9.914v34.987h9.914c9.646 0 17.494-7.848 17.494-17.494s-7.848-17.493-17.494-17.493z"/></g><path d="m320.51 384.286c-34.997-11.325-60.308-44.176-60.308-82.945 0-40.606 27.766-74.727 65.347-84.414v-52.137c0-58.05-47.495-105.545-105.545-105.545-58.05 0-105.545 47.495-105.545 105.545v267.777c0 27.101 21.604 49.14 48.527 49.874l83.07.035c9.386 0 16.995-7.609 16.995-16.995 0-1.285-.155-2.532-.425-3.735 27.825-17.567 48.761-45.039 57.884-77.46z" fill="#bb5d4c"/><g><g><path d="m261.483 316.286c-8.74-7.782-20.232-12.532-32.784-12.532-23.599 0-43.462 16.768-48.289 38.976h42.851.001 47.375s.001.001.001.001c-4.392-8.124-7.528-17.026-9.155-26.445z" fill="#ffbd86"/></g><g><path d="m228.605 372.675c2.906 5.693 4.556 12.135 4.556 18.966v56.845h12.895c8.099 0 14.862 5.669 16.568 13.253 5.437-3.433 10.616-7.239 15.492-11.391v-77.672h-49.511z" fill="#ffbd86"/></g></g><g><path d="m206.12 342.73c3.918-18.023 17.749-32.457 35.438-37.257-4.105-1.114-8.414-1.719-12.859-1.719-23.599 0-43.462 16.768-48.289 38.976z" fill="#f6a96c"/></g><path d="m296.88 230.277c.203-1.642.32-3.311.32-5.006v-50.599c0-22.478-18.391-40.868-40.868-40.868-15.772 0-29.521 9.06-36.328 22.228-6.806-13.168-20.556-22.228-36.327-22.228-22.478 0-40.869 18.391-40.869 40.869v50.599c0 22.478 18.391 40.868 40.869 40.868h72.655c4.215 0 8.286-.647 12.119-1.846 6.415-13.643 16.26-25.355 28.429-34.017z" fill="#ffbd86"/><g><g><path d="m168 225.271v-50.599c0-18.077 11.898-33.501 28.246-38.852-3.966-1.294-8.185-2.017-12.57-2.017-22.478 0-40.869 18.391-40.869 40.869v50.599c0 22.478 18.391 40.868 40.869 40.868h25.192c-22.477.001-40.868-18.39-40.868-40.868z" fill="#f6a96c"/></g></g><path d="m270.637 342.73h-47.376c8.269 0 14.973 6.704 14.973 14.973s-6.704 14.973-14.973 14.973h66.468c2.275 0 4.498-.222 6.656-.63-10.637-7.684-19.472-17.706-25.748-29.316z" fill="#bb5d4c"/><path d="m223.261 342.73h-72.983c-.807 0-1.577-.164-2.278-.46v-84.376c-7.878-8.607-12.692-20.062-12.692-32.622v-50.599c0-14.226 6.176-27.034 15.984-35.893 10.31-40.276 43.925-71.479 85.483-78.188-5.466-.882-11.066-1.347-16.771-1.347-58.05 0-105.545 47.495-105.545 105.545v119.047 53.019 95.711c0 27.564 22.345 49.909 49.909 49.909h26.426c1.464 0 2.921-.032 4.375-.078-26.29-1.424-47.169-23.187-47.169-49.832v-59.971c.754.048 1.512.08 2.278.08h72.983c8.269 0 14.973-6.704 14.973-14.973s-6.704-14.972-14.973-14.972z" fill="#a44f3e"/></g><g><g><path d="m442.325 377.627-25.336-25.336c-5.234 7.133-11.536 13.435-18.67 18.67l25.336 25.336z" fill="#b3dafe"/></g><g><path d="m499.03 453.002c-7.293 7.293-19.117 7.293-26.409 0l-50.403-50.403c-1.679-1.679-1.679-4.402 0-6.081l20.328-20.328c1.679-1.679 4.402-1.679 6.081 0l50.403 50.403c7.293 7.292 7.293 19.116 0 26.409z" fill="#6e61b6"/></g><g><path d="m497.662 453.002-50.403-50.403c-1.679-1.679-1.679-4.402 0-6.081l10.848-10.848-9.48-9.48c-1.679-1.679-4.402-1.679-6.081 0l-20.328 20.328c-1.679 1.679-1.679 4.402 0 6.081l50.403 50.403c7.073 7.073 18.395 7.265 25.725.618-.228-.206-.464-.398-.684-.618z" fill="#6354b1"/></g><g><g><circle cx="347.37" cy="301.342" fill="#6e61b6" r="87.168"/></g><path d="m300.419 349.865c-12.7-12.292-20.618-29.495-20.618-48.523s7.918-36.232 20.618-48.524c13.405-19.962 34.838-34.081 59.682-37.717-4.156-.608-8.406-.928-12.731-.928-48.142 0-87.168 39.027-87.168 87.168 0 48.142 39.027 87.168 87.168 87.168 4.325 0 8.575-.32 12.731-.928-24.844-3.635-46.277-17.754-59.682-37.716z" fill="#6354b1"/><g><circle cx="347.37" cy="301.342" fill="#fe8a56" r="60.069"/></g><g><path d="m312.862 301.342c0-28.736 20.287-52.811 47.288-58.687-4.121-.897-8.394-1.382-12.781-1.382-33.122 0-60.069 26.947-60.069 60.069s26.947 60.069 60.069 60.069c4.386 0 8.659-.485 12.781-1.382-27-5.877-47.288-29.952-47.288-58.687z" fill="#fd6930"/></g></g></g><g><path d="m499.5 327.164c6.893 0 12.5-5.607 12.5-12.5v-280.14c0-6.893-5.607-12.5-12.5-12.5h-27.5c-4.142 0-7.5 3.358-7.5 7.5s3.358 7.5 7.5 7.5h25v275.139h-55.584c.406-3.553.623-7.162.623-10.822 0-39.706-24.574-73.775-59.31-87.813 1.724-5.044 2.682-10.439 2.682-16.061 0-16.884-8.429-31.827-21.291-40.873h106.59c4.142 0 7.5-3.358 7.5-7.5s-3.358-7.5-7.5-7.5h-5.099v-41.065c0-4.142-3.358-7.5-7.5-7.5s-7.5 3.358-7.5 7.5v41.065h-13.796v-74.5c0-4.142-3.358-7.5-7.5-7.5s-7.5 3.358-7.5 7.5v74.5h-13.796v-54.358c0-4.142-3.358-7.5-7.5-7.5s-7.5 3.358-7.5 7.5v54.359h-13.796v-31.342c0-4.142-3.358-7.5-7.5-7.5s-7.5 3.358-7.5 7.5v31.342h-13.796v-51.54c0-4.142-3.358-7.5-7.5-7.5s-7.5 3.358-7.5 7.5v51.54h-4.778c-4.154-19.843-13.525-37.789-26.61-52.334v-52.237h132.961c4.142 0 7.5-3.358 7.5-7.5s-3.358-7.5-7.5-7.5h-135.461c-6.893 0-12.5 5.607-12.5 12.5v40.813c-19.11-14.782-43.061-23.593-69.035-23.593-56.462 0-103.388 41.61-111.727 95.775h-3.732c-27.542 0-49.948 22.407-49.948 49.948s22.407 49.948 49.948 49.948h2.414v185.15c0 4.961.64 9.774 1.829 14.369-6.661-1.913-11.554-8.048-11.554-15.316v-82.362c0-26.808-21.81-48.617-48.617-48.617-26.807.001-48.617 21.81-48.617 48.618v16.447c0 11.693 9.513 21.206 21.206 21.206s21.206-9.513 21.206-21.206v-16.447c0-3.422 2.784-6.206 6.206-6.206s6.206 2.784 6.206 6.206v82.362c0 32.178 26.179 58.356 58.356 58.356h248.735c13.507 0 24.495-10.988 24.495-24.495s-10.988-24.495-24.495-24.495h-5.395v-45.428c15.157-1.462 29.284-6.501 41.512-14.278l15.722 15.722c-.84 3.806.207 7.947 3.161 10.901l50.403 50.403c4.944 4.944 11.517 7.667 18.508 7.667 6.992 0 13.564-2.723 18.508-7.667s7.667-11.517 7.667-18.508c0-6.992-2.723-13.564-7.667-18.508l-11.437-11.438c-2.929-2.93-7.678-2.929-10.606 0s-2.929 7.677 0 10.606l11.437 11.438c2.111 2.11 3.273 4.916 3.273 7.901 0 2.984-1.163 5.791-3.273 7.901-2.11 2.111-4.916 3.273-7.901 3.273-2.984 0-5.791-1.163-7.901-3.273l-48.14-48.14 15.803-15.803 11.954 11.955c2.928 2.929 7.677 2.929 10.606 0s2.929-7.677 0-10.606l-14.218-14.219c-2.954-2.953-7.095-3.999-10.9-3.159l-15.722-15.722c4.842-7.613 8.616-15.965 11.137-24.84h61.054zm-164.037-154.689h-2.414v-7.685c0-.759-.014-1.515-.029-2.27h2.443c19.271 0 34.948 15.678 34.948 34.948 0 4.056-.71 7.944-1.988 11.568-3.272-.746-6.61-1.318-10-1.714 1.305-3.025 2.034-6.355 2.034-9.854 0-13.781-11.212-24.993-24.994-24.993zm9.994 24.993c0 4.662-3.213 8.576-7.537 9.676-.93.093-1.857.199-2.779.318h-2.091v-19.987h2.414c5.51 0 9.993 4.483 9.993 9.993zm-223.499-32.678c0-54.063 43.983-98.045 98.045-98.045s98.045 43.983 98.045 98.045v46.539c-4.616 1.507-9.074 3.366-13.349 5.534v-4.863c0-4.142-3.358-7.5-7.5-7.5s-7.5 3.358-7.5 7.5v13.271c0 .365-.017.727-.028 1.089-10.934 8.432-19.985 19.188-26.391 31.535-2.243.478-4.565.744-6.949.744h-72.655c-18.399 0-33.369-14.969-33.369-33.368v-50.599c0-18.399 14.969-33.369 33.369-33.369 12.504 0 23.871 6.963 29.665 18.172 1.288 2.492 3.858 4.056 6.663 4.056s5.375-1.565 6.663-4.056c5.794-11.209 17.161-18.172 29.665-18.172 18.399 0 33.368 14.969 33.368 33.368v2.329c0 4.142 3.358 7.5 7.5 7.5s7.5-3.358 7.5-7.5v-2.328c0-26.67-21.698-48.368-48.369-48.368-14.134 0-27.257 6.116-36.327 16.489-9.071-10.373-22.194-16.489-36.328-16.489-26.67 0-48.369 21.698-48.369 48.369v50.599c0 26.67 21.698 48.368 48.369 48.368h72.655c.176 0 .35-.01.526-.012-2.692 8.771-4.156 18.073-4.156 27.714 0 .08.005.159.006.239-7.299-3.412-15.433-5.327-24.008-5.327-25.116 0-46.466 16.358-53.998 38.976h-22.797v-51.393c0-4.142-3.358-7.5-7.5-7.5s-7.5 3.358-7.5 7.5v53.019c0 7.375 6 13.374 13.374 13.374h72.982c4.121 0 7.473 3.353 7.473 7.473s-3.353 7.473-7.473 7.473h-72.982c-15.616 0-28.32-12.704-28.32-28.32zm122.493 185.439h21.878c3.24 5.35 6.994 10.354 11.194 14.946h-33.072c.827-2.339 1.282-4.853 1.282-7.473.001-2.619-.454-5.133-1.282-7.473zm-53.623-15c6.735-14.16 21.175-23.976 37.87-23.976 9.781 0 18.789 3.368 25.928 9.005 1.051 5.151 2.5 10.159 4.351 14.971zm-83.87-127.767h-2.414c-5.511 0-9.994-4.483-9.994-9.994s4.483-9.994 9.994-9.994h2.414zm-2.414 24.955c-19.271 0-34.948-15.678-34.948-34.948s15.678-34.948 34.948-34.948h2.443c-.015.755-.029 1.511-.029 2.27v7.685h-2.414c-13.782 0-24.994 11.212-24.994 24.994s11.212 24.994 24.994 24.994h2.414v9.955h-2.414zm8.635 242.559c-23.907 0-43.356-19.45-43.356-43.356v-82.362c0-11.693-9.513-21.206-21.206-21.206s-21.206 9.513-21.206 21.206v16.447c0 3.422-2.784 6.206-6.206 6.206s-6.205-2.786-6.205-6.207v-16.447c0-18.537 15.081-33.617 33.617-33.617s33.617 15.081 33.617 33.617v82.362c0 17.063 13.882 30.945 30.945 30.945h2.277c2.838 4.608 6.306 8.784 10.287 12.411h-12.564zm132.877 0h-83.068c-.167 0-.33.014-.495.025l-.005-.073c-22.515-.987-40.53-19.607-40.53-42.362v-62.972c7.6 6.583 17.499 10.581 28.32 10.581h73.385c1.28 3.589 1.998 7.442 1.998 11.465v56.845c0 4.142 3.358 7.5 7.5 7.5h12.895c5.235 0 9.495 4.259 9.495 9.495s-4.259 9.496-9.495 9.496zm0-33.99h-5.395v-49.345c0-3.95-.491-7.783-1.375-11.465h31.329v66.566c-1.662 1.342-3.36 2.641-5.089 3.9-4.478-5.864-11.538-9.656-19.47-9.656zm115.858 15c5.236 0 9.495 4.259 9.495 9.495 0 5.235-4.259 9.495-9.495 9.495h-93.279c1.233-2.922 1.916-6.13 1.916-9.495 0-.012-.001-.023-.001-.035 25.362-17.237 44.885-42.443 54.946-71.992 5.19 1.232 10.545 2.034 16.024 2.37v52.662c0 4.142 3.358 7.5 7.5 7.5zm-76.298-23.499v-52.312h4.113c1.643 0 3.262-.103 4.857-.283 5.203 3.508 10.774 6.509 16.639 8.94-5.574 16.285-14.365 31.09-25.609 43.655zm61.754-51.477c-43.929 0-79.668-35.739-79.668-79.668s35.739-79.668 79.668-79.668 79.668 35.739 79.668 79.668-35.739 79.668-79.668 79.668zm83.741-3.991-8.063 8.063-12.925-12.925c2.846-2.525 5.538-5.217 8.063-8.063z"/><path d="m189.879 189.592v-10.379c0-4.142-3.358-7.5-7.5-7.5s-7.5 3.358-7.5 7.5v10.379c0 4.142 3.358 7.5 7.5 7.5s7.5-3.358 7.5-7.5z"/><path d="m257.628 171.713c-4.142 0-7.5 3.358-7.5 7.5v10.379c0 4.142 3.358 7.5 7.5 7.5s7.5-3.358 7.5-7.5v-10.379c0-4.142-3.357-7.5-7.5-7.5z"/><path d="m235.882 196.477c-7.336 0-13.575 4.724-15.878 11.283-2.303-6.559-8.542-11.283-15.878-11.283-9.286 0-16.84 7.555-16.84 16.84 0 4.142 3.358 7.5 7.5 7.5s7.5-3.358 7.5-7.5c0-1.015.826-1.84 1.84-1.84s1.84.826 1.84 1.84c0 4.142 3.358 7.5 7.5 7.5 2.809 0 5.253-1.546 6.538-3.832 1.285 2.285 3.729 3.832 6.538 3.832 4.142 0 7.5-3.358 7.5-7.5 0-1.015.825-1.84 1.84-1.84s1.84.826 1.84 1.84c0 4.142 3.358 7.5 7.5 7.5s7.5-3.358 7.5-7.5c0-9.286-7.555-16.84-16.84-16.84z"/><path d="m239.191 230.467h-38.375c-4.142 0-7.5 3.358-7.5 7.5s3.358 7.5 7.5 7.5h38.375c4.142 0 7.5-3.358 7.5-7.5s-3.358-7.5-7.5-7.5z"/><circle cx="326.583" cy="58.225" r="7.5"/><circle cx="346.583" cy="58.225" r="7.5"/><circle cx="366.583" cy="58.225" r="7.5"/><path d="m347.37 233.773c-37.258 0-67.569 30.311-67.569 67.569 0 37.257 30.311 67.568 67.569 67.568s67.569-30.311 67.569-67.568c0-37.258-30.311-67.569-67.569-67.569zm0 120.137c-28.986 0-52.569-23.582-52.569-52.568s23.583-52.569 52.569-52.569 52.569 23.583 52.569 52.569-23.583 52.568-52.569 52.568z"/><path d="m470.71 178.574h-68.291c-4.142 0-7.5 3.358-7.5 7.5s3.358 7.5 7.5 7.5h68.291c4.142 0 7.5-3.358 7.5-7.5s-3.357-7.5-7.5-7.5z"/><path d="m470.71 205.709h-51.592c-4.142 0-7.5 3.358-7.5 7.5s3.358 7.5 7.5 7.5h51.592c4.142 0 7.5-3.358 7.5-7.5s-3.357-7.5-7.5-7.5z"/><path d="m470.71 232.845h-26.544c-4.142 0-7.5 3.358-7.5 7.5s3.358 7.5 7.5 7.5h26.544c4.142 0 7.5-3.358 7.5-7.5s-3.357-7.5-7.5-7.5z"/><path d="m470.71 259.98h-14.02c-4.142 0-7.5 3.358-7.5 7.5s3.358 7.5 7.5 7.5h14.021c4.142 0 7.5-3.358 7.5-7.5s-3.358-7.5-7.501-7.5z"/><path d="m363.998 268.524c0-4.142-3.358-7.5-7.5-7.5h-14.611c-4.142 0-7.5 3.358-7.5 7.5s3.358 7.5 7.5 7.5h14.611c4.142 0 7.5-3.358 7.5-7.5z"/><path d="m375.284 292.334h-14.611c-4.142 0-7.5 3.358-7.5 7.5s3.358 7.5 7.5 7.5h14.611c4.142 0 7.5-3.358 7.5-7.5s-3.358-7.5-7.5-7.5z"/><path d="m338.756 314.251h-14.612c-4.142 0-7.5 3.358-7.5 7.5s3.358 7.5 7.5 7.5h14.612c4.142 0 7.5-3.358 7.5-7.5s-3.358-7.5-7.5-7.5z"/><circle cx="318.404" cy="289.919" r="7.5"/><circle cx="367.456" cy="328.535" r="7.5"/></g></g></svg>