<svg height="512pt" viewBox="0 0 512 512" width="512pt" xmlns="http://www.w3.org/2000/svg"><path d="m298.3125 90c-.199219 2.898438-.3125 5.894531-.3125 9 0 27.238281 7.601562 59.269531 19.570312 90h165.238282c11.75-30.425781 19.191406-62.054688 19.191406-89 0-3.460938-.121094-6.800781-.371094-10zm0 0" fill="#ffda2d"/><path d="m296.917969 90h206.34375c-4.148438-55.640625-43.351563-72.890625-82.824219-77.980469-1.367188-.011719-2.726562-.019531-4.066406-.019531-47.191406 0-112.925782 6.460938-119.453125 78zm0 0" fill="#ff637b"/><path d="m398.722656 305.753906c29.710938-14.257812 62.785156-62.515625 83.3125-114.753906h-165.035156c20.042969 51.460938 52.347656 99.25 81.722656 114.753906zm0 0" fill="#7fe881"/><path d="m250 412c0-27.238281-7.601562-59.269531-19.570312-90h-162.238282c-11.746094 30.425781-19.191406 62.054688-19.191406 89 0 3.460938.121094 6.800781.371094 10h200.316406c.199219-2.898438.3125-5.894531.3125-9zm0 0" fill="#ffda2d"/><path d="m249.539062 423h-199.539062c4.429688 59.4375 48.863281 75.066406 90.894531 78.863281 46.054688-1.203125 103.089844-11.792969 108.644531-78.863281zm0 0" fill="#ff637b"/><path d="m154.058594 210.402344c-30.339844 8.753906-65.8125 57.375-88.242188 111.597656h164.613282c-18.832032-48.351562-48.488282-93.460938-76.371094-111.597656zm0 0" fill="#7fe881"/><path d="m428.609375 3.386719c-5.4375-.945313-10.621094 2.6875-11.574219 8.125-.953125 5.441406 2.683594 10.625 8.125 11.578125 38.363282 6.714844 59.3125 24.902344 65.136719 56.910156h-216.601563c5.820313-31.996094 26.765626-50.191406 65.144532-56.910156 5.4375-.953125 9.078125-6.136719 8.125-11.578125-.953125-5.4375-6.136719-9.074219-11.574219-8.125-56.003906 9.804687-83.390625 43.054687-83.390625 96.613281 0 83.113281 70.457031 220 130 220 59.660156 0 130-137.023438 130-220 0-53.21875-27.0625-86.75-83.390625-96.613281zm46.90625 176.613281h-187.03125c-10.652344-29.042969-16.484375-57.246094-16.484375-80.011719h220c0 22.765625-5.832031 50.96875-16.484375 80.011719zm-93.515625 120c-33.171875 0-72.050781-69.363281-85.464844-100.011719h170.929688c-13.351563 30.507813-52.253906 100.011719-85.464844 100.011719zm0 0"/><path d="m392 10c0 5.523438-4.476562 10-10 10s-10-4.476562-10-10 4.476562-10 10-10 10 4.476562 10 10zm0 0"/><path d="m0 412c0 53.21875 27.0625 86.75 83.390625 96.613281 5.4375.949219 10.621094-2.6875 11.574219-8.125.953125-5.441406-2.683594-10.625-8.125-11.578125-38.363282-6.714844-59.3125-24.914062-65.136719-56.921875h216.601563c-5.820313 31.996094-26.765626 50.203125-65.144532 56.921875-5.4375.953125-9.074218 6.136719-8.125 11.578125.851563 4.855469 5.074219 8.277344 9.839844 8.277344.570312 0 1.152344-.050781 1.734375-.152344 56.003906-9.804687 83.390625-43.054687 83.390625-96.613281 0-83.113281-70.457031-220-130-220-41.585938 0-86.039062 65.507812-109.746094 126.371094-13.25 34.015625-20.253906 66.390625-20.253906 93.628906zm223.515625-80c10.652344 29.042969 16.484375 57.234375 16.484375 80h-220c0-22.765625 5.832031-50.957031 16.484375-80zm-93.515625-120c33.171875 0 72.050781 69.351562 85.464844 100h-170.929688c13.351563-30.507812 52.253906-100 85.464844-100zm0 0"/><path d="m140 502c0 5.523438-4.476562 10-10 10s-10-4.476562-10-10 4.476562-10 10-10 10 4.476562 10 10zm0 0"/></svg>